<?xml version="1.0" encoding="utf-8"?>
<svg xmlns="http://www.w3.org/2000/svg" viewBox="0 0 500 500">
  <g transform="matrix(1, 0, 0, 1, -6.313688, -11.402203)">
    <g>
      <path d="M 406.262 235.354 C 406.261 247.718 406.261 392.339 406.261 404.435 L 105.739 404.435 L 105.739 264.957 C 105.739 264.957 105.738 245.682 105.738 199.652 L 105.738 179.565 L 406.26 179.565 L 406.26 199.652 L 406.261 199.652 M 439.652 179.565 L 439.652 161.263 C 439.652 161.263 439.916 153.81 436.345 150.232 C 432.046 145.925 428.758 146.178 421.397 146.065 C 416.702 146.059 411.273 146.052 405.238 146.044 C 334.779 145.952 176.735 145.768 105.957 145.676 C 101.917 145.671 93.109 145.714 85.538 145.757 C 78.536 146.468 78.04 146.766 74.961 149.857 C 71.845 152.984 72.416 159.082 72.416 159.082 L 72.348 179.565 C 72.348 185.75 72.348 272.02 72.348 278.261 L 55.652 278.261 C 28.034 278.261 5.565 300.73 5.565 328.348 L 5.565 428.522 C 5.565 456.14 28.034 478.609 55.652 478.609 L 75.219 478.609 C 82.111 498.041 100.669 512 122.435 512 L 389.565 512 C 411.331 512 429.888 498.041 436.78 478.609 L 456.347 478.609 C 483.965 478.609 506.434 456.14 506.434 428.522 L 506.434 328.348 C 506.434 300.73 483.965 278.261 456.347 278.261 L 439.651 278.261 L 439.651 183.652 L 439.651 179.565 L 439.652 179.565 Z M 72.348 445.217 L 55.652 445.217 C 46.446 445.217 38.956 437.727 38.956 428.521 L 38.956 378.434 L 72.347 378.434 C 72.348 385.746 72.348 436.72 72.348 445.217 Z M 72.348 345.043 L 38.957 345.043 L 38.957 328.347 C 38.957 319.141 46.447 311.651 55.653 311.651 L 72.349 311.651 L 72.349 345.043 L 72.348 345.043 Z M 406.261 461.913 C 406.261 471.119 398.771 478.609 389.565 478.609 L 122.435 478.609 C 113.229 478.609 105.739 471.119 105.739 461.913 L 105.739 437.826 L 306.087 437.826 L 306.087 454.522 C 306.087 463.742 313.562 471.218 322.783 471.218 C 332.004 471.218 339.479 463.743 339.479 454.522 L 339.479 437.826 L 406.262 437.826 L 406.262 461.913 L 406.261 461.913 Z M 473.043 428.522 C 473.043 437.728 465.553 445.218 456.347 445.218 L 439.651 445.218 C 439.651 437.546 439.651 385.633 439.651 378.435 L 473.042 378.435 L 473.042 428.522 L 473.043 428.522 Z M 456.348 311.652 C 465.554 311.652 473.044 319.142 473.044 328.348 L 473.044 345.044 L 439.653 345.044 L 439.653 311.653 L 456.348 311.653 L 456.348 311.652 Z"/>
      <path d="M 439.937 9.872 L 439.937 -8.438 C 439.937 -8.438 440.197 -15.888 436.627 -19.468 C 432.327 -23.778 429.037 -23.518 421.677 -23.628 C 416.987 -23.638 411.557 -23.648 405.517 -23.658 C 335.057 -23.748 177.007 -23.928 106.237 -24.018 C 102.187 -24.028 93.377 -23.988 85.807 -23.938 C 78.807 -23.228 78.317 -22.928 75.247 -19.838 C 72.127 -16.718 72.687 -10.618 72.687 -10.618 L 72.627 9.872 C 72.627 12.94 70.897 41.883 79.187 66.393 C 87.587 91.247 106.007 111.652 106.007 111.652 C 127.247 133.342 156.817 146.822 189.497 146.822 L 206.187 146.822 L 206.187 163.522 C 206.187 172.741 213.667 180.217 222.877 180.217 L 289.677 180.217 C 298.887 180.217 306.367 172.742 306.367 163.522 L 306.367 146.822 L 323.057 146.822 C 355.727 146.822 395.527 123.022 400.467 117.575 C 405.447 112.839 423.697 93.751 432.067 70.293 C 441.787 43.049 439.937 9.872 439.937 9.872 Z M 239.577 146.822 L 239.577 113.432 L 272.977 113.432 L 272.977 146.822 L 239.577 146.822 Z M 406.547 29.952 C 406.547 75.982 369.097 113.432 323.057 113.432 L 306.367 113.432 L 306.367 96.742 C 306.367 87.522 298.887 80.042 289.677 80.042 L 222.877 80.042 C 213.667 80.042 206.187 87.512 206.187 96.742 L 206.187 113.432 L 189.497 113.432 C 143.457 113.432 106.007 75.982 106.007 29.952 L 106.007 9.872 L 406.547 9.872 L 406.547 29.952 Z" style="transform-box: fill-box; transform-origin: 50% 50%;" transform="matrix(-1, 0, 0, -1, 0.000008, -0.000003)"/>
    </g>
  </g>
  <path d="M 238.277 196.978 C 239.221 196.034 240.122 195.335 241.526 194.999 C 243.688 194.482 246.299 194.64 246.299 194.64 L 259.651 194.64 L 263.526 194.843 C 263.526 194.843 265.775 195.292 266.931 196.448 C 268.2 197.717 268.535 201.257 268.535 201.257 L 268.685 205.016 L 268.685 265.929 L 326.18 265.929 L 333.939 265.929 C 333.939 265.929 337.005 265.833 338.427 267.255 C 339.776 268.604 339.974 271.652 339.974 271.652 L 339.974 277.376 L 339.974 284.245 L 339.652 291.689 C 339.652 291.689 339.38 295.11 337.663 296.75 C 335.966 298.371 332.619 298.49 332.619 298.49 L 326.898 298.49 L 268.685 298.49 L 268.685 356.969 L 268.685 362.573 C 268.685 362.573 269.026 366.354 267.328 368.052 C 265.612 369.768 261.405 369.779 261.405 369.779 L 255.743 369.779 L 249.861 369.779 L 242.992 369.779 C 242.992 369.779 239.224 369.424 237.605 367.805 C 235.833 366.033 236.124 362.26 236.124 362.26 L 236.124 356.412 L 236.124 298.49 L 178.202 298.49 L 171.518 298.49 C 171.518 298.49 167.685 298.75 166.122 297.203 C 164.221 295.322 164.835 290.468 164.835 290.468 L 164.835 284.229 L 164.835 278.648 L 164.835 271.494 C 164.835 271.494 164.981 268.785 166.293 267.473 C 168 265.766 171.218 265.929 171.218 265.929 L 177.429 265.929 L 236.124 265.929 L 236.124 204.665 C 236.124 204.665 235.942 202.136 236.552 199.887 C 236.87 198.717 237.468 197.787 238.277 196.978 Z" style=""/>
</svg>