<?xml version="1.0" encoding="utf-8" ?>
<svg xmlns="http://www.w3.org/2000/svg" xmlns:xlink="http://www.w3.org/1999/xlink" width="1024" height="1024">
	<path fill="#2A2993" d="M544.816 77.1487C549.402 76.6935 553.876 76.6236 558.427 77.469C564.657 78.6266 569.997 81.4137 575.403 84.608C598.522 98.2684 620.666 113.808 643.204 128.397L754.41 199.691L859.588 266.968C888.693 285.421 918.156 303.697 946.61 323.139C950.39 325.722 954.967 328.641 957.468 332.571C959.018 335.006 959.852 337.955 960.259 340.791C961.254 347.708 961.018 382.029 959.406 388.496C958.598 391.737 957.114 394.658 954.911 397.174C948.279 404.749 932.037 413.062 922.953 418.554C932.26 425.542 949.671 433.252 956.099 442.28C958.007 444.96 959.1 448.018 959.686 451.236C960.692 456.753 960.981 487.575 959.924 492.928C957.659 504.391 933.17 516.745 923.441 523.543C923.577 532.7 923.477 541.871 923.484 551.029C933.25 557.122 954.009 568.723 958.479 579.274C962.068 587.747 962.247 626.908 958.502 635.253C956.808 639.026 953.719 642.389 950.364 644.773C937.326 654.036 923.455 662.294 910.075 671.062Q855.325 706.298 801.188 742.469Q705.251 808.415 607.876 872.221L569.741 897.47C557.061 906.01 544.608 916.131 530.172 921.561C519.564 924.488 508.859 924.932 498.124 922.278C491.655 920.678 485.78 918.001 480.043 914.647C473.312 910.713 466.948 906.01 460.517 901.604Q449.617 894.115 438.428 887.064L316.969 808.784L151.088 701.044Q125.632 684.533 100.488 667.551C92.4702 662.235 84.024 657.335 76.2813 651.642C72.5031 648.864 69.3464 645.588 66.9546 641.542C64.285 637.025 63.0868 632.168 62.6773 626.983C61.9149 617.328 62.5154 607.428 62.5436 597.74L62.5523 545.601L62.5305 464.513C62.4878 446.784 60.7216 417.631 64.9701 401.122C67.4405 391.522 72.0252 381.748 78.8818 374.53C88.1633 364.759 110.393 352.262 122.483 344.339C143.767 330.391 164.478 315.88 186.397 302.886C185.997 297.441 185.615 290.248 188.518 285.427C192.218 279.285 219.376 263.053 226.84 261.458C233.165 260.107 238.509 263.173 243.537 266.536C253.773 259.414 264.537 253.181 274.532 245.678C274.221 239.606 273.5 232.373 277.864 227.479C284.291 220.27 306.928 205.275 316.428 205.019C321.263 204.889 325.099 207.078 328.547 210.292C341.476 200.835 355.469 193.126 368.601 184.01C368.104 178.458 367.54 171.691 370.792 166.833C375.932 159.153 400.19 143.368 409.27 141.717C415.28 140.624 420.766 145.181 425.394 148.403C436.38 141.018 447.607 133.996 458.624 126.656C458.629 122.465 459.083 118.333 459.77 114.204C465.126 106.709 487.828 91.5951 496.821 88.4642C502.755 86.3985 507.754 89.1997 512.962 91.8116C522.943 85.3053 532.88 79.1206 544.816 77.1487Z"/>
	<path fill="#FBFAF9" d="M908.635 438.118C908.999 436.237 909.39 434.357 909.691 432.465C915.212 435.901 939.653 450.266 941.164 455.478C941.436 456.417 941.067 457.569 940.554 458.373C939.618 459.84 938.298 460.904 936.832 461.803Q934.514 458.829 931.858 456.152Q929.203 453.475 926.248 451.133C922.084 447.796 910.569 442.305 908.635 438.118Z"/>
	<path fill="#FBFAF9" d="M908.779 571.507C908.801 569.87 908.61 567.962 909.406 566.502C914.75 566.629 937.668 583.967 942.484 588.122C942.605 592.181 942.993 595.477 940.97 599.151C940.911 598.443 940.874 597.713 940.672 597.026C940.319 595.831 939.574 594.112 938.388 593.575C936.351 592.653 935.271 593.296 933.253 593.882C933.378 593.778 933.505 593.677 933.627 593.57C934.731 592.596 935.417 592.007 935.536 590.502C929.883 583.078 915.935 579.096 908.779 571.507Z"/>
	<path fill="#1136AA" d="M557.002 711.35L557.892 712.74C556.393 714.99 554.49 716.823 553.067 719.104C555.988 724.784 555.272 730.933 553.891 736.938C553.645 738.008 552.941 739.382 552.888 740.439C552.831 741.583 553.072 741.705 553.942 742.357C549.867 745.753 544.044 748.284 539.178 750.332C537.96 740.843 538.614 731.056 538.966 721.517C545.35 718.603 551.164 715.212 557.002 711.35Z"/>
	<path fill="#AB92E2" d="M908.635 438.118C910.569 442.305 922.084 447.796 926.248 451.133Q929.203 453.475 931.858 456.152Q934.514 458.829 936.832 461.803C929.434 467.424 921.504 473.488 913.043 477.362C915.633 473.121 929.532 466.605 935.102 461.298C932.873 458.196 930.397 455.53 927.715 452.816C919.036 459.078 909.183 465.841 899.513 470.386C900.057 469.696 900.802 468.86 901.14 468.051C902.057 465.856 899.848 450.248 898.763 447.795C902.66 445.24 907.506 442.98 908.635 438.118Z"/>
	<path fill="#37B5E8" d="M490.464 613.358C496.23 616.093 501.952 619.074 508.417 619.524Q508.989 635.716 508.52 651.912C501.973 649.856 495.428 647.774 489.804 643.708C492.527 635.678 490.831 622.055 490.464 613.358Z"/>
	<path fill="#7ED2EB" d="M476.728 138.769C492.838 150.699 510.295 160.775 526.45 172.633C522.64 175.271 518.555 178.465 514.349 180.376Q490.924 162.133 465.594 146.645C469.339 144.068 473.113 141.528 476.728 138.769Z"/>
	<path fill="#7ED2EB" d="M283.77 265.29Q290.187 260.893 296.509 256.36C307.688 265.874 320.698 273.547 332.802 281.859C336.341 284.289 340.688 286.491 343.798 289.408C340.426 293.01 336.402 295.616 332.296 298.302C320.539 287.728 297.756 273.573 283.77 265.29Z"/>
	<path fill="#7ED2EB" d="M390.297 194.236C405.884 206.619 423.54 215.954 439.207 228.317C435.194 231.121 431.223 234.048 427.077 236.652C424.17 234.087 420.593 231.92 417.412 229.692C404.722 220.803 390.257 212.983 378.661 202.743Q384.377 198.35 390.297 194.236Z"/>
	<path fill="#7ED2EB" d="M191.148 324.642C196.082 321.446 201.048 318.295 205.831 314.875C214.45 320.968 223.269 326.566 232.224 332.143C240.685 337.412 249.953 342.591 257.262 349.404Q250.271 354.353 243.075 359C226.725 346.385 207.842 336.859 191.148 324.642Z"/>
	<defs>
		<linearGradient id="gradient_0" gradientUnits="userSpaceOnUse" x1="343.40997" y1="750.80652" x2="330.0752" y2="775.03754">
			<stop offset="0" stop-color="#0EA3E7"/>
			<stop offset="1" stop-color="#33D8EC"/>
		</linearGradient>
	</defs>
	<path fill="url(#gradient_0)" d="M165.366 653.483L166.009 652.683C170.132 653.378 201.546 674.657 207.989 678.701L408.824 805.471C428.002 817.724 447.274 829.862 466.291 842.363C478.178 850.177 489.784 859.194 502.412 865.709C503.479 866.368 504.665 867.299 505.833 867.724L510.376 871.375L510.019 871.51C505.421 872.084 501.587 870.657 497.622 868.421C480.698 858.874 464.806 847.631 448.782 836.682Q423.28 819.252 397.362 802.448C368.969 784.056 340.217 766.165 311.588 748.139C299.075 740.26 286.139 732.81 273.955 724.454C268.15 719.281 260.08 715.304 253.483 711.096L197.792 675.328C189.247 669.904 180.255 665.101 171.936 659.34C169.622 657.737 166.691 656.028 165.366 653.483Z"/>
	<path fill="#4669C2" d="M309.75 346.085C311.816 352.766 310.436 402.378 310.507 413.235C302.831 418.742 294.141 425.259 285.062 428.087C285.868 415.56 285.386 402.985 285.299 390.443C285.21 377.621 285.738 365.24 283.877 352.479L284.061 351.229C284.511 351.507 284.708 351.664 285.174 351.844C290.176 353.779 305.057 348.297 309.75 346.085Z"/>
	<path fill="#7ED2EB" d="M505.34 103.093C514.476 109.188 523.324 115.663 532.403 121.832C544.351 129.951 562.654 140.136 571.427 151.109C566.194 152.209 552.968 160.707 549.502 165C538.403 152.607 523.832 145.382 510.092 136.451C500.792 130.405 491.815 123.87 482.83 117.371C490.661 113.281 497.994 107.996 505.34 103.093Z"/>
	<path fill="#7ED2EB" d="M321.132 219.307C331.603 226.944 343.036 234.119 354.056 240.924C365.754 248.148 377.471 254.866 387.391 264.536C379.905 268.47 369.439 271.615 366.544 280.35C366.478 280.548 366.42 280.748 366.358 280.947C355.461 267.566 314.575 246.234 297.972 234.415Q309.214 226.343 321.132 219.307Z"/>
	<defs>
		<linearGradient id="gradient_1" gradientUnits="userSpaceOnUse" x1="482.09338" y1="306.65094" x2="473.43991" y2="216.25015">
			<stop offset="0" stop-color="#3485C2"/>
			<stop offset="1" stop-color="#25B8E8"/>
		</linearGradient>
	</defs>
	<path fill="url(#gradient_1)" d="M486.773 213.362C488.5 216.578 489.3 219.742 489.772 223.328C490.857 231.561 490.459 240.23 490.503 248.529Q490.674 272.709 490.082 296.883C482.977 302.549 475.063 306.24 466.824 309.916Q466.625 290.915 466.778 271.914C466.81 255.74 467.628 240.323 462.4 224.742C463.561 224.7 464.535 224.605 465.655 224.266C470.979 222.657 483.914 218.556 486.773 213.362Z"/>
	<path fill="#CCF0F4" d="M283.77 265.29C297.756 273.573 320.539 287.728 332.296 298.302L299.781 319.287C285.212 307.943 269.588 298.523 254.311 288.253C253.628 287.794 253.209 287.292 252.772 286.605C253.583 284.138 279.892 267.841 283.77 265.29Z"/>
	<path fill="#CCF0F4" d="M465.594 146.645Q490.924 162.133 514.349 180.376L481.667 201.687C470.504 188.995 448.672 177.435 434.133 167.694C444.475 160.389 454.824 153.306 465.594 146.645Z"/>
	<path fill="#37B5E8" d="M571.427 151.109C574.379 155.549 576.357 159.627 577.474 164.875C579.971 176.609 578.695 189.017 578.51 200.921Q578.201 219.714 578.503 238.507C571.188 243.134 563.91 247.324 556.082 251.029C555.289 235.679 555.526 220.311 555.539 204.947C555.546 196.68 556.071 188.036 554.862 179.855C554.108 174.753 552.615 169.195 549.502 165C552.968 160.707 566.194 152.209 571.427 151.109Z"/>
	<path fill="#7ED2EB" d="M415.66 157.129Q428.277 166.262 441.189 174.975C457.323 185.633 477.796 195.391 486.773 213.362C483.914 218.556 470.979 222.657 465.655 224.266C464.535 224.605 463.561 224.7 462.4 224.742C460.218 219.987 456.626 215.978 452.771 212.509C447.803 208.038 442.089 204.431 436.617 200.616C422.059 190.468 406.952 181.022 392.124 171.268Q403.642 163.782 415.66 157.129Z"/>
	<path fill="#37B5E8" d="M387.391 264.536C391.302 268.72 394.321 273.517 395.813 279.09C398.535 289.254 397.175 304.819 397.139 315.58L397.108 355.418C391.192 359.14 382.293 366.197 375.241 366.824C374.234 366.303 374.11 366.214 373.775 365.056C372.604 361.007 373.431 354.65 373.46 350.374L373.58 321.59C373.607 312.461 374.177 302.997 372.144 294.04C371.033 289.145 369.168 285.108 366.358 280.947C366.42 280.748 366.478 280.548 366.544 280.35C369.439 271.615 379.905 268.47 387.391 264.536Z"/>
	<path fill="#CCF0F4" d="M378.661 202.743C390.257 212.983 404.722 220.803 417.412 229.692C420.593 231.92 424.17 234.087 427.077 236.652Q407.948 249.719 388.313 262.011C373.333 249.143 355.552 239.762 339.324 228.568Q358.805 215.37 378.661 202.743Z"/>
	<path fill="#4669C2" d="M480.571 118.703Q495.541 129.603 511.083 139.669C519.861 145.28 529.182 150.442 537.442 156.785C545.023 162.607 551.334 169.311 552.534 179.27C553.323 185.82 554.458 248.268 552.955 250.22L551.366 249.792C547.538 248.129 543.544 246.093 540.517 243.17C538.258 240.99 536.608 238.398 535.797 235.352C533.084 225.171 536.349 201.679 535.871 189.63C535.694 185.163 534.778 180.316 532.276 176.545C524.492 164.814 490.756 148.415 477.941 136.441C477.57 130.128 477.239 124.367 480.571 118.703Z"/>
	<path fill="#4669C2" d="M295.494 235.589C296.183 235.708 296.718 235.884 297.323 236.241C305.256 240.913 312.658 246.766 320.494 251.67C332.379 259.106 350.098 268.505 360.392 277.582C368.262 284.522 370.726 292.579 371.374 302.744C371.667 307.339 371.024 365.557 370.923 365.756C370.769 366.057 370.476 366.262 370.253 366.516C363.692 363.268 357.863 359.904 352.546 354.828Q352.476 340.065 352.639 325.304C352.796 317.223 353.886 308.328 352.448 300.377C351.659 296.016 349.57 292.513 346.548 289.313C341.711 284.188 334.876 280.161 329.032 276.265C317.553 268.611 305.684 261.429 294.452 253.422C293.913 247.677 293.255 241.049 295.494 235.589Z"/>
	<path fill="#4669C2" d="M389.365 173.128C396.361 175.361 443.823 207.462 450.662 213.352C459.352 220.836 463.34 230.722 464.173 241.993C464.761 249.94 465.901 304.704 464.492 308.257C464.364 308.581 464.036 308.783 463.807 309.046C459.608 306.628 454.768 304.572 451.302 301.123C449.44 299.27 448.093 297.083 447.45 294.527C445.453 286.586 447.324 263.674 447.312 254.064C447.304 247.703 447.633 239.944 445.121 234.059C443.611 230.519 441.145 227.486 438.314 224.914C434.22 221.195 429.376 218.336 424.737 215.361C412.76 207.68 398.734 200.081 388.693 189.927L388.208 189.428C387.794 183.97 387.678 178.388 389.365 173.128Z"/>
	<defs>
		<linearGradient id="gradient_2" gradientUnits="userSpaceOnUse" x1="227.77979" y1="404.07095" x2="262.15268" y2="317.09995">
			<stop offset="0" stop-color="#186092"/>
			<stop offset="1" stop-color="#239CCA"/>
		</linearGradient>
	</defs>
	<path fill="url(#gradient_2)" d="M206.983 293.994C218.999 302.162 231.616 309.453 244.051 316.956C254.119 323.03 266.694 329.035 274.533 337.891C278.531 342.407 280.522 347.691 282.23 353.384C283.832 362.851 283.542 372.022 283.52 381.57L283.492 410.472C283.494 415.777 283.236 421.365 283.807 426.636L282.911 426.968C277.262 425.315 269.864 419.736 265.429 415.837Q265.375 401.764 265.516 387.692C265.658 379.406 266.266 370.938 265.381 362.686C264.847 357.702 263.284 352.623 260.046 348.705C254.689 342.223 244.91 337.399 237.835 332.976C227.123 326.279 215.922 319.768 206.062 311.845C205.811 305.817 206.263 299.978 206.983 293.994Z"/>
	<path fill="#7ED2EB" d="M208.708 292.476C217.112 287.666 225.058 282.129 233.008 276.615C243.845 284.451 255.407 291.799 266.729 298.943C275.779 304.653 284.987 310.137 293.263 316.964C303.867 325.712 308.38 332.189 309.75 346.085C305.057 348.297 290.176 353.779 285.174 351.844C284.708 351.664 284.511 351.507 284.061 351.229C282.246 345.093 277.938 338.5 273.356 334.054C265.619 326.546 255.266 321.193 246.116 315.546L208.708 292.476Z"/>
	<path fill="#4669C2" d="M599.037 513.213C601.45 514.188 604.724 515.959 606.73 517.604C607.947 518.601 609.112 520.046 609.118 521.696C609.124 523.415 607.981 524.901 606.801 526.037C602.539 530.141 595.78 533.267 590.736 536.545C578.653 544.398 566.503 553.514 553.775 560.231C550.814 561.793 547.17 563.767 543.762 563.697C540.092 563.622 536.509 562.292 533.265 560.649C519.44 553.648 502.878 541.743 489.394 533.208C479.417 526.893 449.337 509.843 443.243 503.259C441.428 501.297 440.124 498.901 440.316 496.159C440.564 492.632 443.154 490.459 445.595 488.259L515.048 530.84C523.601 536.159 531.271 542.883 540.681 546.746L541.359 546.21C556.001 543.231 566.09 534.052 579.093 527.682C582.151 525.247 585.7 523.261 589.003 521.165C592.678 518.916 595.922 516.172 599.037 513.213Z"/>
	<path fill="#37B5E8" d="M541.359 546.21C556.001 543.231 566.09 534.052 579.093 527.682C575.899 533.428 556.525 545.082 549.888 546.938C546.941 547.762 543.519 548.163 540.681 546.746L541.359 546.21Z"/>
	<path fill="#4669C2" d="M165.366 653.483C166.691 656.028 169.622 657.737 171.936 659.34C180.255 665.101 189.247 669.904 197.792 675.328L253.483 711.096C260.08 715.304 268.15 719.281 273.955 724.454C271.418 724.208 269.887 722.849 267.901 721.421C267.699 721.532 267.502 721.651 267.297 721.754C266.524 722.139 266.072 722.204 265.232 722.246L265.806 724.956L266.339 725.353C268.479 726.917 278.147 730.206 278.307 731.342C278.755 734.504 273.773 739.75 276.561 742.118C277.822 743.189 279.541 743.448 280.28 745.061C280.281 746.47 279.86 746.956 279.081 748.062C275.944 750.062 271.772 746.853 269.966 750.85C270.067 751.668 270.148 752.431 270.369 753.226C264.148 749.326 258.164 745.002 251.975 741.037L188.555 700.549C174.229 691.345 158.731 683.084 145.256 672.691L145.544 671.235C148.002 671.898 150.489 672.598 153.057 672.59C156.489 672.579 159.963 671.537 162.287 668.898C165.974 664.71 165.697 658.682 165.366 653.483Z"/>
	<defs>
		<linearGradient id="gradient_3" gradientUnits="userSpaceOnUse" x1="747.37988" y1="209.56467" x2="720.41144" y2="248.41426">
			<stop offset="0" stop-color="#F8F4F3"/>
			<stop offset="1" stop-color="#E4FDFC"/>
		</linearGradient>
	</defs>
	<path fill="url(#gradient_3)" d="M523.524 112.898C532.381 107.879 546.911 95.7045 557.685 98.6376C566.988 101.17 576.294 109.092 584.324 114.287C591.601 118.995 599.001 123.525 606.349 128.123Q693.87 182.8 780.372 239.076L879.456 302.938L918.712 328.254C926.049 333.016 933.474 337.572 940.579 342.684C940.635 345.739 940.595 348.833 940.802 351.879C936.774 349.378 933.015 346.069 929.143 343.296C922.302 338.397 915.226 333.773 908.26 329.049Q880.775 310.639 852.944 292.757C837.373 282.58 821.338 271.682 805.355 262.3Q757.846 230.791 709.424 200.705C693.358 190.511 677.614 179.883 661.465 169.793L619.756 143.641C612.227 139.017 603.475 135.156 596.832 129.352C594.06 128.586 592.542 129.387 590.096 130.77C582.69 134.956 576.385 141.048 568.341 144.076C554.129 132.683 538.262 123.562 523.524 112.898Z"/>
	<path fill="#7ED2EB" d="M933.253 593.882C935.271 593.296 936.351 592.653 938.388 593.575C939.574 594.112 940.319 595.831 940.672 597.026C940.874 597.713 940.911 598.443 940.97 599.151C931.011 606.618 920.164 613.128 909.682 619.848Q896.122 628.686 882.732 637.78Q827.746 674.887 772.008 710.855Q733.468 735.289 695.245 760.222Q643.174 794.276 591.806 829.382C582.131 835.995 572.296 842.451 562.728 849.212C554.977 854.689 547.386 860.855 539.041 865.392C529.925 870.349 520.603 871.33 510.376 871.375L505.833 867.724C513.035 867.381 518.759 865.943 525.133 862.488C544.408 852.044 562.28 838.41 580.3 825.941L672.268 762.056C696.296 745.392 721.552 730.369 746.081 714.437C781.978 691.12 817.38 667.146 853.489 644.136L903.667 611.618C912.684 605.857 923.681 598.478 933.253 593.882Z"/>
	<path fill="#7ED2EB" d="M927.715 452.816C930.397 455.53 932.873 458.196 935.102 461.298C929.532 466.605 915.633 473.121 913.043 477.362C907.713 481.623 901.761 485.126 896.012 488.788L869.668 505.576L784.366 560.164L627.637 661.105Q612.354 670.912 597.225 680.956C588.502 686.845 579.86 693.099 570.937 698.665C566.223 701.605 561.234 704.109 556.478 706.982C548.535 711.78 541.668 717.048 532.525 719.353C532.104 718.922 531.498 718.374 531.19 717.836C530.113 715.958 529.988 712.228 530.439 710.154C530.976 707.688 533.195 706.644 535.212 705.462C540.455 702.389 546.046 699.896 551.238 696.731C555.852 693.918 560.1 690.351 564.454 687.151C568.971 683.831 573.697 680.766 578.359 677.655C600.185 663.094 622.398 649.069 644.435 634.827Q771.359 551.656 899.513 470.386C909.183 465.841 919.036 459.078 927.715 452.816Z"/>
	<path fill="#CCF0F4" d="M191.148 324.642C207.842 336.859 226.725 346.385 243.075 359C230.627 367.595 217.919 375.738 205.406 384.213C200.93 387.245 196.751 390.683 192.323 393.783C178.998 403.115 165.463 412.105 152.224 421.571C146.6 418.957 136.457 410.241 130.615 406.252C119.959 398.974 108.831 392.658 97.7912 386.018C107.298 378.169 118.154 372.292 128.42 365.523Q159.559 344.737 191.148 324.642Z"/>
	<path fill="#7ED2EB" d="M445.595 488.259L473.659 469.305C480.707 464.495 487.657 458.776 495.55 455.42C498.334 454.237 501.065 453.584 504.078 454.203C506.655 454.733 508.933 455.967 511.203 457.248C523.65 464.27 535.39 472.63 547.561 480.13Q563.837 490.097 579.951 500.325C586.376 504.402 593.181 508.351 599.037 513.213C595.922 516.172 592.678 518.916 589.003 521.165C585.7 523.261 582.151 525.247 579.093 527.682C566.09 534.052 556.001 543.231 541.359 546.21L540.681 546.746C531.271 542.883 523.601 536.159 515.048 530.84L445.595 488.259Z"/>
	<path fill="#FBFAF9" d="M582.321 515.525C584.69 517.298 586.869 519.115 589.003 521.165C585.7 523.261 582.151 525.247 579.093 527.682C566.09 534.052 556.001 543.231 541.359 546.21C546.482 538.208 573.152 522.388 582.321 515.525Z"/>
	<defs>
		<linearGradient id="gradient_4" gradientUnits="userSpaceOnUse" x1="250.36241" y1="767.30029" x2="523.5105" y2="854.59729">
			<stop offset="0" stop-color="#1866CF"/>
			<stop offset="1" stop-color="#15A4F3"/>
		</linearGradient>
	</defs>
	<path fill="url(#gradient_4)" d="M267.901 721.421C269.887 722.849 271.418 724.208 273.955 724.454C286.139 732.81 299.075 740.26 311.588 748.139C340.217 766.165 368.969 784.056 397.362 802.448Q423.28 819.252 448.782 836.682C464.806 847.631 480.698 858.874 497.622 868.421C501.587 870.657 505.421 872.084 510.019 871.51C509.807 881.707 510.789 891.672 509.962 901.902C489.646 896.947 471.492 882.708 454.158 871.458L413.314 844.955Q363.268 812.362 312.862 780.329C304.443 774.979 295.891 769.822 287.515 764.41C281.769 760.697 276.287 756.676 270.369 753.226C270.148 752.431 270.067 751.668 269.966 750.85C271.772 746.853 275.944 750.062 279.081 748.062C279.86 746.956 280.281 746.47 280.28 745.061C279.541 743.448 277.822 743.189 276.561 742.118C273.773 739.75 278.755 734.504 278.307 731.342C278.147 730.206 268.479 726.917 266.339 725.353L265.806 724.956L265.232 722.246C266.072 722.204 266.524 722.139 267.297 721.754C267.502 721.651 267.699 721.532 267.901 721.421Z"/>
	<path fill="#4669C2" d="M137.666 488.95C141.728 492.062 145.544 495.569 149.731 498.505C159.852 505.602 170.974 511.725 181.363 518.501Q213.338 539.747 245.867 560.135Q320.002 607.087 393.139 655.578Q417.148 671.377 440.99 687.428C449.353 693.08 458.217 698.525 466.012 704.937L465.984 730.162C453.655 724.187 442.547 715.177 431.137 707.599Q403.825 689.75 376.272 672.273L135.004 517.279C134.849 507.538 134.797 498.367 137.666 488.95Z"/>
	<path fill="#AB92E2" d="M803.572 306.184C802.174 303.723 799.407 302.68 797.255 300.978C795.928 299.929 794.684 298.142 794.645 296.398C794.543 291.872 794.752 287.42 794.394 282.877C793.959 277.355 789.978 264.258 792.471 259.763C793.129 258.577 793.649 257.538 793.737 256.147C793.748 255.969 793.74 255.791 793.742 255.613C797.205 258.045 800.763 260.319 804.327 262.6L805.355 262.3C821.338 271.682 837.373 282.58 852.944 292.757Q880.775 310.639 908.26 329.049C915.226 333.773 922.302 338.397 929.143 343.296C933.015 346.069 936.774 349.378 940.802 351.879C938.85 354.78 936.138 356.628 933.318 358.605C923.888 365.217 913.819 371.05 904.164 377.342C883.304 390.936 862.572 404.64 841.466 417.853Q831.966 423.798 822.528 429.841C819.871 431.536 816.827 434.002 813.972 435.209L811.846 435.715C812.023 432.433 812.721 429.276 812.587 425.961C812.339 419.791 809.352 403.752 810.379 399.515C811.136 396.387 813.139 394.258 815.612 392.329C819.073 389.631 826.553 386.858 828.752 383.305C828.875 383.106 828.978 382.896 829.091 382.692C830.933 380.863 833.998 379.371 836.209 377.954C843.369 373.363 861.783 362.84 866.506 356.74C867.75 355.132 868.671 353.195 868.278 351.117C867.882 349.024 866.415 347.6 864.862 346.269C856.942 339.477 847.305 334.683 838.516 329.151C826.787 321.768 814.998 314.03 803.572 306.184Z"/>
	<path fill="#4669C2" d="M941.355 602.483C943.044 604.269 942.084 624.766 942.017 627.894C923.519 641.749 903.636 653.721 884.282 666.334L785.743 730.542L534.333 895.953C532.643 888.057 533.363 879.776 533.605 871.769C548.011 863.746 561.279 853.626 574.883 844.332Q609.83 820.405 645.092 796.944L849.814 663.642L913.682 620.679C922.806 614.602 931.676 607.633 941.355 602.483Z"/>
	<defs>
		<linearGradient id="gradient_5" gradientUnits="userSpaceOnUse" x1="547.2533" y1="611.55011" x2="945.74573" y2="593.9278">
			<stop offset="0" stop-color="#1137AD"/>
			<stop offset="1" stop-color="#2A6DE9"/>
		</linearGradient>
	</defs>
	<path fill="url(#gradient_5)" d="M557.002 711.35Q697.319 618.401 839.799 528.807L913.686 480.715C922.799 474.797 931.251 467.271 940.969 462.379C940.991 470.661 940.341 479.618 941.643 487.792C918.524 505.881 893.151 521.14 868.733 537.417Q790.756 589.608 711.329 639.565L602.455 710.269C586.3 720.875 570.473 732.378 553.942 742.357C553.072 741.705 552.831 741.583 552.888 740.439C552.941 739.382 553.645 738.008 553.891 736.938C555.272 730.933 555.988 724.784 553.067 719.104C554.49 716.823 556.393 714.99 557.892 712.74L557.002 711.35Z"/>
	<defs>
		<linearGradient id="gradient_6" gradientUnits="userSpaceOnUse" x1="582.74677" y1="461.3392" x2="901.59229" y2="538.87848">
			<stop offset="0" stop-color="#1C3BC0"/>
			<stop offset="1" stop-color="#2A94F2"/>
		</linearGradient>
	</defs>
	<path fill="url(#gradient_6)" d="M939.897 357.909L940.347 358.326C941.554 364.113 940.631 377.724 940.626 384.341C891.086 418.168 840.238 450.256 789.929 482.936Q666.77 561.712 545.539 643.427C544.988 633.712 545.498 623.877 544.655 614.2C562.886 603.381 580.077 590.824 597.793 579.197L699.937 512.866L860.606 409.097C887.022 392.052 913.776 375.394 939.897 357.909Z"/>
	<path fill="#7ED2EB" d="M97.7912 386.018C108.831 392.658 119.959 398.974 130.615 406.252C136.457 410.241 146.6 418.957 152.224 421.571C137.698 434.172 129.621 447.939 128.257 467.373C127.312 480.842 127.908 494.678 127.93 508.183L127.973 577.788L127.937 616.852C127.881 625.333 127.016 634.603 128.462 642.953C129.904 651.284 134.476 659.786 140.024 666.095C141.684 667.982 143.491 669.78 145.544 671.235L145.256 672.691C132.441 665.228 120.064 656.699 107.691 648.511C99.049 642.792 89.3171 637.317 81.7983 630.209C81.7067 628.883 81.6693 627.558 81.6362 626.23C81.2069 609.029 81.4796 591.779 81.4852 574.572L81.5032 484.695L81.4399 445.814C81.3554 435.392 80.3633 424.133 82.428 413.874C84.5649 403.257 90.3943 393.787 97.7912 386.018Z"/>
	<path fill="#4669C2" d="M174.474 410.168L178.717 407.097L367.808 525.364Q392.497 540.781 416.751 556.872C423.549 561.343 434.567 569.689 441.459 572.816C451.251 579.144 504.845 611.474 508.878 618.559L508.417 619.524C501.952 619.074 496.23 616.093 490.464 613.358C490.831 622.055 492.527 635.678 489.804 643.708C484.982 641.126 480.503 637.976 475.97 634.926Q432.961 607.615 390.373 579.651L270.965 502.728C237.348 481.124 203.247 460.026 170.243 437.502C164.345 433.477 157.644 430.405 151.982 426.144C159.031 420.145 166.603 415.021 174.474 410.168Z"/>
	<path fill="#7ED2EB" d="M174.474 410.168L178.717 407.097L367.808 525.364Q392.497 540.781 416.751 556.872C423.549 561.343 434.567 569.689 441.459 572.816C451.251 579.144 504.845 611.474 508.878 618.559L508.417 619.524C501.952 619.074 496.23 616.093 490.464 613.358C490.831 622.055 492.527 635.678 489.804 643.708C484.982 641.126 480.503 637.976 475.97 634.926C476.08 625.085 475.955 615.225 475.942 605.383L262.049 464.57C233.223 445.846 203.146 429.169 174.474 410.168Z"/>
	<path fill="#7ED2EB" d="M512.633 836.074C511.846 825.275 513.764 796.687 519.611 788.235C521.364 785.703 524.097 783.692 526.637 781.986C536.059 775.655 546.545 770.689 556.314 764.885L617.653 727.686C643.502 712.083 668.704 695.501 694.079 679.154L819.533 597.971Q833.906 588.724 848.171 579.312C858.973 572.069 895.22 545.623 904.528 543.752C904.747 557.149 904.913 570.471 904.493 583.866C894.502 592.289 882.304 598.541 871.295 605.557L811.45 644.091L623.696 765.883Q590.657 787.213 558.015 809.146C544.989 817.765 531.853 827.104 518.205 834.681C516.832 835.443 515.363 836.353 513.743 836.33C513.156 836.321 513.112 836.263 512.633 836.074Z"/>
	<path fill="#7ED2EB" d="M905.001 412.11C905.586 412.88 905.455 435.999 905.528 439.302C900.666 443.368 894.939 446.538 889.602 449.941L862.171 467.441L775.392 523.05L619.925 622.504L571.023 654.598C562.241 660.43 553.586 666.545 544.608 672.069C539.276 675.35 533.616 678.501 527.543 680.169C516.782 683.125 507.727 680.605 497.822 676.061C485.563 670.436 474.71 662.38 463.567 654.891Q444.081 641.739 424.254 629.109L348.121 580.505Q297.328 548.529 247.074 515.709L187.674 476.808L162.774 460.247C158.104 457.115 153.597 453.82 148.708 451.026L144.021 448.32C143.963 440.178 144.824 434.923 149.482 427.974C172.16 443.736 195.596 458.249 218.838 473.147L332.725 546.374L437.678 614.466C447.645 620.938 457.736 627.241 467.658 633.776C475.28 638.797 482.817 644.223 490.719 648.787C495.896 651.778 501.383 654.111 507.22 655.449C518.07 657.935 528.568 656.821 538.59 652.006C549.681 646.678 558.527 638.149 568.572 631.225Q598.281 610.978 628.48 591.468L804.197 477.419C837.727 455.625 871.033 433.201 905.001 412.11Z"/>
	<path fill="#4669C2" d="M908.779 571.507C915.935 579.096 929.883 583.078 935.536 590.502C935.417 592.007 934.731 592.596 933.627 593.57C933.505 593.677 933.378 593.778 933.253 593.882C923.681 598.478 912.684 605.857 903.667 611.618L853.489 644.136C817.38 667.146 781.978 691.12 746.081 714.437C721.552 730.369 696.296 745.392 672.268 762.056L580.3 825.941C562.28 838.41 544.408 852.044 525.133 862.488C518.759 865.943 513.035 867.381 505.833 867.724C504.665 867.299 503.479 866.368 502.412 865.709C500.793 862.135 493.922 858.144 490.607 855.826C463.997 837.217 436.031 820.741 408.827 803.05L165.208 647.317C164.799 637.494 165.022 627.615 165.046 617.784C180.132 625.859 194.918 636.58 209.312 645.964L288.21 697.329C298.367 703.925 308.855 710.071 319.113 716.518C355.131 739.152 391.413 761.519 427.101 784.664Q455.223 803.189 483.585 821.345C493.682 827.788 503.908 835.939 515.306 839.749C527.951 832.751 539.929 824.719 552.017 816.815L608.753 779.189C652.613 750.093 697.005 721.667 741.281 693.209L861.545 615.291Q873.366 607.5 885.47 600.156C892.514 595.836 900.536 591.723 906.593 586.069C908.488 581.324 908.391 576.508 908.779 571.507Z"/>
	<path fill="#4669C2" d="M142.225 479.591C142.493 479.06 142.757 478.554 143.079 478.051C146.309 473.011 153.5 464.846 159.611 463.726C162.336 463.227 164.204 465.112 166.363 466.523C184.969 478.682 204.146 490.066 222.856 502.088L321.046 566.36C365.884 595.312 411.169 623.425 455.615 653.003C460.184 656.044 464.936 658.803 469.509 661.84C477.123 666.897 484.597 672.248 492.569 676.74C496.436 678.919 506.644 682.463 508.89 684.125C509.007 685.109 509.105 685.821 509.458 686.757C510.372 685.331 510.466 685.653 512.057 685.651C520.401 685.641 527.295 684.685 534.86 680.936C545.296 675.763 554.883 668.875 564.661 662.582L626.159 622.226Q711.712 568.086 796.668 513.009L863.102 469.981C874.884 462.445 886.587 454.686 898.763 447.795C899.848 450.248 902.057 465.856 901.14 468.051C900.802 468.86 900.057 469.696 899.513 470.386Q771.36 551.657 644.435 634.827C622.398 649.069 600.185 663.094 578.359 677.655C573.697 680.766 568.971 683.831 564.454 687.151C560.1 690.351 555.852 693.918 551.238 696.731C546.046 699.896 540.455 702.389 535.212 705.462C533.195 706.644 530.976 707.688 530.439 710.154C529.988 712.228 530.113 715.958 531.19 717.836C531.498 718.374 532.104 718.922 532.525 719.353C525.294 722.001 515.772 720.24 508.651 718.181L505.711 718.053C505.991 720.66 506.573 721.508 508.454 723.368C508.501 733.181 509.332 743.782 508.03 753.497C492.588 748.023 479.308 739.529 465.984 730.162L466.012 704.937C458.217 698.525 449.353 693.08 440.99 687.428Q417.148 671.377 393.139 655.578Q320.002 607.087 245.867 560.135Q213.338 539.747 181.363 518.501C170.974 511.725 159.852 505.602 149.731 498.505C145.544 495.569 141.728 492.062 137.666 488.95C139.031 485.715 140.523 482.662 142.225 479.591Z"/>
	<path fill="#37B5E8" d="M142.225 479.591C153.871 483.554 164.941 492.355 175.332 498.948L245.452 544.366L429.622 662.131C449.921 675.291 470.196 689.999 491.867 700.757C494.271 701.95 508.884 706.606 509.231 707.445C509.664 708.493 509.521 709.579 509.465 710.684C509.504 712.898 509.908 715.79 509.132 717.866L508.651 718.181L505.711 718.053C505.991 720.66 506.573 721.508 508.454 723.368C508.501 733.181 509.332 743.782 508.03 753.497C492.588 748.023 479.308 739.529 465.984 730.162L466.012 704.937C458.217 698.525 449.353 693.08 440.99 687.428Q417.148 671.377 393.139 655.578Q320.002 607.087 245.867 560.135Q213.338 539.747 181.363 518.501C170.974 511.725 159.852 505.602 149.731 498.505C145.544 495.569 141.728 492.062 137.666 488.95C139.031 485.715 140.523 482.662 142.225 479.591Z"/>
	<path fill="#6498E0" d="M505.711 718.053C505.886 714.436 507.072 713.203 509.465 710.684C509.504 712.898 509.908 715.79 509.132 717.866L508.651 718.181L505.711 718.053Z"/>
	<defs>
		<linearGradient id="gradient_7" gradientUnits="userSpaceOnUse" x1="303.98898" y1="759.3504" x2="741.79517" y2="349.35876">
			<stop offset="0" stop-color="#4CACAF"/>
			<stop offset="1" stop-color="#73D2E6"/>
		</linearGradient>
	</defs>
	<path fill="url(#gradient_7)" d="M165.376 542.097C176.486 548.584 187.261 555.883 198.132 562.773Q236.358 586.92 274.197 611.668L405.632 695.219L453.073 726.248C469.252 736.97 485.704 750.845 504.652 756.194C515.249 759.186 527.496 759.149 537.759 754.922C551.553 749.239 564.222 739.22 576.657 731.047L624.982 699.882L820.783 573.612Q839.454 561.752 857.798 549.391C872.959 539.122 887.869 528.592 903.874 519.652C904.85 527.617 904.55 535.744 904.528 543.752C895.22 545.623 858.973 572.069 848.171 579.312Q833.906 588.724 819.533 597.971L694.079 679.154C668.704 695.501 643.502 712.083 617.653 727.686L556.314 764.885C546.545 770.689 536.059 775.655 526.637 781.986C524.097 783.692 521.364 785.703 519.611 788.235C513.764 796.687 511.846 825.275 512.633 836.074C500.246 827.236 486.726 819.465 473.977 811.102Q422.695 777.074 370.52 744.432Q267.42 679.393 165.246 612.909Q165.023 577.502 165.376 542.097Z"/>
	<defs>
		<linearGradient id="gradient_8" gradientUnits="userSpaceOnUse" x1="442.22937" y1="390.04312" x2="804.36469" y2="343.01801">
			<stop offset="0" stop-color="#2C42BC"/>
			<stop offset="1" stop-color="#9F8CE0"/>
		</linearGradient>
	</defs>
	<path fill="url(#gradient_8)" d="M596.832 129.352C603.475 135.156 612.227 139.017 619.756 143.641L661.465 169.793C677.614 179.883 693.358 190.511 709.424 200.705Q757.846 230.791 805.355 262.3L804.327 262.6C800.763 260.319 797.205 258.045 793.742 255.613C793.74 255.791 793.748 255.969 793.737 256.147C793.649 257.538 793.129 258.577 792.471 259.763C789.978 264.258 793.959 277.355 794.394 282.877C794.752 287.42 794.543 291.872 794.645 296.398C794.684 298.142 795.928 299.929 797.255 300.978C799.407 302.68 802.174 303.723 803.572 306.184C814.998 314.03 826.787 321.768 838.516 329.151C847.305 334.683 856.942 339.477 864.862 346.269C866.415 347.6 867.882 349.024 868.278 351.117C868.671 353.195 867.75 355.132 866.506 356.74C861.783 362.84 843.369 373.363 836.209 377.954C833.998 379.371 830.933 380.863 829.091 382.692C828.978 382.896 828.875 383.106 828.752 383.305C826.553 386.858 819.073 389.631 815.612 392.329C813.139 394.258 811.136 396.387 810.379 399.515C809.352 403.752 812.339 419.791 812.587 425.961C812.721 429.276 812.023 432.433 811.846 435.715L813.972 435.209C794.557 448.549 774.331 460.938 754.526 473.706L633.004 552.33C613.015 565.438 592.909 578.439 573.103 591.818C561.774 599.47 547.681 610.638 535.47 616.171Q534.007 616.819 532.499 617.353Q530.991 617.887 529.447 618.303Q527.902 618.719 526.33 619.015Q524.758 619.312 523.167 619.486Q521.577 619.66 519.978 619.712Q518.379 619.763 516.781 619.692Q515.183 619.62 513.595 619.425Q512.007 619.231 510.439 618.915C509.915 618.813 509.397 618.684 508.878 618.559C504.845 611.474 451.251 579.144 441.459 572.816L442.557 572.12C445.666 571.94 465.191 586.235 470.82 588.822C470.766 583.4 469.611 578.012 469.577 572.566C469.519 563.177 471.425 553.089 472.805 543.784C477.028 542.347 481.428 540.621 485.229 538.269C485.936 536.895 485.776 536.703 485.51 535.153C488.073 535.026 517.98 555.323 522.307 557.903C528.694 561.712 539.272 568.603 547.002 566.396C555.404 563.997 600.702 534.807 608.179 528.886C609.904 527.52 611.699 525.906 612.676 523.894C613.267 522.675 613.356 521.502 612.865 520.224C612.029 518.053 609.921 516.357 608.096 515.041C603.562 511.773 598.542 509.291 593.819 506.322Q575.388 494.513 556.818 482.924Q543.783 474.776 530.904 466.385C523.064 461.294 514.281 454.658 505.491 451.407C493.233 446.873 455.294 480.885 441.239 486.912C443.53 482.564 450.979 482.448 453.359 476.23C453.521 475.807 453.655 475.373 453.841 474.96C454.308 473.922 454.545 473.537 455.635 473.091L457.224 473.836L457.857 473.421L457.136 472.185C457.674 469.869 467.482 467.077 470.004 465.179C468.33 464.007 466.525 463.409 465.956 461.288C465.353 459.037 465.17 455.942 466.485 453.944C468.577 453.007 470.545 453.749 472.688 454.305L473.006 453.948C472.61 452.029 471.241 450.474 470.123 448.906C470.667 446.926 471.406 444.736 471.365 442.671C471.149 431.895 458.66 418.305 456.063 408.084C455.327 405.189 456.767 401.784 456.4 398.74C455.603 392.144 452.247 385.96 451.6 379.281C450.716 370.162 452.679 360.926 451.41 351.835C450.58 345.896 445.733 336.408 447.646 330.583C448.02 329.444 448.803 329.106 449.804 328.577C451.422 328.727 453.409 329.097 454.996 328.633C457.877 327.79 491.18 307.336 494.986 304.364C497.284 302.569 499.489 300.495 500.804 297.85C501.8 295.848 502.173 293.623 501.33 291.5C499.893 287.88 495.843 285.587 492.48 284.111C492.837 263.279 490.732 242.093 492.866 221.298C498.53 224.091 504.914 228.051 509.362 232.601C512.525 235.837 515.273 239.537 518.943 242.246C522.342 244.755 526.175 246.82 529.753 249.074Q542.332 257.101 555.127 264.778C563.997 258.832 584.418 248.804 589.629 240.597C591.417 237.782 592.441 234.303 591.502 231.006C590.058 225.934 585.305 222.989 580.99 220.571L580.818 192.118C580.79 182.286 582.17 170.922 579.125 161.491C577.38 156.086 574.149 151.694 570.717 147.25C577.62 143.202 592.892 135.952 596.832 129.352Z"/>
	<path fill="#2A2993" d="M798.411 399.874C797.89 399.67 797.365 399.473 796.857 399.237C790.961 396.496 785.242 392.339 779.729 388.882Q762.151 377.865 744.697 366.653L712.908 346.303C706.992 342.509 700.686 338.896 695.168 334.555C692.499 332.456 689.504 329.764 688.364 326.486C687.314 323.463 688.028 319.921 689.576 317.199C690.814 315.021 692.987 313.485 694.989 312.05C702.177 306.898 710.223 302.612 717.73 297.911C726.618 292.345 735.484 286.06 744.742 281.155C746.922 280 749.252 278.988 751.65 278.387C752.9 278.074 754.561 277.689 755.853 277.896C765.922 279.507 792.61 299.622 803.572 306.184C814.998 314.03 826.787 321.768 838.516 329.151C847.305 334.683 856.942 339.477 864.862 346.269C866.415 347.6 867.882 349.024 868.278 351.117C868.671 353.195 867.75 355.132 866.506 356.74C861.783 362.84 843.369 373.363 836.209 377.954C833.998 379.371 830.933 380.863 829.091 382.692C818.416 388.071 810.307 396.7 798.411 399.874Z"/>
	<path fill="#FBFAF9" d="M700.119 312.7C706.509 307.47 714.286 303.478 721.28 299.101C729.757 293.797 738.075 287.747 747.105 283.446C752.114 281.06 755.328 280.801 760.607 282.665C759.456 283.837 758.312 284.853 756.883 285.678C750.614 289.294 743.718 292.034 737.306 295.431C728.079 300.319 719.148 305.946 709.736 310.458C707.657 311.454 704.837 313.032 702.51 313.033C701.711 313.033 700.893 312.88 700.119 312.7Z"/>
	<path fill="#4669C2" d="M800.539 396.676C796.078 395.368 792.29 393.36 788.282 391.019C775.626 383.625 763.697 374.89 751.395 366.919C740.54 359.886 697.343 334.833 692.324 327.459C691.185 325.786 690.981 323.172 691.473 321.248C692.447 317.446 696.011 315.086 699.157 313.164C702.682 316.695 708.211 319.331 712.391 322.114C729.78 333.69 747.636 344.503 765.232 355.756C774.651 361.779 783.475 369.228 793.457 374.241L795.391 373.658C802.738 364.591 821.196 353.006 831.579 346.37C836.388 343.296 841.405 340.489 845.748 336.763C847.658 338.046 849.647 339.275 851.478 340.667C853.203 341.893 854.884 343.13 856.506 344.491C858.963 345.614 862.185 347.317 863.983 349.329C865.057 350.53 865.409 351.366 865.354 352.962C864.088 355.038 862.457 356.553 860.585 358.069C852.387 364.708 842.748 370.362 833.902 376.147C823.195 383.149 812.184 391.422 800.539 396.676Z"/>
	<path fill="#37B5E8" d="M851.478 340.667C853.203 341.893 854.884 343.13 856.506 344.491C856.019 345.951 855.539 347.274 854.455 348.405C847.356 355.82 817.462 371.28 807.255 376.383Q804.344 377.857 801.362 379.183C798.736 377.591 795.913 376.073 793.457 374.241L795.391 373.658C796.734 373.683 798.162 373.72 799.479 373.406C806.416 371.752 841.793 350.547 847.946 345.305C849.497 343.983 850.473 342.417 851.478 340.667Z"/>
	<path fill="#FBFAF9" d="M845.748 336.763C847.658 338.046 849.647 339.275 851.478 340.667C850.473 342.417 849.497 343.983 847.946 345.305C841.793 350.547 806.416 371.752 799.479 373.406C798.162 373.72 796.734 373.683 795.391 373.658C802.738 364.591 821.196 353.006 831.579 346.37C836.388 343.296 841.405 340.489 845.748 336.763Z"/>
	<path fill="#7ED2EB" d="M760.607 282.665Q803.761 308.795 845.748 336.763C841.405 340.489 836.388 343.296 831.579 346.37C821.196 353.006 802.738 364.591 795.391 373.658L793.457 374.241C783.475 369.228 774.651 361.779 765.232 355.756C747.636 344.503 729.78 333.69 712.391 322.114C708.211 319.331 702.682 316.695 699.157 313.164L700.119 312.7C700.893 312.88 701.711 313.033 702.51 313.033C704.837 313.032 707.657 311.454 709.736 310.458C719.148 305.946 728.079 300.319 737.306 295.431C743.718 292.034 750.614 289.294 756.883 285.678C758.312 284.853 759.456 283.837 760.607 282.665Z"/>
	<path fill="#2A2993" d="M633.403 344.067C637.452 343.874 641.416 344.56 645.076 346.361C653.007 350.264 660.857 356.159 668.329 360.934L716.957 392.308L752.94 415.844C757.85 419.087 764.281 422.413 768.424 426.48C770.509 428.525 770.029 432.319 769.973 434.995C762.516 442.948 750.646 448.827 741.463 454.755Q719.059 469.434 696.472 483.83C687.228 489.732 678.426 496.757 668.484 501.424C663.033 501.572 658.352 499.74 653.652 497.183C646.44 493.26 639.554 488.427 632.625 484.02Q614.976 472.77 597.175 461.763L563.712 441.138C554.483 435.516 544.739 429.973 536.311 423.168C534.144 421.418 532.3 419.172 531.603 416.422C530.868 413.522 531.924 410.336 533.48 407.887C534.432 406.387 535.784 405.29 537.201 404.249C547.443 396.721 558.804 390.084 569.457 383.071Q585.524 372.517 601.795 362.282C609.227 357.506 616.59 352.452 624.258 348.066C627.193 346.387 630.085 344.843 633.403 344.067Z"/>
	<defs>
		<linearGradient id="gradient_9" gradientUnits="userSpaceOnUse" x1="723.1759" y1="466.26151" x2="706.14789" y2="443.94009">
			<stop offset="0" stop-color="#37A6EE"/>
			<stop offset="1" stop-color="#45CCF7"/>
		</linearGradient>
	</defs>
	<path fill="url(#gradient_9)" d="M665.966 478.29C667.243 471.67 740.112 427.166 751.623 418.11C752.718 418.895 753.884 419.653 754.923 420.508C759.028 422.729 765.779 425.803 767.403 430.582C767.803 431.76 767.822 432.704 767.318 433.853C760.382 441.051 745.393 448.637 736.492 454.425C720.66 464.719 701.037 479.932 684.475 487.63C682.88 487.561 681.28 487.462 679.706 487.184C671.911 485.806 661.605 481.258 656.955 474.686C659.726 475.572 663.125 478.378 665.966 478.29Z"/>
	<path fill="#FBFAF9" d="M665.966 478.29C667.243 471.67 740.112 427.166 751.623 418.11C752.718 418.895 753.884 419.653 754.923 420.508C754.646 421.736 754.375 423.083 753.548 424.072C748.235 430.422 717.642 449.227 708.337 455.113C696.383 462.676 679.401 474.239 665.966 478.29Z"/>
	<path fill="#4669C2" d="M684.475 487.63C679.707 491.594 671.8 499.108 665.118 498.692C662.149 498.508 658.388 496.134 655.826 494.697C641.508 486.673 539.825 423.575 535.058 417.412C534.212 416.319 533.916 415.202 534.117 413.842C534.626 410.386 537.448 407.772 540.081 405.795C543.185 407.075 546.247 408.064 549.588 407.09C555.129 412.119 568.453 419.225 575.383 423.612C595.711 436.482 615.915 449.602 636.432 462.167C641.06 465.002 654.052 471.728 656.955 474.686C661.605 481.258 671.911 485.806 679.706 487.184C681.28 487.462 682.88 487.561 684.475 487.63Z"/>
	<path fill="#7ED2EB" d="M632.576 347.194C635.703 347.043 638.511 346.874 641.467 348.155C648.89 351.373 655.955 356.703 662.772 361.082L693.956 380.963L726.963 402.129C735.188 407.317 743.802 412.338 751.623 418.11C740.112 427.166 667.243 471.67 665.966 478.29C663.125 478.378 659.726 475.572 656.955 474.686C654.052 471.728 641.06 465.002 636.432 462.167C615.915 449.602 595.711 436.482 575.383 423.612C568.453 419.225 555.129 412.119 549.588 407.09C546.247 408.064 543.185 407.075 540.081 405.795C562.757 392.091 584.767 376.945 607.112 362.674C615.443 357.353 623.383 350.961 632.576 347.194Z"/>
	<path fill="#CCF0F4" d="M540.081 405.795C562.757 392.091 584.767 376.945 607.112 362.674C615.443 357.353 623.383 350.961 632.576 347.194C634.012 347.419 635.389 347.492 636.588 348.386L637.044 349.628C635.44 352.933 631.887 355.701 628.98 357.862C620.019 364.524 607.309 371.396 597.517 377.607C585.572 385.184 573.67 392.791 561.488 399.985C557.561 402.304 553.71 405.184 549.588 407.09C546.247 408.064 543.185 407.075 540.081 405.795Z"/>
</svg>
