<?xml version="1.0" encoding="utf-8" ?>
<svg xmlns="http://www.w3.org/2000/svg" xmlns:xlink="http://www.w3.org/1999/xlink" width="1024" height="1024">
	<g>
		<path fill="#11A9A4" d="M462.544 138.442C479.698 127.739 496.109 115.494 513.751 105.57C526.571 112.877 538.89 121.468 551.321 129.429C557.506 133.39 566.662 138.121 571.878 142.92C571.45 153.582 572.175 164.164 571.984 174.797C570.378 176.729 568.94 178.302 566.758 179.574L567.151 180.348C581.12 190.66 596.647 199.04 611.536 207.938C629.806 218.856 647.879 230.159 666.023 241.289C682.079 251.138 697.897 261.394 713.856 271.402L830.71 344.935C845.11 354.03 859.753 362.722 874.182 371.765C879.825 375.302 887.35 378.984 891.923 383.702Q892.289 402.509 892.242 421.32C883.846 427.867 873.1 431.344 865.162 438.26C867.445 447.758 865.253 458.733 865.537 468.489C873.967 474.45 884.033 478.527 892.05 484.842L891.944 527.499C885.36 532.871 869.774 540.454 865.518 545.008Q865.462 560.551 865.192 576.092C873.488 581.592 882.588 586.683 890.392 592.807C891.971 593.995 892.408 594.317 892.709 596.32C891.505 609.091 892.438 622.702 892.477 635.559C881.182 642.292 870.325 649.659 859.199 656.655C870.952 665.812 884.065 673.076 896.364 681.462C847.801 713.251 798.326 743.713 749.39 774.928L523.458 918.599C487.897 897.362 453.476 874.294 418.283 852.474L125.443 670.2Q146.749 655.985 168.943 643.201C156.675 635.364 143.931 627.977 132.062 619.563C131.435 605.303 131.895 590.863 131.883 576.581L131.834 496.377L131.906 398.915C131.926 383.827 131.438 368.543 131.896 353.474C131.95 351.695 131.946 350.798 133.075 349.41C141.03 343.826 149.907 339.098 158.163 333.942Q179.178 320.664 199.804 306.79C205.881 302.74 212.61 299.061 218.217 294.417C221.765 286.809 223.239 280.647 230.816 275.589C237.141 271.367 244.845 271.137 252.063 272.667C274.815 258.469 296.672 242.948 319.682 229.143C319.842 227.445 320.075 225.806 320.541 224.16C322.709 216.491 328.862 210.585 335.745 206.939C343.031 203.079 350.686 201.734 358.726 204.152C370.996 197.151 382.555 188.852 394.441 181.225C405.852 173.904 418.989 167.025 429.104 158.096C430.887 153.618 433.462 149.25 436.968 145.907C444.366 138.852 452.955 138.376 462.544 138.442Z"/>
		<path fill="#15C4B6" d="M462.544 138.442C479.698 127.739 496.109 115.494 513.751 105.57C526.571 112.877 538.89 121.468 551.321 129.429C557.506 133.39 566.662 138.121 571.878 142.92C571.45 153.582 572.175 164.164 571.984 174.797C570.378 176.729 568.94 178.302 566.758 179.574L567.151 180.348C581.12 190.66 596.647 199.04 611.536 207.938C629.806 218.856 647.879 230.159 666.023 241.289C682.079 251.138 697.897 261.394 713.856 271.402L830.71 344.935C845.11 354.03 859.753 362.722 874.182 371.765C879.825 375.302 887.35 378.984 891.923 383.702Q892.289 402.509 892.242 421.32C883.846 427.867 873.1 431.344 865.162 438.26C857.003 443.893 848.384 448.983 839.984 454.252L795.394 482.243L643.514 577.614L560.75 629.821C549.259 637.024 537.979 646.2 525.431 651.402C523.364 645.668 525.957 623.691 525.201 615.957C516.502 609.373 507.172 603.697 497.985 597.823Q475.663 583.715 453.485 569.383Q363.824 510.417 272.592 453.912L234.838 430.374C226.854 425.455 211.48 417.998 205.666 411.296C203.65 409.726 201.076 408.424 198.926 406.993L190.904 411.388C190.104 402.336 190.556 393.07 190.509 383.977C179.897 376.023 137.669 355.419 133.075 349.41C141.03 343.826 149.907 339.098 158.163 333.942Q179.178 320.664 199.804 306.79C205.881 302.74 212.61 299.061 218.217 294.417C221.765 286.809 223.239 280.647 230.816 275.589C237.141 271.367 244.845 271.137 252.063 272.667C274.815 258.469 296.672 242.948 319.682 229.143C319.842 227.445 320.075 225.806 320.541 224.16C322.709 216.491 328.862 210.585 335.745 206.939C343.031 203.079 350.686 201.734 358.726 204.152C370.996 197.151 382.555 188.852 394.441 181.225C405.852 173.904 418.989 167.025 429.104 158.096C430.887 153.618 433.462 149.25 436.968 145.907C444.366 138.852 452.955 138.376 462.544 138.442Z"/>
		<path fill="#D73053" d="M462.544 138.442C479.698 127.739 496.109 115.494 513.751 105.57C526.571 112.877 538.89 121.468 551.321 129.429C557.506 133.39 566.662 138.121 571.878 142.92C571.45 153.582 572.175 164.164 571.984 174.797C570.378 176.729 568.94 178.302 566.758 179.574L567.151 180.348C567.332 184.108 567.504 187.853 567.485 191.618C575.133 199.521 584.396 205.452 592.321 212.991L467.946 291.446C465.754 289.952 463.51 288.505 461.383 286.921C448.728 294.053 436.881 302.658 424.9 310.846Q405.646 323.87 386.185 336.582Q368.673 347.98 350.954 359.052C345.72 362.34 339.73 365.401 334.856 369.155C332.612 370.884 333.202 373.838 330.949 375.525C320.73 383.177 308.822 389.59 297.985 396.396C283.711 405.358 269.787 414.849 255.521 423.821Q237.703 413.762 220.705 402.373L214.063 405.754C211.301 407.594 208.543 409.657 205.666 411.296C203.65 409.726 201.076 408.424 198.926 406.993L190.904 411.388C190.104 402.336 190.556 393.07 190.509 383.977C179.897 376.023 137.669 355.419 133.075 349.41C141.03 343.826 149.907 339.098 158.163 333.942Q179.178 320.664 199.804 306.79C205.881 302.74 212.61 299.061 218.217 294.417C221.765 286.809 223.239 280.647 230.816 275.589C237.141 271.367 244.845 271.137 252.063 272.667C274.815 258.469 296.672 242.948 319.682 229.143C319.842 227.445 320.075 225.806 320.541 224.16C322.709 216.491 328.862 210.585 335.745 206.939C343.031 203.079 350.686 201.734 358.726 204.152C370.996 197.151 382.555 188.852 394.441 181.225C405.852 173.904 418.989 167.025 429.104 158.096C430.887 153.618 433.462 149.25 436.968 145.907C444.366 138.852 452.955 138.376 462.544 138.442Z"/>
		<path fill="#084779" d="M533.079 199.853Q543.643 193.701 553.986 187.184C558.103 184.624 562.318 181.52 566.758 179.574L567.151 180.348C567.332 184.108 567.504 187.853 567.485 191.618C575.133 199.521 584.396 205.452 592.321 212.991L467.946 291.446C465.754 289.952 463.51 288.505 461.383 286.921C448.728 294.053 436.881 302.658 424.9 310.846Q405.646 323.87 386.185 336.582Q368.673 347.98 350.954 359.052C345.72 362.34 339.73 365.401 334.856 369.155C332.612 370.884 333.202 373.838 330.949 375.525C320.73 383.177 308.822 389.59 297.985 396.396C283.711 405.358 269.787 414.849 255.521 423.821Q237.703 413.762 220.705 402.373L214.063 405.754C212.383 404.141 210.911 402.303 209.394 400.539C215.006 396.617 221.338 393.39 227.15 389.721C243.001 379.715 258.74 369.702 274.934 360.246L275.034 377.798C280.054 381.47 285.322 384.167 290.951 386.788C299.898 382.07 311.215 376.267 318.378 369.097C327.572 359.894 324.829 341.444 324.628 329.309C330.328 325.033 336.687 321.45 342.688 317.606L374.443 297.114L374.534 309.372C380.292 313.779 386.273 317.332 392.632 320.77C400.958 315.714 412.871 309.734 419.401 302.629C428.607 292.61 426.459 275.568 425.946 263.077C444.568 252.826 462.124 240.084 480.286 228.974L480.52 243.678C485.813 249.97 492.508 253.363 499.842 256.777C508.055 251.916 521.993 244.495 527.944 237.374C535.643 228.163 534.142 211.132 533.079 199.853Z"/>
		<path fill="#FAB852" d="M462.544 138.442C479.698 127.739 496.109 115.494 513.751 105.57C526.571 112.877 538.89 121.468 551.321 129.429C557.506 133.39 566.662 138.121 571.878 142.92C561.727 149.978 550.894 156.283 540.414 162.853C533.646 167.096 526.85 172.153 519.636 175.533L519.478 175.909C512.069 179.362 505.905 184.976 498.242 188.008C497.615 188.812 496.903 189.603 496.419 190.5L494.421 190.213C475.939 201.049 458.066 213.036 440.04 224.61C430.709 230.602 421.428 236.786 411.667 242.065C402.225 231.259 372.171 213.014 358.726 204.152C370.996 197.151 382.555 188.852 394.441 181.225C405.852 173.904 418.989 167.025 429.104 158.096C430.887 153.618 433.462 149.25 436.968 145.907C444.366 138.852 452.955 138.376 462.544 138.442Z"/>
		<path fill="#FAB852" d="M462.544 138.442C479.698 127.739 496.109 115.494 513.751 105.57C526.571 112.877 538.89 121.468 551.321 129.429C557.506 133.39 566.662 138.121 571.878 142.92C561.727 149.978 550.894 156.283 540.414 162.853C533.646 167.096 526.85 172.153 519.636 175.533C509.109 165.534 475.881 142.936 462.544 138.442Z"/>
		<path fill="#BFC7CF" d="M462.544 138.442C475.881 142.936 509.109 165.534 519.636 175.533L519.478 175.909C512.069 179.362 505.905 184.976 498.242 188.008C497.615 188.812 496.903 189.603 496.419 190.5L494.421 190.213C482.839 184.013 470.596 176.47 460.645 167.872Q453.708 172.544 446.541 176.854C444.547 178.253 442.074 180.317 439.451 179.673C438.804 179.514 437.939 178.916 437.415 178.56C435.138 177.422 432.862 176.177 431.254 174.146C427.632 169.569 428.562 163.473 429.104 158.096C430.887 153.618 433.462 149.25 436.968 145.907C444.366 138.852 452.955 138.376 462.544 138.442Z"/>
		<defs>
			<linearGradient id="gradient_0" gradientUnits="userSpaceOnUse" x1="481.42841" y1="163.96359" x2="446.15433" y2="188.99228">
				<stop offset="0" stop-color="#C0609E"/>
				<stop offset="1" stop-color="#A587D0"/>
			</linearGradient>
		</defs>
		<path fill="url(#gradient_0)" d="M437.415 178.56C436.917 171.734 435.943 162.749 440.86 157.185C442.664 155.143 445.549 153.664 448.318 153.703C455.473 153.802 491.483 178.133 496.602 183.82C497.549 184.871 497.885 186.667 498.242 188.008C497.615 188.812 496.903 189.603 496.419 190.5L494.421 190.213C482.839 184.013 470.596 176.47 460.645 167.872Q453.708 172.544 446.541 176.854C444.547 178.253 442.074 180.317 439.451 179.673C438.804 179.514 437.939 178.916 437.415 178.56Z"/>
		<path fill="#93023B" d="M446.541 176.854C446.343 173.213 445.638 167.104 447.976 164.04C448.779 162.988 449.709 162.547 451.019 162.409C454.246 162.072 458.316 166.053 460.645 167.872Q453.708 172.544 446.541 176.854Z"/>
		<path fill="#FAB852" d="M218.217 294.417C221.765 286.809 223.239 280.647 230.816 275.589C237.141 271.367 244.845 271.137 252.063 272.667C260.016 276.564 305.278 304.599 309.24 310.013C303.126 313.847 297.076 317.695 290.688 321.06L289.653 323.033L287.465 323.235C268.626 334.092 250.404 345.986 231.87 357.345C219.048 365.203 201.654 374.319 190.509 383.977C179.897 376.023 137.669 355.419 133.075 349.41C141.03 343.826 149.907 339.098 158.163 333.942Q179.178 320.664 199.804 306.79C205.881 302.74 212.61 299.061 218.217 294.417Z"/>
		<path fill="#BFC7CF" d="M218.217 294.417C221.765 286.809 223.239 280.647 230.816 275.589C237.141 271.367 244.845 271.137 252.063 272.667C260.016 276.564 305.278 304.599 309.24 310.013C303.126 313.847 297.076 317.695 290.688 321.06L289.653 323.033L287.465 323.235C274.398 318.071 261.681 308.322 250.203 300.327Q243.295 304.737 236.486 309.298C234.171 310.51 231.89 311.48 229.232 310.741C228.297 310.482 227.386 310.05 226.505 309.65C225.204 308.901 223.818 308.147 222.655 307.193C218.635 303.894 218.642 299.173 218.217 294.417Z"/>
		<path fill="#AB73B9" d="M226.505 309.65C226.534 303.04 225.88 294.285 230.931 289.211C232.719 287.415 234.619 286.793 237.131 286.898C239.54 286.999 241.87 287.766 244.041 288.778C253.765 293.307 283.352 313.193 290.688 321.06L289.653 323.033L287.465 323.235C274.398 318.071 261.681 308.322 250.203 300.327Q243.295 304.737 236.486 309.298C234.171 310.51 231.89 311.48 229.232 310.741C228.297 310.482 227.386 310.05 226.505 309.65Z"/>
		<path fill="#93023B" d="M236.486 309.298C236.415 305.954 235.445 299.128 237.808 296.438C238.587 295.551 239.159 295.191 240.322 295.06C243.742 294.677 247.674 298.383 250.203 300.327Q243.295 304.737 236.486 309.298Z"/>
		<path fill="#FAB852" d="M319.682 229.143C319.842 227.445 320.075 225.806 320.541 224.16C322.709 216.491 328.862 210.585 335.745 206.939C343.031 203.079 350.686 201.734 358.726 204.152C372.171 213.014 402.225 231.259 411.667 242.065L411.534 242.484C405.417 246.015 399.963 251.144 393.195 253.401C391.5 256.911 391.12 260.704 390.569 264.518C389.466 262.672 389.228 261.133 389.043 259.026C367.277 273.379 345.02 287.051 323.137 301.247C318.575 304.206 313.839 306.908 309.346 309.971L309.24 310.013C305.278 304.599 260.016 276.564 252.063 272.667C274.815 258.469 296.672 242.948 319.682 229.143Z"/>
		<path fill="#BFC7CF" d="M319.682 229.143C319.842 227.445 320.075 225.806 320.541 224.16C322.709 216.491 328.862 210.585 335.745 206.939C343.031 203.079 350.686 201.734 358.726 204.152C372.171 213.014 402.225 231.259 411.667 242.065L411.534 242.484C405.417 246.015 399.963 251.144 393.195 253.401C391.5 256.911 391.12 260.704 390.569 264.518C389.466 262.672 389.228 261.133 389.043 259.026C388.537 257.704 353.764 235.215 349.606 232.425L337.227 240.561C334.328 242.713 331.852 244.398 328.116 244.651C325.993 243.579 323.605 242.4 322.016 240.582C319.15 237.301 319.541 233.181 319.682 229.143Z"/>
		<defs>
			<linearGradient id="gradient_1" gradientUnits="userSpaceOnUse" x1="378.7468" y1="230.51349" x2="341.0968" y2="251.40218">
				<stop offset="0" stop-color="#D54C7F"/>
				<stop offset="1" stop-color="#B77BBB"/>
			</linearGradient>
		</defs>
		<path fill="url(#gradient_1)" d="M338.377 218.574C352.483 223.71 381.283 243.651 393.195 253.401C391.5 256.911 391.12 260.704 390.569 264.518C389.466 262.672 389.228 261.133 389.043 259.026C388.537 257.704 353.764 235.215 349.606 232.425L337.227 240.561L336.653 237.38L336.172 235.034C334.932 234.222 333.74 233.285 332.478 232.519C330.844 231.529 330.564 231.269 328.702 231.752C329.589 227.245 331.088 223.273 335.005 220.53C335.905 219.899 336.889 219.387 337.853 218.863L338.377 218.574Z"/>
		<path fill="#93023B" d="M336.653 237.38C336.802 234.608 336.636 230.788 338.475 228.534C339.228 227.613 340.168 226.986 341.402 227.003C344.477 227.046 347.509 230.479 349.606 232.425L337.227 240.561L336.653 237.38Z"/>
		<path fill="#AB73B9" d="M328.702 231.752C330.564 231.269 330.844 231.529 332.478 232.519C333.74 233.285 334.932 234.222 336.172 235.034L336.653 237.38L337.227 240.561C334.328 242.713 331.852 244.398 328.116 244.651C328.037 240.372 328.269 236.005 328.702 231.752Z"/>
		<path fill="#66AEF2" d="M519.478 175.909Q519.542 202.64 519.03 229.367C514.771 233.122 505.674 240.072 499.75 239.596C498.608 239.505 498.317 239.232 497.462 238.544C494.914 230.378 496.926 201.634 496.419 190.5C496.903 189.603 497.615 188.812 498.242 188.008C505.905 184.976 512.069 179.362 519.478 175.909Z"/>
		<path fill="#66AEF2" d="M411.534 242.484C411.545 252.521 412.733 284.186 410.652 291.55C410.035 293.731 408.642 295.351 407.025 296.903C402.657 301.097 396.591 303.931 391.011 306.117C390.867 292.32 389.996 278.284 390.569 264.518C391.12 260.704 391.5 256.911 393.195 253.401C399.963 251.144 405.417 246.015 411.534 242.484Z"/>
		<path fill="#66AEF2" d="M309.24 310.013L309.346 309.971C310.184 326.911 309.898 344.433 309.187 361.379C303.221 366.226 296.782 369.73 289.686 372.643Q289.38 347.838 289.653 323.033L290.688 321.06C297.076 317.695 303.126 313.847 309.24 310.013Z"/>
		<path fill="#346ED1" d="M209.394 400.539C210.911 402.303 212.383 404.141 214.063 405.754C211.301 407.594 208.543 409.657 205.666 411.296C203.65 409.726 201.076 408.424 198.926 406.993Q204.037 403.567 209.394 400.539Z"/>
		<path fill="#084779" d="M891.923 383.702Q892.289 402.509 892.242 421.32C883.846 427.867 873.1 431.344 865.162 438.26C857.003 443.893 848.384 448.983 839.984 454.252L795.394 482.243L643.514 577.614L560.75 629.821C549.259 637.024 537.979 646.2 525.431 651.402C523.364 645.668 525.957 623.691 525.201 615.957C534.678 610.157 543.688 603.718 552.967 597.622L614.675 557.428L788.008 448.221C822.399 426.464 856.431 403.62 891.923 383.702Z"/>
		<path fill="#FAB852" d="M386.969 374.323C404.035 363.047 421.59 352.576 438.894 341.678L515.875 292.296C530.526 282.917 545.42 273.945 559.968 264.403C570.735 272.631 582.881 279.198 594.584 285.98C603.972 291.215 613.139 296.81 622.375 302.306C631.036 307.459 640.097 312.399 647.916 318.79L648.423 319.391C661.301 327.912 674.247 336.063 687.667 343.719C698.485 350.04 709.032 356.761 719.768 363.21C727.284 367.725 735.013 371.84 742.291 376.747C744.242 378.171 746.219 379.557 748.035 381.153C759.698 388.645 773.628 394.164 784.054 403.309C784.019 406.232 784.245 408.991 784.61 411.889C784.811 413.42 785.11 414.767 784.204 416.139C782.093 419.335 624.998 513.414 602.192 529.724C591.675 521.751 579.759 515.736 569.447 507.542C559.702 500.002 549.247 493.388 538.954 486.629Q507.841 466.251 475.968 447.083C445.268 428.298 415.006 408.661 384.471 389.589Q384.431 383.651 384.2 377.718C384.217 377.575 384.209 377.427 384.252 377.289C384.708 375.819 385.781 375.14 386.969 374.323Z"/>
		<path fill="#FAB852" d="M386.969 374.323C404.035 363.047 421.59 352.576 438.894 341.678L515.875 292.296C530.526 282.917 545.42 273.945 559.968 264.403C570.735 272.631 582.881 279.198 594.584 285.98C603.972 291.215 613.139 296.81 622.375 302.306C631.036 307.459 640.097 312.399 647.916 318.79C609.474 341.108 572.213 365.809 534.714 389.692L499.087 412.254C489.944 417.955 480.668 423.293 472.064 429.819C455.47 421.443 433.811 407.883 418.326 397.362C418.831 396.099 419.245 395.831 420.218 394.915C410.482 386.873 395.144 382.132 386.969 374.323Z"/>
		<path fill="#F9F9F8" d="M386.969 374.323C404.035 363.047 421.59 352.576 438.894 341.678L515.875 292.296C530.526 282.917 545.42 273.945 559.968 264.403C570.735 272.631 582.881 279.198 594.584 285.98L462.825 368.722C453.235 374.696 429.747 391.651 420.218 394.915C410.482 386.873 395.144 382.132 386.969 374.323Z"/>
		<path fill="#F9F9F8" d="M568.627 494.891C581.351 485.406 595.879 477.535 609.343 469.052Q652.975 441.146 696.927 413.742C713.955 403.061 731.842 393.053 748.035 381.153C759.698 388.645 773.628 394.164 784.054 403.309C784.019 406.232 784.245 408.991 784.61 411.889C784.811 413.42 785.11 414.767 784.204 416.139C782.093 419.335 624.998 513.414 602.192 529.724C591.675 521.751 579.759 515.736 569.447 507.542C570.634 506.197 571.715 504.79 572.802 503.363C570.382 501.19 567.508 499.492 564.792 497.707L568.627 494.891Z"/>
		<path fill="#BFC7CF" d="M784.054 403.309C784.019 406.232 784.245 408.991 784.61 411.889C784.811 413.42 785.11 414.767 784.204 416.139C782.093 419.335 624.998 513.414 602.192 529.724C591.675 521.751 579.759 515.736 569.447 507.542C570.634 506.197 571.715 504.79 572.802 503.363C570.382 501.19 567.508 499.492 564.792 497.707L568.627 494.891C579.984 500.7 590.568 507.491 601.402 514.194C607.889 508.836 615.222 504.878 622.403 500.551C626.922 497.827 631.299 494.837 635.734 491.976Q656.802 478.293 678.337 465.357C688.282 459.442 698.465 453.922 708.364 447.931C722.194 439.562 735.559 430.432 749.48 422.207C755.458 418.674 761.506 415.137 767.685 411.969C773.018 409.234 779.211 406.786 784.054 403.309Z"/>
		<defs>
			<linearGradient id="gradient_2" gradientUnits="userSpaceOnUse" x1="695.76361" y1="484.14111" x2="659.03174" y2="437.23605">
				<stop offset="0" stop-color="#083B8C"/>
				<stop offset="1" stop-color="#2A59A4"/>
			</linearGradient>
		</defs>
		<path fill="url(#gradient_2)" d="M784.61 411.889C784.811 413.42 785.11 414.767 784.204 416.139C782.093 419.335 624.998 513.414 602.192 529.724C591.675 521.751 579.759 515.736 569.447 507.542C570.634 506.197 571.715 504.79 572.802 503.363C581.865 509.856 591.07 516.602 600.833 521.99C613.238 516.548 624.77 507.88 636.391 500.904L734.05 441.239C750.626 431.142 766.689 419.512 784.61 411.889Z"/>
		<path fill="#F9F9F8" d="M648.423 319.391C661.301 327.912 674.247 336.063 687.667 343.719C671.005 355.604 653.188 365.89 635.813 376.691L555.735 426.729C547.595 431.816 520.809 447.144 515.477 452.685L512.5 454.469C501.991 446.159 490.731 439.81 479.147 433.204C488.75 426.141 499.805 420.352 509.929 413.978L604.103 354.001C617.36 345.569 631.347 337.855 644.313 329.032C645.891 327.958 648.056 326.796 648.536 324.851C648.153 323.089 648.102 321.727 648.344 319.934C648.368 319.753 648.397 319.572 648.423 319.391Z"/>
		<path fill="#EC852D" d="M647.916 318.79L648.423 319.391C648.397 319.572 648.368 319.753 648.344 319.934C648.102 321.727 648.153 323.089 648.536 324.851C648.056 326.796 645.891 327.958 644.313 329.032C631.347 337.855 617.36 345.569 604.103 354.001L509.929 413.978C499.805 420.352 488.75 426.141 479.147 433.204C490.731 439.81 501.991 446.159 512.5 454.469L515.477 452.685C516.123 455.094 515.887 457.346 515.711 459.795C532.346 469.432 548.922 479.199 564.689 490.217C578.977 479.448 594.521 470.266 609.59 460.635L685.258 412.967C704.314 401.111 723.863 389.563 742.291 376.747C744.242 378.171 746.219 379.557 748.035 381.153C731.842 393.053 713.955 403.061 696.927 413.742Q652.976 441.146 609.343 469.052C595.879 477.535 581.351 485.406 568.627 494.891L564.792 497.707C567.508 499.492 570.382 501.19 572.802 503.363C571.715 504.79 570.634 506.197 569.447 507.542C559.702 500.002 549.247 493.388 538.954 486.629Q507.841 466.251 475.968 447.083C445.268 428.298 415.006 408.661 384.471 389.589Q384.431 383.651 384.2 377.718C384.217 377.575 384.209 377.427 384.252 377.289C384.708 375.819 385.781 375.14 386.969 374.323C395.144 382.132 410.482 386.873 420.218 394.915C419.245 395.831 418.831 396.099 418.326 397.362C433.811 407.883 455.47 421.443 472.064 429.819C480.668 423.293 489.944 417.955 499.087 412.254L534.714 389.692C572.213 365.809 609.474 341.108 647.916 318.79Z"/>
		<path fill="#BFC7CF" d="M479.147 433.204C490.731 439.81 501.991 446.159 512.5 454.469L512.474 460.514C503.149 455.056 493.332 449.636 484.581 443.314C481.268 440.92 478.603 437.966 475.38 435.507L474.862 435.117Q476.993 434.135 479.147 433.204Z"/>
		<path fill="#BFC7CF" d="M386.969 374.323C395.144 382.132 410.482 386.873 420.218 394.915C419.245 395.831 418.831 396.099 418.326 397.362L417.194 398.964C415.134 398.919 388.256 380.832 384.2 377.718C384.217 377.575 384.209 377.427 384.252 377.289C384.708 375.819 385.781 375.14 386.969 374.323Z"/>
		<path fill="#F9F9F8" d="M133.075 349.41C137.669 355.419 179.897 376.023 190.509 383.977C190.556 393.07 190.104 402.336 190.904 411.388L198.926 406.993C201.076 408.424 203.65 409.726 205.666 411.296C211.48 417.998 226.854 425.455 234.838 430.374L272.592 453.912Q363.824 510.418 453.485 569.383Q475.663 583.716 497.985 597.823C507.172 603.697 516.502 609.373 525.201 615.957C525.957 623.691 523.364 645.668 525.431 651.402L524.434 651.506C526.138 672.505 524.845 694.025 524.455 715.071L524.998 715.294C525.123 730.082 524.892 744.873 525.081 759.655C523.774 774.761 524.442 790.217 524.47 805.376C524.479 810.317 524.766 815.448 524.409 820.366C517.655 818.44 492.109 801.246 484.66 796.485L440.543 768.531Q347.693 708.071 253.581 649.595C232.626 636.508 212.249 622.641 190.93 610.12C191.734 625.681 191.476 641.286 191.466 656.864C183.779 652.6 176.653 647.409 168.943 643.201C156.675 635.364 143.931 627.977 132.062 619.563C131.435 605.303 131.895 590.863 131.883 576.581L131.834 496.377L131.906 398.915C131.926 383.827 131.438 368.543 131.896 353.474C131.95 351.695 131.946 350.798 133.075 349.41Z"/>
		<path fill="#F77164" d="M133.075 349.41C137.669 355.419 179.897 376.023 190.509 383.977C190.556 393.07 190.104 402.336 190.904 411.388C190.627 420.753 190.914 430.17 190.999 439.54L190.608 556.451L190.464 589.812C190.438 596.432 189.892 603.592 190.93 610.12C191.734 625.681 191.476 641.286 191.466 656.864C183.779 652.6 176.653 647.409 168.943 643.201C156.675 635.364 143.931 627.977 132.062 619.563C131.435 605.303 131.895 590.863 131.883 576.581L131.834 496.377L131.906 398.915C131.926 383.827 131.438 368.543 131.896 353.474C131.95 351.695 131.946 350.798 133.075 349.41Z"/>
		<path fill="#66AEF2" d="M235.838 531.554C262.851 549.345 290.429 566.2 317.797 583.431L439.527 661.078C467.811 679.066 496.506 696.572 524.455 715.071L524.998 715.294C525.123 730.082 524.892 744.873 525.081 759.655C514.421 751.585 502.564 744.772 491.268 737.598L430.022 698.799L236.006 575.476Q236.103 553.514 235.838 531.554Z"/>
		<path fill="#11A9A4" d="M190.904 411.388L198.926 406.993C201.076 408.424 203.65 409.726 205.666 411.296C211.48 417.998 226.854 425.455 234.838 430.374L272.592 453.912Q363.824 510.418 453.485 569.383Q475.663 583.716 497.985 597.823C507.172 603.697 516.502 609.373 525.201 615.957C525.957 623.691 523.364 645.668 525.431 651.402L524.434 651.506C514.356 642.614 500.625 634.659 489.147 627.474Q464.598 612.249 440.29 596.642Q355.919 541.539 270.094 488.73C252.126 477.519 234.506 465.756 216.497 454.604C208.143 449.431 199.738 444.035 190.999 439.54C190.914 430.17 190.627 420.753 190.904 411.388Z"/>
		<path fill="#BFC7CF" d="M865.162 438.26C867.445 447.758 865.253 458.733 865.537 468.489C873.967 474.45 884.033 478.527 892.05 484.842L891.944 527.499C885.36 532.871 869.774 540.454 865.518 545.008C829.599 566.542 794.223 589.179 758.738 611.427L615.954 700.91L553.533 740.891C544.168 746.974 534.862 754.344 525.081 759.655C524.892 744.873 525.123 730.082 524.998 715.294L524.455 715.071C524.845 694.025 526.138 672.505 524.434 651.506L525.431 651.402C537.979 646.2 549.259 637.024 560.75 629.821L643.514 577.614L795.394 482.243L839.984 454.252C848.384 448.983 857.003 443.893 865.162 438.26Z"/>
		<path fill="#346ED1" d="M892.05 484.842L891.944 527.499C885.36 532.871 869.774 540.454 865.518 545.008C829.599 566.542 794.223 589.179 758.738 611.427L615.954 700.91L553.533 740.891C544.168 746.974 534.862 754.344 525.081 759.655C524.892 744.873 525.123 730.082 524.998 715.294C535.479 711.453 556.627 695.836 566.641 689.349C584.734 677.628 603.118 666.339 621.363 654.855L743.191 578.302Q805.165 540.774 866.062 501.523C867.99 500.345 869.849 499 871.728 497.742C878.631 494.111 885.796 489.52 892.05 484.842Z"/>
		<path fill="#15C4B6" d="M865.537 468.489C873.967 474.45 884.033 478.527 892.05 484.842C885.796 489.52 878.631 494.111 871.728 497.742C870.69 492.936 869.794 482.346 865.988 479.363C865.677 475.774 865.683 472.093 865.537 468.489Z"/>
		<path fill="#11A9A4" d="M865.988 479.363C869.794 482.346 870.69 492.936 871.728 497.742C869.849 499 867.99 500.345 866.062 501.523Q865.797 490.444 865.988 479.363Z"/>
		<path fill="#142057" d="M168.943 643.201C176.653 647.409 183.779 652.6 191.466 656.864Q243.705 688.894 295.076 722.299L344.127 752.848C354.422 759.399 364.462 766.331 374.797 772.823Q425.205 803.923 474.999 835.999C491.607 846.574 508.475 856.47 524.557 867.866C526.517 868.299 528.27 866.968 529.842 865.957Q642.975 792.127 757.584 720.616L826.775 676.962C837.47 670.23 847.96 662.4 859.199 656.655C870.952 665.812 884.065 673.076 896.364 681.462C847.801 713.251 798.326 743.713 749.39 774.928L523.458 918.599C487.897 897.362 453.476 874.294 418.283 852.474L125.443 670.2Q146.749 655.985 168.943 643.201Z"/>
		<path fill="#BFC7CF" d="M525.081 759.655C534.862 754.344 544.168 746.974 553.533 740.891L615.954 700.91L758.738 611.427C794.223 589.179 829.599 566.542 865.518 545.008Q865.462 560.551 865.192 576.092C865.397 582.21 865.211 588.343 865.44 594.449C865.567 596.821 865.623 599.221 865.894 601.581C859.975 606.408 852.571 609.596 846.011 613.48C836.725 618.977 827.662 624.913 818.556 630.701L635.455 747.654L568.85 789.861C555.946 798.043 542.744 806.031 530.201 814.745C528.097 816.207 525.172 817.804 524.409 820.366C524.766 815.448 524.479 810.317 524.47 805.376C524.442 790.217 523.774 774.761 525.081 759.655Z"/>
		<path fill="#084779" d="M892.709 596.32C891.505 609.091 892.438 622.702 892.477 635.559C881.182 642.292 870.325 649.659 859.199 656.655C847.96 662.4 837.47 670.23 826.775 676.962L757.584 720.616Q642.975 792.127 529.842 865.957C528.27 866.968 526.517 868.299 524.557 867.866C524.854 862.98 524.37 857.841 524.295 852.93C524.192 846.154 524.418 839.391 524.643 832.62C556.344 813.464 586.996 792.724 618.186 772.77Q694.742 724.471 770.766 675.34L845.062 627.688Q861.171 617.575 877.072 607.139C882.32 603.667 887.813 600.281 892.709 596.32Z"/>
		<path fill="#15C4B6" d="M865.192 576.092C873.488 581.592 882.588 586.683 890.392 592.807C885.548 595.214 871.63 593.6 865.44 594.449C865.211 588.343 865.397 582.21 865.192 576.092Z"/>
	</g>
	<g/>
</svg>
