<?xml version="1.0" encoding="utf-8" ?>
<svg xmlns="http://www.w3.org/2000/svg" xmlns:xlink="http://www.w3.org/1999/xlink" width="1024" height="1024">
	<path fill="#601F2A" d="M151.478 363.38C167.274 371.311 182.326 380.946 197.548 389.927C205.15 394.411 213.926 398.407 220.815 403.876Q214.776 408.301 208.496 412.378C206.981 413.848 206.977 415.286 206.953 417.278Q206.946 418.046 206.955 418.813L206.997 424.726C207.003 431.903 206.958 439.081 207.233 446.254C198.949 442.62 191.346 436.708 183.505 432.155C170.333 440.334 162.293 451.196 158.795 466.404C153.51 489.376 159.27 512.777 171.676 532.421C179.344 544.565 188.334 552.264 200.307 559.9C203.978 562.242 208.183 564.491 211.54 567.235C211.332 574.169 210.921 581.154 210.984 588.088L210.987 590.879C211.015 599.445 211.221 608.049 211.036 616.611C188.651 606.275 162.474 589.278 145.591 571.287C139.206 564.483 133.87 556.76 127.641 549.824C124.061 545.306 121.093 538.917 118.641 533.736C105.205 505.346 106.956 481.352 106.962 451.243C106.965 440.227 106.115 429.231 106.765 418.213C107.64 403.362 109.818 398.667 120.969 388.784C129.097 377.899 140.071 370.448 151.478 363.38Z"/>
	<path fill="#9B3A3D" d="M151.478 363.38C167.274 371.311 182.326 380.946 197.548 389.927C205.15 394.411 213.926 398.407 220.815 403.876Q214.776 408.301 208.496 412.378C206.981 413.848 206.977 415.286 206.953 417.278Q206.946 418.046 206.955 418.813C201.712 417.382 195.63 413.342 190.902 410.601C175.877 401.889 154.172 385.112 136.248 385.777C131.061 385.969 126.031 387.75 120.969 388.784C129.097 377.899 140.071 370.448 151.478 363.38Z"/>
	<path fill="#BD9E72" d="M151.478 363.38Q190.47 337.562 229.849 312.336L373.493 218.971L432.627 180.18C443.187 173.185 454.009 164.475 465.532 159.288C470.268 162.073 474.81 165.252 479.487 168.147L510.613 187.192C523.043 194.848 538.677 206.298 553.039 208.997C547.186 208.839 541.733 210.516 536.286 212.531C529.698 215.608 524.289 220.204 517.974 223.586L508.684 229.701C489.302 243.176 469.4 255.868 449.703 268.874L357.583 330.179C337.615 343.356 317.341 356.049 297.538 369.478Q293.473 372.034 289.472 374.688C281.083 372.848 270.732 370.465 262.97 375.385C262.585 375.629 262.212 375.891 261.848 376.164L255.479 380.623L249.459 384.671L245.433 387.315C238.168 393.994 229.164 398.701 220.815 403.876C213.926 398.407 205.15 394.411 197.548 389.927C182.326 380.946 167.274 371.311 151.478 363.38Z"/>
	<path fill="#9B3A3D" d="M468.59 195.406C484.931 204.718 500.899 215.761 517.974 223.586L508.684 229.701C494.96 222.368 481.584 213.91 468.335 205.735C446.695 218.01 426.362 232.991 405.672 246.802L309.727 309.961L256.193 344.833C246.152 351.267 234.291 357.118 225.663 365.354C235.046 371.643 245.509 375.517 255.479 380.623L249.459 384.671L245.433 387.315C237.293 382.816 217.569 373.096 211.869 367.488C210.472 366.113 210.563 365.214 210.62 363.396C218.205 357.195 226.895 352.254 235.079 346.891L292.007 310.251L396.72 242.009C420.644 226.396 444.338 210.513 468.59 195.406Z"/>
	<path fill="#601F2A" d="M210.62 363.396C219.195 366.324 243.063 378.522 249.459 384.671L245.433 387.315C237.293 382.816 217.569 373.096 211.869 367.488C210.472 366.113 210.563 365.214 210.62 363.396Z"/>
	<path fill="#C0484C" d="M468.335 205.735C481.584 213.91 494.96 222.368 508.684 229.701C489.302 243.176 469.4 255.868 449.703 268.874L357.583 330.179C337.615 343.356 317.341 356.049 297.538 369.478Q293.473 372.034 289.472 374.688C281.083 372.848 270.732 370.465 262.97 375.385C262.585 375.629 262.212 375.891 261.848 376.164L255.479 380.623C245.509 375.517 235.046 371.643 225.663 365.354C234.291 357.118 246.152 351.267 256.193 344.833L309.727 309.961L405.672 246.802C426.362 232.991 446.695 218.01 468.335 205.735Z"/>
	<path fill="#12404E" d="M127.641 549.824C133.87 556.76 139.206 564.483 145.591 571.287C162.474 589.278 188.651 606.275 211.036 616.611C211.221 608.049 211.015 599.445 210.987 590.879L210.984 588.088C210.921 581.154 211.332 574.169 211.54 567.235C222.472 573.113 233.031 579.591 243.794 585.765C254.354 591.822 265.101 597.291 274.878 604.626L275.021 624.767L274.996 628.884C274.504 633.848 274.502 638.771 274.502 643.752L274.491 655.35Q331.325 689.69 387.574 724.98C401.401 733.523 415.134 742.307 429.126 750.572C449.029 763.731 470.104 775.448 490.514 787.851Q520.002 805.728 549.211 824.058C559.979 830.817 570.921 839.322 582.637 844.236C585.724 845.531 588.862 845.857 592.126 845.061C593.98 844.609 595.766 843.972 597.529 843.249C609.273 839.252 619.526 830.26 629.878 823.517Q659.952 804.125 689.717 784.262C721.851 762.927 754.648 742.703 787.034 721.78C809.287 707.405 830.965 692.161 853.499 678.21C859.179 674.693 885.557 657.193 889.395 656.237C897.06 660.957 905.229 664.561 912.687 669.696C881.545 690.784 849.487 710.391 817.797 730.635L678.56 820.395L602.195 870.041Q588.228 879.208 574.117 888.151C569.21 891.257 564.23 894.774 559.011 897.309C552.352 900.542 544.896 901.924 537.569 900.645C533.086 899.862 528.398 898.23 524.447 895.979C520.511 893.736 516.936 890.794 513.058 888.432L459.663 855.947L317.807 769.741L148.705 667.409L104.748 640.938C95.9734 635.767 86.8896 630.969 78.2971 625.508C74.2778 622.954 70.6372 620.137 67.9364 616.145C64.2539 610.701 62.3131 603.749 63.8408 597.252C64.9368 592.591 67.6144 588.523 71.0252 585.223C78.0021 578.474 87.4904 573.845 95.7887 568.907L127.641 549.824Z"/>
	<path fill="#C25F14" d="M211.54 567.235C222.472 573.113 233.031 579.591 243.794 585.765C254.354 591.822 265.101 597.291 274.878 604.626L275.021 624.767L274.996 628.884C274.504 633.848 274.502 638.771 274.502 643.752L274.491 655.35C253.442 642.316 232.527 628.905 211.036 616.611C211.221 608.049 211.015 599.445 210.987 590.879L210.984 588.088C210.921 581.154 211.332 574.169 211.54 567.235Z"/>
	<path fill="#9D3F04" d="M211.54 567.235C222.472 573.113 233.031 579.591 243.794 585.765C254.354 591.822 265.101 597.291 274.878 604.626L275.021 624.767L274.996 628.884C266.619 625.569 258.669 619.398 250.931 614.713C237.659 606.677 224.15 599.105 210.987 590.879L210.984 588.088C210.921 581.154 211.332 574.169 211.54 567.235Z"/>
	<path fill="#6CAE66" d="M261.848 376.164C262.212 375.891 262.585 375.629 262.97 375.385C270.732 370.465 281.083 372.848 289.472 374.688C308.611 383.946 320.597 392.496 337.881 404.409C340.407 406.432 342.898 408.45 345.267 410.655L344.177 411.534Q343.744 415.014 343.126 418.466C338.103 425.105 329.656 427.578 323.434 432.835C320.346 434.913 317.046 436.904 314.27 439.387C306.029 445.663 296.856 450.389 288.53 456.447C286.309 457.985 276.459 463.28 275.816 465.707C275.609 466.488 275.601 467.415 275.549 468.223C275.641 470.262 275.625 472.369 275.864 474.393C299.864 487.273 322.265 502.949 345.965 516.355Q369.612 529.464 393.515 542.101C400.423 545.805 412.603 551.506 418.236 556.23C419.936 554.151 422.008 552.44 424.319 551.085L424.812 550.63L434.61 544.076C444.031 539.35 452.578 533.165 461.248 527.217L470.357 521.293C474.988 518.655 479.371 515.615 483.792 512.645C487.984 510.202 491.9 507.941 496.935 509.254C501.103 510.341 505.158 513.404 508.918 515.495L510.527 513.781Q526.503 523.268 542.786 532.217C547.185 534.633 551.864 537.654 556.532 539.48C557.991 542.814 558.08 545.929 558.098 549.494L555.238 550.943C554.788 552.049 554.37 552.917 553.489 553.748C549.68 557.336 544.248 559.906 539.818 562.741C531.816 567.861 524.068 573.381 516.113 578.577C509.113 583.15 501.741 587.39 495.17 592.563C492.76 594.46 489.445 596.921 488.237 599.783C489.001 607.35 487.933 615.129 487.164 622.665C486.217 632.104 485.982 641.608 485.357 651.071C506.69 666.8 530.674 679.512 553.352 693.224C560.079 697.291 574.223 707.684 580.757 709.455C579.385 716.324 576.2 736.757 579.984 742.1C580.089 742.248 580.21 742.385 580.323 742.527C581.484 745.512 581.673 749.133 582.143 752.317C583.177 759.316 584.039 766.452 586.326 773.178L586.679 775.6C588.145 778.856 589.556 782.141 591.295 785.263C587.427 787.484 583.438 789.604 579.716 792.059C576.134 796.275 574.34 801.049 572.667 806.241C571.757 812.506 571.352 818.281 571.65 824.602C575.358 832.352 579.739 838.278 588.197 841.287C591.22 842.362 594.363 842.83 597.529 843.249C595.766 843.972 593.98 844.609 592.126 845.061C588.862 845.857 585.724 845.531 582.637 844.236C570.921 839.322 559.979 830.817 549.211 824.058Q520.002 805.728 490.514 787.851C470.104 775.448 449.029 763.731 429.126 750.572C415.134 742.307 401.401 733.523 387.574 724.98Q331.325 689.69 274.491 655.35L274.502 643.752C274.502 638.771 274.504 633.848 274.996 628.884L275.021 624.767L274.878 604.626C265.101 597.291 254.354 591.822 243.794 585.765C233.031 579.591 222.472 573.113 211.54 567.235C208.183 564.491 203.978 562.242 200.307 559.9C188.334 552.264 179.344 544.565 171.676 532.421C159.27 512.777 153.51 489.376 158.795 466.404C162.293 451.196 170.333 440.334 183.505 432.155C191.346 436.708 198.949 442.62 207.233 446.254C206.958 439.081 207.003 431.903 206.997 424.726L206.955 418.813Q206.946 418.045 206.953 417.278C206.977 415.286 206.981 413.848 208.496 412.378Q214.776 408.301 220.815 403.876C229.164 398.701 238.168 393.994 245.433 387.315L249.459 384.671L255.479 380.623L261.848 376.164Z"/>
	<path fill="#518E50" d="M275.864 474.393C299.864 487.273 322.265 502.949 345.965 516.355Q369.612 529.464 393.515 542.101C400.423 545.805 412.603 551.506 418.236 556.23L417.084 560.577C416.399 567.051 416.651 573.318 417.028 579.802C417.42 591.22 418.118 602.821 417.914 614.243C406.815 608.19 396.063 600.843 385.289 594.182L316.258 551.668C302.761 543.211 289.702 534.109 275.819 526.269C275.824 515.629 276.136 505.002 275.863 494.361C274.519 489.095 275.055 479.851 275.864 474.393Z"/>
	<path fill="#601F2A" d="M275.864 474.393C299.864 487.273 322.265 502.949 345.965 516.355Q369.612 529.464 393.515 542.101C400.423 545.805 412.603 551.506 418.236 556.23L417.084 560.577C416.399 567.051 416.651 573.318 417.028 579.802C404.892 573.068 393.116 565.338 381.246 558.13L318.023 519.691C303.991 511.054 290.5 501.982 275.863 494.361C274.519 489.095 275.055 479.851 275.864 474.393Z"/>
	<path fill="#C25F14" d="M483.792 512.645C487.984 510.202 491.9 507.941 496.935 509.254C501.103 510.341 505.158 513.404 508.918 515.495L510.527 513.781Q526.503 523.268 542.786 532.217C547.185 534.633 551.864 537.654 556.532 539.48C557.991 542.814 558.08 545.929 558.098 549.494L555.238 550.943C554.788 552.049 554.37 552.917 553.489 553.748C549.68 557.336 544.248 559.906 539.818 562.741C531.816 567.861 524.068 573.381 516.113 578.577C509.113 583.15 501.741 587.39 495.17 592.563C492.76 594.46 489.445 596.921 488.237 599.783C489.001 607.35 487.933 615.129 487.164 622.665C486.217 632.104 485.982 641.608 485.357 651.071C483.478 669.581 481.824 688.574 481.956 707.177C480.791 705.786 479.184 704.263 478.285 702.713C474.032 698.313 470.293 693.279 466.455 688.513Q454.812 674.182 443.807 659.357C435.297 662.64 426.927 666.311 418.529 669.868L417.914 614.243C418.118 602.821 417.42 591.22 417.028 579.802C416.651 573.318 416.399 567.051 417.084 560.577L418.236 556.23C419.936 554.151 422.008 552.44 424.319 551.085L424.812 550.63L434.61 544.076C444.031 539.35 452.578 533.165 461.248 527.217L470.357 521.293C474.988 518.655 479.371 515.615 483.792 512.645Z"/>
	<path fill="#ED8410" d="M541.006 553.341Q548.151 548.729 555.109 543.84C555.056 546.207 554.9 548.593 555.238 550.943C554.788 552.049 554.37 552.917 553.489 553.748C549.68 557.336 544.248 559.906 539.818 562.741C531.816 567.861 524.068 573.381 516.113 578.577C509.113 583.15 501.741 587.39 495.17 592.563C492.76 594.46 489.445 596.921 488.237 599.783C489.001 607.35 487.933 615.129 487.164 622.665C486.217 632.104 485.982 641.608 485.357 651.071C483.478 669.581 481.824 688.574 481.956 707.177C480.791 705.786 479.184 704.263 478.285 702.713C479.458 690.728 479.113 678.238 479.267 666.193C479.549 644.13 479.909 621.934 478.432 599.911C467.565 586.693 419.83 565.492 417.084 560.577L418.236 556.23C419.936 554.151 422.008 552.44 424.319 551.085L424.812 550.63C436.182 556.031 478.116 580.12 484.466 588.429L485.013 588.784C490.404 587.975 533.077 558.556 541.006 553.341Z"/>
	<path fill="#FEB92A" d="M483.792 512.645C487.984 510.202 491.9 507.941 496.935 509.254C501.103 510.341 505.158 513.404 508.918 515.495L510.527 513.781Q526.503 523.268 542.786 532.217C547.185 534.633 551.864 537.654 556.532 539.48C557.991 542.814 558.08 545.929 558.098 549.494L555.238 550.943C554.9 548.593 555.056 546.207 555.109 543.84Q548.151 548.729 541.006 553.341C533.077 558.556 490.404 587.975 485.013 588.784L484.466 588.429C478.116 580.12 436.182 556.031 424.812 550.63L434.61 544.076C444.031 539.35 452.578 533.165 461.248 527.217L470.357 521.293C474.988 518.655 479.371 515.615 483.792 512.645Z"/>
	<path fill="#FFEC92" d="M483.792 512.645C487.984 510.202 491.9 507.941 496.935 509.254C501.103 510.341 505.158 513.404 508.918 515.495L510.527 513.781Q526.503 523.268 542.786 532.217C547.185 534.633 551.864 537.654 556.532 539.48C557.991 542.814 558.08 545.929 558.098 549.494L555.238 550.943C554.9 548.593 555.056 546.207 555.109 543.84Q548.151 548.729 541.006 553.341C529.162 533.013 501.702 526.537 483.792 512.645Z"/>
	<path fill="#9D3F04" d="M510.527 513.781Q526.503 523.268 542.786 532.217C547.185 534.633 551.864 537.654 556.532 539.48C557.991 542.814 558.08 545.929 558.098 549.494L555.238 550.943C554.9 548.593 555.056 546.207 555.109 543.84C547.123 534.677 520.687 521.787 508.918 515.495L510.527 513.781Z"/>
	<path fill="#C25F14" d="M261.848 376.164C262.212 375.891 262.585 375.629 262.97 375.385C270.732 370.465 281.083 372.848 289.472 374.688C308.611 383.946 320.597 392.496 337.881 404.409C340.407 406.432 342.898 408.45 345.267 410.655L344.177 411.534Q343.744 415.014 343.126 418.466C338.103 425.105 329.656 427.578 323.434 432.835C320.346 434.913 317.046 436.904 314.27 439.387C306.029 445.663 296.856 450.389 288.53 456.447C286.309 457.985 276.459 463.28 275.816 465.707C275.609 466.488 275.601 467.415 275.549 468.223C275.641 470.262 275.625 472.369 275.864 474.393C275.055 479.851 274.519 489.095 275.863 494.361C276.136 505.002 275.824 515.629 275.819 526.269C275.368 535.457 275.671 560.419 271.89 567.563L271.187 567.656C270.877 567.202 270.477 566.709 270.238 566.216C264.97 558.212 258.383 551.079 252.311 543.683C245.252 535.085 238.446 526.256 231.446 517.604C223.346 521.475 214.862 524.348 206.389 527.275C206.146 508.85 206.815 490.422 207.012 471.999L207.233 446.254C206.958 439.081 207.003 431.903 206.997 424.726L206.955 418.813Q206.946 418.045 206.953 417.278C206.977 415.286 206.981 413.848 208.496 412.378Q214.776 408.301 220.815 403.876C229.164 398.701 238.168 393.994 245.433 387.315L249.459 384.671L255.479 380.623L261.848 376.164Z"/>
	<path fill="#ED8410" d="M208.496 412.378L208.889 412.596C216.108 416.538 223.661 419.776 230.836 423.875C247.212 433.23 263.024 443.552 279.455 452.807C276.955 454.4 273.114 456.328 272.223 459.313C272.841 463.113 275.305 462.467 275.549 468.223C275.641 470.262 275.625 472.369 275.864 474.393C275.055 479.851 274.519 489.095 275.863 494.361C276.136 505.002 275.824 515.629 275.819 526.269C275.368 535.457 275.671 560.419 271.89 567.563L271.187 567.656C270.877 567.202 270.477 566.709 270.238 566.216C271.569 559.001 270.477 546.715 270.47 538.923C270.459 524.456 270.686 509.965 270.473 495.501C270.305 484.107 269.801 472.909 270.004 461.491C263.434 456.499 212.992 426.332 206.997 424.726L206.955 418.813Q206.946 418.045 206.953 417.278C206.977 415.286 206.981 413.848 208.496 412.378Z"/>
	<path fill="#FEB92A" d="M261.848 376.164C262.212 375.891 262.585 375.629 262.97 375.385C270.732 370.465 281.083 372.848 289.472 374.688C308.611 383.946 320.597 392.496 337.881 404.409C340.407 406.432 342.898 408.45 345.267 410.655L344.177 411.534Q343.744 415.014 343.126 418.466C338.103 425.105 329.656 427.578 323.434 432.835C320.346 434.913 317.046 436.904 314.27 439.387C306.029 445.663 296.856 450.389 288.53 456.447C286.309 457.985 276.459 463.28 275.816 465.707C275.609 466.488 275.601 467.415 275.549 468.223C275.305 462.467 272.841 463.113 272.223 459.313C273.114 456.328 276.955 454.4 279.455 452.807C263.024 443.552 247.212 433.23 230.836 423.875C223.661 419.776 216.108 416.538 208.889 412.596L208.496 412.378Q214.776 408.301 220.815 403.876C229.164 398.701 238.168 393.994 245.433 387.315L249.459 384.671L255.479 380.623L261.848 376.164Z"/>
	<path fill="#FFEC92" d="M261.848 376.164C262.212 375.891 262.585 375.629 262.97 375.385C270.732 370.465 281.083 372.848 289.472 374.688C308.611 383.946 320.597 392.496 337.881 404.409C340.407 406.432 342.898 408.45 345.267 410.655L344.177 411.534Q343.744 415.014 343.126 418.466C338.103 425.105 329.656 427.578 323.434 432.835C320.346 434.913 317.046 436.904 314.27 439.387C306.029 445.663 296.856 450.389 288.53 456.447C286.309 457.985 276.459 463.28 275.816 465.707C275.609 466.488 275.601 467.415 275.549 468.223C275.305 462.467 272.841 463.113 272.223 459.313C273.114 456.328 276.955 454.4 279.455 452.807L282.128 450.849L282.12 449.948L281.821 450.51C282.197 448.065 305.649 412.904 309.377 406.779C304.191 403.177 299.018 399.452 293.588 396.226C283.138 390.018 270.633 384.579 261.848 376.164Z"/>
	<path fill="#C25F14" d="M282.128 450.849C290.335 446.064 298.252 440.397 306.244 435.231Q325.064 423.149 344.177 411.534Q343.744 415.014 343.126 418.466C338.103 425.105 329.656 427.578 323.434 432.835C320.346 434.913 317.046 436.904 314.27 439.387C306.029 445.663 296.856 450.389 288.53 456.447C286.309 457.985 276.459 463.28 275.816 465.707C275.609 466.488 275.601 467.415 275.549 468.223C275.305 462.467 272.841 463.113 272.223 459.313C273.114 456.328 276.955 454.4 279.455 452.807L282.128 450.849Z"/>
	<path fill="#518E50" d="M183.505 432.155C191.346 436.708 198.949 442.62 207.233 446.254L207.012 471.999C199.679 469.477 193.141 463.308 187.124 458.535C177.88 474.47 177.794 493.03 182.51 510.489C185.12 520.152 189.287 531.901 197.12 538.598C203.069 543.684 210.113 547.37 216.835 551.309Q228.39 558.033 239.772 565.045L339.049 625.962L526.284 741.562L569.263 768.113C573.529 770.74 577.64 773.688 581.957 776.216C583.192 776.939 584.031 777.478 585.478 777.486C585.893 776.863 586.309 776.252 586.679 775.6C588.145 778.856 589.556 782.141 591.295 785.263C587.427 787.484 583.438 789.604 579.716 792.059C576.134 796.275 574.34 801.049 572.667 806.241C571.757 812.506 571.352 818.281 571.65 824.602C575.358 832.352 579.739 838.278 588.197 841.287C591.22 842.362 594.363 842.83 597.529 843.249C595.766 843.972 593.98 844.609 592.126 845.061C588.862 845.857 585.724 845.531 582.637 844.236C570.921 839.322 559.979 830.817 549.211 824.058Q520.002 805.728 490.514 787.851C470.104 775.448 449.029 763.731 429.126 750.572C415.134 742.307 401.401 733.523 387.574 724.98Q331.325 689.69 274.491 655.35L274.502 643.752C274.502 638.771 274.504 633.848 274.996 628.884L275.021 624.767L274.878 604.626C265.101 597.291 254.354 591.822 243.794 585.765C233.031 579.591 222.472 573.113 211.54 567.235C208.183 564.491 203.978 562.242 200.307 559.9C188.334 552.264 179.344 544.565 171.676 532.421C159.27 512.777 153.51 489.376 158.795 466.404C162.293 451.196 170.333 440.334 183.505 432.155Z"/>
	<path fill="#C25F14" d="M429.478 699.656C440.541 705.32 450.866 712.322 461.509 718.721C471.264 724.587 481.826 730.095 491.015 736.765C491.014 744.098 490.982 751.342 490.432 758.658L490.52 758.947C490.244 764.971 490.285 770.926 490.446 776.952L490.514 787.851C470.104 775.448 449.029 763.731 429.126 750.572C429.537 748.565 429.536 746.44 429.661 744.393L429.629 737.804C429.495 731.926 429.536 726.035 429.511 720.156Q429.789 709.906 429.478 699.656Z"/>
	<path fill="#9D3F04" d="M429.478 699.656C440.541 705.32 450.866 712.322 461.509 718.721C471.264 724.587 481.826 730.095 491.015 736.765C491.014 744.098 490.982 751.342 490.432 758.658C483.642 755.33 477.092 750.605 470.542 746.762L429.936 723.308C429.651 728.25 431.121 740.36 429.661 744.393L429.629 737.804C429.495 731.926 429.536 726.035 429.511 720.156Q429.789 709.906 429.478 699.656Z"/>
	<path fill="#601F2A" d="M491.015 736.765Q517.332 753.68 544.154 769.782C556.091 776.991 568.521 783.718 579.716 792.059C576.134 796.275 574.34 801.049 572.667 806.241C571.757 812.506 571.352 818.281 571.65 824.602C575.358 832.352 579.739 838.278 588.197 841.287C591.22 842.362 594.363 842.83 597.529 843.249C595.766 843.972 593.98 844.609 592.126 845.061C588.862 845.857 585.724 845.531 582.637 844.236C570.921 839.322 559.979 830.817 549.211 824.058Q520.002 805.728 490.514 787.851L490.446 776.952C490.285 770.926 490.244 764.971 490.52 758.947L490.432 758.658C490.982 751.342 491.014 744.098 491.015 736.765Z"/>
	<path fill="#601F2A" d="M274.878 604.626Q325.749 636.773 377.228 667.932C394.561 678.545 412.462 688.571 429.478 699.656Q429.789 709.906 429.511 720.156C429.536 726.035 429.495 731.926 429.629 737.804L429.661 744.393C429.536 746.44 429.537 748.565 429.126 750.572C415.134 742.307 401.401 733.523 387.574 724.98Q331.325 689.69 274.491 655.35L274.502 643.752C274.502 638.771 274.504 633.848 274.996 628.884L275.021 624.767L274.878 604.626Z"/>
	<path fill="#C0484C" d="M553.039 208.997C562.646 212.672 571.229 219.098 580.03 224.35C586.09 227.966 593.099 231.044 598.533 235.572C604.87 240.34 607.588 245.61 610.076 252.924L611.186 257.123C624.566 265.956 638.461 274.113 652.136 282.488Q684.209 302.219 716.514 321.569Q729.395 329.212 742.132 337.091C749.6 341.68 757.066 346.544 765.066 350.157C762.657 351.738 760.254 353.316 757.786 354.802C752.4 358.439 746.095 363.73 739.945 365.717C737.25 367.352 734.566 369.156 731.793 370.645C719.408 379.839 705.699 387.395 692.773 395.824L604.616 453.123L544.652 492.022C533.539 499.287 522.294 507.731 510.527 513.781L508.918 515.495C505.158 513.404 501.103 510.341 496.935 509.254C491.9 507.941 487.984 510.202 483.792 512.645C479.371 515.615 474.988 518.655 470.357 521.293L461.248 527.217C452.578 533.165 444.031 539.35 434.61 544.076L424.812 550.63L424.319 551.085C422.008 552.44 419.936 554.151 418.236 556.23C412.603 551.506 400.423 545.805 393.515 542.101Q369.612 529.464 345.965 516.355C322.265 502.949 299.864 487.273 275.864 474.393C275.625 472.369 275.641 470.262 275.549 468.223C275.601 467.415 275.609 466.488 275.816 465.707C276.459 463.28 286.309 457.985 288.53 456.447C296.856 450.389 306.029 445.663 314.27 439.387C317.046 436.904 320.346 434.913 323.434 432.835C329.656 427.578 338.103 425.105 343.126 418.466Q343.744 415.014 344.177 411.534L345.267 410.655C342.898 408.45 340.407 406.432 337.881 404.409C320.597 392.496 308.611 383.946 289.472 374.688Q293.473 372.034 297.538 369.478C317.341 356.049 337.615 343.356 357.583 330.179L449.703 268.874C469.4 255.868 489.302 243.176 508.684 229.701L517.974 223.586C524.289 220.204 529.698 215.608 536.286 212.531C541.733 210.516 547.186 208.839 553.039 208.997Z"/>
	<path fill="#9B3A3D" d="M565.72 446.423C551.878 446.865 537.995 446.507 524.145 446.495C513.168 446.485 501.873 447.082 490.953 446.016C487.896 445.718 484.825 445.142 482.021 443.843C479.86 442.842 476.915 440.955 476.185 438.546C473.938 431.132 473.673 422.08 472.603 414.36C471.235 404.484 468.957 394.391 468.596 384.418C468.481 381.259 468.321 377.705 469.915 374.866C471.585 371.892 474.204 370.923 477.347 370.117C476.336 372.035 475.292 373.941 474.317 375.877C475.059 384.122 478.54 409.952 480.895 417.13C480.9 424.578 480.003 433.323 485.722 439.051C486.206 439.536 486.712 439.976 487.232 440.422Q514.282 440.627 541.333 440.533C549.205 440.558 557.115 440.972 564.98 440.813Q570.002 435.814 573.956 429.934Q574.037 431.156 573.992 432.38C573.803 438.578 569.933 442.428 565.72 446.423Z"/>
	<path fill="#C25F14" d="M480.895 417.13C484.612 421.014 487.915 424.874 493.65 425.208C507.053 425.988 520.706 424.429 534.158 424.494Q546.074 424.642 557.98 425.142C562.976 425.34 568.584 426.071 573.536 425.318C574.022 426.959 574.043 428.231 573.956 429.934Q570.002 435.814 564.98 440.813C557.115 440.972 549.205 440.558 541.333 440.533Q514.282 440.627 487.232 440.422C486.712 439.976 486.206 439.536 485.722 439.051C480.003 433.323 480.9 424.578 480.895 417.13Z"/>
	<path fill="#9B3A3D" d="M323.434 432.835C329.656 427.578 338.103 425.105 343.126 418.466C343.002 423.076 341.551 426.599 338.175 429.802C335.147 432.675 331.372 434.712 327.668 436.571C339.731 443.129 351.324 450.517 363.133 457.521Q394.979 476.198 426.495 495.426Q439.623 503.527 452.934 511.322C458.702 514.666 464.748 517.707 470.357 521.293L461.248 527.217C456.312 523.478 450.778 520.502 445.454 517.353L417.976 501.174Q369.842 471.966 321.309 443.426L314.27 439.387C317.046 436.904 320.346 434.913 323.434 432.835Z"/>
	<path fill="#601F2A" d="M323.434 432.835C324.781 434.149 325.981 435.363 327.027 436.933C325.17 439.085 323.343 441.445 321.309 443.426L314.27 439.387C317.046 436.904 320.346 434.913 323.434 432.835Z"/>
	<defs>
		<linearGradient id="gradient_0" gradientUnits="userSpaceOnUse" x1="738.62598" y1="339.50424" x2="343.53476" y2="322.39145">
			<stop offset="0" stop-color="#791434"/>
			<stop offset="1" stop-color="#992331"/>
		</linearGradient>
	</defs>
	<path fill="url(#gradient_0)" d="M582.318 245.963C585.975 245.495 588.601 245.43 592.161 246.667C582.654 250.812 574.373 256.272 565.923 262.189L689.225 335.997Q701.301 342.938 713.273 350.058C722.081 355.4 730.742 361.06 739.945 365.717C737.25 367.352 734.566 369.156 731.793 370.645Q667.328 333.638 603.589 295.393C588.602 286.558 573.763 277.476 558.62 268.909C539.455 281.276 520.702 294.375 501.729 307.047L401.761 373.131Q384.747 384.186 367.926 395.531C360.536 400.57 353.115 406.386 345.267 410.655C342.898 408.45 340.407 406.432 337.881 404.409C357.373 393.918 375.317 380.435 393.867 368.376C440.406 338.122 486.247 306.793 533.155 277.108C548.414 267.451 566.278 253.228 582.318 245.963Z"/>
	<defs>
		<linearGradient id="gradient_1" gradientUnits="userSpaceOnUse" x1="626.85059" y1="336.56451" x2="703.34332" y2="275.67911">
			<stop offset="0" stop-color="#B9926F"/>
			<stop offset="1" stop-color="#AAA373"/>
		</linearGradient>
	</defs>
	<path fill="url(#gradient_1)" d="M592.161 246.667C597.577 250.52 604.536 255.827 611.186 257.123C624.566 265.956 638.461 274.113 652.136 282.488Q684.209 302.219 716.514 321.569Q729.395 329.212 742.132 337.091C749.6 341.68 757.066 346.544 765.066 350.157C762.657 351.738 760.254 353.316 757.786 354.802C752.4 358.439 746.095 363.73 739.945 365.717C730.742 361.06 722.081 355.4 713.273 350.058Q701.301 342.938 689.225 335.997L565.923 262.189C574.373 256.272 582.654 250.812 592.161 246.667Z"/>
	<path fill="#FEB92A" d="M483 364.153C490.706 362.983 498.765 363.459 506.536 363.566L539.38 363.721C544.771 363.709 550.459 363.101 555.81 363.724C558.408 364.026 562.728 364.757 564.635 366.764C565.974 368.173 566.622 370.658 567.068 372.494C568.311 377.607 568.194 383.047 568.936 388.253C570.671 400.437 573.616 411.945 573.501 424.357L573.536 425.318C568.584 426.071 562.976 425.34 557.98 425.142Q546.074 424.642 534.158 424.494C520.706 424.429 507.053 425.988 493.65 425.208C487.915 424.874 484.612 421.014 480.895 417.13C478.54 409.952 475.059 384.122 474.317 375.877C475.292 373.941 476.336 372.035 477.347 370.117C479.133 368.012 481.036 366.089 483 364.153Z"/>
	<path fill="#ED8410" d="M477.347 370.117C479.133 368.012 481.036 366.089 483 364.153C483.155 381.024 486.364 402.121 490.12 418.596C515.33 416.877 540.296 418.266 565.516 418.472C568.45 420.113 570.641 422.643 573.501 424.357L573.536 425.318C568.584 426.071 562.976 425.34 557.98 425.142Q546.074 424.642 534.158 424.494C520.706 424.429 507.053 425.988 493.65 425.208C487.915 424.874 484.612 421.014 480.895 417.13C478.54 409.952 475.059 384.122 474.317 375.877C475.292 373.941 476.336 372.035 477.347 370.117Z"/>
	<path fill="#FFEC92" d="M506.536 363.566L539.38 363.721C544.771 363.709 550.459 363.101 555.81 363.724C558.408 364.026 562.728 364.757 564.635 366.764C565.974 368.173 566.622 370.658 567.068 372.494C568.311 377.607 568.194 383.047 568.936 388.253C570.671 400.437 573.616 411.945 573.501 424.357C570.641 422.643 568.45 420.113 565.516 418.472L564.965 418.001C563.526 416.752 562.157 415.585 561.348 413.816C557.706 405.849 557.558 384.604 556.905 375.15C551.147 380.176 544.269 384.494 537.883 388.676C523.351 398.193 508.317 406.822 493.942 416.587C499.092 410.724 506.056 406.625 511.765 401.305C519.79 393.827 527.529 385.99 535.345 378.291C539.468 374.231 543.477 369.824 548.093 366.319C541.379 366.434 510.421 366.616 506.536 363.566Z"/>
	<path fill="#BD9E72" d="M314.27 439.387L321.309 443.426Q369.842 471.966 417.976 501.174L445.454 517.353C450.778 520.502 456.312 523.478 461.248 527.217C452.578 533.165 444.031 539.35 434.61 544.076L424.812 550.63L424.319 551.085C422.008 552.44 419.936 554.151 418.236 556.23C412.603 551.506 400.423 545.805 393.515 542.101Q369.612 529.464 345.965 516.355C322.265 502.949 299.864 487.273 275.864 474.393C275.625 472.369 275.641 470.262 275.549 468.223C275.601 467.415 275.609 466.488 275.816 465.707C276.459 463.28 286.309 457.985 288.53 456.447C296.856 450.389 306.029 445.663 314.27 439.387Z"/>
	<path fill="#9B3A3D" d="M275.549 468.223C275.601 467.415 275.609 466.488 275.816 465.707C276.459 463.28 286.309 457.985 288.53 456.447L400.261 524.185Q411.063 530.801 422.078 537.056C426.138 539.325 430.853 541.384 434.61 544.076L424.812 550.63L424.319 551.085C422.008 552.44 419.936 554.151 418.236 556.23C412.603 551.506 400.423 545.805 393.515 542.101Q369.612 529.464 345.965 516.355C322.265 502.949 299.864 487.273 275.864 474.393C275.625 472.369 275.641 470.262 275.549 468.223Z"/>
	<path fill="#FEB92A" d="M553.039 208.997C562.646 212.672 571.229 219.098 580.03 224.35C586.09 227.966 593.099 231.044 598.533 235.572C604.87 240.34 607.588 245.61 610.076 252.924L611.186 257.123C604.536 255.827 597.577 250.52 592.161 246.667C588.601 245.43 585.975 245.495 582.318 245.963C566.278 253.228 548.414 267.451 533.155 277.108C486.247 306.793 440.406 338.122 393.867 368.376C375.317 380.435 357.373 393.918 337.881 404.409C320.597 392.496 308.611 383.946 289.472 374.688Q293.473 372.034 297.538 369.478C317.341 356.049 337.615 343.356 357.583 330.179L449.703 268.874C469.4 255.868 489.302 243.176 508.684 229.701L517.974 223.586C524.289 220.204 529.698 215.608 536.286 212.531C541.733 210.516 547.186 208.839 553.039 208.997Z"/>
	<path fill="#FFEC92" d="M553.039 208.997C562.646 212.672 571.229 219.098 580.03 224.35C586.09 227.966 593.099 231.044 598.533 235.572C593.469 235.218 587.825 234.248 582.994 236.206C577.667 238.366 572.408 242.386 567.553 245.496L541.481 262.241L429.533 335.68C428.395 336.082 427.216 336.445 426.128 336.97C426.003 337.031 425.883 337.099 425.76 337.164C425.511 336.77 425.572 336.983 425.57 336.525C451.119 314.464 479.436 295.346 507.161 276.113C527.369 262.094 547.301 247.622 567.704 233.895C556.664 228.602 544.768 221.377 536.286 212.531C541.733 210.516 547.186 208.839 553.039 208.997Z"/>
	<path fill="#ED8410" d="M429.533 335.68L541.481 262.241L567.553 245.496C572.408 242.386 577.667 238.366 582.994 236.206C587.825 234.248 593.469 235.218 598.533 235.572C604.87 240.34 607.588 245.61 610.076 252.924L611.186 257.123C604.536 255.827 597.577 250.52 592.161 246.667C588.601 245.43 585.975 245.495 582.318 245.963C566.278 253.228 548.414 267.451 533.155 277.108C486.247 306.793 440.406 338.122 393.867 368.376C375.317 380.435 357.373 393.918 337.881 404.409C320.597 392.496 308.611 383.946 289.472 374.688Q293.473 372.034 297.538 369.478C312.512 374.927 326.778 386.076 339.243 395.798C346.852 389.296 356.415 384.247 364.806 378.752L409.779 348.948C416.155 344.803 424.224 341.172 429.533 335.68Z"/>
	<path fill="#C25F14" d="M582.318 245.963C584.296 243.952 586.38 242.9 589.256 242.952C597.498 243.099 602.275 251.867 610.076 252.924L611.186 257.123C604.536 255.827 597.577 250.52 592.161 246.667C588.601 245.43 585.975 245.495 582.318 245.963Z"/>
	<defs>
		<linearGradient id="gradient_2" gradientUnits="userSpaceOnUse" x1="611.54236" y1="467.22708" x2="723.20831" y2="571.04114">
			<stop offset="0" stop-color="#A7292A"/>
			<stop offset="1" stop-color="#85203E"/>
		</linearGradient>
	</defs>
	<path fill="url(#gradient_2)" d="M770.781 348.548C784.016 352.793 807.726 370.035 820.455 378.361C825.566 381.229 831.829 383.854 833.562 390.003C833.97 391.453 834.186 392.891 834.319 394.387C834.415 396.799 834.293 398.848 833.773 401.208C856.25 413.668 878.076 427.186 900.239 440.182C903.245 441.844 910.701 445.103 911.993 448.261C912.23 448.84 912.265 449.754 912.327 450.35C911.319 458.485 911.563 466.963 911.525 475.149C906.605 478.299 885.261 490.32 882.758 493.614C881.148 499.128 879.834 504.604 878.834 510.265C878.176 513.996 877.88 518.282 876.707 521.864C875.69 533.645 875.428 544.486 878.368 556.045C883.794 560.553 890.3 564.007 896.353 567.616C907.116 574.032 918.058 580.378 927.99 588.055Q927.797 609.545 927.846 631.036C921.222 636.318 896.833 652.867 889.395 656.237C885.557 657.193 859.179 674.693 853.499 678.21C830.965 692.161 809.287 707.405 787.034 721.78C754.648 742.703 721.851 762.927 689.717 784.262Q659.952 804.125 629.878 823.517C619.526 830.26 609.273 839.252 597.529 843.249C594.363 842.83 591.22 842.362 588.197 841.287C579.739 838.278 575.358 832.352 571.65 824.602C571.352 818.281 571.757 812.506 572.667 806.241C574.34 801.049 576.134 796.275 579.716 792.059C583.438 789.604 587.427 787.484 591.295 785.263C589.556 782.141 588.145 778.856 586.679 775.6L586.326 773.178C584.039 766.452 583.177 759.316 582.143 752.317C581.673 749.133 581.484 745.512 580.323 742.527C580.21 742.385 580.089 742.248 579.984 742.1C576.2 736.757 579.385 716.324 580.757 709.455C574.223 707.684 560.079 697.291 553.352 693.224C530.674 679.512 506.69 666.8 485.357 651.071C485.982 641.608 486.217 632.104 487.164 622.665C487.933 615.129 489.001 607.35 488.237 599.783C489.445 596.921 492.76 594.46 495.17 592.563C501.741 587.39 509.113 583.15 516.113 578.577C524.068 573.381 531.816 567.861 539.818 562.741C544.248 559.906 549.68 557.336 553.489 553.748C554.37 552.917 554.788 552.049 555.238 550.943L558.098 549.494C558.08 545.929 557.991 542.814 556.532 539.48C551.864 537.654 547.185 534.633 542.786 532.217Q526.503 523.268 510.527 513.781C522.294 507.731 533.539 499.287 544.652 492.022L604.616 453.123L692.773 395.824C705.699 387.395 719.408 379.839 731.793 370.645C734.566 369.156 737.25 367.352 739.945 365.717C746.095 363.73 752.4 358.439 757.786 354.802C760.254 353.316 762.657 351.738 765.066 350.157C766.965 349.413 768.781 348.939 770.781 348.548Z"/>
	<path fill="#BD9E72" d="M816.379 391.498C822.52 394.235 828.129 397.588 833.773 401.208C856.25 413.668 878.076 427.186 900.239 440.182C878.588 453.437 857.847 468.098 836.544 481.899L663.001 594.069C648.081 603.56 633.08 612.984 618.322 622.723C608.54 629.179 599.316 636.43 588.844 641.773C580.774 636.278 572.178 631.603 563.753 626.679L527.954 605.802C521.241 601.97 514.164 598.562 507.713 594.311C516.615 588.134 525.494 582.039 534.57 576.118C543.083 580.207 551.231 584.908 559.455 589.537C565.958 593.197 572.443 597.227 579.588 599.512C585.712 601.471 592.113 602.2 598.465 603.003C607.56 598.463 615.959 591.691 624.381 585.983Q647.551 570.278 670.95 554.917L847.533 439.679Q818.278 423.351 789.898 405.545C798.207 399.943 806.81 394.64 816.379 391.498Z"/>
	<path fill="#C0484C" d="M783.214 411.93C789.492 414.259 795.935 418.788 801.673 422.23Q816.758 431.247 831.679 440.534C811.403 452.596 791.255 464.579 771.484 477.475C745.659 494.32 720.495 512.118 694.659 528.966L640.55 564.417C626.032 573.882 611.172 582.976 597.656 593.858L592.117 593.351C574.038 590.858 557.243 579.431 541.729 570.407C550.779 563.155 560.566 556.905 570.213 550.488L608.235 525.247Q655.969 493.526 704.293 462.709C730.686 445.894 757.226 429.384 783.214 411.93Z"/>
	<path fill="#FEB92A" d="M770.781 348.548C784.016 352.793 807.726 370.035 820.455 378.361C825.566 381.229 831.829 383.854 833.562 390.003C833.97 391.453 834.186 392.891 834.319 394.387C834.415 396.799 834.293 398.848 833.773 401.208C828.129 397.588 822.52 394.235 816.379 391.498C806.81 394.64 798.207 399.943 789.898 405.545C787.352 404.772 784.903 404.75 782.576 403.29Q707.1 450.822 632.58 499.841Q610.587 514.373 588.936 529.407C578.895 536.291 568.793 543.664 558.098 549.494C558.08 545.929 557.991 542.814 556.532 539.48C551.864 537.654 547.185 534.633 542.786 532.217Q526.503 523.268 510.527 513.781C522.294 507.731 533.539 499.287 544.652 492.022L604.616 453.123L692.773 395.824C705.699 387.395 719.408 379.839 731.793 370.645C734.566 369.156 737.25 367.352 739.945 365.717C746.095 363.73 752.4 358.439 757.786 354.802C760.254 353.316 762.657 351.738 765.066 350.157C766.965 349.413 768.781 348.939 770.781 348.548Z"/>
	<path fill="#FFEC92" d="M770.781 348.548C784.016 352.793 807.726 370.035 820.455 378.361C820.182 378.443 819.91 378.53 819.636 378.609C814.894 379.962 810.264 378.951 805.462 380.979C782.772 390.561 762.287 406.729 741.424 419.736Q695.182 448.252 649.546 477.728C637.23 485.603 624.722 493.148 612.581 501.294C612.596 501.175 612.605 501.055 612.626 500.937C613.41 496.704 631.266 485.853 635.623 482.638C645.921 475.037 655.998 467.118 666.42 459.687Q727.645 416.655 790.29 375.719C779.882 367.915 768.428 362.149 757.786 354.802C760.254 353.316 762.657 351.738 765.066 350.157C766.965 349.413 768.781 348.939 770.781 348.548Z"/>
	<path fill="#ED8410" d="M820.455 378.361C825.566 381.229 831.829 383.854 833.562 390.003C833.97 391.453 834.186 392.891 834.319 394.387C834.415 396.799 834.293 398.848 833.773 401.208C828.129 397.588 822.52 394.235 816.379 391.498C806.81 394.64 798.207 399.943 789.898 405.545C787.352 404.772 784.903 404.75 782.576 403.29Q707.1 450.822 632.58 499.841Q610.587 514.373 588.936 529.407C578.895 536.291 568.793 543.664 558.098 549.494C558.08 545.929 557.991 542.814 556.532 539.48C562.509 537.108 568.857 531.866 574.256 528.261C586.179 520.302 602.075 510.709 612.581 501.294C624.722 493.148 637.23 485.603 649.546 477.728Q695.182 448.252 741.424 419.736C762.287 406.729 782.772 390.561 805.462 380.979C810.264 378.951 814.894 379.962 819.636 378.609C819.91 378.53 820.182 378.443 820.455 378.361Z"/>
	<path fill="#9D3F04" d="M782.576 403.29C789.565 397.397 798.739 391.899 807.681 389.728C817.035 387.458 826.214 389.461 834.319 394.387C834.415 396.799 834.293 398.848 833.773 401.208C828.129 397.588 822.52 394.235 816.379 391.498C806.81 394.64 798.207 399.943 789.898 405.545C787.352 404.772 784.903 404.75 782.576 403.29Z"/>
	<path fill="#601F2A" d="M900.239 440.182C903.245 441.844 910.701 445.103 911.993 448.261C912.23 448.84 912.265 449.754 912.327 450.35C911.319 458.485 911.563 466.963 911.525 475.149C906.605 478.299 885.261 490.32 882.758 493.614C878.166 495.256 873.371 499.031 869.22 501.637L844.415 517.176Q796.638 547.115 749.175 577.547C738.333 584.551 727.698 591.871 716.846 598.859L645.38 644.644C632.306 652.993 617.476 660.734 605.942 671.122C600.273 674.196 595.024 677.831 589.946 681.796L589.909 682.153C586.152 690.686 582.479 700.295 580.757 709.455C574.223 707.684 560.079 697.291 553.352 693.224C530.674 679.512 506.69 666.8 485.357 651.071C485.982 641.608 486.217 632.104 487.164 622.665C487.933 615.129 489.001 607.35 488.237 599.783C491.86 599.96 494.989 600.11 498.386 601.51C501.354 598.979 504.616 596.689 507.713 594.311C514.164 598.562 521.241 601.97 527.954 605.802L563.753 626.679C572.178 631.603 580.774 636.278 588.844 641.773C599.316 636.43 608.54 629.179 618.322 622.723C633.08 612.984 648.081 603.56 663.001 594.069L836.544 481.899C857.847 468.098 878.588 453.437 900.239 440.182Z"/>
	<path fill="#518E50" d="M487.164 622.665C499.945 629.372 584.953 681.942 589.909 682.153C586.152 690.686 582.479 700.295 580.757 709.455C574.223 707.684 560.079 697.291 553.352 693.224C530.674 679.512 506.69 666.8 485.357 651.071C485.982 641.608 486.217 632.104 487.164 622.665Z"/>
	<path fill="#9B3A3D" d="M900.239 440.182C903.245 441.844 910.701 445.103 911.993 448.261C912.23 448.84 912.265 449.754 912.327 450.35C904.558 454.95 897.303 460.609 889.665 465.477L825.978 505.843L673.679 602.584C655.421 614.228 637.659 626.652 619.473 638.412C609.777 644.681 599.839 651.538 589.273 656.27C571.394 645.93 553.864 634.997 536.138 624.398C523.571 616.884 510.455 609.785 498.386 601.51C501.354 598.979 504.616 596.689 507.713 594.311C514.164 598.562 521.241 601.97 527.954 605.802L563.753 626.679C572.178 631.603 580.774 636.278 588.844 641.773C599.316 636.43 608.54 629.179 618.322 622.723C633.08 612.984 648.081 603.56 663.001 594.069L836.544 481.899C857.847 468.098 878.588 453.437 900.239 440.182Z"/>
	<path fill="#9B3A3D" d="M605.942 671.122C617.476 660.734 632.306 652.993 645.38 644.644L716.846 598.859C727.698 591.871 738.333 584.551 749.175 577.547Q796.638 547.115 844.415 517.176L869.22 501.637C873.371 499.031 878.166 495.256 882.758 493.614C881.148 499.128 879.834 504.604 878.834 510.265C878.176 513.996 877.88 518.282 876.707 521.864C875.69 533.645 875.428 544.486 878.368 556.045C883.794 560.553 890.3 564.007 896.353 567.616C907.116 574.032 918.058 580.378 927.99 588.055Q927.797 609.545 927.846 631.036C921.222 636.318 896.833 652.867 889.395 656.237C885.557 657.193 859.179 674.693 853.499 678.21C830.965 692.161 809.287 707.405 787.034 721.78C754.648 742.703 721.851 762.927 689.717 784.262Q659.952 804.125 629.878 823.517C619.526 830.26 609.273 839.252 597.529 843.249C594.363 842.83 591.22 842.362 588.197 841.287C579.739 838.278 575.358 832.352 571.65 824.602C571.352 818.281 571.757 812.506 572.667 806.241C574.34 801.049 576.134 796.275 579.716 792.059C583.438 789.604 587.427 787.484 591.295 785.263C589.556 782.141 588.145 778.856 586.679 775.6L586.326 773.178C584.039 766.452 583.177 759.316 582.143 752.317C581.673 749.133 581.484 745.512 580.323 742.527C580.21 742.385 580.089 742.248 579.984 742.1C576.2 736.757 579.385 716.324 580.757 709.455C582.479 700.295 586.152 690.686 589.909 682.153L589.946 681.796C595.024 677.831 600.273 674.196 605.942 671.122Z"/>
	<path fill="#601F2A" d="M885.195 572.617C888.848 573.187 893.128 578.6 895.497 581.339L895.462 590.133C894.342 591.608 893.571 592.669 891.824 593.357C887.936 594.889 884.046 597.943 879.994 598.79C883.173 595.641 887.91 593.319 891.468 590.459L891.276 582.109L888.495 579.121C887.604 576.9 886.301 574.745 885.195 572.617Z"/>
	<path fill="#60DE81" d="M586.326 773.178C594.244 765.726 604.315 760.317 613.483 754.546L641.39 736.6L771.713 653.448L851.024 602.612C863.291 594.752 875.315 585.287 888.495 579.121L891.276 582.109L891.468 590.459C887.91 593.319 883.173 595.641 879.994 598.79C864.737 606.957 850.563 617.523 836.093 627.013Q797.724 652.277 759.038 677.053L646.193 749.84L609.681 773.379C603.58 777.311 597.187 781.043 591.295 785.263C589.556 782.141 588.145 778.856 586.679 775.6L586.326 773.178Z"/>
	<path fill="#601F2A" d="M915.371 593.481C919.108 597.819 917.659 620.537 917.561 626.981C907.643 631.531 899.61 638.103 890.332 643.653C840.357 673.55 791.884 706.267 743.179 738.196C717.427 755.078 691.065 771.08 665.226 787.827L621.939 815.985C614.744 820.705 607.858 825.789 600.476 830.247C598.356 831.528 595.416 833.425 592.929 833.476C592.022 833.495 591.231 832.498 590.561 831.932C589.438 830.598 588.473 829.194 587.773 827.586C585.174 821.622 586.054 814.389 588.322 808.452C589.877 804.382 592.076 800.192 595.559 797.494C602.117 792.413 609.536 788.122 616.49 783.583L655.463 758.182C704.521 726.29 754.203 695.294 803.626 663.968L880.599 615.201C891.986 607.978 903.097 599.028 915.371 593.481Z"/>
	<path fill="#BD9E72" d="M593.673 812.369C594.976 808.022 596.188 804.001 599.758 800.907C607.756 793.975 618.959 788.539 627.963 782.799L684.554 746.272L815.57 662.534C846.714 642.836 878.465 623.824 908.977 603.172L908.968 611.961C900.887 614.887 891.453 622.515 884.093 627.304L844.046 653.044L643.351 781.389C631.693 788.831 619.157 795.669 608.071 803.893C606.144 805.323 597.415 812.845 595.643 813.108C595.329 813.154 595.01 813.07 594.694 813.051L593.673 812.369Z"/>
	<path fill="#FFEC92" d="M593.673 812.369L594.694 813.051C595.01 813.07 595.329 813.154 595.643 813.108C597.415 812.845 606.144 805.323 608.071 803.893C619.157 795.669 631.693 788.831 643.351 781.389L844.046 653.044L884.093 627.304C891.453 622.515 900.887 614.887 908.968 611.961L909.081 622.879L593.56 825.779C593.424 821.288 593.26 816.853 593.673 812.369Z"/>
	<path fill="#FFEC92" d="M605.942 671.122C617.476 660.734 632.306 652.993 645.38 644.644L716.846 598.859C727.698 591.871 738.333 584.551 749.175 577.547Q796.638 547.115 844.415 517.176L869.22 501.637C873.371 499.031 878.166 495.256 882.758 493.614C881.148 499.128 879.834 504.604 878.834 510.265C878.176 513.996 877.88 518.282 876.707 521.864C875.69 533.645 875.428 544.486 878.368 556.045C879.17 561.675 881.227 568.365 885.195 572.617C886.301 574.745 887.604 576.9 888.495 579.121C875.315 585.287 863.291 594.752 851.024 602.612L771.713 653.448L641.39 736.6L613.483 754.546C604.315 760.317 594.244 765.726 586.326 773.178C584.039 766.452 583.177 759.316 582.143 752.317C581.673 749.133 581.484 745.512 580.323 742.527C580.21 742.385 580.089 742.248 579.984 742.1C576.2 736.757 579.385 716.324 580.757 709.455C582.479 700.295 586.152 690.686 589.909 682.153L589.946 681.796C595.024 677.831 600.273 674.196 605.942 671.122Z"/>
	<path fill="#ED8410" d="M589.946 681.796C595.024 677.831 600.273 674.196 605.942 671.122C602.219 679.284 596.581 686.474 593.683 695.047C586.945 709.493 583.232 723.809 581.021 739.558C590.016 733.491 599.028 726.821 608.581 721.681C600.41 730.147 587.549 733.299 580.323 742.527C580.21 742.385 580.089 742.248 579.984 742.1C576.2 736.757 579.385 716.324 580.757 709.455C582.479 700.295 586.152 690.686 589.909 682.153L589.946 681.796Z"/>
	<path fill="#BD9E72" d="M605.942 671.122C617.476 660.734 632.306 652.993 645.38 644.644L716.846 598.859C727.698 591.871 738.333 584.551 749.175 577.547Q796.638 547.115 844.415 517.176L869.22 501.637C873.371 499.031 878.166 495.256 882.758 493.614C881.148 499.128 879.834 504.604 878.834 510.265C878.176 513.996 877.88 518.282 876.707 521.864L875.98 521.094C870.978 521.908 832.734 546.942 825.381 551.553L683.051 640.165C664.814 651.725 646.291 662.804 627.991 674.256C616.88 681.208 605.602 689.643 593.683 695.047C596.581 686.474 602.219 679.284 605.942 671.122Z"/>
</svg>
