<svg xmlns="http://www.w3.org/2000/svg" xmlns:xlink="http://www.w3.org/1999/xlink" version="1.1" width="1000" height="1000" viewBox="0 0 1000 1000" xml:space="preserve">
<desc>Created with Fabric.js 3.5.0</desc>
<defs>
</defs>
<rect x="0" y="0" width="100%" height="100%" fill="rgba(255,255,255,0)"/>
<g transform="matrix(1 0 0 1 484.4928 500)" id="741721">
<g style="" vector-effect="non-scaling-stroke">
		<g transform="matrix(-0.9766 0 0 0.9766 -0.0132 -0.015)">
<path style="stroke: none; stroke-width: 1; stroke-dasharray: none; stroke-linecap: butt; stroke-dashoffset: 0; stroke-linejoin: miter; stroke-miterlimit: 4; is-custom-font: none; font-file-url: none; fill: rgb(29,84,141); fill-rule: nonzero; opacity: 1;" transform=" translate(-519.6874, -528.3229)" d="M 512.038 164.474 C 523.237 150.295 540.642 135.908 558.516 131.643 C 563.47 130.461 569.031 129.846 574.065 130.855 C 586.744 133.395 610.932 149.781 622.795 157.071 C 632.598 162.179 641.365 168.473 645.009 179.389 C 645.442 180.687 645.743 182.013 646.012 183.352 C 662.87 173.95 680.147 165.408 697.201 156.377 C 709.926 149.639 738.026 132.783 751.183 130.107 C 767.028 136.735 781.79 146.053 796.927 154.144 C 816.46 164.586 836.623 174.372 855.754 185.497 C 860.571 188.178 867.688 191.65 869.093 197.534 C 871.295 206.753 869.65 231.506 869.595 241.976 L 869.543 329.559 L 869.603 511.055 L 869.641 564.071 C 869.702 576.914 870.105 589.926 869.346 602.749 C 868.932 609.757 867.276 616.906 863.286 622.788 Q 861.815 624.96 860.11 626.954 Q 858.405 628.947 856.487 630.736 Q 854.568 632.526 852.461 634.088 Q 850.354 635.651 848.085 636.967 C 833.681 645.51 817.741 651.877 802.818 659.516 L 699.92 712.342 L 653.967 735.875 C 648.931 738.471 639.021 744.559 634.06 745.805 C 631.173 745.482 627.343 747.967 624.742 749.241 C 611.56 755.701 598.655 762.782 585.656 769.606 L 519.11 804.403 L 363.383 885.165 L 316.983 909.786 C 307.132 915.015 296.531 922.591 285.585 925.008 L 286.347 926.288 C 282.431 926.831 278.015 926.512 274.313 925.139 C 266.556 922.264 259.079 917.629 251.778 913.73 Q 228.4 901.33 205.428 888.192 C 196.83 883.345 186.926 879.133 179.031 873.292 C 175.937 871.003 173.318 868.067 171.793 864.505 C 170.093 860.538 169.804 856.158 169.654 851.9 C 168.795 827.495 169.508 802.831 169.51 778.399 L 169.519 639.529 L 169.511 512.671 C 169.505 491.521 168.666 470.149 169.524 449.032 C 169.672 445.393 170.624 442.26 171.997 438.919 C 174.279 434.641 177.576 430.522 181.672 427.852 C 192.852 420.565 205.686 415.222 217.48 408.932 Q 254.9 388.644 292.564 368.813 L 403.254 310.104 Q 442.497 288.849 482.024 268.128 C 484.089 265.878 481.838 227.778 483.242 220.319 C 487.088 199.892 499.398 180.64 512.038 164.474 Z" stroke-linecap="round"/>
</g>
		<g transform="matrix(-0.9766 0 0 0.9766 5.6629 -210.9697)">
<path style="stroke: none; stroke-width: 1; stroke-dasharray: none; stroke-linecap: butt; stroke-dashoffset: 0; stroke-linejoin: miter; stroke-miterlimit: 4; is-custom-font: none; font-file-url: none; fill: rgb(81,197,152); fill-rule: nonzero; opacity: 1;" transform=" translate(-513.8755, -312.297)" d="M 512.038 164.474 C 523.237 150.295 540.642 135.908 558.516 131.643 C 563.47 130.461 569.031 129.846 574.065 130.855 C 586.744 133.395 610.932 149.781 622.795 157.071 C 632.598 162.179 641.365 168.473 645.009 179.389 C 645.442 180.687 645.743 182.013 646.012 183.352 C 662.87 173.95 680.147 165.408 697.201 156.377 C 709.926 149.639 738.026 132.783 751.183 130.107 C 767.028 136.735 781.79 146.053 796.927 154.144 C 816.46 164.586 836.623 174.372 855.754 185.497 C 851.132 188.39 846.197 190.668 841.944 194.123 C 829.675 202.228 815.85 208.319 802.82 215.103 L 718.861 258.258 L 442.848 401.599 L 344.77 452.438 C 326.335 462 305.5 471.635 288.073 482.666 C 283.809 486.433 278.895 489.478 276.001 494.487 C 272.328 491.893 267.642 489.98 263.678 487.792 Q 247.479 478.849 231.148 470.15 Q 219.644 464.064 208.376 457.55 C 198.479 451.825 182.865 441.867 171.997 438.919 C 174.279 434.641 177.576 430.522 181.672 427.852 C 192.852 420.565 205.686 415.222 217.48 408.932 Q 254.9 388.644 292.564 368.813 L 403.254 310.104 Q 442.497 288.849 482.024 268.128 C 484.089 265.878 481.838 227.778 483.242 220.319 C 487.088 199.892 499.398 180.64 512.038 164.474 Z" stroke-linecap="round"/>
</g>
		<g transform="matrix(-0.9766 0 0 0.9766 -43.9587 -287.85)">
<path style="stroke: none; stroke-width: 1; stroke-dasharray: none; stroke-linecap: butt; stroke-dashoffset: 0; stroke-linejoin: miter; stroke-miterlimit: 4; is-custom-font: none; font-file-url: none; fill: rgb(250,145,34); fill-rule: nonzero; opacity: 1;" transform=" translate(-564.6979, -233.5685)" d="M 512.038 164.474 C 523.237 150.295 540.642 135.908 558.516 131.643 C 563.47 130.461 569.031 129.846 574.065 130.855 C 586.744 133.395 610.932 149.781 622.795 157.071 C 632.598 162.179 641.365 168.473 645.009 179.389 C 645.442 180.687 645.743 182.013 646.012 183.352 C 646.541 188.266 646.755 193.196 647.002 198.129 C 647.086 213.198 647.918 228.616 646.788 243.628 C 646.114 249.591 645.852 256.501 646.71 262.447 L 647.009 269.465 Q 606.861 290.165 567.252 311.879 C 552.146 320.177 537.604 329.343 522.031 336.79 C 517.161 336.243 490.143 318.906 482.03 315.489 L 482.02 307.66 C 482.045 299.895 482.053 292.143 482.445 284.387 C 482.486 280.069 483.504 271.955 482.024 268.128 C 484.089 265.878 481.838 227.778 483.242 220.319 C 487.088 199.892 499.398 180.64 512.038 164.474 Z" stroke-linecap="round"/>
</g>
		<g transform="matrix(-0.9766 0 0 0.9766 2.8989 -271.1858)">
<linearGradient id="SVGID_5" gradientUnits="userSpaceOnUse" gradientTransform="matrix(1 0 0 1 0 0)" x1="471.43655" y1="259.83533" x2="561.07867" y2="240.87299">
<stop offset="0%" style="stop-color:rgb(139,37,42);stop-opacity: 1"/>
<stop offset="100%" style="stop-color:rgb(209,49,53);stop-opacity: 1"/>
</linearGradient>
<path style="stroke: none; stroke-width: 1; stroke-dasharray: none; stroke-linecap: butt; stroke-dashoffset: 0; stroke-linejoin: miter; stroke-miterlimit: 4; is-custom-font: none; font-file-url: none; fill: url(#SVGID_5); fill-rule: nonzero; opacity: 1;" transform=" translate(-516.7175, -250.632)" d="M 512.038 164.474 C 519.185 167.343 548.187 181.762 551.021 188.556 C 551.538 189.795 551.427 190.947 551.344 192.246 C 547.022 197.554 541.882 203.842 539.185 210.146 C 532.317 222.189 526.53 233.819 523.537 247.509 C 520.332 262.164 522.012 278.811 522.01 293.774 C 522.009 308.062 521.469 322.523 522.031 336.79 C 517.161 336.243 490.143 318.906 482.03 315.489 L 482.02 307.66 C 482.045 299.895 482.053 292.143 482.445 284.387 C 482.486 280.069 483.504 271.955 482.024 268.128 C 484.089 265.878 481.838 227.778 483.242 220.319 C 487.088 199.892 499.398 180.64 512.038 164.474 Z" stroke-linecap="round"/>
</g>
		<g transform="matrix(-0.9766 0 0 0.9766 -60.7184 -271.3425)">
<path style="stroke: none; stroke-width: 1; stroke-dasharray: none; stroke-linecap: butt; stroke-dashoffset: 0; stroke-linejoin: miter; stroke-miterlimit: 4; is-custom-font: none; font-file-url: none; fill: rgb(243,77,65); fill-rule: nonzero; opacity: 1;" transform=" translate(-581.8614, -250.4705)" d="M 578.828 190.527 C 579.191 196.017 580.211 218.903 578.702 222.847 C 578.612 227.64 579.086 233.137 578.274 237.818 C 586.881 246.917 613.463 257.336 625.572 264.893 C 622.151 265.459 614.592 270.287 611.194 272.053 Q 587.84 284.347 564.62 296.89 C 556.09 301.458 547.317 306.729 538.379 310.414 Q 538.436 296.021 538.347 281.629 C 538.253 273.917 537.791 266.278 538.731 258.601 C 539.551 252.353 540.938 246.84 543.271 240.983 C 546.605 232.162 551.563 224.106 556.215 215.94 C 563.3 206.765 570.283 198.439 578.828 190.527 Z" stroke-linecap="round"/>
</g>
		<g transform="matrix(-0.9766 0 0 0.9766 -40.7229 -305.2431)">
<path style="stroke: none; stroke-width: 1; stroke-dasharray: none; stroke-linecap: butt; stroke-dashoffset: 0; stroke-linejoin: miter; stroke-miterlimit: 4; is-custom-font: none; font-file-url: none; fill: rgb(46,122,184); fill-rule: nonzero; opacity: 1;" transform=" translate(-561.3869, -215.755)" d="M 578.828 190.527 C 579.191 196.017 580.211 218.903 578.702 222.847 C 567.017 229.028 555.315 235.542 543.271 240.983 C 546.605 232.162 551.563 224.106 556.215 215.94 C 563.3 206.765 570.283 198.439 578.828 190.527 Z" stroke-linecap="round"/>
</g>
		<g transform="matrix(-0.9766 0 0 0.9766 -38.143 -280.859)">
<path style="stroke: none; stroke-width: 1; stroke-dasharray: none; stroke-linecap: butt; stroke-dashoffset: 0; stroke-linejoin: miter; stroke-miterlimit: 4; is-custom-font: none; font-file-url: none; fill: rgb(25,60,114); fill-rule: nonzero; opacity: 1;" transform=" translate(-558.745, -240.724)" d="M 543.271 240.983 C 555.315 235.542 567.017 229.028 578.702 222.847 C 578.612 227.64 579.086 233.137 578.274 237.818 C 565.102 244.651 552.353 252.717 538.731 258.601 C 539.551 252.353 540.938 246.84 543.271 240.983 Z" stroke-linecap="round"/>
</g>
		<g transform="matrix(-0.9766 0 0 0.9766 -82.0364 -299.2677)">
<path style="stroke: none; stroke-width: 1; stroke-dasharray: none; stroke-linecap: butt; stroke-dashoffset: 0; stroke-linejoin: miter; stroke-miterlimit: 4; is-custom-font: none; font-file-url: none; fill: rgb(122,31,46); fill-rule: nonzero; opacity: 1;" transform=" translate(-603.6917, -221.8744)" d="M 588.964 183.686 C 596.862 180.105 605.733 177.012 614.312 180.161 C 619.67 182.127 623.202 186.663 625.419 191.756 Q 626.59 194.482 627.336 197.352 Q 628.082 200.223 628.387 203.174 C 629.56 213.821 628.955 224.947 628.942 235.666 C 628.931 244.757 629.6 254.133 628.284 263.138 C 627.41 264.01 626.67 264.378 625.572 264.893 C 613.463 257.336 586.881 246.917 578.274 237.818 C 579.086 233.137 578.612 227.64 578.702 222.847 C 580.211 218.903 579.191 196.017 578.828 190.527 C 581.765 187.714 585.48 185.721 588.964 183.686 Z" stroke-linecap="round"/>
</g>
		<g transform="matrix(-0.9766 0 0 0.9766 -46.6125 -358.4254)">
<path style="stroke: none; stroke-width: 1; stroke-dasharray: none; stroke-linecap: butt; stroke-dashoffset: 0; stroke-linejoin: miter; stroke-miterlimit: 4; is-custom-font: none; font-file-url: none; fill: rgb(243,77,65); fill-rule: nonzero; opacity: 1;" transform=" translate(-567.4165, -161.2965)" d="M 512.038 164.474 C 523.237 150.295 540.642 135.908 558.516 131.643 C 563.47 130.461 569.031 129.846 574.065 130.855 C 586.744 133.395 610.932 149.781 622.795 157.071 C 617.011 156.344 609.978 154.87 604.387 156.889 C 588.511 159.949 574.342 168.801 562.976 180.124 C 559.015 184.069 555.519 188.53 551.344 192.246 C 551.427 190.947 551.538 189.795 551.021 188.556 C 548.187 181.762 519.185 167.343 512.038 164.474 Z" stroke-linecap="round"/>
</g>
		<g transform="matrix(-0.9766 0 0 0.9766 -51.6757 -333.8961)">
<path style="stroke: none; stroke-width: 1; stroke-dasharray: none; stroke-linecap: butt; stroke-dashoffset: 0; stroke-linejoin: miter; stroke-miterlimit: 4; is-custom-font: none; font-file-url: none; fill: rgb(253,202,56); fill-rule: nonzero; opacity: 1;" transform=" translate(-572.602, -186.4145)" d="M 551.344 192.246 C 555.519 188.53 559.015 184.069 562.976 180.124 C 574.342 168.801 588.511 159.949 604.387 156.889 L 604.099 157.654 C 603.885 157.733 603.67 157.805 603.459 157.891 C 601.75 158.588 597.056 163.324 596.168 165.06 C 596.057 165.275 596.002 165.514 595.92 165.742 L 596.516 165.729 C 596.679 165.558 596.84 165.385 597.006 165.215 C 599.753 162.406 602.386 161.949 606.019 160.927 C 603.751 163.022 594.275 171.739 591.644 171.893 C 590.922 171.936 590.371 171.998 589.685 172.181 C 587.649 175.18 585.04 179.847 585.44 183.58 L 585.846 183.933 L 588.964 183.686 C 585.48 185.721 581.765 187.714 578.828 190.527 C 570.283 198.439 563.3 206.765 556.215 215.94 C 556.759 212.936 559.185 210.222 560.955 207.82 C 554.624 207.415 548.375 206.56 542.023 206.313 C 541.346 207.729 540.566 209.082 539.793 210.447 L 539.185 210.146 C 541.882 203.842 547.022 197.554 551.344 192.246 Z" stroke-linecap="round"/>
</g>
		<g transform="matrix(-0.9766 0 0 0.9766 187.7644 -143.574)">
<path style="stroke: none; stroke-width: 1; stroke-dasharray: none; stroke-linecap: butt; stroke-dashoffset: 0; stroke-linejoin: miter; stroke-miterlimit: 4; is-custom-font: none; font-file-url: none; fill: rgb(46,122,184); fill-rule: nonzero; opacity: 1;" transform=" translate(-327.4107, -381.3075)" d="M 482.024 268.128 C 483.504 271.955 482.486 280.069 482.445 284.387 C 482.053 292.143 482.045 299.895 482.02 307.66 Q 469.196 314.524 456.51 321.64 C 463.291 325.916 470.668 329.646 476.958 334.632 C 456.462 347.734 433.867 358.278 412.276 369.475 L 307.755 424.257 C 286.344 435.485 264.025 446.185 243.377 458.755 L 270.358 473.571 C 276.07 476.711 281.961 480.405 288.073 482.666 C 283.809 486.433 278.895 489.478 276.001 494.487 C 272.328 491.893 267.642 489.98 263.678 487.792 Q 247.479 478.849 231.148 470.15 Q 219.644 464.064 208.376 457.55 C 198.479 451.825 182.865 441.867 171.997 438.919 C 174.279 434.641 177.576 430.522 181.672 427.852 C 192.852 420.565 205.686 415.222 217.48 408.932 Q 254.9 388.644 292.564 368.813 L 403.254 310.104 Q 442.497 288.849 482.024 268.128 Z" stroke-linecap="round"/>
</g>
		<g transform="matrix(-0.9766 0 0 0.9766 187.7644 -143.574)">
<path style="stroke: none; stroke-width: 1; stroke-dasharray: none; stroke-linecap: butt; stroke-dashoffset: 0; stroke-linejoin: miter; stroke-miterlimit: 4; is-custom-font: none; font-file-url: none; fill: rgb(25,60,114); fill-rule: nonzero; opacity: 1;" transform=" translate(-327.4107, -381.3075)" d="M 482.024 268.128 C 483.504 271.955 482.486 280.069 482.445 284.387 L 293.58 384.134 L 230.931 417.339 C 219.993 423.137 209.118 429.308 197.962 434.666 C 207.451 440.366 217.258 445.587 227.048 450.752 C 232.316 453.532 237.761 456.77 243.377 458.755 L 270.358 473.571 C 276.07 476.711 281.961 480.405 288.073 482.666 C 283.809 486.433 278.895 489.478 276.001 494.487 C 272.328 491.893 267.642 489.98 263.678 487.792 Q 247.479 478.849 231.148 470.15 Q 219.644 464.064 208.376 457.55 C 198.479 451.825 182.865 441.867 171.997 438.919 C 174.279 434.641 177.576 430.522 181.672 427.852 C 192.852 420.565 205.686 415.222 217.48 408.932 Q 254.9 388.644 292.564 368.813 L 403.254 310.104 Q 442.497 288.849 482.024 268.128 Z" stroke-linecap="round"/>
</g>
		<g transform="matrix(-0.9766 0 0 0.9766 -225.7809 -332.9171)">
<path style="stroke: none; stroke-width: 1; stroke-dasharray: none; stroke-linecap: butt; stroke-dashoffset: 0; stroke-linejoin: miter; stroke-miterlimit: 4; is-custom-font: none; font-file-url: none; fill: rgb(46,122,184); fill-rule: nonzero; opacity: 1;" transform=" translate(-750.883, -187.418)" d="M 646.012 183.352 C 662.87 173.95 680.147 165.408 697.201 156.377 C 709.926 149.639 738.026 132.783 751.183 130.107 C 767.028 136.735 781.79 146.053 796.927 154.144 C 816.46 164.586 836.623 174.372 855.754 185.497 C 851.132 188.39 846.197 190.668 841.944 194.123 C 825.437 187.405 809.174 176.975 793.86 167.824 C 787.251 172.248 780.338 176.144 773.323 179.884 C 761.339 186.273 749.02 192.002 736.929 198.181 Q 702.389 215.745 668.232 234.041 C 664.834 235.831 649.199 244.998 647.074 244.723 L 646.788 243.628 C 647.918 228.616 647.086 213.198 647.002 198.129 C 646.755 193.196 646.541 188.266 646.012 183.352 Z" stroke-linecap="round"/>
</g>
		<g transform="matrix(-0.9766 0 0 0.9766 -225.7809 -355.6701)">
<path style="stroke: none; stroke-width: 1; stroke-dasharray: none; stroke-linecap: butt; stroke-dashoffset: 0; stroke-linejoin: miter; stroke-miterlimit: 4; is-custom-font: none; font-file-url: none; fill: rgb(25,60,114); fill-rule: nonzero; opacity: 1;" transform=" translate(-750.883, -164.118)" d="M 646.012 183.352 C 662.87 173.95 680.147 165.408 697.201 156.377 C 709.926 149.639 738.026 132.783 751.183 130.107 C 767.028 136.735 781.79 146.053 796.927 154.144 C 816.46 164.586 836.623 174.372 855.754 185.497 C 851.132 188.39 846.197 190.668 841.944 194.123 C 825.437 187.405 809.174 176.975 793.86 167.824 C 779.6 159.332 764.852 151.655 750.15 143.962 C 733.423 151.78 717.399 161.491 701.002 170.049 L 663.534 189.642 C 658.091 192.487 652.262 195.007 647.002 198.129 C 646.755 193.196 646.541 188.266 646.012 183.352 Z" stroke-linecap="round"/>
</g>
		<g transform="matrix(-0.9766 0 0 0.9766 -39.1676 -214.8332)">
<path style="stroke: none; stroke-width: 1; stroke-dasharray: none; stroke-linecap: butt; stroke-dashoffset: 0; stroke-linejoin: miter; stroke-miterlimit: 4; is-custom-font: none; font-file-url: none; fill: rgb(12,28,73); fill-rule: nonzero; opacity: 1;" transform=" translate(-559.791, -308.3355)" d="M 646.71 262.447 C 652.334 265.237 657.72 268.91 663.072 272.204 L 554.231 330.453 L 525.007 346.153 C 520.099 348.819 515.243 351.907 510.176 354.224 Q 493.487 344.564 476.958 334.632 C 470.668 329.646 463.291 325.916 456.51 321.64 Q 469.196 314.524 482.02 307.66 L 482.03 315.489 C 490.143 318.906 517.161 336.243 522.031 336.79 C 537.604 329.343 552.146 320.177 567.252 311.879 Q 606.861 290.165 647.009 269.465 L 646.71 262.447 Z" stroke-linecap="round"/>
</g>
		<g transform="matrix(-0.9766 0 0 0.9766 285.1002 150.7779)">
<path style="stroke: none; stroke-width: 1; stroke-dasharray: none; stroke-linecap: butt; stroke-dashoffset: 0; stroke-linejoin: miter; stroke-miterlimit: 4; is-custom-font: none; font-file-url: none; fill: rgb(12,28,73); fill-rule: nonzero; opacity: 1;" transform=" translate(-227.7425, -682.7289)" d="M 286.347 926.288 C 282.431 926.831 278.015 926.512 274.313 925.139 C 266.556 922.264 259.079 917.629 251.778 913.73 Q 228.4 901.33 205.428 888.192 C 196.83 883.345 186.926 879.133 179.031 873.292 C 175.937 871.003 173.318 868.067 171.793 864.505 C 170.093 860.538 169.804 856.158 169.654 851.9 C 168.795 827.495 169.508 802.831 169.51 778.399 L 169.519 639.529 L 169.511 512.671 C 169.505 491.521 168.666 470.149 169.524 449.032 C 169.672 445.393 170.624 442.26 171.997 438.919 C 182.865 441.867 198.479 451.825 208.376 457.55 Q 219.644 464.064 231.148 470.15 Q 247.479 478.849 263.678 487.792 C 267.642 489.98 272.328 491.893 276.001 494.487 C 274.066 499.734 273.45 503.964 273.202 509.506 C 272.185 532.215 272.983 555.153 273.037 577.89 L 273.269 702.096 L 273.379 838.266 L 273.445 874.499 C 273.378 883.116 272.918 891.8 273.243 900.41 C 273.441 905.657 273.931 911.08 276.224 915.884 C 278.253 920.137 281.307 923.067 285.585 925.008 L 286.347 926.288 Z" stroke-linecap="round"/>
</g>
		<g transform="matrix(-0.9766 0 0 0.9766 -49.4764 29.418)">
<path style="stroke: none; stroke-width: 1; stroke-dasharray: none; stroke-linecap: butt; stroke-dashoffset: 0; stroke-linejoin: miter; stroke-miterlimit: 4; is-custom-font: none; font-file-url: none; fill: rgb(254,254,253); fill-rule: nonzero; opacity: 1;" transform=" translate(-570.3405, -558.46)" d="M 847.539 218.179 L 848.02 573.87 C 848.014 582.34 848.252 590.881 847.997 599.342 C 848.12 603.47 848.196 607.605 848.383 611.73 C 835.477 618.863 822.026 625.24 808.862 631.903 L 738.605 667.642 L 524.124 778.422 L 377.335 855.688 C 350.162 870.013 321.085 886.62 293.013 898.741 L 292.994 887.674 L 293.004 861.018 Q 292.17 755.54 292.516 650.063 L 292.58 566.48 C 292.554 550.938 292.093 535.332 292.527 519.799 C 292.633 515.977 292.454 509.376 294.016 505.891 C 295.254 503.13 297.894 501.418 300.424 499.976 C 307.279 496.068 314.5 492.709 321.514 489.086 L 364.467 466.913 L 494.271 400.095 Q 670.446 308.25 847.539 218.179 Z" stroke-linecap="round"/>
</g>
		<g transform="matrix(-0.9766 0 0 0.9766 -49.8162 203.1019)">
<path style="stroke: none; stroke-width: 1; stroke-dasharray: none; stroke-linecap: butt; stroke-dashoffset: 0; stroke-linejoin: miter; stroke-miterlimit: 4; is-custom-font: none; font-file-url: none; fill: rgb(81,197,152); fill-rule: nonzero; opacity: 1;" transform=" translate(-570.6885, -736.3055)" d="M 293.004 861.018 C 301.372 856.226 310.367 852.148 318.919 847.66 L 379.641 815.657 Q 477.356 763.746 575.681 712.996 L 745.314 626.288 C 779.44 608.784 813.206 589.949 848.02 573.87 C 848.014 582.34 848.252 590.881 847.997 599.342 C 848.12 603.47 848.196 607.605 848.383 611.73 C 835.477 618.863 822.026 625.24 808.862 631.903 L 738.605 667.642 L 524.124 778.422 L 377.335 855.688 C 350.162 870.013 321.085 886.62 293.013 898.741 L 292.994 887.674 L 293.004 861.018 Z" stroke-linecap="round"/>
</g>
		<g transform="matrix(-0.9766 0 0 0.9766 -49.8162 215.5399)">
<path style="stroke: none; stroke-width: 1; stroke-dasharray: none; stroke-linecap: butt; stroke-dashoffset: 0; stroke-linejoin: miter; stroke-miterlimit: 4; is-custom-font: none; font-file-url: none; fill: rgb(254,254,253); fill-rule: nonzero; opacity: 1;" transform=" translate(-570.6885, -749.0415)" d="M 292.994 887.674 L 630.568 710.061 L 809.621 618.853 C 822.364 612.274 835.348 606.084 847.997 599.342 C 848.12 603.47 848.196 607.605 848.383 611.73 C 835.477 618.863 822.026 625.24 808.862 631.903 L 738.605 667.642 L 524.124 778.422 L 377.335 855.688 C 350.162 870.013 321.085 886.62 293.013 898.741 L 292.994 887.674 Z" stroke-linecap="round"/>
</g>
		<g transform="matrix(-0.9766 0 0 0.9766 78.8508 78.6807)">
<path style="stroke: none; stroke-width: 1; stroke-dasharray: none; stroke-linecap: butt; stroke-dashoffset: 0; stroke-linejoin: miter; stroke-miterlimit: 4; is-custom-font: none; font-file-url: none; fill: rgb(253,202,56); fill-rule: nonzero; opacity: 1;" transform=" translate(-438.9389, -608.901)" d="M 574.684 374.032 C 574.169 391.303 574.558 408.625 574.591 425.904 L 574.567 510.237 Q 573.61 605.911 574.552 701.582 C 566.513 706.937 557.816 710.837 549.113 714.953 C 539.194 719.437 529.806 724.95 519.937 729.516 C 472.444 753.32 425.905 779.371 379.045 804.418 Q 355.616 817.717 331.536 829.796 C 327.577 831.891 323.639 834.12 319.508 835.859 C 314.079 837.987 309.078 840.894 304.024 843.77 L 303.573 627.393 C 303.57 589.513 302.669 551.446 303.655 513.59 C 319.886 503.983 337.162 496 353.98 487.472 L 424.073 451.291 L 504.924 409.531 C 528.088 397.399 550.931 385.014 574.684 374.032 Z" stroke-linecap="round"/>
</g>
		<g transform="matrix(-0.9766 0 0 0.9766 67.5801 38.066)">
<linearGradient id="SVGID_6" gradientUnits="userSpaceOnUse" gradientTransform="matrix(1 0 0 1 0 0)" x1="424.28156" y1="527.71375" x2="480.02249" y2="629.3407">
<stop offset="0%" style="stop-color:rgb(249,175,121);stop-opacity: 1"/>
<stop offset="100%" style="stop-color:rgb(245,204,158);stop-opacity: 1"/>
</linearGradient>
<path style="stroke: none; stroke-width: 1; stroke-dasharray: none; stroke-linecap: butt; stroke-dashoffset: 0; stroke-linejoin: miter; stroke-miterlimit: 4; is-custom-font: none; font-file-url: none; fill: url(#SVGID_6); fill-rule: nonzero; opacity: 1;" transform=" translate(-450.4829, -567.306)" d="M 511.213 475.996 L 511.056 521.436 C 510.532 524.55 510.257 527.967 508.54 530.682 C 509.872 545.526 509.846 559.896 508.458 574.728 C 503.751 597.568 491.738 621.588 471.754 634.736 Q 469.935 635.923 468.074 637.045 C 454.83 644.559 435.769 655.897 420.895 658.616 C 417.565 658.535 414.198 657.994 410.89 657.597 C 408.976 656.531 407.033 655.473 405.305 654.118 C 390.22 642.29 393.126 621.746 390.824 605.014 L 390.697 604.131 C 390.135 591.65 388.589 560.437 391.331 549.248 C 392.036 546.373 393.194 544.636 395.15 542.448 C 403.021 545.612 410.669 549.415 418.327 553.054 C 421.649 551.673 424.747 550.034 427.891 548.29 C 427.935 547.804 427.971 547.318 428.021 546.833 C 428.762 539.599 428.004 532.361 428.539 525.129 C 437.476 522.816 455.902 510.782 465.076 505.916 L 487.755 494.09 C 491.804 491.971 496.345 489.922 500.045 487.246 C 504.304 484.166 507.586 479.771 511.213 475.996 Z" stroke-linecap="round"/>
</g>
		<g transform="matrix(-0.9766 0 0 0.9766 48.9588 -15.8021)">
<path style="stroke: none; stroke-width: 1; stroke-dasharray: none; stroke-linecap: butt; stroke-dashoffset: 0; stroke-linejoin: miter; stroke-miterlimit: 4; is-custom-font: none; font-file-url: none; fill: rgb(25,60,114); fill-rule: nonzero; opacity: 1;" transform=" translate(-469.552, -512.143)" d="M 511.213 475.996 L 511.056 521.436 C 510.532 524.55 510.257 527.967 508.54 530.682 C 508.505 525.34 509.481 514.511 505.908 510.343 C 505.581 509.962 505.392 509.89 505.001 509.672 C 495.452 510.924 440.919 541.662 427.891 548.29 C 427.935 547.804 427.971 547.318 428.021 546.833 C 428.762 539.599 428.004 532.361 428.539 525.129 C 437.476 522.816 455.902 510.782 465.076 505.916 L 487.755 494.09 C 491.804 491.971 496.345 489.922 500.045 487.246 C 504.304 484.166 507.586 479.771 511.213 475.996 Z" stroke-linecap="round"/>
</g>
		<g transform="matrix(-0.9766 0 0 0.9766 101.1736 56.0889)">
<path style="stroke: none; stroke-width: 1; stroke-dasharray: none; stroke-linecap: butt; stroke-dashoffset: 0; stroke-linejoin: miter; stroke-miterlimit: 4; is-custom-font: none; font-file-url: none; fill: rgb(29,84,141); fill-rule: nonzero; opacity: 1;" transform=" translate(-416.0851, -585.7585)" d="M 424.076 571.943 C 424.65 571.956 424.923 571.936 425.503 572.065 C 426.759 572.345 427.577 573.047 428.125 574.205 C 429.449 576.999 428.787 583.265 427.699 585.98 C 424.683 593.513 415.041 596.569 408.173 599.574 C 407.893 599.561 407.608 599.582 407.331 599.536 C 405.936 599.306 404.902 598.307 404.272 597.092 C 402.808 594.268 403.209 589.534 404.185 586.62 C 406.741 578.98 417.388 575.351 424.076 571.943 Z" stroke-linecap="round"/>
</g>
		<g transform="matrix(-0.9766 0 0 0.9766 35.0959 22.3174)">
<path style="stroke: none; stroke-width: 1; stroke-dasharray: none; stroke-linecap: butt; stroke-dashoffset: 0; stroke-linejoin: miter; stroke-miterlimit: 4; is-custom-font: none; font-file-url: none; fill: rgb(29,84,141); fill-rule: nonzero; opacity: 1;" transform=" translate(-483.7486, -551.1765)" d="M 490.991 537.476 C 491.535 537.44 491.948 537.398 492.506 537.435 C 493.747 537.518 494.697 538 495.467 538.995 C 497.958 542.209 496.031 548.886 495.276 552.525 C 490.091 557.867 482.745 561.073 476.26 564.541 C 475.877 564.693 475.408 564.908 474.994 564.927 C 473.608 564.99 473.031 564.496 472.007 563.717 C 470.337 560.681 470.597 555.974 471.572 552.735 C 474.211 543.971 483.573 541.218 490.991 537.476 Z" stroke-linecap="round"/>
</g>
		<g transform="matrix(-0.9766 0 0 0.9766 69.1163 212.5741)">
<path style="stroke: none; stroke-width: 1; stroke-dasharray: none; stroke-linecap: butt; stroke-dashoffset: 0; stroke-linejoin: miter; stroke-miterlimit: 4; is-custom-font: none; font-file-url: none; fill: rgb(25,60,114); fill-rule: nonzero; opacity: 1;" transform=" translate(-448.9095, -746.001)" d="M 483.947 687.584 C 490.222 688.845 496.694 689.459 503.045 690.264 C 506.42 691.732 509.196 700.361 510.545 703.776 C 513.898 712.263 516.854 720.926 519.937 729.516 C 472.444 753.32 425.905 779.371 379.045 804.418 C 376.149 798.105 381.487 764.67 377.882 759.644 C 380.833 750.707 396.957 734.68 403.517 726.459 C 410.892 733.176 418.52 739.659 425.993 746.273 C 430.076 737.138 434.372 728.241 439.124 719.433 C 439.669 719.791 440.393 720.34 441.026 720.563 C 442.59 721.114 444.245 720.894 445.723 720.203 C 449.549 718.414 451.458 713.88 452.808 710.15 C 457.247 714.035 462.161 718.191 467.614 720.578 C 473.062 709.569 478.33 698.518 483.947 687.584 Z" stroke-linecap="round"/>
</g>
		<g transform="matrix(-0.9766 0 0 0.9766 71.1749 203.8853)">
<path style="stroke: none; stroke-width: 1; stroke-dasharray: none; stroke-linecap: butt; stroke-dashoffset: 0; stroke-linejoin: miter; stroke-miterlimit: 4; is-custom-font: none; font-file-url: none; fill: rgb(243,77,65); fill-rule: nonzero; opacity: 1;" transform=" translate(-446.8035, -737.1025)" d="M 452.808 710.15 C 457.247 714.035 462.161 718.191 467.614 720.578 L 446.695 764.055 C 439.56 758.371 432.366 752.829 425.993 746.273 C 430.076 737.138 434.372 728.241 439.124 719.433 C 439.669 719.791 440.393 720.34 441.026 720.563 C 442.59 721.114 444.245 720.894 445.723 720.203 C 449.549 718.414 451.458 713.88 452.808 710.15 Z" stroke-linecap="round"/>
</g>
		<g transform="matrix(-0.9766 0 0 0.9766 78.4135 166.0344)">
<path style="stroke: none; stroke-width: 1; stroke-dasharray: none; stroke-linecap: butt; stroke-dashoffset: 0; stroke-linejoin: miter; stroke-miterlimit: 4; is-custom-font: none; font-file-url: none; fill: rgb(254,254,253); fill-rule: nonzero; opacity: 1;" transform=" translate(-439.3895, -698.3445)" d="M 420.895 658.616 C 435.769 655.897 454.83 644.559 468.074 637.045 C 467.583 644.54 466.396 652.546 467.189 660.024 L 474.628 652.567 C 478.786 654.41 482.19 655.988 485.148 659.611 C 487.87 663.787 503.427 686.429 503.193 689.678 C 503.178 689.879 503.094 690.069 503.045 690.264 C 496.694 689.459 490.222 688.845 483.947 687.584 C 478.33 698.518 473.062 709.569 467.614 720.578 C 462.161 718.191 457.247 714.035 452.808 710.15 C 451.458 713.88 449.549 718.414 445.723 720.203 C 444.245 720.894 442.59 721.114 441.026 720.563 C 440.393 720.34 439.669 719.791 439.124 719.433 C 434.372 728.241 430.076 737.138 425.993 746.273 C 418.52 739.659 410.892 733.176 403.517 726.459 C 396.957 734.68 380.833 750.707 377.882 759.644 C 376.835 759.269 376.325 759.015 375.585 758.177 C 375.379 748.411 393.836 707.036 399.288 695.97 C 401.75 693.5 404.289 690.858 405.796 687.677 C 403.09 679.348 404.782 667.646 404.965 658.87 C 407.048 658.618 408.919 658.336 410.89 657.597 C 414.198 657.994 417.565 658.535 420.895 658.616 Z" stroke-linecap="round"/>
</g>
		<g transform="matrix(-0.9766 0 0 0.9766 81.5543 131.5323)">
<path style="stroke: none; stroke-width: 1; stroke-dasharray: none; stroke-linecap: butt; stroke-dashoffset: 0; stroke-linejoin: miter; stroke-miterlimit: 4; is-custom-font: none; font-file-url: none; fill: rgb(234,150,113); fill-rule: nonzero; opacity: 1;" transform=" translate(-436.1745, -663.013)" d="M 420.895 658.616 C 435.769 655.897 454.83 644.559 468.074 637.045 C 467.583 644.54 466.396 652.546 467.189 660.024 C 455.562 675.656 441.031 686.058 421.305 688.978 C 416.19 689.037 410.891 688.208 405.796 687.677 C 403.09 679.348 404.782 667.646 404.965 658.87 C 407.048 658.618 408.919 658.336 410.89 657.597 C 414.198 657.994 417.565 658.535 420.895 658.616 Z" stroke-linecap="round"/>
</g>
		<g transform="matrix(-0.9766 0 0 0.9766 104.0609 141.5678)">
<path style="stroke: none; stroke-width: 1; stroke-dasharray: none; stroke-linecap: butt; stroke-dashoffset: 0; stroke-linejoin: miter; stroke-miterlimit: 4; is-custom-font: none; font-file-url: none; fill: rgb(243,77,65); fill-rule: nonzero; opacity: 1;" transform=" translate(-413.1286, -673.289)" d="M 410.89 657.597 C 414.198 657.994 417.565 658.535 420.895 658.616 C 422.181 666.344 422.337 681.203 421.305 688.978 C 416.19 689.037 410.891 688.208 405.796 687.677 C 403.09 679.348 404.782 667.646 404.965 658.87 C 407.048 658.618 408.919 658.336 410.89 657.597 Z" stroke-linecap="round"/>
</g>
		<g transform="matrix(-0.9766 0 0 0.9766 74.6656 169.1641)">
<path style="stroke: none; stroke-width: 1; stroke-dasharray: none; stroke-linecap: butt; stroke-dashoffset: 0; stroke-linejoin: miter; stroke-miterlimit: 4; is-custom-font: none; font-file-url: none; fill: rgb(243,77,65); fill-rule: nonzero; opacity: 1;" transform=" translate(-443.229, -701.5478)" d="M 425.009 699.636 C 431.784 694.214 450.872 682.831 459.728 682.235 C 460.676 682.172 460.561 682.326 461.222 682.909 C 462.851 691.45 455.258 701.245 453.019 709.37 L 452.808 710.15 C 451.458 713.88 449.549 718.414 445.723 720.203 C 444.245 720.894 442.59 721.114 441.026 720.563 C 440.393 720.34 439.669 719.791 439.124 719.433 C 432.919 711.877 428.915 709.16 425.009 699.636 Z" stroke-linecap="round"/>
</g>
		<g transform="matrix(-0.9766 0 0 0.9766 71.888 -43.712)">
<path style="stroke: none; stroke-width: 1; stroke-dasharray: none; stroke-linecap: butt; stroke-dashoffset: 0; stroke-linejoin: miter; stroke-miterlimit: 4; is-custom-font: none; font-file-url: none; fill: rgb(29,84,141); fill-rule: nonzero; opacity: 1;" transform=" translate(-446.0715, -483.5635)" d="M 462.837 441.998 C 468.721 445.052 474.645 448.1 480.691 450.82 C 489.143 454.623 499.47 457.841 506.658 463.752 C 510.587 466.983 510.835 471.28 511.213 475.996 C 507.586 479.771 504.304 484.166 500.045 487.246 C 496.345 489.922 491.804 491.971 487.755 494.09 L 465.076 505.916 C 455.902 510.782 437.476 522.816 428.539 525.129 C 428.122 524.685 428.02 524.545 427.464 524.137 C 421.596 519.829 395.631 507.285 388.886 505.953 C 386.381 505.459 383.466 505.911 380.93 506.125 C 382.152 500.376 383.638 494.802 385.743 489.303 C 386.616 487.023 387.814 484.87 388.621 482.572 L 388.917 481.708 C 397.323 475.292 408.033 471.121 417.417 466.266 Q 440.241 454.345 462.837 441.998 Z" stroke-linecap="round"/>
</g>
		<g transform="matrix(-0.9766 0 0 0.9766 150.8812 229.0601)">
<path style="stroke: none; stroke-width: 1; stroke-dasharray: none; stroke-linecap: butt; stroke-dashoffset: 0; stroke-linejoin: miter; stroke-miterlimit: 4; is-custom-font: none; font-file-url: none; fill: rgb(81,197,152); fill-rule: nonzero; opacity: 1;" transform=" translate(-365.1837, -762.883)" d="M 351.315 722.218 C 356.82 717.312 391.185 699.616 399.288 695.97 C 393.836 707.036 375.379 748.411 375.585 758.177 C 376.325 759.015 376.835 759.269 377.882 759.644 C 381.487 764.67 376.149 798.105 379.045 804.418 Q 355.616 817.717 331.536 829.796 C 331.437 806.844 329.056 773.474 336.235 752.421 C 337.783 747.88 339.96 743.37 342.196 739.132 C 344.487 734.791 350.826 726.665 351.315 722.218 Z" stroke-linecap="round"/>
</g>
		<g transform="matrix(-0.9766 0 0 0.9766 123.1126 15.0901)">
<path style="stroke: none; stroke-width: 1; stroke-dasharray: none; stroke-linecap: butt; stroke-dashoffset: 0; stroke-linejoin: miter; stroke-miterlimit: 4; is-custom-font: none; font-file-url: none; fill: rgb(12,28,73); fill-rule: nonzero; opacity: 1;" transform=" translate(-393.6187, -543.7776)" d="M 388.917 481.708 L 388.621 482.572 C 387.814 484.87 386.616 487.023 385.743 489.303 C 383.638 494.802 382.152 500.376 380.93 506.125 C 383.466 505.911 386.381 505.459 388.886 505.953 C 395.631 507.285 421.596 519.829 427.464 524.137 C 428.02 524.545 428.122 524.685 428.539 525.129 C 428.004 532.361 428.762 539.599 428.021 546.833 C 427.971 547.318 427.935 547.804 427.891 548.29 C 424.747 550.034 421.649 551.673 418.327 553.054 C 410.669 549.415 403.021 545.612 395.15 542.448 C 393.194 544.636 392.036 546.373 391.331 549.248 C 388.589 560.437 390.135 591.65 390.697 604.131 C 390.578 604.647 390.346 605.18 390.168 605.68 C 390.003 605.723 389.842 605.787 389.673 605.81 C 386.541 606.223 382.082 603.098 379.755 601.24 C 378.931 600.476 378.103 599.696 377.21 599.013 C 373.288 596.017 368.78 597.059 364.329 597.829 C 362.549 598.162 360.762 598.572 358.947 598.596 C 359.416 583.814 359.248 569.118 359.03 554.335 C 358.904 545.826 358.329 537.012 359.07 528.529 C 359.403 524.72 360.056 520.715 361.828 517.291 C 364.578 511.975 369.294 509.001 374.81 507.125 C 375.115 504.163 375.379 501.107 376.132 498.221 C 378.102 490.67 382.307 485.637 388.917 481.708 Z" stroke-linecap="round"/>
</g>
		<g transform="matrix(-0.9766 0 0 0.9766 2.3044 152.3747)">
<path style="stroke: none; stroke-width: 1; stroke-dasharray: none; stroke-linecap: butt; stroke-dashoffset: 0; stroke-linejoin: miter; stroke-miterlimit: 4; is-custom-font: none; font-file-url: none; fill: rgb(81,197,152); fill-rule: nonzero; opacity: 1;" transform=" translate(-517.3264, -684.3564)" d="M 485.148 659.611 C 495.18 654.379 515.314 642.185 525.261 639.781 C 528.618 638.97 532.217 638.959 535.518 640.029 C 540.109 641.516 543.725 645.04 545.813 649.339 C 551.513 661.077 548.839 700.336 549.113 714.953 C 539.194 719.437 529.806 724.95 519.937 729.516 C 516.854 720.926 513.898 712.263 510.545 703.776 C 509.196 700.361 506.42 691.732 503.045 690.264 C 503.094 690.069 503.178 689.879 503.193 689.678 C 503.427 686.429 487.87 663.787 485.148 659.611 Z" stroke-linecap="round"/>
</g>
		<g transform="matrix(-0.9766 0 0 0.9766 129.0444 99.3467)">
<path style="stroke: none; stroke-width: 1; stroke-dasharray: none; stroke-linecap: butt; stroke-dashoffset: 0; stroke-linejoin: miter; stroke-miterlimit: 4; is-custom-font: none; font-file-url: none; fill: rgb(142,87,81); fill-rule: nonzero; opacity: 1;" transform=" translate(-387.545, -630.055)" d="M 379.755 601.24 C 382.082 603.098 386.541 606.223 389.673 605.81 C 389.842 605.787 390.003 605.723 390.168 605.68 C 390.346 605.18 390.578 604.647 390.697 604.131 L 390.824 605.014 C 393.126 621.746 390.22 642.29 405.305 654.118 C 407.033 655.473 408.976 656.531 410.89 657.597 C 408.919 658.336 407.048 658.618 404.965 658.87 C 392.1 658.373 377.775 648.828 368.618 640.376 C 368.553 640.269 368.492 640.16 368.424 640.055 C 364.751 634.288 363.354 628.634 364.706 621.793 C 366.516 612.632 372.33 606.346 379.755 601.24 Z" stroke-linecap="round"/>
</g>
		<g transform="matrix(-0.9766 0 0 0.9766 180.1709 244.8373)">
<path style="stroke: none; stroke-width: 1; stroke-dasharray: none; stroke-linecap: butt; stroke-dashoffset: 0; stroke-linejoin: miter; stroke-miterlimit: 4; is-custom-font: none; font-file-url: none; fill: rgb(54,143,121); fill-rule: nonzero; opacity: 1;" transform=" translate(-335.1917, -779.0385)" d="M 319.508 835.859 L 319.41 802.28 C 319.288 788.48 317.919 774.008 321.686 760.571 C 326.161 744.61 336.85 730.404 351.315 722.218 C 350.826 726.665 344.487 734.791 342.196 739.132 C 339.96 743.37 337.783 747.88 336.235 752.421 C 329.056 773.474 331.437 806.844 331.536 829.796 C 327.577 831.891 323.639 834.12 319.508 835.859 Z" stroke-linecap="round"/>
</g>
		<g transform="matrix(-0.9766 0 0 0.9766 0.6552 19.2579)">
<path style="stroke: none; stroke-width: 1; stroke-dasharray: none; stroke-linecap: butt; stroke-dashoffset: 0; stroke-linejoin: miter; stroke-miterlimit: 4; is-custom-font: none; font-file-url: none; fill: rgb(234,150,113); fill-rule: nonzero; opacity: 1;" transform=" translate(-519.0161, -548.0441)" d="M 511.056 521.436 C 516.341 521.463 520.808 520.518 524.918 524.618 C 528.673 528.365 529.671 533.926 529.567 539.041 C 529.348 549.807 523.946 562.371 516.013 569.695 C 513.722 571.809 511.165 573.227 508.458 574.728 C 509.846 559.896 509.872 545.526 508.54 530.682 C 510.257 527.967 510.532 524.55 511.056 521.436 Z" stroke-linecap="round"/>
</g>
		<g transform="matrix(-0.9766 0 0 0.9766 150.7414 89.3742)">
<path style="stroke: none; stroke-width: 1; stroke-dasharray: none; stroke-linecap: butt; stroke-dashoffset: 0; stroke-linejoin: miter; stroke-miterlimit: 4; is-custom-font: none; font-file-url: none; fill: rgb(234,150,113); fill-rule: nonzero; opacity: 1;" transform=" translate(-365.3277, -619.8429)" d="M 364.329 597.829 C 368.78 597.059 373.288 596.017 377.21 599.013 C 378.103 599.696 378.931 600.476 379.755 601.24 C 372.33 606.346 366.516 612.632 364.706 621.793 C 363.354 628.634 364.751 634.288 368.424 640.055 C 368.492 640.16 368.553 640.269 368.618 640.376 C 365.096 641.841 361.402 643.465 357.535 642.254 C 353.626 637.806 351.173 633.683 350.927 627.56 C 350.443 615.477 356.603 606.442 364.329 597.829 Z" stroke-linecap="round"/>
</g>
		<g transform="matrix(-0.9766 0 0 0.9766 162.0828 89.5681)">
<path style="stroke: none; stroke-width: 1; stroke-dasharray: none; stroke-linecap: butt; stroke-dashoffset: 0; stroke-linejoin: miter; stroke-miterlimit: 4; is-custom-font: none; font-file-url: none; fill: rgb(142,87,81); fill-rule: nonzero; opacity: 1;" transform=" translate(-353.7141, -620.0415)" d="M 358.947 598.596 C 360.762 598.572 362.549 598.162 364.329 597.829 C 356.603 606.442 350.443 615.477 350.927 627.56 C 351.173 633.683 353.626 637.806 357.535 642.254 C 352.857 640.737 348.47 638.351 345.743 634.109 C 342.651 629.3 342.621 623.105 343.876 617.697 C 345.961 608.715 351.41 603.324 358.947 598.596 Z" stroke-linecap="round"/>
</g>
		<g transform="matrix(-0.9766 0 0 0.9766 -189.0033 -15.8285)">
<path style="stroke: none; stroke-width: 1; stroke-dasharray: none; stroke-linecap: butt; stroke-dashoffset: 0; stroke-linejoin: miter; stroke-miterlimit: 4; is-custom-font: none; font-file-url: none; fill: rgb(253,202,56); fill-rule: nonzero; opacity: 1;" transform=" translate(-713.222, -512.1215)" d="M 820.915 338.543 Q 828.778 333.985 836.906 329.917 C 835.932 343.088 836.339 356.555 836.284 369.765 Q 835.99 401.135 836.088 432.504 L 836.166 516.903 C 836.14 533.751 835.767 550.623 836.129 567.467 L 666.161 655.366 C 640.787 668.351 615.559 681.811 589.956 694.326 L 589.538 454.972 L 601.098 449.637 C 607.775 445.86 614.95 442.751 621.817 439.311 Q 641.496 429.384 661.072 419.253 Q 740.55 378.02 820.915 338.543 Z" stroke-linecap="round"/>
</g>
		<g transform="matrix(-0.9766 0 0 0.9766 -186.8888 -121.0312)">
<path style="stroke: none; stroke-width: 1; stroke-dasharray: none; stroke-linecap: butt; stroke-dashoffset: 0; stroke-linejoin: miter; stroke-miterlimit: 4; is-custom-font: none; font-file-url: none; fill: rgb(29,84,141); fill-rule: nonzero; opacity: 1;" transform=" translate(-711.0573, -404.3895)" d="M 820.915 338.543 Q 821.032 347.885 820.994 357.228 C 779.202 380.283 736.074 401.025 693.587 422.77 L 639.296 450.656 C 626.631 457.272 614.219 464.245 601.23 470.236 Q 601.228 459.936 601.098 449.637 C 607.775 445.86 614.95 442.751 621.817 439.311 Q 641.496 429.384 661.072 419.253 Q 740.55 378.02 820.915 338.543 Z" stroke-linecap="round"/>
</g>
		<g transform="matrix(-0.9766 0 0 0.9766 -186.6083 64.2481)">
<path style="stroke: none; stroke-width: 1; stroke-dasharray: none; stroke-linecap: butt; stroke-dashoffset: 0; stroke-linejoin: miter; stroke-miterlimit: 4; is-custom-font: none; font-file-url: none; fill: rgb(29,84,141); fill-rule: nonzero; opacity: 1;" transform=" translate(-710.77, -594.1155)" d="M 819.023 528.458 L 819.69 529 C 821.205 534.995 820.194 542.358 819.968 548.51 C 797.472 559.484 775.455 571.499 753.166 582.898 L 602.739 659.773 L 601.953 659.598 C 600.232 655.851 601.431 644.863 601.539 640.477 C 614.706 634.027 627.538 626.931 640.536 620.151 L 704.314 587.228 C 742.513 567.592 781.237 548.868 819.023 528.458 Z" stroke-linecap="round"/>
</g>
		<g transform="matrix(-0.9766 0 0 0.9766 -186.4376 2.6558)">
<path style="stroke: none; stroke-width: 1; stroke-dasharray: none; stroke-linecap: butt; stroke-dashoffset: 0; stroke-linejoin: miter; stroke-miterlimit: 4; is-custom-font: none; font-file-url: none; fill: rgb(29,84,141); fill-rule: nonzero; opacity: 1;" transform=" translate(-710.5953, -531.045)" d="M 819.299 464.983 C 821.334 467.856 820.115 480.683 819.955 484.715 C 806.719 492.49 792.596 499.136 778.962 506.218 L 705.02 544.708 Q 672.97 561.32 640.735 577.571 C 627.912 584.177 615.445 591.561 602.109 597.107 L 601.65 596.825 C 600.055 594.235 601.006 581.619 601.04 578.042 C 614.849 570.226 629.038 563.33 643.191 556.179 L 690.869 531.726 L 819.299 464.983 Z" stroke-linecap="round"/>
</g>
		<g transform="matrix(-0.9766 0 0 0.9766 -186.5743 -59.475)">
<path style="stroke: none; stroke-width: 1; stroke-dasharray: none; stroke-linecap: butt; stroke-dashoffset: 0; stroke-linejoin: miter; stroke-miterlimit: 4; is-custom-font: none; font-file-url: none; fill: rgb(29,84,141); fill-rule: nonzero; opacity: 1;" transform=" translate(-710.7352, -467.423)" d="M 818.862 401.489 C 819.012 401.635 819.195 401.753 819.312 401.926 C 821.056 404.502 820.04 417.173 819.969 420.722 C 813.443 425.034 805.991 428.405 799.043 432.027 L 760.254 452.084 L 667.757 499.521 C 645.904 510.608 623.605 521.184 602.339 533.357 L 601.908 533.222 C 600.594 530.443 601.37 516.927 601.375 513.097 Q 710.483 458.002 818.862 401.489 Z" stroke-linecap="round"/>
</g>
		<g transform="matrix(-0.9766 0 0 0.9766 -266.1633 -223.4283)">
<path style="stroke: none; stroke-width: 1; stroke-dasharray: none; stroke-linecap: butt; stroke-dashoffset: 0; stroke-linejoin: miter; stroke-miterlimit: 4; is-custom-font: none; font-file-url: none; fill: rgb(243,77,65); fill-rule: nonzero; opacity: 1;" transform=" translate(-792.2371, -299.5345)" d="M 828.271 244.492 C 828.901 244.497 828.499 244.455 829.438 244.822 C 830.933 249.821 830.03 258.534 830.029 263.97 L 829.636 315.451 C 815.941 322.469 802.479 329.984 788.857 337.148 C 777.771 342.978 766.496 348.388 755.598 354.577 L 754.958 354.368 C 753.41 351.934 754.868 291.497 754.174 282.515 C 779.232 270.624 803.534 257.046 828.271 244.492 Z" stroke-linecap="round"/>
</g>
		<g transform="matrix(-0.9766 0 0 0.9766 -266.8815 -223.0684)">
<path style="stroke: none; stroke-width: 1; stroke-dasharray: none; stroke-linecap: butt; stroke-dashoffset: 0; stroke-linejoin: miter; stroke-miterlimit: 4; is-custom-font: none; font-file-url: none; fill: rgb(253,202,56); fill-rule: nonzero; opacity: 1;" transform=" translate(-792.9732, -299.902)" d="M 813.434 272.55 C 815.399 275.549 814.038 301.395 813.973 306.329 C 800.68 313.841 786.79 320.433 773.13 327.254 L 772.305 326.673 C 770.67 317.678 771.873 303.071 771.991 293.552 C 785.439 285.86 799.508 279.319 813.434 272.55 Z" stroke-linecap="round"/>
</g>
		<g transform="matrix(-0.9766 0 0 0.9766 -103.3903 -141.4306)">
<path style="stroke: none; stroke-width: 1; stroke-dasharray: none; stroke-linecap: butt; stroke-dashoffset: 0; stroke-linejoin: miter; stroke-miterlimit: 4; is-custom-font: none; font-file-url: none; fill: rgb(243,77,65); fill-rule: nonzero; opacity: 1;" transform=" translate(-625.5577, -383.5)" d="M 660.87 329.967 C 662.31 331.915 661.549 392.294 661.546 399.838 C 637.796 412.308 613.878 424.339 590.238 437.033 C 589.749 435.831 589.552 434.843 589.487 433.538 C 589.099 425.744 589.758 417.766 589.854 409.952 L 589.982 366.203 C 613.734 354.39 637.183 341.923 660.87 329.967 Z" stroke-linecap="round"/>
</g>
		<g transform="matrix(-0.9766 0 0 0.9766 -106.2238 -141.9183)">
<path style="stroke: none; stroke-width: 1; stroke-dasharray: none; stroke-linecap: butt; stroke-dashoffset: 0; stroke-linejoin: miter; stroke-miterlimit: 4; is-custom-font: none; font-file-url: none; fill: rgb(253,202,56); fill-rule: nonzero; opacity: 1;" transform=" translate(-628.4598, -382.9995)" d="M 645.351 357.471 C 647.73 359.962 646.456 385.824 646.394 390.718 C 634.985 396.952 623.168 402.611 611.584 408.528 C 608.935 404.114 610.669 381.893 610.902 375.59 C 622.196 369.215 633.825 363.413 645.351 357.471 Z" stroke-linecap="round"/>
</g>
		<g transform="matrix(-0.9766 0 0 0.9766 58.4553 300.4939)">
<path style="stroke: none; stroke-width: 1; stroke-dasharray: none; stroke-linecap: butt; stroke-dashoffset: 0; stroke-linejoin: miter; stroke-miterlimit: 4; is-custom-font: none; font-file-url: none; fill: rgb(25,60,114); fill-rule: nonzero; opacity: 1;" transform=" translate(-459.8225, -836.0322)" d="M 285.585 925.008 C 296.531 922.591 307.132 915.015 316.983 909.786 L 363.383 885.165 L 519.11 804.403 L 585.656 769.606 C 598.655 762.782 611.56 755.701 624.742 749.241 C 627.343 747.967 631.173 745.482 634.06 745.805 C 626.441 750.426 618.104 754.213 610.191 758.325 Q 588.553 769.613 567.037 781.134 Q 474.34 830.992 380.632 878.922 L 323.432 909.138 C 311.913 915.162 299.142 923.704 286.347 926.288 L 285.585 925.008 Z" stroke-linecap="round"/>
</g>
</g>
</g>
</svg>