<?xml version="1.0" encoding="utf-8" ?>
<svg xmlns="http://www.w3.org/2000/svg" xmlns:xlink="http://www.w3.org/1999/xlink" width="1024" height="1024">
	<path fill="#FCFCFB" d="M180.881 463.171C181.794 463.367 182.913 463.733 183.657 464.332C184.698 465.17 185.196 465.867 185.217 467.241C185.244 468.994 183.766 470.504 182.745 471.782C180.518 471.261 179.357 469.253 178.008 467.556C178.805 466.005 179.887 464.602 180.881 463.171Z"/>
	<path fill="#DABFFE" d="M305.844 250.157C306.9 250.484 307.965 250.99 308.845 251.676C309.761 252.391 310.586 253.262 310.571 254.508C310.551 256.143 309.348 257.028 308.347 258.168C308.185 258.246 308.035 258.351 307.863 258.401C306.942 258.664 306.076 258.293 305.237 257.966C304.329 256.84 303.984 256.11 303.843 254.651C303.651 252.653 304.684 251.639 305.844 250.157Z"/>
	<path fill="#DABFFE" d="M194.336 573.449C196.616 573.405 198.641 573.308 200.382 575.072C201.279 575.981 201.677 577.088 201.519 578.361C201.248 580.548 199.723 581.8 198.127 583.118C196.298 583.135 194.375 583.098 192.902 581.826C191.856 580.923 191.265 579.995 191.292 578.569C191.335 576.26 192.794 574.93 194.336 573.449Z"/>
	<path fill="#DABFFE" d="M841.867 460.163C844.15 460.409 846.369 461.026 847.728 463.031C848.425 464.061 848.696 465.37 848.395 466.585C847.879 468.668 846.315 469.721 844.586 470.758C844.151 470.711 843.714 470.672 843.283 470.595C841.426 470.26 839.781 469.349 838.759 467.726C837.979 466.487 837.654 465.114 838.179 463.692C838.838 461.906 840.24 460.959 841.867 460.163Z"/>
	<path fill="#DABFFE" d="M862.562 650.951C863.324 650.923 864.084 650.948 864.841 651.05Q865.207 651.1 865.567 651.186Q865.927 651.272 866.276 651.394Q866.625 651.516 866.961 651.672Q867.296 651.828 867.614 652.017Q867.932 652.205 868.23 652.425Q868.527 652.644 868.802 652.893Q869.076 653.141 869.324 653.415Q869.572 653.689 869.792 653.987Q869.979 654.241 870.138 654.512Q870.297 654.784 870.427 655.071Q870.558 655.358 870.657 655.656Q870.757 655.955 870.826 656.263Q870.894 656.57 870.93 656.883Q870.966 657.196 870.97 657.511Q870.974 657.826 870.944 658.139Q870.915 658.453 870.854 658.762C870.366 661.259 868.783 662.537 866.767 663.881C866.089 663.954 865.421 664.01 864.738 663.979C862.874 663.896 861.148 663.214 859.913 661.771C858.769 660.433 858.406 658.745 858.562 657.02C858.824 654.129 860.423 652.7 862.562 650.951Z"/>
	<path fill="#DABFFE" d="M193.005 652.542C194.614 652.405 196.328 652.332 197.884 652.834C200.422 653.651 202.709 655.63 203.915 658.005C204.894 659.932 205.139 662.128 204.405 664.18C203.464 666.811 201.396 668.165 198.995 669.331C197.391 669.704 195.8 670.004 194.153 669.709C191.872 669.3 189.659 667.972 188.346 666.046C186.979 664.039 186.594 661.628 187.136 659.275C187.92 655.869 190.135 654.218 193.005 652.542Z"/>
	<path fill="#DABFFE" d="M820.976 536.02C822.601 535.929 824.194 535.966 825.782 536.378C828.517 537.087 831.077 539.24 832.331 541.757C833.311 543.724 833.53 546.153 832.769 548.228C831.681 551.195 829.775 552.445 827.051 553.804C825.388 553.988 823.832 554.085 822.196 553.633C819.718 552.947 817.5 551.044 816.281 548.801C815.022 546.486 814.712 543.78 815.615 541.286C816.596 538.578 818.463 537.209 820.976 536.02Z"/>
	<path fill="#DABFFE" d="M158.574 597.024C160.546 596.843 162.48 596.81 164.388 597.429Q164.928 597.6 165.447 597.826Q165.967 598.051 166.461 598.329Q166.955 598.606 167.418 598.933Q167.881 599.259 168.308 599.631Q168.735 600.003 169.122 600.416Q169.509 600.83 169.852 601.281Q170.195 601.732 170.49 602.215Q170.785 602.699 171.029 603.21C172.153 605.616 172.324 608.392 171.361 610.885C170.064 614.244 167.266 616.161 164.055 617.468C161.863 617.74 159.617 617.883 157.497 617.127Q157.019 616.954 156.56 616.736Q156.102 616.517 155.666 616.256Q155.231 615.994 154.823 615.691Q154.415 615.388 154.038 615.047Q153.661 614.706 153.319 614.33Q152.978 613.955 152.674 613.547Q152.37 613.14 152.107 612.705Q151.844 612.27 151.625 611.812Q151.403 611.344 151.229 610.855Q151.055 610.367 150.931 609.864Q150.806 609.361 150.732 608.848Q150.658 608.335 150.635 607.817Q150.612 607.299 150.641 606.782Q150.67 606.264 150.75 605.752Q150.831 605.24 150.961 604.739Q151.092 604.237 151.272 603.751C152.614 600.179 155.243 598.53 158.574 597.024Z"/>
	<path fill="#DABFFE" d="M730.377 261.036C732.642 260.945 734.768 261.047 736.885 261.951C740.048 263.303 742.421 265.972 743.538 269.209C744.637 272.394 744.512 276.031 742.998 279.06C741.039 282.982 738.156 284.392 734.183 285.721C731.105 286.113 728.057 285.76 725.362 284.114C721.663 281.855 720.34 278.152 719.38 274.183C719.786 271.968 720.314 269.768 721.395 267.773C723.436 264.006 726.378 262.269 730.377 261.036Z"/>
	<path fill="#DABFFE" d="M260.569 299.048C263.641 299.035 266.342 299.362 269.004 301.02C272.045 302.914 274.105 306.013 274.885 309.489C275.71 313.164 275.099 317.167 272.96 320.3C270.619 323.73 267.569 325.054 263.631 325.907C260.782 326.081 258.159 325.961 255.588 324.58C252.406 322.87 250.225 319.945 249.224 316.5C248.182 312.915 248.462 308.876 250.368 305.624C252.693 301.655 256.25 300.039 260.569 299.048Z"/>
	<path fill="#DABFFE" d="M844.747 567.125C849.535 566.629 854.68 567.511 858.911 569.81C864.448 572.817 868.292 578.271 869.851 584.32Q869.996 584.891 870.113 585.468Q870.229 586.045 870.316 586.628Q870.403 587.21 870.46 587.797Q870.518 588.383 870.546 588.971Q870.574 589.559 870.572 590.148Q870.57 590.737 870.539 591.325Q870.507 591.913 870.446 592.499Q870.385 593.085 870.294 593.667Q870.204 594.248 870.084 594.825Q869.964 595.402 869.815 595.972Q869.666 596.542 869.489 597.103Q869.312 597.665 869.106 598.217Q868.901 598.769 868.668 599.309Q868.435 599.85 868.175 600.379Q867.915 600.907 867.628 601.422Q867.342 601.936 867.03 602.436C863.134 608.725 857.454 611.921 850.419 613.478C844.681 613.972 839.139 613.25 834.263 609.946C828.968 606.357 825.525 600.545 824.53 594.262C823.53 587.947 824.924 581.452 828.748 576.284C832.727 570.908 838.251 568.108 844.747 567.125Z"/>
	<path fill="#DABFFE" d="M762.779 295.11C768.878 294.479 774.789 295.347 780.101 298.579C786.767 302.636 791.576 309.712 793.276 317.29Q793.435 317.994 793.558 318.705Q793.682 319.415 793.77 320.131Q793.859 320.847 793.912 321.567Q793.965 322.286 793.982 323.008Q794 323.729 793.982 324.45Q793.963 325.171 793.909 325.891Q793.856 326.61 793.767 327.326Q793.677 328.042 793.553 328.752Q793.429 329.463 793.269 330.167Q793.11 330.87 792.916 331.565Q792.722 332.26 792.494 332.945Q792.266 333.629 792.005 334.302Q791.743 334.974 791.449 335.633Q791.155 336.291 790.828 336.935Q790.502 337.578 790.144 338.204Q789.786 338.831 789.398 339.439C784.651 346.77 777.449 350.164 769.185 351.781C762.903 352.462 756.086 350.77 750.788 347.321C744.434 343.186 739.8 336.747 738.296 329.272Q738.159 328.567 738.056 327.856Q737.953 327.144 737.885 326.429Q737.818 325.714 737.785 324.996Q737.752 324.278 737.755 323.559Q737.757 322.841 737.795 322.123Q737.833 321.406 737.905 320.691Q737.978 319.976 738.086 319.266Q738.193 318.555 738.336 317.851Q738.478 317.146 738.655 316.45Q738.831 315.753 739.042 315.066Q739.252 314.379 739.496 313.703Q739.74 313.028 740.016 312.364Q740.293 311.701 740.602 311.052Q740.911 310.404 741.251 309.771Q741.591 309.138 741.962 308.522Q742.333 307.907 742.733 307.31C747.644 300.013 754.449 296.679 762.779 295.11Z"/>
	<path fill="#DABFFE" d="M207.844 327.144C214.64 326.483 221.978 328.232 227.68 332.006C234.51 336.527 239.742 344.221 241.257 352.294Q241.39 353.033 241.485 353.778Q241.581 354.523 241.639 355.272Q241.698 356.021 241.719 356.772Q241.74 357.523 241.723 358.274Q241.707 359.025 241.653 359.774Q241.599 360.523 241.508 361.268Q241.417 362.014 241.289 362.754Q241.16 363.494 240.995 364.227Q240.831 364.96 240.629 365.684Q240.428 366.407 240.191 367.12Q239.954 367.833 239.681 368.533Q239.409 369.233 239.102 369.918Q238.795 370.604 238.454 371.273Q238.114 371.943 237.74 372.594Q237.366 373.246 236.96 373.878Q236.555 374.51 236.118 375.121C230.528 383.084 222.599 386.963 213.225 388.649C205.525 389.545 197.555 387.808 191.201 383.297C184.634 378.635 179.682 371.259 178.458 363.241C177.21 355.06 179.818 346.829 184.661 340.233C190.473 332.317 198.351 328.656 207.844 327.144Z"/>
	<path fill="#4F518C" d="M789.875 688.694C801.17 695.088 811.87 702.539 822.939 709.317C831.863 714.781 842.153 719.615 850.133 726.373C852.191 728.116 853.857 730.287 854.526 732.944C855.098 735.215 854.64 737.52 853.413 739.494C850.866 743.593 845.063 747.023 841.066 749.534C832.933 754.643 824.265 758.899 816.004 763.801L750.371 803.417L600.031 894.256C585.792 902.849 571.36 911.13 557.162 919.789C547.209 925.859 537.504 932.545 527.229 938.06C523.922 939.835 520.519 941.485 516.816 942.241C510.273 943.576 505.346 942.163 499.528 939.224C492.055 935.449 484.927 930.848 477.782 926.489L441.482 904.286L326.54 835.331L232.012 778.744L194.244 756.818C188.631 753.51 182.737 750.387 177.396 746.671C174.744 744.825 172.579 742.953 171.912 739.655C171.475 737.493 171.73 735.018 173.05 733.2C174.694 730.937 177.312 729.071 179.595 727.488C188.54 721.283 198.198 716.096 207.472 710.403C216.413 704.915 225.245 698.796 234.395 693.705Q234.357 694.286 234.331 694.868C233.767 707.833 235.471 719.281 244.659 729.041C252.877 737.77 274.634 748.301 285.827 754.891Q319.188 774.385 352.255 794.372L452.361 854.621C465.583 862.579 478.098 871.702 491.731 878.987C497.581 882.112 503.52 884.27 510.21 884.45C518.11 884.662 525.739 880.678 532.569 877.091C542.82 871.708 552.705 864.904 562.64 858.898L624.36 821.786L737.08 754.344C750.013 746.524 774.055 734.306 783.962 724.609C791.797 716.938 789.821 699.082 789.875 688.694Z"/>
	<path fill="#2C2B4B" d="M395.434 252.777C395.383 247.637 395.828 242.202 395.16 237.116C394.104 229.076 391.635 222.015 392.472 213.744C394.183 196.832 404.516 183.106 417.3 172.645C447.231 148.153 494.582 141.115 532.203 145.021C563.688 148.289 598.147 159.374 618.619 184.853C627.92 196.429 632.729 210.449 629.919 225.241C628.488 232.775 626.252 239.839 625.426 247.525C636.155 252.364 645.705 259.31 655.749 265.38C663.602 270.126 687.727 282.172 692.625 289.138C696.912 295.236 696.034 315.205 694.711 322.731C692.925 332.885 687.625 335.144 679.871 340.609C694.223 349.76 708.223 359.327 722.737 368.251L755.497 388.316C764.806 394.025 775.627 399.573 783.337 407.344C787.528 411.567 789.768 417.532 790.421 423.38C791.389 432.053 790.589 440.788 790.52 449.487L790.374 498.34L789.875 688.694C789.821 699.082 791.797 716.938 783.962 724.609C774.055 734.306 750.013 746.524 737.08 754.344L624.36 821.786L562.64 858.898C552.705 864.904 542.82 871.708 532.569 877.091C525.739 880.678 518.11 884.662 510.21 884.45C503.52 884.27 497.581 882.112 491.731 878.987C478.098 871.702 465.583 862.579 452.361 854.621L352.255 794.372Q319.187 774.385 285.827 754.891C274.634 748.301 252.877 737.77 244.659 729.041C235.471 719.281 233.767 707.833 234.331 694.868Q234.357 694.286 234.395 693.705C233.541 630.867 234.102 567.959 234.086 505.114L234.079 455.22C234.079 444.996 232.969 433.1 235.188 423.098C236.576 416.839 239.819 411.43 244.479 407.064C255.548 396.695 274.607 387.27 287.935 379.431Q316.351 362.969 344.132 345.455C340.147 342.926 335.633 340.482 333.217 336.244C329.479 329.685 331.315 305.106 333.216 297.631C334.046 294.368 335.063 292.023 337.423 289.552C343.818 282.858 353.175 278.29 361.023 273.503Q378.163 263.031 395.434 252.777Z"/>
	<path fill="#DABFFE" d="M382.467 277.144L383.917 278.72L380.913 280.699C375.091 284.789 369.296 288.871 363.059 292.319C359.985 294.018 356.704 295.273 353.642 296.926L352.428 295.843Q367.277 286.22 382.467 277.144Z"/>
	<path fill="#FCFCFB" d="M413.82 258.732C416.441 260.25 419.159 261.645 421.326 263.794C421.416 272.582 422.974 290.869 419.886 298.532C418.61 299.656 417.94 299.852 416.24 299.741C415.533 299.695 414.825 299.615 414.12 299.539C410.475 289.951 412.789 269.34 413.82 258.732Z"/>
	<path fill="#4F518C" d="M396.514 269.097C395.822 281.876 402.868 302.162 411.427 311.706C413.625 314.157 415.907 316.387 417.504 319.301C407.25 314.585 386.192 290.87 380.913 280.699L383.917 278.72L382.467 277.144C386.349 273.587 391.541 270.772 396.514 269.097Z"/>
	<path fill="#8E7AD6" d="M382.467 277.144C386.349 273.587 391.541 270.772 396.514 269.097C395.532 272.564 391.825 274.717 388.813 276.387C387.26 277.248 385.635 278.242 383.917 278.72L382.467 277.144Z"/>
	<path fill="#FCFCFB" d="M352.428 295.843L353.642 296.926C365.736 303.617 377.262 311.086 388.969 318.411L430.771 344.343C454.783 359.173 479.606 373.016 502.981 388.835C506.409 391.155 510.754 393.571 512.928 397.149C512.545 397.329 512.049 397.609 511.606 397.673C508.562 398.111 502.661 393.821 500.082 392.315C488.849 385.753 477.994 378.372 466.933 371.503L403.331 332.181L368.292 310.089C362.305 306.304 355.752 302.803 350.195 298.434C350.686 297.152 351.413 296.706 352.428 295.843Z"/>
	<path fill="#FCFCFB" d="M404.538 219.039C404.715 219.316 404.896 219.591 405.07 219.87C408.184 224.87 409.498 230.698 413.002 235.634C425.66 253.468 452.541 262.355 473.057 267.461C488.518 271.309 505.029 273.926 520.926 274.944C525.111 275.211 536.939 273.456 539.911 275.337Q529.477 277.675 518.806 278.344C486.25 280.292 445.212 272.613 420.36 250.472C410.71 241.874 405.282 232.006 404.538 219.039Z"/>
	<path fill="#8E7AD6" d="M602.203 652.337C605.135 652.131 607.877 649.343 610.517 648.125C624.789 641.542 637.551 641.566 652.579 644.927C649.985 648.805 647.221 652.503 644.386 656.205C666.326 666.093 684.255 681.262 704.736 693.483C709.994 696.621 730.151 705.747 732.508 708.101L732.403 708.894C730.45 710.064 727.535 709.158 725.457 708.623C715.477 706.049 705.454 702.597 696.393 697.674C675.747 686.457 661.035 672.15 636.917 667.146C625.127 666.61 616.136 668.557 605.104 672.627C584.72 681.967 553.617 722.785 535.511 740.079L535.507 724.798C551.172 715.319 578.791 684.811 589.659 670.026C591.165 664.239 598.072 656.721 602.203 652.337Z"/>
	<path fill="#4F518C" d="M602.203 652.337C605.135 652.131 607.877 649.343 610.517 648.125C624.789 641.542 637.551 641.566 652.579 644.927C649.985 648.805 647.221 652.503 644.386 656.205C629.825 652.088 617.157 653.391 603.9 660.854C598.954 663.638 594.523 667.169 589.659 670.026C591.165 664.239 598.072 656.721 602.203 652.337Z"/>
	<path fill="#4F518C" d="M644.486 405.335L645.342 406.006C645.532 406.972 645.625 407.843 645.598 408.832C645.407 415.837 643.8 423.726 638.48 428.644C631.054 435.509 620.715 440.491 611.982 445.528L565.643 471.791C554.447 478.161 543.316 486.227 531.307 490.908C525.117 493.32 519.436 493.575 512.852 493.386L512.727 453.553C512.677 450.128 512.795 446.708 512.894 443.285C516.844 442.221 520.145 440.57 523.702 438.595C526.047 452.024 524.749 467.344 524.08 480.936C540.072 472.392 554.444 460.737 569.797 451.079C594.539 435.514 620.127 421.555 644.486 405.335Z"/>
	<path fill="#4F518C" d="M605.104 672.627C616.136 668.557 625.127 666.61 636.917 667.146C628.893 675.626 622.606 686.818 615.777 696.309Q587.87 735.897 557.158 773.352C550.334 781.635 543.71 790.991 535.508 797.942C535.485 784.092 535.045 770.103 535.542 756.269C544.41 744.999 554.491 734.431 563.663 723.36C570.433 715.19 576.328 706.233 583.362 698.296C589.659 691.191 597.401 685.253 603.258 677.802Q603.692 677.252 604.031 676.639Q604.37 676.026 604.605 675.366Q604.84 674.706 604.966 674.017Q605.091 673.328 605.104 672.627Z"/>
	<path fill="#4F518C" d="M455.596 343.451C464.253 346.169 472.835 348.9 481.73 350.744Q483.337 351.094 484.951 351.408Q486.565 351.722 488.185 352.001Q489.806 352.28 491.432 352.523Q493.058 352.766 494.689 352.974Q496.32 353.181 497.956 353.353Q499.591 353.525 501.23 353.661Q502.868 353.796 504.51 353.896Q506.151 353.996 507.794 354.06Q509.437 354.124 511.081 354.152Q512.725 354.18 514.369 354.172Q516.014 354.164 517.657 354.12Q519.301 354.076 520.944 353.996Q522.586 353.915 524.226 353.799Q525.866 353.683 527.504 353.531Q529.141 353.379 530.774 353.191Q532.408 353.004 534.037 352.78Q535.666 352.556 537.29 352.297Q538.913 352.038 540.531 351.743Q542.149 351.448 543.76 351.118Q545.37 350.788 546.974 350.423Q548.577 350.057 550.172 349.657Q551.766 349.257 553.352 348.821Q554.938 348.386 556.514 347.916Q558.089 347.447 559.654 346.942Q561.219 346.438 562.773 345.899Q564.327 345.361 565.868 344.789Q567.41 344.216 568.938 343.61Q570.467 343.004 571.982 342.365Q573.497 341.726 574.997 341.053Q576.498 340.381 577.983 339.676Q579.469 338.97 580.938 338.233Q582.408 337.496 583.861 336.726C598.768 328.896 615.624 317.539 620.723 300.526C624.432 288.149 623.97 273.703 623.994 260.866Q637.367 269.766 651.142 278.028C660.29 283.488 670.668 288.428 678.556 295.628L616.099 334.303C609.7 338.31 597.039 348.076 590.468 350.223C588.003 349.543 575.934 353.55 572.062 354.409Q567.474 355.388 562.848 356.167Q558.222 356.947 553.566 357.525Q548.911 358.104 544.235 358.48Q539.559 358.857 534.871 359.031Q530.183 359.205 525.491 359.176Q520.8 359.147 516.115 358.914Q511.429 358.682 506.758 358.248Q502.087 357.813 497.439 357.177C486.509 355.683 462.227 352.164 455.596 343.451Z"/>
	<defs>
		<linearGradient id="gradient_0" gradientUnits="userSpaceOnUse" x1="627.33179" y1="407.16129" x2="617.2923" y2="528.20123">
			<stop offset="0" stop-color="#5931A8"/>
			<stop offset="1" stop-color="#7A49DB"/>
		</linearGradient>
	</defs>
	<path fill="url(#gradient_0)" d="M649.139 407.59L685.507 430.272C692.796 434.893 700.867 439.484 707.252 445.302C705.14 448.085 702.829 449.652 699.917 451.477C678.709 464.769 656.139 475.905 634.466 488.428L597.556 510.24C591.08 514.087 584.656 518.309 577.894 521.622C572.123 518.776 543.375 524.338 533.415 522.012C555.128 514.542 574.486 502.155 594.328 490.835C611.821 480.854 630.316 471.429 645.969 458.612C650.808 454.65 655.615 449.924 658.386 444.23C659.958 441.001 660.573 437.598 659.274 434.156C657.247 428.78 651.26 425.281 646.647 422.291C647.782 417.425 648.553 412.548 649.139 407.59Z"/>
	<defs>
		<linearGradient id="gradient_1" gradientUnits="userSpaceOnUse" x1="480.15332" y1="399.07907" x2="464.5665" y2="271.65558">
			<stop offset="0" stop-color="#5B44A9"/>
			<stop offset="1" stop-color="#804ED1"/>
		</linearGradient>
	</defs>
	<path fill="url(#gradient_1)" d="M353.642 296.926C356.704 295.273 359.985 294.018 363.059 292.319C369.296 288.871 375.091 284.789 380.913 280.699C386.192 290.87 407.25 314.585 417.504 319.301C426.827 328.297 443.476 339.324 455.596 343.451C462.227 352.164 486.509 355.683 497.439 357.177Q502.087 357.813 506.758 358.248Q511.429 358.682 516.115 358.914Q520.8 359.147 525.491 359.176Q530.183 359.205 534.871 359.031Q539.559 358.857 544.235 358.48Q548.911 358.104 553.566 357.525Q558.222 356.947 562.848 356.167Q567.474 355.388 572.062 354.409C575.934 353.55 588.003 349.543 590.468 350.223Q563.439 367.731 535.852 384.345C532.262 386.476 514.528 395.534 512.928 397.149C510.754 393.571 506.409 391.155 502.981 388.835C479.606 373.016 454.783 359.173 430.771 344.343L388.969 318.411C377.262 311.086 365.736 303.617 353.642 296.926Z"/>
	<path fill="#4F518C" d="M378.596 429.894C382.387 430.825 396.347 441.089 400.699 444.08Q418.495 456.257 436.755 467.726C446.036 473.64 455.431 479.93 465.413 484.607C480.703 491.77 500.952 497.382 517.78 497.868C527.855 498.159 533.941 492.538 543.054 490.789C549.98 489.46 557.181 488.875 564.187 488.051C575.102 486.766 586.023 485.412 597.006 484.875C589.034 488.873 581.322 493.44 573.65 497.98C553.966 509.344 538.555 520.025 514.901 519.396C500.799 519.021 486.688 515.711 473.644 510.394C461.396 505.402 370.589 451.192 363.69 443.903C363.479 443.143 363.375 442.593 363.574 441.798C364.906 436.488 374.116 432.249 378.596 429.894Z"/>
	<path fill="#DABFFE" d="M665.375 350.481C689.073 366.645 715.377 378.969 738.353 396.332C740.609 402.029 741.879 407.608 739.425 413.527C734.122 426.314 717.368 431.512 706.855 439.072C700.125 434.319 692.637 430.244 685.613 425.914Q667.31 414.756 649.478 402.862Q649.72 381.534 649.381 360.207C654.547 356.731 659.666 353.011 665.375 350.481Z"/>
	<path fill="#4F518C" d="M345.772 300.124C356.908 306.577 367.528 313.781 378.312 320.793Q402.058 336.271 426.151 351.204L473.978 380.375C486.274 387.711 498.995 394.616 510.605 403.022C509.978 413.291 510.508 423.355 510.424 433.615C498.163 425.762 485.457 418.554 472.998 411.018L402.739 368.509Q387.887 359.705 373.234 350.574C367.54 347.032 360.548 343.219 355.719 338.575C352.797 337.086 350.108 335.288 347.376 333.484C347.459 326.484 347.86 319.492 347.81 312.489C346.809 308.44 346.024 304.293 345.772 300.124Z"/>
	<path fill="#FCFCFB" d="M347.81 312.489C351.21 313.607 353.456 315.061 356.043 317.511Q355.824 328.042 355.719 338.575C352.797 337.086 350.108 335.288 347.376 333.484C347.459 326.484 347.86 319.492 347.81 312.489Z"/>
	<path fill="#4F518C" d="M652.451 528.607C652.772 528.915 652.555 528.666 652.756 529.548C648.847 541.355 637.097 555.579 629.935 566.072C613.222 590.557 597.334 616.668 577.435 638.711C565.052 652.428 550.779 664.546 535.955 675.53C536.081 654.926 532.048 622.015 537.664 603.057C539.085 598.26 542.037 594.725 545.866 591.619C554.844 584.336 566.183 579.184 576.11 573.223C601.319 558.084 626.675 542.757 652.451 528.607Z"/>
	<path fill="#FCFCFB" d="M358.007 353.757L370.811 361.133C372.004 361.867 372.986 362.547 374.013 363.496C374.032 371.039 374.971 382.599 373.735 389.667Q373.52 396.999 373.624 404.334L336.013 427.101C326.968 432.549 317.508 437.7 309.355 444.456C307.898 450.049 307.484 455.661 307.137 461.414C294.318 456.831 273.904 439.553 262.651 440.259C253.271 440.847 253.961 448.577 248.773 453.883C248.538 454.124 248.292 454.355 248.051 454.591C247.571 446.07 246.705 436.913 248.885 428.569C250.34 423.003 252.833 419.1 257.135 415.317C265.267 408.166 282.006 399.431 292.013 393.394C313.999 380.132 335.797 366.646 358.007 353.757Z"/>
	<path fill="#DABFFE" d="M370.811 361.133C372.004 361.867 372.986 362.547 374.013 363.496C374.032 371.039 374.971 382.599 373.735 389.667C367.7 392.114 361.983 396.126 356.439 399.545Q339.062 410.228 322.084 421.534C314.836 426.299 307.353 431.596 299.115 434.467Q295.182 433.698 291.392 432.395Q287.603 431.092 284.028 429.281C281.047 427.743 278.116 426.049 277.059 422.702C277.121 419.968 279.235 418.272 281.198 416.626C289.114 409.986 298.686 405.374 307.533 400.12C319.029 393.291 330.36 386.17 341.946 379.494C351.511 373.982 363.309 369.383 370.811 361.133Z"/>
	<path fill="#DABFFE" d="M312.949 446.154C322.92 437.919 334.402 432.011 345.49 425.458Q359.719 416.925 373.507 407.698C373.427 414.793 373.503 421.093 375.84 427.849C370.205 431.107 365.014 433.748 361.556 439.5C361.379 441.885 361.465 444.279 361.499 446.668C364.32 449.509 367.293 451.731 370.622 453.947C386.645 464.613 403.569 474.257 420.008 484.301C438.393 495.532 456.704 508.971 477.057 516.301C494.548 522.601 515.053 525.641 533.415 522.012C543.375 524.338 572.123 518.776 577.894 521.622Q564.042 529.229 550.371 537.155C539.205 543.717 528.024 552.325 515.371 555.638C508.425 557.457 500.295 556.836 493.697 553.987C482.152 549.003 471.175 540.838 460.604 534.055Q439.681 520.76 418.526 507.838Q387.235 488.596 355.509 470.08C341.389 461.983 326.989 454.397 312.949 446.154Z"/>
	<path fill="#8E7AD6" d="M602.203 652.337C610.036 639.982 618.482 628.007 626.45 615.735Q641.749 591.928 656.035 567.499Q666.15 550.469 675.83 533.188C679.808 525.932 685.241 513.928 690.19 507.777C693.844 503.235 737.106 478.898 742.946 478.865C744.061 478.859 745.313 479.491 746.041 480.35C748.03 482.698 747.317 486.142 747.086 488.963C742.863 499.438 736.872 508.811 731.34 518.613C714.077 549.201 694.659 578.364 675.568 607.818Q668.276 619.11 661.216 630.549C658.312 635.18 654.938 639.993 652.579 644.927C637.551 641.566 624.789 641.542 610.517 648.125C607.877 649.343 605.135 652.131 602.203 652.337Z"/>
	<path fill="#4F518C" d="M421.326 263.794C427.911 268.609 435.126 271.74 442.629 274.809C475.194 288.13 511.378 290.748 546.034 285.389C551.881 284.484 557.701 283.272 563.499 282.099C563.37 298.019 564.09 318.052 551.933 330.151C535.566 346.44 510.501 347.965 488.768 347.754C476.768 347.637 451.283 338.95 441.163 331.821L440.692 330.963C441.7 330.884 442.337 331.123 443.276 331.469L443.417 331.176C439.391 329.033 435.085 327.079 431.302 324.535C425.011 320.305 411.704 309 409.269 301.666L409.63 301.006C411.11 300.589 412.782 300.283 414.12 299.539C414.825 299.615 415.533 299.695 416.24 299.741C417.94 299.852 418.61 299.656 419.886 298.532C422.974 290.869 421.416 272.582 421.326 263.794Z"/>
	<path fill="#FCFCFB" d="M429.266 271.243C433.125 272.773 436.775 274.505 440.429 276.475C440.633 287.304 442.495 299.606 438.778 309.972C437.7 310.553 436.377 311.379 435.128 311.431C433.622 311.493 432.472 311.09 431.445 309.951C426.354 304.31 428.653 279.199 429.266 271.243Z"/>
	<path fill="#4F518C" d="M377.824 364.99C414.675 383.839 449.652 406.973 485.286 428.016C493.535 432.888 502.319 440.521 511.446 443.334L511.507 493.207C468.258 486.355 445.626 469.814 410.066 446.487C399.308 439.429 387.421 433.168 378.05 424.284Q377.082 394.64 377.824 364.99Z"/>
	<path fill="#FCFCFB" d="M383.569 379.353C387.268 381.215 390.806 383.273 394.107 385.776C394.427 398.202 395.24 411.033 393.533 423.38L393.104 423.712C390.201 424.134 386.972 421.595 384.619 420.117C383.311 406.522 383.685 392.992 383.569 379.353Z"/>
	<path fill="#4F518C" d="M509.278 729.449C510.145 699.415 509.274 669.22 508.988 639.177C508.856 625.224 507.366 610.52 509.365 596.676C511.15 584.316 519.618 574.632 528.936 566.863C534.02 562.624 540.117 559.863 545.829 556.589L581.545 536.383Q608.863 520.935 635.965 505.109C648.571 497.751 661.086 490.125 673.862 483.068C682.065 478.537 690.398 474.222 698.671 469.819C703.164 467.428 708.255 465.191 712.292 462.093C712.424 461.992 712.552 461.887 712.682 461.783C713.743 470.404 713.175 479.675 713.287 488.375L584.914 563.603C571.518 571.619 555.761 578.073 543.681 587.92C538.457 592.179 534.181 597.727 532.482 604.341C528.587 619.506 530.864 637.258 530.927 652.821L531.031 722.096C526.184 724.811 515.586 730.845 509.809 729.629C509.626 729.59 509.455 729.509 509.278 729.449Z"/>
	<path fill="#4F518C" d="M747.086 488.963C748.352 495.667 747.526 503.646 747.527 510.51L747.583 554.629L747.99 645.751C748.005 662.673 748.622 679.764 747.388 696.641C725.547 695.453 706.536 681.842 689.897 668.695C684.817 664.681 679.839 660.321 674.515 656.65C667.664 651.927 660.192 648.235 652.579 644.927C654.938 639.993 658.312 635.18 661.216 630.549Q668.276 619.11 675.568 607.818C694.659 578.364 714.077 549.201 731.34 518.613C736.872 508.811 742.863 499.438 747.086 488.963Z"/>
	<path fill="#DABFFE" d="M524.243 556.435C530.14 553.666 535.574 550.094 541.188 546.809Q554.833 538.846 568.567 531.04L678.602 468.618C689.46 462.457 700.024 455.564 710.973 449.631L711.641 449.952C712.863 453.622 712.629 457.944 712.682 461.783C712.552 461.887 712.424 461.992 712.292 462.093C708.255 465.191 703.164 467.428 698.671 469.819C690.398 474.222 682.065 478.537 673.862 483.068C661.086 490.125 648.571 497.751 635.965 505.109Q608.863 520.934 581.545 536.383L545.829 556.589C540.117 559.863 534.02 562.624 528.936 566.863C519.618 574.632 511.15 584.316 509.365 596.676C507.366 610.52 508.856 625.224 508.988 639.177C509.274 669.22 510.145 699.415 509.278 729.449C503.695 725.964 497.629 723.712 491.497 721.41Q491.216 694.724 491.224 668.036C491.243 653.926 493.473 617.064 489.431 605.497C487.425 599.754 483.655 593.9 479.028 589.929C466.652 579.306 450.923 571.691 437.145 562.936C407.358 544.008 377.229 526.004 346.758 508.213C334.813 501.239 323.233 492.981 310.702 487.146C309.341 478.594 309.983 469.673 310.352 461.054C310.349 458.056 309.706 452.682 311.704 450.23C314.043 450.616 329.871 460.576 333.435 462.474C345.912 469.121 358.087 476.374 370.317 483.464Q404.942 503.28 438.802 524.377L467.074 542.11C476.07 547.864 485.017 555.08 495.287 558.391C505.501 561.684 514.462 560.389 524.243 556.435Z"/>
	<path fill="#FCFCFB" d="M310.352 461.054C310.349 458.056 309.706 452.682 311.704 450.23C314.043 450.616 329.871 460.576 333.435 462.474C345.912 469.121 358.087 476.374 370.317 483.464Q404.942 503.28 438.802 524.377L467.074 542.11C476.07 547.864 485.017 555.08 495.287 558.391C505.501 561.684 514.462 560.389 524.243 556.435C524.789 559.102 527.361 563.395 527.457 564.884C526.97 565.388 526.513 565.808 525.846 566.066C523.677 566.907 521.023 567.107 518.721 567.453C508.67 568.963 499.144 569.039 489.473 565.482C470.749 558.594 453.272 543.198 436.515 532.382C411.051 515.944 381.966 500.699 355.388 485.717C341.443 477.856 325.068 466.668 310.352 461.054Z"/>
	<path fill="#DABFFE" d="M248.051 454.591C248.292 454.355 248.538 454.124 248.773 453.883C253.961 448.577 253.271 440.847 262.651 440.259C273.904 439.553 294.318 456.831 307.137 461.414C307.221 469.306 307.301 477.173 306.956 485.06C299.577 480.411 285.815 470.292 276.781 472.229C274.494 472.72 272.708 474.077 271.514 476.071C269.878 478.802 269.52 482.087 269.389 485.206C268.801 499.248 269.563 513.589 269.716 527.659L270.381 604.865L270.585 658.774C270.579 670.165 268.787 690.417 271.877 700.718C273.316 705.516 277.898 709.765 281.838 712.68C290.448 719.048 300.118 724.209 309.291 729.728Q333.566 744.246 357.628 759.116Q403.91 788.647 451.178 816.572C457.124 820.007 462.598 824.791 468.642 827.848C472.898 830.001 477.498 830.155 481.967 828.506C485.245 827.298 488.178 825.101 489.553 821.809C493.774 811.703 491.666 787.56 491.675 776.057Q491.872 750.386 491.505 724.717C497.258 727.147 504.3 729.386 509.111 733.425C508.494 746.044 508.847 758.518 508.918 771.137L509.019 829.907C509.029 841.46 509.333 853.113 508.893 864.655C503.383 864.561 497.37 862.714 492.448 860.251C486.367 857.208 480.544 853.343 474.711 849.835L446.231 832.817Q399.01 804.795 352.224 776.049C334.066 765.015 315.964 753.865 297.651 743.087C285.575 735.981 271.141 728.561 260.012 720.245C256.113 717.331 250.635 712.769 249.992 707.725C248.262 694.15 249.514 680.521 249.396 666.88Q248.744 623.118 249.121 579.352Q249.264 539.68 248.689 500.012C248.463 484.896 247.76 469.704 248.051 454.591Z"/>
	<path fill="#4F518C" d="M293.271 714.021C311.244 702.828 329.865 692.52 348.146 681.826C360.076 674.846 372.055 666.831 384.486 660.845C388.093 667.913 391.67 674.933 396.052 681.564C412.754 706.838 437.933 728.01 466.983 737.313C473.553 739.417 480.243 740.769 487.02 741.977L487.063 786.41C487.108 794.73 487.756 803.498 486.84 811.75C486.488 814.921 485.746 818.413 484.108 821.17C482.907 823.19 479.926 824.421 477.728 824.898C475.271 825.432 473.585 824.843 471.434 823.704C464.807 820.194 458.512 815.572 452.146 811.582L414.305 788.19L293.271 714.021Z"/>
	<path fill="#4F518C" d="M738.353 396.332C748.234 400.475 764.048 410 771.77 417.232C773.92 421.385 775.315 425.189 775.658 429.928C776.195 438.606 775.246 447.325 775.082 456.009C774.819 469.886 774.965 483.758 774.638 497.641C774.507 503.197 774.731 508.747 774.67 514.303L773.567 593.6Q773.392 627.495 773.678 661.389C773.817 673.916 774.698 687.026 773.688 699.496C773.232 705.115 771.927 710.684 768.173 715.077C763.009 721.12 746.198 729.69 738.881 734.037L705.315 754.063Q628.764 800.502 551.499 845.741C544.797 849.641 538.416 854.27 531.517 857.807C524.277 861.52 517.054 864.185 508.893 864.655C509.333 853.113 509.029 841.46 509.019 829.907L508.918 771.137C508.847 758.518 508.494 746.044 509.111 733.425C516.605 733.472 524.144 729.72 530.986 726.971C530.995 756.501 530.401 786.129 531.067 815.647C532.685 818.497 534.771 821.14 537.539 822.952C540.107 824.634 543.315 825.419 546.351 824.766C554.29 823.058 574.156 809.595 581.864 804.94L617.762 783.497Q664.217 756.496 710.233 728.754C719.563 723.118 729.237 717.855 738.395 711.972C742.124 709.576 749.13 705.327 751.284 701.379C753.352 697.59 753.745 692.279 753.913 688.033C754.29 678.548 753.67 668.985 753.548 659.493C753.346 643.819 753.454 628.129 753.451 612.454Q753.578 567.615 753.001 522.779C752.939 512.211 753.571 501.59 753.277 491.037C753.167 487.056 753.118 482.191 751.706 478.421C750.903 476.275 749.481 474.136 747.311 473.193C738.918 469.546 725.426 482.502 717.645 485.65L716.905 485.946Q717.015 473.654 716.915 461.361C716.8 456.757 717.083 451.595 715.912 447.144C713.198 444.093 710.046 441.598 706.855 439.072C717.368 431.512 734.122 426.314 739.425 413.527C741.879 407.608 740.609 402.029 738.353 396.332Z"/>
	<path fill="#8E7AD6" d="M771.77 417.232C773.92 421.385 775.315 425.189 775.658 429.928C756.896 441.498 736.63 451.498 716.915 461.361C716.8 456.757 717.083 451.595 715.912 447.144Q743.299 431.176 771.77 417.232Z"/>
	<path fill="#4F518C" d="M738.353 396.332C748.234 400.475 764.048 410 771.77 417.232Q743.299 431.176 715.912 447.144C713.198 444.093 710.046 441.598 706.855 439.072C717.368 431.512 734.122 426.314 739.425 413.527C741.879 407.608 740.609 402.029 738.353 396.332Z"/>
	<path fill="#4F518C" d="M315.478 494.274L316.218 494.771C327.399 500.462 338.104 507.685 348.948 514.029Q389.836 537.591 429.699 562.85C443.884 571.759 464.681 583.064 476.746 593.627C480.941 597.299 483.937 602.1 485.695 607.376C487.26 612.073 487.589 616.671 487.165 621.59Q486.887 652.907 487.164 684.223C487.364 698.613 488.511 713.76 486.969 728.072C483.177 727.279 478.687 725.76 474.84 726.283C463.522 723.916 452.2 716.779 443.127 709.86C422.938 694.465 408.58 674.447 395.006 653.327C388.581 643.33 382.083 633.744 376.293 623.346C362.773 599.067 351.8 573.704 339.512 548.829C335.146 539.992 316.473 501.546 315.478 494.274Z"/>
	<path fill="#8E7AD6" d="M316.218 494.771C327.399 500.462 338.104 507.685 348.948 514.029Q389.836 537.591 429.699 562.85C443.884 571.759 464.681 583.064 476.746 593.627C480.941 597.299 483.937 602.1 485.695 607.376C487.26 612.073 487.589 616.671 487.165 621.59C483.001 625.406 478.207 628.104 472.752 629.579C456.674 633.927 439.417 627.884 425.53 619.86C413.593 612.963 402.924 603.9 393.153 594.218Q383.195 584.184 374.076 573.382C363.918 561.396 319.409 506.562 316.218 494.771Z"/>
	<path fill="#8E7AD6" d="M276.052 698.241C275.723 687.884 275.998 677.429 275.983 667.063L275.802 601.319L275.067 526.428C274.928 514.393 274.419 502.28 274.608 490.255C274.661 486.889 274.486 482.866 275.951 479.755C276.413 478.772 277.394 477.455 278.495 477.198C284.529 475.788 308.687 490.417 315.478 494.274C316.473 501.546 335.146 539.992 339.512 548.829C351.8 573.704 362.773 599.067 376.293 623.346C382.083 633.744 388.581 643.33 395.006 653.327C408.58 674.447 422.938 694.465 443.127 709.86C452.2 716.779 463.522 723.916 474.84 726.283C478.891 727.326 482.906 728.23 487.029 728.936L487.02 741.977C480.243 740.769 473.553 739.417 466.983 737.313C437.933 728.01 412.754 706.838 396.052 681.564C391.67 674.933 388.093 667.913 384.486 660.845C372.055 666.831 360.076 674.846 348.146 681.826C329.865 692.52 311.244 702.828 293.271 714.021C289.862 712.062 286.674 709.918 283.475 707.634C279.951 705.77 277.571 701.785 276.052 698.241Z"/>
	<path fill="#4F518C" d="M379.324 636.383C381.807 639.142 384.449 641.86 386.649 644.849C378.425 650.506 368.992 655.106 360.396 660.263Q334.22 675.991 308.26 692.074C300.426 696.822 290.09 701.578 283.475 707.634C279.951 705.77 277.571 701.785 276.052 698.241C285.748 694.066 294.997 687.23 303.951 681.612L347.167 654.703C357.629 648.291 368.188 641.565 379.324 636.383Z"/>
	<defs>
		<linearGradient id="gradient_2" gradientUnits="userSpaceOnUse" x1="495.4744" y1="271.12851" x2="518.70026" y2="156.07587">
			<stop offset="0" stop-color="#7539CE"/>
			<stop offset="1" stop-color="#9B56E4"/>
		</linearGradient>
	</defs>
	<path fill="url(#gradient_2)" d="M404.538 219.039C404.179 208.071 408.902 198.347 416.298 190.43C436.624 168.67 476.952 159.213 506.231 158.357C533.704 157.554 574.228 161.723 594.759 181.374C603.443 189.685 609.035 201.767 609.2 213.836Q609.219 214.982 609.181 216.127Q609.142 217.272 609.047 218.414Q608.952 219.556 608.8 220.692Q608.648 221.828 608.439 222.955Q608.231 224.081 607.966 225.196Q607.702 226.311 607.382 227.412Q607.063 228.512 606.688 229.595Q606.314 230.679 605.887 231.742Q605.459 232.805 604.979 233.845Q604.499 234.886 603.968 235.901Q603.436 236.917 602.855 237.904Q602.274 238.892 601.644 239.849Q601.014 240.806 600.337 241.731Q599.661 242.656 598.939 243.546Q598.217 244.436 597.451 245.289Q596.686 246.141 595.879 246.955C584.515 258.398 557.489 274.676 541.257 275.426C540.641 275.455 540.455 275.411 539.911 275.337C536.939 273.456 525.111 275.211 520.926 274.944C505.029 273.926 488.518 271.309 473.057 267.461C452.541 262.355 425.66 253.468 413.002 235.634C409.498 230.698 408.184 224.87 405.07 219.87C404.896 219.591 404.715 219.316 404.538 219.039Z"/>
	<path fill="#FCFCFB" d="M426.64 192.893C428.205 192.966 429.039 193.144 430.447 193.828C430.876 194.508 431.294 194.876 431.272 195.72C431.184 199.109 428.032 202.088 425.703 204.174C423.801 204.108 422.379 203.69 420.945 202.404C420.636 201.615 420.286 201.119 420.417 200.249C420.933 196.811 423.965 194.674 426.64 192.893Z"/>
	<path fill="#FCFCFB" d="M452.014 173.49C453.515 173.52 454.111 173.358 455.373 174.222L455.517 175.327C453.445 180.003 445.331 185.92 440.698 187.908C439.457 187.649 437.697 187.263 436.742 186.357C435.767 185.431 435.877 185.011 435.88 183.767C438.507 178.307 446.69 175.413 452.014 173.49Z"/>
	<path fill="#FCFCFB" d="M580.069 214.833C581.244 214.804 582.541 214.908 583.665 215.272C586.118 216.064 588.703 217.707 589.775 220.136C591.428 223.881 590.512 229.14 589.02 232.787C585.692 240.925 578.798 246.211 570.908 249.488C567.487 249.603 563.992 249.702 561.263 247.392C560.871 246.519 560.576 246.128 560.613 245.143C560.847 238.924 569.395 233.348 572.532 228.284C575.44 223.591 575.836 218.825 580.069 214.833Z"/>
	<path fill="#4F518C" d="M504.193 184.25C519.308 181.906 545.518 187.238 558.272 196.084C564.59 200.465 569.634 207.033 570.852 214.768C571.786 220.695 570.326 226.215 566.707 230.992C556.391 244.611 534.904 248.429 519.124 250.49C499.523 251.659 477.478 248.863 461.554 236.398C456.11 232.137 451.709 226.575 451.038 219.459C450.437 213.085 452.874 206.782 456.935 201.938C467.896 188.865 488.183 185.559 504.193 184.25Z"/>
</svg>
