<?xml version="1.0" encoding="utf-8"?>
<svg xmlns="http://www.w3.org/2000/svg" viewBox="-49.6699 -166.0395 776.7833 849.3204" width="776.783px" height="849.32px">
  <g transform="matrix(1, 0, 0, 1, -182.72447204589844, -290.8992004394532)">
    <path fill="#0F1851" d="M422.994 125.273C499.016 120.894 566.994 151.646 623.068 201.524C686.132 257.619 732.685 340.172 737.5 425.462C739.383 458.811 734.968 490.128 726.897 522.416Q757.711 543.09 788.794 563.355C800.776 571.07 823.113 583.207 832.545 592.82C834.542 607.134 833.328 622.582 833.397 637.047C833.476 653.592 834.446 673.338 833.388 689.614C825.398 698.772 814.105 703.04 804.148 709.619Q837.881 743.334 871.203 777.456C880.348 786.697 895.047 798.625 901.903 809.104C906.467 816.081 908.496 824.329 908.547 832.61C908.671 852.804 898.207 869.518 885.189 884.077C871.695 897.62 853.783 912.769 833.927 914.23C829.764 914.536 824.134 914.139 820.428 912.103C812.5 907.748 806.27 898.85 800.073 892.454L766.245 857.961C759.692 851.264 753.319 843.951 746.238 837.822L745.853 837.494C726.389 819.377 708.248 799.924 688.618 781.974C680.143 787.123 672.08 792.959 663.959 798.641C646.563 809.019 629.798 820.573 612.714 831.463L490.149 909.813C485.889 912.444 481.366 915.315 476.404 916.347C467.315 918.239 459.601 912.51 452.412 907.86C439.283 898.186 424.39 890.087 410.412 881.623Q381.475 864.026 352.879 845.878L230.048 769.24C209.272 756.272 188.717 742.773 167.674 730.247C163.301 726.127 157.464 723.335 152.222 720.47L151.647 719.988C141.249 711.141 145.44 698.909 144.37 687.086C144.356 686.931 144.339 686.776 144.323 686.621C144.917 680.546 144.558 674.103 144.478 668.002L144.038 638.164C144.851 630.219 144.132 621.566 144.032 613.554L144.012 605.097C157.967 595.39 172.174 586.048 186.073 576.263C202.592 564.634 218.863 552.483 236.354 542.327C231.851 532.191 226.338 522.528 221.692 512.452C215.272 498.529 210.45 484.217 206.048 469.548C204.499 462.876 202.939 455.446 200.497 449.066C200.418 443.193 197.015 431.275 196.203 424.399C193.358 400.294 193.02 375.381 196.155 351.29C198.406 342.471 198.971 332.782 200.741 323.779C206.951 294.493 219.976 265.398 237.302 241C262.258 205.858 292.191 188.108 326.762 164.195C340.339 154.803 353.551 143.882 368.924 137.552C380.593 132.747 393.546 129.445 406.036 127.51C411.671 126.637 417.372 126.229 422.994 125.273ZM305.368 332.394C304.669 335.989 303.803 339.562 303.001 343.135Q380.286 292.563 458.215 242.99C454.402 242.244 450.669 241.197 446.922 240.179Q433.005 237.167 418.908 235.163C413.091 234.571 407.297 234.06 401.442 234.097C388.864 234.178 362.374 236.287 352.664 244.25C339.005 255.452 321.92 283.966 316.175 300.878Q312.578 308.421 309.867 316.326Q307.156 324.231 305.368 332.394Z"/>
    <path fill="#2CBED6" d="M386.115 187.289C387.341 187.157 388.555 187.083 389.788 187.037C453.121 184.691 511.948 217.356 557.045 259.503C617.682 316.173 660.366 398.899 662.997 482.64C664.606 533.827 648.629 591.996 612.863 629.867Q611.404 631.398 609.908 632.894Q608.413 634.389 606.881 635.848Q605.349 637.306 603.782 638.727Q602.216 640.148 600.615 641.53Q599.014 642.912 597.38 644.255Q595.746 645.598 594.079 646.901Q592.413 648.204 590.716 649.466Q589.018 650.727 587.29 651.948Q585.563 653.168 583.806 654.345Q582.049 655.523 580.264 656.657Q578.479 657.792 576.667 658.883Q574.854 659.973 573.016 661.02Q571.178 662.066 569.315 663.067Q567.452 664.069 565.565 665.024Q563.678 665.98 561.769 666.889Q559.859 667.799 557.928 668.661Q555.997 669.524 554.045 670.339Q552.094 671.155 550.123 671.922Q548.152 672.69 546.163 673.409Q544.174 674.129 542.168 674.799Q540.162 675.47 538.14 676.092Q536.119 676.714 534.083 677.286Q532.047 677.858 529.997 678.381Q527.948 678.903 525.886 679.376Q523.824 679.849 521.752 680.271Q519.679 680.693 517.597 681.065Q515.515 681.436 513.424 681.757Q511.334 682.078 509.236 682.348Q507.138 682.618 505.034 682.837Q502.931 683.055 500.822 683.223Q498.714 683.39 496.602 683.506Q494.49 683.622 492.376 683.687C433.533 686.961 374.995 659.781 330.864 622.455C268.296 569.535 223.422 492.004 216.647 409.665C211.925 352.289 224.923 290.526 263.063 245.832C295.961 207.282 336.784 191.265 386.115 187.289ZM305.368 332.394C304.669 335.989 303.803 339.562 303.001 343.135Q380.286 292.563 458.215 242.99C454.402 242.244 450.669 241.197 446.922 240.179Q433.005 237.167 418.908 235.163C413.091 234.571 407.297 234.06 401.442 234.097C388.864 234.178 362.374 236.287 352.664 244.25C339.005 255.452 321.92 283.966 316.175 300.878Q312.578 308.421 309.867 316.326Q307.156 324.231 305.368 332.394Z"/>
    <path fill="#0F1851" d="M387.439 213.707C440.303 209.929 493.12 234.948 532.622 268.397C590.373 317.299 632.049 392.436 638.219 468.271C642.311 518.563 628.899 569.218 595.907 607.979C569.26 639.287 532.664 654.72 492.36 657.933C436.766 659.882 387.569 640.892 345.107 605.308C286.406 556.115 247.024 486.295 240.347 409.548C235.896 358.374 249.07 304.353 282.578 264.584C309.089 233.119 347.162 217.122 387.439 213.707ZM305.368 332.394C304.669 335.989 303.803 339.562 303.001 343.135Q380.286 292.563 458.215 242.99C454.402 242.244 450.669 241.197 446.922 240.179Q433.005 237.167 418.908 235.163C413.091 234.571 407.297 234.06 401.442 234.097C388.864 234.178 362.374 236.287 352.664 244.25C339.005 255.452 321.92 283.966 316.175 300.878Q312.578 308.421 309.867 316.326Q307.156 324.231 305.368 332.394Z"/>
    <path fill="#5CDABA" d="M396.537 574.329C403.485 577.934 410.013 582.416 416.747 586.41C423.725 590.55 430.925 594.195 438.202 597.776C472.049 610.768 510.869 616.737 546.574 608.296L547.091 608.117C554.463 605.627 562.27 604.52 569.589 601.846C578.507 598.589 587.313 594.15 595.115 588.726C600.182 585.204 605.005 581.253 610.266 578.026Q609.53 579.503 608.758 580.961Q607.986 582.419 607.179 583.858Q606.371 585.297 605.529 586.716Q604.687 588.135 603.811 589.533Q602.934 590.931 602.024 592.307Q601.113 593.683 600.17 595.036Q599.226 596.39 598.25 597.72Q597.273 599.05 596.265 600.356Q595.256 601.661 594.216 602.942Q593.176 604.223 592.105 605.478Q591.034 606.733 589.933 607.962Q588.831 609.191 587.701 610.392Q586.57 611.593 585.41 612.767Q584.25 613.94 583.062 615.085Q581.873 616.23 580.658 617.345Q579.442 618.461 578.199 619.546Q576.956 620.632 575.688 621.687Q574.419 622.741 573.125 623.765Q571.831 624.788 570.512 625.78Q569.193 626.772 567.851 627.731Q566.509 628.69 565.143 629.617Q563.778 630.543 562.39 631.435Q561.002 632.328 559.593 633.186Q558.184 634.045 556.755 634.869Q555.325 635.693 553.876 636.482Q552.427 637.27 550.959 638.023Q549.491 638.777 548.005 639.494Q546.519 640.211 545.016 640.892Q543.513 641.572 541.994 642.216Q540.474 642.86 538.94 643.466Q537.406 644.073 535.857 644.642Q534.308 645.211 532.746 645.742C520.474 649.926 488.882 656.165 476.346 653.527C468.911 652.679 461.477 652.337 454.069 651.172C431.312 647.59 409.996 639.225 389.299 629.366C377.514 625.494 359.142 610.213 349.424 601.85C356.795 597.693 364.204 593.534 371.389 589.064C379.645 583.928 387.656 578.357 396.537 574.329Z"/>
    <path fill="#50CEBC" d="M396.537 574.329C403.485 577.934 410.013 582.416 416.747 586.41C423.725 590.55 430.925 594.195 438.202 597.776C426.2 603.292 415.207 611.663 404.239 618.99C399.328 622.272 393.608 625.325 389.299 629.366C377.514 625.494 359.142 610.213 349.424 601.85C356.795 597.693 364.204 593.534 371.389 589.064C379.645 583.928 387.656 578.357 396.537 574.329Z"/>
    <path fill="#126866" d="M546.574 608.296L547.091 608.117C554.463 605.627 562.27 604.52 569.589 601.846C578.507 598.589 587.313 594.15 595.115 588.726C600.182 585.204 605.005 581.253 610.266 578.026Q609.53 579.503 608.758 580.961Q607.986 582.419 607.179 583.858Q606.371 585.297 605.529 586.716Q604.687 588.135 603.811 589.533Q602.934 590.931 602.024 592.307Q601.113 593.683 600.17 595.036Q599.226 596.39 598.25 597.72Q597.273 599.05 596.265 600.356Q595.256 601.661 594.216 602.942Q593.176 604.223 592.105 605.478Q591.034 606.733 589.933 607.962Q588.831 609.191 587.701 610.392Q586.57 611.593 585.41 612.767Q584.25 613.94 583.062 615.085Q581.873 616.23 580.658 617.345Q579.442 618.461 578.199 619.546Q576.956 620.632 575.688 621.687Q574.419 622.741 573.125 623.765Q571.831 624.788 570.512 625.78Q569.193 626.772 567.851 627.731Q566.509 628.69 565.143 629.617Q563.778 630.543 562.39 631.435Q561.002 632.328 559.593 633.186Q558.184 634.045 556.755 634.869Q555.325 635.693 553.876 636.482Q552.427 637.27 550.959 638.023Q549.491 638.777 548.005 639.494Q546.519 640.211 545.016 640.892Q543.513 641.572 541.994 642.216Q540.474 642.86 538.94 643.466Q537.406 644.073 535.857 644.642Q534.308 645.211 532.746 645.742C520.474 649.926 488.882 656.165 476.346 653.527C482.804 651.442 488.612 648.069 494.713 645.159C513.898 636.007 534.766 627.023 546.574 608.296Z"/>
    <path fill="#50CEBC" d="M369.875 482.694C371.713 492.255 371.188 533.106 370.167 543.452C362.503 535.979 356.356 527.32 349.494 519.151Q349.045 507.363 348.974 495.567Q359.39 489.074 369.875 482.694Z"/>
    <path fill="#EF8C38" d="M473.311 536.923C481.799 541.183 490.195 547.265 498.313 552.315C521.633 566.823 544.454 582.131 567.774 596.653C548.116 604.463 525.839 606.805 504.875 606.997C466.186 604.168 444.462 596.957 410.893 577.389C419.128 571.26 428.133 566.01 436.814 560.533Q455.231 548.989 473.311 536.923Z"/>
    <defs>
      <linearGradient id="gradient_1" gradientUnits="userSpaceOnUse" x1="342.05588" y1="546.16223" x2="363.367" y2="589.1405">
        <stop offset="0" stop-color="#BFECD1"/>
        <stop offset="1" stop-color="#FFF9F7"/>
      </linearGradient>
    </defs>
    <path fill="url(#gradient_1)" d="M288.599 532.915C295.954 526.666 304.109 521.605 311.998 516.088C317.965 511.915 324.954 505.741 331.718 503.056Q343.766 520.57 357.023 537.188C368.48 549.766 379.34 562.034 393.563 571.64Q369.741 585.918 345.516 599.5C334.882 590.016 324.045 580.755 315.449 569.291C305.165 558.639 296.383 545.479 288.599 532.915Z"/>
    <path fill="#50CEBC" d="M288.599 532.915C295.954 526.666 304.109 521.605 311.998 516.088C317.965 511.915 324.954 505.741 331.718 503.056Q343.766 520.57 357.023 537.188C349.771 546.831 337.109 554.189 327.058 560.741C323.089 563.328 318.703 565.811 315.449 569.291C305.165 558.639 296.383 545.479 288.599 532.915Z"/>
    <path fill="#126866" d="M249.109 372.199C250.718 358.251 257.062 320.202 266.022 310.558C273.565 302.44 282.656 295.401 291.177 288.329Q315.537 268.317 340.374 248.899C323.52 268.729 309.948 292.367 302.555 317.381C300.164 325.47 298.673 333.864 296.715 342.071C295.173 354.305 294.054 366.447 293.998 378.795C281.65 385.803 259.513 406.431 247.838 409.291C246.574 397.292 247.955 384.19 249.109 372.199Z"/>
    <path fill="#107379" d="M249.109 372.199C264.621 368.05 288.623 343.468 296.715 342.071C295.173 354.305 294.054 366.447 293.998 378.795C281.65 385.803 259.513 406.431 247.838 409.291C246.574 397.292 247.955 384.19 249.109 372.199Z"/>
    <path fill="#AE5538" d="M476.021 500.266C486.957 505.707 497.355 512.574 507.754 518.973C531.341 533.485 554.66 548.915 578.673 562.68C585.195 566.159 591.638 569.575 597.339 574.343C589.981 583.06 582.242 588.426 572.54 594.212L557.078 584.221Q517.255 557.634 476.491 532.513Q476.47 516.386 476.021 500.266Z"/>
    <path fill="#DE7043" d="M578.673 562.68C585.195 566.159 591.638 569.575 597.339 574.343C589.981 583.06 582.242 588.426 572.54 594.212L557.078 584.221C564.614 577.404 571.422 569.804 578.673 562.68Z"/>
    <path fill="#5CDABA" d="M305.281 443.84C311.919 464.895 320.4 484.09 331.718 503.056C324.954 505.741 317.965 511.915 311.998 516.088C304.109 521.605 295.954 526.666 288.599 532.915C276.852 513.395 267.565 494.03 259.877 472.592C269.959 468.951 283.42 458.115 292.5 451.686C296.575 448.801 300.565 445.605 305.281 443.84Z"/>
    <path fill="#168A91" d="M247.838 409.291C259.513 406.431 281.65 385.803 293.998 378.795C294.91 390.655 295.771 402.576 297.465 414.354C299.628 424.399 302.261 434.028 305.281 443.84C300.565 445.605 296.575 448.801 292.5 451.686C283.42 458.115 269.959 468.951 259.877 472.592Q255.678 458.14 252.102 443.521C251.713 438.658 250.682 433.693 250.012 428.85Q248.756 419.089 247.838 409.291Z"/>
    <path fill="#50CEBC" d="M252.102 443.521C267.992 435.104 281.796 423.053 297.465 414.354C299.628 424.399 302.261 434.028 305.281 443.84C300.565 445.605 296.575 448.801 292.5 451.686C283.42 458.115 269.959 468.951 259.877 472.592Q255.678 458.14 252.102 443.521Z"/>
    <path fill="#5CDABA" d="M471.84 391.768C471.346 396.699 470.221 404.923 472.992 409.223C467.613 415.274 449.745 424.214 442.139 429.118Q388.961 464.109 334.943 497.791L327.01 484.404C334.182 479.174 341.829 474.525 349.303 469.74L397.063 439.651L442.327 410.552C452.105 404.213 461.755 397.613 471.84 391.768Z"/>
    <path fill="#F7B345" d="M470.698 501.439L471.213 501.752C473.124 504.861 471.767 526.823 471.623 531.99C449.68 545.795 428.067 560.201 406.279 574.257C401.803 571.456 397.481 568.378 393.118 565.404Q387.923 561.836 383.285 557.568Q427.41 530.155 470.698 501.439Z"/>
    <path fill="#168A91" d="M471.84 391.768C473.835 391.187 474.577 391.288 476.419 392.26C487.707 398.216 498.607 405.916 509.535 412.592L549.613 436.991C554.456 439.918 564.663 444.765 568.189 448.565C575.041 452.479 582.162 456.203 588.389 461.086C585.355 465.189 584.234 470.181 583.107 475.078C578.807 472.619 574.675 469.842 570.509 467.162C557.849 461.064 477.447 409.143 472.992 409.223C470.221 404.923 471.346 396.699 471.84 391.768Z"/>
    <path fill="#50CEBC" d="M568.189 448.565C575.041 452.479 582.162 456.203 588.389 461.086C585.355 465.189 584.234 470.181 583.107 475.078C578.807 472.619 574.675 469.842 570.509 467.162C570.32 460.987 569.173 454.658 568.189 448.565Z"/>
    <path fill="#2CBED6" d="M588.389 461.086C602.927 469.999 620.312 478.717 633.521 489.098Q633.351 497.17 632.943 505.233C617.272 493.873 599.176 485.897 583.107 475.078C584.234 470.181 585.355 465.189 588.389 461.086Z"/>
    <path fill="#EF8C38" d="M342.325 499.406L343.29 500.046C343.678 501.715 343.941 503.334 343.945 505.054C343.949 506.534 343.829 507.725 342.766 508.785L341.785 508.284C340.35 506.329 339.082 504.232 337.765 502.196L342.325 499.406Z"/>
    <path fill="#D4D1D4" d="M173.287 611.789C184.353 603.365 196.098 595.881 207.539 587.984C221.349 578.453 234.977 568.409 249.606 560.15C262.354 577.815 275.304 595.319 290.008 611.431C296.367 618.399 303.596 624.472 309.983 631.349C318.161 638.947 327.226 645.69 336.262 652.223C372.69 678.564 413.257 697.654 458.054 703.882C511.558 711.32 565.457 698.633 608.609 665.954C618.536 677.794 631.318 688.096 639.902 700.944C629.946 708.638 618.856 715.08 608.239 721.814Q583.697 737.285 559.363 753.081C542.854 763.791 526.243 774.355 509.862 785.259C498.204 793.019 487.116 801.36 474.815 808.117C447.392 790.165 419.213 773.232 391.371 755.933L257.597 672.607L202.466 638.325C190.728 631.053 178.442 624.511 167.816 615.62L173.287 611.789Z"/>
    <path fill="#FDF8E8" d="M173.287 611.789C184.353 603.365 196.098 595.881 207.539 587.984C221.349 578.453 234.977 568.409 249.606 560.15C262.354 577.815 275.304 595.319 290.008 611.431C296.367 618.399 303.596 624.472 309.983 631.349C305.225 631.96 299.62 630.829 294.841 630.231C263.685 626.333 232.663 621.009 201.631 616.241C194.746 615.183 178.44 614.273 173.287 611.789Z"/>
    <path fill="#AE5538" d="M167.397 623.084C177.685 627.748 186.94 635.349 196.589 641.281L278.334 692.14L417.309 778.594Q431.284 787.554 445.409 796.274C454.128 801.58 463.673 806.631 471.579 813.118L471.478 838.801C470.579 856.429 471.075 874.101 471.361 891.74C459.387 886.386 448.711 878.127 437.675 871.12C422.048 861.198 406.122 851.732 390.393 841.969L244.472 751.524C218.665 735.492 193.43 718.558 167.022 703.512L167.033 646.894C166.933 639.052 166.456 630.886 167.397 623.084Z"/>
    <path fill="#EF8C38" d="M167.397 623.084C177.685 627.748 186.94 635.349 196.589 641.281L278.334 692.14L417.309 778.594Q431.284 787.554 445.409 796.274C454.128 801.58 463.673 806.631 471.579 813.118L471.478 838.801C468.14 837.049 465.035 834.653 461.883 832.577C456.678 829.15 451.351 825.804 445.957 822.682C400.602 796.439 356.424 767.758 312.052 739.871C285.183 722.985 258.386 705.879 231.247 689.435Q208.966 676.2 186.914 662.585C182.044 659.556 176.961 656.736 172.23 653.504C169.207 651.438 167.731 650.589 167.033 646.894C166.933 639.052 166.456 630.886 167.397 623.084Z"/>
    <path fill="#168A91" d="M689.995 666.829C702.231 660.242 712 658.808 725.676 660.82C733.495 666.83 740.425 674.984 747.383 682.014L787.007 722.041L850.114 785.694C862.174 797.915 874.837 809.674 885.719 822.992C883.485 824.341 881.272 825.728 878.946 826.915C869.291 833.032 859.267 839.714 851.64 848.31Q844.939 856.194 838.693 864.443C834.886 870.954 831.687 877.677 828.67 884.577C827.523 888.262 826.107 891.82 824.683 895.405C814.143 885.327 804.099 874.695 793.875 864.297L739.229 808.991Q714.533 783.802 689.421 759.029C680.691 750.382 671.367 742.05 662.963 733.114C660.529 730.525 658.423 728.02 656.907 724.766C657.152 719.407 658.082 714.122 659.052 708.856C661.293 702.23 663.344 695.746 666.857 689.658C669.965 683.673 674.429 679.061 679.23 674.405C682.474 671.375 686.148 669.01 689.995 666.829Z"/>
    <path fill="#5CDABA" d="M689.995 666.829C702.231 660.242 712 658.808 725.676 660.82C733.495 666.83 740.425 674.984 747.383 682.014L787.007 722.041L850.114 785.694C862.174 797.915 874.837 809.674 885.719 822.992C883.485 824.341 881.272 825.728 878.946 826.915C869.291 833.032 859.267 839.714 851.64 848.31C837.598 832.863 822.457 818.797 807.807 803.977L716.335 711.623C703.971 699.201 691.082 687.332 679.23 674.405C682.474 671.375 686.148 669.01 689.995 666.829Z"/>
    <path fill="#FDF8E8" d="M689.995 666.829C702.231 660.242 712 658.808 725.676 660.82C733.495 666.83 740.425 674.984 747.383 682.014L787.007 722.041L850.114 785.694C862.174 797.915 874.837 809.674 885.719 822.992C883.485 824.341 881.272 825.728 878.946 826.915C875.101 823.22 871.657 818.969 868.018 815.06C862.737 809.387 857.229 803.909 851.791 798.386L801.238 747.477C785.871 731.858 770.801 715.969 755.243 700.535C750.525 695.855 745.783 691.212 741.265 686.337C734.892 679.463 728.729 672.014 721.295 666.251C711.326 665.332 701.935 667.53 692.138 667.44C691.306 667.432 690.716 667.22 689.995 666.829Z"/>
    <path fill="#50CEBC" d="M666.857 689.658C669.965 683.673 674.429 679.061 679.23 674.405C691.082 687.332 703.971 699.201 716.335 711.623L807.807 803.977C822.457 818.797 837.598 832.863 851.64 848.31Q844.939 856.194 838.693 864.443C828.975 854.948 819.822 844.724 810.421 834.907Q786.6 810.189 762.341 785.901Q730.724 754.72 699.688 722.96C688.704 711.889 677.077 701.447 666.857 689.658Z"/>
    <path fill="#107379" d="M659.052 708.856C673.788 726.492 689.898 742.397 705.895 758.849Q740.947 795.067 776.64 830.654C793.972 847.927 811.934 864.998 827.714 883.723C828.161 884.254 828.009 884.074 828.67 884.577C827.523 888.262 826.107 891.82 824.683 895.405C814.143 885.327 804.099 874.695 793.875 864.297L739.229 808.991Q714.533 783.802 689.421 759.029C680.691 750.382 671.367 742.05 662.963 733.114C660.529 730.525 658.423 728.02 656.907 724.766C657.152 719.407 658.082 714.122 659.052 708.856Z"/>
    <path fill="#DE7043" d="M643.279 705.917L651.698 714.823L650.431 728.761C652.935 743.725 665.397 753.522 675.801 763.502C661.022 773.95 645.213 783.065 629.98 792.847L540.544 850.467Q524.036 861.003 507.706 871.811C498.205 878.204 488.311 886.192 477.698 890.52C475.458 874.401 476.797 855.268 477.368 838.865L477.299 813.617C496.306 802.136 514.749 789.38 533.389 777.274L643.279 705.917Z"/>
    <path fill="#EF8C38" d="M643.279 705.917L651.698 714.823L650.431 728.761C642.259 731.007 621.059 746.691 612.898 752.029L564.21 783.545C535.373 802.143 506.074 820.078 477.368 838.865L477.299 813.617C496.306 802.136 514.749 789.38 533.389 777.274L643.279 705.917Z"/>
    <path fill="#126866" d="M712.185 407.627L713.469 407.871C716.038 413.467 715.453 422.355 715.721 428.523C717.286 464.526 714.017 499.152 701.422 533.13C697.125 544.722 692.151 556.272 685.951 566.984C680.239 576.852 673.565 586.153 667.744 595.961C665.245 595.159 662.779 594.351 660.203 593.824C650.713 596.901 639.796 607.24 631.924 613.658C650.503 584.106 662.037 552.804 666.168 518.049Q667.729 505.026 667.925 491.911Q668.12 478.797 666.948 465.733C666.653 462.438 663.614 443.121 663.822 442.024C663.889 441.673 664.847 440.614 665.103 440.261C669.234 439.383 706.239 412.221 712.185 407.627Z"/>
    <path fill="#FDF8E8" d="M719.692 543.715C734.459 552.131 748.165 562.018 762.38 571.293C777.733 581.31 793.374 590.537 808.035 601.603C802.658 606.149 795.949 609.677 789.988 613.414L756.708 634.351L738.879 645.107C729.319 641.546 720.377 642.463 710.424 643.2C700.01 632.858 689.383 622.649 679.595 611.707Q682.81 607.932 685.859 604.021Q688.909 600.111 691.786 596.073Q694.664 592.034 697.365 587.876Q700.066 583.717 702.585 579.446Q705.104 575.174 707.436 570.798Q709.768 566.422 711.91 561.95Q714.051 557.477 715.998 552.916Q717.944 548.356 719.692 543.715Z"/>
    <path fill="#CAE3DB" d="M557.455 180.375C563.824 182.976 569.738 187.435 575.382 191.34C600.034 208.394 624.662 228.833 642.85 252.842C625.679 264.6 608.124 275.894 590.887 287.578C586.723 285.448 571.559 267.474 567.231 262.893C563.723 259.18 560.056 255.699 556.238 252.306C540.365 238.2 523.265 226.123 505.205 214.983C523.231 204.569 540.317 192.187 557.455 180.375Z"/>
    <path fill="#50CEBC" d="M685.278 317.273Q689.587 325.847 693.342 334.678Q697.097 343.509 700.284 352.561Q703.471 361.612 706.076 370.848Q708.681 380.083 710.694 389.466C711.845 394.593 713.72 400.731 713.033 405.981C712.569 406.539 712.221 406.968 711.628 407.395C704.98 410.621 698.831 415.233 692.733 419.374C683.029 425.965 673.274 432.701 663.397 439.012C655.268 407.713 647.903 384.33 634.123 354.937C638.561 351.629 642.713 348.006 647.263 344.831C660.198 335.804 673.406 327.755 685.278 317.273Z"/>
    <path fill="#5CDABA" d="M643.729 253.885C659.91 273.887 674.146 293.964 685.278 317.273C673.406 327.755 660.198 335.804 647.263 344.831C642.713 348.006 638.561 351.629 634.123 354.937C626.089 339.285 617.55 323.988 607.334 309.64C602.224 302.463 596.486 295.827 591.27 288.747C599.024 284.452 606.383 278.872 613.638 273.785C623.521 266.856 633.417 260.163 643.729 253.885Z"/>
    <path fill="#50CEBC" d="M477.803 149.481C505.846 155.976 531.416 165.413 556.469 179.675Q542.126 189.031 527.878 198.532C519.957 203.834 512.147 209.486 503.586 213.712C492.356 208.628 481.703 202.503 470.244 197.837C455.061 191.654 438.984 188.331 423.074 184.637C441.837 173.921 459.355 160.792 477.803 149.481Z"/>
    <path fill="#DE7043" d="M812.021 606.396L812.028 630.027C812.055 646.662 811.863 663.328 812.158 679.96C804.212 684.975 796.333 689.79 789.175 695.913Q772.901 680.303 756.987 664.327C752.089 659.716 747.358 654.9 742.563 650.181C750.373 644.69 758.79 639.773 766.856 634.639Q789.209 620.151 812.021 606.396Z"/>
    <path fill="#EF8C38" d="M812.021 606.396L812.028 630.027C805.294 632.427 794.833 640.371 788.405 644.484C777.962 651.166 767.347 657.506 756.987 664.327C752.089 659.716 747.358 654.9 742.563 650.181C750.373 644.69 758.79 639.773 766.856 634.639Q789.209 620.151 812.021 606.396Z"/>
    <path fill="#168A91" d="M440.059 146.739C451.93 146.398 463.409 147.305 475.111 149.288L420.542 184.607C415.118 183.737 409.571 183.246 404.092 182.902C392.033 181.829 379.9 183.195 367.886 184.269C378.741 178.402 388.973 171.206 399.177 164.291C407.491 158.657 416.625 151.451 426.228 148.34C430.831 146.849 435.266 146.82 440.059 146.739Z"/>
    <path fill="#5CDABA" d="M656.133 619.539C665.842 628.703 675.549 638.002 684.813 647.616C681.827 648.247 679.143 648.971 676.318 650.14C671.313 653.382 666.717 657.004 662.256 660.955C657.327 666.669 653.211 672.517 649.587 679.143C641.59 669.896 633.393 661.334 624.575 652.85C628.636 647.895 632.677 642.768 637.235 638.262Q644.432 631.644 651.383 624.767C652.96 623.021 654.514 621.246 656.133 619.539Z"/>
    <path fill="#50CEBC" d="M637.235 638.262C646.392 644.967 653.024 654.504 662.256 660.955C657.327 666.669 653.211 672.517 649.587 679.143C641.59 669.896 633.393 661.334 624.575 652.85C628.636 647.895 632.677 642.768 637.235 638.262Z"/>
    <path fill="#FDF8E8" d="M656.133 619.539C665.842 628.703 675.549 638.002 684.813 647.616C681.827 648.247 679.143 648.971 676.318 650.14C667.791 641.73 660.961 632.176 651.383 624.767C652.96 623.021 654.514 621.246 656.133 619.539Z"/>
    <path fill="#126866" d="M415.067 149.205C416.422 149.038 417.398 149.001 418.765 149.236C416.896 151.521 375.615 178.169 370.69 181.122C368.476 182.45 366.2 183.647 363.784 184.565C357.59 186.92 350.815 187.427 344.419 189.075C334.407 191.655 324.545 196.044 315.25 200.542C314.327 201.132 313.706 201.457 312.622 201.644C312.784 201.394 312.914 201.12 313.108 200.895C315.682 197.911 325.497 192.551 329.306 189.882C357.199 170.34 379.665 152.971 415.067 149.205Z"/>
    <path fill="#DE7043" d="M886.736 828.96C886.901 829.21 887.116 829.433 887.229 829.71C888.259 832.214 886.203 837.39 885.31 839.831C877.153 862.108 855.185 880.726 834.221 890.539L833.711 890.148C833.154 888.902 833.473 887.739 833.85 886.482C841.563 860.794 863.7 841.027 886.736 828.96Z"/>
    <path fill="#DE7043" d="M669.301 662.298C672.466 663.823 675.442 665.463 678.424 667.322C669.559 675.926 663.137 685.573 656.862 696.118L652.48 688.696C655.383 677.756 660.794 669.701 669.301 662.298Z"/>
    <path fill="#F7B345" d="M669.301 662.298C674.769 657.704 682.722 651.11 690.327 651.73C693.71 652.006 695.638 653.617 697.702 656.163L698.052 656.602C691.349 659.866 684.634 663.172 678.424 667.322C675.442 665.463 672.466 663.823 669.301 662.298Z"/>
  </g>
  <g transform="matrix(1, 0, 0, 1, -182.72447204589844, -290.8992004394532)">
    <path fill="#3C2E79" d="M745.853 837.494L746.238 837.822C753.319 843.951 759.692 851.264 766.245 857.961L800.073 892.454C806.27 898.85 812.5 907.748 820.428 912.103C824.134 914.139 829.764 914.536 833.927 914.23C853.783 912.769 871.695 897.62 885.189 884.077C892 890.634 900.325 896.237 905.57 904.237C910.059 911.083 910.654 917.98 908.981 925.82C902.104 933.692 877.712 945.64 867.908 951.466C858.558 957.022 838.681 971.531 828.767 973.543C823.518 974.608 818.939 974.432 814.022 972.294C807.593 969.498 801.69 965.082 795.793 961.309L766.199 942.319L664.734 877.215C678.567 870.807 692.714 865.046 706.4 858.329C716.686 853.28 726.62 847.426 736.684 841.944C739.799 840.579 743.058 839.469 745.853 837.494Z"/>
    <path fill="#48418F" d="M688.618 781.974C708.248 799.924 726.389 819.377 745.853 837.494C743.058 839.469 739.799 840.579 736.684 841.944C726.62 847.426 716.686 853.28 706.4 858.329C692.714 865.046 678.567 870.807 664.734 877.215C651.693 869.092 638.858 860.635 625.888 852.401C602.932 866.448 580.705 881.636 557.841 895.852C551.852 899.576 546.098 903.844 539.947 907.276C529.561 908.316 498.168 913.273 490.149 909.813L612.714 831.463C629.798 820.573 646.563 809.019 663.959 798.641C672.08 792.959 680.143 787.123 688.618 781.974Z"/>
    <path fill="#6F51AE" d="M688.618 781.974C708.248 799.924 726.389 819.377 745.853 837.494C743.058 839.469 739.799 840.579 736.684 841.944C712.576 827.255 688.547 812.522 663.959 798.641C672.08 792.959 680.143 787.123 688.618 781.974Z"/>
    <path fill="#48418F" d="M152.222 720.47C157.464 723.335 163.301 726.127 167.674 730.247C188.717 742.773 209.272 756.272 230.048 769.24L352.879 845.878Q381.475 864.026 410.412 881.623C424.39 890.087 439.283 898.186 452.412 907.86C442.107 913.209 384.242 889.758 369.014 887.224C365.708 886.094 362.222 883.689 358.934 882.218C350.904 879.384 343.028 875.49 335.316 871.892C297.079 854.048 242.53 822.864 214.119 791.097C212.489 789.468 210.461 788.169 208.599 786.813C199.201 781.678 190.202 775.459 181.054 769.869C173.017 764.958 139.267 745.874 134.486 740.248C133.436 739.013 132.879 737.464 133.104 735.838C133.906 730.037 147.128 724.331 151.668 720.894L152.222 720.47Z"/>
    <path fill="#3C2E79" d="M152.222 720.47C157.464 723.335 163.301 726.127 167.674 730.247C168.662 740.312 189.278 763.377 196.37 771.461C200.399 776.052 206.075 781.28 208.599 786.813C199.201 781.678 190.202 775.459 181.054 769.869C173.017 764.958 139.267 745.874 134.486 740.248C133.436 739.013 132.879 737.464 133.104 735.838C133.906 730.037 147.128 724.331 151.668 720.894L152.222 720.47Z"/>
    <path fill="#3C2E79" d="M369.014 887.224C384.242 889.758 442.107 913.209 452.412 907.86C459.601 912.51 467.315 918.239 476.404 916.347C481.366 915.315 485.889 912.444 490.149 909.813C498.168 913.273 529.561 908.316 539.947 907.276C528.923 914.881 517.245 921.709 505.926 928.887C494.183 936.333 482.343 944.6 469.876 950.753Q434.841 928.263 399.38 906.452C389.233 900.11 378.922 893.932 369.014 887.224Z"/>
  </g>
</svg>