<?xml version="1.0" encoding="utf-8" ?>
<svg xmlns="http://www.w3.org/2000/svg" xmlns:xlink="http://www.w3.org/1999/xlink" width="1024" height="1024">
	<path fill="#521C18" d="M135.676 274.916C137.386 271.448 139.493 268.241 141.579 264.992C141.388 266.888 141.331 268.497 141.597 270.387C139.922 271.897 138.969 273.648 137.847 275.571C137.182 275.273 136.381 275.119 135.676 274.916Z"/>
	<path fill="#814E2C" d="M231.334 814.141C249.452 823.481 254.479 826.16 264.632 844.158C266.917 848.209 269.217 853.141 272.608 856.39C272.694 856.5 272.78 856.61 272.865 856.721C274.917 859.443 275.776 863.122 279.07 864.613C277.211 866.744 275.516 869.069 273.773 871.299C267.056 863.341 258.985 856.855 251.348 849.83C241.446 840.722 231.973 831.326 221.452 822.908C224.294 820.949 227.611 819.028 230.126 816.669C231.207 815.656 231.278 815.553 231.334 814.141Z"/>
	<path fill="#814E2C" d="M111.218 442.258C112.517 452.565 110.901 462.888 111.633 473.189C112.713 488.408 116.216 499.325 118.861 513.821C112.952 524.216 108.263 536.134 103.521 547.146C100.891 553.251 98.622 560.053 94.5394 565.363C93.4687 553.923 92.0399 542.545 91.7926 531.045C91.144 500.888 97.8087 469.329 111.218 442.258Z"/>
	<path fill="#FEFEFE" d="M762.661 214.549L766.276 222.1Q768.533 225.518 770.723 228.979C776.488 235.66 782.551 239.988 790.176 244.392C792.867 245.946 795.972 247.386 798.385 249.317C798.087 250.491 797.788 250.485 796.891 251.233C792.685 253.648 788.445 256.427 784 258.356C775.741 260.686 770.085 270.477 766.141 277.501C764.926 276.268 764.086 274.563 763.117 273.124C761.475 272.591 760.743 273.091 759.121 273.593C749.026 260.526 740.415 258.1 726.337 251.061L725.83 250.963C726.781 248.942 729.686 247.645 731.53 246.526C746.289 240.216 756.296 228.952 762.661 214.549Z"/>
	<path fill="#F8EFD6" d="M766.276 222.1Q768.533 225.518 770.723 228.979C770.575 229.221 770.399 229.449 770.277 229.706C769.145 232.098 770.942 235.127 771.931 237.292L766.227 241.691C765.279 234.933 764.1 228.799 766.276 222.1Z"/>
	<path fill="#F2CD75" d="M763.634 263.961C768.692 256.41 774.712 250.386 783.979 248.606C788.698 247.7 792.964 248.477 796.891 251.233C792.685 253.648 788.445 256.427 784 258.356C775.741 260.686 770.085 270.477 766.141 277.501C764.926 276.268 764.086 274.563 763.117 273.124C761.475 272.591 760.743 273.091 759.121 273.593C749.026 260.526 740.415 258.1 726.337 251.061C734.338 248.513 742.202 248.693 749.729 252.544C755.2 255.343 759.486 259.507 763.634 263.961Z"/>
	<path fill="#814E2C" d="M842.383 696.405C847.895 690.036 860.664 656.642 865.085 646.908L926.064 516.002Q935.092 496.745 943.908 477.39C947.58 469.293 950.937 460.545 955.518 452.926C955.469 458.651 955.508 464.302 953.649 469.798C950.681 478.571 946.034 486.988 942.202 495.419L922.338 540.022Q887.305 621.234 849.876 701.371C847.069 700.071 844.774 698.327 842.383 696.405Z"/>
	<path fill="#814E2C" d="M309.472 831.862L310.143 831.185C314.69 836.183 319.991 840.509 325.048 844.978L347.414 864.749C369.659 884.452 391.667 904.513 414.201 923.879C437.466 915.027 461.781 908.707 485.54 901.314L615.375 860.871L651.99 849.723C660.535 847.185 669.292 845.004 677.569 841.672L678.059 841.567C681.776 845.182 692.801 854.351 694.529 858.382C681.461 863.337 667.718 867.024 654.33 871.036Q622.41 880.495 590.616 890.371Q527.33 910.471 463.802 929.796C446.404 935.163 429.099 940.978 411.597 945.985C403.955 939.459 396.632 932.452 389.119 925.763L343.472 885.859C328.35 872.58 313.458 859.118 297.644 846.655C298.057 844.378 307.466 834.558 309.472 831.862Z"/>
	<path fill="#814E2C" d="M697.193 860.573C719.869 852.777 743.374 847.245 765.982 839.317L794.445 866.155C807.781 878.749 821.036 893.272 837.809 901.254C845.261 904.801 852.875 906.269 861.11 906.077C881.198 905.608 897.059 896.054 911.432 882.755C919.072 889.585 927.168 895.748 935.371 901.881C928.706 924.885 918.967 946.528 900.375 962.446C881.833 978.321 863.42 982.625 839.543 980.829C835.543 977.87 831.823 973.855 828.09 970.521Q817.018 960.591 805.551 951.118Q751.077 906.198 697.193 860.573Z"/>
	<path fill="#F2CD75" d="M457.435 132.738C470.261 128.071 483.463 125.174 496.569 121.455C523.661 113.768 550.943 106.06 577.728 97.3778C586.325 105.353 594.58 113.717 603.025 121.855L661.082 177.524L708.306 222.006C715.851 229.251 726.314 237.448 731.53 246.526C729.686 247.645 726.781 248.942 725.83 250.963L726.337 251.061C740.415 258.1 749.026 260.526 759.121 273.593C760.743 273.091 761.475 272.591 763.117 273.124C764.086 274.563 764.926 276.268 766.141 277.501C770.085 270.477 775.741 260.686 784 258.356L784.094 259.331C787.473 261.775 791.486 263.753 795.225 265.608C790.085 270.114 784.43 274.649 778.127 277.43Q823.174 321.583 869.79 364.076C879.331 372.85 889.1 381.375 898.581 390.215Q915.58 406.301 932.396 422.579C940.836 430.696 949.131 439.238 958.745 445.981Q957.079 449.429 955.518 452.926C950.937 460.545 947.58 469.293 943.908 477.39Q935.092 496.745 926.064 516.002L865.085 646.908C860.664 656.642 847.895 690.036 842.383 696.405L727.711 623.326Q729.1 619.033 729.883 614.59Q730.666 610.146 730.827 605.637C731.167 593.121 726.622 582.976 718.007 574.039C699.577 554.922 688.041 549.985 661.808 549.482C666.457 538.85 671.816 528.694 675.703 517.722Q678.656 509.479 680.701 500.965Q682.745 492.451 683.858 483.766C686.276 464.963 685.66 445.815 685.843 426.895C686.102 400.147 687.582 372.8 682.931 346.337Q681.564 338.779 679.684 331.332Q677.804 323.886 675.42 316.585Q673.035 309.284 670.158 302.163Q667.28 295.042 663.923 288.134C633.105 223.88 575.516 174.536 509.671 148.679Q494.642 142.778 479.082 138.466C472.295 136.652 464.861 135.452 458.292 133.058L457.435 132.738Z"/>
	<path fill="#814E2C" d="M735.925 256.181C733.191 255.337 730.356 254.449 727.797 253.153C726.537 252.516 725.324 252.137 724.851 250.778L725.83 250.963L726.337 251.061C740.415 258.1 749.026 260.526 759.121 273.593C760.743 273.091 761.475 272.591 763.117 273.124C764.086 274.563 764.926 276.268 766.141 277.501C770.085 270.477 775.741 260.686 784 258.356L784.094 259.331C787.473 261.775 791.486 263.753 795.225 265.608C790.085 270.114 784.43 274.649 778.127 277.43C777.831 277.552 777.532 277.668 777.239 277.796C769.895 280.993 766.156 289.957 763.377 296.879C751.326 274.459 741.508 276.633 722.287 264.77C722.129 264.673 721.974 264.572 721.817 264.473C726.679 261.938 731.512 259.46 735.925 256.181Z"/>
	<path fill="#F8EFD6" d="M759.121 273.593C760.743 273.091 761.475 272.591 763.117 273.124C764.086 274.563 764.926 276.268 766.141 277.501L763.513 283.732Q761.448 278.606 759.121 273.593Z"/>
	<path fill="#F2CD75" d="M94.5394 565.363C98.622 560.053 100.891 553.251 103.521 547.146C108.263 536.134 112.952 524.216 118.861 513.821C142.153 581.461 186.224 635.232 250.92 666.844Q254.506 668.641 258.137 670.348Q261.767 672.055 265.438 673.672Q269.109 675.288 272.82 676.812Q276.531 678.337 280.278 679.769Q284.025 681.2 287.807 682.538Q291.589 683.876 295.403 685.12Q299.217 686.363 303.06 687.511Q306.904 688.659 310.775 689.711Q314.646 690.763 318.542 691.719Q322.438 692.674 326.357 693.532Q330.275 694.391 334.214 695.151Q338.153 695.911 342.109 696.574Q346.066 697.236 350.037 697.799Q354.009 698.363 357.994 698.827Q361.978 699.292 365.973 699.657Q369.968 700.022 373.97 700.288Q377.973 700.553 381.981 700.719Q385.989 700.885 390 700.951Q394.011 701.017 398.022 700.984Q402.034 700.95 406.043 700.817Q410.052 700.683 414.057 700.45Q418.062 700.216 422.059 699.884Q426.057 699.551 430.045 699.119Q434.033 698.686 438.009 698.155Q441.985 697.624 445.947 696.994Q449.909 696.364 453.853 695.635Q457.798 694.906 461.724 694.08Q465.649 693.254 469.553 692.33Q473.456 691.406 477.336 690.385Q481.215 689.364 485.068 688.247Q488.921 687.13 492.745 685.918Q496.568 684.705 500.361 683.398Q510.996 679.763 521.084 674.806C526.702 672.021 532.238 668.804 537.986 666.317C548.246 671.007 560.305 677.683 565.824 688.005C568.128 692.315 569.698 696.724 573.115 700.333C576.994 704.43 582.116 707.383 586.83 710.409C602.408 720.409 614.979 725.423 633.187 718.738Q640.39 716.013 647.164 712.351C655.578 721.14 663.113 731.351 671.406 740.454Q695.682 767.537 720.535 794.091C729.012 803.079 737.859 811.712 746.381 820.655L705.721 832.908C696.606 835.571 686.678 837.574 678.059 841.567L677.569 841.672C669.292 845.004 660.535 847.185 651.99 849.723L615.375 860.871L485.54 901.314C461.781 908.707 437.466 915.027 414.201 923.879C391.667 904.513 369.659 884.452 347.414 864.749L325.048 844.978C319.991 840.509 314.69 836.183 310.143 831.185L309.472 831.862C307.466 834.558 298.057 844.378 297.644 846.655C291.494 852.66 285.052 858.451 279.07 864.613C275.776 863.122 274.917 859.443 272.865 856.721C272.78 856.61 272.694 856.5 272.608 856.39C269.217 853.141 266.917 848.209 264.632 844.158C254.479 826.16 249.452 823.481 231.334 814.141C230.041 813.075 228.957 811.65 227.853 810.385C232.082 806.257 236.801 802.78 241.751 799.571Q182.025 747.695 123.493 694.477L90.0901 664.548C82.8023 658.06 75.2354 651.726 68.4359 644.727C68.4502 636.677 68.3709 628.612 68.6539 620.567C70.6445 616.745 72.1473 612.488 74.0311 608.566L94.2497 566.005L94.5394 565.363Z"/>
	<path fill="#814E2C" d="M316.552 813.894L321.986 818.633L310.143 831.185L309.472 831.862C306.217 829.338 303.601 825.761 300.988 822.592C306.026 821.3 312.075 816.632 316.552 813.894Z"/>
	<path fill="#F8EFD6" d="M271.652 761.966C276.992 771.11 282.201 782.186 290.081 789.349C294.752 793.594 300.664 795.89 306.117 798.91C311.928 802.128 316.833 806.311 321.353 811.142C319.782 811.841 318.241 812.596 316.57 813.022L316.552 813.894C312.075 816.632 306.026 821.3 300.988 822.592C303.601 825.761 306.217 829.338 309.472 831.862C307.466 834.558 298.057 844.378 297.644 846.655C291.494 852.66 285.052 858.451 279.07 864.613C275.776 863.122 274.917 859.443 272.865 856.721C272.78 856.61 272.694 856.5 272.608 856.39C269.217 853.141 266.917 848.209 264.632 844.158C254.479 826.16 249.452 823.481 231.334 814.141C230.041 813.075 228.957 811.65 227.853 810.385C232.082 806.257 236.801 802.78 241.751 799.571C247.616 796.794 253.078 793.965 256.641 788.321C262.202 779.771 266.682 770.839 271.652 761.966Z"/>
	<path fill="#DBD2BE" d="M273.45 812.969C287.805 813.065 302.229 812.612 316.57 813.022L316.552 813.894C312.075 816.632 306.026 821.3 300.988 822.592C303.601 825.761 306.217 829.338 309.472 831.862C307.466 834.558 298.057 844.378 297.644 846.655C291.494 852.66 285.052 858.451 279.07 864.613C275.776 863.122 274.917 859.443 272.865 856.721C272.78 856.61 272.694 856.5 272.608 856.39L276.86 852.067C276.092 851.014 275.687 850.048 275.469 848.751C274.618 843.706 274.875 838.36 274.606 833.254C274.25 826.485 273.586 819.751 273.45 812.969Z"/>
	<path fill="#6C3A25" d="M300.988 822.592C303.601 825.761 306.217 829.338 309.472 831.862C307.466 834.558 298.057 844.378 297.644 846.655C291.494 852.66 285.052 858.451 279.07 864.613C275.776 863.122 274.917 859.443 272.865 856.721C272.78 856.61 272.694 856.5 272.608 856.39L276.86 852.067C287.16 840.888 285.311 830.583 300.988 822.592Z"/>
	<path fill="#814E2C" d="M68.4359 644.727C68.4502 636.677 68.3709 628.612 68.6539 620.567L191.127 730.201L229.627 764.185C238.7 772.106 248.106 779.816 256.641 788.321C253.078 793.965 247.616 796.794 241.751 799.571Q182.025 747.695 123.493 694.477L90.0901 664.548C82.8023 658.06 75.2354 651.726 68.4359 644.727Z"/>
	<path fill="#9B7D63" d="M94.5394 565.363C98.622 560.053 100.891 553.251 103.521 547.146C108.263 536.134 112.952 524.216 118.861 513.821C142.153 581.461 186.224 635.232 250.92 666.844Q254.506 668.641 258.137 670.348Q261.767 672.055 265.438 673.672Q269.109 675.288 272.82 676.812Q276.531 678.337 280.278 679.769Q284.025 681.2 287.807 682.538Q291.589 683.876 295.403 685.12Q299.217 686.363 303.06 687.511Q306.904 688.659 310.775 689.711Q314.646 690.763 318.542 691.719Q322.438 692.674 326.357 693.532Q330.275 694.391 334.214 695.151Q338.153 695.911 342.109 696.574Q346.066 697.236 350.037 697.799Q354.009 698.363 357.994 698.827Q361.978 699.292 365.973 699.657Q369.968 700.022 373.97 700.288Q377.973 700.553 381.981 700.719Q385.989 700.885 390 700.951Q394.011 701.017 398.022 700.984Q402.034 700.95 406.043 700.817Q410.052 700.683 414.057 700.45Q418.062 700.216 422.059 699.884Q426.057 699.551 430.045 699.119Q434.033 698.686 438.009 698.155Q441.985 697.624 445.947 696.994Q449.909 696.364 453.853 695.635Q457.798 694.906 461.724 694.08Q465.649 693.254 469.553 692.33Q473.456 691.406 477.336 690.385Q481.215 689.364 485.068 688.247Q488.921 687.13 492.745 685.918Q496.568 684.705 500.361 683.398Q510.996 679.763 521.084 674.806C526.702 672.021 532.238 668.804 537.986 666.317C548.246 671.007 560.305 677.683 565.824 688.005C568.128 692.315 569.698 696.724 573.115 700.333C576.994 704.43 582.116 707.383 586.83 710.409C602.408 720.409 614.979 725.423 633.187 718.738Q640.39 716.013 647.164 712.351C655.578 721.14 663.113 731.351 671.406 740.454Q695.682 767.537 720.535 794.091C729.012 803.079 737.859 811.712 746.381 820.655L705.721 832.908C696.606 835.571 686.678 837.574 678.059 841.567L677.569 841.672C666.592 830.843 654.243 820.797 642.493 810.791C633.737 803.334 624.967 794.912 615.163 788.872C609.703 790.192 604.37 792.488 599.106 794.442C590.211 789.352 582.652 782.153 574.817 775.616Q560.729 763.92 546.523 752.368C539.447 746.593 532.469 740.614 524.912 735.47C514.008 740.471 503.534 746.272 492.439 750.877Q489.652 752.041 486.842 753.15Q484.033 754.259 481.202 755.313Q478.372 756.367 475.521 757.365Q472.67 758.363 469.8 759.305Q466.931 760.247 464.043 761.133Q461.155 762.018 458.251 762.847Q455.346 763.676 452.426 764.448Q449.506 765.22 446.571 765.934Q443.637 766.649 440.688 767.305Q437.74 767.962 434.78 768.561Q431.819 769.16 428.848 769.7Q425.876 770.241 422.894 770.723Q419.913 771.206 416.922 771.63Q413.931 772.053 410.933 772.419Q407.935 772.784 404.93 773.09Q401.925 773.396 398.915 773.644Q395.905 773.891 392.89 774.079Q389.876 774.268 386.858 774.397Q383.84 774.526 380.821 774.596Q377.801 774.666 374.781 774.677Q371.76 774.688 368.74 774.639Q365.72 774.591 362.701 774.483Q359.683 774.376 356.667 774.209Q353.651 774.043 350.639 773.817Q347.627 773.591 344.62 773.306Q341.613 773.021 338.613 772.678Q335.612 772.334 332.618 771.932Q329.625 771.529 326.64 771.068Q323.655 770.608 320.679 770.088Q317.704 769.569 314.739 768.991Q311.774 768.414 308.822 767.778Q305.869 767.142 302.929 766.449C288.442 763.068 274.052 758.918 260.3 753.209C197.16 726.998 138.746 676.998 110.028 614.197C105.864 605.09 102.14 595.534 99.5406 585.855C97.9149 579.803 97.0919 572.481 94.6181 566.817C94.499 566.545 94.3725 566.276 94.2497 566.005L94.5394 565.363Z"/>
	<path fill="#F2CD75" d="M141.579 264.992C155.738 238.967 177.131 216.741 199.677 197.807Q202.247 195.646 204.865 193.543Q207.483 191.44 210.147 189.396Q212.811 187.352 215.52 185.368Q218.228 183.383 220.981 181.459Q223.733 179.536 226.527 177.674Q229.322 175.812 232.157 174.012Q234.992 172.213 237.866 170.477Q240.74 168.741 243.653 167.069Q246.565 165.398 249.514 163.791Q252.462 162.185 255.446 160.644Q258.43 159.104 261.447 157.63Q264.464 156.156 267.513 154.75Q270.563 153.344 273.642 152.006Q276.722 150.668 279.831 149.399Q282.94 148.129 286.076 146.929Q289.212 145.73 292.374 144.6Q295.536 143.47 298.723 142.411Q301.909 141.352 305.119 140.364Q308.328 139.376 311.558 138.459Q314.789 137.543 318.039 136.699Q321.289 135.854 324.557 135.082Q327.825 134.311 331.109 133.612Q334.393 132.913 337.692 132.287Q340.991 131.661 344.304 131.109Q347.616 130.557 350.939 130.078Q354.263 129.6 357.596 129.195Q360.93 128.791 364.272 128.461Q367.613 128.131 370.961 127.875Q374.31 127.619 377.662 127.438Q381.016 127.257 384.372 127.15Q387.728 127.043 391.086 127.011Q394.443 126.979 397.801 127.022C407.655 127.173 417.626 127.559 427.419 128.729C437.429 129.926 447.395 131.868 457.435 132.738L458.292 133.058C464.861 135.452 472.295 136.652 479.082 138.466Q494.642 142.778 509.671 148.679C575.516 174.536 633.105 223.88 663.923 288.134Q667.28 295.042 670.158 302.163Q673.035 309.284 675.42 316.585Q677.804 323.886 679.684 331.332Q681.564 338.779 682.931 346.337C687.582 372.8 686.102 400.147 685.843 426.895C685.66 445.815 686.276 464.963 683.858 483.766Q682.745 492.451 680.701 500.965Q678.656 509.479 675.703 517.722C671.816 528.694 666.457 538.85 661.808 549.482C688.041 549.985 699.577 554.922 718.007 574.039C726.622 582.976 731.167 593.121 730.827 605.637Q730.666 610.146 729.883 614.59Q729.1 619.033 727.711 623.326L842.383 696.405C844.774 698.327 847.069 700.071 849.876 701.371C855.141 703.958 860.196 707.554 865.188 710.656L892.803 727.705L926.908 748.477C933.572 752.589 940.709 756.474 946.684 761.556C950.987 765.215 954.193 769.387 956.053 774.773C963.063 795.074 953.682 821.996 944.587 840.288C936.185 857.188 924.939 869.897 911.432 882.755C897.059 896.054 881.198 905.608 861.11 906.077C852.875 906.269 845.261 904.801 837.809 901.254C821.036 893.272 807.781 878.749 794.445 866.155L765.982 839.317C743.374 847.245 719.869 852.777 697.193 860.573L694.858 858.449L694.529 858.382C692.801 854.351 681.776 845.182 678.059 841.567C686.678 837.574 696.606 835.571 705.721 832.908L746.381 820.655C737.859 811.712 729.012 803.079 720.535 794.091Q695.682 767.537 671.406 740.454C663.113 731.351 655.578 721.14 647.164 712.351Q640.39 716.013 633.187 718.738C614.979 725.423 602.408 720.409 586.83 710.409C582.116 707.383 576.994 704.43 573.115 700.333C569.698 696.724 568.128 692.315 565.824 688.005C560.305 677.683 548.246 671.007 537.986 666.317C532.238 668.804 526.702 672.021 521.084 674.806Q510.996 679.763 500.361 683.398Q496.568 684.705 492.745 685.918Q488.921 687.13 485.068 688.247Q481.215 689.364 477.336 690.385Q473.456 691.406 469.553 692.33Q465.649 693.254 461.724 694.08Q457.798 694.906 453.853 695.635Q449.909 696.364 445.947 696.994Q441.985 697.624 438.009 698.155Q434.033 698.686 430.045 699.119Q426.057 699.551 422.059 699.884Q418.062 700.216 414.057 700.45Q410.052 700.683 406.043 700.817Q402.034 700.95 398.022 700.984Q394.011 701.017 390 700.951Q385.989 700.885 381.981 700.719Q377.973 700.553 373.97 700.288Q369.968 700.022 365.973 699.657Q361.978 699.292 357.994 698.827Q354.009 698.363 350.037 697.799Q346.066 697.236 342.109 696.574Q338.153 695.911 334.214 695.151Q330.275 694.391 326.357 693.532Q322.438 692.674 318.542 691.719Q314.646 690.763 310.775 689.711Q306.904 688.659 303.06 687.511Q299.217 686.363 295.403 685.12Q291.589 683.876 287.807 682.538Q284.025 681.2 280.278 679.769Q276.531 678.337 272.82 676.812Q269.109 675.288 265.438 673.672Q261.767 672.055 258.137 670.348Q254.506 668.641 250.92 666.844C186.224 635.232 142.153 581.461 118.861 513.821C116.216 499.325 112.713 488.408 111.633 473.189C110.901 462.888 112.517 452.565 111.218 442.258C110.16 435.806 111.098 420.323 110.899 412.625C109.57 361.068 111.965 321.565 135.676 274.916C136.381 275.119 137.182 275.273 137.847 275.571C138.969 273.648 139.922 271.897 141.597 270.387C141.331 268.497 141.388 266.888 141.579 264.992Z"/>
	<path fill="#6C3A25" d="M365.161 560.183C370.062 560.689 375.001 561.09 379.882 561.76L378.679 563.718Q371.162 563.042 363.663 562.198C364.358 561.727 364.723 560.887 365.161 560.183Z"/>
	<path fill="#FCCD1B" d="M491.156 171.842C493.747 172.09 495.997 173.905 498.093 175.313C493.966 177.963 490.507 180.692 487.049 184.193C486.766 184.73 486.242 185.182 485.83 185.628C485.799 185.367 485.732 185.108 485.739 184.846C485.82 181.708 488.829 177.179 491.423 175.486C492.261 174.939 492.358 174.93 492.933 174.032L491.156 171.842Z"/>
	<path fill="#FCCD1B" d="M490.616 206.754C490.746 206.83 490.879 206.903 491.007 206.983C498.734 211.805 495.286 216.477 506.838 214.311C505.509 215.547 504.101 217.017 502.421 217.761C500.77 218.492 498.856 218.621 497.208 217.813C493.189 215.842 491.874 210.658 490.616 206.754Z"/>
	<path fill="#FFFE77" d="M507.917 179.133C506.418 179.142 505.121 179.032 503.688 178.553C501.733 177.9 500.472 177.237 499.483 175.335C499.282 173.89 499.457 173.175 500.004 171.875C500.281 171.216 500.067 171.512 500.954 171.156C503.1 172.731 504.882 174.034 507.482 174.765C507.668 174.817 507.855 174.861 508.042 174.91C509.199 175.801 511.275 176.961 511.653 178.326C510.419 179.088 509.316 179.066 507.917 179.133Z"/>
	<path fill="#521C18" d="M343.862 556.184L365.161 560.183C364.723 560.887 364.358 561.727 363.663 562.198Q358.385 561.771 353.173 560.839Q347.961 559.906 342.863 558.477C343.067 557.652 343.484 556.946 343.862 556.184Z"/>
	<path fill="#814E2C" d="M379.882 561.76C388.898 562.52 397.822 561.999 406.791 562.528C407.45 563.829 407.527 563.716 408.914 564.237C402.158 566.176 386.255 564.45 378.679 563.718L379.882 561.76Z"/>
	<path fill="#FFFE77" d="M265.234 210.212Q265.983 210.19 266.732 210.15C271.31 209.893 273.113 208.312 276.044 205.051L278.441 207.714C275.999 211.247 272.46 214.005 268.154 214.827C266.069 215.225 262.958 215.397 261.021 214.405C262.733 213.575 265.545 212.653 266.334 210.887L265.234 210.212Z"/>
	<path fill="#FCCD1B" d="M519.553 184.038Q521.899 185.468 524.183 186.997C525.867 192.72 528.07 198.502 524.856 204.145C523.626 206.304 521.604 208.195 519.88 209.969L516.483 208.252C517.263 206.643 518.074 205.353 519.232 203.989C521.442 202.09 522.145 200.255 523.103 197.516C522.169 192.997 520.704 188.516 519.553 184.038Z"/>
	<path fill="#FEFD2F" d="M167.547 277.989C170.433 284.217 172.353 290.391 170.009 297.221C169.434 298.898 168.623 300.545 167.738 302.081C164.37 302.769 161.145 303.14 157.713 303.335C156.205 301.493 154.943 300.326 155.269 297.809C155.411 296.71 155.819 295.556 156.137 294.495C157.539 295.87 159.26 297.328 161.264 297.635C163.041 297.908 164.914 297.443 166.278 296.253C167.994 294.757 168.818 292.525 168.853 290.281C168.901 287.101 167.419 285.27 165.347 283.035L167.547 277.989Z"/>
	<path fill="#FEFEFE" d="M156.137 294.495C154.888 291.859 153.992 290.104 154.849 287.179C155.383 285.357 156.13 284.09 157.92 283.248C160.09 282.228 163.115 282.337 165.347 283.035C167.419 285.27 168.901 287.101 168.853 290.281C168.818 292.525 167.994 294.757 166.278 296.253C164.914 297.443 163.041 297.908 161.264 297.635C159.26 297.328 157.539 295.87 156.137 294.495Z"/>
	<path fill="#FFFE77" d="M392.426 577.535C392.619 577.523 392.811 577.509 393.004 577.499C396.024 577.339 399.088 577.774 401.344 579.991C404.379 582.971 404.239 587.634 404.395 591.568L404.068 590.482C403.77 592.667 404.302 593.456 405.117 595.468L401.726 599.434C400.579 599.801 399.41 599.959 398.224 600.147C395.185 600.629 390.939 601.734 388.358 599.384C385.134 596.447 386.158 587.95 385.893 583.793C387.761 580.813 389.266 579.142 392.426 577.535Z"/>
	<path fill="#FEFEFE" d="M392.126 580.465C393.33 580.482 394.41 580.64 395.55 581.023C397.985 581.841 400.316 583.868 401.405 586.202C402.21 587.924 402.404 589.913 401.72 591.709C400.79 594.146 398.808 595.203 396.552 596.211C395.444 596.385 394.264 596.61 393.141 596.502C391.085 596.305 389.031 595.193 387.835 593.501C386.52 591.643 386.276 589.202 386.745 587.019C387.442 583.771 389.403 582.113 392.126 580.465Z"/>
	<path fill="#FEFD2F" d="M254.36 191.251C257.146 188.43 261.167 187.088 264.776 185.641C274.015 189.604 279.312 192.654 286.105 200.422C284.191 201.371 282.185 202.592 280.185 203.308L278.441 207.714L276.044 205.051C273.113 208.312 271.31 209.893 266.732 210.15Q265.983 210.19 265.234 210.212L266.334 210.887C265.545 212.653 262.733 213.575 261.021 214.405L259.545 213.98L257.735 215.26C257.123 214.276 256.503 213.283 255.985 212.245C253.217 206.696 253.801 199.779 255.869 194.114C258.06 192.153 260.216 190.136 262.84 188.757C263.016 188.664 263.199 188.586 263.378 188.5L262.982 188.126C259.991 188.743 257.251 190.264 254.36 191.251Z"/>
	<path fill="#FEFEFE" d="M265.234 210.212C263.551 209.033 262.228 207.572 261.794 205.495C261.461 203.904 261.847 202.401 262.732 201.054C263.818 199.401 265.792 198.216 267.707 197.835C269.53 197.471 271.442 197.764 272.939 198.91C274.951 200.45 275.736 202.625 276.044 205.051C273.113 208.312 271.31 209.893 266.732 210.15Q265.983 210.19 265.234 210.212Z"/>
	<path fill="#FCCD1B" d="M254.36 191.251C257.146 188.43 261.167 187.088 264.776 185.641C274.015 189.604 279.312 192.654 286.105 200.422C284.191 201.371 282.185 202.592 280.185 203.308C280.375 200.543 279.523 198.994 277.758 196.894C275.531 194.245 271.847 192.81 268.429 192.691C265.351 192.583 262.488 193.965 260.338 196.111C257.903 198.541 256.319 201.884 256.499 205.367C256.665 208.562 257.715 211.384 259.545 213.98L257.735 215.26C257.123 214.276 256.503 213.283 255.985 212.245C253.217 206.696 253.801 199.779 255.869 194.114C258.06 192.153 260.216 190.136 262.84 188.757C263.016 188.664 263.199 188.586 263.378 188.5L262.982 188.126C259.991 188.743 257.251 190.264 254.36 191.251Z"/>
	<path fill="#814E2C" d="M141.597 270.387C144.637 268.664 147.67 266.842 150.785 265.263C153.904 263.682 158.022 263.708 161.283 264.839C162.489 265.258 163.526 265.522 164.795 265.672C164.938 265.689 165.08 265.702 165.223 265.717Q162.835 269.9 160.317 274.005C158.005 277.711 156.266 280.579 152.534 283.031C150.23 288.762 149.409 295.157 146.698 300.667C145.211 304.241 143.456 307.88 142.395 311.599C140.964 309.115 142.551 307.388 140.932 305.28L140.082 305.199L138.711 306.822C137.112 305.796 136.061 303.312 135.436 301.567C132.134 292.349 133.582 284.179 137.847 275.571C138.969 273.648 139.922 271.897 141.597 270.387Z"/>
	<path fill="#9B7D63" d="M146.698 300.667C146.535 300.485 146.369 300.306 146.21 300.121C143.086 296.492 141.614 291.219 142.176 286.491C142.673 282.306 144.581 278.324 148.086 275.853C152.017 273.083 155.822 273.26 160.317 274.005C158.005 277.711 156.266 280.579 152.534 283.031C150.23 288.762 149.409 295.157 146.698 300.667Z"/>
	<path fill="#FEFD2F" d="M508.042 174.91C509.878 175.236 511.892 175.416 513.556 176.287C514.39 178.454 512.645 180.8 513.541 182.986C514.287 184.806 515.868 186.372 517.161 187.822C521.26 192.417 520.976 198.352 519.232 203.989C518.074 205.353 517.263 206.643 516.483 208.252C514.667 210.754 512.921 213.13 510.191 214.682C508.962 214.739 508.027 214.57 506.838 214.311C495.286 216.477 498.734 211.805 491.007 206.983C490.879 206.903 490.746 206.83 490.616 206.754L485.565 204.2L480.923 202.236L483.079 201.919C484.058 200.225 481.925 197.143 481.902 195.063C481.884 193.485 482.595 191.301 483.657 190.167C484.268 192.006 485.099 193.921 485.081 195.879C484.849 195.809 484.608 195.764 484.385 195.671C484.085 195.546 483.807 195.375 483.519 195.227C483.118 196.421 483.387 197.702 483.885 198.842C484.421 200.07 484.896 200.466 486.11 200.929C487.178 200.34 487.323 200.38 487.767 199.266C487.156 198.608 486.756 198.105 486.396 197.28C489.582 196.372 490.498 192.339 492.447 189.845C494.98 186.604 498.334 186.234 502.142 185.831C500.872 184.236 498.963 182.364 498.589 180.336L499.076 179.654C501.719 178.922 504.729 179.982 507.5 179.772L507.917 179.133C509.316 179.066 510.419 179.088 511.653 178.326C511.275 176.961 509.199 175.801 508.042 174.91Z"/>
	<path fill="#FEFEFE" d="M497.501 188.075C499.266 188.014 501.138 187.877 502.89 188.126C505.794 188.538 508.865 190.172 510.569 192.597Q510.815 192.939 511.023 193.306Q511.231 193.672 511.4 194.058Q511.569 194.444 511.697 194.845Q511.825 195.246 511.91 195.659Q511.995 196.072 512.037 196.491Q512.079 196.91 512.076 197.332Q512.074 197.753 512.027 198.172Q511.981 198.59 511.891 199.002C511 203.182 507.786 205.374 504.423 207.501C502.664 207.633 500.823 207.714 499.115 207.204C495.93 206.253 493.065 203.896 491.588 200.913C490.515 198.746 490.222 196.254 491.034 193.951C492.146 190.799 494.636 189.422 497.501 188.075Z"/>
	<path fill="#D58F2C" d="M264.776 185.641C280.785 178.116 297.26 171.349 314.259 166.385Q316.902 165.619 319.56 164.904Q322.217 164.189 324.888 163.526Q327.559 162.863 330.242 162.252Q332.925 161.64 335.619 161.081Q338.314 160.521 341.019 160.014Q343.723 159.507 346.438 159.052Q349.152 158.597 351.874 158.195Q354.596 157.793 357.326 157.443Q360.056 157.094 362.792 156.797Q365.527 156.501 368.268 156.257Q371.01 156.013 373.755 155.823Q376.5 155.632 379.249 155.495Q381.997 155.357 384.748 155.273Q387.499 155.189 390.25 155.158Q393.002 155.127 395.754 155.149Q398.506 155.171 401.257 155.247Q404.007 155.322 406.756 155.451Q409.505 155.579 412.251 155.761Q414.997 155.943 417.739 156.178Q420.481 156.413 423.218 156.701Q425.955 156.988 428.685 157.329Q431.416 157.67 434.14 158.063Q436.863 158.457 439.579 158.903Q442.294 159.349 445.001 159.848Q447.707 160.346 450.403 160.897Q453.1 161.448 455.785 162.051Q458.47 162.653 461.143 163.308Q463.816 163.963 466.475 164.669Q469.135 165.375 471.781 166.133Q474.426 166.89 477.057 167.699Q479.687 168.508 482.302 169.367Q484.916 170.226 487.513 171.136C485.191 173.876 482.642 176.579 480.968 179.772C480.873 179.953 480.766 180.128 480.675 180.312C479.099 183.495 480.697 187.587 479.536 190.917C473.224 191.341 462.284 186.532 455.872 184.739C451.5 183.516 447.063 182.65 442.594 181.862C390.113 172.616 334.724 177.752 286.105 200.422C279.312 192.654 274.015 189.604 264.776 185.641Z"/>
	<path fill="#814E2C" d="M667.184 401.638C670.934 415.53 664.696 436.117 660.02 449.653C658.149 455.07 655.62 459.917 654.652 465.621C649.741 473.911 646.041 482.813 640.969 491.084C633.07 501.611 626.262 513.29 617.04 522.735C614.45 525.313 611.718 528.315 608.603 530.271L609.044 531.284C598.968 540.719 585.264 547.705 573.461 554.717L571.426 553.37C562.055 558.914 547.687 565.904 540.304 573.419C540.14 575.226 540.184 577.327 539.506 579.006C512.858 591.524 486.166 600.753 457.404 607.158C397.317 617.97 358.495 614.385 299.794 598.669Q286.001 593.616 272.397 588.073C263.645 583.5 254.527 579.647 245.83 574.957Q241.257 572.503 236.796 569.853Q232.334 567.202 227.992 564.36Q223.65 561.518 219.436 558.49Q215.222 555.461 211.144 552.252Q207.066 549.042 203.131 545.659Q199.196 542.275 195.413 538.723Q191.63 535.171 188.004 531.458Q184.379 527.745 180.919 523.877C179.694 521.514 177.966 518.822 178.167 516.061C178.326 513.873 179.523 512.688 181.163 511.402C233.058 568.651 301.526 595.199 377.651 600.183C379.427 602.432 381.176 604.824 383.481 606.561C387.465 609.564 392.109 611.025 397.092 610.21C403.412 609.175 407.149 605.102 410.761 600.221C427.753 599.602 444.3 597.383 460.941 593.925C485.525 588.816 510.713 580.74 533.226 569.542C541.249 565.55 548.976 560.764 556.745 556.295C574.489 546.089 590.926 535.283 605.504 520.779C617.729 508.616 627.619 494.693 637.058 480.334C637.844 480.838 638.563 481.302 639.512 481.446C641.361 481.726 643.263 480.796 644.626 479.616C654.277 471.262 665.23 431.274 666.816 417.927C667.448 412.613 666.907 407.019 667.184 401.638Z"/>
	<path fill="#521C18" d="M608.603 530.271L609.044 531.284C598.968 540.719 585.264 547.705 573.461 554.717L571.426 553.37C582.525 547.217 598.118 534.56 608.603 530.271Z"/>
	<path fill="#D58F2C" d="M524.183 186.997C537.205 193.327 549.738 201.405 561.393 209.971C599.655 238.094 630.034 275.013 645.6 320.23Q646.325 322.362 646.998 324.512Q647.671 326.661 648.292 328.826Q648.912 330.992 649.479 333.171Q650.045 335.351 650.559 337.544Q651.072 339.737 651.531 341.942Q651.991 344.147 652.396 346.363Q652.801 348.578 653.152 350.803Q653.503 353.028 653.799 355.261Q654.095 357.494 654.336 359.733Q654.578 361.972 654.764 364.217Q654.95 366.462 655.082 368.71Q655.213 370.959 655.289 373.21Q655.365 375.461 655.386 377.713Q655.407 379.965 655.373 382.217Q655.339 384.469 655.249 386.72Q655.16 388.97 655.015 391.218Q654.871 393.466 654.671 395.709Q654.471 397.953 654.217 400.19Q653.962 402.428 653.653 404.659Q653.344 406.89 652.98 409.113Q652.616 411.336 652.198 413.549Q651.78 415.762 651.307 417.964Q650.835 420.167 650.309 422.357Q649.782 424.547 649.203 426.723Q648.623 428.899 647.99 431.061Q647.357 433.223 646.672 435.368Q645.986 437.513 645.248 439.641Q644.51 441.769 643.72 443.878Q642.93 445.988 642.088 448.077Q641.247 450.166 640.355 452.234Q639.462 454.302 638.519 456.348Q637.577 458.393 636.584 460.415C609.478 515.652 554.068 554.881 496.906 574.305C474.743 581.836 429.909 592.956 406.957 590.005C406.877 585.775 407.155 581.277 406.305 577.126C403.817 574.267 401.387 572.675 397.515 572.435C393.729 572.2 389.73 573.15 386.043 573.893L386.407 574.787L386.482 573.669L387.107 573.785C385.694 578.996 384.531 584.486 382.545 589.506Q379.33 589.522 376.116 589.46Q372.902 589.397 369.69 589.257Q366.478 589.116 363.271 588.897Q360.063 588.679 356.862 588.382Q353.661 588.086 350.468 587.711Q347.275 587.337 344.092 586.885Q340.909 586.433 337.738 585.904Q334.567 585.374 331.41 584.768Q328.253 584.162 325.111 583.479Q321.97 582.796 318.846 582.037Q315.722 581.278 312.618 580.443Q309.513 579.608 306.43 578.698Q303.346 577.788 300.286 576.803Q297.226 575.818 294.191 574.759Q291.155 573.699 288.146 572.567Q285.138 571.434 282.157 570.229Q279.177 569.023 276.227 567.745Q273.277 566.468 270.359 565.119Q267.441 563.77 264.556 562.35Q261.672 560.93 258.823 559.441Q255.974 557.951 253.162 556.393Q250.35 554.835 247.577 553.209Q244.804 551.582 242.071 549.889Q239.338 548.196 236.647 546.437Q233.957 544.677 231.309 542.853Q228.662 541.029 226.06 539.141Q223.458 537.253 220.903 535.302Q218.348 533.352 215.84 531.339Q213.333 529.327 210.876 527.254Q208.418 525.181 206.012 523.049Q203.606 520.917 201.252 518.727Q198.899 516.538 196.599 514.291C158.953 477.765 139.142 429.356 138.606 377.061C138.359 352.958 144.51 329.504 152.216 306.863C158.696 307.637 165.386 307.953 170.795 303.577C174.161 300.855 175.921 296.905 176.18 292.629C176.552 286.488 174.437 278.927 170.229 274.364C169.91 274.018 169.569 273.692 169.23 273.364C186.594 246.441 207.152 223.765 233.16 204.925C239.962 199.998 246.907 195.153 254.36 191.251C257.251 190.264 259.991 188.743 262.982 188.126L263.378 188.5C263.199 188.586 263.016 188.664 262.84 188.757C260.216 190.136 258.06 192.153 255.869 194.114C253.801 199.779 253.217 206.696 255.985 212.245C256.503 213.283 257.123 214.276 257.735 215.26C229.565 229.927 202.407 259.153 186.129 286.111Q185.051 287.929 184.019 289.773Q182.986 291.616 181.999 293.485Q181.012 295.354 180.071 297.246Q179.13 299.138 178.236 301.053Q177.342 302.967 176.495 304.903Q175.648 306.84 174.849 308.796Q174.05 310.752 173.299 312.728Q172.548 314.703 171.846 316.696Q171.144 318.689 170.491 320.699Q169.838 322.709 169.235 324.734Q168.631 326.759 168.078 328.799Q167.524 330.838 167.021 332.89Q166.517 334.943 166.064 337.007Q165.612 339.071 165.209 341.146Q164.807 343.22 164.456 345.304Q164.105 347.388 163.806 349.48Q163.506 351.572 163.258 353.67Q163.009 355.769 162.812 357.873Q162.616 359.977 162.471 362.085Q162.326 364.194 162.232 366.305Q162.139 368.416 162.098 370.529Q162.056 372.642 162.067 374.755Q162.077 376.868 162.14 378.98Q162.202 381.093 162.316 383.203Q162.43 385.313 162.596 387.42Q162.762 389.526 162.98 391.628Q163.197 393.73 163.466 395.826Q163.735 397.922 164.056 400.011Q164.376 402.1 164.748 404.18Q165.12 406.261 165.542 408.331Q165.965 410.402 166.438 412.461Q166.911 414.521 167.435 416.568C179.635 465.517 213.469 508.214 256.533 534.04C273.331 544.114 291.612 550.985 310.253 556.795C363.608 573.423 411.062 575.899 465.516 562.22C519.573 548.641 576.696 515.688 605.81 466.744Q606.9 464.913 607.945 463.056Q608.989 461.199 609.988 459.317Q610.986 457.435 611.938 455.529Q612.89 453.622 613.794 451.693Q614.699 449.764 615.556 447.813Q616.412 445.862 617.221 443.891Q618.029 441.92 618.789 439.929Q619.549 437.939 620.259 435.93Q620.97 433.921 621.63 431.895Q622.291 429.87 622.902 427.829Q623.512 425.787 624.073 423.732Q624.633 421.676 625.142 419.607Q625.651 417.538 626.11 415.457Q626.568 413.376 626.975 411.285Q627.382 409.194 627.737 407.093Q628.092 404.992 628.395 402.883Q628.699 400.774 628.95 398.658Q629.201 396.542 629.4 394.421Q629.6 392.3 629.746 390.174Q629.893 388.048 629.988 385.92Q630.082 383.791 630.124 381.661Q630.166 379.531 630.155 377.4Q630.145 375.27 630.082 373.14Q630.019 371.01 629.903 368.883Q629.788 366.755 629.62 364.631Q629.452 362.507 629.232 360.388Q629.012 358.268 628.74 356.155Q628.468 354.042 628.143 351.936Q627.819 349.83 627.443 347.733Q627.067 345.636 626.64 343.548Q626.212 341.461 625.734 339.385Q625.255 337.309 624.725 335.245C610.431 280.118 567.715 238.021 519.88 209.969C521.604 208.195 523.626 206.304 524.856 204.145C528.07 198.502 525.867 192.72 524.183 186.997Z"/>
	<defs>
		<linearGradient id="gradient_0" gradientUnits="userSpaceOnUse" x1="501.85214" y1="802.61261" x2="160.19174" y2="262.07687">
			<stop offset="0" stop-color="#2E1A2E"/>
			<stop offset="1" stop-color="#512622"/>
		</linearGradient>
	</defs>
	<path fill="url(#gradient_0)" d="M135.676 274.916C136.381 275.119 137.182 275.273 137.847 275.571C133.582 284.179 132.134 292.349 135.436 301.567C136.061 303.312 137.112 305.796 138.711 306.822L140.082 305.199L140.932 305.28C142.551 307.388 140.964 309.115 142.395 311.599Q141.57 313.982 140.805 316.384Q140.039 318.786 139.333 321.206Q138.626 323.627 137.98 326.064Q137.334 328.501 136.748 330.953Q136.162 333.405 135.637 335.871Q135.112 338.337 134.647 340.815Q134.183 343.294 133.78 345.782Q133.378 348.271 133.036 350.769Q132.695 353.267 132.415 355.773Q132.136 358.279 131.918 360.791Q131.7 363.303 131.545 365.819Q131.389 368.336 131.296 370.855Q131.202 373.375 131.171 375.896Q131.14 378.417 131.171 380.938Q131.202 383.459 131.295 385.979Q131.389 388.498 131.544 391.015Q131.699 393.531 131.917 396.043Q132.134 398.555 132.414 401.061Q132.693 403.566 133.034 406.065Q133.375 408.563 133.778 411.052Q134.181 413.54 134.645 416.019Q135.109 418.497 135.634 420.963Q136.159 423.429 136.744 425.881Q137.33 428.334 137.976 430.771Q138.622 433.208 139.328 435.628Q140.034 438.049 140.8 440.451Q141.565 442.853 142.39 445.236Q143.215 447.618 144.098 449.98Q144.981 452.341 145.922 454.68Q146.863 457.019 147.862 459.335Q148.86 461.65 149.916 463.939Q150.971 466.229 152.083 468.492C159.505 483.696 169.465 499.142 181.163 511.402C179.523 512.688 178.326 513.873 178.167 516.061C177.966 518.822 179.694 521.514 180.919 523.877Q184.379 527.745 188.004 531.458Q191.63 535.171 195.413 538.723Q199.196 542.275 203.131 545.659Q207.066 549.042 211.144 552.252Q215.222 555.461 219.436 558.49Q223.65 561.518 227.992 564.36Q232.334 567.202 236.796 569.853Q241.257 572.503 245.83 574.957C254.527 579.647 263.645 583.5 272.397 588.073Q286.001 593.616 299.794 598.669C358.495 614.385 397.317 617.97 457.404 607.158C486.166 600.753 512.858 591.524 539.506 579.006C539.5 584.493 539.303 590.012 540.036 595.461C541.212 596.367 541.495 596.381 541.71 597.906C542.968 606.838 541.514 616.656 541.995 625.722L542.398 625.562L542.459 642.924C555.01 651.379 568.149 659.823 579.284 670.103C582.411 652.987 585.438 636.972 596.021 622.575C597.339 622.171 598.573 621.872 599.932 621.645C596.969 626.875 594.167 632.091 591.567 637.513C585.996 649.534 579.787 668.618 584.494 681.76C587.963 691.445 598.209 699.351 607.31 703.462C614.409 706.668 621.238 705.838 628.287 703.118C633.581 701.075 639.413 697.994 643.959 694.555C646.88 700.541 646.195 706.046 647.164 712.351Q640.39 716.013 633.187 718.738C614.979 725.423 602.408 720.409 586.83 710.409C582.116 707.383 576.994 704.43 573.115 700.333C569.698 696.724 568.128 692.315 565.824 688.005C560.305 677.683 548.246 671.007 537.986 666.317C532.238 668.804 526.702 672.021 521.084 674.806Q510.996 679.763 500.361 683.398Q496.568 684.705 492.745 685.918Q488.921 687.13 485.068 688.247Q481.215 689.364 477.336 690.385Q473.456 691.406 469.553 692.33Q465.649 693.254 461.724 694.08Q457.798 694.906 453.853 695.635Q449.909 696.364 445.947 696.994Q441.985 697.624 438.009 698.155Q434.033 698.686 430.045 699.119Q426.057 699.551 422.059 699.884Q418.062 700.216 414.057 700.45Q410.052 700.683 406.043 700.817Q402.034 700.95 398.022 700.984Q394.011 701.017 390 700.951Q385.989 700.885 381.981 700.719Q377.973 700.553 373.97 700.288Q369.968 700.022 365.973 699.657Q361.978 699.292 357.994 698.827Q354.009 698.363 350.037 697.799Q346.066 697.236 342.109 696.574Q338.153 695.911 334.214 695.151Q330.275 694.391 326.357 693.532Q322.438 692.674 318.542 691.719Q314.646 690.763 310.775 689.711Q306.904 688.659 303.06 687.511Q299.217 686.363 295.403 685.12Q291.589 683.876 287.807 682.538Q284.025 681.2 280.278 679.769Q276.531 678.337 272.82 676.812Q269.109 675.288 265.438 673.672Q261.767 672.055 258.137 670.348Q254.506 668.641 250.92 666.844C186.224 635.232 142.153 581.461 118.861 513.821C116.216 499.325 112.713 488.408 111.633 473.189C110.901 462.888 112.517 452.565 111.218 442.258C110.16 435.806 111.098 420.323 110.899 412.625C109.57 361.068 111.965 321.565 135.676 274.916Z"/>
	<path fill="#329652" d="M153.473 551.516C146.284 541.196 137.079 520.522 134.937 508.259C133.381 499.353 134.249 489.852 134.03 480.824Q133.443 458.691 132.266 436.582C136.012 448.178 139.659 460.149 144.731 471.25C147.178 476.605 150.521 481.617 153.127 486.927C152.18 508.398 154.028 530.027 153.473 551.516Z"/>
	<path fill="#6EE445" d="M153.127 486.927Q159.587 497.007 166.658 506.669C169.623 510.722 173.261 514.766 175.764 519.067C175.667 526.971 176.199 580.045 174.973 582.426Q168.723 575.345 163.33 567.592Q157.938 559.839 153.473 551.516C154.028 530.027 152.18 508.398 153.127 486.927Z"/>
	<path fill="#25612C" d="M539.506 579.006C539.5 584.493 539.303 590.012 540.036 595.461C541.212 596.367 541.495 596.381 541.71 597.906C542.968 606.838 541.514 616.656 541.995 625.722C541.884 630.432 542.503 636.336 541.466 640.873C540.745 639.953 540.777 638.994 540.59 637.859C540.603 639.779 540.894 642.007 539.959 643.736C528.504 653.856 473.78 670.112 457.524 672.932C456.332 650.963 458.364 629.064 457.404 607.158C486.166 600.753 512.858 591.524 539.506 579.006Z"/>
	<path fill="#2C1435" d="M540.036 595.461C541.212 596.367 541.495 596.381 541.71 597.906C542.968 606.838 541.514 616.656 541.995 625.722C541.884 630.432 542.503 636.336 541.466 640.873C540.745 639.953 540.777 638.994 540.59 637.859L540.036 595.461Z"/>
	<path fill="#329652" d="M175.764 519.067L180.919 523.877Q184.379 527.745 188.004 531.458Q191.63 535.171 195.413 538.723Q199.196 542.275 203.131 545.659Q207.066 549.042 211.144 552.252Q215.222 555.461 219.436 558.49Q223.65 561.518 227.992 564.36Q232.334 567.202 236.796 569.853Q241.257 572.503 245.83 574.957C254.527 579.647 263.645 583.5 272.397 588.073Q286.001 593.616 299.794 598.669C299.981 608.375 301.149 658.781 299.528 664.377Q285.394 659.477 271.483 653.976C240.558 642.396 194.599 608.733 174.973 582.426C176.199 580.045 175.667 526.971 175.764 519.067Z"/>
	<path fill="#6EE445" d="M271.483 653.976L271.514 614.327C271.521 605.711 270.95 596.588 272.397 588.073Q286.001 593.616 299.794 598.669C299.981 608.375 301.149 658.781 299.528 664.377Q285.394 659.477 271.483 653.976Z"/>
	<path fill="#329652" d="M299.794 598.669C358.495 614.385 397.317 617.97 457.404 607.158C458.364 629.064 456.332 650.963 457.524 672.932C403.666 684.004 351.986 679.786 299.528 664.377C301.149 658.781 299.981 608.375 299.794 598.669Z"/>
	<path fill="#462427" d="M141.579 264.992C155.738 238.967 177.131 216.741 199.677 197.807Q202.247 195.646 204.865 193.543Q207.483 191.44 210.147 189.396Q212.811 187.352 215.52 185.368Q218.228 183.383 220.981 181.459Q223.733 179.536 226.527 177.674Q229.322 175.812 232.157 174.012Q234.992 172.213 237.866 170.477Q240.74 168.741 243.653 167.069Q246.565 165.398 249.514 163.791Q252.462 162.185 255.446 160.644Q258.43 159.104 261.447 157.63Q264.464 156.156 267.513 154.75Q270.563 153.344 273.642 152.006Q276.722 150.668 279.831 149.399Q282.94 148.129 286.076 146.929Q289.212 145.73 292.374 144.6Q295.536 143.47 298.723 142.411Q301.909 141.352 305.119 140.364Q308.328 139.376 311.558 138.459Q314.789 137.543 318.039 136.699Q321.289 135.854 324.557 135.082Q327.825 134.311 331.109 133.612Q334.393 132.913 337.692 132.287Q340.991 131.661 344.304 131.109Q347.616 130.557 350.939 130.078Q354.263 129.6 357.596 129.195Q360.93 128.791 364.272 128.461Q367.613 128.131 370.961 127.875Q374.31 127.619 377.662 127.438Q381.016 127.257 384.372 127.15Q387.728 127.043 391.086 127.011Q394.443 126.979 397.801 127.022C407.655 127.173 417.626 127.559 427.419 128.729C437.429 129.926 447.395 131.868 457.435 132.738L458.292 133.058C464.861 135.452 472.295 136.652 479.082 138.466Q494.642 142.778 509.671 148.679C575.516 174.536 633.105 223.88 663.923 288.134Q667.28 295.042 670.158 302.163Q673.035 309.284 675.42 316.585Q677.804 323.886 679.684 331.332Q681.564 338.779 682.931 346.337C687.582 372.8 686.102 400.147 685.843 426.895C685.66 445.815 686.276 464.963 683.858 483.766Q682.745 492.451 680.701 500.965Q678.656 509.479 675.703 517.722C671.816 528.694 666.457 538.85 661.808 549.482C688.041 549.985 699.577 554.922 718.007 574.039C726.622 582.976 731.167 593.121 730.827 605.637Q730.666 610.146 729.883 614.59Q729.1 619.033 727.711 623.326L842.383 696.405C844.774 698.327 847.069 700.071 849.876 701.371C855.141 703.958 860.196 707.554 865.188 710.656L892.803 727.705L926.908 748.477C933.572 752.589 940.709 756.474 946.684 761.556C950.987 765.215 954.193 769.387 956.053 774.773C963.063 795.074 953.682 821.996 944.587 840.288C936.185 857.188 924.939 869.897 911.432 882.755C897.059 896.054 881.198 905.608 861.11 906.077C852.875 906.269 845.261 904.801 837.809 901.254C821.036 893.272 807.781 878.749 794.445 866.155L765.982 839.317C743.374 847.245 719.869 852.777 697.193 860.573L694.858 858.449L694.529 858.382C692.801 854.351 681.776 845.182 678.059 841.567C686.678 837.574 696.606 835.571 705.721 832.908L746.381 820.655C737.859 811.712 729.012 803.079 720.535 794.091Q695.682 767.537 671.406 740.454C663.113 731.351 655.578 721.14 647.164 712.351C646.195 706.046 646.88 700.541 643.959 694.555C639.413 697.994 633.581 701.075 628.287 703.118C621.238 705.838 614.409 706.668 607.31 703.462C598.209 699.351 587.963 691.445 584.494 681.76C579.787 668.618 585.996 649.534 591.567 637.513C594.167 632.091 596.969 626.875 599.932 621.645C598.573 621.872 597.339 622.171 596.021 622.575C585.438 636.972 582.411 652.987 579.284 670.103C568.149 659.823 555.01 651.379 542.459 642.924L542.398 625.562L541.995 625.722C541.514 616.656 542.968 606.838 541.71 597.906C541.495 596.381 541.212 596.367 540.036 595.461C539.303 590.012 539.5 584.493 539.506 579.006C540.184 577.327 540.14 575.226 540.304 573.419C547.687 565.904 562.055 558.914 571.426 553.37L573.461 554.717C585.264 547.705 598.968 540.719 609.044 531.284L608.603 530.271C611.718 528.315 614.45 525.313 617.04 522.735C626.262 513.29 633.07 501.611 640.969 491.084C646.041 482.813 649.741 473.911 654.652 465.621C655.62 459.917 658.149 455.07 660.02 449.653C664.696 436.117 670.934 415.53 667.184 401.638C666.907 407.019 667.448 412.613 666.816 417.927C665.23 431.274 654.277 471.262 644.626 479.616C643.263 480.796 641.361 481.726 639.512 481.446C638.563 481.302 637.844 480.838 637.058 480.334Q641.461 473.214 645.238 465.743Q649.016 458.272 652.14 450.505Q653.005 448.357 653.817 446.188Q654.629 444.018 655.388 441.83Q656.146 439.642 656.85 437.435Q657.554 435.229 658.203 433.005Q658.853 430.782 659.447 428.544Q660.041 426.305 660.58 424.053Q661.119 421.8 661.602 419.535Q662.086 417.27 662.513 414.994Q662.94 412.717 663.311 410.431Q663.682 408.145 663.996 405.85Q664.31 403.556 664.568 401.254Q664.826 398.952 665.026 396.645Q665.227 394.337 665.371 392.026Q665.515 389.714 665.601 387.4Q665.688 385.085 665.718 382.769Q665.747 380.454 665.72 378.138Q665.692 375.822 665.607 373.507Q665.523 371.193 665.381 368.881Q665.239 366.569 665.04 364.262Q664.842 361.954 664.586 359.652Q664.33 357.35 664.018 355.055Q663.706 352.76 663.337 350.474Q662.968 348.187 662.543 345.911Q662.117 343.634 661.636 341.368Q661.155 339.103 660.618 336.85Q660.081 334.597 659.489 332.358Q658.896 330.119 658.249 327.895Q657.601 325.671 656.899 323.464Q656.197 321.257 655.441 319.068Q654.684 316.879 653.874 314.709Q653.064 312.539 652.201 310.39Q651.337 308.241 650.421 306.114C630.265 258.135 592.954 218.316 549.175 190.8C539.674 184.829 529.66 178.866 519.251 174.615C509.947 170.685 500.44 166.957 491.227 162.861C482.394 159.445 473.254 157.231 464.076 154.972C404.121 140.212 337.188 144.698 280.504 169.806C241.015 187.298 207.017 212.542 179.606 245.948C174.419 252.271 170.245 259.279 165.223 265.717C165.08 265.702 164.938 265.689 164.795 265.672C163.526 265.522 162.489 265.258 161.283 264.839C158.022 263.708 153.904 263.682 150.785 265.263C147.67 266.842 144.637 268.664 141.597 270.387C141.331 268.497 141.388 266.888 141.579 264.992Z"/>
	<path fill="#FEFEFE" d="M858.795 789.605C859.495 790.924 860.11 792.213 860.654 793.605L858.507 795.095C855.945 796.456 853.606 797.992 851.584 800.1C850.017 801.712 848.646 803.296 846.591 804.287C849.763 798.794 854.493 794.218 858.795 789.605Z"/>
	<path fill="#D37210" d="M830.84 868.871C834.328 871.591 836.592 875.443 840.142 878.128C841.228 879.798 843.795 881.945 843.922 883.836C842.315 883.267 840.779 882.656 839.303 881.792C834.122 878.758 832.274 874.41 830.84 868.871Z"/>
	<path fill="#F2CD75" d="M895.082 768.606C903.965 767.615 912.417 766.416 920.992 769.756C917.251 771.737 904.708 770.391 898.644 772.31C897.584 770.902 896.384 769.789 895.082 768.606Z"/>
	<path fill="#FFFE77" d="M880.348 773.599C885.054 771.222 890.02 769.956 895.082 768.606C896.384 769.789 897.584 770.902 898.644 772.31L892.019 775.362L891.46 775.431C887.761 776.306 885.488 777.16 881.951 775.27L880.348 773.599Z"/>
	<path fill="#F8EFD6" d="M881.951 775.27C883.531 773.769 886.317 771.942 888.582 771.988C890.04 772.018 890.315 772.393 891.176 773.405L891.46 775.431C887.761 776.306 885.488 777.16 881.951 775.27Z"/>
	<path fill="#D58F2C" d="M491.227 162.861C496.897 160.62 503.173 159.638 508.993 162.003C513.259 163.736 516.503 167.191 518.178 171.459C518.577 172.475 518.994 173.554 519.251 174.615C509.947 170.685 500.44 166.957 491.227 162.861Z"/>
	<path fill="#A6E6E9" d="M650.419 573.545C655.215 578.795 661.825 583.515 665.991 589.144C660.473 592.886 654.93 597.568 648.984 600.563C641.75 598.755 634.198 593.298 628.061 589.171C634.603 582.934 642.592 578.012 650.419 573.545Z"/>
	<path fill="#9AD0F8" d="M675.517 565.842C682.507 568.663 694.137 574.922 699.141 580.362C686.788 580.575 676.85 583.039 665.991 589.144C661.825 583.515 655.215 578.795 650.419 573.545C658.783 570.019 666.433 566.981 675.517 565.842Z"/>
	<path fill="#D58F2C" d="M920.992 769.756C923.384 770.587 925.676 771.391 927.907 772.613C930.127 774.499 931.929 776.484 933.27 779.087C930.81 783.457 927.956 787.78 925.709 792.25C924.879 793.394 924.013 794.513 923.294 795.731C920.803 790.647 917.438 787.298 912.204 784.964C907.826 783.013 901.082 781.632 896.475 783.389C895.283 783.35 894.096 783.187 892.91 783.059C889.938 784.233 886.79 784.882 883.832 786.079C877.98 788.448 872.185 792.696 867.212 796.523C866.361 796.025 865.364 795.772 864.537 795.247C863.013 794.281 863.057 793.777 862.602 792.177L860.654 793.605C860.11 792.213 859.495 790.924 858.795 789.605C864.361 783.597 870.859 779.127 877.753 774.822L880.348 773.599L881.951 775.27C885.488 777.16 887.761 776.306 891.46 775.431L892.019 775.362L898.644 772.31C904.708 770.391 917.251 771.737 920.992 769.756Z"/>
	<path fill="#FCCD1B" d="M877.753 774.822L880.348 773.599L881.951 775.27C885.488 777.16 887.761 776.306 891.46 775.431L892.019 775.362C895.874 777.406 899.581 776.787 903.702 777.502C896.677 779.065 889.014 779.821 881.867 778.577L877.753 774.822Z"/>
	<defs>
		<linearGradient id="gradient_1" gradientUnits="userSpaceOnUse" x1="874.20856" y1="774.64368" x2="865.29144" y2="792.85632">
			<stop offset="0" stop-color="#FFFFA5"/>
			<stop offset="1" stop-color="#FFFFE2"/>
		</linearGradient>
	</defs>
	<path fill="url(#gradient_1)" d="M858.795 789.605C864.361 783.597 870.859 779.127 877.753 774.822L881.867 778.577C874.119 782.306 868.4 785.819 862.602 792.177L860.654 793.605C860.11 792.213 859.495 790.924 858.795 789.605Z"/>
	<path fill="#D37210" d="M927.907 772.613C930.127 774.499 931.929 776.484 933.27 779.087C930.81 783.457 927.956 787.78 925.709 792.25C924.879 793.394 924.013 794.513 923.294 795.731C920.803 790.647 917.438 787.298 912.204 784.964C907.826 783.013 901.082 781.632 896.475 783.389C895.283 783.35 894.096 783.187 892.91 783.059C900.084 777.823 912.565 779.817 920.916 780.013C923.571 777.742 925.719 775.323 927.907 772.613Z"/>
	<path fill="#D58F2C" d="M860.654 793.605L862.602 792.177C863.057 793.777 863.013 794.281 864.537 795.247C865.364 795.772 866.361 796.025 867.212 796.523C864.204 799.546 861.381 802.958 858.247 805.814C851.557 813.473 843.959 826.759 842.968 837.15C841.601 843.39 840.881 849.295 841.936 855.656C843.82 859.653 845.724 863.409 848.475 866.895C846.238 866.587 842.772 865.706 840.742 866.981C839.654 867.665 839.027 869.232 838.496 870.347C839.555 872.767 840.006 875.496 840.142 878.128C836.592 875.443 834.328 871.591 830.84 868.871C826.705 853.967 829.401 835.138 836.626 821.576C839.215 815.775 842.036 808.849 846.591 804.287C848.646 803.296 850.017 801.712 851.584 800.1C853.606 797.992 855.945 796.456 858.507 795.095L860.654 793.605Z"/>
	<path fill="#D37210" d="M841.936 855.656C843.82 859.653 845.724 863.409 848.475 866.895C846.238 866.587 842.772 865.706 840.742 866.981C839.654 867.665 839.027 869.232 838.496 870.347C838.264 865.116 840.103 860.462 841.936 855.656Z"/>
	<path fill="#FCCD1B" d="M860.654 793.605L862.602 792.177C863.057 793.777 863.013 794.281 864.537 795.247C865.364 795.772 866.361 796.025 867.212 796.523C864.204 799.546 861.381 802.958 858.247 805.814L857.912 805.021C858.809 803.448 859.859 802.166 861.037 800.794C857.981 801.49 855.406 801.995 852.246 801.699C843.837 807.717 843.015 818.79 837.643 822.191C836.721 821.755 837.003 822.034 836.626 821.576C839.215 815.775 842.036 808.849 846.591 804.287C848.646 803.296 850.017 801.712 851.584 800.1C853.606 797.992 855.945 796.456 858.507 795.095L860.654 793.605Z"/>
	<path fill="#F2CD75" d="M851.584 800.1C853.606 797.992 855.945 796.456 858.507 795.095C858.259 796.978 858.139 798.558 857.116 800.19C856.052 800.883 855.357 801.369 854.03 801.071C853.204 800.886 852.355 800.448 851.584 800.1Z"/>
	<path fill="#329652" d="M654.652 465.621C654.888 473.214 654.141 480.91 654.067 488.525C653.972 498.332 655.041 516.071 653.204 525.065C652.313 529.424 649.497 533.555 647.265 537.327Q644.153 534.682 640.95 532.149C633.147 527.924 625.586 525.015 617.04 522.735C626.262 513.29 633.07 501.611 640.969 491.084C646.041 482.813 649.741 473.911 654.652 465.621Z"/>
	<path fill="#25612C" d="M617.04 522.735C626.262 513.29 633.07 501.611 640.969 491.084C641.441 504.763 641.114 518.465 640.95 532.149C633.147 527.924 625.586 525.015 617.04 522.735Z"/>
	<path fill="#6C3A25" d="M746.381 820.655Q754.727 828.401 762.703 836.527C753.897 839.097 696.848 854.941 694.858 858.449L694.529 858.382C692.801 854.351 681.776 845.182 678.059 841.567C686.678 837.574 696.606 835.571 705.721 832.908L746.381 820.655Z"/>
	<path fill="#FFFE77" d="M560.534 563.115Q577.927 574.646 595.751 585.5C602.017 589.344 608.663 592.892 614.692 597.08C608.325 604.222 603.708 612.425 597.58 619.665C587.378 611.223 577.138 602.806 567.073 594.202C559.059 587.352 551.516 580.005 542.621 574.274Q551.488 568.551 560.534 563.115Z"/>
	<defs>
		<linearGradient id="gradient_2" gradientUnits="userSpaceOnUse" x1="916.30756" y1="852.13226" x2="874.20013" y2="821.37048">
			<stop offset="0" stop-color="#933F04"/>
			<stop offset="1" stop-color="#C4620B"/>
		</linearGradient>
	</defs>
	<path fill="url(#gradient_2)" d="M933.27 779.087C940.013 794.76 937.295 812.654 931.128 828.116C922.307 850.233 904.016 873.675 881.574 883.12C870.993 887.573 857.123 889.33 846.236 884.869C845.464 884.553 844.657 884.233 843.922 883.836C843.795 881.945 841.228 879.798 840.142 878.128C840.006 875.496 839.555 872.767 838.496 870.347C839.027 869.232 839.654 867.665 840.742 866.981C842.772 865.706 846.238 866.587 848.475 866.895C851.379 869.554 854.351 871.668 857.956 873.249C865.389 876.51 873.915 876.415 881.416 873.462C885.26 871.949 895.208 866.948 896.818 863.224C902.687 856.891 908.78 850.049 912.991 842.421C913.546 841.415 914.133 840.431 914.716 839.441C919.811 836.827 919.036 827.767 922.992 823.949C923.087 820.908 923.815 817.727 924.123 814.68C924.777 808.221 924.21 802.137 923.294 795.731C924.013 794.513 924.879 793.394 925.709 792.25C927.956 787.78 930.81 783.457 933.27 779.087Z"/>
	<path fill="#BC6339" d="M925.709 792.25C927.524 799.966 927.378 815.837 924.05 823.215L922.992 823.949C923.087 820.908 923.815 817.727 924.123 814.68C924.777 808.221 924.21 802.137 923.294 795.731C924.013 794.513 924.879 793.394 925.709 792.25Z"/>
	<path fill="#D37210" d="M543.068 577.617C555.346 587.626 567.148 598.255 579.195 608.541C584.601 613.157 591.166 617.482 596.021 622.575C585.438 636.972 582.411 652.987 579.284 670.103C568.149 659.823 555.01 651.379 542.459 642.924L542.398 625.562C542.342 609.627 541.937 593.518 543.068 577.617Z"/>
	<path fill="#F2CD75" d="M609.044 531.284C626.51 542.85 643.823 554.574 661.428 565.926C647.868 570.488 636.293 577.054 625.575 586.606C621.814 589.958 618.426 593.702 614.692 597.08C608.663 592.892 602.017 589.344 595.751 585.5Q577.927 574.646 560.534 563.115C564.56 560.093 569.223 557.462 573.461 554.717C585.264 547.705 598.968 540.719 609.044 531.284Z"/>
	<path fill="#6C3A25" d="M635.135 665.797C647.582 673.665 662.317 688.485 673.102 698.778Q703.945 728.148 733.883 758.44C753.557 777.956 774.163 796.179 794.61 814.847C799.844 819.627 820.436 839.63 826.23 840.119C824.669 851.95 824.946 863.129 829.148 874.375C816.068 867.364 802.488 851.737 791.618 841.268C780.426 830.49 768.987 819.951 758.087 808.875C738.558 789.034 719.898 768.415 701.083 747.905C684.808 730.162 668.421 712.741 652.828 694.376C647.872 688.54 636.854 676.857 633.823 670.447C634.322 668.914 634.72 667.355 635.135 665.797Z"/>
	<path fill="#D37210" d="M896.475 783.389C901.082 781.632 907.826 783.013 912.204 784.964C917.438 787.298 920.803 790.647 923.294 795.731C924.21 802.137 924.777 808.221 924.123 814.68C923.815 817.727 923.087 820.908 922.992 823.949C919.036 827.767 919.811 836.827 914.716 839.441C914.133 840.431 913.546 841.415 912.991 842.421C908.78 850.049 902.687 856.891 896.818 863.224C895.208 866.948 885.26 871.949 881.416 873.462C873.915 876.415 865.389 876.51 857.956 873.249C854.351 871.668 851.379 869.554 848.475 866.895C845.724 863.409 843.82 859.653 841.936 855.656C840.881 849.295 841.601 843.39 842.968 837.15C843.959 826.759 851.557 813.473 858.247 805.814C861.381 802.958 864.204 799.546 867.212 796.523C872.185 792.696 877.98 788.448 883.832 786.079C886.79 784.882 889.938 784.233 892.91 783.059C894.096 783.187 895.283 783.35 896.475 783.389Z"/>
	<path fill="#814E2C" d="M896.475 783.389C901.082 781.632 907.826 783.013 912.204 784.964C917.438 787.298 920.803 790.647 923.294 795.731C924.21 802.137 924.777 808.221 924.123 814.68C923.815 817.727 923.087 820.908 922.992 823.949C919.036 827.767 919.811 836.827 914.716 839.441C919.523 828.399 922.596 816.65 921.433 804.519C920.879 798.744 919.006 792.912 914.259 789.224C909.417 785.462 902.418 784.456 896.442 785.155L896.475 783.389Z"/>
	<path fill="#6C3A25" d="M841.936 855.656C840.881 849.295 841.601 843.39 842.968 837.15C844.217 838.334 844.519 838.923 844.97 840.583C843.448 847.027 844.832 856.198 848.313 861.723C851.841 867.323 857.715 870.682 864.089 872.018C873.745 874.043 884.514 871.691 892.684 866.222C894.097 865.275 895.46 864.247 896.818 863.224C895.208 866.948 885.26 871.949 881.416 873.462C873.915 876.415 865.389 876.51 857.956 873.249C854.351 871.668 851.379 869.554 848.475 866.895C845.724 863.409 843.82 859.653 841.936 855.656Z"/>
	<path fill="#521C18" d="M892.91 783.059C894.096 783.187 895.283 783.35 896.475 783.389L896.442 785.155C875.092 791.905 862.228 800.788 851.641 820.964C848.195 827.532 847.053 833.61 844.97 840.583C844.519 838.923 844.217 838.334 842.968 837.15C843.959 826.759 851.557 813.473 858.247 805.814C861.381 802.958 864.204 799.546 867.212 796.523C872.185 792.696 877.98 788.448 883.832 786.079C886.79 784.882 889.938 784.233 892.91 783.059Z"/>
	<path fill="#418DC2" d="M904.853 795.337C909.902 797.408 914.054 800.58 916.301 805.687C919.923 813.918 917.412 824.56 914.109 832.519C908.344 846.409 897.326 859.009 883.211 864.716C876.712 867.344 868.833 868.95 862.182 866.034C857.702 864.07 853.633 860.735 851.822 856.094C848.493 847.561 851.074 837.049 854.783 829.082C857.719 822.777 861.727 816.778 866.221 811.48L867.001 813.274C861.885 825.567 859.641 835.366 861.566 848.64C863.487 852.385 865.732 855.24 869.928 856.49C874.771 857.932 880.067 856.054 884.347 853.76C895.519 847.772 906.44 836.574 910.095 824.217C913.334 813.267 910.01 804.933 904.853 795.337Z"/>
	<path fill="#1FCFE4" d="M866.221 811.48C871.65 805.467 877.182 799.633 884.633 796.15C891.49 792.943 897.76 792.73 904.853 795.337C910.01 804.933 913.334 813.267 910.095 824.217C906.44 836.574 895.519 847.772 884.347 853.76C880.067 856.054 874.771 857.932 869.928 856.49C865.732 855.24 863.487 852.385 861.566 848.64C859.641 835.366 861.885 825.567 867.001 813.274L866.221 811.48Z"/>
	<path fill="#A6E6E9" d="M875.886 806.586C876.974 805.948 878.127 804.601 879.113 803.756C883.812 799.729 887.7 797.846 893.893 797.262C894.346 807.254 891.995 814.653 885.241 822.081C882.292 825.325 878.043 828.911 873.428 828.996C871.842 829.026 870.245 828.583 869.171 827.339C867.786 825.737 867.764 823.418 868.154 821.452C869.203 816.159 872.762 810.889 875.886 806.586Z"/>
	<path fill="#5EABCA" d="M866.221 811.48C871.65 805.467 877.182 799.633 884.633 796.15C891.49 792.943 897.76 792.73 904.853 795.337C910.01 804.933 913.334 813.267 910.095 824.217C906.44 836.574 895.519 847.772 884.347 853.76C880.067 856.054 874.771 857.932 869.928 856.49C865.732 855.24 863.487 852.385 861.566 848.64C872.995 847.43 881.551 846.274 889.735 837.501C897.566 829.106 904.96 816.2 904.309 804.316C904.187 802.089 903.542 799.891 901.744 798.452C899.301 796.496 896.78 796.98 893.893 797.262C887.7 797.846 883.812 799.729 879.113 803.756C878.127 804.601 876.974 805.948 875.886 806.586C872.072 807.624 869.681 810.544 867.001 813.274L866.221 811.48Z"/>
	<path fill="#814E2C" d="M642.177 653.431C648.377 657.722 654.234 662.678 660.151 667.356L689.453 690.504C730.353 722.732 770.71 755.901 812.786 786.568C821.274 792.754 829.597 802.043 839.333 806.018C833.328 816.767 828.237 827.86 826.23 840.119C820.436 839.63 799.844 819.627 794.61 814.847C774.163 796.179 753.557 777.956 733.883 758.44Q703.945 728.148 673.102 698.778C662.317 688.485 647.582 673.665 635.135 665.797Q636.554 662.523 638.32 659.423Q640.086 656.322 642.177 653.431Z"/>
	<path fill="#BC6339" d="M651.499 642.351C678.207 657.315 704.041 674.323 729.758 690.93L813.029 744.615Q827.798 754.177 842.334 764.09C849.372 768.872 856.31 773.96 863.754 778.096C854.63 786.697 846.314 795.53 839.333 806.018C829.597 802.043 821.274 792.754 812.786 786.568C770.71 755.901 730.353 722.732 689.453 690.504L660.151 667.356C654.234 662.678 648.377 657.722 642.177 653.431C645.096 649.561 648.28 645.969 651.499 642.351Z"/>
	<path fill="#2348A4" d="M665.991 589.144C676.85 583.039 686.788 580.575 699.141 580.362L699.267 581.728C704.471 583.489 708.255 586.35 710.788 591.319C715.036 599.654 714.468 610.039 711.472 618.67C710.746 620.761 709.837 622.805 708.955 624.835C704.778 620.615 700.96 618.159 694.751 618.138C676.385 618.074 659.1 630.203 646.868 642.824C640.61 649.282 632.189 658.606 632.451 668.208C632.728 678.384 638.397 686.468 643.959 694.555C639.413 697.994 633.581 701.075 628.287 703.118C621.238 705.838 614.409 706.668 607.31 703.462C598.209 699.351 587.963 691.445 584.494 681.76C579.787 668.618 585.996 649.534 591.567 637.513C594.167 632.091 596.969 626.875 599.932 621.645C605.476 615.371 609.691 608.091 615.061 601.712C618.878 597.177 623.711 593.199 628.061 589.171C634.198 593.298 641.75 598.755 648.984 600.563C654.93 597.568 660.473 592.886 665.991 589.144Z"/>
	<path fill="#2C1435" d="M665.991 589.144C676.85 583.039 686.788 580.575 699.141 580.362L699.267 581.728C680.558 581.458 657.993 595.229 644.866 608.02C625.669 626.725 608.295 651.262 603.871 678.255C602.924 684.031 602.897 689.748 602.842 695.584L602.817 698.677C600.385 695.142 602.094 677.798 602.999 673.022C604.692 664.099 607.81 655.66 611.706 647.482C619.171 635.245 626.87 622.642 636.667 612.085C640.386 608.078 645.179 605.058 648.706 600.901C648.8 600.79 648.891 600.676 648.984 600.563C654.93 597.568 660.473 592.886 665.991 589.144Z"/>
	<defs>
		<linearGradient id="gradient_3" gradientUnits="userSpaceOnUse" x1="618.73212" y1="646.32526" x2="620.82233" y2="590.21399">
			<stop offset="0" stop-color="#5586DC"/>
			<stop offset="1" stop-color="#75BDF3"/>
		</linearGradient>
	</defs>
	<path fill="url(#gradient_3)" d="M599.932 621.645C605.476 615.371 609.691 608.091 615.061 601.712C618.878 597.177 623.711 593.199 628.061 589.171C634.198 593.298 641.75 598.755 648.984 600.563C648.891 600.676 648.8 600.79 648.706 600.901C645.179 605.058 640.386 608.078 636.667 612.085C626.87 622.642 619.171 635.245 611.706 647.482C604.169 645.725 597.426 642.589 591.567 637.513C594.167 632.091 596.969 626.875 599.932 621.645Z"/>
	<defs>
		<linearGradient id="gradient_4" gradientUnits="userSpaceOnUse" x1="761.36395" y1="724.71576" x2="796.41284" y2="678.73303">
			<stop offset="0" stop-color="#D17353"/>
			<stop offset="1" stop-color="#E6906E"/>
		</linearGradient>
	</defs>
	<path fill="url(#gradient_4)" d="M680.235 623.634C687.423 629.655 699.005 635.206 707.271 640.148L768.214 676.626Q813.205 703.523 857.844 731.001C874.683 741.43 891.19 752.602 908.357 762.475C891.035 762.914 877.777 767.994 863.754 778.096C856.31 773.96 849.372 768.872 842.334 764.09Q827.798 754.177 813.029 744.615L729.758 690.93C704.041 674.323 678.207 657.315 651.499 642.351C655.481 637.871 660.458 634.006 665.709 631.132C668.536 629.409 671.429 627.986 674.425 626.583L680.235 623.634Z"/>
	<path fill="#F0A092" d="M665.709 631.132C668.536 629.409 671.429 627.986 674.425 626.583C690.35 635.574 705.77 645.457 721.342 655.038L782.699 692.353L837.326 725.539C850.388 733.296 863.817 740.667 876.582 748.891C878.524 750.142 881.378 751.87 882.18 754.127C882.465 754.929 882.091 755.414 881.828 756.174C880.455 757.498 879.142 758.364 877.148 758.266C874.408 758.132 870.723 755.871 868.368 754.503C851.575 744.747 835.212 734.152 818.621 724.042L725.805 667.886L689.282 645.793C681.686 641.295 672.218 637.129 665.709 631.132Z"/>
	<path fill="#462427" d="M342.863 558.477C337.341 558.391 322.594 553.475 316.236 551.551C299.659 546.533 283.057 539.772 268.039 531.102C239.152 514.426 208.693 485.455 193.044 455.928C171.939 416.105 166.946 370.741 180.343 327.642C195.821 277.847 232.978 239.11 278.617 215.225Q280.945 214.015 283.299 212.854Q285.652 211.694 288.029 210.582Q290.406 209.471 292.806 208.409Q295.205 207.348 297.627 206.337Q300.048 205.326 302.49 204.365Q304.932 203.405 307.393 202.496Q309.855 201.587 312.335 200.73Q314.815 199.872 317.312 199.067Q319.809 198.261 322.323 197.508Q324.837 196.755 327.365 196.055Q329.894 195.354 332.437 194.707Q334.98 194.06 337.536 193.465Q340.091 192.871 342.659 192.331Q345.227 191.79 347.805 191.303Q350.384 190.816 352.972 190.384Q355.56 189.951 358.156 189.572Q360.753 189.193 363.357 188.869Q365.961 188.545 368.571 188.275Q371.181 188.005 373.796 187.79Q376.411 187.575 379.03 187.414Q381.649 187.253 384.271 187.148Q386.893 187.042 389.516 186.991Q392.14 186.94 394.764 186.944Q397.388 186.947 400.011 187.006Q402.634 187.065 405.256 187.178Q407.877 187.292 410.496 187.46Q413.114 187.628 415.729 187.851Q418.343 188.074 420.953 188.351Q423.562 188.629 426.165 188.961Q428.768 189.292 431.363 189.679Q433.959 190.065 436.545 190.505Q439.132 190.946 441.709 191.44C453.729 193.727 465.405 197.173 477.069 200.82L480.923 202.236L485.565 204.2C485.967 205.564 486.805 207.309 486.254 208.686C484.522 209.077 482.473 208.069 480.738 207.62C484.75 214.912 489.526 222.03 498.101 224.341C501.097 225.149 504.343 225.002 507.041 223.342C511.186 220.791 509.915 215.979 512.876 216.725C514.71 217.188 516.887 218.563 518.503 219.56C564.88 248.215 603.972 285.078 616.994 340.068C622.617 363.811 623.482 389.962 617.945 413.782C605.298 465.395 576.641 499.856 531.563 527.212C494.121 549.934 452.339 561.114 408.914 564.237C407.527 563.716 407.45 563.829 406.791 562.528C397.822 561.999 388.898 562.52 379.882 561.76C375.001 561.09 370.062 560.689 365.161 560.183L343.862 556.184C343.484 556.946 343.067 557.652 342.863 558.477Z"/>
	<path fill="#418DC2" d="M210.399 451.224C211.757 455.933 213.212 460.635 214.389 465.391C213.229 471.577 217.626 477.793 216.855 484.181C210.95 478.302 206.287 470.698 201.781 463.703Q206.148 457.503 210.399 451.224Z"/>
	<path fill="#5EABCA" d="M214.389 465.391C220.873 477.457 227.459 489.57 236.795 499.732Q243.631 507.159 251.604 513.349C255.817 516.59 260.491 519.58 264.321 523.267C265.303 524.213 265.755 524.997 266.102 526.299C251.514 518.033 225.941 497.63 216.855 484.181C217.626 477.793 213.229 471.577 214.389 465.391Z"/>
	<path fill="#1D6DAC" d="M589.88 430.913C595.674 425.69 603.953 411.09 611.02 408.815C611.813 410.348 611.531 413.009 611.589 414.761C611.24 439.77 590.764 472.587 572.887 489.9C571.747 491.003 570.569 492.2 569.196 493.007C571.049 487.461 574.188 482.152 576.771 476.903C583.604 463.022 588.227 449.354 589.121 433.828C589.506 433.014 589.655 431.804 589.88 430.913Z"/>
	<path fill="#1F818E" d="M599.592 365.047C605.557 377.475 613.82 401.228 611.589 414.761C611.531 413.009 611.813 410.348 611.02 408.815C603.953 411.09 595.674 425.69 589.88 430.913C589.175 426.989 589.349 422.735 588.926 418.745C587.734 407.523 585.573 396.14 581.82 385.484C583.35 381.284 595.792 369.463 599.592 365.047Z"/>
	<path fill="#1F818E" d="M529.78 283.691C541.872 292.052 554.175 300.726 563.309 312.431C557.251 318.121 551.52 323.922 545.924 330.072Q537.979 322.726 529.458 316.056Q520.938 309.386 511.899 303.437C518.286 297.132 524.163 290.693 529.78 283.691Z"/>
	<path fill="#418DC2" d="M563.309 312.431C577.53 328.8 590.212 345.398 599.592 365.047C595.792 369.463 583.35 381.284 581.82 385.484L581.655 385.534C574.941 365.433 560.955 345.283 545.974 330.3L545.924 330.072C551.52 323.922 557.251 318.121 563.309 312.431Z"/>
	<path fill="#5EABCA" d="M415.484 244.474C461.044 249.921 490.048 261.32 529.78 283.691C524.163 290.693 518.286 297.132 511.899 303.437L511.465 303.488C481.622 285.212 447.554 275.181 412.687 272.612C403.167 271.91 393.519 273.174 384.006 272.313L383.398 272.252L383.337 272.01C385.972 265.768 409.528 248.928 415.484 244.474Z"/>
	<path fill="#1FCFE4" d="M456.036 514.357C456.869 514.429 457.676 514.486 458.512 514.493C468.539 514.576 479.406 510.16 488.559 506.419C516.568 494.972 541.725 480.376 564.307 460.103C568.769 456.097 573.126 451.861 577.083 447.358C580.924 442.987 584.561 438.214 588.742 434.186L589.121 433.828C588.227 449.354 583.604 463.022 576.771 476.903C574.188 482.152 571.049 487.461 569.196 493.007C563.229 500.822 554.779 507.184 546.93 513.042C510.937 539.904 469.464 554.443 425.238 560.378C419.435 561.157 413.501 561.867 407.651 562.127C412.403 556.764 418.057 551.992 423.272 547.067C433.584 537.328 444.024 527.473 453.426 516.845L456.036 514.357Z"/>
	<path fill="#A6E6E9" d="M316.566 500.915C323.624 503.319 330.61 505.995 337.703 508.282C343.557 510.169 351.885 511.258 357.07 514.494L357.369 514.488C372.009 520.269 414.058 520.35 430.759 518.956C437.753 518.372 446.549 515.829 453.426 516.845C444.024 527.473 433.584 537.328 423.272 547.067C418.057 551.992 412.403 556.764 407.651 562.127L406.791 562.528C397.822 561.999 388.898 562.52 379.882 561.76C375.001 561.09 370.062 560.689 365.161 560.183L343.862 556.184C336.616 553.932 329.003 552.641 321.703 550.432Q311.556 547.432 301.695 543.597Q291.833 539.763 282.326 535.119C293.445 523.577 304.914 512.334 316.25 501.002L316.566 500.915Z"/>
	<path fill="#1FCFE4" d="M316.566 500.915C323.624 503.319 330.61 505.995 337.703 508.282C343.557 510.169 351.885 511.258 357.07 514.494C346.677 525.514 330.06 538.831 321.703 550.432Q311.556 547.432 301.695 543.597Q291.833 539.763 282.326 535.119C293.445 523.577 304.914 512.334 316.25 501.002L316.566 500.915Z"/>
	<path fill="#9E7222" d="M178.674 403.541C179.29 402.801 179.51 402.045 179.683 401.104C180.585 396.195 180.723 390.925 181.199 385.948C181.769 379.978 182.71 374.141 183.862 368.259Q184.908 362.74 186.329 357.306Q187.75 351.872 189.54 346.548Q191.33 341.224 193.48 336.035Q195.63 330.846 198.131 325.817C220.321 281.22 262.987 244.951 310.082 229.142Q321.657 225.169 333.554 222.302Q345.452 219.435 357.566 217.699C399.667 212.055 454.591 216.426 493.075 235.708C516.224 247.306 535.239 264.295 549.938 285.54C553.496 290.682 557.298 296.076 559.301 302.047L558.801 301.682C553.848 298.005 549.441 293.607 544.683 289.683C540.327 286.09 535.512 282.898 530.778 279.823Q528.389 278.275 525.966 276.781Q523.543 275.287 521.087 273.848Q518.631 272.409 516.143 271.026Q513.655 269.644 511.136 268.317Q508.617 266.991 506.069 265.722Q503.521 264.453 500.945 263.242Q498.369 262.031 495.766 260.879Q493.163 259.726 490.535 258.633Q487.906 257.54 485.254 256.506Q482.602 255.472 479.927 254.499Q477.252 253.526 474.555 252.613Q471.859 251.7 469.143 250.849Q466.427 249.998 463.692 249.208Q460.957 248.418 458.205 247.69Q455.453 246.963 452.685 246.297Q449.917 245.632 447.135 245.029Q444.353 244.427 441.558 243.887Q438.763 243.348 435.957 242.871Q433.15 242.395 430.334 241.983Q427.517 241.57 424.692 241.221Q421.867 240.872 419.035 240.588Q416.202 240.303 413.364 240.082Q410.526 239.861 407.684 239.705Q404.842 239.548 401.997 239.456Q399.152 239.364 396.305 239.336Q393.459 239.308 390.612 239.345Q387.766 239.381 384.921 239.482Q382.076 239.583 379.235 239.748Q376.393 239.913 373.556 240.143Q370.718 240.372 367.887 240.665Q365.055 240.959 362.231 241.316Q359.407 241.674 356.592 242.095C301.48 249.998 248.302 277.784 214.735 322.907C196.344 347.631 184.151 379.243 184.464 410.215C184.554 419.146 186.554 427.785 187.069 436.655C183.14 426.091 179.802 414.771 178.674 403.541Z"/>
	<path fill="#D58F2C" d="M178.674 403.541C171.684 371.995 179.197 336.495 192.798 307.55C231.633 224.907 331.989 182.371 419.923 192.578Q435.376 194.437 450.545 197.92C459.022 199.912 467.097 203.422 475.472 205.404C476.523 205.652 477.283 205.663 478.297 205.299C478.632 203.916 477.591 202.096 477.069 200.82L480.923 202.236L485.565 204.2C485.967 205.564 486.805 207.309 486.254 208.686C484.522 209.077 482.473 208.069 480.738 207.62C484.75 214.912 489.526 222.03 498.101 224.341C501.097 225.149 504.343 225.002 507.041 223.342C511.186 220.791 509.915 215.979 512.876 216.725C514.71 217.188 516.887 218.563 518.503 219.56C517.402 220.501 516.624 220.896 516.178 222.295C516.695 223.413 517.657 224.014 518.617 224.722C529.802 232.974 541.877 239.687 552.633 248.662C590.779 280.491 616.696 326.163 617.669 376.564C617.846 385.72 618.099 396.863 615.457 405.601C613.3 395.774 612.26 385.751 609.407 376.065C603.902 357.376 587.339 333.261 574.532 318.477C569.642 312.832 564.04 307.827 559.301 302.047C557.298 296.076 553.496 290.682 549.938 285.54C535.239 264.295 516.224 247.306 493.075 235.708C454.591 216.426 399.667 212.055 357.566 217.699Q345.452 219.435 333.554 222.302Q321.657 225.169 310.082 229.142C262.987 244.951 220.321 281.22 198.131 325.817Q195.63 330.846 193.48 336.035Q191.33 341.224 189.54 346.548Q187.75 351.872 186.329 357.306Q184.908 362.74 183.862 368.259C182.71 374.141 181.769 379.978 181.199 385.948C180.723 390.925 180.585 396.195 179.683 401.104C179.51 402.045 179.29 402.801 178.674 403.541Z"/>
	<path fill="#1F818E" d="M201.781 463.703C189.978 444.878 188.219 412.764 190.933 390.894C195.934 350.587 222.019 313.764 253.654 289.323C297.327 255.581 360.588 237.396 415.484 244.474C409.528 248.928 385.972 265.768 383.337 272.01L383.398 272.252C380.925 273.251 376.26 279.451 373.9 281.627L325.461 326.757C306.582 344.288 287.685 361.664 270.026 380.454Q256.681 394.709 244.112 409.653C239.343 415.327 234.795 421.68 229.65 426.981L229.539 427.283C222.762 434.634 217.089 442.833 210.711 450.496L210.399 451.224Q206.148 457.503 201.781 463.703Z"/>
	<path fill="#1FCFE4" d="M219.637 374.926C220.711 380.19 219.966 386.067 220.05 391.437C220.24 403.485 224.522 416.197 229.65 426.981L229.539 427.283C222.762 434.634 217.089 442.833 210.711 450.496Q210.284 448.121 209.944 445.732Q209.605 443.342 209.354 440.942Q209.103 438.542 208.941 436.134Q208.779 433.726 208.706 431.314Q208.633 428.902 208.649 426.489Q208.665 424.076 208.77 421.665Q208.876 419.254 209.07 416.848Q209.264 414.443 209.547 412.046Q209.83 409.65 210.202 407.265Q210.573 404.881 211.033 402.512Q211.492 400.142 212.038 397.792Q212.585 395.441 213.218 393.113Q213.851 390.784 214.569 388.48Q215.288 386.176 216.091 383.901Q216.894 381.625 217.781 379.381Q218.668 377.136 219.637 374.926Z"/>
	<path fill="#60D19B" d="M383.337 272.01L383.398 272.252C380.925 273.251 376.26 279.451 373.9 281.627L325.461 326.757C306.582 344.288 287.685 361.664 270.026 380.454Q256.681 394.709 244.112 409.653C239.343 415.327 234.795 421.68 229.65 426.981C224.522 416.197 220.24 403.485 220.05 391.437C219.966 386.067 220.711 380.19 219.637 374.926C221.48 362.455 231.885 347.365 239.845 337.974C266.606 306.402 306.505 285.137 346.725 276.652C358.923 274.078 370.94 272.991 383.337 272.01Z"/>
	<path fill="#B2F3C1" d="M357.369 514.488C361.484 508.617 367.829 503.353 372.933 498.308Q391.1 480.376 409.639 462.827L520.885 354.916Q528.858 347.283 536.685 339.5C539.543 336.63 542.594 332.365 545.974 330.3C560.955 345.283 574.941 365.433 581.655 385.534L581.82 385.484C585.573 396.14 587.734 407.523 588.926 418.745C589.349 422.735 589.175 426.989 589.88 430.913C589.655 431.804 589.506 433.014 589.121 433.828L588.742 434.186C584.561 438.214 580.924 442.987 577.083 447.358C573.126 451.861 568.769 456.097 564.307 460.103C541.725 480.376 516.568 494.972 488.559 506.419C479.406 510.16 468.539 514.576 458.512 514.493C457.676 514.486 456.869 514.429 456.036 514.357L453.426 516.845C446.549 515.829 437.753 518.372 430.759 518.956C414.058 520.35 372.009 520.269 357.369 514.488Z"/>
	<path fill="#60D19B" d="M581.655 385.534L581.82 385.484C585.573 396.14 587.734 407.523 588.926 418.745C589.349 422.735 589.175 426.989 589.88 430.913C589.655 431.804 589.506 433.014 589.121 433.828L588.742 434.186C584.561 438.214 580.924 442.987 577.083 447.358C573.126 451.861 568.769 456.097 564.307 460.103C541.725 480.376 516.568 494.972 488.559 506.419C479.406 510.16 468.539 514.576 458.512 514.493C457.676 514.486 456.869 514.429 456.036 514.357Q519.668 450.748 581.655 385.534Z"/>
	<path fill="#B2F3C1" d="M383.398 272.252L384.006 272.313C393.519 273.174 403.167 271.91 412.687 272.612C447.554 275.181 481.622 285.212 511.465 303.488L511.899 303.437Q520.938 309.386 529.458 316.056Q537.979 322.726 545.924 330.072L545.974 330.3C542.594 332.365 539.543 336.63 536.685 339.5Q528.858 347.283 520.885 354.916L409.639 462.827Q391.1 480.376 372.933 498.308C367.829 503.353 361.484 508.617 357.369 514.488L357.07 514.494C351.885 511.258 343.557 510.169 337.703 508.282C330.61 505.995 323.624 503.319 316.566 500.915L316.25 501.002C304.914 512.334 293.445 523.577 282.326 535.119C276.566 532.83 271.347 529.562 266.102 526.299C265.755 524.997 265.303 524.213 264.321 523.267C260.491 519.58 255.817 516.59 251.604 513.349Q243.631 507.159 236.795 499.732C227.459 489.57 220.873 477.457 214.389 465.391C213.212 460.635 211.757 455.933 210.399 451.224L210.711 450.496C217.089 442.833 222.762 434.634 229.539 427.283L229.65 426.981C234.795 421.68 239.343 415.327 244.112 409.653Q256.681 394.709 270.026 380.454C287.685 361.664 306.582 344.288 325.461 326.757L373.9 281.627C376.26 279.451 380.925 273.251 383.398 272.252Z"/>
	<path fill="#A6E6E9" d="M229.539 427.283C229.732 427.521 229.928 427.757 230.118 427.996C234.677 433.726 238.282 441.682 243.517 448.244C257.07 465.231 275.701 479.922 294.767 490.241Q301.581 493.904 308.522 497.32C311.012 498.522 313.913 499.556 316.25 501.002C304.914 512.334 293.445 523.577 282.326 535.119C276.566 532.83 271.347 529.562 266.102 526.299C265.755 524.997 265.303 524.213 264.321 523.267C260.491 519.58 255.817 516.59 251.604 513.349Q243.631 507.159 236.795 499.732C227.459 489.57 220.873 477.457 214.389 465.391C213.212 460.635 211.757 455.933 210.399 451.224L210.711 450.496C217.089 442.833 222.762 434.634 229.539 427.283Z"/>
	<path fill="#A6E6E9" d="M390.813 286.167C400.614 285.703 409.224 286.846 417.44 292.594Q418.226 293.148 418.984 293.741Q419.742 294.333 420.47 294.963Q421.197 295.593 421.892 296.258Q422.587 296.923 423.248 297.622Q423.909 298.321 424.535 299.052Q425.16 299.783 425.748 300.545Q426.336 301.306 426.886 302.096Q427.435 302.886 427.944 303.702Q428.454 304.518 428.922 305.359Q429.39 306.199 429.815 307.062Q430.241 307.925 430.623 308.808Q431.005 309.691 431.342 310.592Q431.68 311.493 431.972 312.41Q432.264 313.326 432.51 314.257Q432.756 315.187 432.955 316.128Q433.155 317.069 433.307 318.019Q433.46 318.898 433.57 319.784Q433.68 320.67 433.746 321.561Q433.812 322.451 433.834 323.343Q433.857 324.236 433.835 325.128Q433.813 326.021 433.748 326.911Q433.682 327.802 433.573 328.688Q433.464 329.574 433.311 330.453Q433.159 331.333 432.963 332.204Q432.767 333.075 432.529 333.935Q432.29 334.795 432.01 335.643Q431.73 336.491 431.408 337.323Q431.086 338.156 430.724 338.972Q430.362 339.788 429.96 340.585Q429.558 341.382 429.117 342.159Q428.676 342.935 428.198 343.689Q427.72 344.443 427.205 345.172C420.336 354.725 410.177 358.951 398.898 360.858C389.051 362.009 378.57 359.517 370.61 353.55Q369.87 353.007 369.159 352.427Q368.447 351.848 367.765 351.234Q367.083 350.62 366.432 349.974Q365.781 349.327 365.162 348.648Q364.544 347.97 363.96 347.262Q363.376 346.554 362.828 345.819Q362.28 345.083 361.768 344.32Q361.257 343.558 360.784 342.772Q360.311 341.985 359.878 341.176Q359.445 340.367 359.052 339.538Q358.659 338.709 358.308 337.861Q357.956 337.013 357.647 336.149Q357.338 335.285 357.072 334.407Q356.806 333.528 356.584 332.638Q356.362 331.748 356.184 330.847Q356.006 329.947 355.873 329.039Q355.746 328.129 355.664 327.214Q355.581 326.299 355.544 325.382Q355.507 324.464 355.514 323.545Q355.522 322.626 355.575 321.709Q355.628 320.792 355.726 319.879Q355.823 318.965 355.966 318.058Q356.108 317.15 356.295 316.251Q356.482 315.352 356.713 314.462Q356.943 313.573 357.217 312.697Q357.492 311.82 357.808 310.957Q358.125 310.095 358.484 309.25Q358.843 308.404 359.242 307.577Q359.642 306.75 360.082 305.943Q360.522 305.137 361.001 304.353Q361.48 303.569 361.997 302.81Q362.514 302.05 363.067 301.317C369.86 292.341 379.832 287.612 390.813 286.167Z"/>
	<path fill="#60D19B" d="M511.465 303.488L511.899 303.437Q520.938 309.386 529.458 316.056Q537.979 322.726 545.924 330.072L545.974 330.3C542.594 332.365 539.543 336.63 536.685 339.5Q528.858 347.283 520.885 354.916L409.639 462.827Q391.1 480.376 372.933 498.308C367.829 503.353 361.484 508.617 357.369 514.488L357.07 514.494C351.885 511.258 343.557 510.169 337.703 508.282C330.61 505.995 323.624 503.319 316.566 500.915L433.556 383.171C459.808 356.911 486.447 330.939 511.465 303.488Z"/>
</svg>
