<?xml version="1.0" encoding="utf-8" ?>
<svg xmlns="http://www.w3.org/2000/svg" xmlns:xlink="http://www.w3.org/1999/xlink" width="1024" height="1024">
	<g>
		<path d="M582.577 113.799C596.801 106.186 618.486 93.8788 634.729 94.8062C638.479 95.0204 642.106 96.286 645.51 97.8103C653.607 101.437 661.399 106.191 669.183 110.47L704.026 129.412C720.731 138.547 738.283 146.412 754.098 157.083Q757.889 159.62 761.495 162.413Q765.102 165.206 768.506 168.242Q771.91 171.278 775.096 174.542Q778.282 177.807 781.234 181.284C803.676 207.621 817.126 244.215 814.145 279.02C813.603 285.35 811.888 289.269 807.011 293.328C806.14 334.349 807.196 375.418 806.227 416.434C812.673 420.212 819.102 424.1 825.72 427.57C834.46 432.152 845.906 435.236 852.863 442.391C861.407 451.178 859.699 466.071 859.474 477.285C857.491 483.726 857.801 505.153 858.822 512.077C858.92 512.737 859.012 513.396 859.117 514.055C858.162 519.792 854.846 523.853 850.926 527.885Q850.964 543.025 851.185 558.164C851.551 579.568 852.123 599.826 841.718 619.365C835.022 631.938 823.991 640.25 810.462 644.402C810.483 680.351 806.454 708.454 780.812 735.876C772.626 744.631 762.954 751.912 752.792 758.208C730.164 772.228 706.094 783.848 682.594 796.288Q639.863 819.346 597.482 843.038L515.938 888.772C505.418 894.713 491.805 903.915 481.306 908.621C473.509 912.116 464.762 913.757 456.254 914.026C444.403 914.401 432.539 911.937 421.528 907.645C408.083 902.404 395.907 894.965 383.455 887.783C373.845 882.242 364.064 876.968 354.354 871.603L304.987 844.311C292.245 837.263 277.204 830.841 266.638 820.756C253.55 808.265 244.67 789.951 242.199 772.094C241.162 764.598 241.166 756.791 240.996 749.228C220.279 743.384 203.164 743.371 187.307 726.289Q185.809 724.675 184.422 722.965Q183.035 721.255 181.765 719.457Q180.495 717.658 179.347 715.779Q178.199 713.901 177.179 711.95Q176.158 709.999 175.27 707.984Q174.381 705.97 173.628 703.901Q172.876 701.832 172.262 699.717Q171.649 697.603 171.177 695.452C168.936 685.047 169.53 674.301 169.603 663.73L169.722 631.783C169.739 602.085 168.788 572.192 170.006 542.522C167.478 540.772 164.759 538.959 162.914 536.459C158.488 530.459 159.646 508.711 160.665 500.99C161.603 493.881 164.232 491.518 169.677 487.357C173.112 476.261 174.874 464.725 178.3 453.623C188.404 420.887 209.157 390.656 233.217 366.568C232.422 356.866 231.785 339.566 234.222 330.486C235.519 325.651 238.051 321.53 241.617 318.048C249.743 310.11 276.752 296.769 288.224 290.12Q288.365 286.237 288.952 282.397C289.946 275.971 292.405 269.242 296.779 264.323C303.02 257.304 313.198 253.145 321.313 248.609C332.375 242.426 344.268 236.215 354.453 228.692C354.47 214.665 351.636 191.896 357.618 179.594C359.263 176.211 362.017 172.92 365.209 170.901C371.395 166.989 378.957 165.245 385.394 161.572C401.975 152.112 418.524 142.425 434.85 132.533C448.276 124.398 471.974 108.386 485.972 104.129C499.98 99.8686 518.902 112.235 530.583 118.781C539.768 113.116 548.857 107.341 558.807 103.086C567.081 105.716 574.773 110.047 582.577 113.799ZM225.672 547.907L225.993 635.619C226.008 648.943 224.645 666.929 226.186 679.536C226.635 683.206 228.037 686.517 230.181 689.511C233.49 692.836 236.6 694.285 240.971 695.726Q241.918 612.562 240.92 529.399C240.904 522.474 241.662 474.788 240.545 471.813C236.488 479.319 232.543 488.926 231.782 497.493C230.699 509.675 236.71 532.993 230.186 543.663C229.137 545.378 227.235 546.678 225.672 547.907Z"/>
		<path fill="#F3953F" d="M572.796 196.301C577.556 201.526 584.282 204.936 590.419 208.289C603.774 215.586 618.412 222.353 628.903 233.728C646.22 253.95 655.317 280.815 663.902 305.598C668.99 323.925 672.321 344.98 672.571 363.958C665.53 368.763 657.633 372.559 650.141 376.622Q632.962 385.909 615.893 395.396L575.318 417.983C567.289 422.479 559.256 427.493 550.827 431.188Q543.725 404.853 534.732 379.102C525.734 355.01 509.968 329.81 492.081 311.337C478.669 299.911 464.225 291.114 449.031 282.293C451.084 280.824 452.888 279.341 454.723 277.607C454.457 272.734 454.457 267.889 454.488 263.012C485.047 246.697 515.108 229.136 545.287 212.113C554.502 206.914 563.419 201.213 572.796 196.301Z"/>
		<path fill="#CC6418" d="M572.796 196.301C577.556 201.526 584.282 204.936 590.419 208.289C603.774 215.586 618.412 222.353 628.903 233.728C616.608 241.203 603.687 247.711 591.13 254.741L528.589 290.341Q516.593 297.019 504.672 303.831C500.473 306.223 495.967 308.46 492.081 311.337C478.669 299.911 464.225 291.114 449.031 282.293C451.084 280.824 452.888 279.341 454.723 277.607C454.457 272.734 454.457 267.889 454.488 263.012C485.047 246.697 515.108 229.136 545.287 212.113C554.502 206.914 563.419 201.213 572.796 196.301Z"/>
		<path fill="#A44D4B" d="M663.902 305.598C668.99 323.925 672.321 344.98 672.571 363.958C665.53 368.763 657.633 372.559 650.141 376.622Q632.962 385.909 615.893 395.396L575.318 417.983C567.289 422.479 559.256 427.493 550.827 431.188Q543.725 404.853 534.732 379.102C538.725 377.386 542.703 374.507 546.473 372.285Q557.122 366.039 567.922 360.057L632.628 323.502C642.621 317.908 655.077 312.727 663.902 305.598Z"/>
		<path fill="#7A5228" d="M295.919 561.149C305.238 565.23 313.878 570.509 322.656 575.612L356.762 595.448C369.242 602.653 388.227 611.216 398.575 620.609L398.731 621.3C397.293 622.935 394.582 624.061 392.458 624.487C388.099 627.209 384.879 630.499 381.581 634.408C378.803 639.094 376.249 643.9 375.355 649.333C372.908 664.21 374.563 680.7 374.696 695.778L374.997 766.78C375.096 777.472 376.891 793.901 372.743 803.624C372.145 805.026 371.53 805.645 370.139 806.213C367.46 805.939 365.013 804.719 362.614 803.56C351.626 798.247 341.072 791.826 330.318 786.037C316.526 778.613 302.187 771.534 288.773 763.487C279.887 758.156 272.631 749.77 270.208 739.504C267.01 725.952 268.495 710.572 268.497 696.666L268.493 636.885Q268.522 622.57 268.407 608.256C268.346 601.851 267.846 595.022 268.744 588.685C269.513 583.261 272.253 578.556 275.071 573.974C278.603 569.651 282.729 566.432 287.564 563.696C290.3 562.596 293.068 561.875 295.919 561.149Z"/>
		<path fill="#F3953F" d="M295.919 561.149C305.238 565.23 313.878 570.509 322.656 575.612L356.762 595.448C369.242 602.653 388.227 611.216 398.575 620.609L398.731 621.3C397.293 622.935 394.582 624.061 392.458 624.487C388.099 627.209 384.879 630.499 381.581 634.408C372.261 631.915 360.404 622.587 351.763 617.627C326.239 602.978 300.851 588.159 275.071 573.974C278.603 569.651 282.729 566.432 287.564 563.696C290.3 562.596 293.068 561.875 295.919 561.149Z"/>
		<path fill="#7A5228" d="M295.919 561.149C305.238 565.23 313.878 570.509 322.656 575.612L356.762 595.448C369.242 602.653 388.227 611.216 398.575 620.609L398.731 621.3C397.293 622.935 394.582 624.061 392.458 624.487C388.861 619.943 372.36 611.716 366.395 608.258C351.113 599.397 335.964 590.249 320.528 581.66C309.597 575.578 298.349 570.031 287.564 563.696C290.3 562.596 293.068 561.875 295.919 561.149Z"/>
		<path d="M310.095 633.022C319.629 634.403 329.565 641.217 335.85 648.282Q336.018 650.608 336.061 652.94C336.21 661.931 334.796 668.906 328.298 675.584C326.496 675.903 325.137 675.767 323.383 675.255C316.314 673.189 310.453 667.748 307.106 661.277C304.003 655.279 301.672 645.968 303.909 639.406C305.093 635.931 306.857 634.542 310.095 633.022Z"/>
		<path fill="#7A5228" d="M307.882 645.633C313.693 647.968 319.592 652.016 325.106 655.086C326.387 660.153 326.975 664.002 325.469 669.151L323.984 669.845C321.04 669.66 318.474 669.047 316.18 667.086C309.747 661.583 308.482 653.556 307.882 645.633Z"/>
		<path fill="#FDDE83" d="M310.318 637.969C313.888 638.803 317.724 640.997 320.984 642.661C323.754 644.074 328.839 646.32 329.839 649.378C328.898 649.486 327.924 649.531 326.986 649.374C322.571 648.634 313.287 644.218 310.66 640.49C309.939 639.467 310.144 639.152 310.318 637.969Z"/>
		<path fill="#7A5228" d="M250.481 411.319L344.221 463.195C361.762 472.751 379.578 481.395 396.703 491.739C396.968 505.857 396.475 519.901 397.177 534.026C397.518 535.866 397.462 537.338 397.257 539.193C396.735 544.953 396.952 550.847 396.935 556.63L396.987 562.111C396.988 566.98 396.836 571.903 397.099 576.763C397.53 580.062 397.507 583.294 397.481 586.613Q397.13 597.929 396.968 609.25C384.592 603.562 373.57 595.764 361.711 589.155L288.712 548.281C275.831 540.994 263.21 533.233 250.077 526.402C249.797 512.724 250.19 498.964 250.26 485.279L250.481 411.319Z"/>
		<path fill="#461C0E" d="M262.533 456.818C287.987 473.454 316.605 488.433 343.1 503.782L371.965 520.638C379.763 525.225 388.52 531.468 397.177 534.026C397.518 535.866 397.462 537.338 397.257 539.193C396.735 544.953 396.952 550.847 396.935 556.63L396.987 562.111C396.988 566.98 396.836 571.903 397.099 576.763C397.53 580.062 397.507 583.294 397.481 586.613C377.633 577.022 358.636 564.496 339.619 553.338C313.823 538.202 287.545 523.639 262.189 507.79C262.72 490.827 262.492 473.79 262.533 456.818Z"/>
		<path fill="#7A5228" d="M366.018 544.07C376.521 549.808 386.602 556.187 396.987 562.111C396.988 566.98 396.836 571.903 397.099 576.763C397.048 578.199 397.229 579.821 396.55 581.099C392.962 579.565 389.92 577.451 386.546 575.532C379.515 571.536 372.498 567.562 365.598 563.339Q365.361 553.695 366.018 544.07Z"/>
		<path fill="#7A5228" d="M365.022 520.849Q381.031 530.212 397.257 539.193C396.735 544.953 396.952 550.847 396.935 556.63C389.743 555.219 372.229 542.835 365.07 538.341C364.906 532.524 365.025 526.67 365.022 520.849Z"/>
		<path fill="#7A5228" d="M299.512 484.048C309.58 487.662 319.435 494.635 328.613 500.173C328.315 513.89 328.488 527.642 328.484 541.364C318.43 537.305 308.729 530.27 299.513 524.542L299.512 484.048Z"/>
		<path fill="#7A5228" d="M333.44 503.188C342.727 507.16 351.608 513.045 360.097 518.471C359.644 532.391 360.425 546.351 360.565 560.275C351.122 555.679 342.122 549.821 333.108 544.437Q332.999 523.81 333.44 503.188Z"/>
		<path fill="#7A5228" d="M266.654 486.572C276.348 489.518 286.266 496.703 295.007 501.914Q295.072 512.037 294.921 522.16Q280.53 514.074 266.571 505.264Q266.507 495.917 266.654 486.572Z"/>
		<path fill="#7A5228" d="M267.007 464.758C276.711 469.323 285.847 475.361 295.002 480.929L294.964 496.284C285.103 492.513 276.051 486.254 266.978 480.913L267.007 464.758Z"/>
		<path fill="#7A5228" d="M323.912 277.468C345.929 286.316 365.694 298.487 386.054 310.507C400.157 318.834 415.331 325.68 428.67 335.223C449.084 349.827 468.127 382.174 477.979 405.25C485.758 423.471 490.124 442.454 493.157 461.971C484.01 467.379 474.487 472.114 465.199 477.274C452.069 484.569 438.904 492.462 425.013 498.232C424.954 483.604 425.59 457.613 421.747 444.143C414.325 419.901 398.21 396.31 380.751 378.128C379.987 377.039 378.803 375.97 377.895 374.978C374.702 372.456 370.386 370.103 366.553 368.745C366.393 368.688 366.232 368.636 366.071 368.582L366.401 368.413L365.741 369.574L366.04 369.726L366.253 370.797C359.328 366.688 352.782 361.522 345.974 357.16Q322.357 342.002 297.912 328.219C287.576 322.307 277.286 315.702 265.548 313.015Q289.683 298.873 314.181 285.37C317.599 282.917 320.917 280.437 323.912 277.468Z"/>
		<path fill="#CC6418" d="M314.181 285.37C337.005 298.008 359.49 311.55 382.059 324.654C393.521 331.309 411.197 340.32 421.25 348.316C406.939 357.161 391.01 364.384 377.895 374.978C374.702 372.456 370.386 370.103 366.553 368.745C366.393 368.688 366.232 368.636 366.071 368.582L366.401 368.413L365.741 369.574L366.04 369.726L366.253 370.797C359.328 366.688 352.782 361.522 345.974 357.16Q322.357 342.002 297.912 328.219C287.576 322.307 277.286 315.702 265.548 313.015Q289.683 298.873 314.181 285.37Z"/>
		<path fill="#F3953F" d="M421.25 348.316Q423.49 349.832 425.663 351.443Q427.836 353.053 429.938 354.756Q432.04 356.459 434.066 358.25Q436.093 360.042 438.04 361.919Q439.988 363.796 441.853 365.755Q443.718 367.714 445.497 369.751Q447.277 371.789 448.967 373.901Q450.657 376.012 452.254 378.195Q453.852 380.378 455.354 382.627Q456.856 384.876 458.261 387.188Q459.665 389.5 460.968 391.87Q462.272 394.24 463.472 396.664Q464.673 399.088 465.768 401.561Q466.863 404.035 467.85 406.553Q468.838 409.071 469.717 411.629Q470.595 414.187 471.363 416.781Q452.877 427.502 434.069 437.646C430.368 439.671 425.744 443.078 421.747 444.143C414.325 419.901 398.21 396.31 380.751 378.128C379.987 377.039 378.803 375.97 377.895 374.978C391.01 364.384 406.939 357.161 421.25 348.316Z"/>
		<path fill="#7A5228" d="M840.759 532.421L841.599 532.777C842.067 536.973 841.549 541.573 841.537 545.825L841.489 574.732C841.361 592.801 839.283 612.532 825.626 625.803Q822.289 629.048 818.285 631.423C809.967 636.443 800.91 640.589 792.36 645.271L739.987 674.369Q724.485 682.933 709.089 691.687C701.641 695.939 694.21 700.569 686.387 704.088C681.171 706.435 675.95 707.927 670.197 707.827C661.046 707.668 652.675 705.048 646.276 698.217C637.232 688.562 638.113 676.224 638.48 663.982L638.558 610.635C645.761 616.416 654.676 622.498 663.782 624.702C667.02 625.486 670.196 625.506 673.421 624.649C683.616 621.939 700.725 610.144 710.313 604.384C712.542 605.577 714.704 606.333 717.105 607.063C720.702 605.212 724.118 602.94 727.559 600.812C727.52 607.853 725.242 617.821 728.638 624.189C730.205 627.126 732.613 627.837 735.603 628.784C743.738 624.687 765.294 613.65 770.947 607.722C777.118 601.25 774.66 583.777 774.478 575.014C777.541 573.057 780.971 571.103 783.676 568.672C786.089 566.503 786.7 565.423 786.929 562.233C789.67 556.568 832.418 536.459 840.759 532.421Z"/>
		<path fill="#7A5228" d="M255.542 320.26C261.801 319.977 267.744 319.667 273.717 321.873C280.766 324.477 287.301 329.303 293.674 333.269L320.935 350.203C335.186 359.012 351.212 366.723 364.15 377.371C380.248 390.621 403.958 428.945 407.842 449.236C410.686 464.095 409.757 479.618 411.161 494.656L402.787 489.699Q323.171 442.37 242.52 396.829C242.537 387.704 241.21 340.146 243.39 334.818C245.48 329.709 250.339 322.422 255.542 320.26Z"/>
		<path fill="#F3953F" d="M684.525 362.696C684.758 370.302 685.844 378.709 684.645 386.224C683.98 390.389 681.622 394.247 681.485 398.515C681.126 409.697 682.037 421.191 682.083 432.423C682.1 436.386 682.526 440.767 681.713 444.65C681.015 444.658 680.344 444.628 679.645 444.593C678.544 444.538 677.55 444.646 676.46 444.792C685.039 446.848 687.009 451.731 694.528 455.518L694.622 472.278C686.983 476.895 678.433 482.45 669.987 485.412C632.657 508.51 593.097 527.276 555.032 549.023C554.929 546.115 554.747 543.205 554.603 540.299C559.46 537.954 564.38 535.563 568.01 531.442C570.499 528.614 572.018 525.29 572.846 521.635C574.619 513.804 573.929 485.756 573.342 476.546C572.46 473.653 571.34 471.096 569.989 468.396C568.959 467.386 567.864 466.403 566.671 465.587C562.5 462.733 557.998 463.638 553.405 464.552C553.455 459.393 553.187 454.268 552.919 449.118C552.046 444.312 552.283 439.484 551.258 434.632C569.224 425.815 586.372 415.835 603.84 406.1Q638.454 386.721 673.457 368.054C677.169 366.341 680.933 364.646 684.525 362.696Z"/>
		<path fill="#F3953F" d="M684.525 362.696C684.758 370.302 685.844 378.709 684.645 386.224C683.98 390.389 681.622 394.247 681.485 398.515C681.126 409.697 682.037 421.191 682.083 432.423C682.1 436.386 682.526 440.767 681.713 444.65C681.015 444.658 680.344 444.628 679.645 444.593C678.544 444.538 677.55 444.646 676.46 444.792C675.597 444.544 674.11 444.368 673.562 443.621C672.615 442.329 672.641 440.771 672.781 439.245C672.981 437.054 672.974 434.884 672.981 432.686L673.089 420.948C666.352 424.362 659.708 427.973 652.997 431.44Q653.003 425.882 652.918 420.325C652.777 421.509 652.911 423.552 651.932 424.376C649.374 426.527 635.443 432.961 631.703 434.952C611.028 445.961 590.363 456.856 569.989 468.396C568.959 467.386 567.864 466.403 566.671 465.587C562.5 462.733 557.998 463.638 553.405 464.552C553.455 459.393 553.187 454.268 552.919 449.118C552.046 444.312 552.283 439.484 551.258 434.632C569.224 425.815 586.372 415.835 603.84 406.1Q638.454 386.721 673.457 368.054C677.169 366.341 680.933 364.646 684.525 362.696Z"/>
		<path fill="#7A5228" d="M684.525 362.696C684.758 370.302 685.844 378.709 684.645 386.224C683.98 390.389 681.622 394.247 681.485 398.515C681.126 409.697 682.037 421.191 682.083 432.423C682.1 436.386 682.526 440.767 681.713 444.65C681.015 444.658 680.344 444.628 679.645 444.593C678.544 444.538 677.55 444.646 676.46 444.792C675.597 444.544 674.11 444.368 673.562 443.621C672.615 442.329 672.641 440.771 672.781 439.245C672.981 437.054 672.974 434.884 672.981 432.686L673.089 420.948C666.352 424.362 659.708 427.973 652.997 431.44Q653.003 425.882 652.918 420.325C653.183 409.465 654.408 398.644 654.544 387.79C622.222 405.75 590.882 425.755 558.051 442.743C557.09 443.24 553.46 444.743 553.201 445.636C552.872 446.767 552.929 447.951 552.919 449.118C552.046 444.312 552.283 439.484 551.258 434.632C569.224 425.815 586.372 415.835 603.84 406.1Q638.454 386.721 673.457 368.054C677.169 366.341 680.933 364.646 684.525 362.696Z"/>
		<path fill="#461C0E" d="M684.525 362.696C684.758 370.302 685.844 378.709 684.645 386.224C683.98 390.389 681.622 394.247 681.485 398.515C681.126 409.697 682.037 421.191 682.083 432.423C682.1 436.386 682.526 440.767 681.713 444.65C681.015 444.658 680.344 444.628 679.645 444.593C678.544 444.538 677.55 444.646 676.46 444.792C675.597 444.544 674.11 444.368 673.562 443.621C672.615 442.329 672.641 440.771 672.781 439.245C672.981 437.054 672.974 434.884 672.981 432.686L673.089 420.948C673.73 412.938 675.82 374.299 673.457 368.054C677.169 366.341 680.933 364.646 684.525 362.696Z"/>
		<path fill="#7A5228" d="M653.394 445.146C658.426 441.718 668.024 437.976 670.159 432.184C670.422 431.469 670.189 431.761 670.772 431.332L672.981 432.686C672.974 434.884 672.981 437.054 672.781 439.245C672.641 440.771 672.615 442.329 673.562 443.621C674.11 444.368 675.597 444.544 676.46 444.792C685.039 446.848 687.009 451.731 694.528 455.518L694.622 472.278C686.983 476.895 678.433 482.45 669.987 485.412C670.625 483.851 671.127 482.353 671.512 480.71C670.453 479.249 663.485 478.191 661.372 477.138C658.66 475.787 656.742 474.057 654.695 471.896C653.26 463.015 653.447 454.112 653.394 445.146Z"/>
		<path fill="#A44D4B" d="M569.989 468.396C590.363 456.856 611.028 445.961 631.703 434.952C635.443 432.961 649.374 426.527 651.932 424.376C652.911 423.552 652.777 421.509 652.918 420.325Q653.003 425.882 652.997 431.44C659.708 427.973 666.352 424.362 673.089 420.948L672.981 432.686L670.772 431.332C670.189 431.761 670.422 431.469 670.159 432.184C668.024 437.976 658.426 441.718 653.394 445.146Q652.768 438.728 652.378 432.292C646.294 436.323 631.235 442.656 627.511 448.047L626.656 448.071C619.909 449.972 605.921 458.654 599.824 462.64C600.798 472.139 607.189 504.432 601.981 511.129C601.3 511.331 601.008 511.634 600.348 511.219C597.867 509.657 597.024 504.97 596.648 502.263C594.893 489.654 596.828 475.847 598.824 463.324C590.364 467.608 581.41 471.579 573.342 476.546C572.46 473.653 571.34 471.096 569.989 468.396Z"/>
		<path fill="#7A5228" d="M626.656 448.071L627.511 448.047C626.719 460.951 633.719 474.426 633.031 487.611C632.866 490.763 632.473 495.649 630.038 497.86C629.14 497.694 629.265 497.903 628.799 497.254C621.814 487.529 625.225 459.799 626.656 448.071Z"/>
		<path fill="#7A5228" d="M612.622 653.432L613.295 653.787C613.317 654.146 613.346 654.504 613.356 654.863C613.631 664.183 613.119 673.707 613.109 683.055C613.088 703.907 615.749 727.83 600.216 744.267C597.06 747.607 593.423 750.382 589.547 752.834C573.615 762.91 554.713 771.953 538.037 781.29C523.42 789.475 509.15 799.617 493.685 806.104Q491.334 807.096 488.901 807.865Q486.469 808.634 483.974 809.173Q481.48 809.712 478.947 810.016Q476.414 810.32 473.863 810.386C461.719 810.584 447.929 806.984 439.079 798.266C429.27 788.605 428.089 775.866 428.007 762.827C428.456 745.266 428.147 727.667 428.05 710.1C439.857 716.986 452.784 724.091 465.913 727.988C471.934 721.88 494.997 711.142 503.79 705.805C509.166 707.673 514.436 710.177 519.676 712.418C523.383 711.317 526.903 709.553 530.419 707.954C530.396 713.485 529.254 727.488 533.134 731.882C533.896 732.745 534.7 732.841 535.792 732.892C539.157 733.049 542.836 731.754 545.911 730.439C550.118 728.64 579.423 712.318 581.443 709.976C584.064 706.936 582.597 685.268 582.552 680.393C585.474 678.493 587.728 676.462 589.893 673.751C590.147 671.113 590.218 668.537 590.221 665.89C597.806 661.96 605.518 658.196 612.622 653.432Z"/>
		<path fill="#F3953F" d="M560.482 113.655C580.224 121.778 598.794 131.682 617.82 141.305C629.152 147.037 641.118 152.047 651.743 159.042C661.012 165.145 670.722 173.035 677.37 181.936C700.201 201.126 717.402 243.954 726.522 271.89C729.137 279.899 731.878 287.807 733.299 296.136Q737.034 310.823 738.499 325.906C739.102 331.689 739.05 338.154 740.193 343.808C740.756 347.615 740.549 351.576 740.529 355.419C725.814 362.007 712.125 370.597 697.491 377.324L697.52 370.712Q697.452 361.528 696.738 352.372Q696.025 343.216 694.67 334.133Q693.316 325.049 691.326 316.084Q689.336 307.118 686.722 298.314C676.666 263.745 653.334 209.304 623.081 188.581C607.125 177.651 587.904 170.869 570.909 161.543C566.199 159.295 561.539 156.916 556.86 154.6C555.752 151.725 554.81 148.766 553.803 145.853C549.824 138.141 545.297 131.347 539.07 125.259C546.074 121.016 553.007 117.038 560.482 113.655Z"/>
		<path fill="#FDDE83" d="M733.299 296.136C732.931 296.299 732.448 296.325 732.049 296.391C728.468 293.406 721.229 268.319 718.701 262.175C708.924 238.42 697.853 215.071 682.073 194.64C679.55 191.373 672.715 184.088 671.628 180.631C671.272 179.496 671.367 179.342 671.93 178.326L673.239 178.724C674.182 179.869 675.073 181.151 676.52 181.665C676.8 181.765 677.087 181.846 677.37 181.936C700.201 201.126 717.402 243.954 726.522 271.89C729.137 279.899 731.878 287.807 733.299 296.136Z"/>
		<path fill="#7A5228" d="M740.193 343.808C740.756 347.615 740.549 351.576 740.529 355.419C725.814 362.007 712.125 370.597 697.491 377.324L697.52 370.712Q707.07 365.082 716.98 360.115C722.345 357.379 735.571 351.778 739.332 348.196C740.371 347.206 740.147 345.158 740.193 343.808Z"/>
		<path fill="#FDDE83" d="M558.249 143.806C560.441 146.612 562.368 148.032 565.967 148.512C569.775 149.019 573.807 148.049 577.48 147.125C577.969 151.713 576.317 155.202 573.475 158.725C572.682 159.709 571.782 160.63 570.909 161.543C566.199 159.295 561.539 156.916 556.86 154.6C555.752 151.725 554.81 148.766 553.803 145.853C555.54 145.358 556.75 144.821 558.249 143.806Z"/>
		<path d="M558.249 143.806C559.511 140.608 560.947 138.954 564.194 137.628C568.195 135.994 573.633 135.795 577.596 137.652C579.093 138.354 580.738 139.578 581.121 141.287C581.416 142.608 581.017 143.801 580.227 144.859C579.586 145.719 578.364 146.534 577.48 147.125C573.807 148.049 569.775 149.019 565.967 148.512C562.368 148.032 560.441 146.612 558.249 143.806Z"/>
		<path fill="#827C89" d="M563.08 140.382C566.537 138.737 571.942 137.239 575.696 138.707C577.073 139.245 577.478 139.913 578.197 141.147C578.199 141.967 578.237 142.757 578.101 143.567C577.742 143.812 577.385 144.063 577.008 144.279C573.401 146.339 567.058 146.282 563.159 144.933C561.941 144.511 561.461 144.228 560.902 143.077C561.283 141.692 562.002 141.218 563.08 140.382Z"/>
		<path fill="#525160" d="M563.08 140.382L563.863 140.66C571.638 143.473 569.769 143.475 578.101 143.567C577.742 143.812 577.385 144.063 577.008 144.279C573.401 146.339 567.058 146.282 563.159 144.933C561.941 144.511 561.461 144.228 560.902 143.077C561.283 141.692 562.002 141.218 563.08 140.382Z"/>
		<path d="M700.886 271.561C702.651 271.654 704.314 271.885 705.977 272.529C707.819 273.242 709.495 274.648 710.271 276.494C711.187 278.67 710.85 281.207 709.814 283.277C707.813 287.274 704.677 288.626 700.676 289.943C698.962 289.796 697.218 289.677 695.596 289.059C693.567 288.286 691.76 286.769 691.007 284.687C690.233 282.547 690.645 280.106 691.67 278.126C693.705 274.189 696.878 272.766 700.886 271.561Z"/>
		<path fill="#827C89" d="M692.979 280.459C694.505 277.372 695.926 275.228 699.295 274.035C701.243 273.345 703.747 273.075 705.585 274.229C706.974 275.102 707.714 276.487 707.919 278.072C708.144 279.812 707.725 281.441 707.256 283.106C704.87 284.668 702.494 285.775 699.881 286.89C698.016 286.44 695.392 285.926 694.059 284.452C692.929 283.203 692.934 282.019 692.979 280.459Z"/>
		<path fill="#21305C" d="M699.881 286.89C698.016 286.44 695.392 285.926 694.059 284.452C692.929 283.203 692.934 282.019 692.979 280.459C697.353 282.766 702.422 282.726 707.256 283.106C704.87 284.668 702.494 285.775 699.881 286.89Z"/>
		<path d="M668.314 203.577C670.304 203.426 672.494 203.269 674.444 203.758C676.589 204.297 678.794 205.63 679.826 207.65C680.699 209.358 680.691 211.238 680.019 213.011C678.694 216.513 675.738 218.143 672.532 219.672C670.021 220.091 667.49 220.431 665.062 219.47C662.988 218.65 661.194 217.108 660.386 214.994C659.614 212.972 659.781 210.813 660.742 208.887C662.351 205.661 665.111 204.672 668.314 203.577Z"/>
		<path fill="#827C89" d="M664.223 215.056C663.252 213.757 662.571 212.873 662.313 211.215C662.584 209.911 662.854 209.006 663.757 207.994C665.561 205.972 668.469 205.005 671.111 204.853C673.273 204.729 675.709 205.219 677.313 206.772C678.867 208.276 678.835 210.025 678.907 212.04C677.296 214.061 675.6 215.241 673.353 216.48C669.91 216.535 667.39 216.605 664.223 215.056Z"/>
		<path fill="#525160" d="M664.223 215.056C664.686 214.255 665.354 212.805 666.123 212.289C667.352 211.466 669.99 211.571 671.392 211.739C673.893 212.038 676.391 212.019 678.907 212.04C677.296 214.061 675.6 215.241 673.353 216.48C669.91 216.535 667.39 216.605 664.223 215.056Z"/>
		<defs>
			<linearGradient id="gradient_0" gradientUnits="userSpaceOnUse" x1="414.09439" y1="457.06592" x2="456.73325" y2="261.72388">
				<stop offset="0" stop-color="#E9942D"/>
				<stop offset="1" stop-color="#FFCA6A"/>
			</linearGradient>
		</defs>
		<path fill="url(#gradient_0)" d="M509.022 479.364C508.176 452.647 503.607 423.962 493.688 399.046C488.145 385.119 480.493 371.653 472.374 359.082C466.305 349.684 459.883 340.199 451.97 332.241C439.929 320.13 423.223 312.516 408.528 304.13Q386.743 291.589 364.827 279.279C356.871 274.813 348.988 269.335 340.802 265.419C337.508 263.844 325.354 259.194 322.31 259.31C322.07 259.319 321.831 259.342 321.591 259.358L321.516 258.62C325.645 254.019 351.067 239.776 356.672 239.631C362.608 239.478 369.6 242.603 374.933 244.931C395.734 254.012 414.929 266.08 434.485 277.473C451.55 287.416 473.017 297.905 487.137 311.474C494.072 317.76 499.336 325.552 504.654 333.193C523.558 360.355 531.144 378.662 540.646 410.094C542.908 417.577 545.645 425.353 546.783 433.098C549.045 442.191 549.267 451.656 549.529 460.98C549.545 462.529 549.856 464.365 548.892 465.665C539.209 472.539 519.813 480.237 508.416 485.379C508.614 483.38 508.752 481.354 509.022 479.364Z"/>
		<path fill="#FDDE83" d="M487.137 311.474C494.072 317.76 499.336 325.552 504.654 333.193C523.558 360.355 531.144 378.662 540.646 410.094C542.908 417.577 545.645 425.353 546.783 433.098C544.179 432.973 543.452 430.372 542.568 428.278C538.311 418.189 535.283 407.484 531.606 397.162C523.438 374.241 514.978 356.401 501.317 336.229C496.288 328.804 491 320.875 483.137 316.271C483.417 314.985 484.552 315.721 485.685 314.914C485.973 313.522 486.115 312.547 487.137 311.474Z"/>
		<path fill="#7A5228" d="M509.022 479.364C523.062 476.355 536.355 466.654 549.529 460.98C549.545 462.529 549.856 464.365 548.892 465.665C539.209 472.539 519.813 480.237 508.416 485.379C508.614 483.38 508.752 481.354 509.022 479.364Z"/>
		<path d="M508.962 384.138C511.02 384.292 512.865 384.543 514.738 385.469C516.642 386.409 518.253 388.009 518.844 390.089C519.472 392.299 518.983 394.652 517.745 396.556C515.496 400.015 512.275 400.769 508.512 401.583C506.288 401.222 504.048 400.902 502.049 399.787C500.141 398.723 498.509 396.927 497.988 394.768C497.539 392.911 497.983 390.999 499.021 389.418C501.346 385.879 505.079 384.924 508.962 384.138Z"/>
		<path fill="#827C89" d="M500.318 391.939C502.225 388.808 504.183 386.714 507.903 385.925C509.885 385.504 512.041 385.645 513.786 386.752C515.736 387.991 516.629 389.942 516.983 392.155C517.102 392.893 517.116 393.611 517.099 394.356C515.619 395.775 514.191 396.808 512.241 397.508C509.644 398.439 506.869 398.707 504.349 397.388C501.986 396.151 501.158 394.362 500.318 391.939Z"/>
		<path fill="#525160" d="M500.318 391.939C506.056 394.349 510.948 394.611 517.099 394.356C515.619 395.775 514.191 396.808 512.241 397.508C509.644 398.439 506.869 398.707 504.349 397.388C501.986 396.151 501.158 394.362 500.318 391.939Z"/>
		<path d="M464.181 319.107C466.257 318.945 468.467 318.72 470.532 319.085C473.353 319.585 476.588 321.36 478.113 323.85C478.915 325.162 479.277 326.663 478.792 328.172C477.789 331.287 474.275 332.833 471.517 333.988C468.837 334.338 466.406 334.299 463.856 333.286C461.123 332.202 458.389 330.134 457.323 327.303C456.779 325.858 456.847 324.5 457.531 323.12C458.751 320.658 461.78 319.815 464.181 319.107Z"/>
		<defs>
			<linearGradient id="gradient_1" gradientUnits="userSpaceOnUse" x1="468.32211" y1="320.57336" x2="469.02505" y2="325.22299">
				<stop offset="0" stop-color="#857C8A"/>
				<stop offset="1" stop-color="#9B929B"/>
			</linearGradient>
		</defs>
		<path fill="url(#gradient_1)" d="M462.499 321.25C466.269 320.101 470.532 319.46 474.177 321.383C474.96 321.796 474.972 321.825 475.622 322.261C476.631 323.589 476.818 323.896 477.069 325.534C476.276 328.024 474.597 329.097 472.441 330.414C470.505 330.78 468.605 331.152 466.624 330.925C463.128 330.525 461.413 328.444 459.413 325.781C459.727 323.729 461.044 322.592 462.499 321.25Z"/>
		<path fill="#525160" d="M462.499 321.25C464.021 323.217 466.114 324.614 468.079 326.113L470.007 326.081C470.778 327.452 471.468 329.204 472.441 330.414C470.505 330.78 468.605 331.152 466.624 330.925C463.128 330.525 461.413 328.444 459.413 325.781C459.727 323.729 461.044 322.592 462.499 321.25Z"/>
		<path fill="#827C89" d="M462.499 321.25C464.021 323.217 466.114 324.614 468.079 326.113C465.071 326.629 462.396 326.205 459.413 325.781C459.727 323.729 461.044 322.592 462.499 321.25Z"/>
		<path fill="#827C89" d="M475.622 322.261C476.631 323.589 476.818 323.896 477.069 325.534C476.276 328.024 474.597 329.097 472.441 330.414C471.468 329.204 470.778 327.452 470.007 326.081C472.468 325.768 473.914 323.896 475.622 322.261Z"/>
		<path d="M390.658 271.563C392.418 271.475 394.178 271.39 395.934 271.597C398.753 271.931 403.038 273.333 404.658 275.877C405.324 276.922 405.673 277.989 405.236 279.206C404.22 282.038 400.959 283.256 398.461 284.444C396.474 284.535 394.359 284.722 392.396 284.35C389.659 283.831 385.543 282.086 384.119 279.508C383.491 278.372 383.379 277.255 383.867 276.029C384.827 273.619 388.43 272.443 390.658 271.563Z"/>
		<path fill="#827C89" d="M389.958 273.569C393.587 273.294 397.952 273.098 401.284 274.795C402.677 275.504 403.071 276.322 403.516 277.759L403.03 278.669C400.319 279.764 396.414 279.086 393.476 279.244L393.293 279.978C394.799 279.96 397.942 279.652 399.124 280.439C395.238 281.21 391.35 282.074 387.773 279.926C386.921 278.632 386.91 278.439 386.888 276.88C387.543 275.232 388.586 274.576 389.958 273.569Z"/>
		<path fill="#F3953F" d="M749.836 165.99C774.204 184.689 788.799 205.408 799.509 233.993C803.885 250.836 804.064 267.492 803.984 284.743C785.499 299.975 762.635 310.804 741.722 322.406C739.177 305.234 735.205 288.661 730.802 271.884C726.209 248.535 708.906 215.996 695.046 196.619C701.064 192.556 708.743 189.691 715.235 186.283Q733.027 176.975 749.836 165.99Z"/>
		<path fill="#CC6418" d="M799.509 233.993C803.885 250.836 804.064 267.492 803.984 284.743C785.499 299.975 762.635 310.804 741.722 322.406C739.177 305.234 735.205 288.661 730.802 271.884C739.292 267.768 747.556 262.13 755.736 257.362C770.07 249.005 784.528 241.142 799.509 233.993Z"/>
		<path fill="#A44D4B" d="M391.01 169.43C403.485 160.087 421.311 151.58 435.191 143.538C450.303 134.782 465.09 124.613 480.735 116.906C485.217 114.698 489.507 112.956 494.47 112.258C503.225 115.291 511.624 119.452 519.828 123.724C525.451 126.674 531.035 129.552 536.022 133.53C543.579 140.654 547.629 148.604 550.669 158.432C540.234 166.074 528.911 172.434 517.837 179.087C494.161 193.312 469.99 206.852 446.769 221.798C444.706 211.372 441.548 201.887 433.262 194.71C428.684 191.15 423.994 187.951 419.05 184.931C409.335 180.937 400.049 174.764 391.01 169.43Z"/>
		<path fill="#A44D4B" d="M391.01 169.43C403.485 160.087 421.311 151.58 435.191 143.538C450.303 134.782 465.09 124.613 480.735 116.906C485.217 114.698 489.507 112.956 494.47 112.258C503.225 115.291 511.624 119.452 519.828 123.724Q487.418 143.893 454.778 163.69C442.928 170.82 430.728 177.543 419.05 184.931C409.335 180.937 400.049 174.764 391.01 169.43Z"/>
		<path fill="#C58C8B" d="M519.828 123.724C525.451 126.674 531.035 129.552 536.022 133.53C518.452 145.568 499.306 155.606 480.979 166.468L449.183 185.357C443.939 188.475 438.7 191.955 433.262 194.71C428.684 191.15 423.994 187.951 419.05 184.931C430.728 177.543 442.928 170.82 454.778 163.69Q487.418 143.893 519.828 123.724Z"/>
		<path fill="#F3953F" d="M805.525 427.54Q815.945 433.083 826.243 438.847C833.176 442.11 846.011 446.526 848.782 454.308C849.343 455.881 849.555 457.585 849.666 459.243C850.223 467.493 849.447 475.971 849.44 484.243C849.433 492.487 850.372 501.011 849.555 509.212C849.238 512.39 848.554 515.458 847.12 518.336C845.741 521.105 843.956 523.291 841.543 525.219C832.917 532.111 821.622 536.699 811.905 541.967C803.554 546.495 795.476 551.578 786.966 555.799C787.101 549.812 787.712 542.273 783.401 537.482C782.008 535.935 780.203 535.131 778.128 535.062C775.55 534.976 773.303 535.964 770.813 536.18C767.854 536.436 761.903 531.292 759.828 529.201C755.858 525.2 752.966 520.464 748.751 516.626C745.891 507.374 746.994 495.9 747.032 486.282L746.765 476.493C766.598 466.192 785.393 453.742 805.507 444.099L805.525 427.54Z"/>
		<path fill="#CC6418" d="M805.525 427.54Q815.945 433.083 826.243 438.847C817.206 444.651 808.219 450.606 798.978 456.08C781.734 466.296 764.102 475.749 747.032 486.282L746.765 476.493C766.598 466.192 785.393 453.742 805.507 444.099L805.525 427.54Z"/>
		<path fill="#461C0E" d="M401.043 494.32C407.643 497.668 414.204 501.066 420.981 504.049L419.463 756.26L418.953 821.862C418.951 837.228 417.95 853.67 421.482 868.698C423.614 877.77 428.016 887.937 434.471 894.792C436.747 897.208 441.114 899.975 442.335 902.965C441.362 903.661 440.543 903.244 439.396 903.081Q437.666 902.677 435.967 902.161Q434.267 901.645 432.604 901.019Q430.942 900.394 429.323 899.662Q427.705 898.93 426.138 898.094Q424.57 897.258 423.06 896.322Q421.551 895.386 420.105 894.354Q418.659 893.322 417.284 892.198Q415.908 891.074 414.609 889.863C405.801 881.782 399.495 870.803 397.848 858.88C395.855 844.458 403.126 831.729 402.642 817.387C402.299 807.2 400.82 797.076 400.557 786.871C399.954 763.504 400.975 740.125 401.019 716.759C401.071 689.337 400.238 661.919 400.511 634.498C400.587 626.821 401.251 619.173 401.376 611.5C401.716 590.529 401.493 569.526 401.485 548.551C401.479 530.492 401.786 512.367 401.043 494.32Z"/>
		<path fill="#376037" d="M179.012 547.034C191.695 551.237 203.762 551.57 216.955 550.832Q217.122 571.785 216.93 592.737C217.079 608.972 217.604 625.557 216.926 641.768C217.409 659.706 211.435 685.677 225.898 699.61C226.223 699.923 226.57 700.214 226.914 700.508C231.348 703.325 235.95 705.325 240.882 707.106Q240.809 723.027 240.526 738.945C223.947 736.479 206.921 733.189 194.645 720.828Q193.308 719.481 192.071 718.043Q190.833 716.605 189.701 715.083Q188.568 713.561 187.547 711.962Q186.526 710.363 185.621 708.695Q184.715 707.028 183.931 705.3Q183.147 703.573 182.487 701.794Q181.827 700.015 181.296 698.194Q180.764 696.372 180.363 694.518C176.654 677.397 178.959 658.168 178.992 640.74L179.012 547.034Z"/>
		<path fill="#688F4B" d="M201.366 620.803C205.77 613.638 211.167 607.128 216.434 600.589C216.444 609.895 215.366 634.257 216.926 641.768C217.409 659.706 211.435 685.677 225.898 699.61C226.223 699.923 226.57 700.214 226.914 700.508C225.584 703.284 224.299 706.448 222.154 708.693C220.3 710.634 217.953 711.915 215.218 711.831C212.202 711.739 209.551 710.026 207.629 707.799C203.942 703.527 202.321 697.354 201.478 691.884C199.632 679.905 200.783 667.571 200.864 655.499C200.943 643.903 200.532 632.392 201.366 620.803Z"/>
		<path fill="#437141" d="M201.366 620.803C200.419 615.311 200.246 609.357 200.405 603.789C200.819 589.268 206.226 579.917 216.624 570.017C216.617 577.523 216.146 585.276 216.93 592.737C217.079 608.972 217.604 625.557 216.926 641.768C215.366 634.257 216.444 609.895 216.434 600.589C211.167 607.128 205.77 613.638 201.366 620.803Z"/>
		<path fill="#7A5228" d="M250.277 535.525C256.569 538.099 262.404 542.053 268.274 545.451C275.739 549.772 283.313 553.886 290.65 558.428C286.119 560.47 281.56 562.622 277.666 565.754C269.937 571.971 266.452 580.256 265.469 589.971C264.433 600.218 265.258 610.821 265.324 621.119L265.402 673.005L265.414 712.917C265.376 720.631 264.546 729.264 265.844 736.836C267.098 744.15 270.495 751.423 275.23 757.125Q277.069 759.372 279.222 761.321Q281.375 763.27 283.793 764.878C298.588 774.926 315.305 782.527 331.103 790.859C341.48 796.332 351.497 802.695 362.247 807.416C365.79 808.972 369.296 810.343 373.178 810.701C383.574 811.659 389.563 808.825 397.426 802.3C397.645 806.159 398.072 810.024 398.41 813.876C398.968 825.539 394.901 835.597 391.77 846.608C378.052 837.175 362.803 830.132 348.105 822.4Q319.021 806.928 290.126 791.102C276.915 783.98 263.497 777.439 250.815 769.374C249.417 748.212 250.536 726.652 250.514 705.431L250.091 599.761C250.115 578.342 250.881 556.947 250.277 535.525Z"/>
		<path fill="#7A5228" d="M448.905 634.52C457.683 628.433 467.424 623.621 476.758 618.446C485.144 613.797 493.344 608.617 502.184 604.866C503.185 617.108 502.11 629.648 503.617 641.812C505.401 648.957 504.968 657.323 504.822 664.667C503.11 665.855 501.315 666.997 499.723 668.342Q499.505 685.535 499.527 702.73C493.589 706.213 487.672 709.697 481.555 712.861L466.386 721.319C466.326 721.337 466.268 721.367 466.205 721.372C460.733 721.838 434.65 705.952 428.271 702.348C428.094 684.201 428.523 666.04 428.371 647.887C429.853 646.363 431.453 645.053 433.097 643.712C438.283 640.47 443.533 637.443 448.905 634.52Z"/>
		<path fill="#FDDE83" d="M448.905 634.52C457.683 628.433 467.424 623.621 476.758 618.446C485.144 613.797 493.344 608.617 502.184 604.866C503.185 617.108 502.11 629.648 503.617 641.812L502.902 641.68C495.893 644.531 489.514 648.466 483.333 652.808C477.467 655.464 472.365 659.254 465.885 660.283C456.244 653.359 443.793 648.894 433.097 643.712C438.283 640.47 443.533 637.443 448.905 634.52Z"/>
		<path fill="#A44D4B" d="M448.905 634.52C457.683 628.433 467.424 623.621 476.758 618.446C485.144 613.797 493.344 608.617 502.184 604.866C503.185 617.108 502.11 629.648 503.617 641.812L502.902 641.68C494.835 634.198 460.933 635.296 448.905 634.52Z"/>
		<path fill="#7A5228" d="M502.902 641.68L503.617 641.812C505.401 648.957 504.968 657.323 504.822 664.667C503.11 665.855 501.315 666.997 499.723 668.342Q499.505 685.535 499.527 702.73C493.589 706.213 487.672 709.697 481.555 712.861L481.398 680.9C481.306 673.585 480.712 665.9 481.614 658.642C481.878 656.524 482.48 654.756 483.333 652.808C489.514 648.466 495.893 644.531 502.902 641.68Z"/>
		<path fill="#F3953F" d="M465.885 660.283C472.365 659.254 477.467 655.464 483.333 652.808C482.48 654.756 481.878 656.524 481.614 658.642C480.712 665.9 481.306 673.585 481.398 680.9L481.555 712.861L466.386 721.319C464.93 717.729 464.842 666.118 465.885 660.283Z"/>
		<path fill="#F3953F" d="M742.235 326.362C751.846 320.007 762.004 314.516 772.031 308.851C780.316 304.171 788.504 299.259 796.956 294.89L796.981 329.92C797.01 336.99 797.624 344.75 796.573 351.741L796.127 404.69C796.084 414.187 796.533 423.634 795.98 433.126C795.506 437.283 795.54 441.399 795.562 445.574C779.06 454.376 763.24 464.686 746.52 473.02L746.518 464.584Q746.52 456.494 746.336 448.407C745.765 443.636 745.765 438.697 745.535 433.893Q750.449 431.443 755.405 429.08C757.38 427.579 759.253 426.08 760.781 424.098C762.279 422.157 763.347 420.066 763.843 417.661C765.68 408.752 765.713 374.658 764.251 365.378C763.372 359.803 760.043 357.032 755.74 353.886C751.93 352.686 748.002 352.345 744.051 351.9L744.06 344.581L743.65 342.476Q742.812 334.43 742.235 326.362Z"/>
		<path fill="#7A5228" d="M742.235 326.362C751.846 320.007 762.004 314.516 772.031 308.851C780.316 304.171 788.504 299.259 796.956 294.89L796.981 329.92C797.01 336.99 797.624 344.75 796.573 351.741C795.709 338.978 796.467 325.654 796.534 312.843Q779.746 321.793 763.057 330.927C756.77 334.378 749.024 337.778 743.65 342.476Q742.812 334.43 742.235 326.362Z"/>
		<path fill="#7A5228" d="M795.98 433.126C795.506 437.283 795.54 441.399 795.562 445.574C779.06 454.376 763.24 464.686 746.52 473.02L746.518 464.584C753.394 460.634 794.129 436.846 795.98 433.126Z"/>
		<path fill="#7A5228" d="M745.535 433.893Q750.449 431.443 755.405 429.08C754.052 433.718 752.883 439.204 750.216 443.266C749.032 445.07 747.244 446.436 746.336 448.407C745.765 443.636 745.765 438.697 745.535 433.893Z"/>
		<path fill="#7A5228" d="M744.06 344.581C748.195 345.585 752.15 346.507 754.44 350.488C755.039 351.531 755.458 352.719 755.74 353.886C751.93 352.686 748.002 352.345 744.051 351.9L744.06 344.581Z"/>
		<path fill="#F3953F" d="M697.087 730.888L697.997 731.258C699.1 736.46 698.606 742.711 698.633 748.061L698.773 775.589Q649.65 803.395 599.917 830.094C587.008 837.136 573.888 843.724 561.215 851.201C560.42 851.48 560.874 851.435 559.848 851.123C558.626 846.801 559.516 815.142 559.52 808.005C604.761 781.287 651.454 756.948 697.087 730.888Z"/>
		<path fill="#A44D4B" d="M682.802 507.005C686.683 509.799 690.656 512.555 694.937 514.709C695.028 528.917 695.262 543.151 695.009 557.356C694.814 568.297 693.872 579.494 694.836 590.404C695.03 592.595 695.124 595.396 696.785 596.988C698.91 599.026 702.567 600.394 705.247 601.522C696.576 606.761 687.462 611.222 678.775 616.42C676.707 617.656 674.659 618.969 672.492 620.024C672.22 620.096 671.95 620.176 671.677 620.242C662.791 622.394 644.521 609.184 637.24 604.408C636.449 585.451 637.215 566.287 637.487 547.316L637.578 543.541C640.068 532.865 647.19 527.518 656.035 522.025C664.736 516.622 673.76 511.805 682.802 507.005Z"/>
		<path fill="#A44D4B" d="M637.487 547.316C649.339 554.011 661.415 559.946 673.696 565.795C671.954 573.342 672.466 582.117 672.48 589.85Q672.604 604.937 672.492 620.024C672.22 620.096 671.95 620.176 671.677 620.242C662.791 622.394 644.521 609.184 637.24 604.408C636.449 585.451 637.215 566.287 637.487 547.316Z"/>
		<path fill="#F3953F" d="M669.78 525.933C677.365 532.234 683.486 538.816 687.214 548.092C684.204 551.38 680.225 555.065 678.282 559.086C676.692 561.29 675.161 563.505 673.696 565.795C661.415 559.946 649.339 554.011 637.487 547.316L637.578 543.541C647.971 537.04 658.495 530.783 669.78 525.933Z"/>
		<path fill="#CC6418" d="M678.282 559.086C677.842 570.433 678.078 581.808 678.14 593.162C678.183 600.749 677.759 608.914 678.775 616.42C676.707 617.656 674.659 618.969 672.492 620.024Q672.604 604.937 672.48 589.85C672.466 582.117 671.954 573.342 673.696 565.795C675.161 563.505 676.692 561.29 678.282 559.086Z"/>
		<path fill="#CC6418" d="M590.366 121.349C601.897 115.706 613.833 108.256 626.495 105.698C631.434 104.701 635.21 104.618 640.03 106.251C653.578 110.843 672.377 123.139 685.469 130.277L721.808 149.96C731.283 155.08 740.844 160.042 749.836 165.99Q733.027 176.975 715.235 186.283C708.743 189.691 701.064 192.556 695.046 196.619C683.745 181.787 671.392 167.547 656.055 156.743C646.35 149.907 635.534 145.036 624.969 139.72Q607.47 130.906 590.366 121.349Z"/>
		<path d="M694.007 383.595C702.761 378.27 711.96 373.923 720.988 369.118C727.515 365.645 733.956 361.6 740.75 358.702C743.618 357.478 746.976 356.08 750.138 356.316C753.975 356.601 756.616 359.078 759.063 361.794C763.77 369.332 762.544 407.121 760.254 416.483C759.939 417.773 759.525 419.03 758.91 420.21C758.07 421.25 757.183 422.241 756.164 423.111C747.4 430.596 734.655 434.657 724.547 440.077C718.267 443.445 712.258 448.046 705.583 450.559C703.355 451.398 701.086 451.699 698.72 451.41C695.299 450.992 691.945 449.284 689.849 446.506C685.348 440.538 685.631 401.958 686.832 393.403C687.923 391.033 689.211 388.795 690.505 386.534C691.381 385.267 692.765 384.473 694.007 383.595Z"/>
		<path fill="#C58C8B" d="M694.007 383.595C702.761 378.27 711.96 373.923 720.988 369.118C727.515 365.645 733.956 361.6 740.75 358.702C743.618 357.478 746.976 356.08 750.138 356.316C753.975 356.601 756.616 359.078 759.063 361.794C763.77 369.332 762.544 407.121 760.254 416.483C759.939 417.773 759.525 419.03 758.91 420.21L758.059 418.721C758.903 416.658 758.896 415.732 758.356 413.6C755.696 413.576 754.033 413.311 751.662 411.999C754.741 402.583 753.95 379.725 752.053 369.951C750.838 369.145 749.459 367.966 747.932 368.193C743.49 368.851 701.459 392.111 699.459 395.341C695.318 402.031 695.808 423.267 696.22 431.192C695.97 432.549 695.823 433.258 694.808 434.163L694.044 433.751C688.727 423.834 694.888 406.926 691.667 395.766L691.828 397.108L690.167 398.794C689.507 398.482 688.558 398.135 688.011 397.663C686.785 396.606 686.991 394.893 686.832 393.403C687.923 391.033 689.211 388.795 690.505 386.534C691.381 385.267 692.765 384.473 694.007 383.595Z"/>
		<path fill="#FDDE83" d="M694.007 383.595C702.761 378.27 711.96 373.923 720.988 369.118C727.515 365.645 733.956 361.6 740.75 358.702C743.618 357.478 746.976 356.08 750.138 356.316C753.975 356.601 756.616 359.078 759.063 361.794C754.99 362.286 751.116 362.86 747.213 364.183C740.015 366.623 733.297 370.664 726.611 374.241Q712.686 381.855 698.421 388.811C697.174 386.903 695.543 385.273 694.007 383.595Z"/>
		<path fill="#A44D4B" d="M752.053 369.951C753.598 371.46 753.712 371.997 754.136 374.056C754.345 375.068 754.44 375.542 755.29 376.176C756.187 376.843 757.314 377.361 758.303 377.888C759.517 386.533 758.658 404.482 758.356 413.6C755.696 413.576 754.033 413.311 751.662 411.999C754.741 402.583 753.95 379.725 752.053 369.951Z"/>
		<path fill="#FEEFE1" d="M690.505 386.534C691.381 385.267 692.765 384.473 694.007 383.595C695.543 385.273 697.174 386.903 698.421 388.811C697.094 389.878 695.977 390.597 694.246 390.416C692.478 389.614 691.605 388.066 690.505 386.534Z"/>
		<defs>
			<linearGradient id="gradient_2" gradientUnits="userSpaceOnUse" x1="685.93475" y1="399.15408" x2="734.9054" y2="444.35425">
				<stop offset="0" stop-color="#A06367"/>
				<stop offset="1" stop-color="#BB9391"/>
			</linearGradient>
		</defs>
		<path fill="url(#gradient_2)" d="M686.832 393.403C686.991 394.893 686.785 396.606 688.011 397.663C688.558 398.135 689.507 398.482 690.167 398.794L691.828 397.108L691.667 395.766C694.888 406.926 688.727 423.834 694.044 433.751L694.808 434.163C695.823 433.258 695.97 432.549 696.22 431.192C696.648 434.71 696.95 437.675 699.953 440.01C700.114 440.136 700.288 440.244 700.455 440.362C716.561 433.733 736.957 421.609 751.662 411.999C754.033 413.311 755.696 413.576 758.356 413.6C758.896 415.732 758.903 416.658 758.059 418.721L758.91 420.21C758.07 421.25 757.183 422.241 756.164 423.111C747.4 430.596 734.655 434.657 724.547 440.077C718.267 443.445 712.258 448.046 705.583 450.559C703.355 451.398 701.086 451.699 698.72 451.41C695.299 450.992 691.945 449.284 689.849 446.506C685.348 440.538 685.631 401.958 686.832 393.403Z"/>
		<path fill="#FDDE83" d="M751.662 411.999C754.033 413.311 755.696 413.576 758.356 413.6C758.896 415.732 758.903 416.658 758.059 418.721C757.26 419.508 756.547 420.196 755.527 420.692C749.934 423.409 744.086 425.572 738.507 428.377C730.366 432.471 722.5 437.201 714.267 441.092C711.971 442.176 707.902 444.437 705.387 444.456C703.862 444.467 701.929 443.168 701.128 441.891C700.844 441.437 700.576 440.892 700.455 440.362C716.561 433.733 736.957 421.609 751.662 411.999Z"/>
		<path fill="#A44D4B" d="M740.227 376.426C740.291 376.481 740.361 376.529 740.419 376.59C743.204 379.538 742.319 408.11 742.518 413.945C729.412 420.321 717.274 428.902 704.363 435.018C703.67 434.497 703.009 433.922 702.338 433.373C700.435 429.485 701.228 404.614 702.385 399.821C702.69 398.557 703.048 397.632 704.039 396.744C709.345 391.987 718.216 388.775 724.619 385.418C729.948 382.624 735.093 379.56 740.227 376.426Z"/>
		<path fill="#7A5228" d="M746.297 371.742C746.957 372.146 747.657 372.528 748.097 373.198C750.832 377.367 749.567 407.71 748.172 413.198C747.257 412.957 747.71 413.194 746.92 412.31C745.852 406.436 744.665 375.682 746.297 371.742Z"/>
		<path fill="#7A5228" d="M378.676 176.182C381.221 176.201 383.668 176.365 386.091 177.197C391.324 178.994 395.953 182.243 400.777 184.892C409.847 189.871 419.689 193.58 427.235 200.913C442.164 215.423 441.734 231.063 441.551 250.257Q441.43 263.399 441.588 276.54C438.492 274.431 435.262 272.514 432.07 270.556C408.96 257.39 387.653 241.977 362.941 231.684C362.115 219.997 360.302 192.177 366.908 182.861C369.901 178.639 373.712 176.993 378.676 176.182Z"/>
		<path d="M379.066 189.588C380.951 189.462 382.863 189.272 384.701 189.81C392.231 192.015 399.161 197.22 405.791 201.293L428.538 215.25Q428.102 227.677 427.86 240.109C426.891 240.35 425.001 239.113 424.041 238.642C407.355 228.956 389.921 220.433 373.093 210.964C372.821 206.118 370.732 196.163 373.601 192.058C374.959 190.114 376.901 190.006 379.066 189.588Z"/>
		<path fill="#F3953F" d="M742.506 435.041C742.866 439.842 742.974 444.586 742.983 449.396C743.175 477.79 743.632 506.44 744.935 534.801C730.11 542.2 713.116 549.954 700.422 560.599L700.032 511.199C700.058 497.535 700.441 483.784 699.892 470.13C699.604 465.47 699.907 460.715 700.012 456.048C707.964 453.818 714.806 449.394 722.036 445.543Q732.21 440.173 742.506 435.041Z"/>
		<path fill="#7A5228" d="M742.506 435.041C742.866 439.842 742.974 444.586 742.983 449.396C727.58 454.129 715.11 464.893 699.892 470.13C699.604 465.47 699.907 460.715 700.012 456.048C707.964 453.818 714.806 449.394 722.036 445.543Q732.21 440.173 742.506 435.041Z"/>
		<path d="M720.933 491.486C722.664 491.969 723.955 492.297 725.186 493.686C726.347 494.996 726.664 496.901 726.362 498.579C725.745 501.997 723.463 504.176 720.68 505.987C719.864 505.918 719.112 505.799 718.314 505.594C717.013 505.26 716.037 504.45 715.445 503.232C714.671 501.639 714.753 499.81 715.262 498.155C716.219 495.044 718.084 492.956 720.933 491.486Z"/>
		<path fill="#F3953F" d="M554.845 576.434Q558.057 574.195 561.42 572.187Q564.782 570.179 568.277 568.413Q571.772 566.646 575.383 565.131Q578.993 563.615 582.702 562.357C591.724 565.457 606.766 571.616 611.168 580.749C612.304 583.105 612.811 585.679 613.063 588.266C613.939 597.263 613.205 606.429 613.21 615.455C613.215 625.234 613.899 634.939 612.844 644.697C606.891 652.115 599.071 655.828 590.642 659.808C589.435 651.494 588.558 643.726 581.325 638.207C576.779 634.738 571.129 632.686 565.608 631.408C562.825 633.208 558.764 634.389 555.661 635.696C553.919 625.627 554.259 614.275 554.833 604.064Q554.91 590.249 554.845 576.434Z"/>
		<path fill="#7A5228" d="M554.833 604.064C558.009 605.393 561.142 607.111 563.83 609.278C565.817 616.674 564.582 623.982 565.608 631.408C562.825 633.208 558.764 634.389 555.661 635.696C553.919 625.627 554.259 614.275 554.833 604.064Z"/>
		<path fill="#F3953F" d="M504.909 562.491C521.157 557.939 535.435 548.934 550.492 541.634L550.619 554.786L551.068 637.92C540.836 643.782 530.166 649.233 520.171 655.451C518.941 656.285 517.729 657.141 516.446 657.893C514.059 659.451 511.438 660.529 508.837 661.673C507.925 654.314 508.182 646.5 507.979 639.064L506.439 591.758C506.115 582.14 506.284 572.001 504.909 562.491Z"/>
		<path fill="#7A5228" d="M504.909 562.491C521.157 557.939 535.435 548.934 550.492 541.634L550.619 554.786C538.307 559.928 527.276 567.191 514.528 571.464C516.305 579.288 515.845 587.418 516.255 595.389C516.783 605.642 518.271 615.833 518.795 626.079C519.294 635.827 518.727 645.78 520.171 655.451C518.941 656.285 517.729 657.141 516.446 657.893C514.059 659.451 511.438 660.529 508.837 661.673C507.925 654.314 508.182 646.5 507.979 639.064L506.439 591.758C506.115 582.14 506.284 572.001 504.909 562.491Z"/>
		<path fill="#A44D4B" d="M516.446 657.893C516.113 657.351 515.817 656.886 515.677 656.254C515 653.199 515.143 649.505 514.964 646.36L513.836 624.227Q512.643 602.655 512.002 581.059C511.806 575.482 511.105 569.553 511.317 563.997C511.36 562.848 511.513 561.984 512.162 561.007L513.022 560.836C514.392 563.738 512.581 568.264 514.156 570.906C514.27 571.098 514.404 571.278 514.528 571.464C516.305 579.288 515.845 587.418 516.255 595.389C516.783 605.642 518.271 615.833 518.795 626.079C519.294 635.827 518.727 645.78 520.171 655.451C518.941 656.285 517.729 657.141 516.446 657.893Z"/>
		<path d="M530.004 582.478C530.827 582.428 531.672 582.371 532.495 582.437C534.556 582.601 536.872 583.821 538.147 585.441C539.814 587.56 540.025 590.651 539.718 593.23C539.075 598.629 536.312 601.893 532.308 605.186C531.206 605.529 529.951 605.594 528.803 605.479C526.909 605.29 525.158 604.464 524.052 602.883C522.187 600.215 522.216 595.93 522.86 592.877C523.877 588.058 525.981 585.182 530.004 582.478Z"/>
		<path fill="#A44D4B" d="M530.826 585.183C532.457 585.718 533.905 586.495 535.021 587.845C536.307 589.403 536.791 591.39 536.565 593.378C536.162 596.932 534.456 598.922 531.798 601.134C530.296 601.755 529.442 601.729 527.914 601.195C527.009 600.279 526.757 599.484 526.582 598.24C525.897 593.372 527.951 588.922 530.826 585.183Z"/>
		<path fill="#7A5228" d="M252.088 774.948C256.924 776.928 261.537 779.987 266.093 782.549Q277.497 788.971 289.039 795.141C323.185 813.649 357.096 833.14 391.844 850.47C394.623 869.344 397.563 875.747 409.157 890.613C403.907 888.768 398.658 884.628 393.8 881.842L359.636 862.603Q336.835 849.689 313.689 837.404C301.997 831.124 289.952 825.181 278.998 817.658C265.136 808.138 255.157 791.349 252.088 774.948Z"/>
		<path fill="#A44D4B" d="M697.385 704.432L697.694 704.669C698.857 706.832 698.364 723.279 698.447 726.972C651.333 750.487 606.763 778.762 560.161 803.246C559.083 802.063 559.183 779.033 559.013 775.814C568.266 770.895 577.59 765.855 586.561 760.442C593.653 756.163 600.487 751.459 607.638 747.276Q633.55 732.39 660.137 718.745C668.304 714.538 676.583 713.204 685.119 710.237C689.45 708.732 693.378 706.64 697.385 704.432Z"/>
		<path fill="#A44D4B" d="M427.511 792.834C428.604 794.521 429.702 796.216 430.972 797.777C442.631 812.104 461.249 814.705 478.444 816.6C495.026 813.839 507.396 806.713 521.046 797.308C520.392 806.312 520.456 815.294 520.603 824.314Q497.903 837.414 474.963 850.089C460.602 857.919 445.876 865.185 432.579 874.792C428.929 863.403 427.696 852.662 427.508 840.727L427.511 792.834Z"/>
		<path fill="#7A5228" d="M427.511 792.834C428.604 794.521 429.702 796.216 430.972 797.777C442.631 812.104 461.249 814.705 478.444 816.6C460.333 826.812 448.428 835.635 427.508 840.727L427.511 792.834Z"/>
		<path fill="#7A5228" d="M425.978 502.133L492.994 466.617L493.476 492.66C489.419 494.43 485.293 496.104 481.471 498.35C481.443 508.8 480.968 519.542 481.893 529.949C473.741 534.623 465.406 538.93 457.139 543.39C447.036 549.466 436.615 555.041 426.486 561.101L426.383 515.811C426.332 511.25 426.342 506.683 425.978 502.133Z"/>
		<path fill="#A44D4B" d="M426.383 515.811C437.019 511.914 446.846 506.994 457.029 502.078C457.011 515.759 456.381 529.747 457.139 543.39C447.036 549.466 436.615 555.041 426.486 561.101L426.383 515.811Z"/>
		<path fill="#F3953F" d="M520.281 828.468C522.302 830.561 521.43 868.667 521.453 873.877C507.138 882.007 484.588 898.636 468.706 900.637C459.17 901.839 451.692 898.319 444.415 892.611C439.741 888.127 436.581 882.822 433.67 877.093Q477.211 853.2 520.281 828.468Z"/>
		<path fill="#7A5228" d="M591.523 184.641C600.319 188.969 608.915 193.742 616.67 199.783C643.913 221.004 659.753 254.117 670.655 286.108C678.746 309.853 681.232 332.669 684.094 357.388L672.571 363.958C672.321 344.98 668.99 323.925 663.902 305.598C655.317 280.815 646.22 253.95 628.903 233.728C618.412 222.353 603.774 215.586 590.419 208.289C584.282 204.936 577.556 201.526 572.796 196.301C579.101 192.524 585.479 188.831 591.523 184.641Z"/>
		<path fill="#7A5228" d="M394.453 627.876C394.963 628.242 395.307 628.566 395.435 629.232C396.239 633.439 395.518 639.489 395.533 643.884L395.507 687.432L395.476 754.261C395.491 765.413 396.201 776.924 395.442 788.033C395.177 791.917 394.612 795.569 392.458 798.912C388.886 804.457 383.098 806.375 377.033 807.778C376.502 807.511 376.343 807.206 375.995 806.738C376.077 803.549 377.17 800.43 377.592 797.26C378.431 790.961 378.545 784.348 378.553 778.001L378.533 692.696C378.531 679.028 376.815 663.725 379.469 650.342C381.412 640.546 386.182 633.416 394.453 627.876Z"/>
		<path fill="#461C0E" d="M633.889 535.01C634.033 535.189 634.272 535.322 634.32 535.546C634.722 537.41 633.599 541.804 633.367 543.922C632.816 548.944 632.85 553.88 632.858 558.92L632.934 631.687C632.806 651.64 631.557 671.777 634.455 691.605C632.615 692.814 630.731 693.937 628.839 695.064C625.226 693.419 621.986 691.383 618.691 689.181C618.325 683.105 618.512 676.937 618.512 670.848L618.513 624.395C618.529 613.005 620.198 587.964 616.706 578.154C613.169 568.216 599.401 562.719 590.499 558.686C595.455 555.159 601.205 552.403 606.548 549.481C615.596 544.533 624.609 539.518 633.889 535.01Z"/>
		<path fill="#A44D4B" d="M454.529 222.206C461.657 218.425 468.352 213.646 475.196 209.366Q489.789 200.273 504.795 191.88C504.862 194.942 504.616 198.106 505.517 201.06C506.548 202.146 507.078 202.263 508.567 202.413C513.595 202.917 526.167 209.813 530.685 212.871C530.809 212.955 530.932 213.042 531.055 213.128L534.633 214.941C507.751 229.809 481.599 246.122 454.49 260.54C454.248 250.734 453.938 240.995 454.557 231.193L454.529 222.206Z"/>
		<path fill="#7A5228" d="M454.529 222.206C461.657 218.425 468.352 213.646 475.196 209.366Q489.789 200.273 504.795 191.88C504.862 194.942 504.616 198.106 505.517 201.06C506.548 202.146 507.078 202.263 508.567 202.413C513.595 202.917 526.167 209.813 530.685 212.871C530.809 212.955 530.932 213.042 531.055 213.128C522.695 213.111 511.918 206.991 505.269 202.338C500.21 205.833 494.605 208.671 489.245 211.691C482.071 215.734 474.961 219.899 467.742 223.862C463.599 226.136 458.066 228.179 454.557 231.193L454.529 222.206Z"/>
		<path fill="#F3953F" d="M747.22 702.616C765.378 694.089 782.138 682.777 800.35 674.217C793.771 704.959 779.801 729.297 752.924 746.611Q745.148 751.516 736.946 755.671C737.183 741.151 737.885 726.508 736.891 712.007C736.63 710.987 736.384 709.66 736.761 708.636C738.078 705.059 744.042 703.718 747.22 702.616Z"/>
		<path fill="#A44D4B" d="M736.891 712.007C736.63 710.987 736.384 709.66 736.761 708.636C738.078 705.059 744.042 703.718 747.22 702.616C744.956 706.822 741.217 710.006 736.891 712.007Z"/>
		<path fill="#376037" d="M231.491 381.279C231.779 381.455 232.138 381.549 232.356 381.808C233.152 382.754 232.362 393.156 232.764 395.245C233.561 399.391 235.899 401.973 238.509 405.115C217.549 430.241 195.772 474.165 195.487 507.098L187.808 505.114C184.524 503.849 181.545 502.267 178.482 500.54C177.892 461.048 205.394 409.893 231.491 381.279Z"/>
		<path fill="#7A5228" d="M317.492 262.603C319.391 262.491 321.349 262.466 323.25 262.56C329.183 262.851 335.261 264.837 340.635 267.268C352.412 272.596 363.35 280.14 374.631 286.455L410.211 306.508C419.842 311.961 429.563 317.269 438.654 323.606Q443.245 326.746 447.441 330.397Q451.636 334.049 455.38 338.162C463.45 346.997 469.496 357.425 475.577 367.661C479.668 374.547 484.127 381.334 487.62 388.55C502.004 418.272 507.97 453.151 506.43 485.978C504.486 487.814 502.266 489.346 500.124 490.94C500.63 481.732 500.264 472.485 499.937 463.278C495.952 428.122 488.198 402.179 469.643 371.854C464.287 363.099 458.737 354.499 452.185 346.579C446.925 340.219 441.086 334.301 434.389 329.448C420.724 319.545 405.126 312.183 390.483 303.854C373.82 294.376 337.445 269.33 318.977 267.969C303.82 266.852 306.991 278.497 299.73 283.847C299.156 284.27 299.292 284.135 298.541 284.007L298.289 283.163Q298.71 280.645 299.555 278.235Q300.4 275.826 301.643 273.596C305.225 267.273 310.71 264.378 317.492 262.603Z"/>
		<path fill="#A44D4B" d="M667.582 492.157C668.702 495.829 667.529 505.291 668.151 510.413C650.488 518.508 633.918 529.174 616.797 538.364C596.288 549.373 575.024 559.22 554.938 570.952L554.894 552.928C574.788 540.769 595.418 530.364 616.005 519.489C633.207 510.403 650.21 500.915 667.582 492.157Z"/>
		<path fill="#C58C8B" d="M557.4 465.726C559.47 466.202 561.507 466.802 563.551 467.381C567.558 470.058 569.692 472.272 570.606 477.176C571.461 481.766 571.469 512.556 570.914 517.765C570.589 520.811 570.269 523.851 568.457 526.412C566.759 528.811 564.427 530.762 561.969 532.345C556.507 535.861 550.124 538.237 544.284 541.07Q532.027 547.156 520 553.684C517.995 552.752 515.571 552.864 513.933 551.242C513.7 549.785 513.934 549.776 514.77 548.528C511.736 547.352 510.03 546.502 508.248 543.709L508.488 542.276C508.819 542.41 509.155 542.532 509.493 542.648C510.921 543.139 512.226 543.514 513.746 543.262C520.161 542.198 543.696 528.886 551.363 525.175C554.368 523.067 557.685 521.863 560.483 519.351C561.868 513.529 562.983 483.87 560.31 479.31C555.272 478.107 514.12 501.34 505.32 504.507L504.549 504.78C502.898 503.259 501.067 501.916 499.301 500.532C497.457 499.674 495.675 498.658 493.881 497.701C506.09 491.119 518.496 485.059 530.816 478.706C539.569 474.193 548.09 469.022 557.4 465.726Z"/>
		<path fill="#FEEFE1" d="M557.4 465.726C559.47 466.202 561.507 466.802 563.551 467.381C562.352 469.174 561.339 470.284 559.451 471.348C555.083 473.809 550.241 475.684 545.664 477.731Q534.985 482.539 524.407 487.565C516.127 491.516 507.413 497.013 499.301 500.532C497.457 499.674 495.675 498.658 493.881 497.701C506.09 491.119 518.496 485.059 530.816 478.706C539.569 474.193 548.09 469.022 557.4 465.726Z"/>
		<path fill="#FDDE83" d="M551.363 525.175C551.676 526.228 551.763 525.833 551.321 526.756C548.898 531.817 520.846 546.469 514.77 548.528C511.736 547.352 510.03 546.502 508.248 543.709L508.488 542.276C508.819 542.41 509.155 542.532 509.493 542.648C510.921 543.139 512.226 543.514 513.746 543.262C520.161 542.198 543.696 528.886 551.363 525.175Z"/>
		<path fill="#376037" d="M240.291 412.344C241.541 417.938 241.066 424.513 240.999 430.242C240.917 437.182 241.471 445.164 239.866 451.945C237.673 461.21 231.607 470.16 228.155 479.114C227.051 481.98 225.953 484.917 225.251 487.912C224.032 493.105 223.933 500.136 219.749 503.968C214.637 508.651 204.166 507.558 197.623 507.481C197.071 506.744 197.021 506.349 196.935 505.446C196.471 500.578 198.994 494.366 200.435 489.734C209.016 462.144 221.996 434.862 240.291 412.344Z"/>
		<path fill="#7A5228" d="M557.091 156.717C567.255 160.647 576.675 166.062 586.372 170.973C604.1 179.952 621.779 186.896 635.542 201.846C670.081 239.363 688.807 297.524 693.78 347.394C694.601 355.626 695.92 364.401 695.504 372.67C695.37 375.351 695.272 377.677 693.21 379.556L688.508 382.91C688.663 350.344 685.269 317.479 674.607 286.547C663.49 254.292 648.135 218.508 619.686 197.892C609.538 190.538 598.143 185.432 587.116 179.599C577.13 174.317 567.287 168.763 557.129 163.811L557.091 156.717Z"/>
		<path fill="#F3953F" d="M530.884 673.709C548.879 664.761 565.103 653.094 583.593 644.996C585.793 650.913 586.397 656.764 586.714 663.03C586.638 666.785 586.92 670.349 583.961 673.13C579.603 677.227 541.021 697.93 533.503 701.11C533.506 693.495 533.544 685.911 532.975 678.312C532.408 676.754 531.579 675.219 530.884 673.709Z"/>
		<path fill="#A44D4B" d="M540.715 689.756C554.25 678.95 571.444 671.129 586.714 663.03C586.638 666.785 586.92 670.349 583.961 673.13C579.603 677.227 541.021 697.93 533.503 701.11C533.506 693.495 533.544 685.911 532.975 678.312C533.736 677.827 534.48 677.471 535.295 677.09C536.198 677.263 536.578 677.222 537.315 677.829C540.138 680.153 540.386 686.343 540.715 689.756Z"/>
		<path fill="#F3953F" d="M728.489 711.2L733.488 708.299C733.495 714.674 734.334 752.431 733.223 755.307C733.092 755.645 732.445 756.295 732.249 756.457C731.54 757.045 730.484 757.491 729.664 757.924C721.197 763.899 711.832 768.53 702.704 773.401C702.299 758.116 702.535 742.785 702.549 727.494Q715.274 718.958 728.489 711.2Z"/>
		<path fill="#FDDE83" d="M728.489 711.2L733.488 708.299C733.495 714.674 734.334 752.431 733.223 755.307C733.092 755.645 732.445 756.295 732.249 756.457C731.54 757.045 730.484 757.491 729.664 757.924C727.328 750.899 728.475 719.989 728.489 711.2Z"/>
		<path fill="#F3953F" d="M554.481 807.421C554.512 807.447 554.549 807.467 554.574 807.499C556.568 810.017 555.517 848.156 555.474 854.583C545.62 859.907 535.945 865.658 526.205 871.193C523.998 868.753 525.009 831.53 525.022 825.266C534.313 818.357 544.374 812.998 554.481 807.421Z"/>
		<path fill="#A44D4B" d="M548.115 487.889C548.667 487.985 548.294 487.883 549.11 488.485C550.719 495.329 549.576 514.168 549.52 522.133C537.106 528.89 524.334 536.51 511.075 541.429C509.042 530.403 509.798 518.57 508.898 507.371C521.919 500.781 535.3 494.877 548.115 487.889Z"/>
		<path fill="#F3953F" d="M779.565 540.997C780.918 541.059 781.955 540.798 782.835 542.066C785.594 546.04 783.769 559.84 783.454 564.715C777.52 568.458 736.536 591.828 734.796 591.7L734.515 590.625C734.536 587.66 734.771 584.542 734.539 581.594C734.1 576.044 730.871 573.083 726.946 569.637C732.747 566.902 738.221 563.125 743.749 559.874C749.868 556.276 756.207 553.036 762.38 549.524C767.986 546.334 773.38 542.948 779.565 540.997Z"/>
		<path fill="#7A5228" d="M499.798 583.98C501.789 587.679 501.041 595.606 501.108 599.896C491.618 606.483 481.056 611.601 470.948 617.17C456.527 625.114 442.189 633.275 427.62 640.94C426.017 635.461 426.745 628.25 426.724 622.536C450.454 608.497 475.709 597.346 499.798 583.98Z"/>
		<path fill="#A44D4B" d="M799.858 649.984C801.842 652.387 801.001 665.841 800.946 669.413C794.731 673.098 788.266 676.345 781.936 679.828Q759.826 692.064 737.551 703.998C737.44 703.881 737.31 703.78 737.219 703.647C735.181 700.657 736.706 687.711 737.004 683.582C758.24 673.015 779.042 661.355 799.858 649.984Z"/>
		<path fill="#7A5228" d="M486.778 559.654C490.914 560.668 495.139 561.551 499.208 562.801C499.394 568.681 499.573 574.541 500.098 580.403Q488.287 585.97 476.836 592.244C470.042 595.932 463.329 599.98 456.152 602.893C455.692 598.584 456.046 578.654 455.471 577.096C465.816 571.13 476.394 565.556 486.778 559.654Z"/>
		<path fill="#F3953F" d="M534.77 706.008C549.305 698.155 563.57 689.804 577.982 681.727L578.057 691.774C577.998 696.811 578.04 701.869 577.566 706.888Q560.066 716.772 542.399 726.355C541.129 727.274 540.157 727.904 538.636 728.32C537.808 728.12 537.368 728.167 536.758 727.508C533.056 723.504 534.555 711.346 534.77 706.008Z"/>
		<path fill="#A44D4B" d="M534.77 706.008C549.305 698.155 563.57 689.804 577.982 681.727L578.057 691.774C567.795 695.66 549.769 704.148 541.776 711.231C541.467 715.412 540.126 722.828 542.399 726.355C541.129 727.274 540.157 727.904 538.636 728.32C537.808 728.12 537.368 728.167 536.758 727.508C533.056 723.504 534.555 711.346 534.77 706.008Z"/>
		<path fill="#F3953F" d="M770.962 576.525L770.971 585.136C771.225 589.695 772.814 599.572 769.582 603.05C765.526 607.416 740.338 622.404 734.68 622.148C733.834 622.109 733.584 621.639 733.094 621.023C729.91 617.014 731.475 608.344 731.326 603.429C731.031 601.977 731.064 600.324 730.977 598.836C744.578 591.899 757.742 584.152 770.962 576.525Z"/>
		<path fill="#7A5228" d="M770.962 576.525L770.971 585.136C758.173 588.693 746.347 600.767 735.964 603.288C734.422 603.662 732.889 603.565 731.326 603.429C731.031 601.977 731.064 600.324 730.977 598.836C744.578 591.899 757.742 584.152 770.962 576.525Z"/>
		<path fill="#7A5228" d="M618.537 696.253C620.772 697.587 623.098 699.106 625.584 699.907C630.227 701.402 633.727 699.856 637.815 697.787C644.864 706.585 651.531 710.332 662.331 713.354C654.216 718.849 645.111 723.008 636.321 727.283Q620.671 735.581 605.428 744.607C618.814 727.323 618.587 717.446 618.537 696.253Z"/>
		<path fill="#A44D4B" d="M426.503 562.409C436.026 556.414 445.993 551.019 455.833 545.563C457.072 555.518 455.66 565.44 456.084 575.422C451.731 578.33 446.759 580.577 442.14 583.06C436.865 585.896 431.737 588.98 426.602 592.059C426.38 582.186 426.519 572.285 426.503 562.409Z"/>
		<path fill="#F3953F" d="M555.494 777.396L555.541 787.808L555.527 804.123Q547.237 808.924 539.149 814.058C534.629 816.936 530.088 820.241 525.263 822.564C524.897 816.763 525.563 810.554 524.803 804.859C524.429 801.427 524.865 797.855 525.098 794.413C535.04 788.37 545.213 782.831 555.494 777.396Z"/>
		<path fill="#7A5228" d="M555.494 777.396L555.541 787.808C544.787 792.2 534.524 798.542 524.803 804.859C524.429 801.427 524.865 797.855 525.098 794.413C535.04 788.37 545.213 782.831 555.494 777.396Z"/>
		<path fill="#F3953F" d="M753.36 534.501C760.11 534.528 764.825 537.851 770.258 541.404C760.677 546.531 751.394 552.266 742.008 557.743C736.443 560.991 730.381 565.068 724.213 566.996C717.966 564.974 711.814 562.842 705.697 560.451C720.745 550.832 737.072 541.85 753.36 534.501Z"/>
		<path fill="#7A5228" d="M168.597 496.853C170.378 498.882 170.74 502.084 172.483 504.275C177.906 511.091 191.706 513.553 199.8 514.282C209.987 515.2 218.047 513.754 226.028 507.051L226.011 522.462C224.88 524.212 221.608 525.114 219.624 525.718C201.813 531.146 183.843 525.285 168.139 516.778C167.433 510.118 166.613 503.364 168.597 496.853Z"/>
		<path fill="#7A5228" d="M366.253 370.797L366.04 369.726L365.741 369.574L366.401 368.413L366.071 368.582C366.232 368.636 366.393 368.688 366.553 368.745C370.386 370.103 374.702 372.456 377.895 374.978C378.803 375.97 379.987 377.039 380.751 378.128C381.425 381.229 392.408 392.872 394.823 396.161C406.05 411.452 416.992 429.451 420.619 448.247C421.804 454.385 425.193 494.895 422.749 498.557C420.841 498.778 418.848 497.778 417.074 497.138C417.152 485.979 417.303 474.772 416.541 463.634C415.998 455.7 414.944 447.773 412.418 440.205C406.155 421.441 389.29 395.376 376.331 380.403C373.373 376.985 369.656 373.766 366.253 370.797Z"/>
		<path fill="#7A5228" d="M455.833 545.563C464.294 540.734 473.187 536.807 481.494 531.691L481.891 531.442C481.899 539.507 481.603 547.766 482.602 555.785L485.87 559.13L456.084 575.422C455.66 565.44 457.072 555.518 455.833 545.563Z"/>
		<path fill="#A44D4B" d="M455.471 577.096C456.046 578.654 455.692 598.584 456.152 602.893Q441.176 610.938 426.605 619.694L426.696 593.104C435.894 587.132 445.683 582.021 455.471 577.096Z"/>
		<path fill="#A44D4B" d="M504.063 669.182C512.006 672.787 520.027 675.084 528.439 677.265C528.645 684.776 529.674 692.927 528.977 700.371C528.789 702.386 528.597 703.15 527.039 704.467C524.953 705.606 522.754 706.575 520.61 707.603L504.437 700.506Q503.946 684.848 504.063 669.182Z"/>
		<path fill="#F3953F" d="M566.344 635.474C571.25 637.414 576.049 639.706 580.868 641.857C575.673 645.449 569.617 648.111 564.077 651.181Q547.795 660.185 531.771 669.641C530.73 669.545 530.989 669.714 530.269 669.227C526.129 666.428 521.862 664.544 517.205 662.748C533.33 653.361 549.691 643.867 566.344 635.474Z"/>
		<path fill="#7A5228" d="M168.088 522.851C170.403 523.987 172.698 525.178 175.056 526.224C192.095 533.788 208.581 534.794 225.965 528.036C226.025 532.235 225.965 536.289 225.349 540.449C222.14 543.357 218.305 544.292 214.084 544.677C198.512 546.098 180.586 543.314 168.312 533.101C167.981 529.716 168.096 526.252 168.088 522.851Z"/>
		<path fill="#F3953F" d="M704.881 564.161C710.542 566.491 716.187 568.996 722.008 570.899C721.974 578.095 722.436 585.569 721.931 592.727L722.025 599.542L716.205 602.172C710.729 599.93 705.639 596.835 700.523 593.889C700.335 587.231 699.197 579.225 701.075 572.784C702.704 569.988 703.803 567.205 704.881 564.161Z"/>
		<path fill="#7A5228" d="M704.881 564.161C710.542 566.491 716.187 568.996 722.008 570.899C721.974 578.095 722.436 585.569 721.931 592.727C721.339 588.855 721.511 584.797 721.474 580.882C714.732 578.079 708.045 574.978 701.075 572.784C702.704 569.988 703.803 567.205 704.881 564.161Z"/>
		<path fill="#7A5228" d="M733.226 685.597C733.066 692.424 734.151 699.694 733.268 706.431L702.81 724.428Q702.571 719.53 702.494 714.626C702.326 710.626 702.574 706.569 702.677 702.567Q717.823 693.852 733.226 685.597Z"/>
		<path fill="#F3953F" d="M702.494 714.626C712.262 707.652 722.322 701.835 732.952 696.274C732.934 699.661 732.807 703.068 733.268 706.431L702.81 724.428Q702.571 719.53 702.494 714.626Z"/>
		<path fill="#A44D4B" d="M556.855 166.034C568.1 170.921 578.454 177.647 589.238 183.446C585.565 186.162 581.592 188.461 577.695 190.837Q567.145 196.798 556.495 202.58C556.128 190.429 556.419 178.181 556.855 166.034Z"/>
		<path fill="#358F70" d="M495.476 506.721C498.889 507.221 502.647 508.087 506.083 508.028C508.667 518.892 507.517 531.121 508.488 542.276L508.248 543.709L506.304 546.089C503.348 547.318 501.047 549.647 498.119 550.776L497.372 550.515C494.766 544.034 495.667 521.345 495.48 513.09L495.476 506.721Z"/>
		<path fill="#376037" d="M495.476 506.721C498.889 507.221 502.647 508.087 506.083 508.028C502.639 510.246 499.326 511.735 495.48 513.09L495.476 506.721Z"/>
		<path fill="#7A5228" d="M667.582 492.157C676.736 487.433 686.053 483.03 694.996 477.908C694.666 483.542 694.356 489.246 694.817 494.879C685.736 499.74 677.109 505.347 668.151 510.413C667.529 505.291 668.702 495.829 667.582 492.157Z"/>
		<path fill="#C58C8B" d="M452.397 223.424C453.603 229.178 452.786 236.508 452.717 242.401L452.256 277.202C450.022 278.426 447.634 279.361 445.293 280.36C443.334 274.217 444.514 238.161 444.534 228.505C447.105 226.737 449.761 225.094 452.397 223.424Z"/>
		<path fill="#376037" d="M488.462 502.639C490.335 504.081 492.408 505.308 494.393 506.592C493.875 517.131 492.979 543.943 496.388 552.803L496.986 552.711L497.372 550.515L498.119 550.776C498.325 552.276 498.388 553.465 498.236 554.97L497.578 556.498C494.979 556.526 492.765 555.797 490.302 555.07C489.119 537.673 489.11 520.076 488.462 502.639Z"/>
		<path fill="#A44D4B" d="M553.432 161.921L553.517 189.965C550.148 191.46 546.679 193.311 543.189 194.459C544.079 186.072 543.574 177.225 543.546 168.783L553.432 161.921Z"/>
		<path fill="#C58C8B" d="M543.189 194.459C546.679 193.311 550.148 191.46 553.517 189.965C553.639 194.745 553.699 199.537 553.886 204.314C550.132 206.536 546.402 208.928 542.501 210.876C542.526 205.415 542.461 199.882 543.189 194.459Z"/>
		<path fill="#A44D4B" d="M555.196 484.164C555.641 484.356 556.075 484.716 556.478 484.99C558.024 489.726 557.863 514.686 555.725 519.364C555.639 519.35 555.546 519.358 555.467 519.322C554.727 518.985 554.592 518.819 554.334 518.044C552.7 513.144 552.947 488.565 555.196 484.164Z"/>
		<path fill="#F3953F" d="M506.304 546.089L508.248 543.709C510.03 546.502 511.736 547.352 514.77 548.528C513.934 549.776 513.7 549.785 513.933 551.242C515.571 552.864 517.995 552.752 520 553.684C518.315 554.515 516.371 554.991 514.581 555.561C509.995 554.587 505.806 552.922 501.595 550.892C503.315 549.393 504.808 547.811 506.304 546.089Z"/>
		<path fill="#A44D4B" d="M725.564 573.749C727.32 575.077 728.603 576.409 729.312 578.544C730.776 582.952 730.903 591.05 728.806 595.283C727.989 595.852 727.289 596.205 726.352 596.54C724.499 590.544 725.56 580.128 725.564 573.749Z"/>
		<path fill="#7A5228" d="M512.835 665.471C514.86 665.641 516.77 666.213 518.683 666.877C521.013 667.685 525.621 669.386 526.704 671.614L526.117 672.426L524.644 672.422Q516.223 670.331 507.992 667.585L512.835 665.471Z"/>
		<path fill="#7A5228" d="M748.129 521.327C751.093 523.324 754.289 526.882 755.449 530.259L754.894 531.092C752.563 531.486 750.332 532.21 748.072 532.888Q748.009 527.107 748.129 521.327Z"/>
		<path fill="#7A5228" d="M498.236 554.97C500.857 553.714 502.437 553.868 505.177 554.831C507.443 555.628 509.61 556.678 511.856 557.521Q508.989 558.717 506.088 559.828C503.045 558.932 500.357 558.061 497.578 556.498L498.236 554.97Z"/>
		<path fill="#7A5228" d="M693.908 500.924L694.675 501.504C695.25 504.009 695.803 505.507 694.441 507.804C692.869 508.258 692.158 507.568 690.701 506.903C689.813 506.523 689.189 506.114 688.44 505.504L688.406 504.46C689.729 502.769 692.026 501.892 693.908 500.924Z"/>
		<path fill="#F3953F" d="M488.48 499.571C489.602 499.355 490.625 499.222 491.735 499.594C494.362 500.474 499.562 502.538 500.776 505.038C497.579 505.135 493.845 504.17 491.039 502.636C489.559 501.827 488.915 501.193 488.48 499.571Z"/>
		<path d="M859.117 514.055C859.012 513.396 858.92 512.737 858.822 512.077C857.801 505.153 857.491 483.726 859.474 477.285C859.533 485.759 860.681 506.801 859.117 514.055Z"/>
	</g>
	<g/>
</svg>
