<?xml version="1.0" encoding="utf-8" ?>
<svg xmlns="http://www.w3.org/2000/svg" xmlns:xlink="http://www.w3.org/1999/xlink" width="1024" height="1024">
	<g>
		<path fill="#2F1834" d="M404.69 141.274C407.018 138.394 409.407 136.328 412.439 134.217C426.512 124.421 442.159 116.343 456.714 107.221C469.202 99.3947 481.048 90.1363 494.105 83.2951C498.426 81.0309 503.327 79.0092 508.218 78.4972C514.01 77.8909 519.71 79.1098 525.046 81.3258C536.595 86.1218 547.207 94.2237 557.985 100.548C579.304 113.058 601.017 125.036 622.018 138.068L622.044 283.39C617.401 286.099 609.224 291.977 604.741 293.61L604.163 294.777C604.854 296.397 606.792 297.621 608.241 298.583C621.139 307.152 634.983 314.571 648.279 322.516C660.174 329.624 671.699 337.346 683.588 344.446C689.914 340.802 696.26 336.869 702.992 334.014C726.114 346.722 748.304 361.435 770.869 375.119C788.043 385.534 806.348 395.034 822.673 406.709C822.618 415.277 823.012 424.114 822.319 432.643C823.741 435.965 890.928 473.618 899.504 478.883L900.01 553.197C886.303 560.907 872.927 568.457 860.321 577.911Q870.646 583.579 880.62 589.845C886.701 593.639 892.979 598.324 899.698 600.886C901.561 603.803 899.883 666.46 900.127 674.896C884.074 686.318 865.999 695.286 849.09 705.398Q786.088 743.026 722.658 779.928Q654.728 820.352 586.363 860.036Q564.039 873.224 541.573 886.17C533.798 890.723 526.155 895.91 518.007 899.753C516.385 900.634 514.741 901.257 513.009 901.89C499.916 895.845 488.135 887.726 475.749 880.432L399.986 835.434L262.495 755.091L183.006 707.82C163.39 696.084 143.859 684.012 123.901 672.872L124 599.907C135.976 591.039 149.504 584.08 162.005 575.95C150.257 566.875 136.549 560.059 123.613 552.861C124.662 537.113 124.025 520.891 123.667 505.121C123.471 496.457 122.78 487.291 123.921 478.677C137.18 468.838 152.484 460.95 166.71 452.576L235.306 411.835L347.011 345.913C373.229 330.269 399.197 313.711 425.995 299.108L425.935 292.234C417.824 288.512 409.996 283.778 402.51 278.939C401.824 250.81 402.369 222.594 402.315 194.454L402.132 165.834C402.075 160.268 401.722 154.537 402.226 148.991C402.5 145.976 403.182 143.913 404.69 141.274Z"/>
		<path fill="#AD5F5E" d="M425.995 299.108C425.868 305.119 425.072 311.369 428.608 316.614Q436.186 320.433 443.258 325.122C449.796 328.67 456.026 332.72 462.265 336.761C463.767 344.938 465.302 352.961 467.874 360.887Q395.147 405.565 321.077 447.977L280.484 471.897C268.706 478.724 255.902 484.571 245.765 493.8C260.328 504.395 277.179 512.695 292.878 521.531C308.24 530.177 323.304 539.479 338.899 547.692C329.05 555.092 317.722 560.947 306.86 566.708L297.179 573.111L296.965 579.179C289.249 575.735 282.076 571.106 274.836 566.78L249.967 552.116L179.773 510.498C166.738 502.77 153.808 494.763 140.561 487.413C134.866 485.392 129.15 481.705 123.921 478.677C137.18 468.838 152.484 460.95 166.71 452.576L235.306 411.835L347.011 345.913C373.229 330.269 399.197 313.711 425.995 299.108Z"/>
		<path fill="#FDE2AB" d="M425.995 299.108C425.868 305.119 425.072 311.369 428.608 316.614Q436.186 320.433 443.258 325.122C424.197 337.868 403.7 348.436 383.921 360.018L268.54 427.704L201.851 466.876C190.503 473.553 179.002 481.923 166.696 486.624C198.908 504.096 230.397 522.849 262.078 541.266Q275.051 548.868 288.143 556.264C294.365 559.73 300.81 562.957 306.86 566.708L297.179 573.111L296.965 579.179C289.249 575.735 282.076 571.106 274.836 566.78L249.967 552.116L179.773 510.498C166.738 502.77 153.808 494.763 140.561 487.413C134.866 485.392 129.15 481.705 123.921 478.677C137.18 468.838 152.484 460.95 166.71 452.576L235.306 411.835L347.011 345.913C373.229 330.269 399.197 313.711 425.995 299.108Z"/>
		<path fill="#724051" d="M425.995 299.108C425.868 305.119 425.072 311.369 428.608 316.614C422.981 322.556 413.328 326.8 406.226 330.931L376.984 347.959L205.669 448.882L162.877 473.847C155.591 478.061 146.817 481.796 140.561 487.413C134.866 485.392 129.15 481.705 123.921 478.677C137.18 468.838 152.484 460.95 166.71 452.576L235.306 411.835L347.011 345.913C373.229 330.269 399.197 313.711 425.995 299.108Z"/>
		<path fill="#AD5F5E" d="M594.946 299.419C597.912 297.414 601.356 294.755 604.741 293.61L604.163 294.777C604.854 296.397 606.792 297.621 608.241 298.583C621.139 307.152 634.983 314.571 648.279 322.516C660.174 329.624 671.699 337.346 683.588 344.446C680.478 347.62 672.916 351.832 668.474 352.658C664.947 354.296 660.268 355.837 658.869 359.874C658.466 361.038 658.412 362.28 658.355 363.5C658.307 370.746 657.988 377.987 657.992 385.233C658.002 387.429 657.875 388.96 659.475 390.672C664.617 396.174 696.922 413.608 705.888 418.883C729.056 432.516 751.981 446.831 775.455 459.911C782.02 455.674 788.375 451.256 795.112 447.275C802.141 452.371 809.806 456.566 817.321 460.893C832.133 469.42 847.351 477.602 861.392 487.358C840.89 498.353 820.306 509.132 800.176 520.805C780.6 532.157 761.523 544.353 742.001 555.803L618.129 627.966L559.847 662.164C545.312 670.765 530.815 679.983 515.448 687.035C501.812 680.525 488.921 672.453 475.866 664.871L420.097 632.825C409.476 626.697 399.033 620.155 388.21 614.405C397.35 606.328 409.575 601.699 419.762 595.013Q464.512 621.255 508.8 648.27C526.654 638.778 543.778 628.085 561.202 617.845L638.79 572.876Q691.102 543.525 742.948 513.358C752.125 507.928 770.477 498.472 777.357 491.397C760.228 478.66 739.278 468.358 720.809 457.223L634.051 404.648C610.436 390.587 586.44 377.166 563.469 362.057Q567.151 348.23 570.317 334.275L589.204 322.709C591.223 321.554 593.141 320.161 595.078 318.872L595.009 308.99C594.84 305.819 594.948 302.596 594.946 299.419Z"/>
		<path fill="#724051" d="M594.946 299.419C597.912 297.414 601.356 294.755 604.741 293.61L604.163 294.777C604.854 296.397 606.792 297.621 608.241 298.583C621.139 307.152 634.983 314.571 648.279 322.516C660.174 329.624 671.699 337.346 683.588 344.446C680.478 347.62 672.916 351.832 668.474 352.658C664.947 354.296 660.268 355.837 658.869 359.874C658.466 361.038 658.412 362.28 658.355 363.5C649.902 360.829 632.839 348.957 624.366 343.925C612.696 336.995 600.057 330.871 589.204 322.709C591.223 321.554 593.141 320.161 595.078 318.872L595.009 308.99C594.84 305.819 594.948 302.596 594.946 299.419Z"/>
		<path fill="#FDE2AB" d="M595.009 308.99C605.507 313.396 620.373 323.72 630.593 329.898C643.184 337.51 656.341 344.318 668.474 352.658C664.947 354.296 660.268 355.837 658.869 359.874C658.466 361.038 658.412 362.28 658.355 363.5C649.902 360.829 632.839 348.957 624.366 343.925C612.696 336.995 600.057 330.871 589.204 322.709C591.223 321.554 593.141 320.161 595.078 318.872L595.009 308.99Z"/>
		<path fill="#724051" d="M657.992 385.233C658.002 387.429 657.875 388.96 659.475 390.672C664.617 396.174 696.922 413.608 705.888 418.883C729.056 432.516 751.981 446.831 775.455 459.911Q767.665 464.852 759.255 468.642C739.784 456.471 719.824 445.177 700.144 433.362C691.592 428.229 683.364 422.554 674.803 417.442C664.148 411.08 648.08 403.633 639.101 395.775C643.503 391.081 651.952 387.09 657.992 385.233Z"/>
		<path fill="#F75B44" d="M899.698 600.886C901.561 603.803 899.883 666.46 900.127 674.896C884.074 686.318 865.999 695.286 849.09 705.398Q786.088 743.026 722.658 779.928Q654.728 820.352 586.363 860.036Q564.039 873.224 541.573 886.17C533.798 890.723 526.155 895.91 518.007 899.753C518.152 893.151 516.424 885.88 517.815 879.41C519.075 866.04 518.354 846.667 517.734 832.995C522.673 830.805 527.447 827.733 532.163 825.066Q546.923 816.687 561.593 808.152Q605.802 782.574 649.746 756.542L886.004 617.663L885.97 610.827L888.914 608.785L889.776 609.025C893.499 608.526 896.065 603.716 898.889 601.502C899.155 601.292 899.428 601.091 899.698 600.886Z"/>
		<path fill="#724051" d="M899.698 600.886C901.561 603.803 899.883 666.46 900.127 674.896C884.074 686.318 865.999 695.286 849.09 705.398Q786.088 743.026 722.658 779.928Q654.728 820.352 586.363 860.036Q564.039 873.224 541.573 886.17C533.798 890.723 526.155 895.91 518.007 899.753C518.152 893.151 516.424 885.88 517.815 879.41Q621.111 819.437 723.783 758.399L885.721 663.275C885.297 648.09 885.701 632.848 886.004 617.663L885.97 610.827L888.914 608.785L889.776 609.025C893.499 608.526 896.065 603.716 898.889 601.502C899.155 601.292 899.428 601.091 899.698 600.886Z"/>
		<path fill="#FBAA37" d="M413.95 145.468C422.467 139.68 432.075 134.898 440.877 129.447Q454.989 120.759 468.973 111.866C478.061 105.987 492.091 95.0571 502.055 92.0041C519.126 86.7733 536.016 100.921 549.535 109.135Q562.398 116.913 575.575 124.145C583.751 130.706 590.009 137.068 591.141 148.123C592.159 158.061 589.087 167.607 582.789 175.323C576.064 183.562 566.439 188.861 557.468 194.282C552.678 194.614 547.726 196.695 543.409 198.68C527.201 206.131 516.735 211.259 498.678 205.098C477.654 197.925 450.578 178.644 440.663 158.21C437 150.662 437.386 147.076 440.089 139.279C435.83 142.545 432.649 146.085 430.195 150.884L428.045 155.424C426.761 157.54 425.781 159.411 425.019 161.787C422.129 161.179 416.153 159.677 414.156 157.52L413.904 157.084Q413.806 151.275 413.95 145.468Z"/>
		<path fill="#FDE2AB" d="M528.811 112.215C540.581 111.385 553.077 116.716 562.012 124.097C569.082 129.937 574.74 138.706 575.4 148.022Q575.447 148.627 575.463 149.234Q575.48 149.84 575.466 150.447Q575.451 151.054 575.407 151.659Q575.362 152.264 575.287 152.867Q575.212 153.469 575.106 154.067Q575.001 154.664 574.866 155.256Q574.73 155.848 574.565 156.432Q574.4 157.016 574.206 157.591Q574.012 158.166 573.789 158.73Q573.566 159.295 573.315 159.847Q573.064 160.4 572.785 160.939Q572.507 161.478 572.201 162.003Q571.896 162.527 571.565 163.036Q571.233 163.544 570.877 164.035Q570.52 164.526 570.139 164.999Q569.758 165.471 569.354 165.924C562.085 174.128 551.326 176.594 540.813 177.11C528.1 176.567 516.426 172.826 506.443 164.771C499.709 159.337 493.832 151.68 493.093 142.779C492.547 136.209 494.979 129.75 499.271 124.816C506.729 116.243 517.831 112.993 528.811 112.215Z"/>
		<path fill="#FDE2AB" d="M795.112 447.275C798.914 445.255 802.627 443.173 806.28 440.895L884.992 487.35C860.306 502.744 834.867 516.839 809.892 531.746Q723.295 583.603 636.111 634.465L555.405 681.387C541.627 689.388 527.823 698.419 513.517 705.392C500.018 695.399 484.65 687.334 470.167 678.841L409.436 642.897C398.221 636.29 385.79 630.352 375.594 622.251C379.554 619.405 383.833 616.577 388.21 614.405C399.033 620.155 409.476 626.697 420.097 632.825L475.866 664.871C488.921 672.453 501.812 680.525 515.448 687.035C530.815 679.983 545.312 670.765 559.847 662.164L618.129 627.966L742.001 555.803C761.523 544.353 780.6 532.157 800.176 520.805C820.306 509.132 840.89 498.353 861.392 487.358C847.351 477.602 832.133 469.42 817.321 460.893C809.806 456.566 802.141 452.371 795.112 447.275Z"/>
		<path fill="#724051" d="M404.69 141.274C407.018 138.394 409.407 136.328 412.439 134.217C426.512 124.421 442.159 116.343 456.714 107.221C469.202 99.3947 481.048 90.1363 494.105 83.2951C498.426 81.0309 503.327 79.0092 508.218 78.4972C514.01 77.8909 519.71 79.1098 525.046 81.3258C536.595 86.1218 547.207 94.2237 557.985 100.548C579.304 113.058 601.017 125.036 622.018 138.068L622.044 283.39C617.401 286.099 609.224 291.977 604.741 293.61C607.835 287.004 607.95 283.267 612.97 277.025C612.64 266.95 612.894 256.801 612.876 246.717C613.095 228.224 613.727 209.763 613.423 191.264C614.129 184.906 612.63 177.875 612.233 171.491C611.894 166.048 612.07 160.498 611.448 155.085C611.287 153.686 611.104 152.317 610.328 151.115L609.738 151.9C608.355 146.158 604.879 142.833 600.32 139.388C600.072 138.713 599.847 138.356 599.319 137.831C595.705 134.226 580.29 124.375 575.575 124.145Q562.398 116.913 549.535 109.135C536.016 100.921 519.126 86.7733 502.055 92.0041C492.091 95.0571 478.061 105.987 468.973 111.866Q454.989 120.759 440.877 129.447C432.075 134.898 422.467 139.68 413.95 145.468Q413.806 151.276 413.904 157.084C411.564 153.483 412.105 150.785 412.514 146.73C409.97 144.765 407.494 142.865 404.69 141.274Z"/>
		<path fill="#724051" d="M810.558 439.47C813.856 437.181 819.816 434.728 822.319 432.643C823.741 435.965 890.928 473.618 899.504 478.883L900.01 553.197C886.303 560.907 872.927 568.457 860.321 577.911Q870.646 583.579 880.62 589.845C886.701 593.639 892.979 598.324 899.698 600.886C899.428 601.091 899.155 601.292 898.889 601.502C896.065 603.716 893.499 608.526 889.776 609.025L888.914 608.785C879.947 599.953 845.299 585.391 842.116 578.427C843.151 574.104 880.235 552.472 886.585 548.271C886.566 535.284 886.475 522.287 886.62 509.301C886.706 501.603 887.246 493.88 886.882 486.189C881.48 480.9 874.097 477.468 867.597 473.674Q852.926 464.939 838.156 456.371C828.794 451.037 818.985 446.25 810.558 439.47Z"/>
		<path fill="#9B5E2B" d="M430.195 150.884C432.649 146.085 435.83 142.545 440.089 139.279C437.386 147.076 437 150.662 440.663 158.21C450.578 178.644 477.654 197.925 498.678 205.098C516.735 211.259 527.201 206.131 543.409 198.68C547.726 196.695 552.678 194.614 557.468 194.282C548.401 201.421 539.541 207.683 529.088 212.691L529.643 213.611C527.413 215.642 523.728 216.617 520.898 217.658L521.137 218.125C522.844 217.832 524.346 217.283 525.962 216.67L527.301 218.077C520.049 221.095 513.045 223.338 505.176 223.999C500.906 224.357 487.098 222.798 485.006 223.701C475.517 220.051 466.495 213.419 457.697 208.317C450.184 203.959 437.216 197.718 431.022 192.326C430.595 180.927 423.029 175.755 425.019 161.787C425.781 159.411 426.761 157.54 428.045 155.424L430.195 150.884Z"/>
		<path fill="#9B5E2B" d="M425.019 161.787C425.781 159.411 426.761 157.54 428.045 155.424C427.313 164.24 427.187 175.571 432.495 183.076C434.425 185.872 436.666 187.946 439.34 189.997C447.462 196.229 456.873 200.99 465.712 206.121C472.161 209.864 478.413 214.096 485.18 217.246C488.041 218.578 490.938 219.568 494.046 220.139C497.403 220.755 500.993 221.071 504.403 220.907C509.841 220.554 516.155 220.528 521.137 218.125C522.844 217.832 524.346 217.283 525.962 216.67L527.301 218.077C520.049 221.095 513.045 223.338 505.176 223.999C500.906 224.357 487.098 222.798 485.006 223.701C475.517 220.051 466.495 213.419 457.697 208.317C450.184 203.959 437.216 197.718 431.022 192.326C430.595 180.927 423.029 175.755 425.019 161.787Z"/>
		<path fill="#2F1834" d="M435.767 183.009C437.589 185.175 439.807 186.914 442.119 188.529C449.528 193.703 457.751 197.887 465.505 202.537C472.835 206.931 480.278 212.554 488.249 215.707C493.342 217.722 498.96 218.105 504.354 218.669C513.097 218.401 521.071 216.055 529.088 212.691L529.643 213.611C527.413 215.642 523.728 216.617 520.898 217.658L521.137 218.125C516.155 220.528 509.841 220.554 504.403 220.907C500.993 221.071 497.403 220.755 494.046 220.139C490.938 219.568 488.041 218.578 485.18 217.246C478.413 214.096 472.161 209.864 465.712 206.121C456.873 200.99 447.462 196.229 439.34 189.997C436.666 187.946 434.425 185.872 432.495 183.076L435.767 183.009Z"/>
		<path fill="#2F1834" d="M430.195 150.884C431.927 156.226 431.312 161.984 431.814 167.512C432.303 172.898 433.976 177.94 435.767 183.009L432.495 183.076C427.187 175.571 427.313 164.24 428.045 155.424L430.195 150.884Z"/>
		<path fill="#D0BA91" d="M885.97 610.827L886.004 617.663L649.746 756.542Q605.802 782.574 561.593 808.152Q546.923 816.687 532.163 825.066C527.447 827.733 522.673 830.805 517.734 832.995C517.356 831.382 516.757 829.376 517.303 827.74C517.64 826.73 518.322 825.948 519.171 825.338C521.885 823.386 525.288 822.09 528.209 820.431C534.578 816.813 540.83 812.95 547.136 809.219L619.895 766.351L798.313 661.691L867.239 622.256C873.598 618.651 879.468 614.146 885.97 610.827Z"/>
		<path fill="#FBAA37" d="M575.575 124.145C580.29 124.375 595.705 134.226 599.319 137.831C599.847 138.356 600.072 138.713 600.32 139.388C604.879 142.833 608.355 146.158 609.738 151.9C610.825 161.33 610.482 170.289 609.347 179.677L551.138 215.791C538.033 223.944 525.089 232.445 511.472 239.728C502.046 235.276 494.28 228.198 485.006 223.701C487.098 222.798 500.906 224.357 505.176 223.999C513.045 223.338 520.049 221.095 527.301 218.077L525.962 216.67C524.346 217.283 522.844 217.832 521.137 218.125L520.898 217.658C523.728 216.617 527.413 215.642 529.643 213.611L529.088 212.691C539.541 207.683 548.401 201.421 557.468 194.282C566.439 188.861 576.064 183.562 582.789 175.323C589.087 167.607 592.159 158.061 591.141 148.123C590.009 137.068 583.751 130.706 575.575 124.145Z"/>
		<path fill="#2F1834" d="M575.575 124.145C580.29 124.375 595.705 134.226 599.319 137.831C599.847 138.356 600.072 138.713 600.32 139.388C596.979 137.365 593.659 135.286 590.232 133.409C594.416 144.837 595.402 153.327 592.901 165.279C589.869 171.052 586.548 176.341 581.973 181.036C570.703 192.601 541.127 209.684 525.962 216.67C524.346 217.283 522.844 217.832 521.137 218.125L520.898 217.658C523.728 216.617 527.413 215.642 529.643 213.611L529.088 212.691C539.541 207.683 548.401 201.421 557.468 194.282C566.439 188.861 576.064 183.562 582.789 175.323C589.087 167.607 592.159 158.061 591.141 148.123C590.009 137.068 583.751 130.706 575.575 124.145Z"/>
		<path fill="#AD5F5E" d="M525.962 216.67C541.127 209.684 570.703 192.601 581.973 181.036C586.548 176.341 589.869 171.052 592.901 165.279C592.382 172.707 588.624 179.459 583.071 184.36C574.014 192.351 539.693 213.323 528.273 217.7L527.667 217.939L527.301 218.077L525.962 216.67Z"/>
		<path fill="#FBAA37" d="M414.156 157.52C416.153 159.677 422.129 161.179 425.019 161.787C423.029 175.755 430.595 180.927 431.022 192.326C426.683 189.892 422.293 187.34 419.022 183.508C412.625 176.014 413.469 166.625 414.156 157.52Z"/>
		<path fill="#FDE2AB" d="M251.668 493.312C259.123 486.864 269.376 482.26 277.971 477.391Q294.736 467.803 311.357 457.967L469.108 365.109C471.843 373.811 474.002 382.699 476.285 391.528C457.402 400.091 440.343 412.208 422.481 422.641Q398.273 436.672 374.224 450.974C363.222 457.423 352.054 463.53 341.432 470.607C342.233 478.678 342.073 486.788 341.927 494.885Q342.069 502.237 341.946 509.589Q400.833 543.083 459.201 577.474L492.821 597.321C499.805 601.435 506.966 606.198 514.511 609.174C529.027 601.272 543.066 592.414 557.292 583.995Q594.339 562.02 631.742 540.655C642.353 534.61 652.921 528.122 663.809 522.599C670.438 518.471 678.605 516.247 684.066 510.464C686.492 498.336 685.39 485.419 684.96 473.117C679.939 468.471 673.498 465.167 667.648 461.667L644.032 447.529Q599.208 420.284 554.01 393.663L561.497 366.405C570.424 371.932 579.65 377.014 588.697 382.348L645.562 416.261C687.622 441.653 729.225 467.72 772.263 491.452C764.214 497.609 754.414 502.132 745.609 507.173L698.711 534.382L509.366 643.662Q438.142 600.373 365.996 558.64Q308.659 526.282 251.668 493.312Z"/>
		<path fill="#D0BA91" d="M341.927 494.885Q342.069 502.237 341.946 509.589Q400.833 543.083 459.201 577.474L492.821 597.321C499.805 601.435 506.966 606.198 514.511 609.174C529.027 601.272 543.066 592.414 557.292 583.995Q594.339 562.02 631.742 540.655C642.353 534.61 652.921 528.122 663.809 522.599C663.724 522.783 663.653 522.974 663.554 523.151C661.223 527.311 653.577 533.865 649.524 536.618C644.079 540.317 637.959 543.23 632.211 546.438C620.176 553.155 608.047 559.762 596.089 566.609C591.778 569.078 587.846 572.135 583.573 574.64C570.5 582.304 557.361 590.076 544.082 597.373C539.371 599.962 534.397 602.091 529.71 604.682C524.207 607.724 519.894 611.469 513.677 613.198C507.047 608.613 499.319 605.419 492.2 601.629L448.96 578.227C409.796 556.838 371.468 534.012 331.911 513.323Q336.629 510.188 341.478 507.259C341.504 503.155 341.347 498.953 341.927 494.885Z"/>
		<path fill="#F75B44" d="M518.71 711.476C518.198 710.286 517.599 709.216 517.717 707.887C521.254 703.753 550.716 688.466 557.616 684.455L661.357 623.981Q773.784 558.456 885.221 491.261L885.477 498.176C885.229 513.781 885.41 529.332 885.476 544.933Q777.334 611.195 668.131 675.693L584.378 724.528C562.183 737.45 539.983 750.144 518.493 764.226Q518.516 748.609 518.273 732.994C518.194 726.11 517.624 718.246 518.71 711.476Z"/>
		<path fill="#D0BA91" d="M518.71 711.476C518.198 710.286 517.599 709.216 517.717 707.887C521.254 703.753 550.716 688.466 557.616 684.455L661.357 623.981Q773.784 558.456 885.221 491.261L885.477 498.176C860.173 510.222 836.823 527.155 812.775 541.462L628.817 649.357Q591.685 671.111 554.25 692.34C544.23 698.058 534.426 704.505 524.18 709.78C522.444 710.674 520.725 711.739 518.71 711.476Z"/>
		<path fill="#852630" d="M138.979 613.122C150.072 618.078 160.232 625.265 170.655 631.482L233.872 669.121L433.627 786.223L483.623 815.521C490.749 819.698 501.6 824.829 507.57 830.204C505.312 845.552 506.552 861.895 507.006 877.358L506.449 877.696C500.121 876.04 488.512 867.735 482.329 864.091Q456.245 848.921 430.336 833.455L246.904 726.278Q209.517 703.587 171.581 681.827C160.822 675.542 150.678 668.311 139.387 662.97C138.418 646.473 138.994 629.656 138.979 613.122Z"/>
		<path fill="#FBAA37" d="M476.362 394.962C479.824 398.907 480.888 412.8 481.695 418.507C462.853 428.813 445.094 440.758 426.683 451.767C413.891 459.416 400.266 465.773 388.024 474.311C416.894 490.096 445.289 506.987 473.781 523.454C486.776 530.965 499.5 538.773 512.867 545.633C529.313 533.947 547.529 524.205 564.991 514.094L637.783 471.748C625.258 463.01 612.165 455.254 599.138 447.3L547.647 415.855Q550.302 406.571 553.205 397.361C572.958 409.626 593.269 421.145 613.248 433.05C635.327 446.384 658.271 459.009 679.484 473.661C660.568 483.661 642.222 494.705 623.755 505.503C587.115 526.927 550.635 548.835 513.463 569.318C487.459 552.018 459.865 536.614 432.813 520.998Q389.871 495.867 346.376 471.705C360.425 464.258 374.054 455.221 387.778 447.125L476.362 394.962Z"/>
		<path fill="#F75B44" d="M611.462 182.52C611.546 185.879 611.779 189.222 612.01 192.573L611.902 227.249C611.889 232.593 611.347 238.495 611.92 243.773C610.905 253.825 611.55 264.494 611.512 274.614C602.659 283.553 581.443 294.982 570.149 301.991C551.162 313.775 532.385 325.965 513.134 337.312C511.818 326.022 512.641 314.246 512.647 302.885L512.493 243.498Q541.204 226.343 569.283 208.17C583.163 199.331 596.89 190.19 611.462 182.52Z"/>
		<path fill="#2F1834" d="M595.632 214.56C597.519 217.234 596.522 261.227 596.521 268.281C574.661 281.323 552.666 294.412 531.251 308.167L530.728 307.699C528.942 303.31 530.452 262.364 530.552 253.95C537.648 248.159 546.286 243.717 554.152 238.997Q574.762 226.558 595.632 214.56Z"/>
		<path fill="#FBAA37" d="M591.961 220.885L592.572 221.053C594.687 225.106 593.382 258.403 593.329 264.823Q564.949 282.867 536.017 300.011C535.966 299.963 535.908 299.922 535.865 299.866C533.688 297.038 534.917 262.531 534.987 256.253C552.53 243.356 573.25 232.17 591.961 220.885Z"/>
		<path fill="#852630" d="M411.062 178.817C412.281 179.794 413.176 181.615 414.162 182.867C416.893 186.336 420.275 189.732 423.84 192.344C430.194 197 437.322 200.543 444.067 204.583C465.875 217.643 488.798 229.614 509.696 244.075C509.377 255.05 509.868 266.022 509.945 276.996Q510.076 306.353 509.907 335.71C498.964 330.472 488.661 322.557 478.219 316.294Q445.223 296.762 411.989 277.636C411.925 244.69 410.902 211.769 411.062 178.817Z"/>
		<path fill="#2F1834" d="M427.643 216.241C435.422 220.169 442.817 224.904 450.297 229.369L488.524 252.086Q488.388 268.057 488.522 284.028C488.541 291.288 488.842 298.723 487.897 305.933C479.87 302.314 472.243 297.268 464.649 292.814C452.418 285.64 440.255 278.687 427.502 272.46C427.491 253.732 427.217 234.963 427.643 216.241Z"/>
		<path fill="#9B5E2B" d="M432.455 224.217C449.779 233.816 467.316 243.663 483.771 254.689Q484.003 276.801 483.988 298.914C477.702 296.474 471.767 292.04 465.98 288.567C454.991 281.972 443.928 275.321 432.566 269.387L432.455 224.217Z"/>
		<path fill="#FBAA37" d="M564.306 337.413Q563.425 342.712 562.301 347.964C559.363 361.091 555.415 373.772 551.48 386.626C548.64 395.907 545.466 405.406 543.954 415.007C542.528 424.061 542.889 433.419 542.916 442.558C542.954 455.177 543.043 467.757 542.479 480.366C538.298 486.271 533.533 489.473 526.292 490.694C524.089 491.066 521.807 491.472 519.573 491.547C514.003 492.749 507.402 491.851 502.023 490.083C493.456 487.267 487.15 481.589 483.067 473.616C483.628 466.761 484.835 459.976 485.466 453.127C486.797 438.69 486.652 423.561 484.404 409.232C480.66 385.374 471.384 362.746 467.091 338.934C481.88 348.871 497.647 357.099 511.672 368.167C517.988 365.073 523.998 361.052 530.061 357.471Q547.127 347.345 564.306 337.413Z"/>
		<path fill="#9B5E2B" d="M564.306 337.413Q563.425 342.712 562.301 347.964C549.717 354.43 530.255 368.389 517.792 371.866C515.594 372.479 513.323 372.561 511.061 372.728L511.531 491.541L519.573 491.547C514.003 492.749 507.402 491.851 502.023 490.083C493.456 487.267 487.15 481.589 483.067 473.616C483.628 466.761 484.835 459.976 485.466 453.127C486.797 438.69 486.652 423.561 484.404 409.232C480.66 385.374 471.384 362.746 467.091 338.934C481.88 348.871 497.647 357.099 511.672 368.167C517.988 365.073 523.998 361.052 530.061 357.471Q547.127 347.345 564.306 337.413Z"/>
		<path fill="#FBAA37" d="M841.954 583.716C850.906 588.243 876.35 601.947 882.734 608.352C872.586 615.432 861.312 621.448 850.56 627.579Q823.266 642.947 796.177 658.674Q686.307 722.296 577.412 787.571C555.72 800.847 532.128 812.118 511.72 827.322C505.802 823.848 500.031 819.858 494.012 816.615C498.422 812.179 504.65 809.336 509.76 805.751L841.555 611.311C841.734 602.126 841.59 592.889 841.954 583.716Z"/>
		<path fill="#852630" d="M139.022 491.192C149.115 495.986 158.375 503.163 168.123 508.697C211.208 533.155 253.026 559.736 296.46 583.603C296.5 601.13 297.07 618.87 296.174 636.374C290.585 636.303 154.498 552.574 139.012 542.951L139.022 491.192Z"/>
		<path fill="#9B5E2B" d="M139.199 608.499C151.85 600.86 163.906 591.782 177.426 585.692L177.439 608.086C198.505 621.932 221.095 633.963 242.775 646.87L389.617 734.049C429.919 757.515 470.913 779.889 509.76 805.751C504.65 809.336 498.422 812.179 494.012 816.615C482.74 811.597 472.378 804.393 461.687 798.25Q424.703 777.235 388.202 755.391Q264.069 681.321 139.199 608.499Z"/>
		<path fill="#852630" d="M376.453 627.711C381.918 630.462 386.928 634.112 392.028 637.477Q401.482 643.714 411.26 649.431Q445.576 668.968 479.482 689.209C488.767 694.826 499.106 700.232 507.571 707.01C505.545 716.1 506.552 725.961 506.742 735.226Q506.98 748.801 507.032 762.378L506.454 762.822C501.564 762.115 496.189 757.025 491.916 754.556Q455.06 733.186 418.522 711.278C404.555 702.933 390.743 694.113 376.405 686.423L376.453 627.711Z"/>
		<path fill="#F75B44" d="M546.452 420.801C560.338 426.9 573.119 436.4 586.021 444.295C601.066 453.502 616.762 461.732 630.974 472.242C627.807 473.648 624.938 475.774 621.83 477.348L548.489 519.864C536.776 526.702 524.534 535.054 512.585 541.173C493.715 532.073 475.684 520.104 457.505 509.638C460.33 507.982 466.445 508.559 469.687 508.536C492.04 508.378 522.355 508.125 539.03 491.224C542.332 488.869 545.036 485.277 546.569 481.56C546.229 461.322 546.472 441.044 546.452 420.801Z"/>
		<path fill="#852630" d="M546.452 420.801C560.338 426.9 573.119 436.4 586.021 444.295C601.066 453.502 616.762 461.732 630.974 472.242C627.807 473.648 624.938 475.774 621.83 477.348C607.883 468.102 593.491 459.333 579.194 450.633C568.769 444.288 558.088 437.314 546.9 432.403L547.042 464.085C547.062 469.574 547.816 476.262 546.569 481.56C546.229 461.322 546.472 441.044 546.452 420.801Z"/>
		<path fill="#724051" d="M837.412 578.903C838.97 588.025 837.827 598.524 837.823 607.807C816.194 621.374 793.928 633.739 771.809 646.465L690.653 694.153C672.233 704.965 653.57 715.278 635.471 726.631C633.891 718.283 634.576 709.055 634.69 700.597C666.089 680.824 698.397 662.293 730.399 643.51Q784.372 611.98 837.412 578.903Z"/>
		<path fill="#92D7AB" d="M701.632 337.916Q709.88 341.384 717.574 345.951C734.631 355.897 751.155 367.014 767.993 377.359L806.251 400.765C809.145 402.497 813.6 403.96 815.783 406.474L815.838 406.723C810.157 412.027 800.336 415.508 793.602 419.918C787.8 423.802 782.164 427.903 775.053 428.834C763.166 423.156 752.359 415.324 741.149 408.473L672.574 365.991C672.495 365.859 672.395 365.737 672.336 365.594C671.723 364.12 672.198 363.522 672.7 362.117C672.069 361.35 672.379 361.581 671.535 361.109C670.812 360.706 669.915 360.341 669.263 359.833C668.002 358.849 668.187 358.38 668.114 356.89Q684.983 347.598 701.632 337.916Z"/>
		<path fill="#466E69" d="M701.632 337.916Q709.88 341.384 717.574 345.951C734.631 355.897 751.155 367.014 767.993 377.359L806.251 400.765C809.145 402.497 813.6 403.96 815.783 406.474L815.838 406.723C810.157 412.027 800.336 415.508 793.602 419.918L789.757 418.55C794.547 415.584 799.575 412.986 804.526 410.301C793.039 402.809 781.085 395.892 769.389 388.718L700.124 346.237Q688.068 352.731 676.331 359.785C675.219 360.519 673.906 361.602 672.7 362.117C672.069 361.35 672.379 361.581 671.535 361.109C670.812 360.706 669.915 360.341 669.263 359.833C668.002 358.849 668.187 358.38 668.114 356.89Q684.983 347.598 701.632 337.916Z"/>
		<path fill="#FDE2AB" d="M676.331 359.785C691.7 372.228 709.899 381.518 726.894 391.555C735.536 396.66 743.771 402.434 752.303 407.717C761.019 413.115 770.986 417.836 778.376 425.049L775.053 428.834C763.166 423.156 752.359 415.324 741.149 408.473L672.574 365.991C672.495 365.859 672.395 365.737 672.336 365.594C671.723 364.12 672.198 363.522 672.7 362.117C673.906 361.602 675.219 360.519 676.331 359.785Z"/>
		<path fill="#4D5160" d="M778.376 425.049C781.942 422.544 785.835 420.436 789.757 418.55L793.602 419.918C787.8 423.802 782.164 427.903 775.053 428.834L778.376 425.049Z"/>
		<path fill="#9B5E2B" d="M346.036 476.135C351.844 478.692 357.377 482.248 362.886 485.403L395.117 503.999C433.831 526.069 473.598 548.797 511.161 572.719L511.022 602.929C506.301 600.932 501.811 597.779 497.409 595.155C488.957 590.119 480.509 585.041 471.968 580.157L400.452 538.615C382.421 528.06 364.534 517.357 345.965 507.763Q346.091 491.949 346.036 476.135Z"/>
		<path fill="#FBAA37" d="M679.228 477.904L680.049 478.225C681.912 484.008 680.627 501.107 680.526 508.084C661.255 519.73 641.162 530.306 621.623 541.537Q568.783 571.823 516.698 603.387L516.286 603.5L515.545 603.064C513.872 596.467 515.099 580.564 515.202 573.079C570.578 542.636 624.129 508.851 679.228 477.904Z"/>
		<path fill="#724051" d="M481.515 422.496C481.672 431.432 482.629 440.339 481.156 449.223C479.922 453.829 480.754 458.551 480.338 463.235C480.038 466.614 478.997 470.251 479.339 473.622C479.551 475.702 480.341 477.687 481.352 479.502C485.557 487.051 494.801 491.798 502.873 493.958C517.899 497.98 524.906 493.375 539.03 491.224C522.355 508.125 492.04 508.378 469.687 508.536C466.445 508.559 460.33 507.982 457.505 509.638C445.676 503.949 434.778 496.844 423.333 490.48C413.585 485.059 402.559 480.468 393.652 473.776C397.49 471.225 401.225 468.95 405.525 467.254C417.176 462.136 427.878 454.929 438.628 448.181C452.764 439.308 466.834 430.453 481.515 422.496Z"/>
		<path fill="#AD5F5E" d="M481.515 422.496C481.672 431.432 482.629 440.339 481.156 449.223C473.732 450.755 466.269 452.216 458.932 454.128C450.466 456.333 411.033 469.518 405.525 467.254C417.176 462.136 427.878 454.929 438.628 448.181C452.764 439.308 466.834 430.453 481.515 422.496Z"/>
		<path fill="#466E69" d="M300.546 578.331C313.446 585.476 325.949 593.221 338.693 600.62C349.895 607.124 361.289 613.295 372.501 619.785L372.77 685.822C366.68 683.332 360.809 678.593 355.085 675.27C336.849 664.684 318.866 653.723 300.494 643.356L300.546 578.331Z"/>
		<path fill="#2F1834" d="M329.191 615.558C333.257 615.322 336.705 615.249 340.424 617.255C344.738 619.582 347.635 623.853 348.921 628.512C350.406 633.892 350.092 640.613 347.192 645.485C345.11 648.984 342.628 650.71 338.772 651.787C332.58 647.047 321.737 637.214 318.831 629.916C317.939 627.676 317.728 625.228 318.729 622.984C320.616 618.752 325.217 617.172 329.191 615.558Z"/>
		<path fill="#466E69" d="M331.084 620.043C335.066 620.291 339.074 620.601 342.076 623.586C346.037 627.526 345.59 633.56 345.475 638.672C343.222 641.274 341.749 642.616 338.369 643.467C337.586 643.299 337.648 643.327 336.761 643.057C329.432 640.824 326.081 632.064 322.959 625.764C325.429 623.169 327.856 621.521 331.084 620.043Z"/>
		<path fill="#92D7AB" d="M308.539 569.602C319.382 562.942 330.421 555.887 341.853 550.295C365.13 561.677 388.157 575.153 410.048 589.014Q413.479 591.095 416.883 593.22C402.653 600.602 389.105 609.226 375.53 617.728Q338.646 595.364 301.009 574.293C303.467 572.628 305.985 571.111 308.539 569.602Z"/>
		<path fill="#FDE2AB" d="M308.539 569.602C313.181 572.004 318.036 573.996 322.557 576.633C327.507 579.518 332.059 583.035 337.073 585.82C350.06 593.034 363.684 599.911 375.995 608.229C386.012 601.309 398.138 591.935 410.048 589.014Q413.479 591.095 416.883 593.22C402.653 600.602 389.105 609.226 375.53 617.728Q338.646 595.364 301.009 574.293C303.467 572.628 305.985 571.111 308.539 569.602Z"/>
		<path fill="#466E69" d="M662.452 359.965C664.297 358.784 666.12 357.798 668.114 356.89C668.187 358.38 668.002 358.849 669.263 359.833C669.915 360.341 670.812 360.706 671.535 361.109C672.379 361.581 672.069 361.35 672.7 362.117C672.198 363.522 671.723 364.12 672.336 365.594C672.395 365.737 672.495 365.859 672.574 365.991C672.534 366.501 672.484 367.115 672.654 367.607C674.46 372.844 763.589 426.188 775.004 432.984L775.004 455.253C770.673 453.056 766.604 450.223 762.47 447.669Q753.024 441.874 743.474 436.251Q702.993 411.771 662.155 387.89Q662.396 373.928 662.452 359.965Z"/>
		<path fill="#724051" d="M586.392 728.5C588.204 730.448 587.476 750.687 587.46 754.615C564.35 767.554 541.774 781.601 518.816 794.847L518.135 794.535C517.682 785.109 518.023 775.542 518.031 766.1C528.685 761.336 539.086 755.085 549.179 749.236Q567.523 738.397 586.392 728.5Z"/>
		<path fill="#FBAA37" d="M513.063 342.548C520.9 338.414 528.515 333.532 536.1 328.95Q556.215 316.845 576.014 304.231C583.843 299.219 591.562 293.858 599.616 289.222C599.28 289.915 598.923 290.589 598.578 291.277C597.122 294.173 595.012 294.958 592.845 297.1C590.577 299.342 591.041 302.263 591.009 305.21C591.2 308.725 591.389 312.23 591.425 315.75C566.025 332.476 539.132 347.058 513.036 362.686C513.026 358.708 512.878 354.669 513.293 350.71C513.449 347.939 513.293 345.307 513.063 342.548Z"/>
		<path fill="#9B5E2B" d="M513.063 342.548C520.9 338.414 528.515 333.532 536.1 328.95Q556.215 316.845 576.014 304.231C583.843 299.219 591.562 293.858 599.616 289.222C599.28 289.915 598.923 290.589 598.578 291.277C597.122 294.173 595.012 294.958 592.845 297.1C590.577 299.342 591.041 302.263 591.009 305.21C579.108 312.122 567.692 319.788 555.992 327.025Q535.176 339.829 513.293 350.71C513.449 347.939 513.293 345.307 513.063 342.548Z"/>
		<path fill="#9B5E2B" d="M429.793 301.881C429.434 300.258 429.18 298.41 430.141 296.936C430.562 296.29 430.965 296.324 431.649 296.103C441.624 297.911 465.824 314.686 475.584 320.636C487.077 327.642 498.771 334.205 509.814 341.928L509.515 350.471L509.508 360.772Q487.059 346.554 464.424 332.635C453.091 325.624 441.965 318.375 430.03 312.406L429.793 301.881Z"/>
		<path fill="#852630" d="M429.793 301.881C429.434 300.258 429.18 298.41 430.141 296.936C430.562 296.29 430.965 296.324 431.649 296.103C441.624 297.911 465.824 314.686 475.584 320.636C487.077 327.642 498.771 334.205 509.814 341.928L509.515 350.471C504.477 348.009 499.925 343.902 495.085 340.974C479.571 331.588 463.697 322.801 448.28 313.243C445.762 311.682 443.152 310.165 440.783 308.387C438.162 306.421 435.863 304.085 433.008 302.425C431.725 301.678 431.211 301.464 429.793 301.881Z"/>
		<path fill="#724051" d="M817.153 411.967L817.527 412.085C819.221 414.783 818.513 427.983 818.516 431.68Q809.276 435.97 800.498 441.141L799.897 440.999C798.332 437.86 798.945 426.001 799.032 422.049C803.88 417.429 811.181 414.823 817.153 411.967Z"/>
		<path fill="#FDE2AB" d="M599.563 722.148C604.768 719.394 609.83 716.254 614.92 713.287Q614.59 722.976 614.513 732.67L614.512 738.832Q606.936 743.252 599.515 747.927C599.49 745.616 599.328 743.224 599.472 740.923Q599.278 731.534 599.563 722.148Z"/>
		<path fill="#D4997F" d="M599.472 740.923C604.534 739.614 610.06 735.445 614.513 732.67L614.512 738.832Q606.936 743.252 599.515 747.927C599.49 745.616 599.328 743.224 599.472 740.923Z"/>
		<path fill="#FDE2AB" d="M617.779 711.745C620.358 710.02 623.055 707.811 625.909 706.611C627.591 705.903 628.669 705.781 630.357 706.48C632.873 710.081 631.149 719.954 630.994 724.536C630.971 726.057 631.324 728.418 630.322 729.607C628.319 731.983 622.239 735.748 619.2 735.864C618.995 735.871 618.791 735.838 618.586 735.825C617.736 734.801 617.963 734.043 617.912 732.755C618.041 725.764 617.838 718.739 617.779 711.745Z"/>
		<path fill="#AD5F5E" d="M630.994 724.536C630.971 726.057 631.324 728.418 630.322 729.607C628.319 731.983 622.239 735.748 619.2 735.864C618.995 735.871 618.791 735.838 618.586 735.825C617.736 734.801 617.963 734.043 617.912 732.755C622.497 730.274 626.923 727.819 630.994 724.536Z"/>
		<path fill="#FDE2AB" d="M793.633 423.976L794.198 424.389C795.496 430.236 795.624 436.754 796.094 442.746Q788.339 447.442 780.759 452.414C780.509 452.585 779.825 452.737 779.525 452.831C778.07 450.466 778.914 436.764 778.929 433.012C783.522 429.205 788.292 426.614 793.633 423.976Z"/>
		<path fill="#FBAA37" d="M595.088 724.898L595.771 725.144C597.738 730.874 596.239 743.116 596.001 749.504C594.661 750.404 593.187 751.178 591.795 751.999L591.145 751.5C589.779 743.699 590.748 735.08 591.035 727.199L595.088 724.898Z"/>
	</g>
	<g/>
</svg>
