<?xml version="1.0" encoding="utf-8" ?>
<svg xmlns="http://www.w3.org/2000/svg" xmlns:xlink="http://www.w3.org/1999/xlink" width="1024" height="1024">
	<g>
		<path fill="#192053" d="M462.288 292.965C461.273 283.528 461.867 273.5 461.728 263.988Q461.381 227.021 461.519 190.056Q461.586 174.97 461.325 159.887C461.144 149.853 459.908 138.106 462.221 128.283C463.772 121.693 467.245 115.38 470.116 109.281C475.221 98.4332 480.71 87.5499 485.471 76.5544C488.394 69.8041 485.981 63.1697 490.996 56.9465C495.518 51.3341 503.063 48.6531 510.068 48.0409C517.716 47.3725 525.767 49.0027 531.655 54.2176C533.82 56.1345 535.651 58.5057 536.781 61.1779C538.64 65.5739 537.289 70.463 538.954 74.7916C543.525 86.6752 549.859 98.4189 555.429 109.888C558.246 115.688 561.452 121.535 563.254 127.747C564.3 131.354 564.662 135.049 564.808 138.791C565.306 151.626 564.591 164.528 564.698 177.375L564.955 293.461C571.254 293.514 577.939 293.118 584.184 293.764L612.067 230.981C618.125 217.07 623.293 202.21 631.28 189.278C640.053 175.072 653.099 163.14 663.844 150.443C674.149 138.267 683.433 125.264 693.844 113.167C698.319 114.476 706.879 115.989 709.02 120.524C711.357 125.475 705.758 173.533 705.095 182.566Q704.336 192.034 704.418 201.532C713.502 195.246 722.009 188.129 730.631 181.232C736.116 176.845 741.824 171.579 748.202 168.585C752.505 166.565 757.328 165.614 762.052 166.407C765.762 167.031 769.264 168.658 772.513 170.508C784.85 177.53 796.295 186.634 807.964 194.745C815.631 200.073 824.118 204.978 831.439 210.702C833.508 212.32 835.408 214.173 836.929 216.321C840.965 222.023 841.827 230.128 840.494 236.904C838.857 245.218 828.608 262.787 824.472 270.935L798.71 321.822C779.51 359.645 761.367 397.961 741.781 435.594L767.292 415.096C777.425 406.837 787.984 395.976 800.052 390.764C805.165 388.556 810.729 388.013 816.228 388.605C829.841 390.069 841.954 398.298 850.297 408.889C858.436 419.221 862.698 433.202 861.061 446.322C859.777 456.62 854.675 462.339 846.684 468.46C833.134 478.839 818.999 488.467 805.829 499.339C804.572 524.075 805.313 549.052 805.453 573.816C826.407 589.458 840.447 611.968 844.299 637.846C847.516 659.463 844.42 684.081 831.143 702.039C820.017 717.088 802.849 727.306 793.132 743.532C788.192 749.918 781.959 755.622 775.278 760.139C752.202 775.741 729.697 780.174 702.596 774.96C703.911 807.351 693.809 833.814 675.718 860.104Q674.373 862.071 672.979 864.004Q671.585 865.938 670.144 867.835Q668.702 869.733 667.214 871.594Q665.726 873.456 664.192 875.28Q662.658 877.103 661.078 878.888Q659.499 880.673 657.876 882.418Q656.253 884.163 654.587 885.867Q652.921 887.572 651.213 889.234Q649.505 890.896 647.757 892.515Q646.008 894.134 644.219 895.709Q642.431 897.284 640.603 898.814Q638.776 900.344 636.911 901.828Q635.047 903.312 633.145 904.749Q631.244 906.186 629.308 907.575Q627.372 908.964 625.401 910.305Q623.431 911.646 621.428 912.937Q619.425 914.228 617.39 915.469Q615.355 916.71 613.29 917.9Q611.225 919.09 609.132 920.228Q607.038 921.366 604.916 922.451Q602.795 923.537 600.647 924.569Q598.499 925.601 596.326 926.58Q594.153 927.559 591.956 928.483Q589.759 929.407 587.54 930.276Q585.321 931.145 583.081 931.959Q580.841 932.772 578.582 933.53Q576.322 934.288 574.044 934.989Q571.766 935.69 569.472 936.334Q567.177 936.978 564.868 937.565Q562.558 938.152 560.234 938.681Q557.911 939.21 555.574 939.681Q553.238 940.152 550.891 940.565Q548.434 941.031 545.965 941.435Q543.497 941.84 541.02 942.184Q538.543 942.528 536.058 942.811Q533.573 943.094 531.081 943.315Q528.59 943.537 526.094 943.697Q523.598 943.857 521.099 943.955Q518.6 944.054 516.099 944.091Q513.598 944.128 511.097 944.103Q508.596 944.078 506.096 943.992Q503.597 943.905 501.1 943.757Q498.603 943.609 496.111 943.4Q493.619 943.191 491.132 942.92Q488.646 942.649 486.167 942.317Q483.688 941.985 481.218 941.592Q478.748 941.2 476.288 940.746Q473.828 940.292 471.381 939.778Q468.933 939.264 466.499 938.69Q464.064 938.115 461.645 937.481Q459.226 936.847 456.823 936.154Q454.42 935.46 452.034 934.708Q449.649 933.955 447.283 933.144Q444.917 932.333 442.572 931.464Q440.227 930.595 437.904 929.668Q435.58 928.742 433.281 927.758Q430.981 926.775 428.707 925.735Q426.432 924.695 424.184 923.599Q421.935 922.503 419.714 921.353Q417.494 920.202 415.302 918.997Q413.111 917.792 410.949 916.533Q408.788 915.274 406.658 913.963Q404.529 912.651 402.432 911.288Q400.335 909.924 398.273 908.509C368.888 888.168 346.125 861.038 332.514 827.912C328.838 818.965 325.676 809.997 323.947 800.446Q294.352 779.369 265.174 757.72C256.301 751.27 247.463 744.26 238.124 738.508Q219.533 725.442 201.097 712.16C193.259 706.569 182.843 701.551 177.069 693.782C172.485 687.615 170.148 679.211 168.902 671.744C164.058 642.709 175.029 612.577 191.959 589.27C207.984 567.209 233.644 549.725 257.847 537.513C244.605 525.964 228.487 513.934 227.232 495.047C226.607 485.63 227.006 475.997 227.047 466.556C216.276 456.744 204.086 448.318 192.256 439.836C186.423 435.654 180.036 431.65 174.875 426.65C172.723 424.566 169.673 421.182 169.414 418.047C169.221 415.722 170.757 413.709 172.251 412.081C177.188 406.703 184.511 402.744 190.54 398.647L190.5 364.157C190.481 357.852 190.007 351.363 190.73 345.099C190.762 344.821 190.747 344.534 190.819 344.264C191.437 341.941 196.179 338.354 198.034 336.85C206.188 330.241 270.974 283.537 274.347 282.693C278.277 281.709 283.017 284.755 286.137 286.914C289.061 288.938 291.781 291.24 294.506 293.52L294.503 207.384C300.216 202.249 306.628 197.882 312.837 193.372Q325.765 183.905 338.919 174.755C337.773 165.631 337.868 156.219 343.804 148.651C350.066 140.669 359.839 136.908 369.683 135.907C379.421 134.918 390.3 136.554 398.1 142.863C403.316 147.082 406.743 153.164 407.304 159.882C407.549 162.809 407.109 165.889 406.844 168.808C415.693 175.813 441.401 192.21 446.226 200.323C447.228 202.006 447.553 204.454 447.761 206.373C448.842 216.343 447.94 227.117 447.838 237.185L447.512 293.044L462.288 292.965ZM724.958 680.613C727.41 677.905 728.878 675.722 729.812 672.1C732.27 662.567 730.829 651.266 730.681 641.456L730.499 616.134C721.829 612.95 712.567 609.739 703.542 607.765L703.465 655.469C703.434 663.006 702.932 670.604 703.26 678.129C703.356 680.322 703.249 683.87 704.501 685.664C706.487 687.107 708.276 687.281 710.692 686.94C715.726 686.228 721.069 683.852 724.958 680.613ZM299.582 680.157C305.908 685.256 312.574 689.877 319.238 694.519L320.187 694.228C322.28 687.043 320.067 635.139 319.989 623.98C313.507 621.927 307.045 620.92 300.23 620.94C295.108 639.199 297.971 661.373 299.582 680.157Z"/>
		<path fill="#FDBD4C" d="M334.469 590.289C339.385 594.364 341.972 606.648 345.701 612.884C363.704 642.981 393.94 663.055 425.017 677.775C454.215 689.292 482.776 699.133 514.601 698.5C550.508 696.875 574.667 693.155 606.973 675.492Q606.921 698.202 607.199 720.911L604.978 722.236C604.559 753.598 603.948 785.061 605.083 816.41L605.028 817.847L605.498 818.207L605.539 825.127C599.045 832.681 593.755 841.238 587.928 849.307C573.971 868.632 539.185 917.043 520.66 927.373C518.612 928.515 516.819 929.016 514.49 929.161C514.336 929.171 514.181 929.17 514.026 929.174C499.031 928.905 485.22 927.611 470.594 924.031C463.944 923.121 457.393 920.957 451.05 918.813Q448.578 917.993 446.131 917.102Q443.684 916.21 441.264 915.248Q438.844 914.286 436.453 913.254Q434.062 912.222 431.702 911.121Q429.341 910.02 427.014 908.851Q424.687 907.682 422.395 906.446Q420.103 905.21 417.847 903.908Q415.592 902.606 413.375 901.239Q411.158 899.872 408.982 898.441Q406.806 897.01 404.673 895.516Q402.539 894.023 400.45 892.468Q398.361 890.913 396.318 889.299Q394.274 887.684 392.279 886.01Q390.283 884.337 388.337 882.606Q386.391 880.876 384.496 879.089Q382.601 877.303 380.759 875.462Q378.974 873.699 377.248 871.878Q375.522 870.058 373.857 868.181Q372.191 866.305 370.588 864.375Q368.985 862.446 367.447 860.464Q365.908 858.483 364.434 856.452Q362.961 854.422 361.555 852.344Q360.15 850.266 358.813 848.143Q357.476 846.02 356.209 843.855Q354.942 841.689 353.747 839.484Q352.552 837.278 351.43 835.034Q350.308 832.79 349.26 830.511Q348.212 828.231 347.24 825.919Q346.267 823.606 345.371 821.263Q344.474 818.92 343.655 816.549Q342.836 814.177 342.095 811.781Q341.354 809.384 340.692 806.964C332.912 778.274 334.852 744.001 334.587 714.236L334.469 590.289Z"/>
		<path fill="#FEFEFD" d="M334.469 590.289C339.385 594.364 341.972 606.648 345.701 612.884C363.704 642.981 393.94 663.055 425.017 677.775C425.007 689.845 425.168 701.942 424.962 714.009L424.574 714.448C423.334 729.569 424.052 744.835 424.09 759.994C424.136 778.357 423.726 796.795 424.146 815.147C424.928 817.105 425.229 818.944 425.38 821.035C426.074 830.635 425.524 840.54 425.49 850.17L425.48 900.737C432.955 905.479 440.417 910.392 448.36 914.332C454.673 917.463 465.446 919.687 470.594 924.031C463.944 923.121 457.393 920.957 451.05 918.813Q448.578 917.993 446.131 917.102Q443.684 916.21 441.264 915.248Q438.844 914.286 436.453 913.254Q434.062 912.222 431.702 911.121Q429.341 910.02 427.014 908.851Q424.687 907.682 422.395 906.446Q420.103 905.21 417.847 903.908Q415.592 902.606 413.375 901.239Q411.158 899.872 408.982 898.441Q406.806 897.01 404.673 895.516Q402.539 894.023 400.45 892.468Q398.361 890.913 396.318 889.299Q394.274 887.684 392.279 886.01Q390.283 884.337 388.337 882.606Q386.391 880.876 384.496 879.089Q382.601 877.303 380.759 875.462Q378.974 873.699 377.248 871.878Q375.522 870.058 373.857 868.181Q372.191 866.305 370.588 864.375Q368.985 862.446 367.447 860.464Q365.908 858.483 364.434 856.452Q362.961 854.422 361.555 852.344Q360.15 850.266 358.813 848.143Q357.476 846.02 356.209 843.855Q354.942 841.689 353.747 839.484Q352.552 837.278 351.43 835.034Q350.308 832.79 349.26 830.511Q348.212 828.231 347.24 825.919Q346.267 823.606 345.371 821.263Q344.474 818.92 343.655 816.549Q342.836 814.177 342.095 811.781Q341.354 809.384 340.692 806.964C332.912 778.274 334.852 744.001 334.587 714.236L334.469 590.289Z"/>
		<path fill="#BDE382" d="M347.254 677.343C353.921 700.806 362.2 722.202 374.954 743.105C385.978 761.172 398.866 778.071 410.185 795.965C410.411 801.6 415.633 806.291 415.999 812.397C416.472 820.29 416.114 828.391 416.06 836.302Q415.63 862.832 415.59 889.365Q407.415 883.215 399.839 876.341Q392.262 869.467 385.349 861.927C367.185 841.841 350.542 812.728 347.471 785.645C345.717 770.183 346.965 754.407 346.888 738.869C346.787 718.381 346.24 697.813 347.254 677.343Z"/>
		<path fill="#3FCEB5" d="M347.254 677.343C345.636 662.805 345.862 647.266 346.094 632.627C359.979 663.327 377.839 683.392 405.248 702.201C411.536 706.516 418.451 709.883 424.574 714.448C423.334 729.569 424.052 744.835 424.09 759.994C424.136 778.357 423.726 796.795 424.146 815.147C418.646 809.809 414.562 802.256 410.185 795.965C398.866 778.071 385.978 761.172 374.954 743.105C362.2 722.202 353.921 700.806 347.254 677.343Z"/>
		<path fill="#192053" d="M606.973 675.492Q606.921 698.202 607.199 720.911L604.978 722.236C604.559 753.598 603.948 785.061 605.083 816.41L605.028 817.847L605.498 818.207L605.539 825.127C599.045 832.681 593.755 841.238 587.928 849.307C573.971 868.632 539.185 917.043 520.66 927.373C518.612 928.515 516.819 929.016 514.49 929.161C514.336 929.171 514.181 929.17 514.026 929.174L514.053 841.829L514.514 841.864C514.97 826.116 514.467 810.264 514.605 794.501C514.727 780.575 515.64 766.356 514.846 752.476C514.659 749.212 514.601 745.892 512.903 743.019L513.058 742.631L513.661 742.523C516.048 733.116 514.278 709.654 514.601 698.5C550.508 696.875 574.667 693.155 606.973 675.492Z"/>
		<path fill="#C06938" d="M605.028 817.847L605.498 818.207L605.539 825.127C599.045 832.681 593.755 841.238 587.928 849.307C573.971 868.632 539.185 917.043 520.66 927.373C518.612 928.515 516.819 929.016 514.49 929.161C514.336 929.171 514.181 929.17 514.026 929.174L514.053 841.829L514.514 841.864C538.503 842.586 564.328 837.68 586.199 827.761C592.662 824.83 598.57 820.822 605.028 817.847Z"/>
		<path fill="#912D44" d="M606.973 675.492Q606.921 698.202 607.199 720.911L604.978 722.236C602.311 723.785 599.748 725.287 596.84 726.348C590.095 726.952 583.017 730.664 576.662 732.948C572.907 734.297 569.039 735.285 565.168 736.237Q557.341 738.188 549.382 739.495Q541.422 740.802 533.382 741.455C526.818 741.963 520.212 741.954 513.661 742.523C516.048 733.116 514.278 709.654 514.601 698.5C550.508 696.875 574.667 693.155 606.973 675.492Z"/>
		<path fill="#925A49" d="M596.84 726.348C599.748 725.287 602.311 723.785 604.978 722.236C604.559 753.598 603.948 785.061 605.083 816.41C597.937 810.74 591.245 804.537 584.253 798.686C571.925 788.37 559.305 778.387 546.895 768.167C537.599 760.512 528.425 752.477 518.458 745.698C537.506 746.357 562.505 744.258 580.005 736.683C586.148 734.024 591.545 730.404 596.84 726.348Z"/>
		<path fill="#334588" d="M512.903 743.019C514.601 745.892 514.659 749.212 514.846 752.476C515.64 766.356 514.727 780.575 514.605 794.501C514.467 810.264 514.97 826.116 514.514 841.864L514.053 841.829C480.735 839.229 461.947 833.726 431.936 819.294C440.379 810.61 449.565 802.64 458.317 794.267C476.37 776.995 494.311 759.717 512.903 743.019Z"/>
		<path fill="#D95560" d="M425.017 677.775C454.215 689.292 482.776 699.133 514.601 698.5C514.278 709.654 516.048 733.116 513.661 742.523L513.058 742.631C505.487 739.118 493.917 739.942 485.532 738.248C464.04 733.904 443.938 724.744 424.962 714.009C425.168 701.942 425.007 689.845 425.017 677.775Z"/>
		<path fill="#3FCEB5" d="M475.98 149.532C477.638 148.326 479.172 146.871 481.283 146.72C486.792 148.073 487.537 160.959 490.587 165.572C491.644 167.171 493.109 168.355 495.055 168.595C500.685 169.288 504.651 163.28 508.526 160.093C510.55 159.536 512.03 159.231 513.969 160.318C518.493 162.856 521.773 175.235 527.209 173.591C530.972 172.453 534.828 165.359 536.709 162.066C538.247 158.083 539.87 154.113 541.271 150.08Q546.351 149.545 551.414 148.864C550.787 162.634 551.015 176.457 551.012 190.238L550.938 257.552Q550.211 316.057 550.451 374.562C550.401 389.608 549.862 404.693 550.05 419.729C546.259 420.652 542.507 421.599 538.913 423.15C533.947 426.278 530.307 429.52 527.049 434.436C526.109 434.956 525.045 434.718 523.982 434.69C523.805 448.237 523.379 461.841 523.527 475.385C518.322 478.672 512.867 481.816 507.875 485.405C504.184 488.111 498.997 492.947 494.456 493.663L493.62 493.267L493.396 491.483L492.224 491.609C491.589 488.092 491.966 483.864 491.911 480.262L491.417 487.72C485.068 471.674 477.414 441.638 476.087 424.806C475.42 392.882 476.197 360.842 476.21 328.905L475.98 149.532Z"/>
		<path fill="#DC8542" d="M541.271 150.08Q546.351 149.545 551.414 148.864C550.787 162.634 551.015 176.457 551.012 190.238L550.938 257.552Q550.211 316.057 550.451 374.562C550.401 389.608 549.862 404.693 550.05 419.729C546.259 420.652 542.507 421.599 538.913 423.15C533.947 426.278 530.307 429.52 527.049 434.436C526.109 434.956 525.045 434.718 523.982 434.69L524.379 228.405C524.448 220.741 524.725 209.525 518.765 203.807C515.433 200.61 511.487 200.121 507.064 200.1C502.797 201.113 499.328 203.206 496.988 206.995C494.875 210.415 494.361 214.132 493.965 218.037L491.456 220.589C491.393 215.356 492.327 209.558 495.267 205.137C498.568 200.173 503.399 197.992 509.047 196.952C509.073 184.769 510.385 172.19 508.526 160.093C510.55 159.536 512.03 159.231 513.969 160.318C518.493 162.856 521.773 175.235 527.209 173.591C530.972 172.453 534.828 165.359 536.709 162.066C538.247 158.083 539.87 154.113 541.271 150.08Z"/>
		<path fill="#C06938" d="M541.271 150.08Q546.351 149.545 551.414 148.864C550.787 162.634 551.015 176.457 551.012 190.238L550.938 257.552Q550.211 316.057 550.451 374.562C550.401 389.608 549.862 404.693 550.05 419.729C546.259 420.652 542.507 421.599 538.913 423.15C537.893 416.423 538.292 409.373 538.332 402.589Q538.32 393.227 538.116 383.867Q537.222 317.799 537.04 251.725C537.121 223.487 538.026 195.214 537.537 166.975C537.506 165.204 537.552 163.676 536.709 162.066C538.247 158.083 539.87 154.113 541.271 150.08Z"/>
		<path fill="#20163E" d="M509.047 196.952C514.237 197.479 518.988 199.192 522.463 203.259C525.52 206.837 526.375 211.245 526.851 215.785C528.813 234.51 526.973 257.335 526.976 276.634L526.987 370.899C526.927 392.088 526.473 413.25 527.049 434.436C526.109 434.956 525.045 434.718 523.982 434.69L524.379 228.405C524.448 220.741 524.725 209.525 518.765 203.807C515.433 200.61 511.487 200.121 507.064 200.1C502.797 201.113 499.328 203.206 496.988 206.995C494.875 210.415 494.361 214.132 493.965 218.037L491.456 220.589C491.393 215.356 492.327 209.558 495.267 205.137C498.568 200.173 503.399 197.992 509.047 196.952Z"/>
		<path fill="#F8E086" d="M475.98 149.532C477.638 148.326 479.172 146.871 481.283 146.72C486.792 148.073 487.537 160.959 490.587 165.572C491.644 167.171 493.109 168.355 495.055 168.595C500.685 169.288 504.651 163.28 508.526 160.093C510.385 172.19 509.073 184.769 509.047 196.952C503.399 197.992 498.568 200.173 495.267 205.137C492.327 209.558 491.393 215.356 491.456 220.589C491.921 231.614 491.719 242.574 491.808 253.597Q492.074 293.216 491.942 332.835L491.911 480.262L491.417 487.72C485.068 471.674 477.414 441.638 476.087 424.806C475.42 392.882 476.197 360.842 476.21 328.905L475.98 149.532Z"/>
		<path fill="#1AAC76" d="M507.064 200.1C511.487 200.121 515.433 200.61 518.765 203.807C524.725 209.525 524.448 220.741 524.379 228.405L523.982 434.69C523.805 448.237 523.379 461.841 523.527 475.385C518.322 478.672 512.867 481.816 507.875 485.405C507.048 461.172 508.001 436.794 508.009 412.53L508.016 258.371C508.015 251.548 508.678 204.28 507.77 201.255C507.641 200.823 507.3 200.485 507.064 200.1Z"/>
		<path d="M491.456 220.589L493.965 218.037C494.484 271.351 493.837 324.695 493.83 378.012L493.563 448.454C493.539 462.773 493.984 477.178 493.396 491.483L492.224 491.609C491.589 488.092 491.966 483.864 491.911 480.262L491.942 332.835Q492.074 293.216 491.808 253.597C491.719 242.574 491.921 231.614 491.456 220.589Z"/>
		<path fill="#FEFEFD" d="M334.914 547.307C321.783 505.768 319.732 476.684 340.297 436.813Q345.623 426.547 352.595 417.32C355.527 425.548 357.583 434.084 359.861 442.512C356.784 449.094 353.535 455.465 351.151 462.354C342.67 486.857 341.802 514.937 350.705 539.434C363.587 574.878 395.113 601.142 428.579 616.626C478.424 639.689 540.798 641.514 592.228 622.453C629.933 608.479 662.627 582.132 679.657 545.104C684.855 533.802 687.524 521.368 693.056 510.316C695.817 504.803 699.988 500.155 703.622 495.219C707.196 490.363 710.578 485.345 714.004 480.383C714.57 489.792 712.067 497.28 710.284 506.344C708.962 513.066 708.541 519.894 706.913 526.58C701.134 550.311 688.208 572.805 672.045 591.011C634.457 633.348 583.264 651.812 527.839 655.028Q523.788 655.286 519.732 655.431C518.051 655.534 515.738 655.388 514.22 656.134C513.023 668.158 513.932 686.099 514.601 698.5C482.776 699.133 454.215 689.292 425.017 677.775C393.94 663.055 363.704 642.981 345.701 612.884C341.972 606.648 339.385 594.364 334.469 590.289C334.41 590.135 334.338 589.984 334.292 589.825C333.189 586.038 333.446 550.459 334.914 547.307Z"/>
		<path fill="#334588" d="M334.914 547.307C338.424 554.993 341.847 562.662 346.246 569.895C366.284 602.84 398.373 627.728 434.315 641.181C453.779 648.466 474.183 652.334 494.866 653.957C503.09 654.603 511.575 654.372 519.732 655.431C518.051 655.534 515.738 655.388 514.22 656.134C513.023 668.158 513.932 686.099 514.601 698.5C482.776 699.133 454.215 689.292 425.017 677.775C393.94 663.055 363.704 642.981 345.701 612.884C341.972 606.648 339.385 594.364 334.469 590.289C334.41 590.135 334.338 589.984 334.292 589.825C333.189 586.038 333.446 550.459 334.914 547.307Z"/>
		<path fill="#75A2CA" d="M691.931 603.22L691.972 713.022L692.053 756.088C692.07 770.91 693.035 786.358 689.249 800.823C682.007 828.49 665.056 854.099 645.069 874.264C633.34 886.099 620.324 896.235 605.497 903.936L605.452 895.368C605.5 872.032 606.388 848.439 605.539 825.127L605.498 818.207L605.028 817.847L605.083 816.41C603.948 785.061 604.559 753.598 604.978 722.236L607.199 720.911Q606.921 698.203 606.973 675.492C616.979 670.187 627.451 665.873 637.489 660.661C655.946 651.08 668.874 637.135 681.403 620.95C684.696 614.903 688.307 609.072 691.931 603.22Z"/>
		<defs>
			<linearGradient id="gradient_0" gradientUnits="userSpaceOnUse" x1="586.70209" y1="749.71588" x2="699.29791" y2="717.78412">
				<stop offset="0" stop-color="#0D6A7B"/>
				<stop offset="1" stop-color="#285C94"/>
			</linearGradient>
		</defs>
		<path fill="url(#gradient_0)" d="M681.403 620.95C682.266 627.791 683.398 645.736 681.71 651.915C681.314 659.011 682.119 666.361 681.078 673.378C676.874 684.298 673.829 695.559 669.348 706.425C659.544 730.196 647.168 752.833 634.192 774.998C625.41 790.001 616.725 804.867 605.498 818.207L605.028 817.847L605.083 816.41C603.948 785.061 604.559 753.598 604.978 722.236L607.199 720.911Q606.921 698.203 606.973 675.492C616.979 670.187 627.451 665.873 637.489 660.661C655.946 651.08 668.874 637.135 681.403 620.95Z"/>
		<path fill="#75A2CA" d="M681.403 620.95C682.266 627.791 683.398 645.736 681.71 651.915L681.166 650.053C679.135 651.537 671.883 666.004 669.462 669.738C653.784 693.918 632.353 708.218 607.199 720.911Q606.921 698.203 606.973 675.492C616.979 670.187 627.451 665.873 637.489 660.661C655.946 651.08 668.874 637.135 681.403 620.95Z"/>
		<path fill="#FEFEFD" d="M691.931 603.22L691.972 713.022L692.053 756.088C692.07 770.91 693.035 786.358 689.249 800.823C682.007 828.49 665.056 854.099 645.069 874.264C633.34 886.099 620.324 896.235 605.497 903.936L605.452 895.368C619.632 891.046 644.999 864.385 653.98 852.156C665.665 836.244 675.856 817.744 680.476 798.469C683.634 785.294 681.937 767.756 681.659 754.201Q681.468 738.859 681.517 723.516L681.491 691.319C681.487 685.438 681.961 679.18 681.078 673.378C682.119 666.361 681.314 659.011 681.71 651.915C683.398 645.736 682.266 627.791 681.403 620.95C684.696 614.903 688.307 609.072 691.931 603.22Z"/>
		<path fill="#912D44" d="M777.741 288.276C788.502 278.981 800.285 268.333 812.849 261.527L708.41 470.566L677.194 532.199C670.54 545.52 664.833 559.619 656.513 572.01C649.742 582.095 639.29 589.929 630.002 597.595L630.061 586.719Q629.961 572.637 630.059 558.556C629.924 547.801 630.241 537.027 630.39 526.272C629.418 518.062 629.039 508.38 631.544 500.398C634.436 491.184 639.606 482.337 643.802 473.65L666.219 427.04Q690.959 375.297 716.363 323.876C723.91 308.483 730.794 292.716 738.907 277.616C740.719 280.087 743.71 281.821 746.12 283.692L760.505 294.165L762.599 295.961C763.761 296.83 764.576 297.925 766.056 297.752C769.535 293.926 773.517 291.181 777.741 288.276Z"/>
		<path fill="#F8838C" d="M738.907 277.616C740.719 280.087 743.71 281.821 746.12 283.692L760.505 294.165C754.288 313.133 740.941 334.861 731.882 353.352Q694.962 428.705 657.079 503.579C651.54 514.664 645.755 525.697 640.511 536.919C637.765 542.797 635.467 548.904 632.641 554.735C631.961 556.138 631.274 557.547 630.059 558.556C629.924 547.801 630.241 537.027 630.39 526.272C629.418 518.062 629.039 508.38 631.544 500.398C634.436 491.184 639.606 482.337 643.802 473.65L666.219 427.04Q690.959 375.297 716.363 323.876C723.91 308.483 730.794 292.716 738.907 277.616Z"/>
		<path fill="#D95560" d="M738.907 277.616C740.719 280.087 743.71 281.821 746.12 283.692C741.423 291.218 738.618 300.251 735.123 308.409C731.168 317.641 726.677 326.712 722.328 335.765L651.89 482.093C647.051 492.049 635.779 519.465 630.39 526.272C629.418 518.062 629.039 508.38 631.544 500.398C634.436 491.184 639.606 482.337 643.802 473.65L666.219 427.04Q690.959 375.297 716.363 323.876C723.91 308.483 730.794 292.716 738.907 277.616Z"/>
		<path fill="#D95560" d="M777.741 288.276C777.607 290.623 776.85 292.56 775.89 294.673C772.807 301.456 768.714 307.764 765.271 314.367C758.91 326.561 753.021 339.049 746.917 351.378Q701.623 442.784 654.956 533.496Q645.888 551.21 637.695 569.346C635.501 574.207 632.879 582.662 630.061 586.719Q629.961 572.637 630.059 558.556C631.274 557.547 631.961 556.138 632.641 554.735C635.467 548.904 637.765 542.797 640.511 536.919C645.755 525.697 651.54 514.664 657.079 503.579Q694.962 428.705 731.882 353.352C740.941 334.861 754.288 313.133 760.505 294.165L762.599 295.961C763.761 296.83 764.576 297.925 766.056 297.752C769.535 293.926 773.517 291.181 777.741 288.276Z"/>
		<path fill="#D95560" d="M432.703 302.152C435.343 303.184 437.843 304.459 440.371 305.733C441.538 309.067 442.39 312.498 443.604 315.825C444.26 317.749 444.772 319.918 445.891 321.614L446.161 321.438C447.143 324.034 448.013 326.773 448.362 329.538C450.73 340.823 455.097 351.888 458.101 363.052C462.199 378.28 466.046 393.595 469.942 408.877C471.554 415.198 472.562 423.285 475.423 429.033L475.857 429.08C476.135 427.61 476.132 426.289 476.087 424.806C477.414 441.638 485.068 471.674 491.417 487.72L491.911 480.262C491.966 483.864 491.589 488.092 492.224 491.609C492.178 493.224 492.308 494.843 491.082 496.066C490.287 496.859 489.27 497.539 488.366 498.206C486.344 494.893 484.628 491.558 483.503 487.827C470.785 494.512 459.588 503.661 447.75 511.728C448.679 516.055 449.457 520.493 450.731 524.732C461.575 517.843 471.997 510.325 482.59 503.063C482.16 510.336 481.892 517.582 482.122 524.869C473.715 530.684 464.713 536.109 457.126 542.982C457.977 546.453 458.837 549.813 460.148 553.144C467.698 548.711 474.807 543.724 481.963 538.691L482.138 546.767C475.562 551.419 469.064 556.346 462.319 560.739C463.631 566.462 464.735 572.405 466.912 577.873L467.484 577.568C470.57 575.886 479.753 568.809 482.38 568.704C480.426 573.781 471.662 577.952 467.659 581.414C468.793 586.572 470.033 591.615 471.561 596.674C474.312 595.307 476.771 592.997 479.293 591.226C480.837 590.143 481.802 589.615 483.699 589.936C484.389 594.431 484.078 599.224 484.078 603.769C481.343 604.599 476.774 605.406 474.688 607.368C475.959 611.952 476.923 617.51 480.061 621.187L481.179 621.623Q482.381 621.011 483.612 620.458L484.264 621.077C483.271 622.947 480.854 626.996 478.794 627.643C475.852 628.566 470.663 625.958 467.564 625.385C464.422 624.574 461.288 623.64 458.045 623.359C457.493 623.069 457.243 622.961 456.766 622.642C453.536 620.476 452.238 607.775 451.162 603.752C445.397 582.183 439.021 560.742 432.976 539.246L398.386 415.769Q392.373 394.14 385.909 372.642C382.8 362.198 379.316 351.801 377.198 341.101C378.189 338.858 379.037 336.78 380.728 334.95C387.703 327.556 399.03 322.579 407.735 317.255C416.055 312.165 424.125 306.82 432.703 302.152Z"/>
		<path fill="#F8838C" d="M432.703 302.152C435.343 303.184 437.843 304.459 440.371 305.733C441.538 309.067 442.39 312.498 443.604 315.825C435.176 321.252 426.951 327.002 418.467 332.34C410.118 337.592 401.495 342.408 393.097 347.581C394.912 358.939 398.107 369.898 401.097 380.985Q407.422 404.474 414.031 427.885L450.833 559.678C456.026 578.295 466.421 606.634 467.564 625.385C464.422 624.574 461.288 623.64 458.045 623.359C457.493 623.069 457.243 622.961 456.766 622.642C453.536 620.476 452.238 607.775 451.162 603.752C445.397 582.183 439.021 560.742 432.976 539.246L398.386 415.769Q392.373 394.14 385.909 372.642C382.8 362.198 379.316 351.801 377.198 341.101C378.189 338.858 379.037 336.78 380.728 334.95C387.703 327.556 399.03 322.579 407.735 317.255C416.055 312.165 424.125 306.82 432.703 302.152Z"/>
		<path fill="#D95560" d="M377.198 341.101C378.41 341.725 379.635 342.585 381.04 342.477C384.217 352.436 386.514 362.54 389.367 372.575L421.969 491.531L447.702 581.262C451.467 594.703 457.508 609.405 458.045 623.359C457.493 623.069 457.243 622.961 456.766 622.642C453.536 620.476 452.238 607.775 451.162 603.752C445.397 582.183 439.021 560.742 432.976 539.246L398.386 415.769Q392.373 394.14 385.909 372.642C382.8 362.198 379.316 351.801 377.198 341.101Z"/>
		<path fill="#D95560" d="M380.728 334.95Q380.992 338.709 381.04 342.477C379.635 342.585 378.41 341.725 377.198 341.101C378.189 338.858 379.037 336.78 380.728 334.95Z"/>
		<path fill="#472C5B" d="M471.561 596.674C474.312 595.307 476.771 592.997 479.293 591.226C480.837 590.143 481.802 589.615 483.699 589.936C484.389 594.431 484.078 599.224 484.078 603.769C481.343 604.599 476.774 605.406 474.688 607.368Q473.712 603.427 472.573 599.531L471.561 596.674Z"/>
		<path fill="#912D44" d="M471.561 596.674C474.312 595.307 476.771 592.997 479.293 591.226C480.837 590.143 481.802 589.615 483.699 589.936C483.638 591.636 483.954 593.016 482.711 594.336C480.514 596.67 475.454 597.751 472.573 599.531L471.561 596.674Z"/>
		<path fill="#192053" d="M466.276 429.905C468.572 432.945 468.724 438.324 469.221 441.99C459.589 451.378 446.968 458.679 435.815 466.187C434.964 462.383 433.634 458.605 432.511 454.869C443.312 445.916 454.671 437.775 466.276 429.905Z"/>
		<path fill="#192053" d="M457.221 402.439C457.457 402.523 457.711 402.566 457.928 402.69C460.39 404.096 461.393 410.232 462.032 412.755C452.585 421.702 440.547 428.693 429.728 435.89L428.792 436.015C426.387 434.042 425.905 428.623 425.26 425.707C435.959 418.114 446.151 409.439 457.221 402.439Z"/>
		<path fill="#192053" d="M472.547 460.488C475.209 462.559 476.578 468.269 477.681 471.351C472.461 474.42 467.659 478.448 462.76 482.009C457.058 486.156 451.197 489.986 445.222 493.726L444.469 493.868C441.964 492.358 441.149 486.987 440.351 484.248Q456.539 472.49 472.547 460.488Z"/>
		<path fill="#192053" d="M449.313 375.428C452.103 377.016 452.81 381.014 453.653 383.857C444.008 392.618 432.324 399.464 421.408 406.53C419.182 405.039 418.251 400.597 417.403 398.101C427.427 389.328 437.781 382.063 449.313 375.428Z"/>
		<path fill="#192053" d="M441.304 349.431L441.895 349.442C444.371 350.738 445.155 354.679 445.98 357.157C436.267 365.707 425.522 372.251 414.629 379.115L413.527 379.646L412.546 379.274C411.081 377.139 410.7 374.308 410.097 371.817C419.234 362.847 430.131 355.619 441.304 349.431Z"/>
		<path fill="#192053" d="M436.786 328.44L437.197 328.504C438.413 329.341 438.892 331.57 439.382 332.953C428.249 339.427 417.732 347.311 407.076 354.553C406.429 354.855 406.86 354.722 405.726 354.632C405.472 353.78 405.164 352.942 405.335 352.037C406.392 346.42 431.242 331.886 436.786 328.44Z"/>
		<path fill="#1AAC76" d="M644.39 195.134C646.078 199.532 647.646 203.63 650.655 207.34C652.172 208.533 653.705 209.929 655.389 210.873C656.862 211.961 658.321 212.935 659.92 213.827C662.75 215.004 665.564 216.264 668.486 217.196C676.054 217.947 682.649 215.794 690.056 215.193C685.78 230.394 678.597 245.525 672.234 259.979L644.296 322.53C633.449 346.777 623.235 371.22 612.698 395.593C607.627 407.322 602.085 418.862 597.165 430.653C591.907 443.256 587.285 456.116 582.023 468.726C582.129 456.26 584.743 437.379 575.42 427.622C575.301 427.498 575.174 427.384 575.051 427.264C572.249 425.324 569.553 423.506 566.46 422.057C563.495 420.992 560.223 420.387 557.155 419.638C556.276 419.457 555.475 419.491 554.807 418.841C553.208 417.285 553.45 414.559 553.335 412.472C552.978 405.964 553.09 399.966 555.229 393.75C557.513 387.111 561.177 380.698 564.155 374.322C568.812 364.354 573.173 354.208 577.629 344.148L614.712 259.123C620.249 246.331 637.314 203.056 644.39 195.134Z"/>
		<path fill="#80EFCD" d="M644.39 195.134C646.078 199.532 647.646 203.63 650.655 207.34C652.172 208.533 653.705 209.929 655.389 210.873C656.862 211.961 658.321 212.935 659.92 213.827C658.141 222.637 651.631 233.932 647.82 242.337L623.945 295.383L585.06 382.382Q579.158 395.598 573.106 408.746C571.114 413.049 569.196 418.188 566.46 422.057C563.495 420.992 560.223 420.387 557.155 419.638C556.276 419.457 555.475 419.491 554.807 418.841C553.208 417.285 553.45 414.559 553.335 412.472C552.978 405.964 553.09 399.966 555.229 393.75C557.513 387.111 561.177 380.698 564.155 374.322C568.812 364.354 573.173 354.208 577.629 344.148L614.712 259.123C620.249 246.331 637.314 203.056 644.39 195.134Z"/>
		<path fill="#3FCEB5" d="M644.39 195.134C646.078 199.532 647.646 203.63 650.655 207.34C647.255 211.898 644.861 217.571 642.515 222.753C637.066 234.785 632.625 247.249 627.37 259.363L587.602 349.745C583.341 359.35 557.23 415.497 557.155 419.638C556.276 419.457 555.475 419.491 554.807 418.841C553.208 417.285 553.45 414.559 553.335 412.472C552.978 405.964 553.09 399.966 555.229 393.75C557.513 387.111 561.177 380.698 564.155 374.322C568.812 364.354 573.173 354.208 577.629 344.148L614.712 259.123C620.249 246.331 637.314 203.056 644.39 195.134Z"/>
		<path fill="#3FCEB5" d="M659.92 213.827C662.75 215.004 665.564 216.264 668.486 217.196C664.115 227.885 658.266 238.116 653.619 248.728Q628.069 308.084 601.395 366.944L587.17 398.349C582.765 407.946 578.249 417.16 575.051 427.264C572.249 425.324 569.553 423.506 566.46 422.057C569.196 418.188 571.114 413.049 573.106 408.746Q579.158 395.598 585.06 382.382L623.945 295.383L647.82 242.337C651.631 233.932 658.141 222.637 659.92 213.827Z"/>
		<path fill="#63C8F6" d="M693.072 246.767L698.543 250.213L716.99 262.9C721.429 266.152 726.599 270.796 731.527 273.106L735.355 275.609C734.037 281.654 728.613 290.739 725.781 296.632L698.561 352.468Q672.44 405.853 646.904 459.52C640.266 473.407 634.171 487.534 627.316 501.317C621.482 496.766 615.027 492.825 609.386 488.095L591.997 476.158L585.965 472.337C591.323 463.219 595.391 453.361 599.965 443.837L623.976 393.669L693.072 246.767Z"/>
		<path fill="#2B6C9A" d="M716.99 262.9C721.429 266.152 726.599 270.796 731.527 273.106L735.355 275.609C734.037 281.654 728.613 290.739 725.781 296.632L698.561 352.468Q672.44 405.853 646.904 459.52C640.266 473.407 634.171 487.534 627.316 501.317C621.482 496.766 615.027 492.825 609.386 488.095C613.872 482.304 616.723 473.845 619.749 467.117Q625.336 454.573 631.297 442.203L689.476 320.511C695.149 308.616 701.058 296.822 706.658 284.894C710.087 277.589 712.875 269.845 716.99 262.9Z"/>
		<path fill="#75A2CA" d="M693.072 246.767L698.543 250.213C694.504 259.795 689.826 269.102 685.562 278.586C662.171 330.608 636.66 381.581 613.03 433.494C608.971 442.411 604.92 451.274 600.434 459.988C597.76 465.182 593.985 470.724 591.997 476.158L585.965 472.337C591.323 463.219 595.391 453.361 599.965 443.837L623.976 393.669L693.072 246.767Z"/>
		<path fill="#8BDCED" d="M277.244 296.884L282.723 300.64C299.05 312.358 315.429 324.129 331.211 336.574C334.005 349.193 337.71 361.444 341.448 373.805C324.002 386.311 306.786 399.233 289.118 411.417C288.046 412.325 286.584 413.204 285.193 413.501C283.319 413.901 281.984 413.212 280.431 412.293C273.592 408.243 267.544 402.277 261.395 397.273Q247.731 386.302 233.882 375.566C226.415 369.673 219.119 363.457 211.118 358.293C210.362 357.772 209.58 357.214 208.956 356.535C207.368 354.807 206.119 352.054 206.344 349.683C206.449 348.577 207.028 347.998 207.815 347.302C213.756 342.04 221.108 337.581 227.558 332.866L277.244 296.884Z"/>
		<path fill="#DAF5FC" d="M277.244 296.884L282.723 300.64C276.185 307.56 268.633 313.126 261.133 318.934L234.541 339.473C228.899 343.856 222.359 348.179 217.783 353.681Q214.481 356.031 211.118 358.293C210.362 357.772 209.58 357.214 208.956 356.535C207.368 354.807 206.119 352.054 206.344 349.683C206.449 348.577 207.028 347.998 207.815 347.302C213.756 342.04 221.108 337.581 227.558 332.866L277.244 296.884Z"/>
		<path fill="#63C8F6" d="M217.783 353.681C232.884 366.807 249.352 377.98 264.89 390.544Q272.761 396.936 280.271 403.747C283.064 406.239 285.996 409.399 289.118 411.417C288.046 412.325 286.584 413.204 285.193 413.501C283.319 413.901 281.984 413.212 280.431 412.293C273.592 408.243 267.544 402.277 261.395 397.273Q247.731 386.302 233.882 375.566C226.415 369.673 219.119 363.457 211.118 358.293Q214.481 356.031 217.783 353.681Z"/>
		<path fill="#FDBD4C" d="M735.337 196.002C741.416 190.707 749.845 181.613 758.091 180.396C762.264 179.781 764.698 181.347 767.95 183.648L782.446 194.479C792.199 201.579 819.848 218.558 825.479 226.719L826.026 228.957C827.751 235.528 825.748 240.844 822.435 246.5C821.151 248.691 819.678 250.529 817.86 252.295C809.349 260.568 776.477 286.827 766.658 292.282L764.571 294.11L762.599 295.961L760.505 294.165L746.12 283.692C743.71 281.821 740.719 280.087 738.907 277.616C738.803 277.369 738.748 277.094 738.595 276.873C737.823 275.764 736.549 275.804 735.355 275.609L731.527 273.106L732.407 272.343C733.418 272.466 734.38 272.665 735.372 272.895C721.765 262.901 707.783 253.454 693.946 243.784C695.603 239.955 699.907 228.111 703.152 226.444L706.197 225.302C705.856 224.959 705.604 224.732 705.32 224.317C704.634 223.316 704.277 222.246 704.611 221.042C705.574 217.568 710.446 214.951 713.2 213.001C719.88 206.666 727.889 201.409 735.337 196.002Z"/>
		<path fill="#FEF0BA" d="M735.337 196.002C741.416 190.707 749.845 181.613 758.091 180.396C762.264 179.781 764.698 181.347 767.95 183.648L782.446 194.479C782.549 196.488 782.868 198.71 781.324 200.294C778.696 202.989 772.898 201.001 769.511 202.866C763.81 202.024 758.591 201.733 752.948 203.19C748.858 204.352 745.498 205.972 741.972 208.339C741.056 209.115 739.771 210.498 738.734 211.019C736.356 215.86 734.068 220.425 735.895 225.917C736.527 227.817 737.48 229.252 738.643 230.853L739.222 231.662C739.34 231.824 739.46 231.983 739.579 232.144L739.786 232.055C743.282 236.201 748.137 239.38 752.673 242.274C751.551 242.975 750.9 243.143 750.311 244.378C755.145 249.151 762.184 252.872 762.364 260.593C762.394 261.892 762.068 262.821 761.422 263.943C763.102 265.163 764.761 266.453 766.493 267.596L769.966 269.334L772.636 270.122C769.352 275.313 768.059 286.127 766.658 292.282L764.571 294.11L762.599 295.961L760.505 294.165L746.12 283.692C743.71 281.821 740.719 280.087 738.907 277.616C738.803 277.369 738.748 277.094 738.595 276.873C737.823 275.764 736.549 275.804 735.355 275.609L731.527 273.106L732.407 272.343C733.418 272.466 734.38 272.665 735.372 272.895C721.765 262.901 707.783 253.454 693.946 243.784C695.603 239.955 699.907 228.111 703.152 226.444L706.197 225.302C705.856 224.959 705.604 224.732 705.32 224.317C704.634 223.316 704.277 222.246 704.611 221.042C705.574 217.568 710.446 214.951 713.2 213.001C719.88 206.666 727.889 201.409 735.337 196.002Z"/>
		<path fill="#FDBD4C" d="M703.152 226.444L706.197 225.302Q709.773 227.554 713.294 229.892C715.191 231.202 717.072 232.55 718.995 233.821C725.068 238.104 731.265 242.28 737.198 246.753C745.482 252.252 753.269 258.313 761.422 263.943C763.102 265.163 764.761 266.453 766.493 267.596L769.966 269.334L772.636 270.122C769.352 275.313 768.059 286.127 766.658 292.282L764.571 294.11L762.599 295.961L760.505 294.165L746.12 283.692C743.71 281.821 740.719 280.087 738.907 277.616C738.803 277.369 738.748 277.094 738.595 276.873C737.823 275.764 736.549 275.804 735.355 275.609L731.527 273.106L732.407 272.343C733.418 272.466 734.38 272.665 735.372 272.895C721.765 262.901 707.783 253.454 693.946 243.784C695.603 239.955 699.907 228.111 703.152 226.444Z"/>
		<path d="M737.198 246.753C745.482 252.252 753.269 258.313 761.422 263.943C763.102 265.163 764.761 266.453 766.493 267.596L764.927 269.378C756.229 264.489 743.822 254.464 735.314 248.323L737.198 246.753Z"/>
		<path fill="#20163E" d="M731.527 273.106L732.407 272.343C733.418 272.466 734.38 272.665 735.372 272.895C740.918 276.604 760.405 291.992 764.371 293.351L764.571 294.11L762.599 295.961L760.505 294.165L746.12 283.692C743.71 281.821 740.719 280.087 738.907 277.616C738.803 277.369 738.748 277.094 738.595 276.873C737.823 275.764 736.549 275.804 735.355 275.609L731.527 273.106Z"/>
		<path fill="#20163E" d="M703.152 226.444L706.197 225.302Q709.773 227.554 713.294 229.892C715.191 231.202 717.072 232.55 718.995 233.821C725.068 238.104 731.265 242.28 737.198 246.753L735.314 248.323C724.562 241.411 714.827 231.748 703.152 226.444Z"/>
		<path fill="#20163E" d="M766.493 267.596L769.966 269.334L772.636 270.122C769.352 275.313 768.059 286.127 766.658 292.282L764.571 294.11L764.371 293.351C765.601 286.237 767.005 279.317 769.023 272.385L764.927 269.378L766.493 267.596Z"/>
		<path fill="#F8E086" d="M713.2 213.001C719.88 206.666 727.889 201.409 735.337 196.002C734.872 203.567 730.433 203.973 726.81 209.594C725.683 211.341 725.203 214.067 724.657 216.078C721.668 218.83 718.539 221.326 716.7 225.024C717.582 227.912 718.638 230.814 718.995 233.821C717.072 232.55 715.191 231.202 713.294 229.892Q709.773 227.554 706.197 225.302C705.856 224.959 705.604 224.732 705.32 224.317C704.634 223.316 704.277 222.246 704.611 221.042C705.574 217.568 710.446 214.951 713.2 213.001Z"/>
		<path fill="#FEF0BA" d="M706.197 225.302C705.856 224.959 705.604 224.732 705.32 224.317C704.634 223.316 704.277 222.246 704.611 221.042C705.574 217.568 710.446 214.951 713.2 213.001C715.101 217.68 714.135 225.005 713.294 229.892Q709.773 227.554 706.197 225.302Z"/>
		<path fill="#F8E086" d="M767.95 183.648L782.446 194.479C782.549 196.488 782.868 198.71 781.324 200.294C778.696 202.989 772.898 201.001 769.511 202.866C763.81 202.024 758.591 201.733 752.948 203.19C748.858 204.352 745.498 205.972 741.972 208.339C743.416 198.213 761.002 199.947 767.966 189.934L767.95 183.648Z"/>
		<path fill="#FDBD4C" d="M739.579 232.144C738.611 232.251 737.743 232.14 736.779 232.023C735.447 231.208 734.579 230.272 733.808 228.923C731.961 225.692 732.089 220.983 733.152 217.528C734.099 214.448 735.919 212.501 738.734 211.019C736.356 215.86 734.068 220.425 735.895 225.917C736.527 227.817 737.48 229.252 738.643 230.853L739.222 231.662C739.34 231.824 739.46 231.983 739.579 232.144Z"/>
		<path fill="#912D44" d="M826.026 228.957C827.751 235.528 825.748 240.844 822.435 246.5C821.151 248.691 819.678 250.529 817.86 252.295C809.349 260.568 776.477 286.827 766.658 292.282C768.059 286.127 769.352 275.313 772.636 270.122C779.102 267.129 784.868 261.355 790.539 257.023L816.874 237.285C817.539 236.835 818.115 236.305 818.72 235.78C821.412 233.764 823.902 231.571 826.026 228.957Z"/>
		<path fill="#FEFEFD" d="M752.948 203.19C758.591 201.733 763.81 202.024 769.511 202.866C772.068 203.911 774.7 204.871 777.129 206.193L776.05 207.754L773.389 206.561C772.757 210.49 772.379 217.304 769.537 220.145L769.455 220.385C771.253 221.722 774.511 224.196 775.054 226.381C774.597 227.249 774.865 227.196 774.041 227.41C772.657 227.768 771.186 227.642 769.768 227.613C767.215 227.265 765.095 227.115 762.891 228.665C761.568 229.595 760.858 230.849 760.653 232.458C760.381 234.597 761.53 236.45 762.812 238.033C761.482 238.962 760.122 239.857 758.879 240.901C752.576 238.231 747.207 235.147 742.139 230.515C741.464 229.285 740.768 228.039 740.297 226.714C738.878 222.717 739.072 218.15 741 214.358C743.616 209.212 748.783 206.377 754.079 204.69L752.948 203.19Z"/>
		<path fill="#334588" d="M767.829 221.352C762.793 221.69 759.648 226.829 755.153 228.813C753.644 229.479 752.501 229.62 750.918 229.031C749.911 228.016 749.791 227.874 749.481 226.486C750.591 222.414 754.47 221.059 757.249 218.315C759.335 216.254 757.812 213.307 757.877 210.652C757.911 209.246 758.223 208.661 759.238 207.755C760.383 207.769 761.005 207.95 761.962 208.538C768.415 212.502 764.353 213.981 765.773 219.259C767.03 220.269 767.953 220.054 769.537 220.145L769.455 220.385C771.253 221.722 774.511 224.196 775.054 226.381C774.597 227.249 774.865 227.196 774.041 227.41C772.657 227.768 771.186 227.642 769.768 227.613C769.397 225.317 768.792 223.467 767.829 221.352Z"/>
		<path fill="#FEFEFD" d="M759.88 210.562C761.472 211.117 763.104 211.964 763.925 213.53C764.457 214.543 764.477 215.709 764.207 216.799C762.981 221.734 757.849 225.084 753.798 227.574C752.511 227.506 752.306 227.619 751.347 226.793C752.425 223.407 758.155 221.046 760.7 218.341C760.816 218.217 760.928 218.089 761.042 217.963C760.755 215.489 760.279 213.02 759.88 210.562Z"/>
		<path fill="#20163E" d="M752.948 203.19C758.591 201.733 763.81 202.024 769.511 202.866C772.068 203.911 774.7 204.871 777.129 206.193L776.05 207.754L773.389 206.561C767.047 203.734 760.804 203.916 754.079 204.69L752.948 203.19Z"/>
		<path fill="#8BDCED" d="M773.389 206.561L776.05 207.754C781.509 211.402 786.787 215.287 788.093 222.191Q788.225 222.919 788.287 223.656Q788.348 224.393 788.338 225.133Q788.328 225.872 788.246 226.607Q788.165 227.342 788.013 228.066Q787.86 228.79 787.639 229.496Q787.417 230.202 787.128 230.883Q786.84 231.564 786.487 232.213Q786.133 232.863 785.719 233.476C782.325 238.441 775.739 241.374 769.921 242.286C768.421 242.521 766.78 242.497 765.276 242.338C763.136 241.946 761.002 241.383 758.879 240.901C760.122 239.857 761.482 238.962 762.812 238.033C761.53 236.45 760.381 234.597 760.653 232.458C760.858 230.849 761.568 229.595 762.891 228.665C765.095 227.115 767.215 227.265 769.768 227.613C771.186 227.642 772.657 227.768 774.041 227.41C774.865 227.196 774.597 227.249 775.054 226.381C774.511 224.196 771.253 221.722 769.455 220.385L769.537 220.145C772.379 217.304 772.757 210.49 773.389 206.561Z"/>
		<path fill="#DAF5FC" d="M762.812 238.033C764.361 238.041 766.157 237.817 767.569 238.529C767.148 240.084 765.891 240.891 765.276 242.338C763.136 241.946 761.002 241.383 758.879 240.901C760.122 239.857 761.482 238.962 762.812 238.033Z"/>
		<path fill="#FEFEFD" d="M764.061 229.911C765.152 229.833 766.445 229.776 767.492 230.139C768.779 230.585 769.038 231.066 769.576 232.189C769.454 233.738 768.981 234.191 768.007 235.316C766.831 235.76 765.928 235.868 764.692 235.956C763.688 235.449 763.069 235.345 762.852 234.108C762.59 232.617 763.414 231.187 764.061 229.911Z"/>
		<path fill="#192053" d="M741.972 208.339C745.498 205.972 748.858 204.352 752.948 203.19L754.079 204.69C748.783 206.377 743.616 209.212 741 214.358C739.072 218.15 738.878 222.717 740.297 226.714C740.768 228.039 741.464 229.285 742.139 230.515C747.207 235.147 752.576 238.231 758.879 240.901C761.002 241.383 763.136 241.946 765.276 242.338C766.78 242.497 768.421 242.521 769.921 242.286C775.739 241.374 782.325 238.441 785.719 233.476Q786.133 232.863 786.487 232.213Q786.84 231.564 787.128 230.883Q787.417 230.202 787.639 229.496Q787.86 228.79 788.013 228.066Q788.165 227.342 788.246 226.607Q788.328 225.872 788.338 225.133Q788.348 224.393 788.287 223.656Q788.225 222.919 788.093 222.191C786.787 215.287 781.509 211.402 776.05 207.754L777.129 206.193C783.374 209.645 789.917 214.302 792.042 221.499C792.686 223.677 792.734 226.022 792.724 228.28L793.285 228.316C794.74 225.995 794.144 223.71 793.84 221.078C794.878 222.032 795.191 223.4 795.281 224.774C795.491 227.99 792.699 231.298 790.593 233.409C783.976 240.035 773.423 246.353 763.78 246.422C759.642 246.451 756.15 244.244 752.673 242.274C748.137 239.38 743.282 236.201 739.786 232.055L739.579 232.144C739.46 231.983 739.34 231.824 739.222 231.662L738.643 230.853C737.48 229.252 736.527 227.817 735.895 225.917C734.068 220.425 736.356 215.86 738.734 211.019C739.771 210.498 741.056 209.115 741.972 208.339Z"/>
		<path fill="#20163E" d="M825.479 226.719L826.026 228.957C823.902 231.571 821.412 233.764 818.72 235.78C818.115 236.305 817.539 236.835 816.874 237.285L790.539 257.023C784.868 261.355 779.102 267.129 772.636 270.122L769.966 269.334Q792.823 252.816 814.839 235.191L819.902 231.148L825.479 226.719Z"/>
		<path fill="#3FCEB5" d="M275.703 542.107C291.093 549.792 302.986 551.994 320.079 551.447L320.081 603.305C301.123 599.679 284.746 605.726 269.012 616.25C257.83 625.711 249.841 635.797 242.419 648.399C227.658 637.501 209.507 623.215 193.417 614.773C199.669 601.915 208.478 591.185 218.607 581.221C233.755 567.231 258.062 553.416 275.703 542.107Z"/>
		<path fill="#FEFEFD" d="M218.607 581.221C235.276 593.119 251.888 605.004 269.012 616.25C257.83 625.711 249.841 635.797 242.419 648.399C227.658 637.501 209.507 623.215 193.417 614.773C199.669 601.915 208.478 591.185 218.607 581.221Z"/>
		<path fill="#F8E086" d="M407.665 599.211C403.929 590.037 401.831 580.195 399.354 570.626C395.371 555.233 391.554 539.761 387.145 524.485C372.965 475.364 359.991 425.975 346.72 376.603L335.048 333.526C331.681 321.427 328.039 309.314 325.497 297.01C324.51 292.229 324.568 287.782 325.245 282.977C326.634 285.066 328.429 287.511 329.104 289.945C333.42 291.049 336.393 293.015 339.139 296.511C340.646 293.161 342.288 290.234 344.781 287.512C346.78 301.76 350.731 315.434 354.465 329.3L371.886 392.005L409.836 531.241Q421.214 572.154 431.992 613.229C428.725 611.569 425.553 609.915 422.513 607.864L414.525 603.476C412.009 602.382 409.818 600.892 407.665 599.211Z"/>
		<path fill="#FDBD4C" d="M344.781 287.512C346.78 301.76 350.731 315.434 354.465 329.3L371.886 392.005L409.836 531.241Q421.214 572.154 431.992 613.229C428.725 611.569 425.553 609.915 422.513 607.864C422.942 601.629 410.589 562.018 408.187 553.085L356.036 360.458C352.648 347.963 349.094 335.489 345.943 322.933C343.976 315.093 342.715 303.319 339.139 296.511C340.646 293.161 342.288 290.234 344.781 287.512Z"/>
		<path fill="#FDBD4C" d="M407.665 599.211C403.929 590.037 401.831 580.195 399.354 570.626C395.371 555.233 391.554 539.761 387.145 524.485C372.965 475.364 359.991 425.975 346.72 376.603L335.048 333.526C331.681 321.427 328.039 309.314 325.497 297.01C324.51 292.229 324.568 287.782 325.245 282.977C326.634 285.066 328.429 287.511 329.104 289.945L348.018 356.374Q364.411 415.006 379.575 473.968C388.119 507.201 396.633 540.234 406.189 573.204C409.08 583.175 410.658 593.852 414.525 603.476C412.009 602.382 409.818 600.892 407.665 599.211Z"/>
		<path fill="#8BDCED" d="M744.813 624.304C747.044 625.856 749.419 627.367 751.494 629.121C753.847 631.11 754.593 632.156 754.828 635.269C755.952 635.176 756.944 634.952 758.014 635.366C762.715 638.308 766.072 642.54 769.034 647.165Q770.168 648.475 771.238 649.839Q772.307 651.202 773.31 652.616Q774.312 654.029 775.245 655.49Q776.178 656.95 777.04 658.454Q777.901 659.957 778.689 661.501Q779.477 663.044 780.19 664.624Q780.902 666.204 781.538 667.816Q782.173 669.428 782.73 671.069Q783.287 672.71 783.764 674.376Q784.241 676.042 784.637 677.729Q785.033 679.416 785.347 681.121Q785.661 682.825 785.893 684.542Q786.124 686.26 786.273 687.986Q786.421 689.713 786.486 691.445Q786.551 693.176 786.532 694.909Q786.513 696.642 786.411 698.372C785.399 714.017 778.877 728.194 767.015 738.553C750.796 752.718 729.816 757.302 708.759 755.768Q705.659 755.534 702.566 755.231C703.395 748.344 701.897 740.593 703.445 733.962C703.466 733.412 703.633 732.922 703.775 732.393C705.747 731.484 708.806 731.828 711.021 731.544C709.099 731.287 706.42 731.882 704.661 731.164C703.699 730.772 703.69 730.008 703.296 729.096L703.502 722.24L703.491 716.588C712.743 708.106 722.494 700.09 732.144 692.066C736.368 687.99 740.139 684.168 743.283 679.196C744.209 675.266 744.516 671.351 744.835 667.338C745.377 662.919 745.035 658.108 745.035 653.64Q745.02 638.971 744.813 624.304Z"/>
		<path fill="#3FA5B0" d="M769.034 647.165Q770.168 648.475 771.238 649.839Q772.307 651.202 773.31 652.616Q774.312 654.029 775.245 655.49Q776.178 656.95 777.04 658.454Q777.901 659.957 778.689 661.501Q779.477 663.044 780.19 664.624Q780.902 666.204 781.538 667.816Q782.173 669.428 782.73 671.069Q783.287 672.71 783.764 674.376Q784.241 676.042 784.637 677.729Q785.033 679.416 785.347 681.121Q785.661 682.825 785.893 684.542Q786.124 686.26 786.273 687.986Q786.421 689.713 786.486 691.445Q786.551 693.176 786.532 694.909Q786.513 696.642 786.411 698.372C785.399 714.017 778.877 728.194 767.015 738.553C750.796 752.718 729.816 757.302 708.759 755.768Q705.659 755.534 702.566 755.231C703.395 748.344 701.897 740.593 703.445 733.962Q703.421 740.528 703.508 747.093Q705.981 747.35 708.466 747.454C723.82 748.106 743.157 746.38 754.965 735.337C770.004 721.274 767.837 699.472 768.185 680.759Q768.51 663.96 769.034 647.165Z"/>
		<path fill="#D95560" d="M743.283 679.196C747.582 680.17 752.011 681.905 755.465 684.701C755.63 696.193 755.219 705.578 746.824 714.36C736.457 725.205 717.621 728.609 703.296 729.096L703.502 722.24L703.491 716.588C712.743 708.106 722.494 700.09 732.144 692.066C736.368 687.99 740.139 684.168 743.283 679.196Z"/>
		<path fill="#F8838C" d="M732.144 692.066C735.896 694.285 741.224 696.758 742.456 701.367C742.964 703.27 742.481 705.146 741.461 706.791C736.498 714.792 722.056 718.842 713.444 720.563C710.145 721.222 706.812 721.656 703.502 722.24L703.491 716.588C712.743 708.106 722.494 700.09 732.144 692.066Z"/>
		<path fill="#D95560" d="M744.813 624.304C747.044 625.856 749.419 627.367 751.494 629.121C753.847 631.11 754.593 632.156 754.828 635.269Q755.626 645.989 755.412 656.736C755.732 666.058 755.29 675.379 755.465 684.701C752.011 681.905 747.582 680.17 743.283 679.196C744.209 675.266 744.516 671.351 744.835 667.338C745.377 662.919 745.035 658.108 745.035 653.64Q745.02 638.971 744.813 624.304Z"/>
		<path fill="#912D44" d="M754.941 676.838C755.035 670.235 754.595 663.281 755.412 656.736C755.732 666.058 755.29 675.379 755.465 684.701C752.011 681.905 747.582 680.17 743.283 679.196C744.209 675.266 744.516 671.351 744.835 667.338C748.384 670.366 751.715 673.468 754.941 676.838Z"/>
		<path fill="#20163E" d="M754.828 635.269C755.952 635.176 756.944 634.952 758.014 635.366Q758.104 652.605 758.37 669.842C758.518 680.207 759.681 691.521 757.412 701.671C756.176 707.2 753.684 712.255 749.698 716.331C741.503 724.712 723.064 731.609 711.489 731.562C711.333 731.562 711.177 731.55 711.021 731.544C709.099 731.287 706.42 731.882 704.661 731.164C703.699 730.772 703.69 730.008 703.296 729.096C717.621 728.609 736.457 725.205 746.824 714.36C755.219 705.578 755.63 696.193 755.465 684.701C755.29 675.379 755.732 666.058 755.412 656.736Q755.626 645.989 754.828 635.269Z"/>
		<path fill="#FDBD4C" d="M750.426 446.11C750.007 445.981 750.278 446.095 749.714 445.587C752.757 441.522 767.539 431.298 772.469 427.31C780.452 420.854 787.97 413.793 796.185 407.627C798.776 405.682 801.487 403.788 804.467 402.483C811.612 399.353 817.454 401.173 824.272 403.897C826.351 404.954 828.481 405.956 830.489 407.141C835.767 410.391 839.901 414.648 842.755 420.198C847.538 427.863 851.218 438.21 849.087 447.314C848.604 449.377 847.928 451.142 846.497 452.737C841.233 458.599 833.514 463.101 827.212 467.883L790.503 495.978C789.586 488.923 788.331 482.722 785.406 476.177C784.244 473.577 782.603 470.917 781.655 468.26C778.707 464 775.338 460.301 771.681 456.64C771.083 457.446 770.409 458.246 769.882 459.098C766.428 456.243 762.745 453.995 758.798 451.894C755.706 450.833 752.715 450.045 749.505 449.427L750.426 446.11Z"/>
		<path fill="#C06938" d="M842.755 420.198C847.538 427.863 851.218 438.21 849.087 447.314C848.604 449.377 847.928 451.142 846.497 452.737C841.233 458.599 833.514 463.101 827.212 467.883L790.503 495.978C789.586 488.923 788.331 482.722 785.406 476.177C784.244 473.577 782.603 470.917 781.655 468.26C788.066 463.755 793.754 458.204 800.053 453.518C814.68 442.637 829.401 432.684 842.755 420.198Z"/>
		<path fill="#FDBD4C" d="M830.489 407.141C835.767 410.391 839.901 414.648 842.755 420.198C829.401 432.684 814.68 442.637 800.053 453.518C793.754 458.204 788.066 463.755 781.655 468.26C778.707 464 775.338 460.301 771.681 456.64L769.24 454.448C769.379 454.417 769.521 454.397 769.657 454.356C772.261 453.576 822.162 415.017 827.347 410.64C828.595 409.586 829.631 408.547 830.489 407.141Z"/>
		<path fill="#F8E086" d="M824.272 403.897C826.351 404.954 828.481 405.956 830.489 407.141C829.631 408.547 828.595 409.586 827.347 410.64C822.162 415.017 772.261 453.576 769.657 454.356C769.521 454.397 769.379 454.417 769.24 454.448L764.996 451.549C765.035 451.245 765.064 450.94 765.112 450.638C765.271 449.653 765.632 448.921 766.313 448.177C771.398 442.618 778.559 438.001 784.567 433.436Q804.312 418.523 824.272 403.897Z"/>
		<path fill="#20163E" d="M750.426 446.11C755.691 447.474 760.251 448.88 764.996 451.549L769.24 454.448L771.681 456.64C771.083 457.446 770.409 458.246 769.882 459.098C766.428 456.243 762.745 453.995 758.798 451.894C755.706 450.833 752.715 450.045 749.505 449.427L750.426 446.11Z"/>
		<path fill="#3FCEB5" d="M709.911 531.307C726.237 538.128 754.189 549.66 767.947 560.185C777.953 565.549 787.089 573.011 795.937 580.056C781.329 590.034 767.548 602.258 756.445 616.05L754.496 614.717C739.173 604.261 722.584 597.507 704.464 593.739C704.486 579.461 703.327 560.22 705.641 546.563C706.532 541.303 708.207 536.343 709.911 531.307Z"/>
		<path fill="#FEFEFD" d="M581.929 480.376C581.977 479.118 581.772 477.025 582.467 476.031C586.058 477.899 589.473 480.44 592.86 482.666C603.525 489.674 613.893 497.479 624.893 503.916C611.865 514.298 598.448 523.962 584.871 533.6C574.925 540.659 565.03 547.93 554.385 553.919C542.832 544.833 530.776 536.697 518.807 528.197C508.143 520.624 497.679 512.775 486.864 505.417C498.999 495.287 513.754 487.393 526.97 478.668C526.787 485.26 526.617 491.607 527.853 498.126C529.423 503.608 532.706 508.21 537.543 511.288C544.588 515.771 554.059 516.883 562.146 515.132C571.06 513.201 576.702 508.069 581.473 500.553C581.462 493.982 580.963 486.861 581.929 480.376Z"/>
		<path fill="#8BDCED" d="M581.929 480.376L581.887 499.379C586.055 500.266 591.133 501.068 593.745 504.839C595.435 507.277 595.861 510.485 595.185 513.339C594.053 518.119 590.008 521.552 585.92 523.896C573.696 530.906 556.726 531.956 543.318 528.198C536.872 526.391 529.916 523.147 526.569 517.035C524.226 512.757 524.009 507.552 525.464 502.948C525.996 501.265 526.735 499.504 527.853 498.126C529.423 503.608 532.706 508.21 537.543 511.288C544.588 515.771 554.059 516.883 562.146 515.132C571.06 513.201 576.702 508.069 581.473 500.553C581.462 493.982 580.963 486.861 581.929 480.376Z"/>
		<path fill="#3FCEB5" d="M193.417 614.773C209.507 623.215 227.658 637.501 242.419 648.399C238.141 659.495 234.919 670.354 232.668 682.031C231.362 696.501 231.458 706.744 236.304 720.652C226.779 713.663 216.871 707.118 207.135 700.42C201.093 696.264 193.815 692.183 188.935 686.656C180.64 677.261 181.653 660.563 182.43 648.874C183.49 637.748 189.173 625.103 193.417 614.773Z"/>
		<path fill="#3FA5B0" d="M182.43 648.874C188.004 653.569 195.151 656.963 201.339 660.859Q217.357 670.922 232.668 682.031C231.362 696.501 231.458 706.744 236.304 720.652C226.779 713.663 216.871 707.118 207.135 700.42C201.093 696.264 193.815 692.183 188.935 686.656C180.64 677.261 181.653 660.563 182.43 648.874Z"/>
		<path fill="#D95560" d="M486.226 552.896C499.215 561.338 511.655 571.061 524.315 580.034C532.703 585.979 542.742 592.098 550.647 598.175C552.192 599.363 553.576 600.663 554.69 602.269C552.075 606.713 553.481 622.221 554.116 627.761Q542.092 629.704 529.941 630.534L525.864 630.634C520.713 630.865 515.664 630.854 510.513 630.58C507.147 630.536 503.846 630.361 500.494 630.05Q493.732 629.758 487.002 629.033Q487.142 597.519 486.478 566.012L486.226 552.896Z"/>
		<path fill="#F79E9E" d="M486.478 566.012C491.911 567.774 496.526 572.259 500.778 575.927C500.28 593.949 500.587 612.02 500.494 630.05Q493.732 629.758 487.002 629.033Q487.142 597.519 486.478 566.012Z"/>
		<path fill="#F79E9E" d="M509.794 582.404C515.569 585.114 521.302 589.456 526.283 593.434C526.672 605.882 526.461 618.2 525.864 630.634C520.713 630.865 515.664 630.854 510.513 630.58Q510.493 606.487 509.794 582.404Z"/>
		<path fill="#F8838C" d="M526.283 593.434C527.717 594.247 529.139 595.054 530.514 595.964C530.26 607.45 530.472 619.073 529.941 630.534L525.864 630.634C526.461 618.2 526.672 605.882 526.283 593.434Z"/>
		<path fill="#BBAAC5" d="M495.181 85.5356C499.829 89.7181 504.186 92.2057 510.052 94.3445C515.029 94.7954 519.564 94.632 524.372 93.1975C527.256 91.3912 529.938 89.4751 532.614 87.3727C537.478 96.7761 551.47 130.424 551.153 139.969C550.508 140.845 550.241 141.258 549.044 141.382C546.945 141.599 543.738 139.65 541.843 138.781C534.199 141.78 533.535 147.309 529.874 153.728C529.23 155.89 527.97 157.709 526.798 159.618C520.612 155.216 517.552 150.262 509.382 149.344C505.995 150.537 503.705 153.201 501.245 155.692C498.09 151.46 495.623 146.85 492.812 142.398C490.92 139.402 488.458 136.296 484.762 135.637C480.201 134.824 476.555 137.624 472.96 139.952C477.304 120.808 486.413 102.958 495.181 85.5356Z"/>
		<path fill="#FEFEFD" d="M495.181 85.5356C499.829 89.7181 504.186 92.2057 510.052 94.3445L509.546 129.036C509.487 135.797 509.749 142.595 509.382 149.344C505.995 150.537 503.705 153.201 501.245 155.692C498.09 151.46 495.623 146.85 492.812 142.398C490.92 139.402 488.458 136.296 484.762 135.637C480.201 134.824 476.555 137.624 472.96 139.952C477.304 120.808 486.413 102.958 495.181 85.5356Z"/>
		<path fill="#8484A8" d="M524.372 93.1975C527.256 91.3912 529.938 89.4751 532.614 87.3727C537.478 96.7761 551.47 130.424 551.153 139.969C550.508 140.845 550.241 141.258 549.044 141.382C546.945 141.599 543.738 139.65 541.843 138.781C534.199 141.78 533.535 147.309 529.874 153.728C528.362 146.093 528.544 137.539 527.929 129.753C526.964 117.558 525.594 105.371 524.372 93.1975Z"/>
		<path fill="#138284" d="M795.937 580.056C812.305 592.475 822.62 607.488 829.699 626.64C820.342 632.274 812.227 639.195 804.044 646.366C800.283 649.661 796.016 654.375 791.681 656.771C783.615 639.802 770.176 628.178 756.445 616.05C767.548 602.258 781.329 590.034 795.937 580.056Z"/>
		<path fill="#912D44" d="M554.69 602.269C563.156 597.531 574.492 588.141 582.841 582.213C596.99 572.165 611.664 562.823 625.361 552.151C624.778 559.298 625.002 566.51 624.898 573.678C624.764 582.806 624.419 591.953 624.545 601.08C602.953 614.366 579.334 624.059 554.116 627.761C553.481 622.221 552.075 606.713 554.69 602.269Z"/>
		<path fill="#80EFCD" d="M485.961 509.238C493.504 512.859 510.837 526.909 518.58 532.629C529.893 540.988 541.562 548.731 553 556.903Q553.243 576.319 552.947 595.735C543.578 590.586 535.122 583.783 526.431 577.589L485.898 548.651Q485.829 528.944 485.961 509.238Z"/>
		<path fill="#3FA5B0" d="M256.708 650.349L257.089 650.715C258.923 656.707 266.695 701.684 265.619 706.736C265.285 708.304 264.985 709.88 264.664 711.451L265.158 711.969C267.669 711.944 270.233 708.7 271.884 707.019C288.96 718.607 305.075 731.765 322.023 743.601C323.169 752.499 322.779 762.081 323.008 771.079L318.929 767.909C304.334 756.594 289.089 746.285 273.82 735.919C267.068 731.335 259.211 727.096 253.099 721.757C250.508 719.493 248.684 716.372 247.449 713.191C239.658 693.125 248.404 668.884 256.708 650.349Z"/>
		<path fill="#138284" d="M623.796 510.887L624.269 511.32C626.246 517.63 625.057 539.343 625.015 547.035C602.213 562.236 580.088 578.668 558.259 595.229C555.82 589.065 557.415 563.995 557.506 556.516C580.693 543.326 602.101 526.389 623.796 510.887Z"/>
		<path fill="#D95560" d="M243.025 468.707C247.578 471.998 251.663 475.855 256.087 479.31C262.718 484.488 269.616 489.377 276.042 494.809C280.992 498.993 285.479 504.052 290.724 507.832C292.861 509.372 294.739 510.397 297.318 510.971L297.433 511.297C295.515 512.5 294.865 514.308 293.841 516.248L293.445 517.284C292.251 518.272 291.258 519.162 290.334 520.411C290.741 522.089 291.241 523.471 292.426 524.771C298.757 531.719 311.411 531.124 320.026 531.371L320.026 546.458C315.419 546.679 310.839 546.775 306.242 546.303C275.371 543.128 260.316 525.597 242.081 503.139C241.947 495.367 241.551 487.374 242.264 479.629C242.474 475.996 242.585 472.32 243.025 468.707Z"/>
		<path fill="#F8838C" d="M243.025 468.707C247.578 471.998 251.663 475.855 256.087 479.31C262.718 484.488 269.616 489.377 276.042 494.809C280.992 498.993 285.479 504.052 290.724 507.832C292.861 509.372 294.739 510.397 297.318 510.971L297.433 511.297C295.515 512.5 294.865 514.308 293.841 516.248C287.543 513.102 243.939 484.422 242.264 479.629C242.474 475.996 242.585 472.32 243.025 468.707Z"/>
		<path fill="#FDBD4C" d="M308.446 215.929C317.372 220.358 325.445 226.956 333.594 232.666L374.064 260.91C373.695 271.904 373.907 282.861 373.928 293.856C365.923 294.677 345.552 275.717 338.153 270.797C334.681 268.488 330.162 267.415 326.422 265.509C320.049 262.261 314.275 257.673 308.519 253.463C308.121 240.989 308.435 228.414 308.446 215.929Z"/>
		<path fill="#DC8542" d="M431.448 218.625C434.34 217.695 436.739 215.305 439.371 213.797C440.507 224.817 440.025 236.009 439.556 247.059Q419.815 263.123 399.189 278.034C391.85 283.451 384.508 289.745 376.267 293.711C375.384 293.188 375.63 293.538 375.342 292.501C373.825 287.03 374.709 267.53 375.456 261.052C388.776 249.932 403.604 240.72 417.327 230.106C420.323 227.789 424.625 225.07 426.9 222.085C427.53 220.678 430.052 219.258 431.448 218.625Z"/>
		<path fill="#334588" d="M207.694 402.639C206.339 401.324 206.156 401.127 205.663 399.197L206.037 398.382C209.466 398.885 221.515 410.284 225.244 413.292Q245.419 429.46 265.778 445.397C273.07 451.049 280.927 456.378 287.82 462.477C287.899 463.577 288.038 464.598 287.708 465.672L287.971 466.023C287.575 467.408 287.397 468.468 287.374 469.908L288.146 470.664L287.865 473.784L288.989 473.686C288.593 475.186 287.937 476.173 288.788 477.577C288.848 477.676 288.933 477.758 289.005 477.848L287.99 478.333L287.876 481.287L288.223 481.613L287.771 482.931C288.248 483.791 288.736 484.283 289.476 484.926C302.456 477.776 314.91 467.809 327.155 459.417C319.772 471.705 301.463 480.96 289.362 488.585C281.752 481.671 273.086 475.794 264.984 469.459L219.428 433.571C211.221 427.136 202.575 421.477 195.304 413.939C197.279 414.82 198.972 415.775 200.73 417.036L202.731 414.952L204.879 412.092C205.279 411.249 205.614 410.376 205.965 409.512C205 407.983 205.015 407.449 205.279 405.7C206.228 404.797 206.929 403.698 207.694 402.639Z"/>
		<path fill="#334588" d="M207.694 402.639C206.339 401.324 206.156 401.127 205.663 399.197L206.037 398.382C209.466 398.885 221.515 410.284 225.244 413.292Q245.419 429.46 265.778 445.397C273.07 451.049 280.927 456.378 287.82 462.477C287.899 463.577 288.038 464.598 287.708 465.672L287.971 466.023C287.575 467.408 287.397 468.468 287.374 469.908L288.146 470.664L287.865 473.784Q258.255 451.768 229.438 428.725C225.332 425.445 209.593 411.104 205.965 409.512C205 407.983 205.015 407.449 205.279 405.7C206.228 404.797 206.929 403.698 207.694 402.639Z"/>
		<path fill="#DAF5FC" d="M205.279 405.7C212.994 410.035 227.064 423.172 234.777 429.314C252.11 443.118 270.025 456.161 287.374 469.908L288.146 470.664L287.865 473.784Q258.255 451.768 229.438 428.725C225.332 425.445 209.593 411.104 205.965 409.512C205 407.983 205.015 407.449 205.279 405.7Z"/>
		<path fill="#DAF5FC" d="M207.694 402.639C206.339 401.324 206.156 401.127 205.663 399.197L206.037 398.382C209.466 398.885 221.515 410.284 225.244 413.292Q245.419 429.46 265.778 445.397C273.07 451.049 280.927 456.378 287.82 462.477C287.899 463.577 288.038 464.598 287.708 465.672C260.176 445.824 234.777 423.077 207.694 402.639Z"/>
		<path fill="#334588" d="M205.965 409.512C209.593 411.104 225.332 425.445 229.438 428.725Q258.255 451.768 287.865 473.784L288.989 473.686C288.593 475.186 287.937 476.173 288.788 477.577C288.848 477.676 288.933 477.758 289.005 477.848L287.99 478.333C285.677 476.66 283.281 475.079 280.928 473.462Q268.572 463.752 256.025 454.289C240.458 439.493 220.274 427.608 204.879 412.092C205.279 411.249 205.614 410.376 205.965 409.512Z"/>
		<path fill="#2B6C9A" d="M195.304 413.939C197.279 414.82 198.972 415.775 200.73 417.036L255.806 460.789C264.892 468.013 276.898 478.628 286.617 484.247C287.65 484.844 288.302 485.035 289.476 484.926C302.456 477.776 314.91 467.809 327.155 459.417C319.772 471.705 301.463 480.96 289.362 488.585C281.752 481.671 273.086 475.794 264.984 469.459L219.428 433.571C211.221 427.136 202.575 421.477 195.304 413.939Z"/>
		<path fill="#DAF5FC" d="M204.879 412.092C220.274 427.608 240.458 439.493 256.025 454.289L255.404 456.642C237.264 443.612 220.872 428.044 202.731 414.952L204.879 412.092Z"/>
		<path fill="#FEFEFD" d="M256.025 454.289Q268.572 463.752 280.928 473.462C280.239 474.2 279.991 474.447 279.037 474.866C270.799 469.497 262.864 463.046 255.404 456.642L256.025 454.289Z"/>
		<path fill="#DAF5FC" d="M280.928 473.462C283.281 475.079 285.677 476.66 287.99 478.333L287.876 481.287Q283.483 478.04 279.037 474.866C279.991 474.447 280.239 474.2 280.928 473.462Z"/>
		<path fill="#087277" d="M791.681 656.771C796.016 654.375 800.283 649.661 804.044 646.366C812.227 639.195 820.342 632.274 829.699 626.64Q832.262 640.035 832.584 653.67C832.528 671.202 829.177 688.243 816.36 700.942C809.195 708.043 801.506 714.64 794.424 721.819C798.379 708.771 800.39 696.786 799.237 683.108C797.623 673.997 795.099 665.36 791.681 656.771Z"/>
		<path fill="#085466" d="M799.237 683.108C811.142 674.084 821.252 662.124 832.584 653.67C832.528 671.202 829.177 688.243 816.36 700.942C809.195 708.043 801.506 714.64 794.424 721.819C798.379 708.771 800.39 696.786 799.237 683.108Z"/>
		<path fill="#912D44" d="M531.548 451.86C536.232 456.098 540.338 459.332 546.362 461.523C549.772 461.977 553.144 462.332 556.577 462.539C565.172 461.294 570.645 458.879 577.429 453.597L577.21 498.269C572.674 504.561 566.869 508.646 559.106 509.89Q557.513 510.161 555.899 510.238C552.349 510.166 549.051 509.628 545.57 508.948C541.846 507.618 537.937 506.02 535.123 503.149C533.553 501.547 532.598 500.057 532.114 497.858C530.833 492.053 531.453 485.552 531.472 479.621L531.548 451.86Z"/>
		<path fill="#F8838C" d="M531.548 451.86C536.232 456.098 540.338 459.332 546.362 461.523C546.576 469.927 547.694 502.67 545.57 508.948C541.846 507.618 537.937 506.02 535.123 503.149C533.553 501.547 532.598 500.057 532.114 497.858C530.833 492.053 531.453 485.552 531.472 479.621L531.548 451.86Z"/>
		<path fill="#D95560" d="M546.362 461.523C549.772 461.977 553.144 462.332 556.577 462.539C556.576 478.18 557.632 494.73 555.899 510.238C552.349 510.166 549.051 509.628 545.57 508.948C547.694 502.67 546.576 469.927 546.362 461.523Z"/>
		<path fill="#8BDCED" d="M351.076 296.329C352.616 295.486 354.261 294.808 355.859 294.081C361.13 305.157 362.994 317.556 366.111 329.337Q372.477 352.586 379.209 375.732L426.36 543.874C433.373 568.899 439.976 594.125 447.443 619.013C444.818 618.077 442.194 617.152 439.615 616.096C430.065 586.066 422.653 555.48 414.356 525.098L373.041 375.339L357.946 321.5C355.696 313.273 354.626 304.104 351.076 296.329Z"/>
		<defs>
			<linearGradient id="gradient_1" gradientUnits="userSpaceOnUse" x1="680.69214" y1="705.81482" x2="782.49548" y2="649.47449">
				<stop offset="0" stop-color="#5BE1D8"/>
				<stop offset="1" stop-color="#A6FDFF"/>
			</linearGradient>
		</defs>
		<path fill="url(#gradient_1)" d="M704.077 597.565C735.394 604.059 764.747 620.773 782.566 648.006C794.077 665.598 799.454 687.238 795.08 708.035C790.949 727.679 777.743 745.612 760.987 756.478C746.919 765.6 731.079 768.543 714.525 767.629C710.375 767.574 706.611 766.845 702.633 765.741C702.591 763.287 702.745 760.816 702.83 758.363L711.386 759.394C732.915 759.869 755.661 753.927 771.494 738.603C783.571 726.914 789.378 711.136 789.582 694.488C789.855 672.136 779.094 651.33 763.715 635.596C747.438 618.943 726.172 610.064 703.905 604.629L704.077 597.565Z"/>
		<path fill="#3FCEB5" d="M702.83 758.363L711.386 759.394C714.149 761.911 713.174 764.554 714.525 767.629C710.375 767.574 706.611 766.845 702.633 765.741C702.591 763.287 702.745 760.816 702.83 758.363Z"/>
		<path fill="#FEFEFD" d="M720.124 503.6C724.033 492.394 729.523 472.381 739.51 465.584C742.81 463.339 746.531 462.766 750.395 463.695C758.464 465.634 764.748 472.154 768.907 479.026C771.882 484.448 775.224 491.676 773.449 497.941C772.345 501.839 769.376 504.64 765.882 506.498C755.216 512.169 740.962 512.35 729.32 515.056L724.278 509.069C722.808 507.321 721.487 505.433 720.124 503.6Z"/>
		<path fill="#BBAAC5" d="M768.907 479.026C771.882 484.448 775.224 491.676 773.449 497.941C772.345 501.839 769.376 504.64 765.882 506.498C755.216 512.169 740.962 512.35 729.32 515.056L724.278 509.069C738.781 498.54 754.046 489.044 768.907 479.026Z"/>
		<path fill="#DC8542" d="M663.145 169.803C665.665 165.648 668.655 161.624 671.382 157.593C673.872 162.246 675.868 164.997 680.693 167.462C685.635 167.666 689.109 167.036 693.666 165.108C692.059 180.822 691.318 195.862 691.545 211.674C684.176 214.376 677.121 215.138 669.288 214.228C666.398 213.384 663.154 212.508 660.629 210.838L658.968 210.342C651.573 205.451 648.783 201.626 646.187 193.158C648.346 185.839 658.113 175.932 663.145 169.803Z"/>
		<path fill="#FEF0BA" d="M663.145 169.803C665.821 173.878 668.321 176.766 672.23 179.702C669.613 188.543 666.642 204.099 660.629 210.838L658.968 210.342C651.573 205.451 648.783 201.626 646.187 193.158C648.346 185.839 658.113 175.932 663.145 169.803Z"/>
		<path fill="#FDBD4C" d="M663.145 169.803C665.665 165.648 668.655 161.624 671.382 157.593C673.872 162.246 675.868 164.997 680.693 167.462C676.812 182.469 671.608 199.029 669.288 214.228C666.398 213.384 663.154 212.508 660.629 210.838C666.642 204.099 669.613 188.543 672.23 179.702C668.321 176.766 665.821 173.878 663.145 169.803Z"/>
		<path fill="#D95560" d="M268.94 634.429C269.872 635.383 269.914 654.426 270.167 657.808C270.607 663.703 271.025 671.296 273.98 676.548C279.68 686.676 310.88 704.961 321.582 714.198Q322.003 726.47 321.891 738.749L317.267 735.786C308.622 729.623 299.894 723.73 291.446 717.272C287.188 714.016 281.435 708.335 276.984 705.865C275.046 704.79 272.693 704.091 270.613 703.313C267.75 697.182 261.705 655.322 261.566 647.217C261.473 641.783 265.402 638.034 268.94 634.429Z"/>
		<path fill="#8BDCED" d="M205.806 356.759C219.214 366.675 232.975 376.329 245.975 386.765C258.367 396.712 269.459 407.998 283.269 416.085C304.461 405.581 321.329 388.398 341.987 377.033L344.47 385.954C331.111 394.507 318.291 403.934 305.467 413.261C299.135 417.865 292.87 423.011 286.124 426.974C285.457 427.562 284.805 428.216 284.061 428.701L253.929 405.768C248.48 401.62 242.677 396.44 236.565 393.379L235.643 393.731C233.635 392.485 230.329 390.603 229.232 388.524L229.511 387.81L231.922 387.778C222.998 380.904 213.319 374.585 205.581 366.331C205.531 363.115 205.501 359.966 205.806 356.759Z"/>
		<path fill="#334588" d="M231.922 387.778C238.343 391.601 244.323 396.45 250.312 400.919C262.138 409.741 273.842 418.791 286.124 426.974C285.457 427.562 284.805 428.216 284.061 428.701L253.929 405.768C248.48 401.62 242.677 396.44 236.565 393.379L235.643 393.731C233.635 392.485 230.329 390.603 229.232 388.524L229.511 387.81L231.922 387.778Z"/>
		<path fill="#FEFEFD" d="M407.005 216.042C411.216 219.782 416.156 222.521 420.387 226.181Q397.737 243.484 374.446 259.916C359.115 248.482 343.392 237.798 327.586 227.045Q328.082 225.916 328.611 224.802C331.226 219.318 335.09 218.11 340.488 216.157Q357.441 227.821 374.265 239.67C385.562 232.249 396.47 224.516 407.005 216.042Z"/>
		<defs>
			<linearGradient id="gradient_2" gradientUnits="userSpaceOnUse" x1="356.9191" y1="719.4397" x2="249.45125" y2="644.05939">
				<stop offset="0" stop-color="#43E7D8"/>
				<stop offset="1" stop-color="#8BFFFF"/>
			</linearGradient>
		</defs>
		<path fill="url(#gradient_2)" d="M240.608 723.094C234.681 707.373 233.24 694.727 236.61 678.136C241.497 654.076 253.452 630.63 274.372 616.842C284.767 609.991 301.783 602.945 314.475 605.803C316.752 606.316 318.934 607.084 320.251 609.111L320.028 609.974C316.176 612.243 308.694 610.262 304.091 610.929C286.641 613.459 269.69 625.619 259.446 639.615C246.147 657.785 238.659 683.458 242.235 705.898C243.155 711.668 244.872 718.701 248.738 723.265C254.055 729.543 271.777 738.874 279.641 744.202Q300.289 758.238 320.454 772.959C319.003 774.137 316.974 775.043 315.709 776.258C308.417 770.956 300.849 766.016 293.485 760.809L240.608 723.094Z"/>
		<path fill="#FEFEFD" d="M377.935 147.374C382.926 147.086 387.96 149.445 391.656 152.743C394.441 155.227 396.18 158.559 396.286 162.318C396.419 167.068 394.156 171.484 390.802 174.747C385.929 179.487 378.659 182.014 371.896 181.861C365.831 181.725 359.607 178.54 355.555 174.064C352.584 170.782 350.866 166.623 351.267 162.158Q351.336 161.377 351.486 160.607Q351.635 159.837 351.864 159.087Q352.093 158.336 352.398 157.614Q352.703 156.891 353.082 156.204Q353.461 155.518 353.909 154.874Q354.357 154.23 354.869 153.636Q355.382 153.042 355.953 152.505Q356.524 151.967 357.148 151.492C360.67 148.807 366.197 147.233 370.615 147.806C372.898 148.277 375.634 147.67 377.935 147.374Z"/>
		<path fill="#20163E" d="M377.935 147.374C381.403 149.235 385.971 151.387 387.282 155.428C388.184 158.207 388.139 161.545 386.662 164.118C384.912 167.167 381.668 168.977 378.342 169.813C374.212 170.852 369.664 170.437 366 168.172C363.664 166.728 361.896 164.575 361.344 161.845C360.761 158.962 361.556 155.52 363.222 153.114C364.978 150.576 367.875 149.064 370.615 147.806C372.898 148.277 375.634 147.67 377.935 147.374Z"/>
		<path fill="#FEF0BA" d="M371.189 150.013C373.472 149.928 375.768 149.927 377.951 150.701C380.37 151.558 382.751 153.396 383.86 155.747C384.719 157.568 384.831 159.47 384.122 161.362C382.947 164.498 380.371 165.939 377.49 167.278C375.107 167.613 372.659 167.534 370.255 167.561C368.121 166.463 366.249 165.355 365.001 163.224C363.885 161.319 363.518 159.065 364.152 156.936C365.22 153.349 368.021 151.576 371.189 150.013Z"/>
		<path fill="#FEFEFD" d="M549.748 424.607C555.806 424.163 561.593 424.587 567.044 427.552C571.149 429.784 574.73 433.426 576.026 438.006Q576.22 438.689 576.343 439.388Q576.466 440.087 576.516 440.795Q576.566 441.503 576.542 442.213Q576.519 442.922 576.422 443.625Q576.326 444.328 576.157 445.018Q575.988 445.707 575.749 446.376Q575.509 447.044 575.202 447.684Q574.895 448.324 574.524 448.929C571.083 454.604 564.715 456.896 558.621 458.426C552.413 458.709 546.846 458.523 541.278 455.297C537.021 452.832 533.34 448.853 532.13 443.989Q531.955 443.288 531.855 442.572Q531.755 441.857 531.73 441.134Q531.706 440.412 531.757 439.691Q531.808 438.97 531.934 438.259Q532.061 437.547 532.261 436.853Q532.462 436.159 532.734 435.489Q533.006 434.82 533.347 434.182Q533.687 433.545 534.093 432.947C537.744 427.547 543.761 425.916 549.748 424.607Z"/>
		<path fill="#192053" d="M554.5 435.175C557.064 435.353 559.554 435.769 561.765 437.169C563.378 438.19 564.689 439.742 565.088 441.644C565.45 443.365 565.015 445.042 564.062 446.496C561.915 449.771 558.516 450.524 554.957 451.347C552.399 451.075 549.917 450.861 547.659 449.494C545.705 448.311 544.053 446.514 543.58 444.223C543.212 442.439 543.72 440.641 544.83 439.218C547.221 436.154 550.897 435.585 554.5 435.175Z"/>
		<path fill="#FEFEFD" d="M550.429 438.543C553.66 438.34 558.482 438.412 560.833 441.142C561.839 442.31 561.756 442.737 561.71 444.183C560.807 445.826 559.844 446.531 558.308 447.575C557.087 447.809 555.745 447.996 554.501 447.937C552.41 447.838 548.826 446.748 547.565 444.943C547.11 444.292 546.823 443.485 546.93 442.697C547.22 440.573 548.811 439.654 550.429 438.543Z"/>
		<path fill="#FEFEFD" d="M349.563 175.305C353.943 179.85 358.589 182.886 364.021 186.082C367.501 187.284 370.934 188.394 374.515 189.251C374.248 204.043 374.533 219.029 373.889 233.78C369.928 231.177 365.941 228.739 362.921 225.014Q356.148 220.267 349.577 215.245C349.153 201.957 349.438 188.597 349.563 175.305Z"/>
		<path fill="#F8838C" d="M364.021 186.082C367.501 187.284 370.934 188.394 374.515 189.251C374.248 204.043 374.533 219.029 373.889 233.78C369.928 231.177 365.941 228.739 362.921 225.014C365.481 219.109 364.109 193.619 364.021 186.082Z"/>
		<path fill="#D95560" d="M397.985 175.994C400.741 179.224 398.761 209.774 398.583 215.833Q387.311 224.213 376.234 232.85L375.328 232.883C374.492 231.006 375.489 194.235 375.495 189.501C383.81 185.787 390.953 181.859 397.985 175.994Z"/>
		<path fill="#FDBD4C" d="M403.615 185.062C415.981 193.273 429.586 201.102 440.235 211.515C437.877 213.332 432.94 216.261 431.448 218.625C430.052 219.258 427.53 220.678 426.9 222.085Q423.654 224.15 420.387 226.181C416.156 222.521 411.216 219.782 407.005 216.042C405.643 214.902 404.3 213.707 402.869 212.655Q402.997 198.852 403.615 185.062Z"/>
		<path fill="#F8E086" d="M781.271 516.082L782.069 516.27C783.714 519.201 782.482 558.761 782.411 565.593C779.173 563.313 775.819 561.184 772.507 559.013L763.55 553.809L763.492 518.254C769.707 518.175 775.235 517.578 781.271 516.082Z"/>
		<path fill="#334588" d="M663.243 158.566C668.151 150.056 674.955 143.152 680.9 135.416C684.687 130.487 687.976 125.09 692.011 120.356C692.949 119.255 693.756 118.424 695.033 117.745L695.808 118.125L696.179 119.996C695.236 128.083 693.014 158.957 687.808 163.669C685.856 165.436 682.104 165.258 679.626 165.339C677.731 163.215 675.93 161.073 673.656 159.34C672.926 158.45 672.104 157.273 671.011 156.823C668.73 155.883 665.37 157.729 663.243 158.566Z"/>
		<path fill="#6766A5" d="M663.243 158.566C668.151 150.056 674.955 143.152 680.9 135.416C684.687 130.487 687.976 125.09 692.011 120.356C692.949 119.255 693.756 118.424 695.033 117.745L695.808 118.125L696.179 119.996C692.261 124.127 675.599 153.593 673.656 159.34C672.926 158.45 672.104 157.273 671.011 156.823C668.73 155.883 665.37 157.729 663.243 158.566Z"/>
		<path fill="#FEF0BA" d="M325.413 201.651C331.652 197.232 337.875 192.639 344.374 188.613C344.98 193.714 347.354 209.756 344.634 213.338C344.195 213.917 344.165 213.813 343.453 214.129L340.488 216.157C335.09 218.11 331.226 219.318 328.611 224.802Q328.082 225.916 327.586 227.045C321.403 222.702 315.179 218.463 309.231 213.797C314.306 209.351 319.908 205.536 325.413 201.651Z"/>
		<path fill="#FDBD4C" d="M325.413 201.651C331.652 197.232 337.875 192.639 344.374 188.613C344.98 193.714 347.354 209.756 344.634 213.338C344.195 213.917 344.165 213.813 343.453 214.129C338.309 208.923 331.642 205.375 325.413 201.651Z"/>
		<path fill="#F79E9E" d="M297.318 510.971C299.614 506.903 315.258 497.151 319.876 494.17C320.326 500.123 320.607 506.074 320.985 512.03C321.127 516.196 321.09 520.462 321.641 524.595C320.518 526.349 319.426 527.256 317.375 527.792C308.262 530.171 297.994 524.747 290.334 520.411C291.258 519.162 292.251 518.272 293.445 517.284L293.841 516.248C294.865 514.308 295.515 512.5 297.433 511.297L297.318 510.971Z"/>
		<path fill="#D95560" d="M297.318 510.971C299.614 506.903 315.258 497.151 319.876 494.17C320.326 500.123 320.607 506.074 320.985 512.03C313.021 512.73 305.283 512.992 297.433 511.297L297.318 510.971Z"/>
		<path fill="#912D44" d="M293.445 517.284C298.242 522.337 303.862 524.4 310.721 524.597C314.353 524.702 318.014 524.403 321.641 524.595C320.518 526.349 319.426 527.256 317.375 527.792C308.262 530.171 297.994 524.747 290.334 520.411C291.258 519.162 292.251 518.272 293.445 517.284Z"/>
		<path fill="#2B6C9A" d="M205.264 374.278C206.583 374.58 207.507 375.077 208.618 375.849C213.67 379.356 218.275 384.108 223.078 388.034Q243.745 404.842 264.673 421.323C272.084 427.154 279.643 433.883 287.746 438.679C302.322 431.613 319.523 416.934 333.057 407.264C336.811 404.581 341.955 400.131 346.319 398.76C347.596 399.431 347.333 399.634 347.746 400.942C327.365 414.466 308.768 430.391 287.319 442.348C280.061 435.039 271.302 429.241 263.224 422.888C252.402 414.378 241.9 405.453 230.955 397.099C223.372 391.313 215.045 385.956 208.333 379.139C206.848 377.631 205.964 376.273 205.264 374.278Z"/>
		<path fill="#C06938" d="M792.032 509.416L792.428 509.751C794.685 514.969 793.122 563.034 792.847 572.274C791.668 572.428 790.313 571.015 789.336 570.319L785.941 568.039Q785.922 541.124 785.553 514.211Q788.81 511.837 792.032 509.416Z"/>
		<path fill="#DC8542" d="M771.217 475.681C774.033 474.076 776.589 472.264 779.123 470.25C784.678 479.25 788.56 490.815 785.843 501.417C784.767 505.616 782.358 509.315 778.487 511.412C773.267 514.24 767.271 513.994 761.525 513.924C767.437 510.467 775.088 507.165 776.951 499.9C778.928 492.196 774.397 482.528 771.217 475.681Z"/>
		<path fill="#FEFEFD" d="M561.518 307.001L587.404 306.92C585.964 311.568 583.928 315.995 581.992 320.451L579.551 325.044Q570.311 324.716 561.068 324.484C560.967 318.661 561.302 312.819 561.518 307.001Z"/>
		<path fill="#FEFEFD" d="M446.161 321.438C445.142 317.535 442.996 312.154 444.271 308.228C447.342 305.408 458.176 306.893 462.552 306.922C462.88 314.299 463.38 321.608 462.354 328.952C457.692 329.148 453.026 329.397 448.362 329.538C448.013 326.773 447.143 324.034 446.161 321.438Z"/>
		<path fill="#DAF5FC" d="M189.328 417.19C191.963 418.124 194.206 419.401 196.513 420.959C212.861 431.994 228.375 445.125 244.089 457.089L268.68 476.113C275.806 481.534 283.29 486.648 289.677 492.953L289.3 496.131C282.21 491.104 275.539 485.487 268.699 480.127L229.192 449.025Q219.037 440.924 208.783 432.948C202.171 427.86 195.39 422.939 189.328 417.19Z"/>
		<path fill="#FEFEFD" d="M328.877 267.777C335.239 271.094 341.187 274.655 343.58 281.914C344.186 283.75 344.529 285.599 344.781 287.512C342.288 290.234 340.646 293.161 339.139 296.511C336.393 293.015 333.42 291.049 329.104 289.945C328.429 287.511 326.634 285.066 325.245 282.977C326.345 277.916 327.254 272.698 328.877 267.777Z"/>
		<path fill="#2B6C9A" d="M284.061 428.701C284.537 429.152 285.116 429.784 285.674 430.155C286.245 430.534 286.847 430.977 287.549 430.821C290.877 430.085 294.927 426.731 297.796 424.779C304.648 420.118 340.084 393.185 344.994 392.042L345.626 392.457L345.41 393.485C339.112 399.723 331.198 404.794 323.954 409.869Q306.004 422.569 287.432 434.341C270.808 420.077 252.495 407.789 235.643 393.731L236.565 393.379C242.677 396.44 248.48 401.62 253.929 405.768L284.061 428.701Z"/>
		<path fill="#FDBD4C" d="M438.299 257.939C440.024 259.941 438.851 287.345 438.774 292.18C435.811 294.15 432.928 296.263 430.018 298.312L429.704 293.177L429.478 278.76C430.79 277.232 432.974 274.856 432.874 272.754L432.274 272.564C431.468 273.254 430.678 273.888 429.796 274.479C428.751 271.911 429.071 267.468 428.915 264.614C431.969 262.233 435.017 259.998 438.299 257.939Z"/>
		<path fill="#DAF5FC" d="M287.296 456.972C269.91 446.011 254.396 431.847 238.404 418.986C228.538 411.052 217.691 403.7 208.359 395.155C207.369 394.248 206.498 393.369 206.041 392.081C205.753 391.269 205.896 391.439 206.289 390.545C209.271 391.425 215.295 397.45 218.062 399.555C233.061 410.969 247.459 423.034 262.268 434.677C270.592 441.222 280.031 447.297 287.723 454.479L287.296 456.972Z"/>
		<path fill="#DC8542" d="M384.945 299.487L385.273 299.776C387.124 304.976 385.57 319.784 385.422 325.912C382.197 327.981 379.119 330.211 376.037 332.488C374.889 331.22 375.265 307.5 375.236 303.9C378.661 302.719 381.792 301.268 384.945 299.487Z"/>
		<path fill="#DAF5FC" d="M286.488 449.353C281.281 443.273 270.578 436.718 263.915 431.597C254.227 424.151 245.103 416.077 235.558 408.469C226.917 401.583 217.798 395.103 209.381 387.966C208.254 387.011 206.936 385.888 206.277 384.534C205.792 383.538 205.833 383.54 206.239 382.46C207.591 382.58 208.346 383.228 209.401 384.062C226.713 397.732 243.742 411.879 260.943 425.705C269.863 432.876 279.211 439.441 287.858 446.955L286.488 449.353Z"/>
		<path fill="#FDBD4C" d="M758.798 451.894C762.745 453.995 766.428 456.243 769.882 459.098Q774.962 464.294 779.123 470.25C776.589 472.264 774.033 474.076 771.217 475.681C765.691 469.03 760.442 464.469 752.595 460.771C753.766 459.844 754.961 458.917 756.061 457.905C758.127 456.005 758.703 454.695 758.798 451.894Z"/>
		<path fill="#2B6C9A" d="M287.858 446.955L288.667 446.532C298.054 441.571 343.614 406.348 348.344 406.134C348.599 406.746 348.988 407.128 348.664 407.779C346.823 411.476 292.255 448.495 287.649 449.707L286.488 449.353L287.858 446.955Z"/>
		<path fill="#2B6C9A" d="M351.059 410.769C348.04 414.388 344.797 417.599 341.182 420.625C333.556 427.009 295.522 455.566 288.187 457.223L287.296 456.972L287.723 454.479C309.945 443.365 330.147 424.474 351.059 410.769Z"/>
		<path fill="#F8E086" d="M749.505 449.427C752.715 450.045 755.706 450.833 758.798 451.894C758.703 454.695 758.127 456.005 756.061 457.905C754.961 458.917 753.766 459.844 752.595 460.771C751.099 460.243 749.622 459.833 748.051 459.59C742.225 458.689 738.191 461.7 733.807 465.007C734.871 462.562 735.941 460.106 737.255 457.783C740.176 452.616 744.059 450.915 749.505 449.427Z"/>
		<path fill="#2B6C9A" d="M287.82 462.477Q306.944 450.42 325.304 437.229C331.182 432.958 336.8 428.115 342.819 424.077C330.376 438.643 315.106 448.067 299.321 458.451C295.707 460.828 291.838 464.177 287.971 466.023L287.708 465.672C288.038 464.598 287.899 463.577 287.82 462.477Z"/>
		<path fill="#2B6C9A" d="M288.146 470.664Q312.015 454.73 335.121 437.708C334.158 439.505 333.201 441.46 331.833 442.985C328.139 447.104 323.175 450.18 318.632 453.274C308.913 459.892 297.979 466.155 288.989 473.686L287.865 473.784L288.146 470.664Z"/>
		<path fill="#75A2CA" d="M452.201 338.613C455.241 338.127 458.396 338.392 461.465 338.472C461.657 347.515 462.554 357.386 460.95 366.285L460.374 366.388C458.003 362.397 453.342 344.101 452.201 338.613Z"/>
		<path fill="#2B6C9A" d="M289.005 477.848C302.92 468.866 316.337 459.086 329.834 449.494C327.893 452.691 325.983 455.236 323.217 457.78C315.676 464.714 306.172 470.043 297.565 475.589C294.526 477.547 291.421 479.998 288.223 481.613L287.876 481.287L287.99 478.333L289.005 477.848Z"/>
		<path fill="#FDBD4C" d="M364.601 301.112C367.558 302.563 370.22 303.631 373.473 304.2Q373.797 319.417 373.893 334.637C371.647 332.755 365.718 305.574 364.601 301.112Z"/>
		<path fill="#FDBD4C" d="M309.087 263.219C313.039 265.393 317.966 267.488 320.924 270.96C323.551 274.044 323.573 276.649 323.315 280.453C318.177 278.863 313.072 275.125 308.474 272.355C308.485 269.242 308.571 266.294 309.087 263.219Z"/>
		<path fill="#5F3965" d="M467.675 564.299C470.745 562.009 477.644 554.973 481.173 555.28C482.148 556.377 482.114 557.133 482.381 558.554C481.748 561.014 480.639 563.018 478.388 564.351C477.814 564.69 477.831 564.665 477.307 564.875C474.768 566.482 472.486 568.19 470.192 570.13L467.675 564.299Z"/>
		<path fill="#472C5B" d="M482.381 558.554C481.748 561.014 480.639 563.018 478.388 564.351C477.814 564.69 477.831 564.665 477.307 564.875C476.65 563.695 475.663 562.237 475.374 560.932C475.148 559.913 475.248 559.905 475.873 559.019C477.951 558.63 479.912 559.006 481.899 558.67C482.062 558.642 482.22 558.593 482.381 558.554Z"/>
		<path fill="#2B6C9A" d="M289.677 492.953C299.552 485.64 309.25 478.05 320.699 473.341C310.562 481.618 300.435 489.243 289.3 496.131L289.677 492.953Z"/>
		<path fill="#D95560" d="M346.687 280.119C350.206 284.619 353.411 288.904 355.859 294.081C354.261 294.808 352.616 295.486 351.076 296.329C348.426 291.512 347.738 285.466 346.687 280.119Z"/>
		<path fill="#3FCEB5" d="M320.454 772.959L323.865 775.628C323.969 778.143 324.145 780.674 324.071 783.191C321.34 780.793 318.6 778.462 315.709 776.258C316.974 775.043 319.003 774.137 320.454 772.959Z"/>
		<path fill="#5F3965" d="M483.459 606.509C484.092 607.562 484.216 608.304 484.344 609.519C483.436 612.175 481.567 613.087 479.153 614.277C478.161 613.48 478.28 613.397 477.895 612.262C478.529 609.391 481.174 608.011 483.459 606.509Z"/>
	</g>
	<g>
		<path fill="#3FA5B0" d="M703.542 607.765C712.567 609.739 721.829 612.95 730.499 616.134L730.681 641.456C730.829 651.266 732.27 662.567 729.812 672.1C728.878 675.722 727.41 677.905 724.958 680.613C721.069 683.852 715.726 686.228 710.692 686.94C708.276 687.281 706.487 687.107 704.501 685.664C703.249 683.87 703.356 680.322 703.26 678.129C702.932 670.604 703.434 663.006 703.465 655.469L703.542 607.765Z"/>
		<path fill="#3FCEB5" d="M300.23 620.94C307.045 620.92 313.507 621.927 319.989 623.98C320.067 635.139 322.28 687.043 320.187 694.228L319.238 694.519C312.574 689.877 305.908 685.256 299.582 680.157C297.971 661.373 295.108 639.199 300.23 620.94Z"/>
		<path fill="#2B6C9A" d="M238.124 738.508C247.463 744.26 256.301 751.27 265.174 757.72Q294.352 779.369 323.947 800.446C325.676 809.997 328.838 818.965 332.514 827.912C346.125 861.038 368.888 888.168 398.273 908.509Q400.335 909.924 402.432 911.288Q404.529 912.651 406.658 913.963Q408.788 915.274 410.949 916.533Q413.111 917.792 415.302 918.997Q417.494 920.202 419.714 921.353Q421.935 922.503 424.183 923.599Q426.432 924.695 428.707 925.735Q430.981 926.775 433.281 927.758Q435.58 928.742 437.904 929.668Q440.227 930.595 442.572 931.464Q444.917 932.333 447.283 933.144Q449.649 933.955 452.034 934.708Q454.42 935.46 456.823 936.154Q459.226 936.847 461.645 937.481Q464.064 938.115 466.499 938.69Q468.933 939.264 471.381 939.778Q473.828 940.292 476.288 940.746Q478.748 941.2 481.218 941.592Q483.688 941.985 486.167 942.317Q488.646 942.649 491.132 942.92Q493.619 943.191 496.111 943.4Q498.603 943.609 501.1 943.757Q503.597 943.905 506.096 943.992Q508.596 944.078 511.097 944.103Q513.598 944.128 516.099 944.091Q518.6 944.054 521.099 943.955Q523.598 943.857 526.094 943.697Q528.59 943.537 531.081 943.315Q533.573 943.094 536.058 942.811Q538.543 942.528 541.02 942.184Q543.497 941.84 545.965 941.435Q548.434 941.031 550.891 940.565Q553.238 940.152 555.574 939.681Q557.911 939.21 560.234 938.681Q562.558 938.152 564.868 937.565Q567.177 936.978 569.472 936.334Q571.766 935.69 574.044 934.989Q576.322 934.288 578.582 933.53Q580.841 932.772 583.081 931.959Q585.321 931.145 587.54 930.276Q589.759 929.407 591.956 928.483Q594.153 927.559 596.326 926.58Q598.499 925.601 600.647 924.569Q602.795 923.537 604.916 922.451Q607.038 921.366 609.132 920.228Q611.225 919.09 613.29 917.9Q615.355 916.71 617.39 915.469Q619.425 914.228 621.428 912.937Q623.431 911.646 625.401 910.305Q627.372 908.964 629.308 907.575Q631.244 906.186 633.145 904.749Q635.047 903.312 636.911 901.828Q638.776 900.344 640.603 898.814Q642.431 897.284 644.219 895.709Q646.008 894.134 647.757 892.515Q649.505 890.896 651.213 889.234Q652.921 887.572 654.587 885.867Q656.253 884.163 657.876 882.418Q659.499 880.673 661.078 878.888Q662.658 877.103 664.192 875.28Q665.726 873.456 667.214 871.595Q668.702 869.733 670.144 867.835Q671.585 865.938 672.979 864.004Q674.373 862.071 675.718 860.104C693.809 833.814 703.911 807.351 702.596 774.96C729.697 780.174 752.202 775.741 775.278 760.139C781.959 755.622 788.192 749.918 793.132 743.532C802.05 750.486 813.657 754.318 821.691 762.088C827.749 767.948 831.519 775.798 831.451 784.31C831.377 793.557 826.969 801.519 820.361 807.731C809.934 817.533 796.644 825.037 784.795 833.017L736.348 866.321Q673.376 910.177 609.879 953.27C594.479 963.499 576.472 977.353 560.175 985.165C544.31 992.77 525.681 995.971 508.158 995.309C492.404 994.714 476.699 991.234 462.625 984.015C451.801 978.463 441.72 971.248 431.669 964.425L390.726 936.502Q319.585 888.409 248.999 839.505Q234.498 829.462 219.871 819.604C211.213 813.858 200.378 808.312 193.409 800.56C189.919 796.678 187.363 791.462 187.744 786.119C188.045 781.901 190.361 777.956 193.054 774.809C198.046 768.978 204.793 764.538 210.891 759.942C220.102 753.002 229.503 746.176 238.124 738.508Z"/>
	</g>
</svg>
