<?xml version="1.0" encoding="utf-8" ?>
<svg xmlns="http://www.w3.org/2000/svg" xmlns:xlink="http://www.w3.org/1999/xlink" width="1024" height="1024">
	<g>
		<path d="M602.136 198.03C611.416 166.941 622.15 136.081 632.389 105.286C634.743 98.2042 637.734 88.4839 643.655 83.4814C645.763 81.7008 648.452 80.2487 650.767 78.723C653.645 76.8266 656.564 74.7068 659.682 73.2263C662.932 71.6832 666.059 70.8604 669.498 72.2195C678.362 75.722 691.947 86.4944 700.586 92.2191C709.108 97.8664 718.793 103.036 726.517 109.713C728.627 111.537 730.203 113.687 731.234 116.289C735.551 127.175 723.137 151.771 718.747 162.625C737.72 172.709 758.238 180.309 775.819 192.827Q769.969 209.404 763.518 225.756C765.077 227.27 767.025 229.052 767.949 231.032C768.812 232.882 768.627 234.727 768.206 236.672C766.717 243.546 763.549 250.298 761.092 256.88L748.379 291.45C759.696 298.581 770.786 306.106 782.043 313.341C797.339 323.171 813.941 332.59 827.056 345.284C834.85 352.829 841.102 361.275 843.935 371.86C847.781 386.229 846.133 414.881 846.235 430.986L847.05 520.165C846.404 537.147 846.875 554.288 846.952 571.287C847.005 583.155 848.639 600.701 844.896 611.831C841.572 621.716 834.307 630.41 826.784 637.426C814.98 648.437 800.003 655.752 786.485 664.424Q744.246 691.847 701.594 718.623L563.822 806.421Q538.814 822.393 513.562 837.976C494.809 849.631 475.847 861.508 455.571 870.369C427.892 882.465 411.006 881.818 382.659 884.549C378.923 884.435 375.234 884.02 371.535 883.501C352.944 880.892 333.603 876.525 316.689 868.133C306.554 863.104 297.427 856.244 288.019 850.015L239.776 818.073L173.916 774.622C160.146 765.676 145.742 757.235 132.449 747.628C128.336 744.656 124.442 741.267 121.41 737.168C115.574 729.278 112.49 719.306 111.271 709.669C109.636 696.754 110.461 683.265 110.477 670.248L110.493 604.564L110.427 546.043C110.354 532.888 109.329 518.97 111.37 505.941C115.592 478.985 136.153 462.445 156.803 447.261C155.244 437.605 151.873 425.817 154.274 416.152C157.192 404.403 171.889 397.484 181.438 391.792C180.037 384.558 180.475 376.144 180.158 368.747C179.673 357.463 178.269 345.322 179.202 334.074C179.584 329.469 180.392 324.922 182.608 320.808C186.517 313.548 193.636 308.811 201.433 306.597C210.813 303.934 220.125 305.879 228.5 310.573C249.224 322.191 256.551 341.661 262.722 363.332C271.294 357.167 278.018 348.546 284.957 340.674C291.161 333.635 297.521 326.854 304.488 320.56C306.774 321.27 309.51 322.157 311.174 323.967C316.588 329.856 311.594 349.579 311.425 357.669L311.412 358.485C327.533 345.556 345.859 335.201 363.154 323.911L459.087 261.216C458.924 247.701 457.175 225.763 460.961 213.363C463.144 206.209 466.33 199.215 469.202 192.311C475.16 177.987 481.514 163.844 487.562 149.56Q493.627 134.998 499.546 120.376C501.848 114.742 503.964 108.898 506.835 103.53C507.829 101.672 508.824 100.522 510.735 99.5949C513.469 98.2678 516.828 98.1446 519.638 99.3195C522.287 100.427 523.52 102.663 524.818 105.082C529.891 114.548 533.06 125.256 536.92 135.255C545.683 157.957 554.009 180.943 563.219 203.454C566.102 201.71 568.998 199.889 572.011 198.378C582.619 193.058 591.289 194.389 602.136 198.03ZM214.5 395.476Q218.243 392.701 221.958 389.889C223.929 388.322 226.014 386.807 227.834 385.068C228.849 376.386 229.712 368.308 223.865 360.959C221.664 358.192 218.937 355.956 216.229 353.712C212.991 367.298 214.428 381.637 214.5 395.476Z"/>
		<path fill="#C8A66B" d="M789.779 452.421C791.395 454.163 793.19 456.07 794.141 458.265C793.406 459.343 792.648 460.302 792.224 461.545C790.597 464.595 788.58 467.9 789.691 471.465C790.873 475.259 795.093 476.936 792.772 481.467C791.197 484.541 788.326 486.923 786.836 490.04C786.924 490.186 787.009 490.334 787.098 490.479C789.127 493.752 794.305 496.763 793.292 500.988C792.324 505.029 785.677 508.914 788.292 513.569C790.031 516.664 793.671 517.542 792.832 521.78C792.065 525.654 786.066 530.797 788.603 534.793C790.161 537.246 793.142 538.276 792.577 541.722C791.931 545.672 785.875 550.142 788.474 554.226C790.028 556.67 794.092 558.317 793.743 561.719C793.269 566.33 785.641 570.104 788.456 575.178C790.617 579.073 794.261 580.054 792.822 585.509C791.736 589.621 786.926 592.49 789.195 597.126C790.265 599.311 792.434 601.11 794.232 602.692C792.349 607.305 787.626 613.599 789.694 618.657C790.46 620.532 792.118 621.979 793.571 623.323C791.393 627.937 787.911 633.636 789.991 638.87C790.669 640.574 792.136 641.953 793.378 643.263L490.661 835.979C481.508 842.886 470.227 848.822 459.431 852.719C446.838 859.448 434.129 863.199 420.047 865.419C390.106 871.158 360.459 867.618 331.511 858.903C332.34 842.305 331.654 825.389 331.632 808.75L331.505 721.412C331.452 702.678 331.038 684.016 331.625 665.282C337.965 667.154 344.299 669.353 350.727 670.883Q354.944 671.888 359.21 672.657Q363.476 673.426 367.778 673.957Q372.08 674.487 376.406 674.778Q380.731 675.069 385.065 675.119Q389.4 675.169 393.73 674.978Q398.061 674.787 402.374 674.356Q406.688 673.924 410.97 673.254Q415.253 672.583 419.492 671.676C436.523 668.726 450.82 663.057 465.975 655.021L469.959 652.182C475.288 647.587 483.314 643.869 489.545 640.496C501.445 633.362 512.977 625.362 524.659 617.858L594.517 573.492L789.779 452.421Z"/>
		<path fill="#786B5D" d="M786.836 490.04C786.924 490.186 787.009 490.334 787.098 490.479C789.127 493.752 794.305 496.763 793.292 500.988C792.324 505.029 785.677 508.914 788.292 513.569C790.031 516.664 793.671 517.542 792.832 521.78C792.065 525.654 786.066 530.797 788.603 534.793C790.161 537.246 793.142 538.276 792.577 541.722C791.931 545.672 785.875 550.142 788.474 554.226C790.028 556.67 794.092 558.317 793.743 561.719C793.269 566.33 785.641 570.104 788.456 575.178C790.617 579.073 794.261 580.054 792.822 585.509C791.736 589.621 786.926 592.49 789.195 597.126C790.265 599.311 792.434 601.11 794.232 602.692C792.349 607.305 787.626 613.599 789.694 618.657C790.46 620.532 792.118 621.979 793.571 623.323C791.393 627.937 787.911 633.636 789.991 638.87C790.669 640.574 792.136 641.953 793.378 643.263L490.661 835.979C489.92 827.833 490.383 819.315 490.421 811.127C490.812 805.943 489.609 801.002 490.421 795.791C490.543 798.453 490.478 801.152 490.489 803.818C500.779 793.357 510.515 782.325 520.448 771.528L571.326 716.61L707.997 572.956L757.687 520.202C767.319 509.9 776.012 499.172 786.836 490.04Z"/>
		<path fill="#C8A66B" d="M331.625 665.282C337.965 667.154 344.299 669.353 350.727 670.883Q354.944 671.888 359.21 672.657Q363.476 673.426 367.778 673.957Q372.08 674.487 376.406 674.778Q380.731 675.069 385.065 675.119Q389.4 675.169 393.73 674.978Q398.061 674.787 402.374 674.356Q406.688 673.924 410.97 673.254Q415.253 672.583 419.492 671.676C420.536 677.743 419.749 685.035 419.713 691.224L419.536 731.035Q419.28 798.229 420.047 865.419C390.106 871.158 360.459 867.618 331.511 858.903C332.34 842.305 331.654 825.389 331.632 808.75L331.505 721.412C331.452 702.678 331.038 684.016 331.625 665.282Z"/>
		<path fill="#786B5D" d="M465.975 655.021C466.994 677.13 466.911 699.37 466.905 721.5L466.91 780.673C466.822 793.311 466.136 805.947 466.354 818.587C466.418 822.264 465.814 828.318 467.6 831.464C466.17 835.905 465.503 840.537 464.187 845.009C462.748 847.623 460.629 850.029 459.431 852.719C446.838 859.448 434.129 863.199 420.047 865.419Q419.28 798.229 419.536 731.035L419.713 691.224C419.749 685.035 420.536 677.743 419.492 671.676C436.523 668.726 450.82 663.057 465.975 655.021Z"/>
		<path fill="#453D34" d="M489.961 804.688C490.006 806.85 490.206 808.977 490.421 811.127C490.383 819.315 489.92 827.833 490.661 835.979C481.508 842.886 470.227 848.822 459.431 852.719C460.629 850.029 462.748 847.623 464.187 845.009C465.503 840.537 466.17 835.905 467.6 831.464C468.279 830.299 469.101 829.246 469.899 828.161L470.026 827.421C475.857 822.047 484.218 811.2 489.961 804.688Z"/>
		<path fill="#55524F" d="M469.899 828.161C470.089 833.663 469.901 839.101 465.919 843.368Q465.111 844.25 464.187 845.009C465.503 840.537 466.17 835.905 467.6 831.464C468.279 830.299 469.101 829.246 469.899 828.161Z"/>
		<path fill="#55524F" d="M489.545 640.496Q489.441 654.324 489.946 668.143Q479.964 673.871 470.055 679.725C470.433 672.303 472.054 659.052 469.959 652.182C475.288 647.587 483.314 643.869 489.545 640.496Z"/>
		<path fill="#55524F" d="M470 803.555C473.591 801.111 486.225 791.665 489.801 791.627C490.572 792.901 490.406 794.351 490.421 795.791C489.609 801.002 490.812 805.943 490.421 811.127C490.206 808.977 490.006 806.85 489.961 804.688C484.218 811.2 475.857 822.047 470.026 827.421L470 803.555Z"/>
		<path fill="#55524F" d="M488.524 751.412L488.894 751.474C491.132 754.082 489.936 780.166 489.889 785.169C483.995 789.709 477.495 793.547 471.212 797.529L470.698 797.484C469.026 795.508 469.976 767.656 470.011 763.018C476.001 758.871 482.293 755.18 488.524 751.412Z"/>
		<path fill="#55524F" d="M488.705 711.445L489.438 712.06C491.03 721.09 489.879 735.702 489.798 745.274C483.729 749.779 477.158 753.645 470.704 757.564C468.44 753.731 469.958 728.86 470.038 723.13C476.193 719.137 482.478 715.326 488.705 711.445Z"/>
		<path fill="#55524F" d="M489.458 673.178C491.398 675.28 490.058 700.43 489.974 704.943C484.323 710.204 477.289 713.841 470.696 717.776C468.203 714.611 469.921 689.866 470.025 684.485Q479.645 678.666 489.458 673.178Z"/>
		<path fill="#E6E6E5" d="M123.784 534.691C132.86 541.991 142.333 547.867 152.488 553.512C158.168 556.593 166.043 560.017 170.528 564.643C181.87 571.677 192.308 580.035 203.469 587.329C228.047 603.393 253.148 618.759 277.553 635.062C283.316 638.28 288.805 641.785 294.214 645.567C306.118 653.156 318.445 660.13 331.625 665.282C331.038 684.016 331.452 702.678 331.505 721.412L331.632 808.75C331.654 825.389 332.34 842.305 331.511 858.903C318.087 854.224 305.996 847.211 294.704 838.649C288.608 835.634 282.32 831.234 276.815 827.256L171.017 756.96C164.784 753.169 158.652 749.313 152.77 744.986C145.862 740.624 138.267 737.379 132.652 731.22C127.572 725.648 125.114 718.194 124.102 710.829C122.894 702.04 123.544 692.67 123.609 683.81L123.612 646.012L123.483 577.692C123.446 563.392 123.038 548.971 123.784 534.691Z"/>
		<path fill="#C8A66B" d="M152.958 711.819C159.192 714.656 165.111 718.374 170.85 722.095C170.123 733.486 169.969 745.585 171.017 756.96C164.784 753.169 158.652 749.313 152.77 744.986C153.642 733.968 152.661 722.854 152.958 711.819Z"/>
		<path fill="#C8A66B" d="M277.553 635.062C283.316 638.28 288.805 641.785 294.214 645.567C294.083 657.441 295.171 669.317 293.852 681.162C288.532 677.273 283.184 673.732 277.496 670.413L277.553 635.062Z"/>
		<path fill="#C8A66B" d="M277.363 798.445Q286.054 803.779 294.479 809.523C294.46 819.12 293.884 829.109 294.704 838.649C288.608 835.634 282.32 831.234 276.815 827.256C279.276 819.056 277.667 807.023 277.363 798.445Z"/>
		<path fill="#C8A66B" d="M152.488 553.512C158.168 556.593 166.043 560.017 170.528 564.643C168.176 571.553 169.765 584.279 170.01 591.907C164.265 587.981 158.598 583.873 152.471 580.56L152.488 553.512Z"/>
		<path fill="#C8A66B" d="M153.06 667.24C158.831 670.85 165.424 674.417 170.536 678.904L170.487 717.815Q161.809 711.884 153.016 706.125L153.06 667.24Z"/>
		<path fill="#C8A66B" d="M152.601 625.32C158.482 628.754 164.399 632.338 169.937 636.303C170.836 648.696 170.148 661.297 169.911 673.711C164.121 670.15 158.459 666.349 152.755 662.65C151.638 650.403 152.441 637.618 152.601 625.32Z"/>
		<path fill="#C8A66B" d="M277.772 757.244C283.486 760.411 288.953 764.029 294.466 767.531C294.993 780.094 294.695 792.581 294.441 805.146C288.616 801.719 283.066 797.667 277.611 793.683Q277.237 775.461 277.772 757.244Z"/>
		<path fill="#C8A66B" d="M152.504 585.53C158.57 587.982 164.56 592.629 170.026 596.298L169.982 631.866C164.021 628.424 158.063 624.834 152.587 620.651C151.817 608.939 152.334 597.253 152.504 585.53Z"/>
		<path fill="#C8A66B" d="M277.556 675.061C281.661 676.621 290.608 682.365 293.59 685.39C296.052 692.532 294.514 713.194 294.372 722.109C288.719 718.798 283.292 714.798 277.742 711.275C276.672 699.403 277.447 686.983 277.556 675.061Z"/>
		<path fill="#C8A66B" d="M278.201 715.924C283.69 719.036 288.985 722.7 294.368 726.016C295.195 738.344 294.58 750.867 294.518 763.217L278.2 752.773C277.424 740.72 277.407 727.983 278.201 715.924Z"/>
		<path fill="#E6E6E5" d="M743.722 302.233C754.334 308.746 764.684 315.921 775.153 322.686C788.506 331.314 802.981 339.628 814.719 350.4C820.876 356.051 826.384 362.559 829.719 370.29C834.442 381.243 833.766 393.213 829.389 404.167C824.186 417.186 813.886 428.134 802.922 436.585C792.295 444.778 780.732 451.724 769.335 458.761L738.427 478.171L606.791 560.746L504.103 625.809L476.172 643.393C466.937 649.19 457.921 655.127 447.833 659.386C411.455 674.742 365.78 674.549 329.392 659.5C307.244 650.34 287.527 635.981 267.5 623.045Q219.848 592.697 173.576 560.283C161.313 551.761 147.084 544.195 136.03 534.231C131.119 529.805 128.325 524.719 125.832 518.662C124.534 512.771 124.085 507.479 125.528 501.568C129.681 484.549 144.231 470.889 158.699 462.134C161.267 480.081 159.005 502.46 171.677 516.827C178.949 525.07 188.589 531.659 197.456 538.082C227.424 559.792 259.691 578.476 290.868 598.379Q305.951 607.951 320.882 617.757C330.997 624.421 341.039 631.483 352.081 636.563C362.416 641.319 373.326 643.424 384.627 644.151C396.579 644.921 408.997 643.872 419.868 638.527C431.063 633.023 441.477 625.435 451.99 618.729L499.198 589.203L664.529 486.237C698.946 464.81 733.713 443.911 767.823 422.003C774.636 417.628 789.578 409.78 794.764 405.235C796.715 398.429 795.431 388.835 795.349 381.752Q795.147 368.254 795.315 354.756C777.333 341.246 756.196 331.405 737.164 319.36Q740.537 310.833 743.722 302.233Z"/>
		<path fill="#C8A66B" d="M545.882 238.056C552.951 232.618 557.491 227.578 559.088 218.424C562.367 234.775 561.929 252.325 562.058 268.965L562.53 302.658C562.591 314.476 563.833 326.938 561.947 338.643C559.81 351.909 553.718 365.259 549.247 377.941C545.307 389.116 541.842 401.657 536.388 412.152C533.818 420.056 529.271 434.817 525.379 441.556C525.018 442.604 525.185 442.812 524.181 443.389C517.855 441.382 501.594 428.863 494.969 424.646C490.173 422.453 485.983 419.136 481.816 415.953L471.054 409.398L471.006 382.34C474.634 380.167 478.088 378.08 481.454 375.502L481.948 374.22C478.161 372.404 474.458 370.399 470.736 368.454Q470.422 338.242 470.61 308.03Q470.228 264.505 471.194 220.988C473.718 226.698 477.175 231.529 482.109 235.403C494.134 244.845 510.155 247.583 525.012 245.743C532.49 244.051 539.104 241.637 545.882 238.056Z"/>
		<path fill="#755628" d="M545.882 238.056C552.951 232.618 557.491 227.578 559.088 218.424C562.367 234.775 561.929 252.325 562.058 268.965L562.53 302.658C562.591 314.476 563.833 326.938 561.947 338.643C559.81 351.909 553.718 365.259 549.247 377.941C545.307 389.116 541.842 401.657 536.388 412.152C535.696 409.395 536.22 405.96 536.173 403.091C535.995 392.097 536.097 381.114 536.029 370.121C535.804 333.598 534.955 297.113 535.007 260.577C538.206 258.163 541.483 255.826 544.277 252.937C545.21 249.787 547.22 240.73 545.882 238.056Z"/>
		<path fill="#786B5D" d="M482.546 258.054C487.302 260.028 491.315 262.709 495.473 265.711Q494.348 345.176 494.969 424.646C490.173 422.453 485.983 419.136 481.816 415.953L471.054 409.398L471.006 382.34C474.634 380.167 478.088 378.08 481.454 375.502L481.948 374.22C483.85 366.841 482.439 343.046 482.409 334.109L482.546 258.054Z"/>
		<path fill="#C8A66B" d="M481.454 375.502C483.376 380.647 482.467 408.941 481.816 415.953L471.054 409.398L471.006 382.34C474.634 380.167 478.088 378.08 481.454 375.502Z"/>
		<path fill="#786B5D" d="M545.882 238.056C547.22 240.73 545.21 249.787 544.277 252.937C541.483 255.826 538.206 258.163 535.007 260.577C534.955 297.113 535.804 333.598 536.029 370.121C536.097 381.114 535.995 392.097 536.173 403.091C536.22 405.96 535.696 409.395 536.388 412.152C533.818 420.056 529.271 434.817 525.379 441.556C523.888 436.049 524.881 427.975 524.911 422.185L525.019 389.35L525.012 245.743C532.49 244.051 539.104 241.637 545.882 238.056Z"/>
		<path fill="#394D53" d="M782.125 348.245C785.786 350.859 789.641 353.092 793.522 355.357C794.768 361.031 794.132 367.911 794.102 373.731Q794.085 389.134 793.775 404.533C778.485 412.488 764.395 422.857 749.704 431.894L628.922 506.454C617.647 513.457 606.32 520.388 595.136 527.535C587.667 532.308 580.297 537.63 572.492 541.82C561.023 534.483 549.298 527.178 538.315 519.134L525.417 510.891C530.954 506.634 537.003 503.395 542.918 499.739L571.074 481.981C619.205 451.013 668.59 422.007 716.482 390.648C719.044 389.581 721.932 387.43 724.134 385.707C732.135 381.261 739.815 375.769 747.588 370.908C759.083 363.72 771.845 357.027 782.125 348.245Z"/>
		<path fill="#E6E6E5" d="M782.125 348.245C785.786 350.859 789.641 353.092 793.522 355.357C785.023 362.954 774.221 367.958 764.653 374.071L683.285 425.508L574.647 495.714Q564.237 502.25 553.94 508.963C548.793 512.364 543.695 516.119 538.315 519.134L525.417 510.891C530.954 506.634 537.003 503.395 542.918 499.739L571.074 481.981C619.205 451.013 668.59 422.007 716.482 390.648C719.044 389.581 721.932 387.43 724.134 385.707C732.135 381.261 739.815 375.769 747.588 370.908C759.083 363.72 771.845 357.027 782.125 348.245Z"/>
		<path fill="#C8A66B" d="M637.268 129.671C642.395 132.064 647.219 135.844 651.911 139.014L677.029 156.133C661.321 193.352 647.659 231.403 633.617 269.272Q597.36 367.046 563.54 465.688C563.077 466.851 562.88 467.546 561.835 468.311C556.739 467.809 531.82 449.493 526.318 445.731C531.4 432.694 535.882 419.368 540.591 406.191Q556.897 360.54 572.683 314.706C584.782 280.087 598.012 245.861 609.888 211.167C619.179 184.022 627.259 156.585 637.268 129.671Z"/>
		<path d="M636.209 196.644C638.432 196.899 642.15 196.878 643.579 198.666L643.315 199.619C642.424 199.86 641.63 200.087 640.808 200.511L641.558 201.03L641.416 202.188L641.616 201.4C641.508 201.929 641.262 202.75 641.256 203.313C641.249 203.927 641.315 204.541 641.32 205.156L640.423 205.537C638.914 204.879 637.13 204.28 635.736 203.425C634.551 202.699 634.494 202.49 634.08 201.24C634.524 199.909 634.577 199.754 635.667 198.885C636.354 198.923 636.98 199.005 637.662 199.125L638.439 199.269L638.809 198.674C637.431 198.034 636.922 198.027 636.209 196.644Z"/>
		<path d="M584.582 340.314C586.186 341.112 589.299 344.136 589.828 345.905C590.271 347.388 589.171 348.531 588.467 349.77C586.185 348.123 583.647 346.738 582.659 343.98C582.904 342.125 583.427 341.736 584.582 340.314Z"/>
		<path d="M553.228 428.706C555.663 429.268 557.98 430.417 560.277 431.39L558.682 437.035C556.969 435.817 554.033 434.216 552.987 432.365C552.198 430.968 552.797 430.113 553.228 428.706Z"/>
		<path d="M595.757 309.195C597.455 309.762 600.609 310.396 601.848 311.636C602.317 312.105 602.151 312.531 602.155 313.141L601.366 313.926L601.375 315.255L601.007 315.714C598.447 315.335 596.865 315.079 595.266 312.936C594.943 311.31 595.254 310.744 595.757 309.195Z"/>
		<path d="M644.17 169.589C645.919 170.107 647.696 170.606 649.397 171.267C651.493 172.082 653.035 172.827 653.972 174.939C651.352 174.838 648.423 174.342 646.199 172.859C644.865 171.969 644.426 171.13 644.17 169.589Z"/>
		<path fill="#E6E6E5" d="M466.362 270.951C468.89 274.594 467.406 294.727 467.313 300.138C458.105 308.214 447.256 314.652 437.046 321.401L387.556 353.763C380.577 349.465 374.6 344.674 366.902 341.622C374.71 350.018 397.874 362.611 408.563 369.782L512.513 439.035L545.643 460.807C554.827 466.797 564.097 472.571 572.673 479.428L561.027 486.753C543.845 475.979 527.1 464.525 510.141 453.407Q465.304 424.384 420.905 394.695L389.39 373.66C383.383 369.701 376.644 366.338 371.445 361.326C365.803 364.792 359.638 367.524 353.768 370.599C345.621 374.867 337.608 379.425 329.562 383.882C324.488 380.357 319.519 377.002 313.846 374.508C317.96 378.214 323.128 380.471 327.213 384.085C329.13 385.782 329.903 388.315 331.921 389.989C342.933 399.127 356.312 406.477 368.456 414.049C399.092 435.209 431.495 454.246 463.14 473.873Q517.607 507.775 571.218 543.013C566.938 546.096 562.336 548.752 557.838 551.504L366.516 429.716C345.788 416.558 326.103 401.49 305.059 388.931Q308.905 380.056 311.878 370.851C318.8 367.457 324.933 362.823 331.318 358.547Q341.56 351.804 351.882 345.184C390.093 320.545 427.427 294.439 466.362 270.951Z"/>
		<path fill="#52A0BF" d="M606.422 457.247C608.866 448.25 612.334 439.555 615.57 430.821Q621.649 414.455 627.474 397.997Q642.816 354.105 659.923 310.871C666.268 294.699 672.627 278.378 679.761 262.544Q681.525 264.335 683.406 266.003Q685.287 267.67 687.276 269.208Q689.265 270.745 691.352 272.145Q693.44 273.545 695.617 274.802Q697.795 276.058 700.052 277.165Q702.309 278.272 704.635 279.225Q706.961 280.177 709.347 280.971Q711.732 281.765 714.165 282.396C721.276 284.145 728.35 285.978 735.666 286.626C730.964 301.068 724.965 314.926 719.569 329.108Q705.097 366.297 692.445 404.143C684.466 411.129 673.66 417.443 664.066 421.933C659.589 424.289 655.21 427.941 650.929 430.747C643.48 435.63 635.741 440.147 628.15 444.811C621.122 449.13 614.022 454.018 606.422 457.247Z"/>
		<path fill="#394D53" d="M714.165 282.396C721.276 284.145 728.35 285.978 735.666 286.626C730.964 301.068 724.965 314.926 719.569 329.108Q705.097 366.297 692.445 404.143C684.466 411.129 673.66 417.443 664.066 421.933C666.418 408.564 672.988 395.14 677.615 382.376C689.716 348.997 702.851 316.064 714.165 282.396Z"/>
		<path d="M650.525 355.436C652.97 355.687 656.15 356.713 658.233 358.055C659.115 358.622 659.207 358.694 659.454 359.736C658.788 359.91 658.131 360.088 657.471 360.282L658.549 362.503L658.032 363.451C656.04 362.866 653.666 362.101 652.222 360.568L652.403 359.9C653.253 359.657 654.064 359.395 654.947 359.304C655.097 359.288 655.248 359.286 655.398 359.277L654.522 358.906L654.91 358.838C653.39 357.944 652.159 357.042 650.895 355.805L650.525 355.436Z"/>
		<path d="M622.324 431.004C623.964 431.055 625.658 431.229 627.251 431.636C629.732 432.271 631.724 433.288 633.072 435.504C632.915 435.517 632.759 435.532 632.602 435.542C628.446 435.806 625.356 433.602 622.324 431.004Z"/>
		<path d="M641.484 382.59C643.225 382.513 645.336 382.697 646.979 383.293C649.087 384.058 649.974 385.199 650.919 387.166C649.519 387.076 648.327 386.837 646.986 386.403C644.639 385.643 642.642 384.865 641.484 382.59Z"/>
		<path fill="#9C9B9B" d="M303.982 391.36C306.521 391.567 309.028 393.342 311.137 394.68L499.454 515.256C518.475 527.513 536.951 540.746 556.282 552.499C543.143 560.002 530.553 568.374 517.771 576.458Q509.599 581.672 501.119 586.368C490.9 580.68 481.986 573.227 471.462 567.948C471.697 555.374 474.165 537.276 466.137 526.67C457.325 515.028 437.974 507.174 426.001 498.55C420.34 494.472 415.999 489.068 409.712 485.771C405.026 483.313 399.134 482.002 393.929 481.241C380.115 479.221 364.488 482.055 353.04 490.301C349.003 493.209 345.554 496.927 341.772 500.159C338.738 502.752 335.354 505.025 332.161 507.424Q331.942 478.254 332.419 449.088C332.525 440.075 333.467 430.592 332.594 421.64C332.258 418.19 331.434 413.964 329.328 411.168C323.131 402.943 310.287 399.205 304.573 392.14C304.368 391.887 304.179 391.62 303.982 391.36Z"/>
		<path fill="#595A5F" d="M163.019 420.838L163.427 421.611C164.264 423.213 164.666 425.231 165.832 426.615C171.015 432.762 180.148 437.147 186.901 441.398C194.795 446.367 202.603 451.478 210.433 456.546C215.746 459.984 221.227 463.216 226.192 467.153C227.262 470.049 232.422 471.931 235.136 473.194L235.984 473.582C240.609 474.319 244.2 474.643 248.838 473.683C252.188 473.278 255.448 472.676 258.75 471.984Q259.014 492.245 258.365 512.497C257.677 529.171 256.266 545.821 255.945 562.512C253.05 562.524 250.18 562.696 247.359 561.969C247.261 561.944 247.163 561.924 247.065 561.902C241.774 559.44 236.923 556.647 232.373 552.994C224.881 548.246 217.754 542.853 210.362 537.943C198.035 529.756 179.111 520.987 171.07 508.3C167.524 502.705 162.034 441.264 161.876 431.151C161.819 427.547 162.156 424.338 163.019 420.838Z"/>
		<path fill="#55524F" d="M248.838 473.683C252.188 473.278 255.448 472.676 258.75 471.984Q259.014 492.245 258.365 512.497C257.677 529.171 256.266 545.821 255.945 562.512C253.05 562.524 250.18 562.696 247.359 561.969C247.261 561.944 247.163 561.924 247.065 561.902C241.774 559.44 236.923 556.647 232.373 552.994C233.031 551.889 233.297 550.983 233.411 549.72C234.342 539.362 233.844 528.55 234.082 518.13C234.422 503.285 235.313 488.417 235.984 473.582C240.609 474.319 244.2 474.643 248.838 473.683Z"/>
		<path fill="#394D53" d="M248.838 473.683C252.188 473.278 255.448 472.676 258.75 471.984Q259.014 492.245 258.365 512.497C257.677 529.171 256.266 545.821 255.945 562.512C253.05 562.524 250.18 562.696 247.359 561.969C247.261 561.944 247.163 561.924 247.065 561.902C248.392 559.189 249.154 482.454 248.838 473.683Z"/>
		<path fill="#786B5D" d="M791.263 451.877C794.745 449.438 798.186 446.904 801.906 444.838Q802.114 459.856 801.947 474.875C811.674 468.027 822.308 459.91 833.496 455.724L833.49 557.068C833.496 569.072 835.04 597.085 832.418 607.389C830.939 613.203 825.981 618.685 821.852 622.838C815.819 628.908 808.709 633.773 801.524 638.368C799.384 640.145 797.358 641.65 794.925 643.021C793.723 641.626 792.411 640.022 791.73 638.302C789.802 633.436 792.77 627.952 794.548 623.436C793.126 621.847 791.525 620.213 790.855 618.137C789.203 613.019 793.366 606.836 795.598 602.368C794.557 601.405 793.507 600.442 792.523 599.42C786.118 592.762 794.502 589.288 794.461 582.525C794.446 580.189 793.84 579.1 792.195 577.464C791.477 576.749 790.641 576.036 790.073 575.187C786.107 569.268 794.794 566.33 795.145 561.904C795.409 558.56 790.64 554.407 788.425 552.217C798.64 534.623 788.809 540.702 790.036 531.234C790.545 527.299 795.089 523.505 794.195 519.491C793.508 516.407 789.257 514.739 789.128 511.562C788.943 506.996 795.137 504.023 794.581 499.234C794.196 495.924 790.238 492.986 787.978 490.833C791.693 486.797 793.874 482.48 795.353 477.248C794.065 475.795 792.49 474.239 791.567 472.526C790.25 470.083 790.807 467.129 791.592 464.614C791.865 463.743 792.115 463.035 792.205 462.116C792.223 461.927 792.217 461.736 792.224 461.545C792.648 460.302 793.406 459.343 794.141 458.265L794.613 458.162L795.05 457.448C794.638 455.419 792.563 453.464 791.263 451.877Z"/>
		<path fill="#453D34" d="M791.263 451.877C794.745 449.438 798.186 446.904 801.906 444.838Q802.114 459.856 801.947 474.875C801.139 494.29 803.263 514.518 801.903 533.757L802.016 622.587C801.998 625.714 800.542 636.515 801.524 638.368C799.384 640.145 797.358 641.65 794.925 643.021C793.723 641.626 792.411 640.022 791.73 638.302C789.802 633.436 792.77 627.952 794.548 623.436C793.126 621.847 791.525 620.213 790.855 618.137C789.203 613.019 793.366 606.836 795.598 602.368C794.557 601.405 793.507 600.442 792.523 599.42C786.118 592.762 794.502 589.288 794.461 582.525C794.446 580.189 793.84 579.1 792.195 577.464C791.477 576.749 790.641 576.036 790.073 575.187C786.107 569.268 794.794 566.33 795.145 561.904C795.409 558.56 790.64 554.407 788.425 552.217C798.64 534.623 788.809 540.702 790.036 531.234C790.545 527.299 795.089 523.505 794.195 519.491C793.508 516.407 789.257 514.739 789.128 511.562C788.943 506.996 795.137 504.023 794.581 499.234C794.196 495.924 790.238 492.986 787.978 490.833C791.693 486.797 793.874 482.48 795.353 477.248C794.065 475.795 792.49 474.239 791.567 472.526C790.25 470.083 790.807 467.129 791.592 464.614C791.865 463.743 792.115 463.035 792.205 462.116C792.223 461.927 792.217 461.736 792.224 461.545C792.648 460.302 793.406 459.343 794.141 458.265L794.613 458.162L795.05 457.448C794.638 455.419 792.563 453.464 791.263 451.877Z"/>
		<path fill="#55524F" d="M791.263 451.877C794.745 449.438 798.186 446.904 801.906 444.838Q802.114 459.856 801.947 474.875C801.139 494.29 803.263 514.518 801.903 533.757C801.077 527.892 801.537 521.322 801.525 515.377C801.499 501.608 801.802 487.765 801.288 474.008L800.817 473.705C800.334 474.996 799.776 475.696 798.895 476.722C797.926 477.163 797.261 477.436 796.195 477.34C795.914 477.314 795.633 477.279 795.353 477.248C794.065 475.795 792.49 474.239 791.567 472.526C790.25 470.083 790.807 467.129 791.592 464.614C791.865 463.743 792.115 463.035 792.205 462.116C792.223 461.927 792.217 461.736 792.224 461.545C792.648 460.302 793.406 459.343 794.141 458.265L794.613 458.162L795.05 457.448C794.638 455.419 792.563 453.464 791.263 451.877Z"/>
		<path fill="#532607" d="M690.575 161.491C697.742 157.866 704.546 153.529 711.753 150.012C706.72 164.442 700.632 178.495 695.588 192.928C689.16 211.321 683.877 230.039 677.8 248.529C675.768 254.71 673.458 260.767 671.45 266.958C670.507 269.865 669.071 272.638 668.743 275.7L669.378 276.432C670.811 278.668 670.723 280.203 670.165 282.778C669.754 284.673 668.964 285.763 667.525 287.007C666.414 287.245 666.134 287.103 665.036 286.75C664.363 288.364 663.843 289.755 663.604 291.492L664.034 291.743L665.569 290.259C666.175 291.276 666.037 292.057 665.782 293.182C665.107 296.153 663.31 299.201 661.966 301.922L660.883 301.819L660.842 301.626L660.314 301.491C659.038 303.451 657.151 307.676 657.37 309.994L657.66 310.331C657.954 312.072 657.838 313.242 657.196 314.899C655.083 320.348 652.263 325.532 650.137 330.99C640.54 355.616 631.967 380.761 622.942 405.61L610.748 439.231C608.178 446.358 605.832 453.73 602.679 460.619C600.818 461.745 598.971 462.939 597.035 463.932Q589.749 468.269 582.313 472.342C590.195 450.958 596.974 429.27 604.173 407.656L639.397 302.972C647.05 280.509 656.134 258.564 664.083 236.205C672.937 211.299 680.358 185.902 690.575 161.491Z"/>
		<path fill="#A35F18" d="M657.66 310.331C657.954 312.072 657.838 313.242 657.196 314.899C655.083 320.348 652.263 325.532 650.137 330.99C640.54 355.616 631.967 380.761 622.942 405.61L610.748 439.231C608.178 446.358 605.832 453.73 602.679 460.619C600.818 461.745 598.971 462.939 597.035 463.932C597.026 459.114 606.007 440.849 608.228 434.514C613.086 420.656 616.04 406.247 620.256 392.204C627.229 368.981 637.005 347.269 648.711 326.108C651.618 320.852 654.366 315.353 657.66 310.331Z"/>
		<path fill="#E6E6E5" d="M665.036 286.75C666.636 283.415 667.139 279.417 669.378 276.432C670.811 278.668 670.723 280.203 670.165 282.778C669.754 284.673 668.964 285.763 667.525 287.007C666.414 287.245 666.134 287.103 665.036 286.75Z"/>
		<path fill="#9C9B9B" d="M472.101 214.708C479.552 194.886 488.878 173.672 497.806 154.476C502.06 159.18 505.657 160.043 511.655 161.477C515.684 161.597 519.464 161.38 523.439 160.695C527.536 159.424 530.428 157.546 533.645 154.804Q540.013 172.89 547 190.746C550.039 198.547 554.21 206.499 555.731 214.761C556.399 218.386 556.382 221.636 554.811 225.032C551.212 232.809 542.3 238.226 534.48 240.958C531.545 241.984 528.535 242.727 525.496 243.365C519.718 243.644 513.876 243.994 508.113 243.337C501.869 241.909 495.559 240.194 489.839 237.251C479.936 232.155 475.426 225.11 472.101 214.708Z"/>
		<path fill="#E6E6E5" d="M472.101 214.708C479.552 194.886 488.878 173.672 497.806 154.476C502.06 159.18 505.657 160.043 511.655 161.477C511.299 171.69 510.339 239.752 508.674 242.962L508.113 243.337C501.869 241.909 495.559 240.194 489.839 237.251C479.936 232.155 475.426 225.11 472.101 214.708Z"/>
		<path fill="#C8A66B" d="M523.439 160.695C523.82 188.263 525.056 215.804 525.496 243.365C519.718 243.644 513.876 243.994 508.113 243.337L508.674 242.962C510.339 239.752 511.299 171.69 511.655 161.477C515.684 161.597 519.464 161.38 523.439 160.695Z"/>
		<path fill="#A35F18" d="M678.326 157.155C681.789 158.795 685.115 161.134 688.547 162.932C681.97 182.008 674.512 200.846 667.641 219.826Q647.74 274.763 629.04 330.121L597.739 422.567C592.709 437.447 588.501 452.93 582.596 467.462C581.085 471.18 579.054 475.844 575.14 477.479C571.435 474.7 567.437 472.294 563.531 469.809C569.568 455.927 573.901 441.058 578.675 426.704Q587.143 401.636 596.074 376.73Q617.405 316.59 639.646 256.779C652.06 223.365 664.472 190.008 678.326 157.155Z"/>
		<path fill="#595A5F" d="M468.856 547.948C470.445 550.984 469.491 598.085 469.482 605.521C464.136 609.871 457.815 613.386 452.003 617.111C440.012 624.795 427.39 634.216 414.031 639.22C408.665 641.23 403.519 641.932 397.826 642.108C396.586 632.901 396.246 607.682 397.798 599.062C398.22 596.721 399.224 595.731 400.974 594.186C407.082 588.794 414.772 584.689 421.512 580.058Q444.983 563.707 468.856 547.948Z"/>
		<path fill="#9C9B9B" d="M301.595 547.204C325.603 562.487 348.459 579.607 372.501 594.898C372.775 610.23 372.621 625.508 372.422 640.839C359.331 642.685 335.788 625.245 325.026 618.287L301.912 603.578Q301.302 575.393 301.595 547.204Z"/>
		<path fill="#EC4A38" d="M379.964 482.689C380.112 482.669 380.259 482.645 380.408 482.631C392.385 481.506 407.403 484.256 416.667 492.411C421.415 496.59 424.278 502.115 424.62 508.456C424.993 515.344 422.81 521.82 418.125 526.909C409.936 535.804 397.889 538.665 386.256 539.067C374.233 538.951 363.046 536.411 353.168 529.259C347.785 525.36 342.359 519.656 341.425 512.819C340.75 507.873 342.452 503.163 345.441 499.257C353.386 488.876 367.525 484.304 379.964 482.689Z"/>
		<path d="M384.185 496.154C388.005 495.729 392.383 496.296 395.854 497.961C399.274 499.601 402.229 502.459 403.328 506.165Q403.486 506.695 403.587 507.238Q403.689 507.781 403.734 508.332Q403.778 508.882 403.766 509.435Q403.753 509.987 403.683 510.535Q403.613 511.083 403.487 511.621Q403.36 512.159 403.178 512.681Q402.997 513.203 402.762 513.703Q402.527 514.203 402.241 514.676C399.504 519.262 394.782 520.813 389.911 522.007C385.17 522.121 380.885 521.847 376.69 519.332C373.413 517.366 370.704 514.219 369.875 510.424C369.243 507.53 369.807 504.565 371.563 502.164C374.544 498.088 379.468 496.867 384.185 496.154Z"/>
		<path fill="#1B6A46" d="M382.824 498.18C387.457 497.781 391.773 497.861 395.919 500.25C398.64 501.818 401.022 504.293 401.734 507.431C402.26 509.751 401.843 512.075 400.57 514.081C398.248 517.742 393.858 519.44 389.85 520.46C385.46 520.7 381.652 520.653 377.765 518.34C374.808 516.581 372.293 513.688 371.551 510.268C371.052 507.972 371.431 505.64 372.763 503.691C374.975 500.451 379.133 498.878 382.824 498.18Z"/>
		<path d="M384.56 500.116C386.974 500.12 389.946 500.275 392.207 501.168C394.913 502.237 397.389 504.236 398.437 507.015C399.105 508.788 399.005 510.719 398.115 512.396C396.373 515.675 392.866 516.763 389.553 517.756C386.338 518.098 383.189 517.999 380.257 516.473C377.644 515.112 375.393 512.857 374.682 509.926C374.215 508.003 374.524 506.057 375.646 504.42C377.707 501.411 381.239 500.801 384.56 500.116Z"/>
		<path fill="#9C9B9B" d="M303.394 394.449C312.408 399.953 327.821 407.789 330.428 418.998C331.092 421.853 330.554 423.929 328.914 426.354C327.035 429.131 324.38 431.425 321.707 433.417C313.631 439.432 304.396 444.343 295.799 449.592C285.984 455.584 276.399 462.153 266.017 467.138C260.433 469.82 254.049 472.426 247.896 473.387C239.288 474.733 233.259 471.256 226.192 467.153C221.227 463.216 215.746 459.984 210.433 456.546C202.603 451.478 194.795 446.367 186.901 441.398C180.148 437.147 171.015 432.762 165.832 426.615C164.666 425.231 164.264 423.213 163.427 421.611L163.019 420.838C165.598 412.808 174.6 408.547 181.586 404.956L187.479 401.956C187.705 405.917 188.013 409.895 187.978 413.863C185.765 415.225 183.571 416.635 181.278 417.859C189.033 422.767 196.912 427.496 204.562 432.565C218.436 441.76 236.3 456.248 252.649 460.037C262.579 455.084 271.45 448.482 280.815 442.594C286.444 439.054 292.804 435.989 297.977 431.832C300.106 430.121 303.022 427.452 303.754 424.701C304.25 422.841 303.684 420.648 302.532 419.146C300.886 416.999 298.018 415.691 295.648 414.518C297.782 407.63 299.936 400.818 303.394 394.449Z"/>
		<path fill="#FDFA4B" d="M681.113 261.239C685.788 247.374 694.226 218.483 701.426 206.987C701.52 206.837 701.622 206.691 701.714 206.539C701.723 206.524 701.723 206.506 701.728 206.489L702.388 206.203C701.711 208.195 700.679 210.371 701.317 212.471C703.067 218.224 711.929 222.55 716.819 225.185C721.72 227.628 726.648 230.231 731.865 231.935C740.405 234.625 749.008 236.187 757.994 236.038C752.491 252.76 746.328 269.27 740.92 286.013C732.074 284.669 723.421 283.755 714.812 281.135C710.147 278.812 704.853 277.563 700.089 275.269C692.921 271.237 686.77 267.245 681.113 261.239Z"/>
		<path fill="#A1831B" d="M731.865 231.935C740.405 234.625 749.008 236.187 757.994 236.038C752.491 252.76 746.328 269.27 740.92 286.013C732.074 284.669 723.421 283.755 714.812 281.135C721.335 265.039 726.066 248.289 731.865 231.935Z"/>
		<path fill="#C8A66B" d="M716.819 225.185C721.72 227.628 726.648 230.231 731.865 231.935C726.066 248.289 721.335 265.039 714.812 281.135C710.147 278.812 704.853 277.563 700.089 275.269C705.877 258.63 711.696 242.046 716.819 225.185Z"/>
		<path fill="#E6E6E5" d="M424.504 499.644C437.606 508.598 452.744 515.897 464.525 526.557C457.505 531.184 450.538 535.999 444.072 541.384C440.603 544.273 437.485 547.641 433.909 550.389C428.399 554.624 422.247 558.054 416.655 562.228C409.634 567.468 402.676 573.52 394.688 577.231C390.918 578.983 386.933 580.099 382.771 579.286C378.39 578.431 374.208 576.511 370.315 574.381C362.695 570.212 355.461 564.889 348.153 560.17C334.101 551.096 315.653 539.658 303.055 529.135C314.388 520.306 327.849 514.064 339.746 505.937C338.042 518.273 337.82 529.971 345.627 540.394C353.762 551.255 367.108 557.048 380.254 558.877C392.284 560.55 406.693 559.57 418.143 555.361C414.498 554.457 409.571 556.065 406.001 556.922C411.264 553.827 416.865 550.525 421.093 546.055C430.04 536.596 427.147 522.355 426.928 510.476C425.96 506.886 425.199 503.296 424.504 499.644Z"/>
		<path fill="#595A5F" d="M426.928 510.476C432.619 516.519 436.748 523.088 436.365 531.765C436.07 538.45 433.287 545.58 428.3 550.117C425.701 552.482 421.648 554.684 418.143 555.361C414.498 554.457 409.571 556.065 406.001 556.922C411.264 553.827 416.865 550.525 421.093 546.055C430.04 536.596 427.147 522.355 426.928 510.476Z"/>
		<path fill="#595A5F" d="M466.507 303.477C468.547 306.289 467.489 358.909 467.489 366.475C461.982 362.317 456.468 359.131 450.279 356.11C446.154 357.73 442.573 359.502 439.87 363.192C434.9 369.977 436.297 378.816 437.35 386.562C429.904 381.874 422.632 376.857 415.295 371.996C406.85 366.198 398.282 360.569 389.768 354.872Q428.461 329.658 466.507 303.477Z"/>
		<path fill="#E6E6E5" d="M373.501 365.191C378.919 368.284 384.116 372.502 389.314 376.027Q404.955 386.558 420.748 396.86L559.487 487.745L554.156 491.047L544.831 496.19C543.028 492.103 541.311 488.207 537.795 485.274C530.676 479.338 522.009 474.587 514.165 469.609Q490.441 454.563 466.561 439.767C435.674 420.445 405.727 399.094 373.667 381.754L373.501 365.191Z"/>
		<path fill="#595A5F" d="M193.726 423.653C192.034 404.294 191.779 385.131 191.151 365.729C190.819 355.44 189.228 343.703 190.707 333.5C191.169 330.314 192.821 326.998 194.804 324.483C197.96 320.48 202.488 318.194 207.528 317.648C216.365 316.69 222.763 321.356 229.277 326.529C242.109 333.674 248.304 349.856 252.123 363.248C258.513 385.655 254.364 404.926 244.477 425.61C241.236 433.659 238.764 441.986 235.393 449.993L230.932 447.582C236.444 425.407 245.462 403.18 245.528 379.989C245.566 366.663 240.601 354.363 231.138 344.938C225.71 339.532 217.604 333.536 209.629 333.728C205.855 333.819 202.301 335.205 199.789 338.084C197.055 341.217 196.402 345.287 196.062 349.293C195.261 358.735 196.674 368.477 197.184 377.919L199.577 427.95L193.726 423.653Z"/>
		<path fill="#394D53" d="M229.277 326.529C242.109 333.674 248.304 349.856 252.123 363.248C258.513 385.655 254.364 404.926 244.477 425.61C244.04 419.218 247.029 412.721 248.924 406.724C255.795 384.973 252.759 374.166 243.345 354.469C238.835 345.034 234.084 335.809 229.277 326.529Z"/>
		<path fill="#9C9B9B" d="M735.395 325.859L736.908 320.964C751.247 330.185 766.415 337.898 780.386 347.738C774.929 352.365 768.514 355.928 762.43 359.673C752.774 365.618 742.964 371.462 733.626 377.896C731.478 379.776 724.893 383.385 724.134 385.707C721.932 387.43 719.044 389.581 716.482 390.648C714.032 390.692 711.154 392.609 708.964 393.694C712.1 382.538 716.678 371.713 720.723 360.863C725.041 349.279 728.519 336.231 735.395 325.859Z"/>
		<path fill="#394D53" d="M708.964 393.694C712.1 382.538 716.678 371.713 720.723 360.863C725.041 349.279 728.519 336.231 735.395 325.859C735.761 338.484 734.682 351.465 734.128 364.097C733.93 368.622 733.357 373.38 733.626 377.896C731.478 379.776 724.893 383.385 724.134 385.707C721.932 387.43 719.044 389.581 716.482 390.648C714.032 390.692 711.154 392.609 708.964 393.694Z"/>
		<path fill="#9C9B9B" d="M592.48 221.535Q600.331 215.355 608.596 209.739C605.227 219.75 602.252 229.106 596.342 237.964L591.88 245.62C592.211 247.781 592.727 250.186 592.533 252.37C591.618 262.66 581.407 284.281 577.61 295.439C576.185 303.451 568.035 324.572 564.49 332.336Q564.4 286.828 565.031 241.325C568.78 238.949 572.368 236.253 575.996 233.693C581.733 230.015 587.105 225.714 592.48 221.535Z"/>
		<path fill="#786B5D" d="M565.031 241.325C568.78 238.949 572.368 236.253 575.996 233.693C577.581 244.276 575.09 291.154 577.61 295.439C576.185 303.451 568.035 324.572 564.49 332.336Q564.4 286.828 565.031 241.325Z"/>
		<path fill="#E6E6E5" d="M592.48 221.535Q600.331 215.355 608.596 209.739C605.227 219.75 602.252 229.106 596.342 237.964C593.134 233.581 593.09 226.783 592.48 221.535Z"/>
		<path fill="#52A0BF" d="M275.051 367.909L279.702 371.756C283.958 374.141 288.495 376.316 293.086 377.985C283.626 401.503 275.456 425.501 266.087 449.048C261.241 452.525 255.546 457.42 249.175 456.402C248.481 456.291 248.062 456.153 247.405 455.871C245.577 454.958 243.623 454.246 241.732 453.47C244.071 445.681 247.876 438.304 250.78 430.707L275.051 367.909Z"/>
		<path fill="#E6E6E5" d="M275.051 367.909L279.702 371.756C277.991 380.891 271.894 392.092 268.444 401.058L254.418 437.87C252.122 443.873 250.085 450.027 247.405 455.871C245.577 454.958 243.623 454.246 241.732 453.47C244.071 445.681 247.876 438.304 250.78 430.707L275.051 367.909Z"/>
		<path fill="#EC4A38" d="M404.87 411.868L410.352 406.315C427.028 416.341 443.204 427.111 459.562 437.636C466.309 441.977 473.829 445.643 480.198 450.471C478.286 451.371 476.352 452.24 474.474 453.208C470.943 456.797 468.285 460.019 465.978 464.5C463.786 463.545 462.214 462.293 460.414 460.77C454.41 454.898 446.022 450.59 438.898 446.18Q418.623 433.46 397.851 421.569C400.056 418.225 402.438 415.05 404.87 411.868Z"/>
		<path fill="#AE0C09" d="M404.87 411.868L410.352 406.315C427.028 416.341 443.204 427.111 459.562 437.636C466.309 441.977 473.829 445.643 480.198 450.471C478.286 451.371 476.352 452.24 474.474 453.208C469.786 448.199 462.375 444.783 456.594 441.132C440.161 430.754 423.331 418.362 404.87 411.868Z"/>
		<path fill="#C05876" d="M647.011 99.6074C661.304 106.919 674.228 116.79 687.095 126.306C683.558 135.329 680.91 144.65 678.027 153.896C664.289 146.209 651.237 136.9 638.124 128.203Q642.695 113.945 647.011 99.6074Z"/>
		<path fill="#C8A66B" d="M667.178 83.9032C676.733 86.9488 702.012 104.108 709.575 111.132C712.652 113.991 714.885 117.076 717.086 120.634Q707.157 123.751 697.108 126.46C695.137 126.895 693.54 127.078 691.648 126.226C683.186 122.413 675.182 115.247 667.463 110.043C662.199 106.493 656.511 103.478 651.383 99.7425C650.003 98.7371 648.756 98.0231 648.101 96.411C649.341 91.5797 662.389 87.7041 666.6 84.366L667.178 83.9032Z"/>
		<path fill="#8B2033" d="M340.551 516.908C345.206 523.894 350.271 530.001 357.517 534.411C369.322 541.597 384.7 543.33 398.005 539.934C410.38 536.776 418.453 530.754 424.93 519.828C425.714 525.568 425.516 530.618 424.377 536.288C423.017 540.445 421.177 543.629 418.114 546.735C410.445 554.51 399.316 557.524 388.662 557.458C374.881 557.373 359.983 553.417 350.131 543.27C342.881 535.804 340.322 527.111 340.551 516.908Z"/>
		<path fill="#27AE83" d="M480.127 450.937Q498.432 462.252 516.312 474.226C522.177 478.098 528.766 481.818 534.13 486.341C536.571 488.4 540.447 491.866 540.977 495.085C541.17 496.258 541.162 497.455 540.397 498.44C539.319 499.828 537.26 500.688 535.745 501.488C535.249 501.743 534.799 501.998 534.257 502.159C529.95 503.436 476.132 468.908 470.008 464.622L469.162 463.702C469.438 460.911 472.011 458.493 473.78 456.456C475.821 454.459 477.776 452.575 480.127 450.937Z"/>
		<path fill="#1B6A46" d="M480.127 450.937Q498.432 462.252 516.312 474.226C522.177 478.098 528.766 481.818 534.13 486.341C536.571 488.4 540.447 491.866 540.977 495.085C541.17 496.258 541.162 497.455 540.397 498.44C539.319 499.828 537.26 500.688 535.745 501.488C535.646 500.822 535.551 500.157 535.382 499.504C534.589 496.432 531.638 493.809 529.304 491.797C523.105 486.453 515.801 482.306 509.005 477.753C499.112 471.124 489.657 464.163 479.22 458.356L473.78 456.456C475.821 454.459 477.776 452.575 480.127 450.937Z"/>
		<path fill="#139874" d="M473.78 456.456L479.22 458.356C476.296 460.278 472.143 461.861 470.008 464.622L469.162 463.702C469.438 460.911 472.011 458.493 473.78 456.456Z"/>
		<path fill="#394D53" d="M694.365 402.899C703.578 374.122 714.45 345.841 725.379 317.683C728.731 309.048 733.457 294.279 737.729 286.903C739.195 286.553 740.199 286.943 741.631 287.284C743.231 288.218 744.858 289.095 746.28 290.292C745.766 292.608 745.262 294.94 744.539 297.201C740.154 310.923 733.351 324.205 728.116 337.657Q721.344 355.315 714.794 373.056C712.462 379.472 710.389 388.765 706.74 394.314C704.106 398.321 698.474 400.763 694.365 402.899Z"/>
		<path fill="#394D53" d="M396.793 578.6C404.951 573.908 412.144 567.739 419.781 562.275C428.797 555.825 438.5 550.364 447.642 544.1C454.159 539.635 460.024 534.149 466.645 529.862C467.952 534.248 468.8 538.545 469.161 543.111C456.155 554.084 441.614 563.525 427.472 572.974C417.935 579.346 408.246 586.218 398.189 591.7C398.236 587.989 398.577 584.093 396.968 580.646L396.793 578.6Z"/>
		<path fill="#9C9B9B" d="M833.956 410.875C832.865 425.826 833.405 440.752 833.496 455.724C822.308 459.91 811.674 468.027 801.947 474.875Q802.114 459.856 801.906 444.838C815.435 433.868 824.291 425.803 833.956 410.875Z"/>
		<path fill="#FDFA4B" d="M372.6 383.412C381.758 385.406 400.634 399.695 408.982 405.368C403.749 409.399 400.88 414.545 396.606 419.348C395.695 420.371 395.642 420.358 394.332 420.435C387.331 417.141 363.328 401.233 359.212 400.719C358.307 400.606 357.725 400.476 356.884 400.059C356.419 398.927 356.447 397.975 356.838 396.825C358.778 391.133 367.54 386.037 372.6 383.412Z"/>
		<path fill="#450423" d="M693.93 129.58C697.798 127.921 714.169 121.868 717.69 123.061C718.813 123.441 719.454 124.252 719.772 125.369C721.253 130.585 714.963 143.217 712.551 147.904C705.523 151.65 697.124 157.336 689.215 158.399C688.732 159.113 688.497 159.21 687.758 159.605C684.366 159.586 681.702 157.049 679.098 155.128C682.224 145.796 684.296 136.251 688.173 127.158C690.033 128.119 691.978 128.831 693.93 129.58Z"/>
		<path fill="#8B2033" d="M688.173 127.158C690.033 128.119 691.978 128.831 693.93 129.58C695.268 130.177 696.788 130.604 697.572 131.915C697.329 139.688 691.971 150.99 689.215 158.399C688.732 159.113 688.497 159.21 687.758 159.605C684.366 159.586 681.702 157.049 679.098 155.128C682.224 145.796 684.296 136.251 688.173 127.158Z"/>
		<path fill="#595A5F" d="M374.915 596.191C377.354 597.043 379.897 597.622 382.396 598.274C385.099 598.375 387.813 598.532 390.517 598.535C391.94 598.483 393.389 598.215 394.628 599.04C395.416 602.521 395.364 638.007 394.862 641.482C394.045 642.502 393.867 642.426 392.497 642.535C391.862 642.586 391.166 642.531 390.534 642.513C387.691 642.5 384.863 642.296 382.027 642.107C379.692 642.013 377.358 641.746 375.032 641.53Q374.731 618.861 374.915 596.191Z"/>
		<path fill="#9C9B9B" d="M374.915 596.191C377.354 597.043 379.897 597.622 382.396 598.274C383.954 612.117 381.804 627.9 382.027 642.107C379.692 642.013 377.358 641.746 375.032 641.53Q374.731 618.861 374.915 596.191Z"/>
		<path fill="#394D53" d="M390.517 598.535C391.94 598.483 393.389 598.215 394.628 599.04C395.416 602.521 395.364 638.007 394.862 641.482C394.045 642.502 393.867 642.426 392.497 642.535C391.862 642.586 391.166 642.531 390.534 642.513C390.766 635.644 392.238 603.146 390.517 598.535Z"/>
		<path fill="#9C9B9B" d="M302.523 530.711C310.074 535.448 317.219 540.879 324.52 545.991C332.687 551.709 341.04 557.159 349.239 562.833C356.916 568.146 364.565 574.084 372.987 578.149C381.867 582.435 387.701 581.771 396.793 578.6L396.968 580.646C390.994 583.125 385.887 583.011 379.577 582.386Q379.054 586.683 378.378 590.958C362.573 583.233 347.996 571.715 333.514 561.742C323.109 554.576 312.173 547.996 302.245 540.182C302.067 537.031 302.35 533.859 302.523 530.711Z"/>
		<path fill="#595A5F" d="M513.838 106.949C514.993 109.26 515.895 111.433 516.421 113.978C517.506 119.219 521.896 154.36 520.91 158.125C520.763 158.688 520.688 158.746 520.416 159.169C517.052 160.397 511.898 159.207 508.458 158.362C508.303 158.328 508.147 158.3 507.993 158.261C505.589 157.655 501.458 156.415 500.37 153.895C498.178 148.818 509.755 120.85 511.769 114.322L513.838 106.949Z"/>
		<path fill="#394D53" d="M508.458 158.362C508.303 158.328 508.147 158.3 507.993 158.261C505.589 157.655 501.458 156.415 500.37 153.895C498.178 148.818 509.755 120.85 511.769 114.322C515.153 125.649 508.423 145.507 508.458 158.362Z"/>
		<path fill="#AE0C09" d="M397.053 422.815C407.655 428.247 454.257 460.496 460.414 460.77C462.214 462.293 463.786 463.545 465.978 464.5C465.061 467.106 464.382 469.235 464.783 472.025C464.807 472.193 464.836 472.36 464.863 472.528L464.467 472.702C454.949 468.176 445.98 461.973 437.037 456.373C422.882 447.508 408.595 438.653 394.957 429.008L397.053 422.815Z"/>
		<path fill="#E6E6E5" d="M583.382 205.417C587.658 205.349 592.904 207.559 597.048 208.677L597.131 209.166L595.771 210.356C595.444 211.471 595.437 211.917 595.809 213.019C597.447 213.515 598.405 212.519 600.063 212.754C597.901 217.045 581.851 227.409 577.555 230.452L565.646 238.815C565.806 231.42 565.594 224.02 565.448 216.626C571.368 212.776 577.253 208.932 583.382 205.417Z"/>
		<path fill="#E6E6E5" d="M291.379 345.361C295.215 348.194 298.956 349.473 303.445 350.867C303.669 360.022 302.682 368.857 300.752 377.803C297.781 377.126 294.894 376.308 291.981 375.419C288.335 373.975 283.976 372.662 280.859 370.274C279.071 368.904 277.861 367.275 277.695 364.966C277.274 359.088 287.48 349.811 291.379 345.361Z"/>
		<path fill="#52A0BF" d="M241.775 369.262C246.137 392.245 236.449 424.6 228.61 446.447L221.572 442.268C229.156 419.115 238.091 394.972 236.666 370.21C238.438 370.118 240.059 369.694 241.775 369.262Z"/>
		<path fill="#16403E" d="M467.444 465.166C485.098 476.383 502.356 489.129 520.586 499.292C523.581 500.962 528.27 502.468 530.506 504.967C530.002 506.299 529.083 506.63 527.947 507.43C526.559 508.289 525.07 509.035 523.64 509.824C515.103 503.84 468.869 476.895 466.393 472.209C465.366 470.265 466.818 467.082 467.444 465.166Z"/>
		<path fill="#9C9B9B" d="M200.323 352.293C200.716 350.527 201.076 348.754 202.067 347.21C203.787 344.531 206.376 343.687 209.361 343.141C207.304 345.469 205.653 347.402 204.779 350.473C202.328 359.077 204.734 373.789 205.151 383.026C205.36 387.654 205.272 392.302 205.17 396.933C206.013 408.599 205.962 420.342 206.93 431.99C205.245 430.986 203.439 429.649 201.647 428.892C200.991 427.535 200.768 426.257 200.622 424.769C199.474 413.022 199.63 401.128 199.059 389.344C198.477 377.358 195.812 359.744 197.95 348.408C197.981 350.212 197.803 352.251 198.608 353.893L199.301 353.785L200.323 352.293Z"/>
		<path fill="#65737E" d="M200.323 352.293C200.716 350.527 201.076 348.754 202.067 347.21C203.787 344.531 206.376 343.687 209.361 343.141C207.304 345.469 205.653 347.402 204.779 350.473C202.328 359.077 204.734 373.789 205.151 383.026C205.36 387.654 205.272 392.302 205.17 396.933C204.345 400.301 203.831 405.281 201.978 408.176C200.696 400.515 201.407 393.188 201.537 385.477C201.692 376.268 201.463 361.123 200.323 352.293Z"/>
		<path fill="#786B5D" d="M205.17 396.933C206.013 408.599 205.962 420.342 206.93 431.99C205.245 430.986 203.439 429.649 201.647 428.892C204.601 425.159 202.383 412.758 201.978 408.176C203.831 405.281 204.345 400.301 205.17 396.933Z"/>
		<path fill="#786B5D" d="M724.436 174.227C727.731 175.802 730.587 178.602 734.008 180.286C729.933 193.819 725.466 208.458 718.949 220.987L718.303 221.776C715.58 221.835 712.431 218.558 710.394 216.865C714.164 202.359 719.354 188.312 724.436 174.227Z"/>
		<path fill="#ED992B" d="M334.049 384.242C339.125 382.101 353.072 373.089 357.805 373.721L357.987 374.537C357.158 375.332 356.385 376.148 355.62 377.006L355.982 378.2C361.318 377.707 365.614 379.577 370.306 381.801C364.269 385.252 357.423 389.319 354.382 395.889C354.569 397.682 354.724 398.873 353.846 400.461C352.955 400.746 352.771 400.935 351.817 400.697C348.575 399.889 345.262 396.234 343.649 393.465C343 394.158 343.416 393.885 342.33 394.161C339.24 392.689 334.641 390.227 332.755 387.292C332.129 386.32 332.232 386.129 332.492 385.08L334.049 384.242Z"/>
		<path fill="#A1831B" d="M334.049 384.242C339.125 382.101 353.072 373.089 357.805 373.721L357.987 374.537C357.158 375.332 356.385 376.148 355.62 377.006L355.982 378.2C354.509 382.833 345.897 383.052 343.586 388.406L343.995 390.258L343.649 393.465C343 394.158 343.416 393.885 342.33 394.161C339.24 392.689 334.641 390.227 332.755 387.292C332.129 386.32 332.232 386.129 332.492 385.08L334.049 384.242Z"/>
		<path fill="#755628" d="M343.649 393.465C343 394.158 343.416 393.885 342.33 394.161C339.24 392.689 334.641 390.227 332.755 387.292C332.129 386.32 332.232 386.129 332.492 385.08L334.049 384.242C336.678 385.89 339.358 387.838 342.263 388.928C342.668 388.78 343.23 388.641 343.586 388.406L343.995 390.258L343.649 393.465Z"/>
		<path fill="#E3830D" d="M343.995 390.258L344.288 390.578C345.199 391.586 345.968 392.608 346.749 393.719C348.047 395.565 348.892 396.714 351.199 397.145C352.494 396.866 353.263 396.653 354.382 395.889C354.569 397.682 354.724 398.873 353.846 400.461C352.955 400.746 352.771 400.935 351.817 400.697C348.575 399.889 345.262 396.234 343.649 393.465L343.995 390.258Z"/>
		<path fill="#A1831B" d="M448.885 360.071C454.59 362.102 465.419 365.707 468.853 371.024L469.074 373.243C469.497 375.612 470.064 377.775 468.59 379.904C466.088 383.519 454.953 385.465 450.255 387.879L447.681 382.725C446.68 378.885 445.688 375.349 447.258 371.524C445.923 368.675 447.028 365.101 448.002 362.252C448.258 361.503 448.565 360.794 448.885 360.071Z"/>
		<path fill="#755628" d="M469.074 373.243C469.497 375.612 470.064 377.775 468.59 379.904C466.088 383.519 454.953 385.465 450.255 387.879L447.681 382.725C450.04 381.741 451.947 380.483 454.014 379.019C456.05 379.58 458.056 380.093 460.166 380.279C462.813 380.514 465.61 380.294 467.618 378.366C469.256 376.793 469.042 375.341 469.074 373.243Z"/>
		<path fill="#A35F18" d="M447.681 382.725C446.68 378.885 445.688 375.349 447.258 371.524C447.777 373.953 448.205 375.63 450.364 377.104C451.489 377.872 452.784 378.438 454.014 379.019C451.947 380.483 450.04 381.741 447.681 382.725Z"/>
		<path fill="#52A0BF" d="M295.121 378.866C296.738 379.131 298.158 379.363 299.65 380.06C299.723 381.84 282.412 425.112 280.529 430.558C279.341 433.993 278.44 437.419 277.696 440.976L272.876 444.571C271.728 445.357 271.108 446.076 269.684 446.113C269.205 443.174 292.27 385.717 295.121 378.866Z"/>
		<path fill="#E6E6E5" d="M197.95 348.408C198.458 344.895 199.567 340.525 202.496 338.213C205.217 336.066 208.873 335.906 212.158 336.492C221.137 338.096 230.454 346.111 235.436 353.491C238.641 358.238 240.182 363.826 241.775 369.262C240.059 369.694 238.438 370.118 236.666 370.21C235.441 363.809 232.762 357.654 228.518 352.669C223.288 346.526 217.247 343.824 209.361 343.141C206.376 343.687 203.787 344.531 202.067 347.21C201.076 348.754 200.716 350.527 200.323 352.293L199.301 353.785L198.608 353.893C197.803 352.251 197.981 350.212 197.95 348.408Z"/>
		<path fill="#16403E" d="M759.806 236.244L766.902 234.16Q757.846 262.687 746.28 290.292C744.858 289.095 743.231 288.218 741.631 287.284C747.272 279.147 756.752 247.07 759.806 236.244Z"/>
		<path fill="#FDFA4B" d="M355.795 402.459C357.49 402.463 359.233 402.411 360.804 403.148C365.8 405.491 370.744 409.11 375.497 411.985C381.717 415.748 388.087 419.106 394.568 422.396C395.043 423.775 394.26 425.527 393.886 426.891C393.506 427.279 393.805 427.013 392.809 427.422C385.316 424.674 361.267 408.491 355.795 402.459Z"/>
		<path fill="#595A5F" d="M466.571 383.985C469.004 387.35 467.754 402.377 467.625 406.995L462.547 403.578C461.103 402.753 459.398 401.817 458.305 400.55C457.099 399.151 456.53 397.184 456.837 395.358C457.656 390.497 462.852 386.734 466.571 383.985Z"/>
		<path fill="#532607" d="M443.288 363.364C443.869 364.029 443.076 378.789 444.331 383.139C446.362 390.175 448.888 390.027 452.739 395.142L452.429 395.847L450.761 395.712C444.756 391.266 440.288 385.77 439.169 378.14C438.317 372.322 439.826 367.928 443.288 363.364Z"/>
		<path fill="#595A5F" d="M369.438 365.414C369.545 365.503 369.664 365.578 369.758 365.681C372.269 368.435 371.444 377.09 371.413 380.833L367.683 378.532C366.021 377.684 363.876 376.837 362.813 375.25C362.135 374.238 361.888 373.098 362.281 371.923C363.277 368.949 366.947 367.015 369.438 365.414Z"/>
		<path fill="#E6E6E5" d="M680.247 246.056C681.454 246.485 682.572 246.966 683.725 247.517C684.546 251.036 679.422 259.97 677.74 263.271C676.548 263.358 676.529 263.394 675.552 262.719C674.139 258.468 678.546 250.153 680.247 246.056Z"/>
		<path fill="#ED992B" d="M470.478 370.179C473.282 371.055 476.358 371.841 478.366 374.111L478.295 375.147C476.022 375.695 473.166 376.837 471.027 375.715C470.095 373.962 470.39 372.098 470.478 370.179Z"/>
		<path fill="#E6E6E5" d="M673.566 265.892C674.042 266.316 674.428 266.841 674.837 267.33C675.126 270.827 673.124 273.912 671.567 276.912C671.076 276.456 670.495 275.96 670.288 275.293C669.434 272.544 672.239 268.156 673.566 265.892Z"/>
		<path fill="#532607" d="M457.925 386.044L458.284 386.694C457.18 388.841 454.981 391.344 452.991 392.711C452.126 391.414 451.448 390.869 451.52 389.284C452.82 387.506 455.9 386.805 457.925 386.044Z"/>
		<path fill="#9C9B9B" d="M685.629 232.779C687.097 233.126 687.516 233.054 688.522 234.231C688.587 235.562 687.99 236.335 687.318 237.414C687.076 237.39 686.834 237.371 686.592 237.342C685.146 237.173 684.29 237.183 683.351 236.035C683.554 234.545 684.608 233.775 685.629 232.779Z"/>
		<path d="M896.794 629.881C907.397 633.217 916.422 639.521 924.558 646.936C933.404 656.949 937.397 667.255 936.57 680.69C936.11 688.146 934.227 694.581 928.385 699.677C919.852 707.118 905.438 715.178 895.603 721.598Q866.614 740.434 838.223 760.161Q757.702 815.696 676.083 869.604L630.437 900.163C621.847 905.994 613.38 912.908 604.155 917.664C588.979 925.488 565.759 923.823 549.204 928.853C542.881 930.775 537.169 938.114 530.367 937.523Q530.019 937.495 529.675 937.432Q529.332 937.369 528.996 937.271Q528.661 937.174 528.337 937.042Q528.013 936.911 527.705 936.747Q527.396 936.583 527.106 936.388Q526.816 936.194 526.547 935.971Q526.278 935.748 526.034 935.498Q525.789 935.249 525.571 934.976C523.863 932.807 522.689 929.615 523.136 926.84C524.065 921.082 531.432 916.949 535.831 913.874C537.213 898.038 555.261 871.549 562.197 855.516C562.343 855.373 562.486 855.228 562.634 855.086L563.376 854.387C571.312 846.802 582.313 841.109 591.523 835.076Q621.704 815.539 651.645 795.635L809.732 688.59Q837.491 669.282 865.464 650.286C875.739 643.311 885.966 635.984 896.794 629.881Z"/>
		<path fill="#55524F" d="M853.01 677.481C860.544 681.789 866.188 685.932 871.116 693.159C840.707 714.723 809.091 734.82 778.185 755.685Q741.802 780.468 705.038 804.682C696.816 810.15 688.86 816.151 680.524 821.42C678.578 822.651 674.462 825.725 672.191 825.361C666.006 819.555 659.705 815.484 651.988 811.986C657.553 806.773 665.489 803.38 671.943 799.261C683.257 792.04 694.306 784.327 705.453 776.851L809.48 707.07C824.038 697.272 838.335 687.106 853.01 677.481Z"/>
		<path fill="#9C9B9B" d="M568.974 866.102C578.503 864.342 586.197 864.828 595.046 868.686C601.855 873.847 606.192 879.727 607.335 888.429C608.238 895.297 607.025 904.231 602.521 909.65C601.354 911.053 600.257 911.707 598.573 912.381C592.468 912.177 585.795 914.295 579.853 915.597C572.77 917.15 565.693 918.631 558.531 919.769C558.629 916.863 558.516 913.957 558.441 911.051L556.161 908.077C553.256 906.421 550.353 905.6 547.153 904.708C553.131 893.273 559.739 882.084 566.03 870.813C566.847 869.133 567.921 867.639 568.974 866.102Z"/>
		<path fill="#E6E6E5" d="M568.974 866.102C578.503 864.342 586.197 864.828 595.046 868.686L595.505 871.06C597.279 872.936 599.204 874.775 600.805 876.797C592.437 883.549 583.31 889.519 574.462 895.63C568.443 899.787 562.466 904.393 556.161 908.077C553.256 906.421 550.353 905.6 547.153 904.708C553.131 893.273 559.739 882.084 566.03 870.813C566.847 869.133 567.921 867.639 568.974 866.102Z"/>
		<path fill="#9C9B9B" d="M568.974 866.102C578.503 864.342 586.197 864.828 595.046 868.686L595.505 871.06C586.304 865.285 575.851 868.716 566.03 870.813C566.847 869.133 567.921 867.639 568.974 866.102Z"/>
		<path fill="#C8A66B" d="M600.805 876.797L602.629 880.225C588.813 892.067 573.078 900.436 558.441 911.051L556.161 908.077C562.466 904.393 568.443 899.787 574.462 895.63C583.31 889.519 592.437 883.549 600.805 876.797Z"/>
		<path fill="#786B5D" d="M595.046 868.686C601.855 873.847 606.192 879.727 607.335 888.429C608.238 895.297 607.025 904.231 602.521 909.65C601.354 911.053 600.257 911.707 598.573 912.381C599.051 910.059 600.274 907.736 601.116 905.515C604.303 897.113 606.508 888.857 602.629 880.225L600.805 876.797C599.204 874.775 597.279 872.936 595.505 871.06L595.046 868.686Z"/>
		<path fill="#595A5F" d="M622.825 830.459C623.78 830.35 624.781 830.29 625.738 830.391C633.766 831.243 643.326 839.499 648.181 845.499C634.684 854.157 621.988 863.838 608.013 871.75C600.227 863.916 592.798 859.023 581.608 858.272C593.619 847.232 608.826 838.727 622.825 830.459Z"/>
		<path fill="#55524F" d="M906.09 640.401C914.062 643.542 920.617 649.618 925.574 656.449C914.855 663.275 903.309 669.645 893.609 677.887C887.327 671.353 881.187 666.49 872.88 662.804C883.323 654.462 895.129 648.027 906.09 640.401Z"/>
		<path fill="#E6E6E5" d="M618.286 827.48C630.205 818.354 635.047 813.367 651.028 814.299C659.174 816.519 666.327 822.214 671.365 828.882C665.897 834.274 657.52 840.414 650.43 843.366C643.473 836.632 635.331 831.835 626.641 827.693C623.939 827.356 621.017 827.513 618.286 827.48Z"/>
		<path fill="#9C9B9B" d="M618.286 827.48C630.205 818.354 635.047 813.367 651.028 814.299C643.306 814.727 632.901 823.238 626.641 827.693C623.939 827.356 621.017 827.513 618.286 827.48Z"/>
		<path fill="#786B5D" d="M671.365 828.882C675.884 836.849 677.808 842.816 677.507 852.077C674.687 859.705 666.106 865.94 658.986 869.497C658.23 869.875 657.78 869.967 656.946 869.895C656.746 868.927 656.913 868.484 657.274 867.577C657.988 857.997 656.077 851.087 650.43 843.366C657.52 840.414 665.897 834.274 671.365 828.882Z"/>
		<path fill="#595A5F" d="M657.274 867.577C665.312 865.231 669.853 855.535 677.507 852.077C674.687 859.705 666.106 865.94 658.986 869.497C658.23 869.875 657.78 869.967 656.946 869.895C656.746 868.927 656.913 868.484 657.274 867.577Z"/>
		<path fill="#E6E6E5" d="M848.588 672.921C850.802 670.922 853.166 669.012 855.549 667.221C859.36 664.357 862.828 663.14 867.534 663.784C877.749 666.999 884.866 671.283 891.763 679.553C886.484 684.524 880.002 688.069 873.654 691.495C867.966 684.515 861.389 679.174 853.603 674.696L848.588 672.921Z"/>
		<path fill="#9C9B9B" d="M848.588 672.921C850.802 670.922 853.166 669.012 855.549 667.221C859.36 664.357 862.828 663.14 867.534 663.784C862.576 666.907 857.726 670.512 853.603 674.696L848.588 672.921Z"/>
		<path fill="#9C9B9B" d="M891.763 679.553C894.602 683.132 896.799 686.83 897.549 691.421C898.605 696.099 898.481 701.938 895.96 706.127C892.405 712.032 883.931 716.331 878.242 720.059L879.581 711.973C879.189 704.455 877.765 697.87 873.654 691.495C880.002 688.069 886.484 684.524 891.763 679.553Z"/>
		<path fill="#595A5F" d="M897.549 691.421C898.605 696.099 898.481 701.938 895.96 706.127C892.405 712.032 883.931 716.331 878.242 720.059L879.581 711.973C883.597 710.79 890.944 706.023 893.822 702.924C897.41 699.061 897.665 696.404 897.549 691.421Z"/>
		<path fill="#C8A66B" d="M548.422 916.568C547.473 916.097 546.401 915.636 545.545 915.012C544.474 914.232 544.35 913.411 544.168 912.185C544.984 910.96 545.727 910.419 547.219 910.189C549.695 909.808 551.674 910.729 553.668 912.088C553.87 914.864 554.375 918.384 552.351 920.678C551.923 921.163 551.824 921.174 551.335 921.444C550.631 921.306 550.368 921.42 549.91 920.79C549.069 919.633 548.617 917.975 548.422 916.568Z"/>
		<path fill="#9C9B9B" d="M548.422 916.568C550.505 915.359 551.995 913.786 553.668 912.088C553.87 914.864 554.375 918.384 552.351 920.678C551.923 921.163 551.824 921.174 551.335 921.444C550.631 921.306 550.368 921.42 549.91 920.79C549.069 919.633 548.617 917.975 548.422 916.568Z"/>
	</g>
	<g>
		<path fill="#C8A66B" d="M216.229 353.712C218.937 355.956 221.664 358.192 223.865 360.959C229.712 368.308 228.849 376.386 227.834 385.068C226.014 386.807 223.929 388.322 221.958 389.889Q218.243 392.701 214.5 395.476C214.428 381.637 212.991 367.298 216.229 353.712Z"/>
	</g>
</svg>
