<svg xmlns="http://www.w3.org/2000/svg" xmlns:xlink="http://www.w3.org/1999/xlink" width="1024" height="1024">
	<g>
		<path fill="#252455" d="M487.353 151.38Q487.746 129.684 487.44 107.986C487.351 96.5496 485.755 83.5949 488.627 72.4731C490.69 64.4832 495.285 57.1462 501.227 51.474C515.135 38.1984 534.164 31.7938 553.246 32.4265C571.176 33.021 590.969 40.067 603.399 53.3892C608.025 58.3474 611.726 64.4612 613.134 71.1528C614.74 78.7931 614.409 86.823 614.444 94.5909L614.488 121.371C614.478 155.042 614.085 188.736 614.498 222.404C634.308 210.015 653.334 196.341 672.998 183.698C681.083 178.5 689.489 171.873 698.733 168.955C705.23 166.904 712.412 167.086 718.999 168.635C722.982 169.571 726.847 170.885 730.461 172.815C737.484 176.566 744.177 181.056 750.897 185.32L782.48 205.448Q791.692 211.354 801.031 217.058C805.157 219.548 809.608 221.824 813.519 224.633C815.633 226.151 817.545 228.088 818.864 230.343C821.967 235.646 820.437 267.243 820.377 275.65C835.663 274.384 848.34 278.149 860.166 288.148C876.44 301.907 887.263 323.552 888.975 344.765C890.089 358.581 887.131 371.617 878.43 382.591C897.094 398.215 913.459 415.458 915.653 440.902C916.285 448.226 916.08 455.656 916.089 463.005L916.099 496.099L915.908 602.26L915.926 662.863C915.989 676.153 917.208 690.416 914.906 703.501C912.12 719.328 903.99 734.649 893.655 746.835C888.031 753.466 881.441 758.903 874.328 763.863C862.534 772.087 849.849 779.003 837.778 786.824C791.596 816.743 744.67 845.559 698.238 875.095L590.874 943.368C572.693 954.734 554.839 967.009 535.694 976.726C518.83 985.287 500.668 991.261 481.728 992.666Q477.476 992.987 473.213 993.051Q468.949 993.115 464.69 992.922Q460.43 992.728 456.19 992.278Q451.95 991.829 447.744 991.124Q443.539 990.419 439.384 989.462Q435.229 988.505 431.139 987.299Q427.049 986.093 423.039 984.642Q419.03 983.192 415.115 981.502C404.029 976.835 393.889 969.809 383.653 963.54L348.171 942.075L234.803 872.651C217.082 861.828 199.369 850.715 181.453 840.233C172.059 834.738 162.835 829.032 153.527 823.397C146.365 819.062 139.003 815.142 132.66 809.597C119.198 797.829 110.9 780.36 109.719 762.569C108.59 745.575 109.514 727.934 109.523 710.885L109.536 609.906L109.389 539.576C109.36 526.373 108.216 512.033 110.308 499.016C112.491 485.438 118.115 473.394 127.275 463.156C138.249 450.891 153.447 439.69 167.571 431.266C167.58 426.706 168.643 414.758 168.213 411.525C168.086 410.573 167.613 410.019 167.28 409.171C166.009 405.93 166.285 381.67 167.054 376.681Q167.388 374.477 168.092 372.363Q168.796 370.248 169.848 368.283C175.22 358.39 187.524 354.666 195.518 347.349L195.42 318.17C195.405 311.15 195.064 303.823 196.147 296.874C197.697 286.924 224.771 215.874 230.351 210.288C232.534 208.102 235.14 206.914 238.251 207.005C241.243 207.092 244.512 208.395 246.438 210.755C250.663 215.931 254.41 227.973 257.231 234.432C262.874 247.356 268.781 260.078 274.183 273.118C277.097 280.152 280.833 287.907 281.936 295.477C282.942 302.371 282.287 309.797 282.194 316.77Q282.007 329.719 282.506 342.659C284.427 343.966 286.297 345.071 288.403 346.055L288.623 237.626C288.617 222.512 288.312 207.339 288.968 192.237C289.154 187.958 288.984 183.192 290.05 179.044C291.843 172.062 297.101 165.414 302.135 160.439C314.066 148.648 330.565 140.335 344.628 131.244Q363.564 118.823 382.939 107.099C389.731 102.902 396.573 98.1308 403.749 94.6303C408.735 92.1979 414.548 89.9371 420.156 90.0245C424.384 90.0904 428.43 90.8968 432.334 92.5271C440.198 95.811 473.41 117.017 478.856 122.724C486.803 131.053 486.55 140.857 486.466 151.55L487.353 151.38Z" data-index="0" style="opacity: 1;"></path>
		<defs>
			<linearGradient id="gradient_0" gradientUnits="userSpaceOnUse" x1="483.53381" y1="343.13269" x2="490.90463" y2="343.42422">
				<stop offset="0" stop-color="#3C6DA6"></stop>
				<stop offset="1" stop-color="#6C85CB"></stop>
			</linearGradient>
		</defs>
		<path fill="url(#gradient_0)" d="M486.549 253.543L486.661 252.966C487.142 250.401 487.338 247.866 487.52 245.266C487.783 249.027 487.646 252.974 488.103 256.69C488.577 262.55 488.076 268.866 488.023 274.763L487.697 311.601C487.474 339.151 488.198 366.695 488.176 394.25C488.169 402.164 488.077 410.087 488.182 418.001C488.227 421.422 488.96 425.646 488.486 428.99C488.363 429.855 487.955 430.656 487.459 431.364C486.809 432.293 487.184 432.02 486.078 432.227C484.058 428.528 486.208 270.638 486.549 253.543Z" data-index="1"></path>
		<path fill="#3657AE" d="M486.466 151.55L487.353 151.38L488.12 215.783C488.269 229.305 489.024 243.204 488.103 256.69C487.646 252.974 487.783 249.027 487.52 245.266C487.338 247.866 487.142 250.401 486.661 252.966L486.549 253.543C485.966 238.629 486.505 223.489 486.49 208.551C486.471 189.568 486.006 170.525 486.466 151.55Z" data-index="2"></path>
		<path fill="#28C0EC" d="M509.218 751.139C514.529 748.061 521.679 746.7 527.517 744.597Q534.122 742.179 540.499 739.214Q546.877 736.249 552.982 732.757C571.554 722.151 589.912 710.236 607.708 698.379C614.092 694.125 620.295 689.529 626.774 685.43L756.468 603.507L835.985 553.342C849.321 544.88 863.056 537.071 875.614 527.446C886.012 519.478 893.244 510.832 900.907 500.37C900.877 508.639 901.19 516.918 900.926 525.185L901.062 528.62C901.437 530.591 901.394 531.797 900.916 533.73C900.857 533.965 900.807 534.202 900.75 534.437C900.716 534.579 900.678 534.719 900.642 534.86L900.538 634.578L900.558 667.425C900.56 681.008 901.08 694.627 897.7 707.907C894.855 719.087 888.248 729.229 880.185 737.313C876.392 741.117 872.235 744.531 868.114 747.97C864.129 751.534 859.134 754.377 854.654 757.293L831.682 772.21Q776.567 807.879 720.66 842.291L615.917 909.007C587.045 927.648 558.328 946.715 527.983 962.907C503.513 974.622 477.706 981.685 450.486 976.354C437.156 973.246 417.689 968.055 406.937 959.871C392.819 951.671 379.255 942.559 365.312 934.079L253.576 866.152L188.422 826.451Q174.517 818.219 160.71 809.823C153.444 805.404 145.631 801.247 139.562 795.203C133.614 789.28 127.558 780.455 125.793 772.139C123.722 762.377 124.504 751.75 124.517 741.812L124.565 701.954L124.003 563.497L124.271 564.069C128.31 572.62 132.16 580.909 139.591 587.091C147.751 593.879 157.334 599.143 166.223 604.911C191.605 621.381 217.731 636.718 243.45 652.656L326.992 705.251C344.265 716.11 361.502 728.543 379.789 737.57C386.33 740.798 393.131 743.275 399.982 745.739C416.332 750.057 431.564 754.028 448.474 755.6C469.016 757.559 489.043 754.785 509.218 751.139Z" data-index="3"></path>
		<path fill="#1165A9" d="M509.218 751.139C514.529 748.061 521.679 746.7 527.517 744.597Q534.122 742.179 540.499 739.214Q546.877 736.249 552.982 732.757C571.554 722.151 589.912 710.236 607.708 698.379C614.092 694.125 620.295 689.529 626.774 685.43L756.468 603.507L835.985 553.342C849.321 544.88 863.056 537.071 875.614 527.446C886.012 519.478 893.244 510.832 900.907 500.37C900.877 508.639 901.19 516.918 900.926 525.185L901.062 528.62C901.437 530.591 901.394 531.797 900.916 533.73C900.857 533.965 900.807 534.202 900.75 534.437C900.716 534.579 900.678 534.719 900.642 534.86L900.538 634.578L900.558 667.425C900.56 681.008 901.08 694.627 897.7 707.907C894.855 719.087 888.248 729.229 880.185 737.313C876.392 741.117 872.235 744.531 868.114 747.97C864.129 751.534 859.134 754.377 854.654 757.293L831.682 772.21Q776.567 807.879 720.66 842.291L615.917 909.007C587.045 927.648 558.328 946.715 527.983 962.907C526.977 917.976 528.281 872.908 528.264 827.966C528.259 815.073 529.802 791.088 527.774 779.269C534.023 776.747 540.202 774.184 546.029 770.76C554.616 765.714 562.849 759.872 571.216 754.456C587.386 743.988 603.539 733.571 619.544 722.853C626.88 717.94 634.884 713.88 642.075 708.803C643.68 707.67 645.882 706.113 646.75 704.299C646.828 704.136 646.869 703.957 646.928 703.787C646.373 702.725 646.226 702.52 644.971 702.188C639.425 700.718 616.868 716.81 611.607 720.141C601.347 726.636 590.911 732.847 580.749 739.498C569.464 746.884 558.306 754.773 546.475 761.27C521.972 774.726 494.183 780.505 466.416 780.912C460.622 780.997 454.83 780.584 449.038 780.491Q448.514 768.051 448.474 755.6C469.016 757.559 489.043 754.785 509.218 751.139Z" data-index="4"></path>
		<path fill="#28C0EC" d="M866.07 564.877C866.352 564.85 866.637 564.843 866.917 564.796C871.925 563.957 887.827 549.531 891.828 545.376C895.019 542.062 897.842 538.5 900.642 534.86L900.538 634.578L900.558 667.425C900.56 681.008 901.08 694.627 897.7 707.907C894.855 719.087 888.248 729.229 880.185 737.313C876.392 741.117 872.235 744.531 868.114 747.97C866.92 745.353 865.569 580.531 866.07 564.877Z" data-index="5"></path>
		<path fill="#115080" d="M509.218 751.139C514.529 748.061 521.679 746.7 527.517 744.597Q534.122 742.179 540.499 739.214Q546.877 736.249 552.982 732.757C571.554 722.151 589.912 710.236 607.708 698.379C614.092 694.125 620.295 689.529 626.774 685.43L756.468 603.507L835.985 553.342C849.321 544.88 863.056 537.071 875.614 527.446C886.012 519.478 893.244 510.832 900.907 500.37C900.877 508.639 901.19 516.918 900.926 525.185L901.062 528.62C901.437 530.591 901.394 531.797 900.916 533.73C900.857 533.965 900.807 534.202 900.75 534.437C900.716 534.579 900.678 534.719 900.642 534.86C897.842 538.5 895.019 542.062 891.828 545.376C887.827 549.531 871.925 563.957 866.917 564.796C866.637 564.843 866.352 564.85 866.07 564.877C864.79 563.604 863.526 562.536 862.859 560.829C863.193 559.071 863.693 558.771 864.893 557.496C865.236 555.196 865.87 552.872 866.361 550.595C831.988 571.205 798.476 593.443 764.537 614.767Q700.046 655.021 634.664 693.811C607.532 709.965 581.068 728.66 552.255 741.745C544.072 745.461 518.064 752.578 509.218 751.139Z" data-index="6"></path>
		<path fill="#FDFDFC" d="M864.893 557.496C873.978 552.339 882.505 545.13 889.418 537.314C892.063 534.322 894.078 530.797 896.997 528.06C898.532 527.763 899.618 528.17 901.062 528.62C901.437 530.591 901.394 531.797 900.916 533.73C900.857 533.965 900.807 534.202 900.75 534.437C900.716 534.579 900.678 534.719 900.642 534.86C897.842 538.5 895.019 542.062 891.828 545.376C887.827 549.531 871.925 563.957 866.917 564.796C866.637 564.843 866.352 564.85 866.07 564.877C864.79 563.604 863.526 562.536 862.859 560.829C863.193 559.071 863.693 558.771 864.893 557.496Z" data-index="7"></path>
		<path fill="#1593CD" d="M900.469 517.387C900.507 520.017 900.638 522.566 900.926 525.185L901.062 528.62C899.618 528.17 898.532 527.763 896.997 528.06C894.078 530.797 892.063 534.322 889.418 537.314C882.505 545.13 873.978 552.339 864.893 557.496C865.236 555.196 865.87 552.872 866.361 550.595C869.994 547.319 874.387 544.843 878.252 541.828C887.36 534.722 893.968 526.8 900.469 517.387Z" data-index="8"></path>
		<path fill="#252455" d="M778.385 618.674C783.844 618.521 790.504 618.99 795.433 621.489C799.334 623.467 802.097 626.713 803.347 630.911C805.134 636.914 805.053 667.94 803.917 674.843Q803.431 677.697 802.474 680.43Q801.516 683.162 800.114 685.695Q799.247 687.308 798.213 688.818Q797.179 690.329 795.988 691.72Q794.798 693.111 793.466 694.366Q792.133 695.622 790.674 696.727C785.642 700.544 779.51 703.222 774.132 706.596L717.547 741.52C709.455 746.568 694.791 757.845 686.216 760.43C680.655 761.443 674.843 760.869 669.953 757.831C664.902 754.693 661.96 749.466 660.691 743.768C658.581 734.296 659.671 712.433 662.056 703.11Q662.907 699.734 664.296 696.541Q665.686 693.349 667.578 690.426C669.966 686.703 673.137 683.62 676.694 681.014C690.473 670.917 705.969 662.864 720.397 653.734C736.265 643.693 751.716 632.274 768.007 623.005C771.338 621.11 774.62 619.508 778.385 618.674Z" data-index="9"></path>
		<path fill="#F7964B" d="M679.315 689.62C679.335 689.594 679.352 689.564 679.377 689.542C683.186 686.271 688.344 683.79 692.605 681.099Q709.545 670.328 726.599 659.737L760.997 637.569C765.871 634.442 770.919 630.57 776.068 628.001C778.92 626.577 781.887 626.887 784.979 626.97C788.61 627.409 792.367 627.819 794.725 630.995C795.617 632.197 795.926 633.481 796.07 634.956C795.779 645.838 797.56 668.307 794.769 677.498C793.536 681.559 791.379 684.836 788.357 687.8C783.067 692.988 774.867 696.978 768.562 700.933L717.791 732.098C708.86 737.639 700.531 744.363 691.403 749.517C688.277 751.282 684.571 753.43 680.885 753.275C678.773 753.187 675.935 752.511 674.32 751.084C672.817 749.92 671.236 748.407 670.266 746.765C666.515 740.41 667.085 714.15 668.986 706.571C670.522 700.448 673.746 692.995 679.315 689.62Z" data-index="10"></path>
		<path fill="#EF4624" d="M784.979 626.97C788.61 627.409 792.367 627.819 794.725 630.995C795.617 632.197 795.926 633.481 796.07 634.956C795.779 645.838 797.56 668.307 794.769 677.498C793.536 681.559 791.379 684.836 788.357 687.8C783.067 692.988 774.867 696.978 768.562 700.933L717.791 732.098C708.86 737.639 700.531 744.363 691.403 749.517C688.277 751.282 684.571 753.43 680.885 753.275C678.773 753.187 675.935 752.511 674.32 751.084C675.055 743.16 674.725 738.884 677.806 731.161C682.871 725.319 692.92 721.042 699.678 716.833Q717.348 705.674 735.162 694.749C744.408 689.129 753.871 683.764 762.901 677.802C784.06 663.832 781.174 659.063 785.921 636.191C785.766 634.866 786.177 633.735 785.908 632.428L784.95 634.684L784.615 634.631L784.594 632.087C785.46 630.215 785.252 628.98 784.979 626.97Z" data-index="11"></path>
		<path fill="#ED6829" d="M784.979 626.97C788.61 627.409 792.367 627.819 794.725 630.995C795.617 632.197 795.926 633.481 796.07 634.956C795.745 635.949 795.595 636.733 794.861 637.507C794.252 635.825 792.85 633.277 791.18 632.441C789.794 631.748 789.385 631.938 787.986 632.333C786.643 633.417 786.399 634.612 785.921 636.191C785.766 634.866 786.177 633.735 785.908 632.428L784.95 634.684L784.615 634.631L784.594 632.087C785.46 630.215 785.252 628.98 784.979 626.97Z" data-index="12"></path>
		<path fill="#F7C528" d="M679.315 689.62C679.335 689.594 679.352 689.564 679.377 689.542C683.186 686.271 688.344 683.79 692.605 681.099Q709.545 670.328 726.599 659.737L760.997 637.569C765.871 634.442 770.919 630.57 776.068 628.001C778.92 626.577 781.887 626.887 784.979 626.97C785.252 628.98 785.46 630.215 784.594 632.087C775.152 637.151 766.351 643.388 757.302 649.111Q734.485 663.282 711.887 677.8C705.928 681.632 699.996 685.517 693.984 689.264C690.408 691.493 686.248 693.597 683.045 696.323C680.14 698.796 678.543 702.188 677.443 705.765C676.957 707.344 676.593 708.964 676.227 710.573C675.571 717.682 676.907 724.136 677.806 731.161C674.725 738.884 675.055 743.16 674.32 751.084C672.817 749.92 671.236 748.407 670.266 746.765C666.515 740.41 667.085 714.15 668.986 706.571C670.522 700.448 673.746 692.995 679.315 689.62Z" data-index="13"></path>
		<path fill="#1E73BA" d="M527.774 779.269C529.802 791.088 528.259 815.073 528.264 827.966C528.281 872.908 526.977 917.976 527.983 962.907C503.513 974.622 477.706 981.685 450.486 976.354C451.95 971.76 451.003 939.288 451 932.23Q451.093 860.764 450.425 789.302C476.977 790.94 502.642 788.232 527.774 779.269Z" data-index="14"></path>
		<path fill="#1593CD" d="M405.988 780.05Q411.329 782.036 416.804 783.614Q422.279 785.191 427.857 786.353Q433.436 787.514 439.086 788.253Q444.736 788.991 450.425 789.302Q451.093 860.764 451 932.23C451.003 939.288 451.95 971.76 450.486 976.354C437.156 973.246 417.689 968.055 406.937 959.871C408.776 956.261 406.007 798.739 405.988 780.05Z" data-index="15"></path>
		<path fill="#FDFDFC" d="M405.988 780.05C399.684 777.543 393.405 775.026 387.415 771.818C372.513 763.84 358.717 753.354 344.516 744.185L281.388 704.106C250.221 684.331 218.83 664.95 188.005 644.626C175.47 636.361 162.178 628.587 150.408 619.276C142.667 613.153 133.915 604.458 129.599 595.466C135.001 600.369 140.418 605.256 146.344 609.526C163.001 621.529 184.077 632.07 201.856 643.049L299.457 704.428C309.57 710.806 319.47 717.512 329.578 723.89C337.99 729.198 346.592 734.201 354.907 739.663C371.166 750.343 386.858 762.765 404.916 770.27C402.178 763.189 400.555 753.31 399.982 745.739C416.332 750.057 431.564 754.028 448.474 755.6Q448.514 768.051 449.038 780.491C454.83 780.584 460.622 780.997 466.416 780.912C494.183 780.505 521.972 774.726 546.475 761.27C558.306 754.773 569.464 746.884 580.749 739.498C590.911 732.847 601.347 726.636 611.607 720.141C616.868 716.81 639.425 700.718 644.971 702.188C646.226 702.52 646.373 702.725 646.928 703.787C646.869 703.957 646.828 704.136 646.75 704.299C645.882 706.113 643.68 707.67 642.075 708.803C634.884 713.88 626.88 717.94 619.544 722.853C603.539 733.571 587.386 743.988 571.216 754.456C562.849 759.872 554.616 765.714 546.029 770.76C540.202 774.184 534.023 776.747 527.774 779.269C502.642 788.232 476.977 790.94 450.425 789.302Q444.736 788.991 439.086 788.253Q433.436 787.514 427.857 786.353Q422.279 785.191 416.804 783.614Q411.329 782.036 405.988 780.05Z" data-index="16"></path>
		<path fill="#1593CD" d="M399.982 745.739C416.332 750.057 431.564 754.028 448.474 755.6Q448.514 768.051 449.038 780.491C433.831 778.758 419.287 775.596 404.916 770.27C402.178 763.189 400.555 753.31 399.982 745.739Z" data-index="17"></path>
		<path fill="#FDFDFC" d="M149.55 649.305C151.386 649.245 153.529 649.411 154.869 650.835C156.281 652.336 156.401 654.658 156.589 656.596C157.408 665.056 156.568 674.155 156.545 682.695C156.517 693.143 157.334 704.408 156.296 714.758C156.065 717.056 155.13 717.754 153.427 719.093C151.141 718.863 148.747 718.399 147.166 716.576C146.32 715.599 146.213 714.524 146.104 713.277C145.285 703.841 145.961 693.72 145.918 684.22C145.874 674.575 145.061 664.186 145.969 654.6C146.224 651.912 147.603 650.943 149.55 649.305Z" data-index="18"></path>
		<path fill="#FDFDFC" d="M148.953 733.943C149.983 733.93 151.029 733.941 152.04 734.16C153.599 734.498 155.068 735.669 155.778 737.106C157.205 739.996 157.391 763.325 156.09 766.273C155.467 767.685 154.461 767.831 153.159 768.396C150.929 768.208 149.223 768.058 147.604 766.354C143.26 761.785 145.127 747.976 145.52 741.995C145.762 738.312 146.135 736.407 148.953 733.943Z" data-index="19"></path>
		<path fill="#F7F6AA" d="M865.149 393.23C865.73 392.692 866.565 391.587 867.379 391.592C872.13 391.618 884.427 404.019 887.554 407.848C898.854 421.686 902.824 439.914 900.878 457.428C900.533 460.531 900.042 463.828 899.14 466.822C898.536 484.259 886.791 500.569 874.522 512.05C864.591 521.343 852.854 528.082 841.358 535.209L808.181 555.846Q759.326 586.139 710.9 617.118L601.914 686.741L563.796 711.437C552.886 718.456 541.918 725.764 530.017 731.027C507.497 740.986 481.106 744.798 456.566 743.94Q452.42 743.781 448.286 743.424Q444.153 743.067 440.041 742.513Q435.929 741.96 431.848 741.211Q427.767 740.463 423.727 739.52Q419.686 738.578 415.695 737.445Q411.704 736.311 407.771 734.988Q403.839 733.666 399.974 732.157Q396.109 730.649 392.32 728.958C381.769 724.132 371.734 716.924 361.888 710.762L302.361 673.09Q263.97 648.592 225.176 624.736C203.842 611.754 181.863 599.507 161.157 585.542C155.853 581.965 150.993 578.135 146.62 573.45C136.068 562.146 127.96 548.446 125.404 533.063C123.791 520.234 120.586 514.875 123.499 501.071C129.167 474.217 149.884 459.372 171.479 445.173C171.424 447.038 171.199 448.901 171.019 450.758L170.967 451.254C171.612 456.12 171.105 461.063 171.502 465.956C172.587 475.315 173.391 494.046 171.747 502.841C171.059 506.521 169.166 510.119 168.119 513.737C165.314 523.435 164.043 534.028 164.049 544.112C168.992 547.664 174.822 550.437 179.448 554.316C196.778 563.236 213.383 574.391 230.16 584.352Q287.607 618.428 344.332 653.694Q364.836 666.557 385.548 679.082C394.109 684.293 402.666 690.061 411.812 694.19C424.413 699.88 440.11 703.718 453.826 705.183C474.361 707.376 494.208 704.874 513.172 696.489C527.838 690.005 541.353 680.324 554.851 671.76C569.387 662.536 584.126 653.691 598.609 644.361L731.501 559.492C765.412 537.886 800.098 517.486 833.809 495.592C845.795 487.807 858.639 480.761 869.74 471.736C869.81 471.499 869.873 471.261 869.932 471.021C870.417 469.029 870.606 467.981 869.487 466.152C868.89 465.176 868.562 464.653 868.516 463.465C868.919 462.468 869.508 461.229 869.53 460.145C869.747 449.201 848.618 432.119 841.03 425.865C841.014 420.574 841.287 415.271 841.471 409.983C846.578 405.848 852.507 402.552 857.955 398.864L865.149 393.23Z" data-index="20"></path>
		<path fill="#4BBA3D" d="M125.404 533.063C130.717 538.556 134.165 545.572 140.137 551.061C157.591 567.103 178.384 578.472 198.475 590.768Q227.434 608.608 256.137 626.856L338.486 677.94C380.947 703.842 408.891 725.598 461.332 725.739C473.753 725.772 485.087 725.392 497.256 722.582C509.833 719.679 522.346 715.667 533.979 710.053C558.03 698.447 579.723 682.69 602.464 668.829Q628.645 653.085 654.507 636.823C663.596 631.012 672.362 624.702 681.452 618.892L798.302 544.614C812.713 535.521 827.255 526.298 842.078 517.896C851.741 512.419 862.326 508.214 871.189 501.431C879.694 494.922 887.917 485.01 893.763 476.051C895.554 473.306 896.883 470.337 898.633 467.6L899.14 466.822C898.536 484.259 886.791 500.569 874.522 512.05C864.591 521.343 852.854 528.082 841.358 535.209L808.181 555.846Q759.326 586.139 710.9 617.118L601.914 686.741L563.796 711.437C552.886 718.456 541.918 725.764 530.017 731.027C507.497 740.986 481.106 744.798 456.566 743.94Q452.42 743.781 448.286 743.424Q444.153 743.067 440.041 742.513Q435.929 741.96 431.848 741.211Q427.767 740.463 423.727 739.52Q419.686 738.578 415.695 737.445Q411.704 736.311 407.771 734.988Q403.839 733.666 399.974 732.157Q396.109 730.649 392.32 728.958C381.769 724.132 371.734 716.924 361.888 710.762L302.361 673.09Q263.97 648.592 225.176 624.736C203.842 611.754 181.863 599.507 161.157 585.542C155.853 581.965 150.993 578.135 146.62 573.45C136.068 562.146 127.96 548.446 125.404 533.063Z" data-index="21" style="opacity: 1;"></path>
		<path fill="#68DB51" d="M865.149 393.23C865.73 392.692 866.565 391.587 867.379 391.592C872.13 391.618 884.427 404.019 887.554 407.848C898.854 421.686 902.824 439.914 900.878 457.428C900.533 460.531 900.042 463.828 899.14 466.822L898.633 467.6C896.883 470.337 895.554 473.306 893.763 476.051C887.917 485.01 879.694 494.922 871.189 501.431C862.326 508.214 851.741 512.419 842.078 517.896C827.255 526.298 812.713 535.521 798.302 544.614L681.452 618.892C672.362 624.702 663.596 631.012 654.507 636.823Q628.645 653.085 602.464 668.829C579.723 682.69 558.03 698.447 533.979 710.053C522.346 715.667 509.833 719.679 497.256 722.582C485.087 725.392 473.753 725.772 461.332 725.739C408.891 725.598 380.947 703.842 338.486 677.94L256.137 626.856Q227.434 608.608 198.475 590.768C178.384 578.472 157.591 567.103 140.137 551.061C134.165 545.572 130.717 538.556 125.404 533.063C123.791 520.234 120.586 514.875 123.499 501.071C129.167 474.217 149.884 459.372 171.479 445.173C171.424 447.038 171.199 448.901 171.019 450.758C170.975 450.757 170.931 450.753 170.887 450.757C166.062 451.11 148.858 467.726 145.011 471.801C134.993 482.408 125.594 497.195 126.1 512.312C126.478 523.628 132.738 532.986 140.879 540.442C148.63 547.542 158.055 552.563 167.01 557.956Q180.468 566.089 193.732 574.535C235.679 601.43 278.202 627.354 320.367 653.909L358.117 677.522C371.49 686.042 385.013 695.431 399.751 701.465C424.13 711.445 451.284 715.547 477.501 714.388C496.104 713.565 515.303 708.717 531.947 700.314C541.626 695.428 550.376 688.996 559.468 683.134C570.193 676.219 581.198 669.677 591.993 662.852L710.052 588.217L820.465 518.756L853.309 498.256C864.84 491.077 878.496 484.256 887.656 474.147C894.361 466.745 899.462 455.285 898.878 445.179C897.615 423.346 880.261 406.872 865.149 393.23Z" data-index="22"></path>
		<path fill="#2F9D44" d="M841.471 409.983C846.578 405.848 852.507 402.552 857.955 398.864C870.117 410.726 883.199 426.27 883.3 444.243C883.361 455.196 877.79 463.787 870.248 471.239L869.74 471.736C869.81 471.499 869.873 471.261 869.932 471.021C870.417 469.029 870.606 467.981 869.487 466.152C868.89 465.176 868.562 464.653 868.516 463.465C868.919 462.468 869.508 461.229 869.53 460.145C869.747 449.201 848.618 432.119 841.03 425.865C841.014 420.574 841.287 415.271 841.471 409.983Z" data-index="23"></path>
		<path fill="#2F9D44" d="M171.502 465.956C172.587 475.315 173.391 494.046 171.747 502.841C171.059 506.521 169.166 510.119 168.119 513.737C165.314 523.435 164.043 534.028 164.049 544.112C161.53 542.656 159.397 540.353 157.596 538.082C150.101 528.633 146.725 516.031 148.136 504.098C149.977 488.522 159.474 475.445 171.502 465.956Z" data-index="24"></path>
		<path fill="#68DB51" d="M170.638 459.186C170.544 456.481 170.3 453.909 170.967 451.254C171.612 456.12 171.105 461.063 171.502 465.956C159.474 475.445 149.977 488.522 148.136 504.098C146.725 516.031 150.101 528.633 157.596 538.082C159.397 540.353 161.53 542.656 164.049 544.112C168.992 547.664 174.822 550.437 179.448 554.316C173.808 554.217 158.159 544.701 153.899 540.54C145.638 532.473 141.658 520.281 141.67 508.922C141.692 487.509 156.561 473.349 170.638 459.186Z" data-index="25"></path>
		<path fill="#EC353D" d="M676.883 370.273C681.08 376.528 684.927 383.051 689.061 389.356C696.788 401.142 704.735 412.799 711.846 424.972C719.165 436.863 726.769 448.887 733.256 461.246L736.443 467.132C728.606 473.564 719.19 478.914 710.641 484.38L658.558 517.361L508.046 614.456C484.554 629.677 460.546 644.205 437.597 660.236C429.982 649.697 423.507 638.366 416.81 627.233C427.24 619.521 438.183 612.41 448.905 605.11C453.739 601.818 458.814 598.671 463.341 594.963C467.487 601.136 471.992 614.749 479.26 617.283C480.876 617.846 482.461 617.696 483.974 616.91C485.802 615.959 487.793 614.17 488.291 612.091C489.464 607.197 477.414 592.358 474.934 587.356C474.845 587.178 474.761 586.999 474.675 586.82C463.672 570.12 453.671 552.713 442.848 535.883C443.197 535.015 443.632 534.237 444.247 533.525C447.783 529.434 459.658 520.211 464.949 519.915C465.216 519.096 465.496 518.246 465.914 517.49C468.368 513.057 473.864 511.428 478.365 510.038L480.639 509.834C487.059 504.972 494.497 500.323 501.817 496.992C512.435 513.808 520.498 532.389 531.663 548.774C535.529 554.082 544.488 574.128 550.24 575.403C552.936 576.001 555.622 573.47 557.597 571.977C558.101 571.597 557.874 571.708 558.415 571.563C558.662 571.04 558.775 570.834 558.969 570.257C560.323 566.233 545.471 543.3 542.665 538.277C538.379 531.647 534.531 524.63 530.522 517.824Q518.281 497.214 506.723 476.214C529.726 459.804 554.791 445.992 578.965 431.392Q628.315 401.459 676.883 370.273Z" data-index="26" style="opacity: 1;"></path>
		<path fill="#F9A53C" d="M676.883 370.273C681.08 376.528 684.927 383.051 689.061 389.356C696.788 401.142 704.735 412.799 711.846 424.972C704.349 431.982 695.341 437.598 686.748 443.155C674.491 451.082 662.026 458.678 649.905 466.812Q608.053 495.317 565.612 522.937C557.983 527.825 550.522 533.913 542.665 538.277C538.379 531.647 534.531 524.63 530.522 517.824Q518.281 497.214 506.723 476.214C529.726 459.804 554.791 445.992 578.965 431.392Q628.315 401.459 676.883 370.273Z" data-index="27"></path>
		<path fill="#FDFDFC" d="M653.388 395.655C654.676 395.572 655.978 395.475 657.269 395.489C659.258 395.51 662.432 396.767 663.569 398.46C664.278 399.517 664.399 400.687 664.038 401.886C663.317 404.283 661.321 405.775 659.387 407.167C654.389 410.765 648.812 413.702 643.575 416.954L605.703 440.189Q580.151 456.127 554.13 471.287C546.243 475.909 538.189 481.344 529.86 485.073C527.709 485.617 525.844 486.201 523.679 485.458C522.214 484.956 520.645 484.063 520.111 482.507C519.738 481.42 519.959 480.304 520.378 479.271C521.716 475.97 525.201 473.618 528.051 471.661C537.768 464.99 548.467 459.463 558.543 453.326L609.742 421.665L637.227 405.037C642.484 401.848 647.732 398.077 653.388 395.655Z" data-index="28"></path>
		<path fill="#EF4624" d="M711.846 424.972C719.165 436.863 726.769 448.887 733.256 461.246C718.075 469.729 704.445 479.936 689.894 489.352C677.316 497.492 664.119 504.696 651.605 512.905C626.82 529.163 602.197 545.737 576.899 561.182C571.657 564.383 566.563 567.991 561.239 571.018C560.321 571.541 559.462 571.712 558.415 571.563C558.662 571.04 558.775 570.834 558.969 570.257C560.323 566.233 545.471 543.3 542.665 538.277C550.522 533.913 557.983 527.825 565.612 522.937Q608.053 495.317 649.905 466.812C662.026 458.678 674.491 451.082 686.748 443.155C695.341 437.598 704.349 431.982 711.846 424.972Z" data-index="29" style="opacity: 1;"></path>
		<path fill="#252455" d="M501.817 496.992C512.435 513.808 520.498 532.389 531.663 548.774C525.503 553.082 519.329 557.81 512.888 561.66C516.327 568.456 528.291 584.133 525.913 591.358C524.98 594.192 522.586 596.481 519.892 597.671C517.179 598.868 514.097 599.114 511.349 597.883C505.707 595.358 497.72 578.67 493.764 572.799C487.245 577.294 481.108 582.229 474.675 586.82C463.672 570.12 453.671 552.713 442.848 535.883C443.197 535.015 443.632 534.237 444.247 533.525C447.783 529.434 459.658 520.211 464.949 519.915C465.216 519.096 465.496 518.246 465.914 517.49C468.368 513.057 473.864 511.428 478.365 510.038L480.639 509.834C487.059 504.972 494.497 500.323 501.817 496.992Z" data-index="30"></path>
		<path fill="#F9A53C" d="M464.949 519.915C465.222 521.602 465.471 523.399 466.079 525.002C467.701 529.278 470.699 533.517 473.01 537.488C479.826 549.203 487.596 560.757 493.764 572.799C487.245 577.294 481.108 582.229 474.675 586.82C463.672 570.12 453.671 552.713 442.848 535.883C443.197 535.015 443.632 534.237 444.247 533.525C447.783 529.434 459.658 520.211 464.949 519.915Z" data-index="31" style="opacity: 1;"></path>
		<defs>
			<linearGradient id="gradient_1" gradientUnits="userSpaceOnUse" x1="521.78735" y1="554.79205" x2="491.27145" y2="503.30243">
				<stop offset="0" stop-color="#FAB63B"></stop>
				<stop offset="1" stop-color="#F6A141"></stop>
			</linearGradient>
		</defs>
		<path fill="url(#gradient_1)" d="M501.817 496.992C512.435 513.808 520.498 532.389 531.663 548.774C525.503 553.082 519.329 557.81 512.888 561.66Q500.546 540.498 487.827 519.561C485.224 515.262 483.571 511.311 478.365 510.038L480.639 509.834C487.059 504.972 494.497 500.323 501.817 496.992Z" data-index="32"></path>
		<path fill="#FDFDFC" d="M473.603 524.944C473.026 523.871 472.493 522.886 472.706 521.618C472.9 520.457 473.553 519.312 474.62 518.757C475.66 518.215 476.823 518.229 477.924 518.531C479.966 519.091 481 521.352 482.049 523.044C484.849 527.82 487.832 532.567 490.385 537.475C489.319 539.855 488.37 542.04 486.738 544.101C486.596 544.28 486.461 544.463 486.32 544.642C486.235 544.75 486.147 544.855 486.061 544.961Q480.117 534.775 473.603 524.944Z" data-index="33"></path>
		<path fill="#C6C3C5" d="M473.603 524.944C473.026 523.871 472.493 522.886 472.706 521.618C472.9 520.457 473.553 519.312 474.62 518.757C475.66 518.215 476.823 518.229 477.924 518.531C479.966 519.091 481 521.352 482.049 523.044L481.561 523.142C478.852 523.669 475.812 523.141 473.603 524.944Z" data-index="34"></path>
		<path fill="#3657AE" d="M506.259 564.334C509.035 568.589 519.405 583.191 518.297 587.726C518.167 588.259 517.877 588.673 517.6 589.128C516.384 589.569 515.819 589.64 514.603 589.087C509.591 586.806 502.933 573.246 500.133 568.221L506.259 564.334Z" data-index="35"></path>
		<path fill="#81A7EC" d="M497.468 549.828Q501.938 557.036 506.259 564.334L500.133 568.221L492.298 555.415C494.527 553.797 496.04 552.201 497.468 549.828Z" data-index="36"></path>
		<path fill="#A5B9EF" d="M490.385 537.475L497.468 549.828C496.04 552.201 494.527 553.797 492.298 555.415C490.121 551.977 488.039 548.517 486.061 544.961C486.147 544.855 486.235 544.75 486.32 544.642C486.461 544.463 486.596 544.28 486.738 544.101C488.37 542.04 489.319 539.855 490.385 537.475Z" data-index="37"></path>
		<path fill="#4BBA3D" d="M500.993 181.929C502.295 183.726 503.629 185.411 505.213 186.971C520.383 201.912 539.467 203.661 559.727 203.527C572.649 202.881 584.002 199.499 594.916 192.536L600.723 187.288L601.154 295.797C601.136 316.531 600.621 337.337 600.989 358.065C596.837 360.452 592.451 363.573 588.116 365.486C578.777 371.654 569.594 378.274 560.049 384.093C551.028 390.167 541.708 395.782 532.668 401.823Q523.282 408.534 513.599 414.808Q507.046 419.057 500.548 423.389L500.993 181.929Z" data-index="38" style="opacity: 1;"></path>
		<path fill="#2F9D44" d="M594.916 192.536L600.723 187.288L601.154 295.797C601.136 316.531 600.621 337.337 600.989 358.065C596.837 360.452 592.451 363.573 588.116 365.486C578.777 371.654 569.594 378.274 560.049 384.093C560.059 323.907 559.198 263.714 559.727 203.527C572.649 202.881 584.002 199.499 594.916 192.536Z" data-index="39" style="opacity: 1;"></path>
		<path fill="#16864D" d="M594.916 192.536L600.723 187.288L601.154 295.797C601.136 316.531 600.621 337.337 600.989 358.065C596.837 360.452 592.451 363.573 588.116 365.486Q589.461 299.703 592.973 233.999Q593.535 222.456 594.431 210.935C594.876 205.808 596.016 200.198 595.726 195.101C595.67 194.114 595.358 193.403 594.916 192.536Z" data-index="40" style="opacity: 1;"></path>
		<path fill="#68DB51" d="M508.465 200.183C516.257 203.748 528.901 205.683 533.884 212.962C534.11 244.425 533.467 275.947 533.449 307.422L533.093 364.09C533.016 376.649 533.235 389.277 532.668 401.823Q523.282 408.534 513.599 414.808C510.168 410.572 508.972 405.1 508.288 399.816C507.007 389.922 507.122 379.663 507.074 369.692L507.005 333.494Q506.866 266.829 508.465 200.183Z" data-index="41" style="opacity: 1;"></path>
		<path fill="#C15B9D" d="M760.942 263.2C764.56 265.168 767.98 267.957 771.358 270.331L785.432 278.735C789.04 280.914 792.402 283.365 795.793 285.86C780.585 295.91 764.774 304.927 749.196 314.363C739.021 320.526 729.182 327.26 719.075 333.542C708.488 340.122 697.629 346.252 687.119 352.958L553.478 437.934C536.491 448.631 519.809 460.035 502.548 470.262C499.8 469.275 497.337 468.755 494.417 468.645C479.104 476.758 464.84 487.334 450.346 496.827L369.928 549.31C362.533 554.097 354.804 559.246 346.891 563.084C344.134 564.421 340.79 563.796 338.275 565.608C334.878 568.056 333.209 573.891 331.95 577.719C326.134 593.899 319.094 610.303 311.527 625.756C303.292 619.343 293.544 613.617 284.369 608.669C279.581 606.184 275.035 603.213 270.45 600.376C267.282 598.519 264.244 596.446 261.185 594.417C275.956 583.385 292.23 573.974 307.7 563.93C315.692 558.742 323.362 553.076 331.287 547.787C345.781 538.111 360.474 528.742 374.903 518.964Q493.469 437.082 613.971 358.076Q666.107 325.157 717.713 291.415C732.025 282.097 747.444 273.64 760.942 263.2Z" data-index="42" style="opacity: 1;"></path>
		<path fill="#EF95CF" d="M760.942 263.2C764.56 265.168 767.98 267.957 771.358 270.331C765.429 273.279 759.796 277.438 754.207 281.008C743.572 287.798 733.006 294.592 722.502 301.585C703.252 314.401 683.566 326.596 664.229 339.298L561.626 405.681L418.202 501.657L317.139 569.899C301.97 580.006 286.604 591.955 270.45 600.376C267.282 598.519 264.244 596.446 261.185 594.417C275.956 583.385 292.23 573.974 307.7 563.93C315.692 558.742 323.362 553.076 331.287 547.787C345.781 538.111 360.474 528.742 374.903 518.964Q493.469 437.082 613.971 358.076Q666.107 325.157 717.713 291.415C732.025 282.097 747.444 273.64 760.942 263.2Z" data-index="43" style="opacity: 1;"></path>
		<path fill="#9A2C75" d="M785.432 278.735C789.04 280.914 792.402 283.365 795.793 285.86C780.585 295.91 764.774 304.927 749.196 314.363C739.021 320.526 729.182 327.26 719.075 333.542C708.488 340.122 697.629 346.252 687.119 352.958L553.478 437.934C536.491 448.631 519.809 460.035 502.548 470.262C499.8 469.275 497.337 468.755 494.417 468.645C498.33 465.363 502.911 462.559 507.07 459.571C514.213 454.44 521.319 449.238 528.692 444.44C538.136 438.295 547.874 432.6 557.265 426.379Q578.472 412.103 599.939 398.22C607.734 393.205 615.737 388.509 623.509 383.466C648.463 367.276 673.259 350.913 698.681 335.453Q731.099 315.781 762.61 294.685C769.97 289.774 779.205 284.912 785.432 278.735Z" data-index="44" style="opacity: 1;"></path>
		<path fill="#A446A1" d="M331.95 577.719C326.134 593.899 319.094 610.303 311.527 625.756C303.292 619.343 293.544 613.617 284.369 608.669C289.739 604.026 302.198 597.342 308.705 593.148C316.411 588.181 323.911 582.038 331.95 577.719Z" data-index="45"></path>
		<path fill="#EC353D" d="M304.348 180.005C310.246 185.163 317.283 189.068 323.817 193.372C335.5 201.069 347.251 208.864 358.426 217.281Q355.675 369.37 356.148 521.479C345.622 529.394 334.156 536.024 323.55 543.86C321.544 545.408 319.328 546.79 317.235 548.224C314.047 546.351 311.039 544.249 308.008 542.135L308.022 473.988C308.022 465.959 307.066 451.832 308.372 444.428L308.185 441.852C307.387 436.867 307.926 431.077 307.925 425.987L307.788 395.855C307.147 392.975 307.417 389.493 307.384 386.518C307.361 386.357 307.337 386.195 307.316 386.033C306.065 376.109 308.818 368.62 301.974 359.884Q301.986 288.358 302.859 216.836C303.036 207.321 301.616 189.778 304.002 181.25L304.212 180.47C304.256 180.314 304.303 180.16 304.348 180.005Z" data-index="46" style="opacity: 1;"></path>
		<path fill="#FDFDFC" d="M307.384 386.518C314.595 387.689 318.01 397.587 325.871 399.453C332.157 400.946 342.874 397.853 345.769 398.775C346.52 399.014 347.971 400.383 348.385 401.017C349.008 401.972 349.145 403.121 348.728 404.186C347.763 406.657 344.465 408.426 342.062 409.11C334.513 411.259 324.861 410.131 318.227 406.094C314.186 403.635 310.567 399.658 307.788 395.855C307.147 392.975 307.417 389.493 307.384 386.518Z" data-index="47"></path>
		<path fill="#FDFDFC" d="M308.185 441.852C309.66 441.635 309.859 441.841 311.174 442.56C315.62 444.991 319.776 448.586 323.981 451.482C329.929 455.577 336.202 459.305 342.018 463.574C343.833 464.906 345.318 466.395 346.803 468.079C334.343 464.282 317.756 453.848 308.372 444.428L308.185 441.852Z" data-index="48"></path>
		<path fill="#C62F37" d="M308.372 444.428C309.164 456.042 308.754 467.848 308.746 479.489L308.69 537.409C313.431 539.72 319.094 541.24 323.55 543.86C321.544 545.408 319.328 546.79 317.235 548.224C314.047 546.351 311.039 544.249 308.008 542.135L308.022 473.988C308.022 465.959 307.066 451.832 308.372 444.428Z" data-index="49"></path>
		<path fill="#FDFDFC" d="M323.578 297.021C325.067 296.897 326.582 296.733 328.05 297.089C330.859 297.77 333.332 299.486 334.831 301.966C335.792 303.556 336.162 305.007 336.342 306.852C336.951 313.109 337.151 379.101 336.343 381.738C335.496 384.5 333.22 385.719 330.784 386.902C329.35 387.16 327.899 387.451 326.438 387.28C323.708 386.96 321.603 385.616 320.019 383.39C318.485 381.233 318.244 379.038 317.993 376.479C316.601 362.281 317.606 347.199 317.719 332.901C317.793 323.558 316.927 313.1 318.452 303.947C319.035 300.448 320.772 298.965 323.578 297.021Z" data-index="50"></path>
		<path fill="#FDFDFC" d="M309.2 187.247C310.22 187.509 311.086 187.924 312.018 188.406C316.864 190.914 342.681 208.083 343.95 212.163C343.248 213.571 342.45 213.789 341.114 214.572C339.973 214.35 338.883 214.1 337.814 213.63C333.084 211.553 307.359 194.856 305.957 191.107C306.48 189.331 307.853 188.409 309.2 187.247Z" data-index="51"></path>
		<path fill="#C15B9D" d="M437.964 693.817C460.831 680.458 482.453 664.782 504.902 650.703L719.902 514.611C738.919 502.635 758.065 490.828 776.946 478.64C787.978 471.517 798.787 463.154 810.487 457.22C810.056 470.72 811.564 484.682 810.085 498.095C809.968 499.761 810.169 500.576 808.762 501.691C804.495 505.073 799.092 507.472 794.433 510.337C780.143 519.122 765.599 527.587 751.496 536.661L597.752 634.018L547.101 666.142C533.603 674.723 520.827 684.004 505.915 690.085C488.28 697.277 467.737 698.083 448.981 695.397C448.414 695.316 447.898 695.177 447.347 695.024C444.948 694.08 440.651 694.198 437.964 693.817Z" data-index="52" style="opacity: 1;"></path>
		<path fill="#9A2C75" d="M437.964 693.817C460.831 680.458 482.453 664.782 504.902 650.703L719.902 514.611C738.919 502.635 758.065 490.828 776.946 478.64C787.978 471.517 798.787 463.154 810.487 457.22C810.056 470.72 811.564 484.682 810.085 498.095C809.791 486.989 810.317 475.878 810.037 464.77L575.219 613.773C552.321 628.059 529.134 641.966 506.335 656.398C498.557 661.321 491.004 666.593 483.264 671.576L459.22 687.013C455.286 689.564 450.912 692.007 447.347 695.024C444.948 694.08 440.651 694.198 437.964 693.817Z" data-index="53" style="opacity: 1;"></path>
		<path fill="#F7964B" d="M181.128 449.23C187.4 452.989 193.383 457.345 199.585 461.243C210.519 468.117 221.643 474.684 232.563 481.583C235.599 483.223 238.399 484.774 241.796 485.545C248.476 483.195 254.615 478.416 260.529 474.548C273.387 466.138 286.068 456.804 299.553 449.443C299.54 482.43 300.075 515.529 299.464 548.505L299.419 559.628C289.617 567.086 278.864 573.531 268.49 580.162C263.493 583.356 258.165 586.442 253.617 590.258C249.821 588.062 245.207 585.909 241.842 583.118C238.557 581.24 235.252 579.389 232.051 577.369C226.267 574.313 220.675 570.514 215.074 567.105Q197.61 556.538 180.307 545.709C181.111 534.86 180.579 523.797 180.747 512.916C181.074 491.656 181.5 470.495 181.128 449.23Z" data-index="54"></path>
		<path fill="#F7EA2E" d="M181.128 449.23C187.4 452.989 193.383 457.345 199.585 461.243C210.519 468.117 221.643 474.684 232.563 481.583C231.626 513.481 233.248 545.507 232.051 577.369C226.267 574.313 220.675 570.514 215.074 567.105Q197.61 556.538 180.307 545.709C181.111 534.86 180.579 523.797 180.747 512.916C181.074 491.656 181.5 470.495 181.128 449.23Z" data-index="55"></path>
		<path fill="#F9A53C" d="M232.563 481.583C235.599 483.223 238.399 484.774 241.796 485.545C242.301 495.295 241.951 505.207 241.937 514.975C241.907 537.509 241.562 560.086 242.201 582.611L241.842 583.118C238.557 581.24 235.252 579.389 232.051 577.369C233.248 545.507 231.626 513.481 232.563 481.583Z" data-index="56"></path>
		<path fill="#ED6829" d="M242.201 582.611C242.418 581.306 242.258 580.214 243.482 579.446C247.334 577.029 253.361 575.51 257.697 573.698C267.154 569.745 294.843 556.777 299.464 548.505L299.419 559.628C289.617 567.086 278.864 573.531 268.49 580.162C263.493 583.356 258.165 586.442 253.617 590.258C249.821 588.062 245.207 585.909 241.842 583.118L242.201 582.611Z" data-index="57"></path>
		<defs>
			<linearGradient id="gradient_2" gradientUnits="userSpaceOnUse" x1="581.71021" y1="55.925316" x2="506.22998" y2="149.11131">
				<stop offset="0" stop-color="#1059AF"></stop>
				<stop offset="1" stop-color="#25BBE7"></stop>
			</linearGradient>
		</defs>
		<path fill="url(#gradient_2)" d="M501.799 76.309C502.624 72.7615 503.973 69.5435 505.914 66.4683C512.645 55.8066 524.673 49.3515 536.708 46.706C553.734 42.9633 570.819 45.829 585.498 55.1507C589.981 58.5083 593.831 61.9491 596.729 66.8138C600.719 73.1916 601.31 81.4857 599.614 88.7054C597.581 97.3575 591.823 104.63 584.284 109.202C568.987 118.478 549.175 120.345 532.009 115.936C527.284 114.722 522.437 112.831 518.39 110.07C516.484 108.77 514.596 106.962 512.499 106.036C513.702 109.296 521.811 113.571 524.991 115.028C534.11 119.208 543.565 120.567 553.49 121.016C561.271 121.028 568.597 120.126 576.127 118.162C585.27 114.846 592.241 111.152 599.596 104.794C599.733 119.61 600.138 134.525 599.72 149.336C593.087 155.597 586.204 160.2 577.648 163.441C570.985 165.602 564.066 167.463 557.023 167.71C549.95 168.047 542.579 167.679 535.652 166.147C519.678 162.613 509.271 154.517 500.54 140.984C500.508 129.577 499.032 84.183 501.799 76.309Z" data-index="58"></path>
		<path fill="#28C0EC" d="M501.799 76.309C502.624 72.7615 503.973 69.5435 505.914 66.4683C512.645 55.8066 524.673 49.3515 536.708 46.706C553.734 42.9633 570.819 45.829 585.498 55.1507C589.981 58.5083 593.831 61.9491 596.729 66.8138C595.685 68.4896 595.622 69.8657 595.482 71.8076C595.499 80.0839 592.363 87.0987 586.549 92.9117C576.771 102.687 562.637 107.609 548.953 107.504C537.252 107.414 522.315 104.404 513.693 95.8127C508.253 90.3912 505.558 82.9176 503.135 75.7856L502.169 76.4797L501.799 76.309Z" data-index="59"></path>
		<path fill="#1593CD" d="M585.498 55.1507C589.981 58.5083 593.831 61.9491 596.729 66.8138C595.685 68.4896 595.622 69.8657 595.482 71.8076C595.399 71.5128 595.31 71.2198 595.233 70.9232C593.448 63.9996 586.371 60.7603 585.498 55.1507Z" data-index="60"></path>
		<path fill="#5CEBF9" d="M550.746 62.1961C556.721 62.2692 562.909 62.9715 567.763 66.8146C570.157 68.7107 572.017 71.3803 572.292 74.4864C572.52 77.055 571.624 79.4473 569.904 81.3434C565.929 85.7235 559.669 86.4029 554.123 86.8008C548.391 86.9233 542.214 86.0442 537.559 82.4487C535.154 80.5904 533.25 77.9302 532.947 74.8449C532.687 72.1889 533.677 69.7157 535.451 67.758C539.398 63.4033 545.227 62.624 550.746 62.1961Z" data-index="61"></path>
		<path fill="#FDFDFC" d="M545.838 48.693C545.995 48.6702 546.152 48.6387 546.31 48.6246C557.632 47.6224 570.976 48.4858 579.765 56.4128C578.719 57.6799 577.613 58.9011 576.526 60.1337C572.25 58.5574 567.942 57.0967 563.454 56.2446C550.514 53.7875 539.229 55.6215 528.364 63.0294C518.829 70.9686 525.983 76.2659 524.483 83.4672C523.959 84.0685 523.885 84.4217 523.034 84.5405C521.452 84.7613 520.068 84.0559 518.799 83.1733C515.506 80.8829 513.808 77.2141 513.241 73.3119C512.647 69.2125 513.988 65.3914 516.461 62.1434C523.219 53.2668 535.29 49.9936 545.838 48.693Z" data-index="62"></path>
		<path fill="#1E73BA" d="M576.127 118.162C585.27 114.846 592.241 111.152 599.596 104.794C599.733 119.61 600.138 134.525 599.72 149.336C593.087 155.597 586.204 160.2 577.648 163.441C575.653 155.388 578.655 121.278 576.127 118.162Z" data-index="63"></path>
		<path fill="#1593CD" d="M576.127 118.162C578.655 121.278 575.653 155.388 577.648 163.441C570.985 165.602 564.066 167.463 557.023 167.71C556.999 152.567 557.79 137.174 557.039 122.073C556.109 121.005 554.86 121.195 553.49 121.016C561.271 121.028 568.597 120.126 576.127 118.162Z" data-index="64"></path>
		<defs>
			<linearGradient id="gradient_3" gradientUnits="userSpaceOnUse" x1="389.94141" y1="171.28905" x2="379.89856" y2="110.55206">
				<stop offset="0" stop-color="#FDA437"></stop>
				<stop offset="1" stop-color="#FF5247"></stop>
			</linearGradient>
		</defs>
		<path fill="url(#gradient_3)" d="M313.653 168.844Q315.523 167.15 317.495 165.574C324.632 159.921 332.635 155.102 340.338 150.271L370.763 131.186C383.654 123.007 400.014 110.594 413.608 104.842C416.874 103.461 419.593 103.632 423.009 104.012C425.198 104.032 426.888 104.42 428.905 105.276C435.124 107.914 464.087 126.153 468.553 130.677C472.515 134.692 473.485 139.39 474.046 144.787C464.21 150.43 454.189 155.682 444.474 161.54C435.528 166.552 427.357 173.228 418.245 177.901C400.034 189.827 380.677 200.292 362.973 212.949Q349.156 202.931 334.808 193.689C325.705 187.793 316.189 182.049 307.72 175.257C309.551 172.886 311.466 170.885 313.653 168.844Z" data-index="65"></path>
		<path fill="#F9A53C" d="M383.86 155.063C384.183 154.977 384.656 154.834 384.981 154.842C385.474 154.855 385.952 155.064 386.446 155.061C388.106 155.052 390.185 154.404 391.828 154.069C400.15 152.374 400.457 150.914 405.554 144.759C404.468 140.744 403.205 135.556 405.253 131.679L405.755 132.305C404.738 136.092 404.261 139.62 406.407 143.146C408.669 146.861 412.813 148.779 416.764 150.153C418.548 151.38 420.06 151.592 422.177 151.907C421.951 153.625 422.049 156.054 420.616 157.233C419.86 157.856 418.897 158.339 418.046 158.824L417.783 159.711C418.884 160.768 420.173 161.389 420.41 162.922L419.937 164.012C420.529 164.989 420.808 165.357 422.005 165.691C423.685 166.16 425.802 165.645 427.486 165.313C431.069 164.606 434.481 163.57 437.769 161.97C441.248 160.277 445.845 156.827 449.487 156.166C448.094 157.405 446.675 158.423 445.117 159.447L444.474 161.54C435.528 166.552 427.357 173.228 418.245 177.901C400.034 189.827 380.677 200.292 362.973 212.949Q349.156 202.931 334.808 193.689C325.705 187.793 316.189 182.049 307.72 175.257C309.551 172.886 311.466 170.885 313.653 168.844C315.564 169.261 316.925 169.614 318.503 170.812C318.593 171.09 318.661 171.375 318.773 171.644C319.342 173.01 320.014 173.477 321.291 174.118C326.855 174.649 344.231 160.73 350.246 157.295C351.828 157.822 352.604 158.408 353.782 159.576C353.887 160.247 354.004 160.442 353.755 161.092C353.192 162.564 352.651 163.537 353.314 165.067C354.604 161.587 355.9 159.481 359.041 157.374C366.026 152.687 376.026 153.471 383.86 155.063Z" data-index="66"></path>
		<path fill="#252455" d="M353.314 165.067C354.604 161.587 355.9 159.481 359.041 157.374C366.026 152.687 376.026 153.471 383.86 155.063C388.247 158.509 392.231 160.954 393.119 166.963C393.573 170.035 392.7 173.063 390.798 175.498C387.361 179.897 381.611 181.765 376.241 182.251C370.211 182.798 363.144 182.271 358.377 178.167C354.157 174.534 353.593 170.277 353.314 165.067Z" data-index="67"></path>
		<defs>
			<linearGradient id="gradient_4" gradientUnits="userSpaceOnUse" x1="376.76712" y1="159.88501" x2="371.05328" y2="176.72371">
				<stop offset="0" stop-color="#FDC50C"></stop>
				<stop offset="1" stop-color="#FFDF2B"></stop>
			</linearGradient>
		</defs>
		<path fill="url(#gradient_4)" d="M358.294 169.37L358.349 168.763C358.417 167.939 358.459 167.081 358.683 166.28C359.256 164.233 361.311 162.492 363.046 161.428C367.408 158.754 373.518 158.093 378.477 159.159C381.622 160.119 385.163 161.416 386.781 164.543C387.64 166.205 387.651 168.187 386.973 169.911C385.852 172.76 383.109 174.617 380.354 175.681C375.539 177.542 368.871 177.918 364.151 175.577C361.109 174.067 359.743 172.386 358.294 169.37Z" data-index="68"></path>
		<path fill="#F7F6AA" d="M358.294 169.37L358.349 168.763C358.417 167.939 358.459 167.081 358.683 166.28C359.256 164.233 361.311 162.492 363.046 161.428C367.408 158.754 373.518 158.093 378.477 159.159Q379.599 161.158 380.646 163.198C378.448 166.655 374.193 167.725 370.391 168.544C366.722 169.333 362.002 169.985 358.294 169.37Z" data-index="69"></path>
		<path fill="#ED6829" d="M417.861 166.483C424.468 166.225 430.226 166.085 436.369 163.347C439.052 162.152 441.736 160.591 444.507 159.648L445.117 159.447L444.474 161.54C435.528 166.552 427.357 173.228 418.245 177.901C417.806 174.153 417.924 170.259 417.861 166.483Z" data-index="70"></path>
		<path fill="#252455" d="M405.755 132.305C409.361 127.072 413.668 123.986 420.025 122.731C426.16 121.521 433.257 122.319 438.463 125.965C441.742 128.262 444.169 131.656 444.809 135.652C445.314 138.802 444.726 142.175 442.84 144.787C440.078 148.613 435.204 150.154 430.717 150.703C426.061 151.272 421.381 150.83 416.764 150.153C412.813 148.779 408.669 146.861 406.407 143.146C404.261 139.62 404.738 136.092 405.755 132.305Z" data-index="71"></path>
		<path fill="#F7C528" d="M418.222 128.819C424.259 127.558 430.817 127.673 436.268 130.946C437.766 131.845 439.32 133.824 439.697 135.55C440.095 137.376 439.853 139.247 438.761 140.793C436.491 144.009 432.022 145.048 428.344 145.504C423.155 146.149 416.81 145.917 412.514 142.609C411.007 141.448 409.891 139.957 409.66 138.022C409.397 135.817 410.247 134.095 411.532 132.377C413.686 130.8 415.778 129.821 418.222 128.819Z" data-index="72"></path>
		<path fill="#F7F6AA" d="M418.222 128.819C418.381 128.849 418.54 128.88 418.7 128.908C422.671 129.607 429.523 128.488 432.309 131.947C432.813 132.574 432.594 133.003 432.546 133.75C430.235 136.909 424.893 138.89 421.094 139.549C418.974 139.916 415.146 140.131 413.414 138.582C411.676 137.028 411.679 134.522 411.532 132.377C413.686 130.8 415.778 129.821 418.222 128.819Z" data-index="73"></path>
		<path fill="#FDFDFC" d="M318.503 170.812C331.421 160.005 346.369 151.379 360.524 142.306C375.916 132.441 391.381 121.458 408.006 113.794C411.19 112.326 417.052 109.555 420.458 110.802C421.36 111.986 421.196 112.01 421.029 113.514C417.611 117.553 393.552 130.141 386.776 134.274Q368.423 145.645 350.246 157.295C344.231 160.73 326.855 174.649 321.291 174.118C320.014 173.477 319.342 173.01 318.773 171.644C318.661 171.375 318.593 171.09 318.503 170.812Z" data-index="74"></path>
		<path fill="#C62F37" d="M423.009 104.012C425.198 104.032 426.888 104.42 428.905 105.276C435.124 107.914 464.087 126.153 468.553 130.677C472.515 134.692 473.485 139.39 474.046 144.787C464.21 150.43 454.189 155.682 444.474 161.54L445.117 159.447C446.675 158.423 448.094 157.405 449.487 156.166C450.415 155.633 451.066 155.01 451.779 154.224C455.318 150.317 457.986 145.174 457.507 139.776C456.279 125.948 433.067 111.99 423.009 104.012Z" data-index="75"></path>
		<path fill="#28C0EC" d="M710.589 352.993L709.477 351.482C710.441 347.77 749.853 324.902 755.337 321.674C760.869 318.418 765.422 317.663 771.708 319.303C790.01 324.078 804.591 340.938 813.662 356.689C820.251 369 823.619 383.793 820.911 397.654C819.142 403.602 817.43 409.984 813.608 415.002C807.519 422.995 777.437 440.103 767.172 446.428C765.14 443.024 763.184 439.631 761.42 436.08C757.931 427.22 747.03 413.804 742.051 404.158C733.513 389.988 724.505 375.917 716.379 361.517C714.528 358.611 712.601 355.791 710.589 352.993Z" data-index="76" style="opacity: 1;"></path>
		<path fill="#1E73BA" d="M742.051 404.158C747.925 400.6 753.487 396.116 759.261 392.338L813.662 356.689C820.251 369 823.619 383.793 820.911 397.654C819.142 403.602 817.43 409.984 813.608 415.002C807.519 422.995 777.437 440.103 767.172 446.428C765.14 443.024 763.184 439.631 761.42 436.08C757.931 427.22 747.03 413.804 742.051 404.158Z" data-index="77" style="opacity: 1;"></path>
		<path fill="#3657AE" d="M761.42 436.08C767.938 432.565 774.068 428.194 780.3 424.193C789.667 418.178 799.132 412.283 808.424 406.156C812.621 403.389 816.583 400.208 820.911 397.654C819.142 403.602 817.43 409.984 813.608 415.002C807.519 422.995 777.437 440.103 767.172 446.428C765.14 443.024 763.184 439.631 761.42 436.08Z" data-index="78"></path>
		<path fill="#FDFDFC" d="M710.589 352.993C719.98 347.919 756.464 321.672 765.03 324.742C766.62 325.311 767.888 326.423 768.693 327.887C768.618 329.53 768.491 330.311 767.231 331.446C761.542 336.567 724.209 358.554 716.379 361.517C714.528 358.611 712.601 355.791 710.589 352.993Z" data-index="79" style="opacity: 1;"></path>
		<defs>
			<linearGradient id="gradient_5" gradientUnits="userSpaceOnUse" x1="467.78064" y1="318.86557" x2="407.22131" y2="322.66568">
				<stop offset="0" stop-color="#F5591E"></stop>
				<stop offset="1" stop-color="#E54029"></stop>
			</linearGradient>
		</defs>
		<path fill="url(#gradient_5)" d="M458.854 161.511C459.458 167.401 459.174 173.528 459.209 179.458Q459.391 193.698 459.404 207.94C459.422 224.194 460.296 240.898 459.386 257.108C458.739 246.964 459.236 236.752 458.693 226.587L458.785 227.256C457.995 228.881 458.494 233.637 458.493 235.616L457.971 235.65C456.367 237.179 453.53 237.982 451.5 238.873C451.531 236.047 452.107 231.769 451.345 229.125C451.141 228.421 451.06 228.879 451.323 228.244Q451.169 232.234 450.92 236.22C450.539 230.513 451.827 220.797 446.928 216.799C445.188 215.38 442.855 215.03 440.689 215.405C436.514 216.127 432.8 218.964 430.529 222.474C428.782 225.174 428.36 228.579 428.171 231.732C427.657 240.283 428.107 249.11 428.15 257.683L428.19 302.962L428.356 472.69Q422.198 476.748 416.189 481.025C413.287 483.772 409.539 486.151 406.346 488.599L406.346 318.185L406.365 274.04C406.369 263.872 407.242 252.808 405.141 242.849L405.58 242.639L406.179 244.221C409.371 244.015 412.457 243.262 415.636 242.989C416.394 241.888 416.056 240.621 416.018 239.306C416.68 240.101 416.635 242.47 416.948 243.605C417.822 234.665 416.829 225.24 416.751 216.243C416.672 207.074 417.564 197.011 416.358 187.96C419.943 184.825 425.222 182.262 429.321 179.729L458.854 161.511Z" data-index="80" style="opacity: 1;"></path>
		<path fill="#F9A53C" d="M405.141 242.849L405.58 242.639L406.179 244.221C409.371 244.015 412.457 243.262 415.636 242.989C416.394 241.888 416.056 240.621 416.018 239.306C416.68 240.101 416.635 242.47 416.948 243.605Q417.744 362.319 416.189 481.025C413.287 483.772 409.539 486.151 406.346 488.599L406.346 318.185L406.365 274.04C406.369 263.872 407.242 252.808 405.141 242.849Z" data-index="81" style="opacity: 1;"></path>
		<path fill="#C29373" d="M222.782 262.924C226.26 264.179 229.775 265.084 233.438 265.566C240.883 265.577 247.513 265.202 254.839 263.619C260.321 274.613 266.752 288.101 268.365 300.304C269.142 306.181 268.862 312.227 268.69 318.139L268.642 360.397C268.702 367.587 269.131 374.807 269.052 381.993C263.064 386.224 256.753 389.994 250.516 393.845Q245.936 397.036 241.294 400.137C231.613 392.838 220.674 386.859 210.524 380.2Q210.504 351.241 209.974 322.286C208.34 297.745 213.658 285.091 222.782 262.924Z" data-index="82"></path>
		<path fill="#FDE0B4" d="M222.782 262.924C226.26 264.179 229.775 265.084 233.438 265.566C240.883 265.577 247.513 265.202 254.839 263.619C260.321 274.613 266.752 288.101 268.365 300.304C269.142 306.181 268.862 312.227 268.69 318.139C263.485 323.584 258.27 328.204 250.818 330.176L250.563 330.299C243.194 331.938 236.208 332.77 228.653 331.888C220.924 330.987 214.908 328.509 209.974 322.286C208.34 297.745 213.658 285.091 222.782 262.924Z" data-index="83"></path>
		<path fill="#C29373" d="M233.438 265.566C240.883 265.577 247.513 265.202 254.839 263.619C260.321 274.613 266.752 288.101 268.365 300.304C269.142 306.181 268.862 312.227 268.69 318.139C263.485 323.584 258.27 328.204 250.818 330.176C251.051 319.617 251.63 308.636 250.478 298.136C249.293 287.34 246.164 276.458 243.659 265.894C240.308 266.139 236.726 266.339 233.438 265.566Z" data-index="84"></path>
		<path fill="#81746B" d="M268.69 318.139L268.642 360.397C268.702 367.587 269.131 374.807 269.052 381.993C263.064 386.224 256.753 389.994 250.516 393.845C250.314 372.668 250.705 351.479 250.563 330.299L250.818 330.176C258.27 328.204 263.485 323.584 268.69 318.139Z" data-index="85"></path>
		<path fill="#ED6829" d="M416.358 187.96C417.564 197.011 416.672 207.074 416.751 216.243C416.829 225.24 417.822 234.665 416.948 243.605C416.635 242.47 416.68 240.101 416.018 239.306C416.056 240.621 416.394 241.888 415.636 242.989C412.457 243.262 409.371 244.015 406.179 244.221L405.58 242.639L405.141 242.849C403.119 240.541 401.432 238.799 398.236 238.508C394.898 238.203 391.738 239.375 389.284 241.631C384.776 245.775 384.003 252.301 383.915 258.097C383.669 274.19 384.047 290.338 384.074 306.437L384.053 401.665C384.035 418.922 384.658 436.484 383.916 453.714C384.3 469.911 383.659 486.128 383.978 502.322C380.701 504.71 377.464 507.268 374.072 509.482L373.609 509.816C371.038 511.986 368.403 513.955 365.646 515.882C365.06 502.706 365.509 489.297 365.489 476.097L365.46 398.735C365.505 339.183 364.812 279.578 365.625 220.031C369.051 216.683 372.939 214.006 377.083 211.63C389.776 203.253 403.385 195.934 416.358 187.96Z" data-index="86" style="opacity: 1;"></path>
		<path fill="#F9A53C" d="M377.083 211.63C374.623 222.418 375.415 233.556 374.961 244.542C374.714 250.508 374.1 256.456 373.948 262.428C373.063 297.095 373.993 331.948 373.912 366.637L373.451 464.624C373.439 479.547 372.754 494.936 373.609 509.816C371.038 511.986 368.403 513.955 365.646 515.882C365.06 502.706 365.509 489.297 365.489 476.097L365.46 398.735C365.505 339.183 364.812 279.578 365.625 220.031C369.051 216.683 372.939 214.006 377.083 211.63Z" data-index="87" style="opacity: 1;"></path>
		<path fill="#EF4624" d="M374.072 509.482Q373.919 475.887 374.119 442.295C374.171 431.269 373.81 420.144 374.437 409.138L374.502 469.933C374.502 480.677 373.619 492.337 374.778 502.964C375.217 503.281 375.836 503.798 376.365 503.99C377.817 504.52 379.266 504.293 380.533 503.415C381.66 502.635 382.682 501.093 382.899 499.739C383.598 495.395 382.747 489.587 382.785 485.104L382.973 440.932C382.977 434.071 382.195 426.078 383.158 419.333C384.375 422.616 383.491 447.568 383.916 453.714C384.3 469.911 383.659 486.128 383.978 502.322C380.701 504.71 377.464 507.268 374.072 509.482Z" data-index="88"></path>
		<path fill="#EC353D" d="M772.858 311.91C793.31 302.617 814.581 281.723 838.619 290.693C853.707 296.323 864.727 310.427 871.075 324.738C876.721 337.466 878.291 354.365 873.093 367.511C873.031 367.67 872.959 367.825 872.892 367.982C867.926 384.211 850.749 391.044 837.957 400.236C833.277 403.6 829.365 407.342 825.435 411.535C827.271 408.052 828.602 404.796 829.557 400.974C829.984 399.265 830.168 396.998 830.885 395.442C832.022 371.561 821.919 351.633 807.632 333.246C801.75 327.01 795.131 321.43 787.701 317.134C782.813 314.972 778.1 313.017 772.858 311.91Z" data-index="89" style="opacity: 1;"></path>
		<path fill="#F4758E" d="M831.007 294.599C837.646 295.225 848.621 300.735 853.289 305.426Q840.972 312.557 828.914 320.118C821.936 324.568 815.044 329.543 807.632 333.246C801.75 327.01 795.131 321.43 787.701 317.134L787.456 314.759C788.266 315.141 789.097 315.604 790.002 315.713C795.916 316.425 823.187 304.146 828.168 300.057C830.104 298.469 830.758 297.071 831.007 294.599Z" data-index="90"></path>
		<path fill="#FDFDFC" d="M787.456 314.759C786.423 313.899 786.167 313.738 785.721 312.491C786.136 310.482 787.185 309.354 788.784 308.136C794.922 303.458 814.063 295.324 821.762 294.076C824.703 293.599 828.058 294.255 831.007 294.599C830.758 297.071 830.104 298.469 828.168 300.057C823.187 304.146 795.916 316.425 790.002 315.713C789.097 315.604 788.266 315.141 787.456 314.759Z" data-index="91"></path>
		<path fill="#9A2C75" d="M830.885 395.442C833.749 394.87 840.867 388.647 843.516 386.696Q857.489 376.217 872.892 367.982C867.926 384.211 850.749 391.044 837.957 400.236C833.277 403.6 829.365 407.342 825.435 411.535C827.271 408.052 828.602 404.796 829.557 400.974C829.984 399.265 830.168 396.998 830.885 395.442Z" data-index="92"></path>
		<defs>
			<linearGradient id="gradient_6" gradientUnits="userSpaceOnUse" x1="480.54886" y1="301.60483" x2="450.97687" y2="303.33514">
				<stop offset="0" stop-color="#D43128"></stop>
				<stop offset="1" stop-color="#BF2A39"></stop>
			</linearGradient>
		</defs>
		<path fill="url(#gradient_6)" d="M458.854 161.511C463.463 158.299 468.62 155.729 473.496 152.934L473.078 346.616L473.099 407.822C473.104 419.244 472.597 430.929 473.386 442.309Q466.267 447.13 459.092 451.867C456.376 453.825 453.593 455.541 450.695 457.217C449.865 424.946 450.826 392.441 450.925 360.145L450.92 236.22Q451.169 232.234 451.323 228.244C451.06 228.879 451.141 228.421 451.345 229.125C452.107 231.769 451.531 236.047 451.5 238.873C453.53 237.982 456.367 237.179 457.971 235.65L458.493 235.616C458.494 233.637 457.995 228.881 458.785 227.256L458.693 226.587C459.236 236.752 458.739 246.964 459.386 257.108C460.296 240.898 459.422 224.194 459.404 207.94Q459.391 193.698 459.209 179.458C459.174 173.528 459.458 167.401 458.854 161.511Z" data-index="93" style="opacity: 1;"></path>
		<path fill="#F9A53C" d="M451.5 238.873C453.53 237.982 456.367 237.179 457.971 235.65L458.493 235.616C458.494 233.637 457.995 228.881 458.785 227.256L458.693 226.587C459.236 236.752 458.739 246.964 459.386 257.108C459.368 321.99 458.067 387 459.092 451.867C456.376 453.825 453.593 455.541 450.695 457.217C449.865 424.946 450.826 392.441 450.925 360.145L450.92 236.22Q451.169 232.234 451.323 228.244C451.06 228.879 451.141 228.421 451.345 229.125C452.107 231.769 451.531 236.047 451.5 238.873Z" data-index="94" style="opacity: 1;"></path>
		<path fill="#C62F37" d="M508.274 625.189C511.7 621.856 516.994 619.174 521.027 616.551C534.989 607.469 549.283 598.93 563.256 589.865L771.327 456.31Q789.128 444.916 807.166 433.902C815.256 428.963 824.994 424.054 831.925 417.53C831.815 422.699 831.641 427.863 831.961 433.029C821.824 437.832 812.302 444.535 802.862 450.579L753.404 482.412Q671.243 533.532 590.041 586.16C575.545 595.703 560.706 604.664 546.209 614.197Q533.872 622.464 521.283 630.341C517.83 632.506 514.25 635.118 510.547 636.789C507.198 639.917 493.649 647.486 489.011 650.478Q457.743 670.929 426.138 690.855C421.617 689.789 417.152 688.438 412.682 687.176C417.58 682.665 423.375 679.432 428.973 675.892L455.87 658.988C473.368 647.874 490.41 635.674 508.274 625.189Z" data-index="95" style="opacity: 1;"></path>
		<path fill="#ED6829" d="M412.682 687.176C417.58 682.665 423.375 679.432 428.973 675.892L455.87 658.988C473.368 647.874 490.41 635.674 508.274 625.189C506.346 629.905 457.203 657.283 456.754 660.312C456.701 660.669 457.024 660.982 457.158 661.317C458.03 661.807 458.861 662.252 459.769 662.672C460.932 663.209 461.845 663.994 462.881 664.727C463.666 665.282 463.35 665.109 464.381 665.256C475.561 658.327 486.439 650.922 497.583 643.933C501.515 641.466 505.678 638.306 509.882 636.383L510.547 636.789C507.198 639.917 493.649 647.486 489.011 650.478Q457.743 670.929 426.138 690.855C421.617 689.789 417.152 688.438 412.682 687.176Z" data-index="96"></path>
		<path fill="#F7C528" d="M351.026 580.07C356.707 577.842 361.897 579.468 367.581 580.531C371.786 582.211 375.308 583.921 378.63 587.083C386.961 595.014 401.494 624.261 408.427 635.884C412.611 642.426 417.166 649.087 420.446 656.141C422.064 659.12 425.411 663.814 424.832 667.204C420.99 671.649 407.838 678.781 402.177 681.53L393.594 676.365Q382.486 669.653 371.79 662.303Q347.024 647.544 322.789 631.928C330.802 619.503 335.606 602.736 341.949 589.172C344.188 584.383 346.015 581.913 351.026 580.07Z" data-index="97"></path>
		<path fill="#F9A53C" d="M408.427 635.884C412.611 642.426 417.166 649.087 420.446 656.141C422.064 659.12 425.411 663.814 424.832 667.204C420.99 671.649 407.838 678.781 402.177 681.53L393.594 676.365Q382.486 669.653 371.79 662.303C372.245 661.48 372.593 660.828 373.299 660.176C376.709 657.025 381.562 654.386 385.41 651.695C392.869 646.478 400.464 640.238 408.427 635.884Z" data-index="98"></path>
		<path fill="#ED6829" d="M420.446 656.141C422.064 659.12 425.411 663.814 424.832 667.204C420.99 671.649 407.838 678.781 402.177 681.53L393.594 676.365C401.78 669.487 413.468 663.936 420.446 656.141Z" data-index="99"></path>
		<path fill="#FDFDFC" d="M351.026 580.07C356.707 577.842 361.897 579.468 367.581 580.531C369.69 584.425 374.995 585.656 377.575 589.243L376.924 589.702C373.608 589.693 370.609 588.183 367.355 587.744C363.427 587.215 355.531 588.453 352.413 585.946C350.854 584.693 351.038 581.841 351.026 580.07Z" data-index="100"></path>
		<path fill="#F9A53C" d="M357.29 567.978C377.979 553.291 400.101 539.811 421.776 526.633C423.218 527.02 423.673 527.977 424.622 529.083C426.411 531.556 428.494 534.068 430.012 536.709C434.796 545.457 439.508 554.268 444.614 562.834C450.934 573.439 457.764 583.944 463.341 594.963C458.814 598.671 453.739 601.818 448.905 605.11C438.183 612.41 427.24 619.521 416.81 627.233C407.949 614.678 395.68 588.51 385.623 579.64C381.613 576.103 376.895 573.891 372.103 571.616C369.44 570.768 366.804 570.071 364.078 569.46C361.746 569.38 359.524 568.609 357.29 567.978Z" data-index="101" style="opacity: 1;"></path>
		<path fill="#FDFDFC" d="M357.29 567.978C377.979 553.291 400.101 539.811 421.776 526.633C423.218 527.02 423.673 527.977 424.622 529.083C426.411 531.556 428.494 534.068 430.012 536.709C418.595 546.171 405.607 553.02 392.786 560.332C386.011 564.195 379.236 568.465 372.103 571.616C369.44 570.768 366.804 570.071 364.078 569.46C361.746 569.38 359.524 568.609 357.29 567.978Z" data-index="102"></path>
		<path fill="#F7C528" d="M357.29 567.978C377.979 553.291 400.101 539.811 421.776 526.633C423.218 527.02 423.673 527.977 424.622 529.083C416.347 534.397 365.917 562.985 364.226 568.74C364.157 568.975 364.128 569.22 364.078 569.46C361.746 569.38 359.524 568.609 357.29 567.978Z" data-index="103"></path>
		<path fill="#F7C528" d="M674.656 200.364C683.663 194.168 695.687 184.048 706.487 181.878C709.341 181.304 712.262 181.515 715.15 181.642C717.157 182.155 719.123 182.674 720.992 183.591C727.533 186.8 733.668 191.401 739.848 195.262C749.788 201.471 760.031 207.306 769.446 214.311Q784.359 223.489 799.752 231.836C790.495 237.58 781.387 243.582 772.086 249.251C769.049 251.102 765.722 253.532 762.442 254.871C762.376 254.895 762.314 254.942 762.244 254.943C760.826 254.966 759.832 253.678 758.803 252.817L712.714 224.21C700.052 216.222 687.57 207.944 674.656 200.364Z" data-index="104"></path>
		<path fill="#F7F6AA" d="M674.656 200.364C683.663 194.168 695.687 184.048 706.487 181.878C709.341 181.304 712.262 181.515 715.15 181.642C713.16 185.157 709.078 186.96 706.132 189.609C704.529 191.051 703.225 192.874 701.9 194.567C709.595 199.989 715.886 206.605 723.182 212.42C728.661 217.608 756.982 246.798 759.148 250.971C759.065 251.618 758.975 252.185 758.803 252.817L712.714 224.21C700.052 216.222 687.57 207.944 674.656 200.364Z" data-index="105" style="opacity: 1;"></path>
		<path fill="#F9A53C" d="M715.15 181.642C717.157 182.155 719.123 182.674 720.992 183.591C727.533 186.8 733.668 191.401 739.848 195.262C749.788 201.471 760.031 207.306 769.446 214.311C768.775 215.325 767.712 215.506 767.311 216.379C768.424 218.548 770.451 221.48 770.772 223.867C770.808 224.84 770.852 225.738 771.051 226.694C771.884 230.71 771.999 234.166 770.546 238.042L770.195 238.358L770.234 238.375L770.742 234.346Q770.237 233.248 769.703 232.165C762.586 217.646 753.117 208.828 737.774 203.656C732.657 206.055 727.899 209.326 723.182 212.42C715.886 206.605 709.595 199.989 701.9 194.567C703.225 192.874 704.529 191.051 706.132 189.609C709.078 186.96 713.16 185.157 715.15 181.642Z" data-index="106"></path>
		<path fill="#ED6829" d="M769.446 214.311Q784.359 223.489 799.752 231.836C790.495 237.58 781.387 243.582 772.086 249.251C769.049 251.102 765.722 253.532 762.442 254.871C763.307 251.079 769.207 244.526 771.02 239.59C773.001 234.196 773.16 229.123 770.772 223.867C770.451 221.48 768.424 218.548 767.311 216.379C767.712 215.506 768.775 215.325 769.446 214.311Z" data-index="107"></path>
		<path fill="#F7F6AA" d="M667.31 205.979C680.206 213.088 692.535 221.748 704.976 229.652C721.147 239.925 737.597 249.741 753.897 259.808C752.03 261.145 749.984 262.217 747.984 263.344C737.083 269.51 726.92 276.633 716.274 283.173L708.748 278.918C702.952 275.85 697.336 271.562 691.732 268.077C671.551 255.527 651.757 241.837 631.184 229.988C643.374 222.224 654.959 213.49 667.31 205.979Z" data-index="108" style="opacity: 1;"></path>
		<path fill="#F7C528" d="M707.059 237.976C712.052 240.927 725.051 247.58 728.551 251.147C734.979 255.149 741.841 258.939 747.984 263.344C737.083 269.51 726.92 276.633 716.274 283.173L708.748 278.918C710.085 277.758 711.412 276.833 712.939 275.94L713.547 274.094C713.824 273.272 714.404 272.023 714.247 271.146C713.527 267.112 695.404 250.684 691.626 246.979C696.832 243.841 702.187 241.751 707.059 237.976Z" data-index="109"></path>
		<path fill="#ED6829" d="M728.551 251.147C734.979 255.149 741.841 258.939 747.984 263.344C737.083 269.51 726.92 276.633 716.274 283.173L708.748 278.918C710.085 277.758 711.412 276.833 712.939 275.94C717.195 273.986 721.382 271.255 724.302 267.551C728.265 262.527 729.217 257.335 728.551 251.147Z" data-index="110"></path>
		<path fill="#F7C528" d="M665.476 213.335C673.937 217.783 681.977 222.881 690.174 227.782C695.82 231.157 701.618 234.27 707.059 237.976C702.187 241.751 696.832 243.841 691.626 246.979C683.276 238.906 669.998 223.304 661.179 217.543C662.55 216.083 664.032 214.722 665.476 213.335Z" data-index="111"></path>
		<defs>
			<linearGradient id="gradient_7" gradientUnits="userSpaceOnUse" x1="684.54822" y1="308.46954" x2="616.70526" y2="238.9882">
				<stop offset="0" stop-color="#FFE445"></stop>
				<stop offset="1" stop-color="#FAF994"></stop>
			</linearGradient>
		</defs>
		<path fill="url(#gradient_7)" d="M624.577 235.053C639.389 245.279 654.657 254.553 669.881 264.13L707.865 288.459L703.601 290.996C694.373 296.708 685.621 303.15 676.372 308.82C674.204 310.4 672.003 312.319 669.491 313.294L668.455 313C663.767 308.139 654.689 303.562 648.869 299.769L607.564 272.895L607.51 246.844C613.503 243.319 619.063 239.27 624.577 235.053Z" data-index="112"></path>
		<defs>
			<linearGradient id="gradient_8" gradientUnits="userSpaceOnUse" x1="699.10217" y1="294.77496" x2="628.4093" y2="268.59842">
				<stop offset="0" stop-color="#FFA600"></stop>
				<stop offset="1" stop-color="#FDD301"></stop>
			</linearGradient>
		</defs>
		<path fill="url(#gradient_8)" d="M632.397 253.343C632.87 252.517 633.378 251.882 633.981 251.151C647.722 258.901 660.898 267.434 674.375 275.621C683.619 281.237 692.904 288.596 703.601 290.996C694.373 296.708 685.621 303.15 676.372 308.82C677.757 303.868 680.749 301.58 679.893 295.944C678.936 289.646 675.063 282.451 670 278.6C661.654 272.435 653.554 265.453 644.284 260.707C640.612 258.827 634.238 257.114 632.397 253.343Z" data-index="113"></path>
		<path fill="#F7EA2E" d="M670 278.6C675.063 282.451 678.936 289.646 679.893 295.944C680.749 301.58 677.757 303.868 676.372 308.82C674.204 310.4 672.003 312.319 669.491 313.294L668.455 313C669.97 309.145 671.491 304.831 672.352 300.782C673.863 293.67 674.088 284.832 670 278.6Z" data-index="114"></path>
		<path fill="#F7C528" d="M632.397 253.343C632.218 253.368 632.04 253.41 631.86 253.419C630.147 253.501 626.872 252.813 625.663 251.467C624.796 250.502 624.888 249.975 624.92 248.776C625.659 247.867 625.977 247.378 627.251 247.243C629.774 246.976 632.313 249.629 633.981 251.151C633.378 251.882 632.87 252.517 632.397 253.343Z" data-index="115"></path>
		<path fill="#3657AE" d="M277.806 357.4C283.707 360.684 297.072 365.771 299.236 372.434C299.574 373.476 299.493 374.656 299.501 375.737L299.529 377.943L299.537 409.497C288.458 417.691 276.273 424.42 264.61 431.745C257.752 436.052 250.988 441.273 243.906 445.112C242.947 445.632 242.118 446.006 241.008 445.97C240.666 445.685 240.164 445.36 239.921 444.99C241.514 439.596 240.395 421.989 240.338 415.395L240.292 415.138C240.549 412.993 240.621 410.913 240.617 408.753C248.145 406.173 255.876 399.759 262.533 395.383Q273.23 388.385 284.164 381.762C284.608 377.628 284.115 373.385 283.479 369.295L277.757 365.653C277.723 362.901 277.642 360.148 277.806 357.4Z" data-index="116"></path>
		<path fill="#9764E6" d="M277.806 357.4C283.707 360.684 297.072 365.771 299.236 372.434C299.574 373.476 299.493 374.656 299.501 375.737L299.529 377.943C292.772 384.067 246.921 413.492 240.338 415.395L240.292 415.138C240.549 412.993 240.621 410.913 240.617 408.753C248.145 406.173 255.876 399.759 262.533 395.383Q273.23 388.385 284.164 381.762C284.608 377.628 284.115 373.385 283.479 369.295L277.757 365.653C277.723 362.901 277.642 360.148 277.806 357.4Z" data-index="117"></path>
		<path fill="#5E45C7" d="M283.479 369.295C285.714 369.929 289.659 370.692 291.062 372.762C291.765 373.799 291.882 374.933 291.479 376.11C290.593 378.694 286.517 380.701 284.164 381.762C284.608 377.628 284.115 373.385 283.479 369.295Z" data-index="118"></path>
		<path fill="#9764E6" d="M200.577 361.242L200.18 367.799C197.414 369.621 193.348 371.814 192.74 375.404C192.452 377.109 193.386 378.386 194.464 379.578C200.272 385.999 211.268 390.497 218.768 394.916C226.215 399.303 233.527 403.801 240.617 408.753C240.621 410.913 240.549 412.993 240.292 415.138L240.338 415.395C240.395 421.989 241.514 439.596 239.921 444.99C220.693 432.495 200.765 421.2 181.436 408.881L181.459 379.678C181.551 375.827 182.326 373.932 185.095 371.192C189.351 366.981 195.389 364.157 200.577 361.242Z" data-index="119"></path>
		<path fill="#B27BE4" d="M200.577 361.242L200.18 367.799C197.414 369.621 193.348 371.814 192.74 375.404C192.452 377.109 193.386 378.386 194.464 379.578C200.272 385.999 211.268 390.497 218.768 394.916C226.215 399.303 233.527 403.801 240.617 408.753C240.621 410.913 240.549 412.993 240.292 415.138C235.728 413.907 230.504 409.783 226.312 407.372C211.375 398.781 194.692 390.81 181.459 379.678C181.551 375.827 182.326 373.932 185.095 371.192C189.351 366.981 195.389 364.157 200.577 361.242Z" data-index="120"></path>
		<path fill="#965731" d="M439.12 222.412C440.645 222.49 441.253 222.304 442.46 223.288C443.154 224.879 443.421 226.273 443.552 228.005C443.964 233.436 443.35 239.13 443.373 244.597L443.728 284.25C444.378 343.475 443.182 402.735 444.062 461.951L439.522 464.469C438.124 465.175 437.361 465.861 435.785 465.649C434.588 459.55 435.495 451.664 435.518 445.376L435.557 402.056L435.233 235.352C435.273 229.637 434.863 226.631 439.12 222.412Z" data-index="121" style="opacity: 1;"></path>
		<path fill="#965731" d="M394.781 245.913C395.665 245.916 397.027 245.83 397.656 246.495C398.913 247.826 399.002 250.052 399.115 251.785C399.492 257.601 398.86 263.608 398.889 269.454L399.044 314.075L399.038 431.04C398.996 451.701 398.573 472.409 398.956 493.065C397.085 493.942 395.292 495.043 393.488 496.053C392.958 496.357 392.549 496.462 391.963 496.612C390.588 494.114 391.458 455.797 391.453 450.398L391.357 310.119L391.332 273.067C391.276 265.892 390.574 258.185 391.377 251.064C391.669 248.47 392.826 247.497 394.781 245.913Z" data-index="122" style="opacity: 1;"></path>
		<path fill="#FDFDFC" d="M684.149 364.804C689.611 361.098 695.169 357.407 700.986 354.277C716.893 379.992 732.789 405.64 747.942 431.812C747.591 432.361 747.263 433.165 746.669 433.48C742.378 435.758 729.706 430.44 725.406 428.882Q711.306 407.311 697.456 385.579C693.075 378.805 687.709 372.013 684.149 364.804Z" data-index="123" style="opacity: 1;"></path>
		<path fill="#F7C528" d="M607.748 283.281C615.613 288.052 623.23 293.243 630.982 298.197C641.353 304.825 651.866 311.261 662.107 318.087C660.329 319.308 658.568 320.625 656.693 321.687C653.545 320.42 650.536 318.766 647.517 317.219C642.705 320.449 637.54 323.064 632.708 326.249C627.469 329.954 622.084 333.341 616.686 336.802C613.673 334.909 610.656 333.059 607.549 331.323L607.575 297.922L607.582 293.406C607.608 290.042 607.533 286.638 607.748 283.281Z" data-index="124"></path>
		<path fill="#F7F6AA" d="M607.575 297.922C613.967 302.594 629.875 319.437 632.708 326.249C627.469 329.954 622.084 333.341 616.686 336.802C613.673 334.909 610.656 333.059 607.549 331.323L607.575 297.922Z" data-index="125"></path>
		<path fill="#F7F6AA" d="M607.748 283.281C615.613 288.052 623.23 293.243 630.982 298.197C641.353 304.825 651.866 311.261 662.107 318.087C660.329 319.308 658.568 320.625 656.693 321.687C653.545 320.42 650.536 318.766 647.517 317.219C644.826 314.388 611.29 292.955 608.502 292.452L607.582 293.406C607.608 290.042 607.533 286.638 607.748 283.281Z" data-index="126"></path>
		<path fill="#FDFDFC" d="M181.106 417.284Q199.675 429.486 218.646 441.052C224.821 444.866 236.367 450.704 240.995 455.433C240.283 462.631 240.851 469.865 240.465 477.069C232.502 472.888 225.004 467.553 217.474 462.645C205.522 454.855 193.319 446.944 180.979 439.804L181.106 417.284Z" data-index="127"></path>
		<path fill="#C6C3C5" d="M240.995 455.433C246.93 453.909 265.753 440.344 271.979 436.344C281.082 430.495 290.35 424.979 299.384 419.003C299.458 425.623 299.588 432.205 300.022 438.812C293.544 444.203 243.955 476.904 240.465 477.069C240.851 469.865 240.283 462.631 240.995 455.433Z" data-index="128"></path>
		<path fill="#F7C528" d="M429.063 521.601C450.546 508.774 471.457 494.919 492.655 481.621Q497.084 489.397 501.817 496.992C494.497 500.323 487.059 504.972 480.639 509.834L478.365 510.038C473.864 511.428 468.368 513.057 465.914 517.49C465.496 518.246 465.216 519.096 464.949 519.915C459.658 520.211 447.783 529.434 444.247 533.525C443.632 534.237 443.197 535.015 442.848 535.883C438.826 530.623 433.844 526.153 429.063 521.601Z" data-index="129" style="opacity: 1;"></path>
		<defs>
			<linearGradient id="gradient_9" gradientUnits="userSpaceOnUse" x1="580.66815" y1="193.27779" x2="545.20361" y2="160.69775">
				<stop offset="0" stop-color="#9896C8"></stop>
				<stop offset="1" stop-color="#C9C3D5"></stop>
			</linearGradient>
		</defs>
		<path fill="url(#gradient_9)" d="M531.85 173.869C551.144 178.504 573.748 178.152 591.126 167.65Q593.693 166.11 596.048 164.261Q598.403 162.413 600.509 160.285L600.473 172.328C595.489 181.37 585.575 187.457 575.829 190.308C558.949 195.246 535.787 195.527 519.894 187.108C519.784 187.05 519.68 186.981 519.573 186.917C522.576 184.785 528.985 184.666 531.015 182.323C532.949 180.091 532.14 176.546 531.85 173.869Z" data-index="130"></path>
		<path fill="#C62F37" d="M806.38 239.479C807.627 240.74 807.337 273.36 807.583 278.446C802.233 273.933 796.139 270.143 790.279 266.338Q783.125 261.689 775.782 257.346C785.917 251.32 795.432 244.062 806.38 239.479Z" data-index="131"></path>
		<path fill="#115080" d="M238.086 220.919C242.057 227.271 248.691 247.228 251.573 255.015C247.706 256.312 244.056 257.417 240.007 258.008C234.73 258.044 230.257 257.383 225.174 255.966C229.194 244.181 233.089 232.335 238.086 220.919Z" data-index="132"></path>
		<path fill="#FDFDFC" d="M499.521 149.933C508.417 163.454 516.034 169.448 531.85 173.869C532.14 176.546 532.949 180.091 531.015 182.323C528.985 184.666 522.576 184.785 519.573 186.917C515.228 184.699 511.081 182.044 507.669 178.525C499.51 170.11 499.332 160.946 499.521 149.933Z" data-index="133"></path>
		<path fill="#62BC95" d="M725.406 428.882C729.706 430.44 742.378 435.758 746.669 433.48C747.263 433.165 747.591 432.361 747.942 431.812C752.325 437.663 756.037 445.182 759.138 451.783Q752.063 456.111 745.083 460.59C737.804 450.458 731.518 439.741 725.406 428.882Z" data-index="134" style="opacity: 1;"></path>
		<path fill="#B5A40C" d="M632.708 326.249C637.54 323.064 642.705 320.449 647.517 317.219C650.536 318.766 653.545 320.42 656.693 321.687C646.136 328.801 634.964 335.079 624.767 342.712C622.125 340.649 619.515 338.607 616.686 336.802C622.084 333.341 627.469 329.954 632.708 326.249Z" data-index="135" style="opacity: 1;"></path>
		<path fill="#F7F6AA" d="M607.991 342.138C609.646 342.829 612.247 344.189 613.508 345.477C614.397 346.385 614.449 347.036 614.332 348.228L612.249 349.843L607.927 352.778C608.081 349.239 608.006 345.681 607.991 342.138Z" data-index="136"></path>
	</g>
	<g>
		
	</g>
</svg>