<?xml version="1.0" encoding="utf-8"?>
<svg xmlns="http://www.w3.org/2000/svg" viewBox="0 0 500 500">
  <g id="Layer_1-1"/>
  <g id="group-1" transform="matrix(1, 0, 0, 1, -540.938538, -8.499699)"/>
  <g id="group-2" transform="matrix(1, 0, 0, 1, 20.603687, 15.524879)">
    <g transform="matrix(1, 0, 0, 1, -14.761603, -10.997488)">
      <g>
        <path style="fill:#919698;" d="M480,210v70c0,5.5-4.5,10-10,10h-35.4c-4.9,20.5-13,39.8-23.8,57.2l25.1,25.1 c3.9,3.9,3.9,10.2,0,14.1l-49.5,49.5c-3.9,3.9-10.2,3.9-14.1,0l-25.1-25.1c-17.4,10.8-36.7,18.9-57.2,23.8V470c0,5.5-4.5,10-10,10 h-70c-5.5,0-10-4.5-10-10v-35.4c-20.5-4.9-39.8-13-57.2-23.8l-25.1,25.1c-3.9,3.9-10.2,3.9-14.1,0l-49.5-49.5 c-3.9-3.9-3.9-10.2,0-14.1l25.1-25.1c-10.8-17.4-18.9-36.7-23.8-57.2H20c-5.5,0-10-4.5-10-10v-70c0-5.5,4.5-10,10-10h35.4 c4.9-20.5,13-39.8,23.8-57.2l-25.1-25.1c-3.9-3.9-3.9-10.2,0-14.1l49.5-49.5c3.9-3.9,10.2-3.9,14.1,0l25.1,25.1 c17.4-10.8,36.7-18.9,57.2-23.8V20c0-5.5,4.5-10,10-10h70c5.5,0,10,4.5,10,10v35.4c20.5,4.9,39.8,13,57.2,23.8l25.1-25.1 c3.9-3.9,10.2-3.9,14.1,0l49.5,49.5c3.9,3.9,3.9,10.2,0,14.1l-25.1,25.1c10.8,17.4,18.9,36.7,23.8,57.2H470 C475.5,200,480,204.5,480,210z"/>
      </g>
      <g/>
      <g id="group-3">
        <g/>
        <g>
          <path style="fill: rgb(46, 46, 46);" d="M470,190h-27.664c-4.475-15.989-10.833-31.279-18.972-45.622l19.608-19.607 c7.784-7.787,7.784-20.456-0.001-28.242l-49.501-49.5c-7.785-7.787-20.455-7.785-28.242,0l-19.606,19.606 C331.279,58.497,315.99,52.139,300,47.664V20c0-11.028-8.972-20-20-20h-70c-11.028,0-20,8.972-20,20v27.664 c-15.99,4.475-31.28,10.833-45.623,18.972l-19.606-19.607c-7.787-7.786-20.456-7.785-28.242,0l-49.5,49.5 c-7.786,7.786-7.786,20.456,0,28.243l19.606,19.606C58.497,158.72,52.139,174.01,47.664,190H20c-11.028,0-20,8.972-20,20v70 c0,11.028,8.972,20,20,20h27.664c4.475,15.99,10.833,31.28,18.972,45.623l-19.607,19.606c-7.786,7.787-7.786,20.456,0,28.242 l49.5,49.5c7.787,7.786,20.456,7.786,28.243,0l19.606-19.606c14.343,8.139,29.633,14.497,45.623,18.972V470 c0,11.028,8.972,20,20,20h70c11.028,0,20-8.972,20-20v-27.664c15.99-4.475,31.279-10.833,45.622-18.972l19.607,19.607 c7.785,7.787,20.455,7.785,28.242,0l49.5-49.5c7.785-7.786,7.785-20.455,0-28.242l-19.607-19.606 c8.139-14.343,14.497-29.633,18.972-45.622H470c11.028,0,20-8.972,20-20v-70C490,198.972,481.028,190,470,190z M470,280h-35.4 c-4.628,0-8.65,3.175-9.727,7.675c-4.612,19.301-12.206,37.554-22.569,54.251c-2.45,3.947-1.859,9.06,1.425,12.345l25.101,25.057 l-49.458,49.5l-25.1-25.1c-3.286-3.286-8.399-3.874-12.345-1.426c-16.696,10.363-34.949,17.957-54.252,22.571 c-4.5,1.076-7.675,5.099-7.675,9.726V470h-70v-35.4c0-4.627-3.175-8.65-7.675-9.726c-19.302-4.614-37.555-12.208-54.251-22.571 c-1.628-1.011-3.455-1.503-5.27-1.503c-2.584,0-5.145,1-7.075,2.929l-25.057,25.1l-49.5-49.458l25.1-25.1 c3.285-3.285,3.875-8.398,1.426-12.345c-10.363-16.696-17.957-34.949-22.571-54.251c-1.077-4.5-5.1-7.675-9.727-7.675H20v-70 h35.4c4.627,0,8.65-3.175,9.726-7.675c4.614-19.302,12.208-37.555,22.571-54.251c2.449-3.946,1.859-9.06-1.426-12.345 l-25.1-25.057l49.458-49.5l25.1,25.1c3.285,3.285,8.398,3.874,12.345,1.426c16.696-10.363,34.949-17.957,54.251-22.571 c4.5-1.076,7.675-5.099,7.675-9.726V20h70v35.4c0,4.627,3.175,8.65,7.675,9.726c19.303,4.614,37.556,12.208,54.252,22.571 c3.945,2.449,9.059,1.86,12.345-1.426l25.058-25.1l49.5,49.458l-25.101,25.1c-3.284,3.285-3.875,8.398-1.425,12.345 c10.363,16.698,17.957,34.951,22.569,54.251c1.076,4.5,5.099,7.675,9.727,7.675H470V280z"/>
          <circle style="fill: rgba(216, 216, 216, 0); stroke: rgb(42, 42, 42); stroke-width: 19px;" cx="245.124" cy="244.924" r="141.068"/>
        </g>
      </g>
    </g>
  </g>
  <path opacity="0.4" d="M 250.858 385.394 C 325.708 385.394 386.388 324.717 386.388 249.862 C 386.388 175.007 325.708 114.328 250.858 114.328 C 176.008 114.328 115.328 175.007 115.328 249.862 C 115.328 324.717 176.008 385.394 250.858 385.394 Z" fill="#292D32" style=""/>
  <path d="M 250.858 181.146 C 222.798 181.146 200.028 203.915 200.028 231.97 C 200.028 259.485 221.578 281.847 250.178 282.661 C 250.588 282.661 251.128 282.661 251.398 282.661 C 251.668 282.661 252.078 282.661 252.348 282.661 C 252.478 282.661 252.618 282.661 252.618 282.661 C 279.998 281.712 301.548 259.485 301.678 231.97 C 301.678 203.915 278.908 181.146 250.858 181.146 Z" fill="#292D32" style=""/>
  <path d="M 342.758 349.478 C 318.638 371.706 286.378 385.394 250.868 385.394 C 215.358 385.394 183.108 371.706 158.978 349.478 C 162.238 337.145 171.038 325.895 183.918 317.221 C 220.918 292.553 281.088 292.553 317.818 317.221 C 330.838 325.895 339.508 337.145 342.758 349.478 Z" fill="#292D32" style=""/>
</svg>