<?xml version="1.0" encoding="utf-8"?>
<svg xmlns="http://www.w3.org/2000/svg" viewBox="0 0 500 500">
  <g id="Layer_1-1"/>
  <g id="Layer_1" transform="matrix(0.963954, 0, 0, 0.963954, 33.358051, 22.067398)" style="">
    <g transform="matrix(1, 0, 0, 1, -14.761603, -10.997488)">
      <g>
        <path style="fill:#919698;" d="M 434.6 200 C 443.866 204.389 454.339 299.35 434.6 290 C 429.7 310.5 421.6 329.8 410.8 347.2 C 419.23 364.061 350.932 418.265 347.2 410.8 C 329.8 421.6 310.5 429.7 290 434.6 C 291.547 440.789 204.428 452.311 200 434.6 C 179.5 429.7 160.2 421.6 142.8 410.8 C 133.414 418.309 65.221 358.383 79.2 347.2 C 68.4 329.8 60.3 310.5 55.4 290 C 47.664 291.934 33.262 205.535 55.4 200 C 60.3 179.5 68.4 160.2 79.2 142.8 C 67.65 138.18 123.374 71.43 142.8 79.2 C 160.2 68.4 179.5 60.3 200 55.4 C 200 44.801 290 44.015 290 55.4 C 310.5 60.3 329.8 68.4 347.2 79.2 C 361.06 67.528 426.752 129.367 410.8 142.8 C 421.6 160.2 429.7 179.5 434.6 200 Z"/>
      </g>
      <g/>
      <g id="XMLID_49_">
        <g/>
        <g>
          <circle style="fill: rgba(216, 216, 216, 0); stroke: rgb(42, 42, 42); stroke-width: 19px;" cx="245.124" cy="244.924" r="202.746"/>
        </g>
      </g>
    </g>
  </g>
  <path opacity="0.4" d="M 255.306 383.504 C 330.162 383.504 390.839 322.827 390.839 247.972 C 390.839 173.117 330.162 112.438 255.306 112.438 C 180.462 112.438 119.774 173.117 119.774 247.972 C 119.774 322.827 180.462 383.504 255.306 383.504 Z" fill="#292D32" style=""/>
  <path d="M 255.306 179.256 C 227.249 179.256 204.48 202.025 204.48 230.08 C 204.48 257.595 226.03 279.957 254.627 280.771 C 255.034 280.771 255.576 280.771 255.848 280.771 C 256.121 280.771 256.526 280.771 256.796 280.771 C 256.931 280.771 257.068 280.771 257.068 280.771 C 284.445 279.822 305.995 257.595 306.131 230.08 C 306.131 202.025 283.361 179.256 255.306 179.256 Z" fill="#292D32" style=""/>
  <path d="M 347.212 347.588 C 323.085 369.816 290.828 383.504 255.321 383.504 C 219.811 383.504 187.556 369.816 163.43 347.588 C 166.683 335.255 175.49 324.005 188.365 315.331 C 225.367 290.663 285.542 290.663 322.272 315.331 C 335.284 324.005 343.958 335.255 347.212 347.588 Z" fill="#292D32" style=""/>
  <g id="group-1" transform="matrix(1, 0, 0, 1, -540.938538, -8.499699)"/>
  <circle style="fill: rgba(216, 216, 216, 0); stroke: rgb(42, 42, 42); stroke-width: 19px;" cx="255.635" cy="248.323" r="141.068"/>
</svg>